<?xml version="1.0" encoding="UTF-8" standalone="no"?>
<svg width="400px" height="303px" viewBox="0 0 400 303" version="1.1" xmlns="http://www.w3.org/2000/svg" xmlns:xlink="http://www.w3.org/1999/xlink" xmlns:sketch="http://www.bohemiancoding.com/sketch/ns">
    <!-- Generator: Sketch 3.3.2 (12043) - http://www.bohemiancoding.com/sketch -->
    <title>Imported Layers Copy 15</title>
    <desc></desc>
    <defs></defs>
    <g id="styleguide" stroke="none" stroke-width="1" fill="none" fill-rule="evenodd" sketch:type="MSPage">
        <g id="big-icon" sketch:type="MSArtboardGroup" transform="translate(-4783.000000, -893.000000)">
            <g id="Imported-Layers-Copy-15" sketch:type="MSLayerGroup" transform="translate(4783.000000, 893.000000)">
                <path d="M308.04107,214.413421 L282.752825,214.413421 C281.357947,202.752053 278.343842,191.590596 273.893404,181.177789 L295.755421,168.558053 C302.754193,164.517298 305.151333,155.567649 301.113018,148.571316 C297.072263,141.574982 288.12993,139.172965 281.123842,143.213719 L259.244754,155.845649 C252.324018,146.639947 244.127895,138.446263 234.922193,131.525526 L247.556561,109.646439 C251.594877,102.647667 249.200175,93.6980175 242.198965,89.6572632 C235.197754,85.6189474 226.252982,88.0185263 222.212228,95.0148596 L209.590053,116.874439 C199.179684,112.428877 188.018228,109.412333 176.354421,108.017456 L176.354421,82.7292105 C176.354421,74.6477018 169.804351,68.0976316 161.722842,68.0976316 C153.643772,68.0976316 147.091263,74.6477018 147.091263,82.7292105 L147.091263,108.017456 C135.429895,109.412333 124.270877,112.431316 113.85807,116.879316 L101.238333,95.0148596 C97.2000175,88.0209649 88.252807,85.621386 81.2491579,89.6597018 C74.2528246,93.7004561 71.8532456,102.650105 75.894,109.646439 L88.5283684,131.530404 C79.3226667,138.45114 71.1314211,146.642386 64.2106842,155.848088 L42.3267193,143.216158 C35.3328246,139.175404 26.3807368,141.572544 22.3399825,148.571316 C18.2992281,155.570088 20.698807,164.517298 27.6951404,168.558053 L49.5595965,181.182667 C45.1140351,191.593035 42.0974912,202.752053 40.702614,214.413421 L15.4070526,214.413421 C7.32798246,214.413421 0.775473684,220.963491 0.775473684,229.045 C0.775473684,237.12407 7.32554386,243.676579 15.4070526,243.676579 L40.702614,243.676579 C42.0974912,255.335509 45.1140351,266.494526 49.5620351,276.904895 L27.6927018,289.529509 C20.6963684,293.570263 18.2967895,302.519912 22.3375439,309.518684 C25.0492632,314.212982 29.9679123,316.836912 35.0231228,316.836912 C37.505614,316.836912 40.0222456,316.202877 42.3242807,314.871404 L64.2106842,302.237035 C71.1314211,311.442737 79.3226667,319.633982 88.5283684,326.554719 L75.8915614,348.443561 C71.850807,355.442333 74.250386,364.389544 81.2467193,368.430298 C83.5536316,369.761772 86.0678246,370.393368 88.5503158,370.393368 C93.6079649,370.393368 98.5241754,367.769439 101.235895,363.07514 L113.860509,341.205807 C124.270877,345.653807 135.432333,348.672789 147.091263,350.067667 L147.091263,375.363228 C147.091263,383.442298 153.643772,389.994807 161.722842,389.994807 C169.804351,389.994807 176.354421,383.442298 176.354421,375.363228 L176.354421,350.067667 C188.015789,348.675228 199.177246,345.656246 209.585175,341.210684 L222.209789,363.07514 C224.91907,367.769439 229.837719,370.393368 234.895368,370.393368 C237.37786,370.393368 239.894491,369.759333 242.196526,368.430298 C249.197737,364.389544 251.592439,355.442333 247.554123,348.443561 L234.919754,326.562035 C244.125456,319.63886 252.321579,311.447614 259.242316,302.241912 L281.121404,314.873842 C283.428316,316.205316 285.942509,316.839351 288.422561,316.839351 C293.482649,316.839351 298.39886,314.215421 301.110579,309.518684 C305.148895,302.522351 302.751754,293.572702 295.752982,289.531947 L273.890965,276.909772 C278.341404,266.499404 281.357947,255.337947 282.752825,243.676579 L308.04107,243.676579 C316.122579,243.676579 322.672649,237.12407 322.672649,229.045 C322.672649,220.963491 316.122579,214.413421 308.04107,214.413421 L308.04107,214.413421 Z M248.27107,262.119684 C244.727789,271.357088 239.753053,279.892175 233.610228,287.44207 C229.586544,292.387544 225.065386,296.906263 220.122351,300.927509 C212.570018,307.075211 204.03493,312.04507 194.795088,315.588351 C188.908316,317.844053 182.743544,319.524246 176.354421,320.543579 C171.586965,321.304421 166.704895,321.709228 161.727719,321.709228 C156.748105,321.709228 151.861158,321.301982 147.091263,320.54114 C140.704579,319.524246 134.539807,317.841614 128.655474,315.583474 C119.413193,312.040193 110.878105,307.070333 103.328211,300.92507 C98.387614,296.901386 93.8664561,292.380228 89.8427719,287.437193 C83.6975088,279.887298 78.7252105,271.352211 75.1843684,262.112368 C72.9262281,256.228035 71.2435965,250.063263 70.2267018,243.676579 C69.4658596,238.906684 69.0610526,234.022175 69.0610526,229.042561 C69.0610526,224.062947 69.4658596,219.180877 70.2267018,214.413421 C71.2435965,208.024298 72.9262281,201.859526 75.1819298,195.975193 C78.7252105,186.732912 83.6950702,178.197825 89.8427719,170.64793 C93.8640175,165.704895 98.3851754,161.186175 103.325772,157.162491 C110.878105,151.017228 119.413193,146.04493 128.653035,142.501649 C134.537368,140.243509 140.704579,138.560877 147.091263,137.541544 C151.861158,136.78314 156.748105,136.375895 161.727719,136.375895 C166.704895,136.375895 171.586965,136.780702 176.354421,137.541544 C182.745982,138.558439 188.910754,140.24107 194.797526,142.496772 C204.037368,146.040053 212.572456,151.012351 220.124789,157.157614 C225.067825,161.181298 229.588982,165.702456 233.612667,170.645491 C239.755491,178.195386 244.727789,186.730474 248.273509,195.970316 C250.529211,201.857088 252.211842,208.024298 253.228737,214.413421 C253.98714,219.180877 254.394386,224.062947 254.394386,229.042561 C254.394386,234.022175 253.98714,238.906684 253.228737,243.676579 C252.211842,250.065702 250.526772,256.230474 248.27107,262.119684 L248.27107,262.119684 Z" id="Fill-1" fill="#232C2A" sketch:type="MSShapeGroup"></path>
                <path d="M161.727719,190.025018 C183.243456,190.025018 200.745263,207.529263 200.745263,229.042561 C200.745263,250.55586 183.243456,268.060105 161.727719,268.060105 C140.214421,268.060105 122.710175,250.55586 122.710175,229.042561 C122.710175,207.529263 140.214421,190.025018 161.727719,190.025018 M161.727719,160.76186 C124.017263,160.76186 93.4470175,191.332105 93.4470175,229.042561 C93.4470175,266.753018 124.017263,297.323263 161.727719,297.323263 C199.438175,297.323263 230.008421,266.753018 230.008421,229.042561 C230.008421,191.332105 199.438175,160.76186 161.727719,160.76186" id="Fill-2" fill="#FFFFFF" sketch:type="MSShapeGroup"></path>
                <path d="M469.729772,119.888544 L460.928877,114.808947 C463.121175,108.112561 464.323404,100.969912 464.323404,93.5419474 C464.323404,86.1139825 463.121175,78.9713333 460.931316,72.277386 L469.729772,67.1953509 C476.728544,63.1570351 479.125684,54.207386 475.08493,47.208614 C471.046614,40.2122807 462.096965,37.8151404 455.098193,41.8534561 L446.053439,47.0744912 C436.486825,36.7811754 423.786614,29.4434386 409.464737,26.5878421 L409.464737,15.5092982 C409.464737,7.42778947 402.914667,0.877719298 394.833158,0.877719298 C386.754088,0.877719298 380.201579,7.42778947 380.201579,15.5092982 L380.201579,27.1292105 C366.452772,30.3944912 354.318316,37.8078246 345.193088,47.9865263 L334.570561,41.8558947 C327.566912,37.8151404 318.624579,40.2147193 314.583825,47.2110526 C310.545509,54.2098246 312.940211,63.1570351 319.938982,67.1977895 L330.771228,73.4527895 C328.817912,79.8053333 327.762,86.5480526 327.762,93.5419474 C327.762,100.535842 328.817912,107.281 330.773667,113.633544 L319.936544,119.888544 C312.937772,123.92686 310.54307,132.876509 314.581386,139.875281 C317.290667,144.569579 322.209316,147.193509 327.266965,147.193509 C329.749456,147.193509 332.266088,146.561912 334.568123,145.230439 L345.193088,139.097368 C354.318316,149.27607 366.452772,156.689404 380.201579,159.954684 L380.201579,171.579474 C380.201579,179.658544 386.754088,186.211053 394.833158,186.211053 C402.914667,186.211053 409.464737,179.658544 409.464737,171.579474 L409.464737,160.496053 C423.786614,157.640456 436.484386,150.302719 446.053439,140.011842 L455.098193,145.232877 C457.402667,146.561912 459.919298,147.193509 462.399351,147.193509 C467.457,147.193509 472.375649,144.569579 475.08493,139.877719 C479.125684,132.878947 476.728544,123.929298 469.729772,119.888544 L469.729772,119.888544 Z M409.464737,130.130649 C405.272789,131.674281 400.766263,132.559491 396.042702,132.559491 C395.633018,132.559491 395.237965,132.510719 394.833158,132.498526 C389.636509,132.337579 384.698351,131.174368 380.201579,129.164965 C377.085053,127.774965 374.178246,125.997228 371.556754,123.875649 C367.681825,120.742053 364.42386,116.886632 361.975509,112.511789 C359.568614,108.205228 357.968895,103.398754 357.344614,98.2898947 C357.154404,96.7316316 357.025158,95.1538596 357.025158,93.5419474 C357.025158,91.9324737 357.154404,90.3547018 357.344614,88.794 C357.968895,83.6851404 359.568614,78.8786667 361.975509,74.5721053 C364.42386,70.1972632 367.681825,66.3418421 371.554316,63.2082456 C374.178246,61.0866667 377.085053,59.3089298 380.201579,57.9189298 C384.698351,55.9095263 389.636509,54.7463158 394.833158,54.5853684 C395.237965,54.5731754 395.633018,54.5244035 396.042702,54.5244035 C400.766263,54.5244035 405.272789,55.409614 409.464737,56.9532456 C413.086053,58.2847193 416.446439,60.1331754 419.477614,62.4181404 C423.484228,65.4468772 426.88607,69.2169474 429.480737,73.5381404 C432.009561,77.7520351 433.758035,82.4658421 434.545702,87.5088596 C434.852965,89.4816842 435.060246,91.4862105 435.060246,93.5419474 C435.060246,95.5976842 434.852965,97.6046491 434.545702,99.5750351 C433.755596,104.618053 432.009561,109.334298 429.478298,113.545754 C426.883632,117.869386 423.484228,121.639456 419.475175,124.665754 C416.446439,126.950719 413.086053,128.799175 409.464737,130.130649 L409.464737,130.130649 Z" id="Fill-3" fill="#FFFFFF" sketch:type="MSShapeGroup"></path>
                <path d="M409.464737,93.544386 C409.464737,101.623456 402.912228,108.175965 394.833158,108.175965 C386.754088,108.175965 380.201579,101.623456 380.201579,93.544386 C380.201579,85.4628772 386.754088,78.912807 394.833158,78.912807 C402.912228,78.912807 409.464737,85.4628772 409.464737,93.544386" id="Fill-4" fill="#232C2A" sketch:type="MSShapeGroup"></path>
                <path d="M539.432175,317.817228 C547.511246,317.817228 554.063754,311.267158 554.063754,303.185649 C554.063754,295.106579 547.511246,288.55407 539.432175,288.55407 L535.518228,288.55407 C534.372088,280.931018 532.323667,273.607912 529.521719,266.672544 L533.025982,264.648509 C540.024754,260.605316 542.421895,251.658105 538.38114,244.659333 C534.342825,237.665439 525.393175,235.263421 518.394404,239.304175 L514.61214,241.486719 C509.871509,235.690175 504.470018,230.461825 498.534474,225.887018 L500.892596,221.802368 C504.933351,214.806035 502.536211,205.856386 495.537439,201.815632 C488.536228,197.777316 479.591456,200.176895 475.550702,207.170789 L472.941404,211.691947 C466.164544,209.182632 459.029211,207.426842 451.642702,206.475789 L451.642702,200.764596 C451.642702,192.685526 445.092632,186.133018 437.011123,186.133018 C428.932053,186.133018 422.379544,192.685526 422.379544,200.764596 L422.379544,207.092754 C415.239333,208.324246 408.362491,210.319018 401.844123,213.013667 L398.471544,207.170789 C394.433228,200.176895 385.483579,197.777316 378.484807,201.815632 C371.486035,205.856386 369.091333,214.806035 373.129649,221.802368 L376.780228,228.123211 C371.410439,232.585842 366.545439,237.621544 362.238877,243.120579 L355.627842,239.304175 C348.624193,235.263421 339.68186,237.665439 335.641105,244.659333 C331.602789,251.658105 333.997491,260.605316 340.996263,264.648509 L347.853596,268.606351 C345.439386,274.966211 343.659211,281.638211 342.61793,288.55407 L334.59007,288.55407 C326.511,288.55407 319.958491,295.106579 319.958491,303.185649 C319.958491,311.267158 326.511,317.817228 334.59007,317.817228 L342.61793,317.817228 C343.659211,324.733088 345.439386,331.405088 347.853596,337.767386 L340.996263,341.725228 C333.997491,345.765982 331.602789,354.713193 335.641105,361.711965 C338.350386,366.406263 343.269035,369.030193 348.326684,369.030193 C350.806737,369.030193 353.325807,368.396158 355.627842,367.069561 L362.241316,363.250719 C366.545439,368.749754 371.412877,373.785456 376.780228,378.248088 L373.129649,384.56893 C369.091333,391.567702 371.486035,400.514912 378.484807,404.558105 C380.789281,405.889579 383.305912,406.518737 385.785965,406.518737 C390.843614,406.518737 395.762263,403.894807 398.471544,399.200509 L401.844123,393.36007 C408.36493,396.052281 415.239333,398.047053 422.379544,399.278544 L422.379544,405.606702 C422.379544,413.688211 428.932053,420.238281 437.011123,420.238281 C445.092632,420.238281 451.642702,413.688211 451.642702,405.606702 L451.642702,399.895509 C459.029211,398.944456 466.164544,397.188667 472.941404,394.679351 L475.550702,399.200509 C478.259982,403.894807 483.178632,406.518737 488.236281,406.518737 C490.718772,406.518737 493.235404,405.884702 495.537439,404.558105 C502.536211,400.514912 504.933351,391.567702 500.892596,384.56893 L498.534474,380.484281 C504.470018,375.911912 509.871509,370.681123 514.609702,364.884579 L518.394404,367.069561 C520.698877,368.398596 523.215509,369.030193 525.695561,369.030193 C530.755649,369.030193 535.67186,366.406263 538.38114,361.711965 C542.421895,354.713193 540.024754,345.765982 533.025982,341.725228 L529.521719,339.701193 C532.323667,332.763386 534.369649,325.440281 535.518228,317.817228 L539.432175,317.817228 L539.432175,317.817228 Z M503.804281,324.855018 C500.631667,334.311895 495.444772,342.846982 488.750825,349.953053 C487.153544,351.650316 485.466035,353.264667 483.70293,354.793667 C476.333491,361.175474 467.596,366.003895 457.98793,368.781456 C455.910246,369.381351 453.795982,369.883702 451.642702,370.28607 C447.56293,371.049351 443.363667,371.466351 439.069298,371.466351 C433.314211,371.466351 427.722509,370.742088 422.379544,369.395982 C420.44086,368.905825 418.541193,368.325439 416.673228,367.676772 C407.257807,364.39686 398.776368,359.112421 391.741018,352.335561 C390.429053,351.072368 389.168298,349.762842 387.963632,348.399667 C381.496474,341.100947 376.56807,332.419544 373.685649,322.85293 C373.185737,321.199561 372.754105,319.519368 372.381,317.817228 C371.347035,313.100982 370.786158,308.209158 370.786158,303.185649 C370.786158,298.16214 371.347035,293.270316 372.381,288.55407 C372.754105,286.85193 373.185737,285.174175 373.683211,283.520807 C376.56807,273.954193 381.496474,265.270351 387.961193,257.971632 C389.168298,256.610895 390.429053,255.29893 391.741018,254.038175 C398.776368,247.258877 407.257807,241.974439 416.673228,238.694526 C418.541193,238.04586 420.44086,237.465474 422.379544,236.975316 C427.722509,235.629211 433.314211,234.904947 439.069298,234.904947 C443.363667,234.904947 447.56293,235.321947 451.642702,236.085228 C453.795982,236.487596 455.910246,236.992386 457.98793,237.589842 C467.596,240.364965 476.333491,245.195825 483.70293,251.577632 C485.466035,253.106632 487.153544,254.720982 488.750825,256.418246 C495.447211,263.526754 500.631667,272.061842 503.806719,281.516281 C504.574877,283.813439 505.23086,286.159368 505.755158,288.55407 C506.789123,293.270316 507.35,298.16214 507.35,303.185649 C507.35,308.209158 506.786684,313.100982 505.755158,317.817228 C505.23086,320.214368 504.574877,322.560298 503.804281,324.855018 L503.804281,324.855018 Z" id="Fill-5" fill="#27B0A3" sketch:type="MSShapeGroup"></path>
            </g>
        </g>
    </g>
</svg>