<?xml version="1.0" encoding="UTF-8" standalone="no"?>
<svg width="128px" height="96px" viewBox="0 0 128 96" version="1.1" xmlns="http://www.w3.org/2000/svg" xmlns:xlink="http://www.w3.org/1999/xlink" xmlns:sketch="http://www.bohemiancoding.com/sketch/ns">
    <!-- Generator: Sketch 3.3.2 (12043) - http://www.bohemiancoding.com/sketch -->
    <title>email 2</title>
    <desc></desc>
    <defs></defs>
    <g id="styleguide" stroke="none" stroke-width="1" fill="none" fill-rule="evenodd" sketch:type="MSPage">
        <g id="Artboard-6" sketch:type="MSArtboardGroup" transform="translate(-641.000000, -2550.000000)">
            <g id="email" sketch:type="MSLayerGroup" transform="translate(311.000000, 2483.000000)">
                <g id="email-2" transform="translate(330.000000, 67.000000)" sketch:type="MSShapeGroup">
                    <rect id="Rectangle-83" fill="#FFFFFF" x="8" y="10" width="116" height="78"></rect>
                    <path d="M111.976,16 L64,47.844 L16.024,16 L16,16 L16,35.192 L64,67.048 L112,35.192 L112,16 L111.976,16" id="Fill-1" fill="#27B0A3"></path>
                    <path d="M127.596,5.632 C126.576,2.376 123.576,0 119.992,0 L8.008,0 C4.4,0 1.412,2.376 0.4,5.628 C0.164,6.388 0,7.18 0,8.02 L0,87.98 C0,92.412 3.584,96 8.008,96 L119.992,96 C124.444,96 128,92.412 128,87.98 L128,8.02 C128,7.18 127.836,6.392 127.596,5.632 L127.596,5.632 Z M16,16 L112,16 L112,80 L16,80 L16,16 Z" id="Fill-2" fill="#232C2A"></path>
                </g>
            </g>
        </g>
    </g>
</svg>