<?xml version="1.0" encoding="UTF-8" standalone="no"?>
<svg width="328px" height="274px" viewBox="0 0 328 274" version="1.1" xmlns="http://www.w3.org/2000/svg" xmlns:xlink="http://www.w3.org/1999/xlink" xmlns:sketch="http://www.bohemiancoding.com/sketch/ns">
    <!-- Generator: Sketch 3.3.3 (12081) - http://www.bohemiancoding.com/sketch -->
    <title>map</title>
    <desc>Created with Sketch.</desc>
    <defs></defs>
    <g id="Page-1" stroke="none" stroke-width="1" fill="none" fill-rule="evenodd" sketch:type="MSPage">
        <g id="map" sketch:type="MSLayerGroup">
            <g id="styleguide" sketch:type="MSShapeGroup">
                <g id="big-icon">
                    <g id="map-4-copy-2">
                        <path d="M13.958,25.304 L94,61.732 L237.874,14.59 L317.958,56.642 L317.958,260.202 L238.142,224.042 L94,266.362 L10.208,224.848 L13.958,25.304" id="Fill-1" fill="#FFFFFF"></path>
                        <path d="M224,17 L248,17 L248,219 L224,219 L224,17 L224,17 Z" id="Fill-2" fill="#27B0A3"></path>
                        <path d="M82,52 L106,52 L106,254 L82,254 L82,52 L82,52 Z" id="Fill-3" fill="#27B0A3"></path>
                        <path d="M236,0 L92,47.826 L0,0 L0,233.148 L92,274 L236,233.148 L328,274 L328,47.826 L236,0 L236,0 Z M237.808,207.774 L93.81,248.622 L24,217.624 L24,39.448 L89.928,73.72 L233.928,25.894 L304,62.32 L304,237.164 L237.808,207.774 L237.808,207.774 Z" id="Fill-4" fill="#27B0A3"></path>
                    </g>
                </g>
            </g>
        </g>
    </g>
</svg>