<?xml version="1.0" encoding="UTF-8" standalone="no"?>
<svg width="100px" height="191px" viewBox="0 0 100 191" version="1.1" xmlns="http://www.w3.org/2000/svg" xmlns:xlink="http://www.w3.org/1999/xlink" xmlns:sketch="http://www.bohemiancoding.com/sketch/ns">
    <!-- Generator: Sketch 3.3.2 (12043) - http://www.bohemiancoding.com/sketch -->
    <title>microphone 2</title>
    <desc></desc>
    <defs></defs>
    <g id="styleguide" stroke="none" stroke-width="1" fill="none" fill-rule="evenodd" sketch:type="MSPage">
        <g id="Artboard-6" sketch:type="MSArtboardGroup" transform="translate(-653.000000, -3425.000000)">
            <g id="media-&amp;-entertainment-copy-4" sketch:type="MSLayerGroup" transform="translate(653.000000, 3425.000000)">
                <g id="microphone-2" sketch:type="MSShapeGroup">
                    <path d="M5.107,45 L94.829,45 L94.829,109.2 L5.107,109.2 L5.107,45 Z" id="Fill-2" fill="#FFFFFF"></path>
                    <path d="M96,49.1 C96,74.5592261 75.405,95.2 50,95.2 C24.595,95.2 4,74.5592261 4,49.1 C4,23.6397717 24.595,3 50,3 C75.405,3 96,23.6397717 96,49.1" id="Fill-3" fill="#FFFFFF"></path>
                    <path d="M96,113.1 C96,138.559226 75.405,159.2 50,159.2 C24.595,159.2 4,138.559226 4,113.1 C4,87.6397717 24.595,67 50,67 C75.405,67 96,87.6397717 96,113.1" id="Fill-4" fill="#FFFFFF"></path>
                    <g id="Group" transform="translate(6.000000, 3.000000)" fill="#27B0A3">
                        <path d="M44,132 C41.791,132 40,133.791 40,136 L40,155.31 C41.322,155.435 42.657,155.5 44,155.5 C45.344,155.5 46.678,155.435 48,155.31 L48,136 C48,133.791 46.209,132 44,132" id="Fill-5"></path>
                        <path d="M32,132 C29.791,132 28,133.791 28,136 L28,152.346 C30.572,153.406 33.249,154.209 36,154.738 L36,136 C36,133.791 34.209,132 32,132" id="Fill-6"></path>
                        <path d="M68,132 C65.791,132 64,133.791 64,136 L64,150.435 C66.852,148.885 69.537,146.999 72,144.789 L72,136 C72,133.791 70.209,132 68,132" id="Fill-7"></path>
                        <path d="M56,132 C53.791,132 52,133.791 52,136 L52,154.738 C54.751,154.209 57.428,153.406 60,152.346 L60,136 C60,133.791 58.209,132 56,132" id="Fill-8"></path>
                        <path d="M20,132 C17.791,132 16,133.791 16,136 L16,144.789 C18.463,146.999 21.148,148.885 24,150.435 L24,136 C24,133.791 22.209,132 20,132" id="Fill-9"></path>
                        <path d="M48,40.5 L48,39 C48,36.791 46.209,35 44,35 C41.791,35 40,36.791 40,39 L40,42 L0.308,42 C0.637,39.243 1.231,36.568 2.069,34 L85.932,34 C86.77,36.568 87.364,39.243 87.692,42 L48,42 L48,40.5 L48,42 L40,42 L40,39 C40,36.791 41.791,35 44,35 C46.209,35 48,36.791 48,39 L48,40.5 Z" id="Fill-36"></path>
                        <path d="M85.979,47.747 L85.98,47.682 C85.983,47.519 85.988,47.355 85.994,47.193 C85.996,47.127 85.999,47.061 86,46.994 C86,46.661 85.982,46.331 85.975,46 L48,46 L48,54 L85.979,54 L85.979,47.747" id="Fill-39"></path>
                        <path d="M40,46 L2.025,46 C2.018,46.333 2,46.665 2,47 L2,54 L40,54 L40,46" id="Fill-40"></path>
                        <path d="M2,58 L40,58 L40,66 L2,66 L2,58 Z" id="Fill-43"></path>
                        <path d="M48,58 L85.98,58 L85.98,66 L48,66 L48,58 Z" id="Fill-44"></path>
                        <path d="M2,94 L40,94 L40,102 L2,102 L2,94 Z M48,94 L85.979,94 L85.979,102 L48,102 L48,94 Z M48,114 L85.973,114 L85.979,113.75 L85.979,113.746 L85.98,113.682 C85.983,113.518 85.988,113.355 85.994,113.192 C85.995,113.156 85.997,113.12 85.998,113.083 L85.999,113.029 C85.999,113.018 86,113.006 86,112.994 C85.999,112.939 85.996,112.873 85.994,112.808 C85.988,112.644 85.983,112.482 85.98,112.318 L85.979,112.254 L85.979,106 L48,106 L48,114 Z M40,106 L2,106 L2,113.177 L2.027,114 L40,114 L40,106 Z M40,114 L48,114 L48,118 L40,118 L40,114 Z M40,106 L48,106 L48,114 L40,114 L40,106 Z M0.315,118 C0.639,120.736 1.224,123.414 2.063,126 L84.937,126 C85.776,123.414 87.361,120.736 87.685,118 L48,118 L0.315,118 Z M40,102 L48,102 L48,106 L40,106 L40,102 Z M40,94 L48,94 L48,102 L40,102 L40,94 Z" id="Fill-51"></path>
                        <path d="M40,94 L48,94 L48,90 L40,90 L40,94 Z" id="Fill-61"></path>
                        <path d="M40,42 L48,42 L48,46 L40,46 L40,42 Z" id="Fill-63"></path>
                        <path d="M40,54 L48,54 L48,58 L40,58 L40,54 Z" id="Fill-65"></path>
                        <path d="M40,70 L48,70 L48,66 L40,66 L40,70 Z" id="Fill-66"></path>
                        <path d="M40,46 L48,46 L48,54 L40,54 L40,46 Z" id="Fill-68"></path>
                        <path d="M40,58 L48,58 L48,66 L40,66 L40,58 Z" id="Fill-69"></path>
                        <path d="M40,70 L40,70.459 C40.947,70.162 41.955,70 43,70 L40,70" id="Fill-70"></path>
                        <path d="M40,89.541 L40,90 L43,90 C41.955,90 40.947,89.838 40,89.541" id="Fill-71"></path>
                        <path d="M48,23.5 L48,3.195 C46.683,3.07 45.35,3 44,3 C42.65,3 41.317,3.07 40,3.195 L40,23.5 C40,25.709 41.791,27.5 44,27.5 C46.209,27.5 48,25.709 48,23.5 Z" id="Fill-80"></path>
                        <path d="M32,27.5 C34.209,27.5 36,25.709 36,23.5 L36,2.09667969 C36,-1.01121354 36,2.773 36,2.773 C33.227,3.31 30.551,5.119 28,6.174 L28,23.5 C28,25.709 29.791,27.5 32,27.5 L32.2353516,12.9423828" id="Fill-82"></path>
                        <path d="M72,23.5 L72,13.728 C69.57,11.55 66.889,9.646 64,8.075 L64,23.5 C64,25.709 65.791,27.5 68,27.5 C70.209,27.5 72,25.709 72,23.5 Z" id="Fill-84"></path>
                        <path d="M60,23.5 L60,6.174 C57.45,5.119 54.773,5.31 52,4.773 L52,23.5 C52,25.709 53.791,27.5 56,27.5 C58.209,27.5 60,25.709 60,23.5 Z" id="Fill-86"></path>
                        <path d="M24,23.5 L24,8.075 C21.111,9.646 18.431,11.55 16,13.729 L16,23.5 C16,25.709 17.791,27.5 20,27.5 C22.209,27.5 24,25.709 24,23.5 Z" id="Fill-88"></path>
                        <path d="M44,70 L2,70 L2,78 L34.201,78 C35.127,73.436 39.162,70 44,70" id="Fill-90"></path>
                        <path d="M85.979,78 L85.979,70 L44,70 C48.838,70 52.873,73.436 53.799,78 L85.979,78" id="Fill-91"></path>
                        <path d="M34.201,82 L2,82 L2,90 L44,90 C39.162,90 35.127,86.564 34.201,82" id="Fill-92"></path>
                        <path d="M44,90 L85.979,90 L85.979,82 L53.799,82 C52.873,86.564 48.838,90 44,90" id="Fill-93"></path>
                    </g>
                    <path d="M54,165.37025 L54,164.9135 L54,164.9135 L54,157.811 C52.678,157.935 51.344,158 50,158 C48.656,158 47.322,157.935 45.999,157.811 L45.999,165.827 C45.9993333,165.827026 45.9996667,165.827053 46,165.827079 L46,191 L54,191 L54,165.37025 L54,157.811 C55.347,157.684 56.682,157.492 58,157.238 L58,165.353 C56.684,165.565 55.349,165.721 54,165.827 L54,165.37025 L54,165.37025 Z M91.975,49 L99.975,49 C99.948,47.654 99.881,46.318 99.75,45 L91.692,45 C91.85,46.316 91.943,47.65 91.975,49 L91.975,49 Z M34,11.174 L34,2.631 C32.64,3.09 31.305,3.602 30,4.172 L30,13.075 C31.293,12.372 32.63,11.741 34,11.174 L34,11.174 Z M89.937,129 L98.266,129 C98.961,126.41 99.449,123.737 99.722,121 L91.685,121 C91.361,123.736 90.776,126.414 89.937,129 L89.937,129 Z M0.06,93 L8,93 L8,97 L0.06,97 L0.06,93 L0.06,93 Z M0.06,81 L8,81 L8,85 L0.06,85 L0.06,81 L0.06,81 Z M0.06,69 L8,69 L8,73 L0.06,73 L0.06,69 L0.06,69 Z M0.06,105 L8,105 L8,109 L0.06,109 L0.06,105 L0.06,105 Z M0.06,57 L8,57 L8,61 L0.06,61 L0.06,57 L0.06,57 Z M8.308,45 L0.249,45 C0.119,46.318 0.052,47.654 0.025,49 L8.025,49 C8.057,47.65 8.151,46.316 8.308,45 L8.308,45 Z M8.033,117.185 L8.027,117 L0,117 L0,117.406 L0.036,117.406 C0.069,118.617 0.161,119.812 0.278,121 L8.315,121 C8.167,119.739 8.068,118.468 8.033,117.185 L8.033,117.185 Z M10.069,37 L1.717,37 C1.021,39.591 0.522,42.261 0.249,45 L8.308,45 C8.637,42.243 9.231,39.568 10.069,37 L10.069,37 Z M8,50 C8,49.665 8.018,49.333 8.025,49 L0.025,49 C0.019,49.334 0,49.665 0,50 L0,57 L8,57 L8,50 L8,50 Z M0.06,61 L8,61 L8,69 L0.06,69 L0.06,61 L0.06,61 Z M0.06,73 L8,73 L8,81 L0.06,81 L0.06,73 L0.06,73 Z M0.06,85 L8,85 L8,93 L0.06,93 L0.06,85 L0.06,85 Z M0.06,97 L8,97 L8,105 L0.06,105 L0.06,97 L0.06,97 Z M8,116.177 L8,109 L0,109 L0,117 L8.027,117 L8,116.177 L8,116.177 Z M8.252,121 L0.215,121 C0.488,123.737 0.976,126.41 1.671,129 L10,129 C9.161,126.414 8.576,123.736 8.252,121 L8.252,121 Z M30,13.075 L30,4.172 C27.191,5.4 24.512,6.87 22,8.571 L22,18.729 C24.431,16.55 27.111,14.646 30,13.075 L30,13.075 Z M58,8.773 L58,0.645 C56.684,0.433 55.349,0.28 54,0.173 L54,8.195 C55.353,8.324 56.687,8.519 58,8.773 L58,8.773 Z M70,13.075 L70,4.172 C68.695,3.602 67.36,3.09 66,2.631 L66,11.174 C67.371,11.741 68.707,12.372 70,13.075 L70,13.075 Z M46,8.195 L46,0.174 C44.651,0.28 43.316,0.433 42,0.645 L42,8.773 C43.313,8.519 44.647,8.324 46,8.195 L46,8.195 Z M22,18.729 L22,8.571 C12.189,15.215 4.872,25.255 1.717,37 L10.069,37 C12.389,29.892 16.553,23.611 22,18.729 L22,18.729 Z M89.932,37 L98.283,37 C95.128,25.255 87.811,15.215 78,8.571 L78,18.728 C83.448,23.611 87.612,29.892 89.932,37 L89.932,37 Z M92,105 L100,105 L100,109 L92,109 L92,105 L92,105 Z M92,93 L100,93 L100,97 L92,97 L92,93 L92,93 Z M92.007,97 L99.98,97 L99.98,105 L92.007,105 L92.007,97 L92.007,97 Z M92.007,115.189 L92.007,115.254 L92.008,115.318 C92.011,115.482 92.016,115.644 92.021,115.808 C92.023,115.873 92.027,115.939 92.027,115.994 L92.027,116.029 L92.025,116.083 C92.024,116.12 92.022,116.156 92.021,116.192 C92.016,116.355 92.011,116.518 92.008,116.682 L92.007,116.746 L92.007,116.75 L92,117 L99.979,117 L99.979,116.81 C99.984,116.54 100,116.271 100,116 C100,115.729 99.984,115.46 99.979,115.189 L99.979,109 L92.007,109 L92.007,115.189 L92.007,115.189 Z M92,57 L100,57 L100,61 L92,61 L92,57 L92,57 Z M92,69 L100,69 L100,73 L92,73 L92,69 L92,69 Z M92,81 L100,81 L100,85 L92,85 L92,81 L92,81 Z M91.692,45 L99.75,45 C99.478,42.261 98.978,39.591 98.283,37 L89.932,37 C90.77,39.568 91.364,42.243 91.692,45 L91.692,45 Z M92.025,49.994 C92.025,50.061 92.021,50.127 92.02,50.193 C92.014,50.355 92.009,50.519 92.006,50.682 L92.005,50.747 L92.005,57 L99.979,57 L99.979,50.811 C99.984,50.54 100,50.272 100,50 C100,49.665 99.981,49.334 99.975,49 L92,49 C92.008,49.331 92.025,49.661 92.025,49.994 L92.025,49.994 Z M92.007,61 L99.98,61 L99.98,69 L92.007,69 L92.007,61 L92.007,61 Z M92.007,73 L99.98,73 L99.98,81 L92.007,81 L92.007,73 L92.007,73 Z M92.007,85 L99.98,85 L99.98,93 L92.007,93 L92.007,85 L92.007,85 Z M79.296,146.085 C78.873,146.498 78.438,146.896 78,147.289 L78,157.413 C87.801,150.769 95.113,140.74 98.266,129 L89.937,129 C87.859,135.408 84.246,141.261 79.296,146.085 L79.296,146.085 Z M20.704,146.085 C15.754,141.261 12.141,135.408 10.063,129 L1.734,129 C4.887,140.739 12.199,150.769 21.999,157.413 L21.999,147.289 C21.561,146.896 21.127,146.498 20.704,146.085 L20.704,146.085 Z M50,8 C51.35,8 52.683,8.07 54,8.195 L54,0.173 C52.679,0.069 51.348,0 50,0 C48.652,0 47.321,0.069 46,0.174 L46,8.195 C47.317,8.07 48.65,8 50,8 L50,8 Z M42,8.773 L42,0.645 C39.25,1.087 36.58,1.76 34,2.631 L34,11.174 C36.551,10.119 39.227,9.31 42,8.773 L42,8.773 Z M78,18.728 L78,8.571 C75.489,6.87 72.81,5.4 70,4.172 L70,13.075 C72.889,14.646 75.57,16.55 78,18.728 L78,18.728 Z M66,11.174 L66,2.631 C63.42,1.76 60.75,1.087 58,0.645 L58,8.773 C60.773,9.31 63.45,10.119 66,11.174 L66,11.174 Z M92.272,117.185 C92.238,118.468 92.144,119.739 92,121 L99.751,121 C99.865,119.812 99.953,118.617 99.985,117.406 L100,117.406 L100,117 L92.278,117 L92.272,117.185 L92.272,117.185 Z M30,152.935 L30,161.822 C31.305,162.394 32.639,162.909 33.999,163.369 L33.999,154.846 C32.634,154.283 31.301,153.642 30,152.935 L30,152.935 Z M66,154.846 L66,163.369 C67.361,162.909 68.695,162.394 70,161.822 L70,152.935 C68.699,153.642 67.366,154.283 66,154.846 L66,154.846 Z M42,157.238 L42,165.353 C43.316,165.565 44.651,165.721 45.999,165.827 L45.999,157.811 C44.652,157.683 43.317,157.491 42,157.238 L42,157.238 Z M33.999,154.846 L33.999,163.369 C36.579,164.24 39.25,164.91 42,165.353 L42,157.238 C39.248,156.709 36.571,155.906 33.999,154.846 L33.999,154.846 Z M70,152.935 L70,161.822 C72.811,160.594 75.487,159.117 78,157.413 L78,147.289 C75.537,149.499 72.852,151.385 70,152.935 L70,152.935 Z M58,157.238 L58,165.353 C60.749,164.91 63.42,164.241 66,163.369 L66,154.846 C63.428,155.906 60.751,156.709 58,157.238 L58,157.238 Z M21.999,147.289 L21.999,157.413 C24.512,159.116 27.188,160.593 30,161.822 L30,152.935 C27.147,151.385 24.462,149.499 21.999,147.289 L21.999,147.289 Z" id="Fill-16" fill="#202B33"></path>
                </g>
            </g>
        </g>
    </g>
</svg>