<?xml version="1.0" encoding="UTF-8" standalone="no"?>
<svg width="254px" height="181px" viewBox="0 0 254 181" version="1.1" xmlns="http://www.w3.org/2000/svg" xmlns:xlink="http://www.w3.org/1999/xlink" xmlns:sketch="http://www.bohemiancoding.com/sketch/ns">
    <!-- Generator: Sketch 3.3.3 (12081) - http://www.bohemiancoding.com/sketch -->
    <title>screens</title>
    <desc>Created with Sketch.</desc>
    <defs></defs>
    <g id="Page-1" stroke="none" stroke-width="1" fill="none" fill-rule="evenodd" sketch:type="MSPage">
        <g id="screens" sketch:type="MSLayerGroup">
            <g id="Page-1" sketch:type="MSShapeGroup">
                <g id="icon-copy-6">
                    <rect id="Rectangle-100" fill="#FFFFFF" x="37" y="7" width="185" height="116"></rect>
                    <rect id="Rectangle-101" fill="#FFFFFF" x="113.5" y="121.5" width="37.5" height="26.5"></rect>
                    <path d="M211,0 L49,0 C39.06,0 31,8.06 31,18 L31,103.001 L39,103.001 L39,18 C39,12.486 43.486,8 49,8 L211,8 C216.514,8 221,12.486 221,18 L221,113.001 C221,118.514 216.514,123.001 211,123.001 L49,123.001 C43.486,123.001 39,118.514 39,113.001 L31,113.001 C31,122.264 38.001,129.895 47,130.889 L47,136.001 L55,136.001 L55,131.001 L205,131.001 L205,133.001 L213,133.001 L213,130.889 C221.999,129.895 229,122.264 229,113.001 L229,18 C229,8.06 220.94,0 211,0" id="Imported-Layers" fill="#232C2A"></path>
                    <rect id="Rectangle-94-Copy-3" fill="#232C2A" x="98" y="147" width="64" height="8" rx="8"></rect>
                    <rect id="Rectangle-92-Copy-7" fill="#232C2A" x="108" y="130" width="8" height="25"></rect>
                    <rect id="Rectangle-92-Copy-8" fill="#232C2A" x="144" y="130" width="8" height="25"></rect>
                    <rect id="Rectangle-89" fill="#FFFFFF" x="5" y="53" width="73" height="120"></rect>
                    <rect id="Rectangle-94" fill="#232C2A" x="246" y="99" width="8" height="12" rx="4"></rect>
                    <path d="M191,85 L191,151 L206,151 L206,171 L231,171 L231,151 L248,151 L248,85 L231,85 L231,57 L206,57 L206,85 L191,85 L191,85 Z" id="Rectangle-92" fill="#FFFFFF"></path>
                    <path d="M194,145 C194,146.105756 194.894382,147 196,147 L240,147 C241.105756,147 242,146.105618 242,145 L242,91 C242,89.8942445 241.105618,89 240,89 L196,89 C194.894244,89 194,89.8943825 194,91 L194,145 L194,145 Z M196,81 L240,81 C245.522847,81 250,85.4749186 250,91 L250,145 C250,150.522847 245.525081,155 240,155 L196,155 C190.477153,155 186,150.525081 186,145 L186,91 C186,85.4771525 190.474919,81 196,81 L196,81 L196,81 Z" id="Shape" fill="#232C2A"></path>
                    <path d="M232,57 L204,57 L198,57 L198,82 L206,82 L206,65 L230,65 L230,82 L238,82 L238,57 L232,57 L232,57 Z" id="Rectangle-94-Copy" fill="#232C2A"></path>
                    <rect id="Rectangle-94-Copy-2" fill="#232C2A" x="202" y="171" width="32" height="8"></rect>
                    <rect id="Rectangle-92-Copy-5" fill="#232C2A" x="198" y="154" width="8" height="25"></rect>
                    <rect id="Rectangle-92-Copy-6" fill="#232C2A" x="230" y="154" width="8" height="25"></rect>
                    <g id="Imported-Layers" transform="translate(0.000000, 44.000000)" fill="#232C2A">
                        <path d="M41,124.891 C43.209,124.891 45,123.1 45,120.891 C45,118.682 43.209,116.891 41,116.891 C38.791,116.891 37,118.682 37,120.891 C37,123.1 38.791,124.891 41,124.891" id="Fill-1"></path>
                        <path d="M64,0.89 L18,0.89 C8.06,0.89 0,8.95 0,18.89 L0,119.221 L0.003,119.221 C0.179,129.008 8.17,136.891 18,136.891 L64,136.891 C73.94,136.891 82,128.83 82,118.891 L82,17.89 L81.973,17.89 C81.453,8.415 73.605,0.89 64,0.89 L64,0.89 L64,0.89 Z M74,118.891 C74,124.404 69.514,128.891 64,128.891 L18,128.891 C12.486,128.891 8,124.404 8,118.891 L8,112.891 L74,112.891 L74,118.891 L74,118.891 Z M74,104.891 L8,104.891 L8,18.89 C8,13.376 12.486,8.89 18,8.89 L64,8.89 C69.514,8.89 74,13.376 74,18.89 L74,104.891 L74,104.891 Z" id="Fill-2"></path>
                    </g>
                </g>
            </g>
        </g>
    </g>
</svg>