<?xml version="1.0" encoding="UTF-8" standalone="no"?>
<svg width="500px" height="322px" viewBox="0 0 500 322" version="1.1" xmlns="http://www.w3.org/2000/svg" xmlns:xlink="http://www.w3.org/1999/xlink" xmlns:sketch="http://www.bohemiancoding.com/sketch/ns">
    <!-- Generator: Sketch 3.3.2 (12043) - http://www.bohemiancoding.com/sketch -->
    <title>card and ticket</title>
    <desc></desc>
    <defs></defs>
    <g id="styleguide" stroke="none" stroke-width="1" fill="none" fill-rule="evenodd" sketch:type="MSPage">
        <g id="big-icon" sketch:type="MSArtboardGroup" transform="translate(-1234.000000, -66.000000)">
            <g id="card-and-ticket" sketch:type="MSLayerGroup" transform="translate(1234.000000, 66.000000)">
                <path d="M128.630005,103.362 L475.548005,103.362 L475.548005,312.186 L128.630005,312.186 L128.630005,103.362 Z" id="Fill-1" fill="#FFFFFF" sketch:type="MSShapeGroup"></path>
                <path d="M499.118,87.592 L106,87.592 L106,113.404 C114.838,113.404 122,120.566 122,129.404 C122,138.24 114.838,145.404 106,145.404 L106,165.406 C114.838,165.406 122,172.566 122,181.406 C122,190.242 114.838,197.402 106,197.402 L106,217.402 C114.838,217.402 122,224.566 122,233.402 C122,242.238 114.838,249.402 106,249.402 L106,269.406 C114.838,269.406 122,276.566 122,285.406 C122,294.242 114.838,301.406 106,301.406 L106,321.406 L499.118,321.406 L499.118,295.598 C490.282,295.598 483.118,288.434 483.118,279.598 C483.118,270.762 490.282,263.598 499.118,263.598 L499.118,243.594 C490.282,243.594 483.118,236.434 483.118,227.594 C483.118,218.758 490.282,211.594 499.118,211.594 L499.118,191.598 C490.282,191.598 483.118,184.434 483.118,175.598 C483.118,166.762 490.282,159.596 499.118,159.596 L499.118,139.594 C490.282,139.594 483.118,132.432 483.118,123.594 C483.118,114.758 490.282,107.594 499.118,107.594 L499.118,87.592 M460.956,111.592 C459.762,115.382 459.118,119.414 459.118,123.594 C459.118,133.512 462.746,142.598 468.744,149.596 C462.746,156.592 459.118,165.68 459.118,175.598 C459.118,185.512 462.746,194.598 468.742,201.594 C462.746,208.594 459.118,217.68 459.118,227.594 C459.118,237.512 462.746,246.598 468.744,253.594 C462.746,260.594 459.118,269.68 459.118,279.598 C459.118,285.992 460.624,292.04 463.304,297.406 L144.162,297.406 C145.356,293.614 146,289.582 146,285.406 C146,275.488 142.372,266.402 136.374,259.406 C142.372,252.406 146,243.32 146,233.402 C146,223.488 142.372,214.402 136.376,207.406 C142.372,200.406 146,191.32 146,181.406 C146,171.488 142.372,162.402 136.374,155.404 C142.372,148.408 146,139.32 146,129.404 C146,123.006 144.492,116.958 141.814,111.592 L460.956,111.592" id="Fill-2" fill="#E54142" sketch:type="MSShapeGroup"></path>
                <path d="M8.362,15.154 L384.126,15.154 L384.126,239.802 L8.362,239.802 L8.362,15.154 Z" id="Fill-3" fill="#FFFFFF" sketch:type="MSShapeGroup"></path>
                <path d="M0,15.986 C0,7.156 7.156,0 15.99,0 L384.012,0 C392.842,0 400,7.16 400,15.986 L400,238.018 C400,246.846 392.844,254.002 384.012,254.002 L15.99,254.002 C7.158,254.002 0,246.842 0,238.018 L0,15.986 L0,15.986 Z M24,230.002 L376,230.002 L376,24.002 L24,24.002 L24,230.002 Z" id="Fill-4" fill="#27B0A3" sketch:type="MSShapeGroup"></path>
                <path d="M216,186 C216,179.37 221.38,174 227.984,174 L332.016,174 C338.634,174 344,179.386 344,186 C344,192.624 338.62,198 332.016,198 L227.984,198 C221.366,198 216,192.612 216,186" id="Fill-5" fill="#E54142" sketch:type="MSShapeGroup"></path>
                <path d="M56,186 C56,179.37 61.378,174 67.984,174 L172.016,174 C178.634,174 184,179.386 184,186 C184,192.624 178.622,198 172.016,198 L67.984,198 C61.366,198 56,192.612 56,186" id="Fill-6" fill="#E54142" sketch:type="MSShapeGroup"></path>
                <path d="M56,146 C56,139.374 61.37,134 68.008,134 L331.992,134 C338.626,134 344,139.388 344,146 C344,152.628 338.63,158 331.992,158 L68.008,158 C61.376,158 56,152.614 56,146" id="Fill-7" fill="#E54142" sketch:type="MSShapeGroup"></path>
                <path d="M56,74.01 C56,65.168 63.156,58 71.984,58 L104.016,58 C112.844,58 120,65.15 120,74.01 L120,97.99 C120,106.832 112.844,114 104.016,114 L71.984,114 C63.156,114 56,106.852 56,97.99 L56,74.01 L56,74.01 Z M80,82.002 L80,90.002 L96,90 L96,82.002 L80,82.002 L80,82.002 Z" id="Fill-8" fill="#E54142" sketch:type="MSShapeGroup"></path>
            </g>
        </g>
    </g>
</svg>