<?xml version="1.0" encoding="iso-8859-1"?>
<!-- Generator: Adobe Illustrator 16.0.0, SVG Export Plug-In . SVG Version: 6.00 Build 0)  -->
<!DOCTYPE svg PUBLIC "-//W3C//DTD SVG 1.1//EN" "http://www.w3.org/Graphics/SVG/1.1/DTD/svg11.dtd">
<svg version="1.1" id="Capa_1" xmlns="http://www.w3.org/2000/svg" xmlns:xlink="http://www.w3.org/1999/xlink" x="0px" y="0px"
	 width="185px" height="116px" viewBox="0 0 31.705 31.706" style="enable-background:new 0 0 31.705 31.706;"
	 xml:space="preserve">
<g>
	<g>
		<polygon points="25.061,3.165 25.061,23.686 28.383,26.551 28.383,3.165 		"/>
		<path fill="#e54142" d="M30.6,0.038H16.091c-0.559,0-0.996,0.436-0.996,0.993v5.604c0.391,0.627,0.634,1.372,0.634,2.17
			c0,0.799-0.244,1.545-0.634,2.172v2.049c0.194-0.017,0.233-0.028,0.363-0.028c0.587,0,1.2,0.178,1.591,0.489V1.993h12.507v25.992
			H17.049v-8.432c0,0-1.76,0.459-1.954,0.473v9.08c0,0.559,0.438,1.027,0.996,1.027H30.6c0.558,0,1.105-0.47,1.105-1.027V1.032
			C31.705,0.474,31.157,0.038,30.6,0.038z"/>
		<path fill="#27b0a3" d="M11.861,11.991c1.524,0,2.762-1.238,2.762-2.764s-1.236-2.764-2.762-2.764c-1.528,0-2.764,1.238-2.764,2.764
			C9.097,10.752,10.332,11.991,11.861,11.991z"/>
		<path fill="#27b0a3" d="M9.587,17.973c0.922,0.642,2.015,0.961,3.271,0.961c0.685,0,2.85-0.471,3.368-0.637c0.581-0.201,0.874-0.48,1.049-0.824
			c0.217-0.58,0.114-1.188,0.114-1.188c-0.175-1.086-1.233-1.332-2.06-1.034c-1.228,0.441-2.902,0.816-3.914,0.125
			c-0.428-0.293-0.696-0.75-0.864-1.194c0.253-0.832,0.09-1.771-0.515-2.482c-0.946-1.114-2.616-1.248-3.729-0.302
			c-0.272,0.228-1.971,1.761-3.025,4.744c-0.514,0.234-1.134,0.42-1.879,0.508c-0.87,0.104-1.493,0.894-1.393,1.764
			c0.097,0.807,0.781,1.402,1.575,1.402c0.062,0,0.124-0.004,0.187-0.014c0.259-0.027,0.505-0.068,0.744-0.115
			c-0.049,0.504-0.075,1.027-0.075,1.58c0,0.713,0.286,1.361,0.747,1.838c0.301,0.934,0.546,2.223,0.213,3.281
			c-0.251,0.791-0.799,1.393-1.677,1.84C0.943,28.624,0.634,29.58,1.03,30.36c0.281,0.549,0.837,0.869,1.416,0.869
			c0.242,0,0.488-0.059,0.718-0.176c1.634-0.83,2.763-2.115,3.266-3.715c0.422-1.349,0.359-2.718,0.133-3.879
			c0.106-0.072,0.21-0.154,0.305-0.24c1.075,1.25,2.153,3.368,1.504,6.545c-0.175,0.857,0.379,1.696,1.236,1.873
			c0.108,0.018,0.216,0.03,0.321,0.03c0.735,0,1.398-0.517,1.553-1.267c1.092-5.342-1.47-8.94-3.646-10.65
			c0.149-1.104,0.454-1.986,0.779-2.662C8.887,17.407,9.207,17.708,9.587,17.973z"/>
	</g>
</g>
<g>
</g>
<g>
</g>
<g>
</g>
<g>
</g>
<g>
</g>
<g>
</g>
<g>
</g>
<g>
</g>
<g>
</g>
<g>
</g>
<g>
</g>
<g>
</g>
<g>
</g>
<g>
</g>
<g>
</g>
</svg>
