<?xml version="1.0" encoding="iso-8859-1"?>
<!-- Generator: Adobe Illustrator 18.1.1, SVG Export Plug-In . SVG Version: 6.00 Build 0)  -->
<svg version="1.1" id="Capa_1" xmlns="http://www.w3.org/2000/svg" xmlns:xlink="http://www.w3.org/1999/xlink" x="0px" y="0px"
	 width="120px" height="120px" viewBox="0 0 35.327 35.327" style="enable-background:new 0 0 35.327 35.327;" xml:space="preserve">
<g>
	<g>
		<path fill="#27B0A3" d="M12.351,27.891c9.318,0,1.323,0,10.624,0c1.016,0,1.838-0.824,1.838-1.837c0-5.366,0-20.887,0-21.572
			c0-1.017-0.823-1.841-1.838-1.841H12.351c-1.017,0-1.837,0.824-1.837,1.841c0,0.693,0,15.842,0,21.572
			C10.514,27.067,11.335,27.891,12.351,27.891z M17.663,25.853c-1.35,0-1.347-2.04,0-2.04c0.563,0,1.021,0.457,1.021,1.021
			S18.227,25.853,17.663,25.853z M21.762,3.791c0.262,0,0.473,0.212,0.473,0.471c0,0.261-0.211,0.471-0.473,0.471
			c-0.26,0-0.47-0.21-0.47-0.471C21.292,4.003,21.503,3.791,21.762,3.791z M15.2,3.971h4.926v0.538H15.2V3.971z M11.89,5.744h11.543
			v0.072h0.002c0,6.833,0,10.389,0,16.239c-2.17,0-3.597,0-11.545,0C11.89,11.171,11.89,6.857,11.89,5.744z"/>
		<path fill="#E54142" d="M8.6,26.85c-1.584,0-3.796,0-7.224,0c0-10.884,0-15.198,0-16.311h7.138V9.304H4.686V8.766h3.828v-1.33H1.837
			C0.82,7.436,0,8.26,0,9.277C0,9.97,0,25.119,0,30.849c0,1.014,0.821,1.837,1.837,1.837c9.318,0,1.323,0,10.624,0
			c1.015,0,1.837-0.823,1.837-1.837c0-0.311,0-0.631,0-0.958h-1.947C10.508,29.891,8.967,28.583,8.6,26.85z M7.149,30.648
			c-1.35,0-1.347-2.04,0-2.04c0.563,0,1.021,0.457,1.021,1.021S7.712,30.648,7.149,30.648z"/>
		<path d="M35.327,9.277c0-1.017-0.822-1.841-1.837-1.841h-6.678v1.33h3.828v0.538h-3.828v1.235h7.137v0.072h0.001
			c0,6.833,0,10.389,0,16.239c-1.698,0-2.955,0-7.224,0c-0.367,1.733-1.91,3.041-3.752,3.041h-1.945c0,0.34,0,0.664,0,0.958
			c0,1.014,0.82,1.837,1.837,1.837c9.317,0,1.323,0,10.624,0c1.015,0,1.837-0.823,1.837-1.837
			C35.327,25.483,35.327,9.962,35.327,9.277z M32.277,9.528c-0.26,0-0.471-0.21-0.471-0.471c0-0.259,0.211-0.471,0.471-0.471
			c0.261,0,0.472,0.212,0.472,0.471C32.749,9.318,32.538,9.528,32.277,9.528z M28.177,30.648c-1.35,0-1.346-2.04,0-2.04
			c0.563,0,1.021,0.457,1.021,1.021C29.199,30.193,28.741,30.648,28.177,30.648z"/>
	</g>
</g>
<g>
</g>
<g>
</g>
<g>
</g>
<g>
</g>
<g>
</g>
<g>
</g>
<g>
</g>
<g>
</g>
<g>
</g>
<g>
</g>
<g>
</g>
<g>
</g>
<g>
</g>
<g>
</g>
<g>
</g>
</svg>
