<?xml version="1.0" encoding="UTF-8" standalone="no"?>
<svg width="229px" height="181px" viewBox="0 0 229 181" version="1.1" xmlns="http://www.w3.org/2000/svg" xmlns:xlink="http://www.w3.org/1999/xlink" xmlns:sketch="http://www.bohemiancoding.com/sketch/ns">
    <!-- Generator: Sketch 3.3.3 (12081) - http://www.bohemiancoding.com/sketch -->
    <title>screens</title>
    <desc>Created with Sketch.</desc>
    <defs></defs>
    <g id="Page-1" stroke="none" stroke-width="1" fill="none" fill-rule="evenodd" sketch:type="MSPage">
        <g id="screens" sketch:type="MSLayerGroup">
            <g id="Page-1" sketch:type="MSShapeGroup">
                <g id="screens-0d12d07f">
                    <rect id="Rectangle-100" fill="#FFFFFF" x="37" y="7" width="185" height="116"></rect>
                    <rect id="Rectangle-101" fill="#FFFFFF" x="113.5" y="121.5" width="37.5" height="26.5"></rect>
                    <path d="M211,0 L49,0 C39.06,0 31,8.06 31,18 L31,103.001 L39,103.001 L39,18 C39,12.486 43.486,8 49,8 L211,8 C216.514,8 221,12.486 221,18 L221,113.001 C221,118.514 216.514,123.001 211,123.001 L49,123.001 C43.486,123.001 39,118.514 39,113.001 L31,113.001 C31,122.264 38.001,129.895 47,130.889 L47,136.001 L55,136.001 L55,131.001 L205,131.001 L205,133.001 L213,133.001 L213,130.889 C221.999,129.895 229,122.264 229,113.001 L229,18 C229,8.06 220.94,0 211,0" id="Imported-Layers" fill="#27B0A3"></path>
                    <rect id="Rectangle-94-Copy-3" fill="#27B0A3" x="98" y="147" width="64" height="8" rx="8"></rect>
                    <rect id="Rectangle-92-Copy-7" fill="#27B0A3" x="108" y="130" width="8" height="25"></rect>
                    <rect id="Rectangle-92-Copy-8" fill="#27B0A3" x="144" y="130" width="8" height="25"></rect>
                    <rect id="Rectangle-89" fill="#FFFFFF" x="5" y="53" width="73" height="120"></rect>
                    <path d="M64,45 L18,45 C8.06,45 0,53.06 0,63 L0,163.331 L0.003,163.331 C0.179,173.118 8.17,181.001 18,181.001 L64,181.001 C73.94,181.001 82,172.94 82,163.001 L82,62 L81.973,62 C81.453,52.525 73.605,45 64,45 L64,45 L64,45 Z M74,163.001 C74,168.514 69.514,173.001 64,173.001 L18,173.001 C12.486,173.001 8,168.514 8,163.001 L8,157.001 L74,157.001 L74,163.001 L74,163.001 Z M74,149.001 L8,149.001 L8,63 C8,57.486 12.486,53 18,53 L64,53 C69.514,53 74,57.486 74,63 L74,149.001 L74,149.001 Z" id="Imported-Layers" fill="#27B0A3"></path>
                    <path d="M41,169 C43.209139,169 45,167.209139 45,165 C45,162.790861 43.209139,161 41,161 C38.790861,161 37,162.790861 37,165 C37,167.209139 38.790861,169 41,169 L41,169" id="Path" fill="#27B0A3"></path>
                </g>
            </g>
        </g>
    </g>
</svg>