<?xml version="1.0" encoding="UTF-8" standalone="no"?>
<svg width="380px" height="318px" viewBox="0 0 439 368" version="1.1" xmlns="http://www.w3.org/2000/svg" xmlns:xlink="http://www.w3.org/1999/xlink" xmlns:sketch="http://www.bohemiancoding.com/sketch/ns">
    <!-- Generator: Sketch 3.3.2 (12043) - http://www.bohemiancoding.com/sketch -->
    <title>Imported Layers</title>
    <desc></desc>
    <defs></defs>
    <g id="styleguide" stroke="none" stroke-width="1" fill="none" fill-rule="evenodd" sketch:type="MSPage">
        <g id="big-icon" sketch:type="MSArtboardGroup" transform="translate(-2117.000000, -43.000000)">
            <g id="Imported-Layers" sketch:type="MSLayerGroup" transform="translate(2117.000000, 43.000000)">
                <path d="M149.484,16 C149.484,16 24,84.5 25.5,85.5 C27,86.5 81,127.412 81,127.412 L19.5,166 L93,206 C93,206 87,281 88.5,282 C90,283 219.294,355.5 219.294,355.5 L349.5,282.5 L353.5,195 L417,166.5 L356,127.238 L407.5,85.5 L274.5,16 L222,54.5 L149.484,16" id="Fill-1" fill="#FFFFFF" sketch:type="MSShapeGroup"></path>
                <path d="M336.364,216.41 L336.364,271.12 L240.62,327.778 L240.62,217.858 L219.294,205.354 L196.62,218.646 L196.62,327.344 L102.348,273.926 L102.348,216.41 L78.348,202.61 L78.348,287.91 L84.432,291.36 L213.69,364.598 L219.736,368.028 L354.474,288.294 L360.364,284.804 L360.364,202.61 L336.364,216.41" id="Fill-2" fill="#E54142" sketch:type="MSShapeGroup"></path>
                <path d="M372.018,126.864 L438.528,87.866 L284.42,0.514 L219.294,38.286 L154.166,0.514 L0.058,87.866 L66.57,126.864 L0.086,165.422 L154.656,254.308 L219.294,216.41 L283.93,254.308 L438.498,165.422 L372.018,126.864 L372.018,126.864 Z M48.106,88.218 L154.03,28.178 L195.376,52.16 L90.422,113.028 L48.106,88.218 L48.106,88.218 Z M154.538,226.554 L48.078,165.334 L90.358,140.812 L195.568,202.5 L154.538,226.554 L154.538,226.554 Z M196.62,175.296 L114.212,126.978 L196.62,79.18 L196.62,175.296 L196.62,175.296 Z M284.556,28.178 L390.478,88.218 L348.162,113.028 L243.212,52.16 L284.556,28.178 L284.556,28.178 Z M240.62,78.402 L324.374,126.976 L240.62,176.084 L240.62,78.402 L240.62,78.402 Z M284.046,226.554 L243.018,202.5 L348.228,140.812 L390.51,165.334 L284.046,226.554 L284.046,226.554 Z" id="Fill-3" fill="#27B0A3" sketch:type="MSShapeGroup"></path>
            </g>
        </g>
    </g>
</svg>