<?xml version="1.0" encoding="UTF-8" standalone="no"?>
<svg width="949px" height="954px" viewBox="0 0 949 954" version="1.1" xmlns="http://www.w3.org/2000/svg" xmlns:xlink="http://www.w3.org/1999/xlink" xmlns:sketch="http://www.bohemiancoding.com/sketch/ns">
    <!-- Generator: Sketch 3.3.3 (12081) - http://www.bohemiancoding.com/sketch -->
    <title>Untitled</title>
    <desc>Created with Sketch.</desc>
    <defs></defs>
    <g id="Page-1" stroke="none" stroke-width="1" fill="none" fill-rule="evenodd" sketch:type="MSPage">
        <g id="target" sketch:type="MSLayerGroup">
            <g id="Group" sketch:type="MSShapeGroup">
                <path d="M428.589,954 C665.189,954 856.99,762.199 856.99,525.6 C856.99,452.801 838.888,384.301 806.888,324.301 C803.388,324.801 799.788,325.001 796.288,325.001 C794.288,325.001 792.188,324.901 790.089,324.801 L735.589,320.601 L696.388,359.801 C726.288,408.001 743.589,464.801 743.589,525.6 C743.589,699.5 602.589,840.5 428.688,840.5 C254.789,840.5 113.688,699.5 113.688,525.6 C113.688,351.701 254.688,210.701 428.588,210.701 C489.489,210.701 546.288,228.001 594.387,257.901 L629.887,222.401 L625.088,159.901 C624.688,154.901 624.787,149.901 625.287,145.001 C566.387,114.501 499.488,97.201 428.488,97.201 C191.988,97.201 0.188,289.001 0.188,525.6 C0.188,762.199 191.989,954 428.589,954 L428.589,954 Z" id="Shape" fill="#000000"></path>
                <path d="M428.589,414.9 C431.389,414.9 434.189,415.001 436.989,415.2 L516.089,336.1 L517.788,334.4 C490.688,321.7 460.489,314.6 428.588,314.6 C312.088,314.6 217.688,409 217.688,525.5 C217.688,642 312.088,736.5 428.588,736.5 C545.088,736.5 639.489,642.1 639.489,525.6 C639.489,493.7 632.387,463.501 619.688,436.4 L617.989,438.1 L538.887,517.199 C539.088,520 539.188,522.801 539.188,525.599 C539.188,586.699 489.688,636.3 428.488,636.3 C367.288,636.3 317.887,586.698 317.887,525.599 C317.889,464.5 367.489,414.9 428.589,414.9 L428.589,414.9 Z" id="Shape" fill="#27B0A3"></path>
                <path d="M870.089,143.6 L895.489,118.2 C907.089,106.6 907.089,87.9 895.489,76.3 L877.887,58.6 C872.088,52.8 864.489,49.9 856.989,49.9 C849.489,49.9 841.788,52.8 836.089,58.6 L806.989,87.7 L800.989,10.2 C800.589,4.5 795.887,1 790.989,1 C788.489,1 785.989,1.9 783.989,3.9 L669.489,118.4 C659.188,128.7 653.887,143 654.989,157.6 L655.288,162.1 L660.788,233.8 L619.388,275.2 L544.888,349.7 L543.189,351.4 L471.089,423.501 L439.089,455.501 C434.889,459.7 432.289,465.301 431.889,471.2 L429.889,496.301 C428.689,510.901 440.289,523.301 454.789,523.301 L456.089,523.301 L482.589,522 C488.788,521.699 494.689,519.1 498.989,514.699 L530.689,483 L602.789,410.9 L604.49,409.2 L678.99,334.7 L723.99,289.7 L789.388,294.7 L792.288,294.9 C793.589,295 794.888,295 796.089,295 C809.288,295 821.989,289.8 831.489,280.4 L945.888,166 C951.888,160 948.089,149.6 939.589,149 L870.089,143.6 L870.089,143.6 Z" id="Shape" fill="#DF4F2A"></path>
            </g>
        </g>
    </g>
</svg>