<?xml version="1.0" encoding="UTF-8" standalone="no"?>
<svg width="48px" height="45px" viewBox="0 0 48 45" version="1.1" xmlns="http://www.w3.org/2000/svg" xmlns:xlink="http://www.w3.org/1999/xlink" xmlns:sketch="http://www.bohemiancoding.com/sketch/ns">
    <!-- Generator: Sketch 3.3.3 (12081) - http://www.bohemiancoding.com/sketch -->
    <title>Untitled</title>
    <desc>Created with Sketch.</desc>
    <defs></defs>
    <g id="Page-1" stroke="none" stroke-width="1" fill="none" fill-rule="evenodd" sketch:type="MSPage">
        <g id="time" sketch:type="MSLayerGroup">
            <g id="Layer_1_65_" sketch:type="MSShapeGroup">
                <g id="Group">
                    <path d="M46.907,19.12 C46.744,18.773 46.396,18.551 46.011,18.551 L43.084,18.551 C41.223,8.452 32.355,0.775 21.726,0.775 C9.747,0.775 0,10.522 0,22.501 C0,34.48 9.746,44.226 21.726,44.226 C29.457,44.226 36.667,40.065 40.542,33.369 C41.088,32.424 40.766,31.217 39.82,30.67 C38.876,30.123 37.668,30.445 37.123,31.39 C33.951,36.871 28.051,40.277 21.726,40.277 C11.925,40.277 3.95,32.303 3.95,22.503 C3.95,12.701 11.925,4.727 21.726,4.727 C30.168,4.727 37.241,10.648 39.043,18.552 L36.139,18.552 C35.754,18.552 35.407,18.774 35.243,19.121 C35.08,19.468 35.133,19.877 35.379,20.172 L40.317,26.097 C40.505,26.322 40.782,26.452 41.076,26.452 C41.369,26.452 41.647,26.321 41.834,26.097 L46.772,20.172 C47.018,19.876 47.07,19.467 46.907,19.12 L46.907,19.12 Z" id="Shape" fill="#27B0A3"></path>
                    <path d="M21.726,5.713 C20.635,5.713 19.751,6.597 19.751,7.688 L19.751,19.672 C18.858,20.298 18.27,21.33 18.27,22.502 C18.27,24.408 19.821,25.959 21.727,25.959 C22.249,25.959 22.741,25.834 23.185,25.625 L30.055,29.59 C30.367,29.771 30.705,29.856 31.041,29.856 C31.723,29.856 32.387,29.502 32.753,28.868 C33.298,27.925 32.975,26.716 32.029,26.171 L25.152,22.2 C25.06,21.156 24.517,20.244 23.703,19.674 L23.703,7.688 C23.701,6.598 22.816,5.713 21.726,5.713 L21.726,5.713 Z M21.726,23.982 C20.909,23.982 20.245,23.317 20.245,22.502 C20.245,21.686 20.91,21.021 21.726,21.021 C22.542,21.021 23.207,21.686 23.207,22.502 C23.207,23.317 22.542,23.982 21.726,23.982 L21.726,23.982 Z" id="Shape" fill="#DF4F2A"></path>
                </g>
            </g>
        </g>
    </g>
</svg>