<?xml version="1.0" encoding="UTF-8" standalone="no"?>
<svg width="420px" height="420px" viewBox="0 0 420 420" version="1.1" xmlns="http://www.w3.org/2000/svg" xmlns:xlink="http://www.w3.org/1999/xlink" xmlns:sketch="http://www.bohemiancoding.com/sketch/ns">
    <!-- Generator: Sketch 3.3.3 (12081) - http://www.bohemiancoding.com/sketch -->
    <title>Untitled</title>
    <desc>Created with Sketch.</desc>
    <defs></defs>
    <g id="Page-1" stroke="none" stroke-width="1" fill="none" fill-rule="evenodd" sketch:type="MSPage">
        <g id="user-location" sketch:type="MSLayerGroup">
            <g id="Group" sketch:type="MSShapeGroup">
                <path d="M405,264.746 C396.716,264.746 390,271.462 390,279.746 L390,390 L279.747,390 C271.463,390 264.747,396.716 264.747,405 C264.747,413.284 271.463,420 279.747,420 L405,420 C413.284,420 420,413.284 420,405 L420,279.746 C420,271.462 413.284,264.746 405,264.746 L405,264.746 Z" id="Shape" fill="#DF4F2A"></path>
                <path d="M140.253,390 L30,390 L30,279.746 C30,271.462 23.284,264.746 15,264.746 C6.716,264.746 0,271.462 0,279.746 L0,405 C0,413.284 6.716,420 15,420 L140.253,420 C148.537,420 155.253,413.284 155.253,405 C155.253,396.716 148.538,390 140.253,390 L140.253,390 Z" id="Shape" fill="#DF4F2A"></path>
                <path d="M405,0 L279.747,0 C271.463,0 264.747,6.716 264.747,15 C264.747,23.284 271.463,30 279.747,30 L390,30 L390,140.254 C390,148.538 396.716,155.254 405,155.254 C413.284,155.254 420,148.538 420,140.254 L420,15 C420,6.716 413.284,0 405,0 L405,0 Z" id="Shape" fill="#DF4F2A"></path>
                <path d="M15,155.254 C23.284,155.254 30,148.538 30,140.254 L30,30 L140.253,30 C148.537,30 155.253,23.284 155.253,15 C155.253,6.716 148.537,0 140.253,0 L15,0 C6.716,0 0,6.716 0,15 L0,140.254 C0,148.538 6.716,155.254 15,155.254 L15,155.254 Z" id="Shape" fill="#DF4F2A"></path>
                <path d="M126.635,148.432 C127.105,192.505 145.834,219.243 176.37,218.775 C176.37,218.775 226.088,220.791 226.088,148.432 C226.088,116.25 209.29,99.551 176.37,99.551 C144.145,99.551 126.308,116.251 126.635,148.432 L126.635,148.432 Z" id="Shape" fill="#27B0A3"></path>
                <path d="M216.128,233.018 L214.631,232.421 L203,222.618 C199.926,220.021 195.388,220.214 192.54,223.048 L176.368,239.131 L160.145,223.042 C157.295,220.214 152.762,220.032 149.693,222.618 L138.06,232.421 L88.384,252.232 C72.386,258.6 72.402,315.251 71.028,320.452 L269.945,320.452 C263.704,313.566 254.386,302.682 245.049,289.537 C234.252,274.34 221.941,253.859 216.128,233.018 L216.128,233.018 Z" id="Shape" fill="#DF4F2A"></path>
                <path d="M287.529,320.449 C288.501,320.449 289.425,320.051 290.091,319.341 C295.744,313.331 306.904,300.891 318.09,285.139 C332.18,265.307 348.97,236.223 348.97,210.298 C348.97,176.42 321.408,148.86 287.53,148.86 C253.652,148.86 226.089,176.421 226.089,210.298 C226.089,236.239 242.902,265.341 257.007,285.193 C268.188,300.934 279.324,313.342 284.968,319.341 C285.631,320.051 286.559,320.449 287.529,320.449 L287.529,320.449 Z M250.014,209.499 C250.014,188.814 266.846,171.983 287.532,171.983 C308.217,171.983 325.048,188.814 325.048,209.499 C325.048,230.182 308.217,247.018 287.532,247.018 C266.846,247.018 250.014,230.182 250.014,209.499 L250.014,209.499 Z" id="Shape" fill="#232C2A"></path>
            </g>
        </g>
    </g>
</svg>