<?xml version="1.0" encoding="UTF-8" standalone="no"?>
<svg width="385px" height="581px" viewBox="0 0 385 581" version="1.1" xmlns="http://www.w3.org/2000/svg" xmlns:xlink="http://www.w3.org/1999/xlink" xmlns:sketch="http://www.bohemiancoding.com/sketch/ns">
    <!-- Generator: Sketch 3.3.3 (12081) - http://www.bohemiancoding.com/sketch -->
    <title>Untitled</title>
    <desc>Created with Sketch.</desc>
    <defs></defs>
    <g id="Page-1" stroke="none" stroke-width="1" fill="none" fill-rule="evenodd" sketch:type="MSPage">
        <g id="watch" sketch:type="MSLayerGroup">
            <g id="Group" sketch:type="MSShapeGroup">
                <path d="M272.455,22.224 C272.455,9.947 262.51,0 250.232,0 L108.756,0 C96.469,0 86.532,9.947 86.532,22.224 L86.532,94.587 L272.453,94.587 L272.453,22.224 L272.455,22.224 L272.455,22.224 Z" id="Shape" fill="#232C2A"></path>
                <path d="M86.534,558.754 C86.534,571.022 96.481,580.968 108.748,580.968 L250.244,580.968 C262.512,580.968 272.457,571.022 272.457,558.754 L272.457,486.392 L86.534,486.392 L86.534,558.754 L86.534,558.754 Z" id="Shape" fill="#232C2A"></path>
                <path d="M362.049,245.071 L339.24,245.071 L339.24,165.301 C339.24,137.007 316.219,113.988 287.924,113.988 L71.055,113.988 C42.761,113.988 19.741,137.008 19.741,165.301 L19.741,204.955 L17.562,204.955 C8.249,204.955 0.701,212.503 0.701,221.815 L0.701,256.807 C0.701,266.12 8.249,273.67 17.562,273.67 L19.741,273.67 L19.741,307.297 L17.562,307.297 C8.249,307.297 0.701,314.847 0.701,324.157 L0.701,359.149 C0.701,368.46 8.249,376.008 17.562,376.008 L19.741,376.008 L19.741,415.672 C19.741,443.967 42.761,466.985 71.055,466.985 L287.926,466.985 C316.221,466.985 339.242,443.966 339.242,415.672 L339.242,335.61 L362.051,335.61 C374.32,335.61 384.267,325.664 384.267,313.396 L384.267,267.285 C384.264,255.017 374.316,245.071 362.049,245.071 L362.049,245.071 Z M281.039,408.79 L77.942,408.79 L77.942,172.188 L281.039,172.188 L281.039,408.79 L281.039,408.79 Z" id="Shape" fill="#27B0A3"></path>
                <path d="M158.763,356.974 C162.202,359.644 166.399,361.058 170.67,361.058 C171.939,361.058 173.226,360.934 174.497,360.679 C180.028,359.561 184.803,356.095 187.569,351.19 L240.074,258.024 C245.342,248.685 242.037,236.853 232.705,231.594 C223.336,226.327 211.533,229.634 206.275,238.965 L164.813,312.539 L147.716,299.247 C139.237,292.683 127.083,294.189 120.492,302.657 C113.917,311.115 115.443,323.31 123.901,329.884 L158.763,356.974 L158.763,356.974 Z" id="Shape" fill="#DF4F2A"></path>
            </g>
        </g>
    </g>
</svg>