<?xml version="1.0" encoding="UTF-8" standalone="no"?>
<svg width="381px" height="364px" viewBox="0 0 381 364" version="1.1" xmlns="http://www.w3.org/2000/svg" xmlns:xlink="http://www.w3.org/1999/xlink" xmlns:sketch="http://www.bohemiancoding.com/sketch/ns">
    <!-- Generator: Sketch 3.3.3 (12081) - http://www.bohemiancoding.com/sketch -->
    <title>Untitled</title>
    <desc>Created with Sketch.</desc>
    <defs></defs>
    <g id="Page-1" stroke="none" stroke-width="1" fill="none" fill-rule="evenodd" sketch:type="MSPage">
        <g id="world" sketch:type="MSLayerGroup">
            <g id="Group" sketch:type="MSShapeGroup">
                <path d="M375.642,207.201 C371.131,199.191 364.158,193.053 355.985,189.491 C360.302,176.275 362.643,162.174 362.643,147.534 C362.643,122.777 355.968,99.552 344.332,79.554 C340.976,86.397 336.902,93.441 332.547,100.315 L330.627,103.309 C326.898,109.049 323.016,114.627 319.245,119.82 C334.164,128.132 342.643,138.061 342.643,147.535 C342.643,161.824 323.375,177.15 291.783,186.395 C293.482,174.461 294.393,161.957 294.466,149.18 C293.36,149.593 292.181,149.823 290.972,149.823 C288.011,149.823 285.201,148.51 283.301,146.239 C281.039,143.534 277.868,139.672 274.185,134.994 C274.374,139.092 274.48,143.27 274.48,147.536 C274.48,163.336 273.133,178.022 270.788,191.266 C257.545,193.611 242.859,194.958 227.059,194.958 C211.258,194.958 196.571,193.611 183.327,191.266 C180.982,178.023 179.635,163.336 179.635,147.536 C179.635,131.736 180.982,117.05 183.327,103.807 C196.571,101.461 211.258,100.115 227.059,100.115 C234.957,100.115 242.578,100.451 249.879,101.081 C245.506,94.225 241.396,87.183 237.989,80.329 C234.371,80.191 230.727,80.114 227.059,80.114 C213.708,80.114 200.644,81.039 188.197,82.812 C197.442,51.219 212.768,31.951 227.057,31.95 L227.057,31.95 C228.504,31.95 229.962,32.157 231.423,32.546 C233.583,25.297 237.027,18.6 241.498,12.72 C236.752,12.215 231.935,11.95 227.058,11.95 L227.057,11.95 L227.056,11.95 L227.055,11.95 C152.295,11.949 91.471,72.772 91.471,147.534 C91.471,165.772 95.104,183.174 101.665,199.071 C97.318,201.506 92.944,204.392 88.609,207.823 C88.581,207.845 88.553,207.867 88.526,207.889 L4.711,275.689 C0.514,279.084 -0.231,285.196 3.027,289.5 L55.689,359.063 C57.298,361.188 59.69,362.584 62.333,362.938 C62.776,362.998 63.22,363.027 63.662,363.027 C65.857,363.027 68.005,362.304 69.763,360.95 L126.966,316.904 L208.82,336.248 C211.951,336.987 215.169,337.362 218.385,337.362 L218.386,337.362 C225.525,337.362 232.584,335.51 238.796,332.01 L359.812,263.856 C379.794,252.601 386.896,227.187 375.642,207.201 L375.642,207.201 Z M265.918,212.258 C264.781,216.143 263.549,219.831 262.241,223.328 L250.492,229.944 C248.266,224.07 244.619,218.818 239.914,214.657 C248.794,214.258 257.499,213.457 265.918,212.258 L265.918,212.258 Z M185.409,39.715 C182.544,44.172 179.85,49.127 177.359,54.575 C172.926,64.27 169.277,75.181 166.457,86.932 C154.705,89.752 143.793,93.402 134.098,97.834 C128.65,100.325 123.696,103.019 119.239,105.883 C130.978,75.6 155.124,51.454 185.409,39.715 L185.409,39.715 Z M162.333,108.674 C160.561,121.121 159.635,134.183 159.635,147.534 C159.635,160.885 160.56,173.947 162.332,186.394 C130.738,177.149 111.471,161.823 111.471,147.534 C111.471,133.245 130.739,117.919 162.333,108.674 L162.333,108.674 Z M349.998,246.428 L228.98,314.584 C224.303,317.22 218.65,318.018 213.42,316.783 L126.936,296.345 C124.006,295.654 120.92,296.317 118.535,298.154 L65.55,338.952 L24.818,285.148 L101.066,223.47 C118.425,209.751 136.553,206.871 148.71,206.871 C157.582,206.871 163.671,208.411 165.325,208.883 C185.991,214.778 218.792,225.487 219.121,225.594 C219.249,225.636 219.378,225.675 219.509,225.712 C227.956,228.098 233.593,236.165 232.923,244.898 C232.866,245.402 231.921,253.041 226.318,256.972 C221.903,260.068 215.158,260.501 206.266,258.258 L161.985,244.509 C156.709,242.869 151.107,245.82 149.469,251.094 C147.831,256.368 150.78,261.972 156.054,263.61 L200.583,277.436 C200.743,277.485 200.903,277.531 201.065,277.572 C206.516,278.97 211.624,279.668 216.373,279.668 C224.763,279.668 232.031,277.489 238.087,273.144 C246.801,266.891 250.398,257.941 251.871,252.122 L328.804,208.798 C332.039,206.976 335.694,206.012 339.374,206.012 C347.174,206.012 354.394,210.228 358.216,217.014 C364.058,227.391 360.372,240.586 349.998,246.428 L349.998,246.428 Z M232.921,244.929 C232.92,244.937 232.921,244.944 232.92,244.952 L232.919,244.952 L232.921,244.929 L232.921,244.929 Z" id="Shape" fill="#27B0A3"></path>
                <path d="M287.055,132.343 C287.966,133.465 289.333,134.116 290.778,134.116 C292.223,134.116 293.591,133.465 294.501,132.343 C305.357,118.971 340.779,73.58 340.779,50.958 C340.779,23.389 318.349,0.961 290.779,0.961 C263.209,0.961 240.779,23.39 240.779,50.958 C240.779,73.594 276.199,118.974 287.055,132.343 L287.055,132.343 Z M290.779,21.712 C305.316,21.712 317.142,33.537 317.142,48.072 C317.142,62.61 305.316,74.437 290.779,74.437 C276.242,74.437 264.417,62.61 264.417,48.072 C264.416,33.537 276.242,21.712 290.779,21.712 L290.779,21.712 Z" id="Shape" fill="#DF4F2A"></path>
            </g>
        </g>
    </g>
</svg>