<?xml version="1.0" encoding="utf-8"?>
<!-- Generator: Adobe Illustrator 16.0.4, SVG Export Plug-In . SVG Version: 6.00 Build 0)  -->
<!DOCTYPE svg PUBLIC "-//W3C//DTD SVG 1.1//EN" "http://www.w3.org/Graphics/SVG/1.1/DTD/svg11.dtd">
<svg version="1.1" id="Laag_1" xmlns:sketch="http://www.bohemiancoding.com/sketch/ns"
	 xmlns="http://www.w3.org/2000/svg" xmlns:xlink="http://www.w3.org/1999/xlink" x="0px" y="0px" width="512px" height="512px"
	 viewBox="0 0 512 512" enable-background="new 0 0 512 512" xml:space="preserve">
<g id="vacature" sketch:type="MSPage">
	<g id="vacature-detail" transform="translate(-1017.000000, -3278.000000)" sketch:type="MSArtboardGroup">
		<g id="Group" transform="translate(406.000000, 3239.000000)" sketch:type="MSLayerGroup">
			<g id="Rectangle-300-_x2B_-delen-op-Facebook-_x2B_-Imported-Layers-5-_x2B_-IN" transform="translate(482.000000, 29.000000)">
				<g id="IN" transform="translate(129.000000, 10.000000)">
					<path id="Clip-21" sketch:type="MSShapeGroup" d="M70.709,186.815h77.21v247.065h-77.21V186.815z M107.771,78.119
						c20.437,0,37.057,16.607,37.057,37.045c0,20.476-16.618,37.072-37.057,37.072c-20.477,0-37.062-16.598-37.062-37.072
						C70.709,94.727,87.294,78.119,107.771,78.119L107.771,78.119z"/>
					<g id="Clip-24" sketch:type="MSShapeGroup">
						<path id="path-1_1_" d="M209.68,192.839h71.274v32.938h1.007c9.918-18.971,34.166-38.951,70.267-38.951
							c75.185,0,89.062,49.938,89.062,114.844v132.21h-74.216V316.646c0-27.937-0.543-63.91-38.576-63.91
							c-38.691,0-44.56,30.458-44.56,61.897v119.249H209.68V192.839L209.68,192.839z"/>
					</g>
				</g>
			</g>
		</g>
	</g>
</g>
</svg>
