<?xml version="1.0" encoding="utf-8"?>
<!-- Generator: Adobe Illustrator 16.0.4, SVG Export Plug-In . SVG Version: 6.00 Build 0)  -->
<!DOCTYPE svg PUBLIC "-//W3C//DTD SVG 1.1//EN" "http://www.w3.org/Graphics/SVG/1.1/DTD/svg11.dtd">
<svg version="1.1" id="Layer_1" xmlns="http://www.w3.org/2000/svg" xmlns:xlink="http://www.w3.org/1999/xlink" x="0px" y="0px"
	 width="512px" height="512px" viewBox="0 0 512 512" enable-background="new 0 0 512 512" xml:space="preserve">
<path d="M435.268,163.62c0,3.662,0,7.315,0,12.808c0,122.558-93.287,263.417-263.417,263.417c-53.048,0-100.611-14.64-140.851-42.08
	c7.315,0,14.63,1.832,21.946,1.832c43.901,0,82.318-14.63,115.251-40.239c-40.248,0-75.003-27.439-85.981-64.025
	c5.485,1.822,10.978,1.822,16.462,1.822c9.147,0,16.462-1.822,23.786-3.653c-42.079-9.146-75.002-45.733-75.002-91.464
	c0,0,0,0,0-1.831c12.799,7.315,27.439,10.978,42.071,10.978c-25.609-16.462-40.239-43.901-40.239-76.835
	c0-16.461,3.653-32.924,12.8-45.732c45.733,56.71,113.42,93.296,190.245,96.958c-1.822-7.325-1.822-14.64-1.822-21.955
	c0-51.217,42.071-91.464,91.464-91.464c27.44,0,51.217,10.978,67.68,29.27c21.955-3.662,40.248-10.977,58.541-21.954
	c-7.315,21.954-21.955,40.248-40.248,51.225c18.292-1.831,36.585-7.324,53.047-14.639C468.201,134.348,453.56,150.81,435.268,163.62
	z"/>
</svg>
