<?xml version="1.0" encoding="UTF-8" standalone="no"?>
<svg width="181px" height="49px" viewBox="0 0 181 49" version="1.1" xmlns="http://www.w3.org/2000/svg" xmlns:xlink="http://www.w3.org/1999/xlink" xmlns:sketch="http://www.bohemiancoding.com/sketch/ns">
    <!-- Generator: Sketch 3.3.3 (12081) - http://www.bohemiancoding.com/sketch -->
    <title>ul-logo-svg@3x</title>
    <desc></desc>
    <defs>
        <path d="M79.4358627,25.234 C77.5409216,25.234 76.8700196,24.552 76.8700196,22.62225 C76.8700196,21.9770625 77.2804118,19.8690625 77.8478235,16.9511875 C78.1083333,15.604625 78.413451,14.039125 78.748902,12.248875 L77.2607843,11.58625 C75.3801176,14.7095 73.4726863,16.0425 70.889,16.0425 C67.2793333,16.0425 64.854451,12.9676875 64.854451,8.39325 C64.854451,8.06 64.8740784,7.7325625 64.8972745,7.4070625 C66.976,7.2753125 69.0779216,7.1048125 71.2012549,6.893625 L71.195902,6.947875 C71.195902,9.3329375 72.5484118,10.993375 74.4790392,10.993375 C75.7708824,10.993375 77.6551176,10.404375 79.318098,7.606625 L79.4037451,7.4651875 L79.4340784,7.2985625 C79.5143725,6.85875 79.5982353,6.358875 79.682098,5.831875 C81.5252941,5.5509375 83.3791961,5.2370625 85.2455882,4.886375 C83.5272941,13.5334375 83.293549,19.0514375 83.293549,21.3531875 C83.293549,22.4285 83.3988235,23.439875 83.6058039,24.366 C82.139098,24.9414375 80.7419804,25.234 79.4358627,25.234 L79.4358627,25.234 Z M12.2707255,16.743875 C5.46713725,16.743875 1.72186275,13.512125 1.72186275,7.6511875 C1.72186275,5.6361875 2.11976471,3.406125 2.56227451,1.054 C4.57854902,1.600375 6.9677451,2.204875 9.6852549,2.821 C9.55678431,3.7568125 9.47827451,4.599625 9.47827451,5.328125 C9.47827451,8.761375 11.1430392,10.7279375 14.0461176,10.7279375 C16.1908627,10.7279375 17.9626863,9.63325 19.1742353,7.560125 C19.5471569,6.92075 19.929,6.02175 20.2876471,4.917375 C22.357451,5.27 24.5307451,5.607125 26.7968235,5.9151875 C26.543451,6.6708125 26.2793725,7.3721875 26.0028039,8.0193125 C23.4548039,13.888 18.961902,16.743875 12.2707255,16.743875 L12.2707255,16.743875 Z M56.9802745,16.1296875 C54.7498824,16.1296875 54.293098,15.209375 54.293098,13.826 C54.293098,13.124625 54.4643922,12.19075 54.6802941,11.0146875 L54.7213333,10.8035 C54.8944118,9.86575 55.0674902,8.9648125 55.2352157,8.1084375 L55.3030196,7.753875 C57.2907451,7.7364375 59.3070196,7.684125 61.3482745,7.5969375 C61.1216667,9.032625 60.9592941,10.5574375 60.9592941,12.15975 C60.9592941,13.3241875 61.0717059,14.349125 61.3036667,15.2675 C59.6139216,15.83325 58.1275882,16.1296875 56.9802745,16.1296875 L56.9802745,16.1296875 Z M46.2155098,16.1296875 C43.953,16.1296875 43.4890784,15.209375 43.4890784,13.826 C43.4890784,12.706125 43.7977647,11.33825 44.1207255,9.8948125 C44.2848824,9.1546875 44.4561765,8.366125 44.6042745,7.5543125 C46.625902,7.64925 48.6867843,7.7131875 50.7851373,7.746125 C50.5281961,9.2709375 50.3158627,10.908125 50.3158627,12.6421875 C50.3158627,13.4830625 50.4336275,14.349125 50.6727255,15.263625 C48.9383725,15.8468125 47.473451,16.1296875 46.2155098,16.1296875 L46.2155098,16.1296875 Z M32.9919608,16.1296875 C30.6812745,16.1296875 30.3868627,14.9478125 30.3868627,13.91125 C30.3868627,13.0045 30.7348039,11.3014375 31.2165686,8.95125 C31.366451,8.2130625 31.5323922,7.40125 31.7054706,6.5313125 C33.6236078,6.7444375 35.5988431,6.9381875 37.6222549,7.1009375 C37.2796667,9.117875 37.0923137,10.8790625 37.0923137,12.245 C37.0923137,13.2970625 37.1975882,14.3045625 37.4063529,15.2539375 C35.9271569,15.829375 34.4158431,16.1296875 32.9919608,16.1296875 L32.9919608,16.1296875 Z" id="path-1"></path>
    </defs>
    <g id="Page-1" stroke="none" stroke-width="1" fill="none" fill-rule="evenodd" sketch:type="MSPage">
        <g id="Uniqleads_Georgy-business-card-front-final-(updated)_with-bleedmark" sketch:type="MSLayerGroup">
            <path d="M78.6311373,24.6866875 C77.4624118,26.657125 76.0492353,27.6665625 74.4772549,27.6665625 C73.0266078,27.6665625 72.0184706,26.440125 72.0184706,24.510375 C72.0184706,21.4065 74.0347451,18.99625 76.9378235,18.99625 C77.6622549,18.99625 78.5080196,19.170625 79.3966078,19.6085 C79.1146863,21.666125 78.8738039,23.371125 78.6311373,24.6866875 M88.1058431,13.699125 C86.9763725,13.2166875 85.7273529,12.9996875 84.4372941,12.9996875 C83.145451,12.9996875 81.9767255,13.2166875 80.8472549,13.699125 C79.3555686,12.955125 77.8656667,12.6044375 76.291902,12.6044375 C72.9463137,12.6044375 69.8005686,14.0498125 67.5023725,16.6770625 C65.2452157,19.2616875 64.035451,22.49925 64.035451,25.9576875 C64.035451,31.1230625 66.8974902,34.4943125 70.889,34.4943125 C73.8331176,34.4943125 75.9707255,32.9210625 77.9459608,29.633125 C76.8164902,35.6335625 76.0492353,39.134625 76.0492353,40.18475 C76.0492353,42.595 77.1001961,43.68775 79.4376471,43.68775 C81.0096275,43.68775 82.7439804,43.2944375 84.5978824,42.4651875 C84.2749216,41.4111875 84.1143333,40.23125 84.1143333,38.9156875 C84.1143333,33.926625 85.1206863,25.1265 88.1058431,13.699125 M60.4882353,12.559875 C59.0768431,12.559875 57.2639804,12.955125 55.1281569,13.74175 C55.4903725,14.7046875 55.6491765,15.7121875 55.6491765,16.896 C55.6491765,19.74025 54.8034118,23.417625 53.9166078,28.1896875 C53.6757255,29.5033125 53.4723137,30.5534375 53.4723137,31.3865625 C53.4723137,33.5759375 54.6035686,34.5834375 56.9802745,34.5834375 C58.393451,34.5834375 60.208098,34.1881875 62.3421373,33.4015625 C61.9406667,32.306875 61.7782941,31.082375 61.7782941,29.7241875 C61.7782941,23.77025 63.9961961,18.9090625 63.9961961,15.7121875 C63.9961961,13.567375 62.8667255,12.559875 60.4882353,12.559875 M61.0538627,9.5393125 C63.551902,9.5393125 65.6092157,7.3499375 65.6092157,4.592875 C65.6092157,2.3163125 64.1978235,0.872875 62.0209608,0.872875 C59.6014314,0.872875 57.5441176,3.104875 57.5441176,5.77475 C57.5441176,8.095875 58.9162549,9.5393125 61.0538627,9.5393125 M46.8632157,12.559875 C43.8798431,12.559875 41.5406078,14.00525 39.886549,15.977625 C39.6867059,13.6119375 38.3145686,12.559875 35.6131176,12.559875 C34.4051373,12.559875 32.9937451,12.7361875 31.4199804,13.2166875 C31.7036863,14.0924375 31.8232353,15.01275 31.8232353,16.062875 C31.8232353,17.9441875 31.6626471,20.0483125 31.2201373,22.2803125 C30.331549,26.9651875 29.5660784,29.9838125 29.5660784,31.47375 C29.5660784,33.531375 30.7348039,34.5834375 32.9937451,34.5834375 C34.6852745,34.5834375 36.5409608,34.1881875 38.3948627,33.3550625 C38.0736863,32.2623125 37.913098,31.082375 37.913098,29.8075 C37.913098,27.7518125 38.3573922,24.3379375 39.5243333,19.6530625 C40.3308431,19.0408125 41.1373529,18.7346875 41.8243137,18.7346875 C43.1536275,18.7346875 44.1617647,19.8274375 44.1617647,21.49175 C44.1617647,25.2136875 42.6700784,28.71475 42.6700784,31.3865625 C42.6700784,33.5759375 43.799549,34.5834375 46.2172941,34.5834375 C47.7500196,34.5834375 49.5646667,34.1881875 51.7004902,33.4015625 C51.3382745,32.306875 51.1366471,31.2548125 51.1366471,30.2046875 C51.1366471,25.7833125 52.5480392,21.929625 52.5480392,18.9090625 C52.5480392,14.970125 50.3693922,12.559875 46.8632157,12.559875 M25.8190196,3.6299375 C24.1649608,3.6299375 22.3110588,4.155 20.3340392,5.1625 C21.021,6.607875 21.1815882,8.227625 21.1815882,10.1535 C21.1815882,17.1575625 19.689902,22.5864375 18.4801373,24.6440625 C17.4327451,26.440125 15.9018039,27.401125 14.0461176,27.401125 C11.6283725,27.401125 10.2972745,25.8259375 10.2972745,22.890625 C10.2972745,21.449125 10.618451,19.5213125 11.0627451,17.0723125 C11.9085098,12.6470625 12.6739804,9.4966875 12.6739804,7.3945 C12.6739804,4.76725 11.3839216,3.6299375 8.40054902,3.6299375 C6.70901961,3.6299375 4.81229412,4.0678125 2.67468627,4.899 C2.91735294,5.9510625 3.03868627,7.0011875 3.03868627,8.0513125 C3.03868627,14.7046875 0.901078431,20.3525 0.901078431,25.2136875 C0.901078431,31.47375 4.89437255,35.19375 12.2707255,35.19375 C19.2866471,35.19375 24.0454118,32.1770625 26.7468627,25.9576875 C27.874549,23.3304375 28.722098,20.0483125 29.4465294,16.152 C30.0121569,13.086875 30.2548235,10.6785625 30.2548235,8.9270625 C30.2548235,5.2496875 28.9629804,3.6299375 25.8190196,3.6299375" id="Fill-13" fill="#000000" sketch:type="MSShapeGroup"></path>
            <path d="M174.298902,19.4360625 C174.298902,20.1800625 174.982294,20.790375 176.113549,21.844375 C177.926412,23.5513125 179.137961,24.73125 179.137961,27.095 C179.137961,29.5730625 177.837196,31.8283125 175.619294,33.295 C175.221392,33.128375 174.787804,33.0005 174.318529,32.911375 C173.212255,32.702125 171.561765,32.802875 168.838902,32.9714375 C167.845039,33.0315 166.688804,33.10125 165.418373,33.1651875 C165.300608,32.8358125 165.225667,32.4676875 165.225667,32.043375 C165.225667,30.9486875 165.709216,29.7241875 166.556765,28.2361875 C167.766529,29.1080625 169.015549,29.5033125 170.227098,29.5033125 C171.27449,29.5033125 171.838333,28.97825 171.838333,28.1896875 C171.838333,27.4456875 171.071078,26.8315 169.863098,25.6515625 C168.169784,23.94075 167.001059,22.8073125 167.001059,20.5714375 C167.001059,18.5603125 168.250078,16.23725 170.589314,14.574875 C172.482471,13.2166875 174.661118,12.51725 176.918275,12.51725 C179.337804,12.51725 180.588608,13.4375625 180.588608,15.2316875 C180.588608,16.3709375 180.103275,17.5954375 179.175431,18.99625 C178.129824,18.3820625 177.119902,18.03525 176.234882,18.03525 C175.025118,18.03525 174.298902,18.6475 174.298902,19.4360625 M140.195314,29.284375 C140.195314,30.6851875 140.313078,31.869 140.714549,32.9210625 C138.578725,34.0138125 136.805118,34.5834375 135.354471,34.5834375 C133.620118,34.5834375 132.854647,33.8375 132.854647,31.9988125 L132.854647,31.9871875 L132.886765,32.058875 L134.421275,31.0785 L131.759078,25.293125 L135.504353,25.293125 L127.467804,17.3474375 L128.008451,28.920125 L130.278098,26.2425 L132.456745,31.10175 C130.583216,33.78325 128.599059,34.9748125 125.758431,34.9748125 C121.806176,34.9748125 119.065471,31.648125 119.065471,26.393625 C119.065471,22.8073125 120.275235,19.3915 122.491353,16.806875 C124.789549,14.0924375 127.937078,12.559875 131.200588,12.559875 C132.733314,12.559875 134.183961,12.9105625 135.677431,13.6565 C136.805118,13.1295 138.016667,12.955125 139.38702,12.955125 C140.677078,12.955125 141.927882,13.1740625 143.053784,13.6565 C141.039294,20.1335625 140.195314,25.47525 140.195314,29.284375 M98.0623137,16.23725 C96.8953725,22.541875 96.1673725,27.052375 96.1673725,29.8075 C96.1673725,31.082375 96.3297451,32.2623125 96.6509216,33.3550625 C94.7149412,34.1881875 92.8610392,34.5834375 91.1284706,34.5834375 C88.7892353,34.5834375 87.7400588,33.6185625 87.7400588,31.3865625 C87.7400588,30.028375 88.5447843,26.8315 89.4351569,21.666125 C90.482549,15.7121875 91.1284706,11.2481875 91.1284706,8.1385 C91.1284706,6.824875 90.966098,5.600375 90.6841765,4.461125 C92.9413333,3.4981875 94.9165686,2.9285625 96.6116667,2.9285625 C98.8277843,2.9285625 100.000078,3.980625 100.000078,5.8193125 C100.000078,7.52625 99.0294118,10.940125 98.0623137,16.23725 M110.399059,17.729125 C111.648078,17.729125 112.454588,18.51575 112.454588,19.7848125 C112.454588,21.053875 111.528529,21.666125 109.672843,21.666125 C108.584412,21.666125 107.654784,21.5363125 106.810804,21.317375 C107.415686,18.99625 108.745,17.729125 110.399059,17.729125 M110.802314,25.7833125 C116.608471,25.7833125 119.511549,23.77025 119.511549,19.7848125 C119.511549,15.625 116.164176,12.4300625 111.043196,12.4300625 C104.148608,12.4300625 98.7849608,17.98875 98.7849608,25.300875 C98.7849608,31.342 102.617667,35.1085 109.189294,35.1085 C114.351314,35.1085 117.293647,33.1806875 117.293647,30.51275 C117.293647,29.45875 116.810098,28.583 115.841216,27.5348125 C114.351314,28.935625 112.413549,29.679625 110.156392,29.679625 C107.374647,29.679625 105.882961,28.4105625 105.882961,26.134 C105.882961,25.8705 105.882961,25.607 105.924,25.3454375 C107.335392,25.6515625 108.948412,25.7833125 110.802314,25.7833125 M156.478961,24.952125 C155.228157,26.8799375 153.816765,27.796375 152.728333,27.796375 C151.195608,27.796375 150.310588,26.657125 150.310588,24.510375 C150.310588,21.6235 152.285824,19.2616875 154.744608,19.2616875 C155.631412,19.2616875 156.437922,19.47675 157.324725,19.9165625 C157.042804,21.797875 156.760882,23.50675 156.478961,24.952125 M165.793078,14.6620625 C166.640627,10.4150625 167.447137,7.4390625 167.447137,5.732125 C167.447137,3.9360625 166.317667,2.973125 164.13902,2.973125 C162.486745,2.973125 160.51151,3.4981875 158.254353,4.461125 C158.616569,5.5558125 158.734333,6.7376875 158.734333,8.0086875 C158.734333,9.27775 158.579098,11.071875 158.291824,13.4375625 C157.005333,12.9996875 155.793784,12.78075 154.625059,12.78075 C151.03502,12.78075 147.810765,14.311375 145.512569,17.0258125 C143.294667,19.6530625 142.125941,22.937125 142.125941,26.440125 C142.125941,28.2090625 142.448902,29.75325 143.023451,31.032 L144.165412,31.6461875 C145.269902,32.2390625 146.452902,32.6575625 147.684078,32.888125 C149.13651,33.1651875 150.933314,33.33375 153.299314,33.3976875 C154.362765,32.54325 155.338784,31.353625 156.275549,29.7668125 C156.075706,30.72975 155.993627,31.47375 155.993627,31.9988125 C155.993627,32.582 156.088196,33.047 156.254137,33.42675 C158.116961,33.419 160.261706,33.3705625 162.765098,33.275625 C163.025608,33.267875 163.26649,33.2581875 163.523431,33.2485 C163.757176,33.1341875 163.980216,33.0450625 164.221098,32.9210625 C163.817843,31.869 163.69651,30.6851875 163.69651,29.284375 C163.69651,26.440125 164.379902,21.580875 165.793078,14.6620625" id="Fill-14" fill="#DF4F2A" sketch:type="MSShapeGroup"></path>
            <path d="M155.006902,46.842 C162.281549,46.4913125 167.463196,46.3905625 170.539353,46.9756875 C171.957882,47.2430625 173.246157,47.7313125 174.398824,48.4288125 C175.719216,45.8035 176.54,43.2053125 176.889725,40.6981875 C177.367922,37.3153125 176.502529,35.5948125 174.008059,35.120125 C172.494961,34.8353125 168.763961,35.3235625 162.816843,35.515375 C155.959725,35.7691875 150.844098,35.7595 147.373608,35.10075 C145.906902,34.82175 144.572235,34.3276875 143.358902,33.678625 C141.822608,36.7418125 140.78949,39.475625 140.443333,41.9304375 C139.993686,45.133125 140.932235,47.0493125 142.982412,47.4406875 C144.888059,47.799125 148.895627,47.124875 155.006902,46.842" id="Fill-15" fill="#000000" sketch:type="MSShapeGroup"></path>
            <path d="M149.17398,43.4959375 C149.17398,43.7265 149.090118,43.92025 148.924176,44.079125 C148.761804,44.2399375 148.556608,44.319375 148.315725,44.319375 C148.098039,44.319375 147.917824,44.2476875 147.776863,44.102375 C147.635902,43.9570625 147.566314,43.76525 147.566314,43.53275 C147.566314,43.280875 147.643039,43.0755 147.801843,42.9205 C147.955294,42.761625 148.16049,42.6821875 148.412078,42.6821875 C148.649392,42.6821875 148.834961,42.75775 148.968784,42.8991875 C149.102608,43.0445 149.17398,43.242125 149.17398,43.4959375" id="Fill-16" fill="#FFFFFF" sketch:type="MSShapeGroup"></path>
            <path d="M154.052294,39.1636875 L153.611569,38.9466875 C153.470608,38.9040625 153.31002,38.8808125 153.136941,38.8808125 C152.549902,38.8808125 152.059216,39.1094375 151.668451,39.5666875 C151.279471,40.025875 151.086765,40.60325 151.086765,41.304625 C151.086765,41.93625 151.258059,42.44 151.604216,42.812 C151.950373,43.184 152.417863,43.3680625 153.008471,43.3680625 C153.263627,43.3680625 153.495588,43.33125 153.706137,43.257625 C153.914902,43.180125 154.109392,43.0619375 154.291392,42.901125 L154.450196,43.2053125 L154.50551,43.482375 C154.50551,43.7478125 154.364549,43.9570625 154.082627,44.110125 C153.798922,44.2670625 153.418863,44.3465 152.933529,44.3465 C152.08598,44.3465 151.400804,44.0810625 150.870863,43.5540625 C150.340922,43.029 150.075059,42.343125 150.075059,41.498375 C150.075059,40.475375 150.396235,39.6170625 151.036804,38.9195625 C151.679157,38.2220625 152.457118,37.8733125 153.374255,37.8733125 C153.71149,37.8733125 153.961294,37.925625 154.125451,38.03025 C154.289608,38.134875 154.369902,38.2956875 154.369902,38.506875 L154.296745,38.8285 L154.052294,39.1636875" id="Fill-17" fill="#FFFFFF" sketch:type="MSShapeGroup"></path>
            <path d="M157.740471,43.4959375 C158.366765,43.4959375 158.878863,43.26925 159.280333,42.812 C159.68002,42.3566875 159.879863,41.7735 159.879863,41.0585625 C159.879863,40.363 159.683588,39.7953125 159.289255,39.3555 C158.896706,38.917625 158.391745,38.6986875 157.763667,38.6986875 C157.126667,38.6986875 156.611,38.925375 156.218451,39.382625 C155.825902,39.8379375 155.629627,40.4405 155.629627,41.1903125 C155.629627,41.85875 155.829471,42.409 156.227373,42.843 C156.625275,43.277 157.130235,43.4959375 157.740471,43.4959375 L157.740471,43.4959375 Z M157.670882,44.4026875 C156.773373,44.4026875 156.043588,44.1004375 155.477961,43.50175 C154.914118,42.8991875 154.63398,42.1319375 154.63398,41.1903125 C154.63398,40.1925 154.933745,39.382625 155.536843,38.75875 C156.141725,38.134875 156.923255,37.8229375 157.886784,37.8229375 C158.755745,37.8229375 159.469471,38.119375 160.031529,38.7103125 C160.591804,39.3031875 160.877294,40.0510625 160.877294,40.9578125 C160.877294,41.324 160.823765,41.6824375 160.716706,42.040875 C160.611431,42.3954375 160.465118,42.7015625 160.284902,42.9534375 C159.940529,43.435875 159.551549,43.7981875 159.116176,44.0384375 C158.682588,44.2786875 158.200824,44.4026875 157.670882,44.4026875 L157.670882,44.4026875 Z" id="Fill-18" fill="#FFFFFF" sketch:type="MSShapeGroup"></path>
            <path d="M161.519647,38.007 L161.774804,37.933375 L162.031745,37.9120625 C162.24051,37.9120625 162.402882,37.9701875 162.520647,38.09225 C162.636627,38.2085 162.706216,38.382875 162.718706,38.6095625 C163.025608,38.382875 163.323588,38.2143125 163.616216,38.1058125 C163.907059,37.99925 164.197902,37.9430625 164.486961,37.9430625 C164.770667,37.9430625 165.036529,38.0050625 165.284549,38.12325 C165.534353,38.243375 165.766314,38.4235625 165.984,38.661875 C166.289118,38.4235625 166.615647,38.235625 166.96002,38.1 C167.306176,37.9663125 167.638059,37.8985 167.953882,37.8985 C168.646196,37.8985 169.176137,38.1174375 169.547275,38.553375 C169.914843,38.99125 170.100412,39.6170625 170.100412,40.428875 C170.100412,40.545125 170.093275,40.7795625 170.080784,41.126375 C170.070078,41.475125 170.064725,41.7676875 170.064725,42.0040625 C170.064725,42.544625 170.087922,42.95925 170.134314,43.2518125 C170.180706,43.544375 170.255647,43.78075 170.359137,43.9609375 C170.168216,44.063625 170.005843,44.1353125 169.875588,44.1779375 L169.531216,44.2438125 C169.349216,44.2438125 169.224314,44.195375 169.15651,44.094625 C169.09049,43.99775 169.056588,43.8059375 169.056588,43.5191875 C169.056588,43.2615 169.069078,42.843 169.101196,42.2675625 C169.127961,41.692125 169.142235,41.2523125 169.142235,40.94425 C169.142235,40.1905625 169.036961,39.64225 168.826412,39.309 C168.615863,38.97575 168.276843,38.8071875 167.809353,38.8071875 C167.554196,38.8071875 167.307961,38.8459375 167.068863,38.9273125 C166.831549,39.0086875 166.578176,39.14625 166.301608,39.3341875 C166.342647,39.5899375 166.369412,39.8573125 166.387255,40.1363125 C166.405098,40.4153125 166.412235,40.8066875 166.412235,41.304625 L166.412235,41.9653125 C166.412235,42.544625 166.431863,42.9766875 166.471118,43.2595625 C166.508588,43.5424375 166.578176,43.78075 166.672745,43.9745 C166.503235,44.071375 166.351569,44.1391875 166.223098,44.1818125 L165.839471,44.2438125 C165.664608,44.2438125 165.543275,44.1915 165.477255,44.0849375 C165.409451,43.9803125 165.375549,43.7885 165.375549,43.5095 C165.375549,43.3545 165.384471,43.0154375 165.405882,42.4845625 C165.427294,41.955625 165.436216,41.498375 165.436216,41.1225 C165.436216,40.2331875 165.347,39.6286875 165.163216,39.309 C164.979431,38.99125 164.663608,38.8304375 164.215745,38.8304375 C163.978431,38.8304375 163.739333,38.8808125 163.498451,38.979625 C163.255784,39.0765 163.002412,39.2256875 162.743686,39.421375 C162.736549,39.7720625 162.724059,40.2138125 162.711569,40.762125 C162.697294,41.304625 162.690157,41.6398125 162.690157,41.7715625 C162.690157,42.327625 162.713353,42.7790625 162.761529,43.1200625 C162.807922,43.463 162.879294,43.7478125 162.981,43.9745 C162.818627,44.0675 162.668745,44.1353125 162.533137,44.1779375 L162.135235,44.2438125 C161.95502,44.2438125 161.835471,44.1895625 161.769451,44.079125 C161.703431,43.9725625 161.669529,43.742 161.669529,43.3951875 C161.669529,43.2925 161.692725,42.8759375 161.739118,42.1435625 C161.781941,41.413125 161.803353,40.7291875 161.803353,40.095625 C161.803353,39.59575 161.780157,39.17725 161.735549,38.8420625 C161.689157,38.506875 161.616,38.2298125 161.519647,38.007" id="Fill-19" fill="#FFFFFF" sketch:type="MSShapeGroup"></path>
            <g id="Group-23" transform="translate(0.000000, 17.562500)">
                <mask id="mask-2" sketch:name="Clip 21" fill="white">
                    <use xlink:href="#path-1"></use>
                </mask>
                <g id="Clip-21"></g>
                <path d="M1.72186275,1.054 L85.2455882,1.054 L85.2455882,25.234 L1.72186275,25.234 L1.72186275,1.054 Z" id="Fill-20" fill="#030100" sketch:type="MSShapeGroup" mask="url(#mask-2)"></path>
                <path d="M1.72186275,1.054 L85.2455882,1.054 L85.2455882,25.234 L1.72186275,25.234 L1.72186275,1.054 Z" id="Fill-22" fill="#030100" sketch:type="MSShapeGroup" mask="url(#mask-2)"></path>
            </g>
            <path d="M109.189294,34.21725 C103.190431,34.21725 99.6057451,30.8828125 99.6057451,25.300875 C99.6057451,23.285875 100.041118,21.425875 100.811941,19.7925625 C102.806804,19.5484375 104.799882,19.3391875 106.787608,19.1686875 C106.47,19.720875 106.20949,20.3525 106.022137,21.07325 L105.791961,21.9645 L106.619882,22.1815 C107.588765,22.433375 108.586196,22.5593125 109.674627,22.5593125 C112.807882,22.5593125 113.275373,20.821375 113.275373,19.7848125 C113.275373,19.407 113.211137,19.062125 113.111216,18.7424375 C114.940137,18.6494375 116.760137,18.5835625 118.569431,18.5448125 C118.646157,18.9439375 118.692549,19.3546875 118.692549,19.7848125 C118.692549,21.0480625 118.692549,24.894 110.802314,24.894 C108.928784,24.894 107.387137,24.7564375 106.084588,24.471625 L105.258451,24.293375 L105.115706,25.19625 C105.063961,25.5314375 105.063961,25.851125 105.063961,26.134 C105.063961,28.951125 106.919647,30.5689375 110.156392,30.5689375 C112.288647,30.5689375 114.206784,29.93925 115.753784,28.7399375 C116.258745,29.3948125 116.474647,29.93925 116.474647,30.51275 C116.474647,32.7273125 113.546588,34.21725 109.189294,34.21725" id="Fill-24" fill="#E3653A" sketch:type="MSShapeGroup"></path>
            <path d="M128.008451,28.920125 L127.524902,18.558375 L128.008451,28.920125" id="Fill-25" fill="#FFFFFF" sketch:type="MSShapeGroup"></path>
            <path d="M125.758431,34.0855 C122.18802,34.0855 119.884471,31.066875 119.884471,26.3955625 C119.884471,23.499 120.724882,20.74775 122.262961,18.5021875 L122.641235,18.5021875 C124.282804,18.5021875 125.908314,18.5235 127.524902,18.558375 L128.008451,28.920125 L130.278098,26.2425 L132.049922,30.1969375 C130.219216,32.9714375 128.417059,34.0855 125.758431,34.0855" id="Fill-26" fill="#E3653A" sketch:type="MSShapeGroup"></path>
            <path d="M133.70398,31.53575 L133.705765,31.53575 L134.421275,31.0785 L133.70398,31.53575" id="Fill-27" fill="#FFFFFF" sketch:type="MSShapeGroup"></path>
            <path d="M150.100039,33.2175 C149.193608,33.1341875 148.397804,33.02375 147.684078,32.888125 C148.397804,33.02375 149.193608,33.1341875 150.100039,33.2175" id="Fill-29" fill="#FFFFFF" sketch:type="MSShapeGroup"></path>
            <path d="M157.267627,33.419 C156.910765,33.14 156.816196,32.6730625 156.816196,31.9988125 C156.816196,31.64425 156.85902,31.001 157.07849,29.9625 L155.590373,29.284375 C154.398451,31.2935625 153.199392,32.6033125 151.848667,33.3415 C151.222373,33.3085625 150.642471,33.267875 150.100039,33.2175 C149.193608,33.1341875 148.397804,33.02375 147.684078,32.888125 C146.531412,32.671125 145.421569,32.2855625 144.379529,31.7508125 C143.464176,30.4333125 142.944941,28.6236875 142.944941,26.440125 C142.944941,23.97175 143.556961,21.6486875 144.729255,19.6085 C146.841882,19.81775 148.913471,20.0483125 150.931529,20.29825 C150.041157,21.39875 149.491588,22.879 149.491588,24.510375 C149.491588,27.126 150.699569,28.687625 152.730118,28.687625 C154.207529,28.687625 155.820549,27.5135 157.148078,25.4655625 L157.246216,25.316375 L157.280118,25.1361875 C157.494235,24.0511875 157.713706,22.7685625 157.95102,21.267 C159.895922,21.5615 161.774804,21.8715 163.584098,22.1873125 C163.118392,25.2020625 162.873941,27.594875 162.873941,29.284375 C162.873941,30.55925 162.977431,31.570625 163.205824,32.446375 C162.401098,32.8319375 161.637412,33.1225625 160.918333,33.337625 C159.597941,33.3783125 158.384608,33.4054375 157.267627,33.419" id="Fill-30" fill="#E3653A" sketch:type="MSShapeGroup"></path>
            <path d="M166.28198,33.120625 L166.28198,33.120625 C166.549627,33.105125 166.810137,33.0915625 167.06351,33.0760625 C166.810137,33.0915625 166.549627,33.1070625 166.28198,33.120625 M168.904922,32.9675625 C168.987,32.96175 169.070863,32.957875 169.151157,32.9520625 C169.070863,32.957875 168.987,32.96175 168.904922,32.9675625 M174.475549,32.954 L174.318529,32.911375 C174.302471,32.9075 174.286412,32.9055625 174.270353,32.9016875 C174.286412,32.9055625 174.302471,32.9075 174.318529,32.911375 C174.375627,32.923 174.43451,32.934625 174.491608,32.94625 C174.486255,32.9481875 174.480902,32.9520625 174.475549,32.954 M169.295686,32.9443125 C169.320667,32.942375 169.347431,32.9404375 169.372412,32.9385 C169.347431,32.9404375 169.320667,32.942375 169.295686,32.9443125 M169.400961,32.9365625 C169.434863,32.934625 169.468765,32.9326875 169.502667,32.93075 C169.468765,32.9326875 169.434863,32.934625 169.400961,32.9365625 M169.586529,32.9249375 C169.616863,32.923 169.64898,32.9210625 169.681098,32.919125 C169.64898,32.9210625 169.616863,32.923 169.586529,32.9249375 M169.682882,32.919125 C170.906922,32.8455 171.888294,32.795125 172.685882,32.7931875 C171.888294,32.795125 170.906922,32.8455 169.682882,32.919125 M172.700157,32.7931875 L172.698373,32.7931875 L172.700157,32.7931875" id="Fill-31" fill="#FFFFFF" sketch:type="MSShapeGroup"></path>
            <path d="M166.28198,33.120625 C166.048235,32.7466875 166.044667,32.34175 166.044667,32.0414375 C166.044667,31.3633125 166.299824,30.532125 166.847608,29.4568125 C167.928902,30.0806875 169.063725,30.3945625 170.227098,30.3945625 C171.904353,30.3945625 172.659118,29.28825 172.659118,28.191625 C172.659118,27.1511875 171.920412,26.440125 170.892647,25.4539375 L170.412667,24.9889375 L170.330588,24.905625 C169.656118,24.2275 169.117255,23.6753125 168.708647,23.130875 C172.086353,23.7915625 175.153588,24.4580625 177.837196,25.0819375 C178.154804,25.6709375 178.318961,26.2948125 178.318961,27.095 C178.318961,29.5924375 176.834412,31.7081875 174.491608,32.94625 C174.43451,32.934625 174.375627,32.923 174.318529,32.911375 C174.302471,32.9075 174.286412,32.9055625 174.270353,32.9016875 C173.838549,32.826125 173.324667,32.7931875 172.700157,32.7931875 L172.698373,32.7931875 L172.685882,32.7931875 C171.888294,32.795125 170.906922,32.8455 169.682882,32.919125 L169.681098,32.919125 C169.64898,32.9210625 169.616863,32.923 169.586529,32.9249375 C169.55798,32.926875 169.531216,32.9288125 169.502667,32.93075 C169.468765,32.9326875 169.434863,32.934625 169.400961,32.9365625 C169.392039,32.9365625 169.381333,32.9385 169.372412,32.9385 C169.347431,32.9404375 169.320667,32.942375 169.295686,32.9443125 C169.24751,32.94625 169.199333,32.950125 169.151157,32.9520625 C169.070863,32.957875 168.987,32.96175 168.904922,32.9675625 C168.881725,32.9695 168.860314,32.9695 168.838902,32.9714375 C168.292902,33.004375 167.698725,33.0411875 167.06351,33.0760625 C166.810137,33.0915625 166.549627,33.105125 166.28198,33.120625" id="Fill-32" fill="#E3653A" sketch:type="MSShapeGroup"></path>
        </g>
    </g>
</svg>