<?xml version="1.0"?>
<svg width="300" height="100.00000000000006" xmlns="http://www.w3.org/2000/svg" xmlns:svg="http://www.w3.org/2000/svg" xmlns:xlink="http://www.w3.org/1999/xlink">
 <!-- Created with SVG-edit - http://svg-edit.googlecode.com/ -->
 <defs>
  <symbol id="svg_24" viewBox="0 0 181 49" xmlns:xlink="http://www.w3.org/1999/xlink" xmlns="http://www.w3.org/2000/svg">
   <!-- Generator: Sketch 3.3.3 (12081) - http://www.bohemiancoding.com/sketch -->
   <title>ul-logo-svg@3x</title>
   <desc></desc>
   <defs>
    <path id="svg_16" d="m79.43586,25.234c-1.89494,0 -2.56584,-0.682 -2.56584,-2.61175c0,-0.64519 0.41039,-2.75319 0.9778,-5.67106c0.26051,-1.34656 0.56563,-2.91206 0.90108,-4.70232l-1.48812,-0.66262c-1.88066,3.12325 -3.78809,4.45625 -6.37178,4.45625c-3.60967,0 -6.03455,-3.07481 -6.03455,-7.64925c0,-0.33325 0.01963,-0.66069 0.04282,-0.98619c2.07873,-0.13175 4.18065,-0.30225 6.30398,-0.51343l-0.00535,0.05424c0,2.38507 1.35251,4.04551 3.28314,4.04551c1.29184,0 3.17608,-0.58901 4.83906,-3.38675l0.08565,-0.14144l0.03033,-0.16663c0.08029,-0.43981 0.16416,-0.93968 0.24802,-1.46668c1.84319,-0.28094 3.6971,-0.59482 5.56349,-0.9455c-1.7183,8.64706 -1.95204,14.16506 -1.95204,16.46681c0,1.07531 0.10527,2.08669 0.31225,3.01281c-1.4667,0.57544 -2.86382,0.868 -4.16994,0.868l0,0zm-67.16513,-8.49013c-6.80359,0 -10.54887,-3.23175 -10.54887,-9.09268c0,-2.015 0.3979,-4.24507 0.84041,-6.59719c2.01628,0.54638 4.40548,1.15087 7.12298,1.767c-0.12847,0.93581 -0.20698,1.77863 -0.20698,2.50713c0,3.43325 1.66477,5.39981 4.56785,5.39981c2.14474,0 3.91657,-1.09469 5.12812,-3.16781c0.37292,-0.63938 0.75476,-1.53838 1.11341,-2.64276c2.0698,0.35263 4.2431,0.68975 6.50917,0.99782c-0.25337,0.75562 -0.51745,1.457 -0.79402,2.10412c-2.548,5.86869 -7.0409,8.72456 -13.73207,8.72456l0,0zm44.70954,-0.61418c-2.23039,0 -2.68717,-0.92032 -2.68717,-2.30369c0,-0.70138 0.17129,-1.63525 0.38719,-2.81131l0.04104,-0.21119c0.17308,-0.93775 0.34616,-1.83869 0.51389,-2.69506l0.0678,-0.35457c1.98773,-0.01743 4.004,-0.06975 6.04525,-0.15693c-0.2266,1.43568 -0.38898,2.9605 -0.38898,4.56281c0,1.16444 0.11242,2.18938 0.34438,3.10775c-1.68975,0.56575 -3.17608,0.86219 -4.3234,0.86219l0,0zm-10.76476,0c-2.26251,0 -2.72643,-0.92032 -2.72643,-2.30369c0,-1.11987 0.30868,-2.48775 0.63165,-3.93119c0.16415,-0.74012 0.33545,-1.52868 0.48354,-2.3405c2.02163,0.09494 4.08251,0.15888 6.18087,0.19182c-0.25694,1.52481 -0.46928,3.162 -0.46928,4.89606c0,0.84087 0.11777,1.70694 0.35687,2.62143c-1.73436,0.58319 -3.19928,0.86607 -4.45722,0.86607l0,0zm-13.22355,0c-2.31069,0 -2.6051,-1.18188 -2.6051,-2.21844c0,-0.90675 0.34794,-2.60981 0.82971,-4.96c0.14988,-0.73819 0.31582,-1.55 0.4889,-2.41994c1.91814,0.21313 3.89337,0.40688 5.91678,0.56963c-0.34258,2.01693 -0.52994,3.77812 -0.52994,5.14406c0,1.05206 0.10528,2.05956 0.31404,3.00894c-1.47919,0.57544 -2.99051,0.87575 -4.41439,0.87575l0,0z"/>
   </defs>
   <g fill-rule="evenodd" fill="none" id="svg_1">
    <g id="svg_2">
     <path fill="#000000" id="svg_23" d="m78.63114,24.68669c-1.16873,1.97044 -2.5819,2.97987 -4.15389,2.97987c-1.45064,0 -2.45878,-1.22644 -2.45878,-3.15619c0,-3.10387 2.01628,-5.51412 4.91935,-5.51412c0.72443,0 1.5702,0.17438 2.45879,0.61225c-0.28192,2.05763 -0.52281,3.76262 -0.76547,5.07819m9.4747,-10.98756c-1.12947,-0.48244 -2.37849,-0.69944 -3.66855,-0.69944c-1.29184,0 -2.46056,0.217 -3.59004,0.69944c-1.49168,-0.744 -2.98158,-1.09469 -4.55535,-1.09469c-3.34559,0 -6.49133,1.44537 -8.78953,4.07262c-2.25715,2.58463 -3.46692,5.82219 -3.46692,9.28063c0,5.16537 2.86204,8.53662 6.85355,8.53662c2.94412,0 5.08173,-1.57325 7.05696,-4.86119c-1.12947,6.00044 -1.89672,9.5015 -1.89672,10.55163c0,2.41025 1.05096,3.503 3.38841,3.503c1.57198,0 3.30633,-0.39331 5.16023,-1.22256c-0.32296,-1.054 -0.48355,-2.23394 -0.48355,-3.5495c0,-4.98906 1.00636,-13.78919 3.99151,-25.21656m-27.6176,-1.13926c-1.4114,0 -3.22426,0.39526 -5.36008,1.18188c0.36221,0.96294 0.52102,1.97044 0.52102,3.15425c0,2.84425 -0.84577,6.52163 -1.73257,11.29369c-0.24088,1.31362 -0.4443,2.36375 -0.4443,3.19687c0,2.18938 1.13126,3.19688 3.50796,3.19688c1.41318,0 3.22783,-0.39525 5.36187,-1.18188c-0.40147,-1.09469 -0.56385,-2.31919 -0.56385,-3.67737c0,-5.95394 2.21791,-10.81513 2.21791,-14.012c0,-2.14481 -1.12947,-3.15232 -3.50796,-3.15232m0.56562,-3.02056c2.49804,0 4.55536,-2.18937 4.55536,-4.94643c0,-2.27657 -1.4114,-3.72 -3.58826,-3.72c-2.41953,0 -4.47684,2.23199 -4.47684,4.90187c0,2.32112 1.37213,3.76456 3.50974,3.76456m-14.19064,3.02056c-2.98338,0 -5.32261,1.44538 -6.97667,3.41775c-0.19984,-2.36568 -1.57198,-3.41775 -4.27343,-3.41775c-1.20798,0 -2.61937,0.17632 -4.19314,0.65682c0.28371,0.87575 0.40326,1.79606 0.40326,2.84618c0,1.88132 -0.16059,3.98544 -0.6031,6.21744c-0.88859,4.68488 -1.65406,7.7035 -1.65406,9.19344c0,2.05762 1.16872,3.10969 3.42767,3.10969c1.69152,0 3.54721,-0.39525 5.40111,-1.22838c-0.32117,-1.09275 -0.48176,-2.27269 -0.48176,-3.54756c0,-2.05569 0.44429,-5.46956 1.61123,-10.15444c0.80651,-0.61225 1.61302,-0.91837 2.29998,-0.91837c1.32932,0 2.33745,1.09275 2.33745,2.75706c0,3.72194 -1.49168,7.223 -1.49168,9.89481c0,2.18938 1.12947,3.19688 3.54721,3.19688c1.53273,0 3.34738,-0.39525 5.4832,-1.18188c-0.36222,-1.09469 -0.56384,-2.14675 -0.56384,-3.19687c0,-4.42138 1.41139,-8.27506 1.41139,-11.29563c0,-3.93894 -2.17865,-6.34919 -5.68482,-6.34919m-21.0442,-8.92993c-1.65406,0 -3.50796,0.52506 -5.48498,1.53256c0.68696,1.44537 0.84755,3.06512 0.84755,4.991c0,7.00406 -1.49169,12.43294 -2.70145,14.49056c-1.04739,1.79606 -2.57834,2.75707 -4.43402,2.75707c-2.41775,0 -3.74885,-1.57519 -3.74885,-4.5105c0,-1.44151 0.32118,-3.36932 0.76548,-5.81832c0.84576,-4.42525 1.61123,-7.57562 1.61123,-9.67781c0,-2.62725 -1.29006,-3.76456 -4.27343,-3.76456c-1.69153,0 -3.58826,0.43787 -5.72586,1.26906c0.24266,1.05206 0.364,2.10219 0.364,3.15231c0,6.65338 -2.13761,12.30119 -2.13761,17.16238c0,6.26006 3.99329,9.98006 11.36965,9.98006c7.01592,0 11.77468,-3.01669 14.47613,-9.23606c1.12769,-2.62725 1.97524,-5.90938 2.69967,-9.80569c0.56563,-3.06513 0.80829,-5.47344 0.80829,-7.22494c0,-3.67737 -1.29184,-5.29712 -4.4358,-5.29712"/>
     <path fill="#DF4F2A" id="svg_22" d="m174.2989,19.43606c0,0.744 0.68339,1.35432 1.81465,2.40831c1.81286,1.70694 3.02441,2.88688 3.02441,5.25063c0,2.47806 -1.30076,4.73331 -3.51867,6.2c-0.3979,-0.16663 -0.83149,-0.2945 -1.30076,-0.38363c-1.10628,-0.20924 -2.75676,-0.10849 -5.47963,0.06007c-0.99386,0.06006 -2.1501,0.12981 -3.42053,0.19375c-0.11776,-0.32938 -0.1927,-0.6975 -0.1927,-1.12182c0,-1.09468 0.48355,-2.31918 1.3311,-3.80718c1.20976,0.87187 2.45878,1.26712 3.67033,1.26712c1.04739,0 1.61123,-0.52506 1.61123,-1.31362c0,-0.744 -0.76725,-1.35819 -1.97523,-2.53813c-1.69332,-1.71081 -2.86204,-2.84425 -2.86204,-5.08012c0,-2.01113 1.24902,-4.33419 3.58825,-5.99656c1.89316,-1.35819 4.07181,-2.05763 6.32896,-2.05763c2.41953,0 3.67034,0.92031 3.67034,2.71444c0,1.13925 -0.48534,2.36375 -1.41318,3.76456c-1.04561,-0.61419 -2.05553,-0.961 -2.94055,-0.961c-1.20976,0 -1.93598,0.61225 -1.93598,1.40081m-34.10359,9.84832c0,1.40081 0.11777,2.58462 0.51924,3.63668c-2.13583,1.09275 -3.90943,1.66238 -5.36008,1.66238c-1.73435,0 -2.49982,-0.74594 -2.49982,-2.58463l0,-0.01162l0.03211,0.07169l1.53452,-0.98038l-2.6622,-5.78538l3.74527,0l-8.03655,-7.94568l0.54065,11.57268l2.26965,-2.67762l2.17865,4.85925c-1.87353,2.6815 -3.85769,3.87306 -6.69832,3.87306c-3.95225,0 -6.69296,-3.32668 -6.69296,-8.58118c0,-3.58632 1.20976,-7.00213 3.42588,-9.58675c2.2982,-2.71444 5.44573,-4.24701 8.70924,-4.24701c1.53272,0 2.98337,0.35069 4.47684,1.09663c1.12769,-0.527 2.33924,-0.70137 3.70959,-0.70137c1.29006,0 2.54086,0.21893 3.66676,0.70137c-2.01449,6.47706 -2.85847,11.81875 -2.85847,15.62788m-42.133,-13.04713c-1.16694,6.30463 -1.89494,10.81513 -1.89494,13.57025c0,1.27487 0.16238,2.45481 0.48355,3.54756c-1.93598,0.83313 -3.78988,1.22838 -5.52245,1.22838c-2.33923,0 -3.38841,-0.96488 -3.38841,-3.19688c0,-1.35818 0.80472,-4.55506 1.6951,-9.72043c1.04739,-5.95394 1.69331,-10.41794 1.69331,-13.52763c0,-1.31362 -0.16237,-2.53813 -0.44429,-3.67737c2.25715,-0.96294 4.23239,-1.53257 5.92749,-1.53257c2.21611,0 3.38841,1.05206 3.38841,2.89075c0,1.70694 -0.97067,5.12082 -1.93777,10.41794m12.33675,1.49187c1.24902,0 2.05553,0.78663 2.05553,2.05569c0,1.26907 -0.92606,1.88132 -2.78175,1.88132c-1.08843,0 -2.01806,-0.12982 -2.86204,-0.34876c0.60489,-2.32112 1.9342,-3.58825 3.58826,-3.58825m0.40325,8.05419c5.80616,0 8.70924,-2.01306 8.70924,-5.9985c0,-4.15981 -3.34737,-7.35475 -8.46835,-7.35475c-6.89459,0 -12.25824,5.55869 -12.25824,12.87082c0,6.04112 3.83271,9.80762 10.40433,9.80762c5.16202,0 8.10436,-1.92781 8.10436,-4.59575c0,-1.054 -0.48355,-1.92975 -1.45243,-2.97794c-1.48991,1.40082 -3.42767,2.14482 -5.68483,2.14482c-2.78174,0 -4.27343,-1.26907 -4.27343,-3.54563c0,-0.2635 0,-0.527 0.04104,-0.78856c1.41139,0.30612 3.02441,0.43787 4.87831,0.43787m45.67665,-0.83119c-1.2508,1.92782 -2.66219,2.84426 -3.75063,2.84426c-1.53272,0 -2.41774,-1.13925 -2.41774,-3.28601c0,-2.88687 1.97523,-5.24868 4.43402,-5.24868c0.8868,0 1.69331,0.21506 2.58012,0.65487c-0.28193,1.88132 -0.56385,3.59019 -0.84577,5.03556m9.31412,-10.29006c0.84755,-4.247 1.65406,-7.223 1.65406,-8.92994c0,-1.79606 -1.12947,-2.75899 -3.30812,-2.75899c-1.65227,0 -3.62751,0.52506 -5.88467,1.488c0.36222,1.09468 0.47998,2.27656 0.47998,3.54756c0,1.26906 -0.15523,3.06319 -0.44251,5.42887c-1.28649,-0.43787 -2.49804,-0.65681 -3.66676,-0.65681c-3.59004,0 -6.81429,1.53062 -9.11249,4.24506c-2.2179,2.62725 -3.38663,5.91132 -3.38663,9.41431c0,1.76894 0.32296,3.31313 0.89751,4.59188l1.14196,0.61419c1.10449,0.59287 2.28749,1.01137 3.51867,1.24194c1.45243,0.27706 3.24923,0.44562 5.61523,0.50956c1.06345,-0.85444 2.03947,-2.04406 2.97624,-3.63088c-0.19984,0.96294 -0.28192,1.70694 -0.28192,2.232c0,0.58319 0.09457,1.04819 0.26051,1.42794c1.86282,-0.00775 4.00757,-0.05619 6.51096,-0.15113c0.26051,-0.00775 0.50139,-0.01743 0.75833,-0.02712c0.23375,-0.11431 0.45679,-0.20344 0.69767,-0.32744c-0.40326,-1.05206 -0.52459,-2.23587 -0.52459,-3.63668c0,-2.84426 0.68339,-7.70351 2.09657,-14.62232"/>
     <path fill="#000000" id="svg_21" d="m155.0069,46.842c7.27465,-0.35069 12.4563,-0.45144 15.53245,0.13369c1.41853,0.26737 2.70681,0.75562 3.85947,1.45312c1.3204,-2.62531 2.14118,-5.2235 2.4909,-7.73062c0.4782,-3.38288 -0.38719,-5.10338 -2.88166,-5.57806c-1.5131,-0.28482 -5.2441,0.20343 -11.19122,0.39524c-6.85712,0.25382 -11.97274,0.24413 -15.44323,-0.41462c-1.46671,-0.279 -2.80137,-0.77306 -4.01471,-1.42213c-1.53629,3.06319 -2.56941,5.79701 -2.91557,8.25182c-0.44964,3.20268 0.4889,5.11887 2.53908,5.51025c1.90565,0.35844 5.91322,-0.31581 12.02449,-0.59869"/>
     <path fill="#FFFFFF" id="svg_20" d="m149.17398,43.49594c0,0.23056 -0.08386,0.42431 -0.2498,0.58318c-0.16238,0.16082 -0.36757,0.24026 -0.60846,0.24026c-0.21768,0 -0.3979,-0.07169 -0.53886,-0.217c-0.14096,-0.14532 -0.21055,-0.33713 -0.21055,-0.56963c0,-0.25187 0.07673,-0.45725 0.23553,-0.61225c0.15345,-0.15887 0.35865,-0.23831 0.61024,-0.23831c0.23731,0 0.42288,0.07556 0.5567,0.217c0.13383,0.14531 0.2052,0.34294 0.2052,0.59675"/>
     <path fill="#FFFFFF" id="svg_19" d="m154.05229,39.16369l-0.44072,-0.217c-0.14096,-0.04263 -0.30155,-0.06588 -0.47463,-0.06588c-0.58704,0 -1.07772,0.22863 -1.46849,0.68588c-0.38898,0.45918 -0.58168,1.03656 -0.58168,1.73794c0,0.63162 0.17129,1.13537 0.51745,1.50737c0.34615,0.372 0.81364,0.55606 1.40425,0.55606c0.25516,0 0.48712,-0.03681 0.69767,-0.11044c0.20876,-0.0775 0.40325,-0.19568 0.58525,-0.35649l0.15881,0.30418l0.05531,0.27706c0,0.26544 -0.14096,0.47469 -0.42288,0.62775c-0.28371,0.15694 -0.66377,0.23638 -1.1491,0.23638c-0.84755,0 -1.53273,-0.26544 -2.06267,-0.79244c-0.52994,-0.52506 -0.7958,-1.21093 -0.7958,-2.05568c0,-1.02301 0.32117,-1.88132 0.96174,-2.57882c0.64236,-0.6975 1.42032,-1.04625 2.33746,-1.04625c0.33723,0 0.58703,0.05231 0.75119,0.15694c0.16416,0.10463 0.24445,0.26544 0.24445,0.47663l-0.07316,0.32162l-0.24445,0.33519"/>
     <path fill="#FFFFFF" id="svg_18" d="m157.74047,43.49594c0.62629,0 1.13839,-0.22669 1.53986,-0.68394c0.39969,-0.45531 0.59953,-1.0385 0.59953,-1.75344c0,-0.69556 -0.19627,-1.26325 -0.59061,-1.70306c-0.39254,-0.43787 -0.89751,-0.65681 -1.52558,-0.65681c-0.637,0 -1.15267,0.22669 -1.54522,0.68393c-0.39255,0.45532 -0.58882,1.05788 -0.58882,1.80769c0,0.66844 0.19984,1.21869 0.59774,1.65269c0.3979,0.434 0.90286,0.65294 1.5131,0.65294l0,0zm-0.06959,0.90675c-0.89751,0 -1.62729,-0.30225 -2.19292,-0.90094c-0.56384,-0.60256 -0.84398,-1.36981 -0.84398,-2.31144c0,-0.99781 0.29976,-1.80769 0.90286,-2.43156c0.60489,-0.62387 1.38642,-0.93581 2.34994,-0.93581c0.86896,0 1.58269,0.29643 2.14475,0.88737c0.56027,0.59288 0.84576,1.34075 0.84576,2.2475c0,0.36619 -0.05352,0.72463 -0.16058,1.08306c-0.10528,0.35457 -0.25159,0.66069 -0.43181,0.91257c-0.34437,0.48244 -0.73335,0.84475 -1.16872,1.085c-0.43359,0.24025 -0.91536,0.36425 -1.4453,0.36425l0,0z"/>
     <path fill="#FFFFFF" id="svg_17" d="m161.51965,38.007l0.25515,-0.07363l0.25695,-0.02131c0.20876,0 0.37113,0.05813 0.4889,0.18019c0.11598,0.11625 0.18557,0.29062 0.19806,0.51731c0.3069,-0.22669 0.60488,-0.39525 0.89751,-0.50375c0.29084,-0.10656 0.58168,-0.16275 0.87074,-0.16275c0.28371,0 0.54957,0.062 0.79759,0.18019c0.2498,0.12013 0.48176,0.30031 0.69945,0.53863c0.30512,-0.23832 0.63165,-0.42626 0.97602,-0.56188c0.34616,-0.13369 0.67804,-0.2015 0.99386,-0.2015c0.69232,0 1.22226,0.21894 1.5934,0.65488c0.36756,0.43787 0.55313,1.06368 0.55313,1.87549c0,0.11625 -0.00713,0.35069 -0.01963,0.69751c-0.0107,0.34874 -0.01605,0.64131 -0.01605,0.87768c0,0.54057 0.02319,0.95519 0.06958,1.24775c0.0464,0.29257 0.12134,0.52894 0.22483,0.70913c-0.19092,0.10269 -0.3533,0.17437 -0.48355,0.217l-0.34437,0.06587c-0.182,0 -0.30691,-0.04844 -0.37471,-0.14918c-0.06602,-0.09688 -0.09992,-0.28869 -0.09992,-0.57544c0,-0.25769 0.01249,-0.67619 0.04461,-1.25163c0.02676,-0.57544 0.04103,-1.01525 0.04103,-1.32331c0,-0.75369 -0.10527,-1.302 -0.31582,-1.63525c-0.21055,-0.33325 -0.54957,-0.50181 -1.01706,-0.50181c-0.25515,0 -0.50139,0.03875 -0.74049,0.12012c-0.23731,0.08138 -0.49068,0.21894 -0.76725,0.40688c0.04104,0.25575 0.0678,0.52312 0.08565,0.80212c0.01784,0.279 0.02498,0.67038 0.02498,1.16832l0,0.66068c0,0.57932 0.01962,1.01138 0.05888,1.29425c0.03747,0.28288 0.10706,0.52119 0.20162,0.71494c-0.16951,0.09688 -0.32117,0.16469 -0.44964,0.20731l-0.38363,0.062c-0.17486,0 -0.2962,-0.05231 -0.36221,-0.15887c-0.06781,-0.10463 -0.10171,-0.29644 -0.10171,-0.57544c0,-0.155 0.00892,-0.49406 0.03033,-1.02494c0.02141,-0.52894 0.03034,-0.98618 0.03034,-1.36206c0,-0.88931 -0.08922,-1.49381 -0.273,-1.8135c-0.18379,-0.31775 -0.49961,-0.47856 -0.94748,-0.47856c-0.23731,0 -0.47641,0.05037 -0.71729,0.14918c-0.24267,0.09688 -0.49604,0.24607 -0.75476,0.44175c-0.00714,0.35069 -0.01963,0.79244 -0.03212,1.34075c-0.01428,0.54251 -0.02141,0.87769 -0.02141,1.00944c0,0.55606 0.02319,1.0075 0.07137,1.3485c0.04639,0.34294 0.11776,0.62775 0.21947,0.85444c-0.16237,0.093 -0.31225,0.16081 -0.44786,0.20344l-0.39791,0.06587c-0.18021,0 -0.29976,-0.05425 -0.36578,-0.16469c-0.06602,-0.10656 -0.09992,-0.33712 -0.09992,-0.68393c0,-0.10269 0.02319,-0.51925 0.06959,-1.25163c0.04282,-0.73043 0.06423,-1.41437 0.06423,-2.04794c0,-0.49987 -0.02319,-0.91837 -0.0678,-1.25356c-0.04639,-0.33518 -0.11955,-0.61225 -0.2159,-0.83506"/>
     <g id="svg_11">
      <mask id="svg_13">
       <use xlink:href="#svg_16" id="svg_27"/>
      </mask>
      <g id="svg_15"/>
      <path mask="url(#svg_13)" fill="#030100" id="svg_14" d="m1.72186,18.6165l83.52373,0l0,24.18l-83.52373,0l0,-24.18z"/>
      <path mask="url(#svg_13)" fill="#030100" id="svg_12" d="m1.72186,18.6165l83.52373,0l0,24.18l-83.52373,0l0,-24.18z"/>
     </g>
     <path fill="#E3653A" id="svg_10" d="m109.18929,34.21725c-5.99886,0 -9.58354,-3.33444 -9.58354,-8.91637c0,-2.015 0.43537,-3.875 1.20619,-5.50832c1.99486,-0.24412 3.98794,-0.45337 5.97567,-0.62387c-0.31761,0.55218 -0.57812,1.18381 -0.76547,1.90456l-0.23018,0.89125l0.82792,0.217c0.96888,0.25188 1.96632,0.37781 3.05475,0.37781c3.13325,0 3.60074,-1.73794 3.60074,-2.7745c0,-0.37781 -0.06423,-0.72268 -0.16415,-1.04237c1.82892,-0.093 3.64892,-0.15888 5.45821,-0.19763c0.07673,0.39913 0.12312,0.80988 0.12312,1.24c0,1.26325 0,5.10919 -7.89024,5.10919c-1.87353,0 -3.41517,-0.13756 -4.71772,-0.42238l-0.82614,-0.17824l-0.14274,0.90287c-0.05175,0.33519 -0.05175,0.65487 -0.05175,0.93775c0,2.81713 1.85569,4.43494 5.09243,4.43494c2.13226,0 4.05039,-0.62969 5.59739,-1.829c0.50497,0.65487 0.72087,1.19931 0.72087,1.77281c0,2.21456 -2.92806,3.7045 -7.28536,3.7045"/>
     <path fill="#FFFFFF" id="svg_9" d="m128.00845,28.92012l-0.48355,-10.36174l0.48355,10.36174"/>
     <path fill="#E3653A" id="svg_8" d="m125.75843,34.0855c-3.57041,0 -5.87396,-3.01863 -5.87396,-7.68994c0,-2.89656 0.84041,-5.64781 2.37849,-7.89337l0.37827,0c1.64157,0 3.26708,0.02131 4.88367,0.05619l0.48355,10.36174l2.26965,-2.67762l1.77182,3.95444c-1.8307,2.7745 -3.63286,3.88856 -6.29149,3.88856"/>
     <path fill="#FFFFFF" id="svg_7" d="m133.70398,31.53575l0.00179,0l0.71551,-0.45725l-0.7173,0.45725"/>
     <path fill="#FFFFFF" id="svg_6" d="m150.10004,33.2175c-0.90643,-0.08331 -1.70224,-0.19375 -2.41596,-0.32937c0.71372,0.13562 1.50953,0.24606 2.41596,0.32937"/>
     <path fill="#E3653A" id="svg_5" d="m157.26763,33.419c-0.35687,-0.279 -0.45143,-0.74594 -0.45143,-1.42019c0,-0.35456 0.04282,-0.99781 0.26229,-2.03631l-1.48812,-0.67812c-1.19192,2.00918 -2.39098,3.31893 -3.7417,4.05712c-0.6263,-0.03294 -1.2062,-0.07363 -1.74863,-0.124c-0.90643,-0.08331 -1.70224,-0.19375 -2.41596,-0.32937c-1.15267,-0.217 -2.26251,-0.60257 -3.30455,-1.13732c-0.91535,-1.3175 -1.43459,-3.12712 -1.43459,-5.31069c0,-2.46837 0.61202,-4.79143 1.78431,-6.83162c2.11263,0.20925 4.18422,0.43981 6.20228,0.68975c-0.89037,1.1005 -1.43994,2.58075 -1.43994,4.21212c0,2.61563 1.20798,4.17726 3.23853,4.17726c1.47741,0 3.09043,-1.17413 4.41796,-3.22207l0.09814,-0.14918l0.0339,-0.18019c0.21412,-1.085 0.43359,-2.36763 0.6709,-3.86919c1.9449,0.2945 3.82378,0.6045 5.63308,0.92031c-0.46571,3.01475 -0.71016,5.40757 -0.71016,7.09707c0,1.27487 0.10349,2.28624 0.33188,3.162c-0.80472,0.38556 -1.56841,0.67618 -2.28749,0.89125c-1.32039,0.04068 -2.53372,0.06781 -3.6507,0.08137"/>
     <path fill="#FFFFFF" id="svg_4" d="m166.28198,33.12062l0,0c0.26765,-0.01549 0.52816,-0.02906 0.78153,-0.04456c-0.25337,0.0155 -0.51388,0.031 -0.78153,0.04456m2.62294,-0.15306c0.08208,-0.00581 0.16594,-0.00968 0.24624,-0.0155c-0.0803,0.00582 -0.16416,0.00969 -0.24624,0.0155m5.57063,-0.01356l-0.15702,-0.04263c-0.01606,-0.00387 -0.03212,-0.00581 -0.04818,-0.00968c0.01606,0.00387 0.03212,0.00581 0.04818,0.00968c0.0571,0.01163 0.11598,0.02325 0.17308,0.03488c-0.00536,0.00194 -0.01071,0.00581 -0.01606,0.00775m-5.17986,-0.00969c0.02498,-0.00194 0.05174,-0.00387 0.07672,-0.00581c-0.02498,0.00194 -0.05174,0.00387 -0.07672,0.00581m0.10527,-0.00775c0.0339,-0.00194 0.0678,-0.00387 0.10171,-0.00581c-0.03391,0.00194 -0.06781,0.00387 -0.10171,0.00581m0.18557,-0.01162c0.03033,-0.00194 0.06245,-0.00388 0.09457,-0.00581c-0.03212,0.00193 -0.06424,0.00387 -0.09457,0.00581m0.09635,-0.00581c1.22404,-0.07363 2.20541,-0.12401 3.003,-0.12594c-0.79759,0.00193 -1.77896,0.05231 -3.003,0.12594m3.01728,-0.12594l-0.00179,0l0.00179,0"/>
     <path fill="#E3653A" id="svg_3" d="m166.28198,33.12062c-0.23374,-0.37393 -0.23731,-0.77887 -0.23731,-1.07918c0,-0.67813 0.25515,-1.50931 0.80294,-2.58463c1.08129,0.62388 2.21612,0.93775 3.37949,0.93775c1.67725,0 2.43202,-1.10631 2.43202,-2.20294c0,-1.04043 -0.73871,-1.7515 -1.76647,-2.73768l-0.47998,-0.465l-0.08208,-0.08331c-0.67447,-0.67813 -1.21333,-1.23032 -1.62194,-1.77476c3.3777,0.66069 6.44494,1.32719 9.12855,1.95107c0.3176,0.589 0.48176,1.21287 0.48176,2.01306c0,2.49744 -1.48455,4.61319 -3.82735,5.85125c-0.0571,-0.01163 -0.11598,-0.02325 -0.17308,-0.03488c-0.01606,-0.00387 -0.03212,-0.00581 -0.04818,-0.00968c-0.4318,-0.07557 -0.94568,-0.1085 -1.57019,-0.1085l-0.00179,0l-0.01249,0c-0.79759,0.00193 -1.77896,0.05231 -3.003,0.12594l-0.00178,0c-0.03212,0.00193 -0.06424,0.00387 -0.09457,0.00581c-0.02855,0.00194 -0.05531,0.00387 -0.08386,0.00581c-0.03391,0.00194 -0.06781,0.00387 -0.10171,0.00581c-0.00892,0 -0.01963,0.00194 -0.02855,0.00194c-0.02498,0.00194 -0.05174,0.00387 -0.07672,0.00581c-0.04818,0.00194 -0.09636,0.00581 -0.14453,0.00775c-0.0803,0.00582 -0.16416,0.00969 -0.24624,0.0155c-0.0232,0.00194 -0.04461,0.00194 -0.06602,0.00388c-0.546,0.03294 -1.14018,0.06975 -1.77539,0.10462c-0.25337,0.0155 -0.51388,0.02907 -0.78153,0.04456"/>
    </g>
   </g>
  </symbol>
 </defs>
 <g>
  <title>Layer 1</title>
  <use x="43.872164" y="-18.131859" transform="matrix(0.8200462961574563,0,0,0.9811438989927664,-13.290515759868265,25.48384029163972) " xlink:href="#svg_24" id="svg_25"/>
  <g id="svg_26"/>
 </g>
</svg>