<?xml version="1.0" encoding="utf-8"?>
<!-- Generator: Adobe Illustrator 16.0.4, SVG Export Plug-In . SVG Version: 6.00 Build 0)  -->
<!DOCTYPE svg PUBLIC "-//W3C//DTD SVG 1.1//EN" "http://www.w3.org/Graphics/SVG/1.1/DTD/svg11.dtd">
<svg version="1.1" id="Laag_1" xmlns:sketch="http://www.bohemiancoding.com/sketch/ns"
	 xmlns="http://www.w3.org/2000/svg" xmlns:xlink="http://www.w3.org/1999/xlink" x="0px" y="0px" width="512px" height="512px"
	 viewBox="0 0 512 512" enable-background="new 0 0 512 512" xml:space="preserve">
<title>Imported Layers Copy 2</title>
<desc></desc>
<g id="pricing" sketch:type="MSPage">
	<g id="pricing-plan" transform="translate(-175.000000, -912.000000)" sketch:type="MSArtboardGroup">
		<g transform="translate(135.000000, 493.000000)" sketch:type="MSLayerGroup">
			<g id="features-laag" sketch:type="MSShapeGroup">
				<g id="discover-all-features">
					<g id="Group">
						<path id="Imported-Layers-Copy-2" d="M371.416,674.998l108.958-108.971c20.834-20.825,20.834-54.578,0-75.404
							c-20.837-20.83-54.582-20.83-75.418,0L295.984,599.581L187.026,490.623c-20.825-20.83-54.578-20.83-75.404,0
							c-20.829,20.826-20.829,54.579,0,75.404L220.58,674.998L111.622,783.957c-20.829,20.836-20.829,54.581,0,75.418
							C122.033,869.788,135.666,875,149.32,875c13.66,0,27.296-5.212,37.706-15.625l108.958-108.958l108.972,108.958
							C415.369,869.788,429.014,875,442.668,875c13.645,0,27.29-5.212,37.706-15.625c20.834-20.837,20.834-54.582,0-75.418
							L371.416,674.998"/>
					</g>
				</g>
			</g>
		</g>
	</g>
</g>
</svg>
