<?xml version="1.0" encoding="UTF-8" standalone="no"?>
<svg width="363px" height="233px" viewBox="0 0 363 233" version="1.1" xmlns="http://www.w3.org/2000/svg" xmlns:xlink="http://www.w3.org/1999/xlink" xmlns:sketch="http://www.bohemiancoding.com/sketch/ns">
    <!-- Generator: Sketch 3.3.2 (12043) - http://www.bohemiancoding.com/sketch -->
    <title>Imported Layers Copy 8</title>
    <desc></desc>
    <defs></defs>
    <g id="styleguide" stroke="none" stroke-width="1" fill="none" fill-rule="evenodd" sketch:type="MSPage">
        <g id="big-icon" sketch:type="MSArtboardGroup" transform="translate(-3802.000000, -551.000000)">
            <g id="Imported-Layers-Copy-8" sketch:type="MSLayerGroup" transform="translate(3802.000000, 551.000000)">
                <path d="M357.188,117.794 C353.504,107.776 347.866,98.708 340.746,91.03 C326.136,75.272 305.266,65.4 282.082,65.4 C237.9,65.4 202.082,101.218 202.082,145.4 C202.082,189.58 237.9,225.4 282.082,225.4 C284.1,225.4 286.094,225.3 288.072,225.154 C309.444,223.57 328.472,213.604 341.882,198.516 C351.76,187.404 358.586,173.53 361.052,158.19 C361.72,154.024 362.082,149.754 362.082,145.4 C362.082,135.698 360.352,126.398 357.188,117.794 L357.188,117.794 Z M286.276,201.226 C284.888,201.33 283.494,201.4 282.082,201.4 C251.204,201.4 226.082,176.28 226.082,145.4 C226.082,114.522 251.204,89.4 282.082,89.4 C298.286,89.4 312.892,96.324 323.13,107.36 C332.398,117.356 338.082,130.724 338.082,145.4 C338.082,159.652 332.722,172.67 323.924,182.564 C314.532,193.13 301.212,200.116 286.276,201.226 L286.276,201.226 Z" id="Fill-1" fill="#FFFFFF" sketch:type="MSShapeGroup"></path>
                <path d="M23.988,139.328 C23.848,132.82 18.54,141.726 12,141.726 C5.46,141.726 0.152,135.218 0.012,141.726 L0,143 L0,221.258 L0.012,221.258 C0.152,227.766 5.46,233 12,233 C18.54,233 23.848,227.766 23.988,221.258 L24,221.258 L24,141.726 L23.988,139.328" id="Fill-2" fill="#E54142" sketch:type="MSShapeGroup"></path>
                <path d="M63.988,139.328 C63.848,132.82 58.54,141.726 52,141.726 C45.46,141.726 40.152,135.218 40.012,141.726 L40,143 L40,221.258 L40.012,221.258 C40.152,227.766 45.46,233 52,233 C58.54,233 63.848,227.766 63.988,221.258 L64,221.258 L64,141.726 L63.988,139.328" id="Fill-3" fill="#E54142" sketch:type="MSShapeGroup"></path>
                <path d="M103.988,139.328 C103.848,132.82 98.54,141.726 92,141.726 C85.46,141.726 80.152,135.218 80.012,141.726 L80,143 L80,221.258 L80.012,221.258 C80.152,227.766 85.46,233 92,233 C98.54,233 103.848,227.766 103.988,221.258 L104,221.258 L104,141.726 L103.988,139.328" id="Fill-4" fill="#E54142" sketch:type="MSShapeGroup"></path>
                <path d="M183.986,139.328 C183.848,132.82 178.54,141.726 172,141.726 C165.458,141.726 160.15,135.218 160.012,141.726 L160,143 L160,221.258 L160.012,221.258 C160.15,227.766 165.458,233 172,233 C178.54,233 183.848,227.766 183.986,221.258 L184,221.258 L184,141.726 L183.986,139.328" id="Fill-5" fill="#E54142" sketch:type="MSShapeGroup"></path>
                <path d="M143.988,54.744 C143.848,48.236 138.54,43 132,43 C125.46,43 120.152,48.236 120.012,54.744 L120,54.744 L120,147.13 L120.012,155.326 C120.152,161.832 125.46,158.872 132,158.872 C138.54,158.872 143.848,158.93 143.988,152.424 L144,147.13 L144,54.744 L143.988,54.744" id="Fill-6" fill="#FFFFFF" sketch:type="MSShapeGroup"></path>
                <path d="M23.982,72.638 C23.79,66.18 18.504,61 12,61 C5.496,61 0.21,66.18 0.018,72.638 L0,72.638 L0,149.184 L24,149.184 L24,72.638 L23.982,72.638" id="Fill-7" fill="#FFFFFF" sketch:type="MSShapeGroup"></path>
                <path d="M63.982,12.542 C63.788,6.084 58.504,0.904 52,0.904 C45.496,0.904 40.212,6.084 40.018,12.542 L40,12.542 L40,121.268 L64,121.268 L64,12.542 L63.982,12.542" id="Fill-8" fill="#FFFFFF" sketch:type="MSShapeGroup"></path>
                <path d="M92,21 C85.372,21 80,26.374 80,33 L80,141.726 L104,141.726 L104,33 C104,26.374 98.626,21 92,21" id="Fill-9" fill="#FFFFFF" sketch:type="MSShapeGroup"></path>
                <path d="M184,32.998 C184,26.374 178.628,21 172,21 C165.374,21 160,26.374 160,32.998 L160,141.726 L184,141.726 L184,32.998" id="Fill-10" fill="#FFFFFF" sketch:type="MSShapeGroup"></path>
                <path d="M143.988,139.328 C143.848,132.82 138.54,141.726 132,141.726 C125.46,141.726 120.152,135.218 120.012,141.726 L120,143 L120,221.258 L120.012,221.258 C120.152,227.766 125.46,233 132,233 C138.54,233 143.848,227.766 143.988,221.258 L144,221.258 L144,141.726 L143.988,139.328" id="Fill-11" fill="#E54142" sketch:type="MSShapeGroup"></path>
                <path d="M132,125 L132,125 C138.628,125 144,130.372 144,137 L144,157 C144,163.628 138.628,169 132,169 C125.372,169 120,163.628 120,157 L120,137 C120,130.372 125.372,125 132,125" id="Fill-12" fill="#232C2A" sketch:type="MSShapeGroup"></path>
                <path d="M183.986,123.268 C183.848,116.76 178.54,111.526 172,111.526 C165.458,111.526 160.15,116.76 160.012,123.268 L160,123.268 L160.012,143.584 C160.15,150.092 165.458,155.326 172,155.326 C178.54,155.326 183.848,150.092 183.986,143.584 L184,123.268 L183.986,123.268" id="Fill-13" fill="#232C2A" sketch:type="MSShapeGroup"></path>
                <path d="M103.988,130.066 C103.848,123.558 98.54,118.324 92,118.324 C85.46,118.324 80.152,123.558 80.012,130.066 L80,130.066 L80.012,162.382 C80.152,168.89 85.46,174.126 92,174.126 C98.54,174.126 103.848,168.89 103.988,162.382 L104,130.066 L103.988,130.066" id="Fill-14" fill="#232C2A" sketch:type="MSShapeGroup"></path>
                <path d="M63.988,98.742 C63.848,92.234 58.54,87 52,87 C45.46,87 40.152,92.234 40.012,98.742 L40,98.742 L40.012,148.258 C40.152,154.766 45.46,160 52,160 C58.54,160 63.848,154.766 63.988,148.258 L64,98.742 L63.988,98.742" id="Fill-15" fill="#232C2A" sketch:type="MSShapeGroup"></path>
                <path d="M23.988,135.242 C23.848,128.734 18.54,123.5 12,123.5 C5.46,123.5 0.152,128.734 0.012,135.242 L0,135.242 L0.012,155.558 C0.152,162.066 5.46,167.3 12,167.3 C18.54,167.3 23.848,162.066 23.988,155.558 L24,135.242 L23.988,135.242" id="Fill-16" fill="#232C2A" sketch:type="MSShapeGroup"></path>
                <path d="M357.188,117.794 C353.504,107.776 347.866,98.708 340.746,91.03 L323.13,107.36 C332.398,117.356 338.082,130.724 338.082,145.4 C338.082,159.652 332.722,172.67 323.924,182.564 L341.882,198.516 C351.76,187.404 358.586,173.53 361.052,158.19 C361.72,154.024 362.082,149.754 362.082,145.4 C362.082,135.698 360.352,126.398 357.188,117.794" id="Fill-17" fill="#E54142" sketch:type="MSShapeGroup"></path>
                <path d="M341.882,198.516 L323.924,182.564 C314.532,193.13 301.212,200.116 286.276,201.226 L288.072,225.154 C309.444,223.57 328.472,213.604 341.882,198.516" id="Fill-18" fill="#232C2A" sketch:type="MSShapeGroup"></path>
            </g>
        </g>
    </g>
</svg>