<?xml version="1.0" encoding="iso-8859-1"?>
<!-- Generator: Adobe Illustrator 16.0.0, SVG Export Plug-In . SVG Version: 6.00 Build 0)  -->
<!DOCTYPE svg PUBLIC "-//W3C//DTD SVG 1.1//EN" "http://www.w3.org/Graphics/SVG/1.1/DTD/svg11.dtd">
<svg version="1.1" id="Capa_1" xmlns="http://www.w3.org/2000/svg" xmlns:xlink="http://www.w3.org/1999/xlink" x="0px" y="0px"
	 width="190" height="190px" viewBox="0 0 45.936 45.936" style="enable-background:new 0 0 45.936 45.936;"
	 xml:space="preserve">
<g>
	<g>
		<path fill="#e54142" d="M39.438,0H6.497C2.909,0,0.001,2.909,0.001,6.497v32.94c0,3.59,2.908,6.498,6.496,6.498h32.941
			c3.588,0,6.496-2.908,6.496-6.498V6.497C45.937,2.909,43.026,0,39.438,0z M39.427,36.465c0,1.379-1.117,2.496-2.496,2.496H9.006
			c-1.378,0-2.496-1.117-2.496-2.496V17.467c0-1.379,1.118-2.497,2.496-2.497h27.925c1.379,0,2.496,1.118,2.496,2.497V36.465z"/>
		<path fill="#FFF" d="M26.315,26.361v-0.076c1.58-0.835,2.43-2.271,2.43-3.732c0-2.061-1.656-4.357-5.621-4.357
			c-3.393,0-5.968,1.904-5.968,4.775c0,1.488,0.791,2.871,2.465,3.707v0.077c-1.86,0.81-3.043,2.218-3.043,4.253
			c0,2.297,1.975,4.723,6.281,4.723c3.939,0,6.541-2.062,6.541-5.142C29.399,28.396,27.897,26.988,26.315,26.361z M22.93,20.882
			c1.459,0,2.061,1.044,2.061,2.087c0,1.07-0.809,1.905-1.723,2.166c-1.355-0.416-2.401-1.148-2.401-2.297
			C20.866,21.769,21.573,20.882,22.93,20.882z M23.007,32.99c-1.488,0-2.427-1.148-2.399-2.374c0-1.228,0.756-2.167,2.062-2.532
			c1.563,0.417,2.662,1.305,2.662,2.793C25.331,32.076,24.418,32.99,23.007,32.99z"/>
	</g>
</g>
<g>
</g>
<g>
</g>
<g>
</g>
<g>
</g>
<g>
</g>
<g>
</g>
<g>
</g>
<g>
</g>
<g>
</g>
<g>
</g>
<g>
</g>
<g>
</g>
<g>
</g>
<g>
</g>
<g>
</g>
</svg>
