<?xml version="1.0" encoding="UTF-8" standalone="no"?>
<svg width="328px" height="274px" viewBox="0 0 328 274" version="1.1" xmlns="http://www.w3.org/2000/svg" xmlns:xlink="http://www.w3.org/1999/xlink" xmlns:sketch="http://www.bohemiancoding.com/sketch/ns">
    <!-- Generator: Sketch 3.3.2 (12043) - http://www.bohemiancoding.com/sketch -->
    <title>map 4 copy 2</title>
    <desc></desc>
    <defs></defs>
    <g id="styleguide" stroke="none" stroke-width="1" fill="none" fill-rule="evenodd" sketch:type="MSPage">
        <g id="big-icon" sketch:type="MSArtboardGroup" transform="translate(-95.000000, -531.000000)">
            <g id="map-4-copy-2" sketch:type="MSLayerGroup" transform="translate(95.000000, 531.000000)">
                <path d="M13.958,25.304 L94,61.732 L237.874,14.59 L317.958,56.642 L317.958,260.202 L238.142,224.042 L94,266.362 L10.208,224.848 L13.958,25.304" id="Fill-1" fill="#FFFFFF" sketch:type="MSShapeGroup"></path>
                <path d="M224,17 L248,17 L248,219 L224,219 L224,17 Z" id="Fill-2" fill="#27B0A3" sketch:type="MSShapeGroup"></path>
                <path d="M82,52 L106,52 L106,254 L82,254 L82,52 Z" id="Fill-3" fill="#27B0A3" sketch:type="MSShapeGroup"></path>
                <path d="M236,0 L92,47.826 L0,0 L0,233.148 L92,274 L236,233.148 L328,274 L328,47.826 L236,0 L236,0 Z M237.808,207.774 L93.81,248.622 L24,217.624 L24,39.448 L89.928,73.72 L233.928,25.894 L304,62.32 L304,237.164 L237.808,207.774 L237.808,207.774 Z" id="Fill-4" fill="#232C2A" sketch:type="MSShapeGroup"></path>
                <path d="M164,95 C144.118,95 128,111.118 128,131 C128,146.668 138.026,159.962 152,164.908 C155.758,166.238 159.786,167 164,167 C168.214,167 172.242,166.238 176,164.908 C189.974,159.962 200,146.668 200,131 C200,111.118 183.882,95 164,95 L164,95 Z M164,143 C157.372,143 152,137.626 152,131 C152,124.372 157.372,119 164,119 C170.626,119 176,124.372 176,131 C176,137.626 170.626,143 164,143 L164,143 Z" id="Fill-5" fill="#E54142" sketch:type="MSShapeGroup"></path>
                <path d="M152,154.94 L152,189 C152,195.626 157.372,201 164,201 C170.626,201 176,195.626 176,189 L176,154.94 C172.242,156.27 168.214,157.352 164,157.352 C159.786,157.352 155.758,156.27 152,154.94" id="Fill-6" fill="#27B0A3" sketch:type="MSShapeGroup"></path>
                <path d="M164,143 C157.372,143 152,137.626 152,131 L152,164.908 C155.758,166.238 159.786,167 164,167 C168.214,167 172.242,166.238 176,164.908 L176,131 C176,137.626 170.626,143 164,143" id="Fill-7" fill="#232C2A" sketch:type="MSShapeGroup"></path>
            </g>
        </g>
    </g>
</svg>