<?xml version="1.0" encoding="UTF-8" standalone="no"?>
<svg width="100px" height="70px" viewBox="0 0 100 191" version="1.1" xmlns="http://www.w3.org/2000/svg" xmlns:xlink="http://www.w3.org/1999/xlink" xmlns:sketch="http://www.bohemiancoding.com/sketch/ns">
    <!-- Generator: Sketch 3.3.2 (12043) - http://www.bohemiancoding.com/sketch -->
    <title>microphone 4</title>
    <desc></desc>
    <defs></defs>
    <g id="styleguide" stroke="none" stroke-width="1" fill="none" fill-rule="evenodd" sketch:type="MSPage">
        <g id="Artboard-6" sketch:type="MSArtboardGroup" transform="translate(-1244.000000, -3425.000000)">
            <g id="microphone-4" sketch:type="MSLayerGroup" transform="translate(1244.000000, 3425.000000)">
                <g id="Imported-Layers" sketch:type="MSShapeGroup">
                    <path d="M5.107,45 L94.829,45 L94.829,109 L5.107,109 L5.107,45 Z" id="Fill-2" fill="#FFFFFF"></path>
                    <path d="M96,49 C96,74.404 75.405,95 50,95 C24.595,95 4,74.404 4,49 C4,23.595 24.595,3 50,3 C75.405,3 96,23.595 96,49" id="Fill-3" fill="#FFFFFF"></path>
                    <path d="M96,113 C96,138.404 75.405,159 50,159 C24.595,159 4,138.404 4,113 C4,87.595 24.595,67 50,67 C75.405,67 96,87.595 96,113" id="Fill-4" fill="#FFFFFF"></path>
                    <path d="M50,135 C47.791,135 46,136.791 46,139 L46,158.31 C47.322,158.435 48.657,158.5 50,158.5 C51.344,158.5 52.678,158.435 54,158.31 L54,139 C54,136.791 52.209,135 50,135" id="Fill-5" fill="#E54142"></path>
                    <path d="M38,135 C35.791,135 34,136.791 34,139 L34,155.346 C36.572,156.406 39.249,157.209 42,157.738 L42,139 C42,136.791 40.209,135 38,135" id="Fill-6" fill="#E54142"></path>
                    <path d="M74,135 C71.791,135 70,136.791 70,139 L70,153.435 C72.852,151.885 75.537,149.999 78,147.789 L78,139 C78,136.791 76.209,135 74,135" id="Fill-7" fill="#E54142"></path>
                    <path d="M62,135 C59.791,135 58,136.791 58,139 L58,157.738 C60.751,157.209 63.428,156.406 66,155.346 L66,139 C66,136.791 64.209,135 62,135" id="Fill-8" fill="#E54142"></path>
                    <path d="M26,135 C23.791,135 22,136.791 22,139 L22,147.789 C24.463,149.999 27.148,151.885 30,153.435 L30,139 C30,136.791 28.209,135 26,135" id="Fill-9" fill="#E54142"></path>
                    <path d="M54,43.5 L54,42 C54,39.791 52.209,38 50,38 C47.791,38 46,39.791 46,42 L46,45 L6.308,45 C6.637,42.243 7.231,39.568 8.069,37 L91.932,37 C92.77,39.568 93.364,42.243 93.692,45 L54,45 L54,43.5 L54,45 L46,45 L46,42 C46,39.791 47.791,38 50,38 C52.209,38 54,39.791 54,42 L54,43.5 Z" id="Fill-36" fill="#E54142"></path>
                    <path d="M91.979,50.747 L91.98,50.682 C91.983,50.519 91.988,50.355 91.994,50.193 C91.996,50.127 91.999,50.061 92,49.994 C92,49.661 91.982,49.331 91.975,49 L54,49 L54,57 L91.979,57 L91.979,50.747" id="Fill-39" fill="#E54142"></path>
                    <path d="M46,49 L8.025,49 C8.018,49.333 8,49.665 8,50 L8,57 L46,57 L46,49" id="Fill-40" fill="#E54142"></path>
                    <path d="M8,61 L46,61 L46,69 L8,69 L8,61 Z" id="Fill-43" fill="#E54142"></path>
                    <path d="M54,61 L91.98,61 L91.98,69 L54,69 L54,61 Z" id="Fill-44" fill="#E54142"></path>
                    <path d="M8,97 L46,97 L46,105 L8,105 L8,97 Z M54,97 L91.979,97 L91.979,105 L54,105 L54,97 Z M54,117 L91.973,117 L91.979,116.75 L91.979,116.746 L91.98,116.682 C91.983,116.518 91.988,116.355 91.994,116.192 C91.995,116.156 91.997,116.12 91.998,116.083 L91.999,116.029 C91.999,116.018 92,116.006 92,115.994 C91.999,115.939 91.996,115.873 91.994,115.808 C91.988,115.644 91.983,115.482 91.98,115.318 L91.979,115.254 L91.979,109 L54,109 L54,117 Z M46,109 L8,109 L8,116.177 L8.027,117 L46,117 L46,109 Z M46,117 L54,117 L54,121 L46,121 L46,117 Z M46,109 L54,109 L54,117 L46,117 L46,109 Z M6.315,121 C6.639,123.736 7.224,126.414 8.063,129 L90.937,129 C91.776,126.414 93.361,123.736 93.685,121 L54,121 L6.315,121 Z M46,105 L54,105 L54,109 L46,109 L46,105 Z M46,97 L54,97 L54,105 L46,105 L46,97 Z" id="Fill-51" fill="#E54142"></path>
                    <path d="M46,97 L54,97 L54,93 L46,93 L46,97 Z" id="Fill-61" fill="#E54142"></path>
                    <path d="M46,45 L54,45 L54,49 L46,49 L46,45 Z" id="Fill-63" fill="#E54142"></path>
                    <path d="M46,57 L54,57 L54,61 L46,61 L46,57 Z" id="Fill-65" fill="#E54142"></path>
                    <path d="M46,73 L54,73 L54,69 L46,69 L46,73 Z" id="Fill-66" fill="#E54142"></path>
                    <path d="M46,49 L54,49 L54,57 L46,57 L46,49 Z" id="Fill-68" fill="#E54142"></path>
                    <path d="M46,61 L54,61 L54,69 L46,69 L46,61 Z" id="Fill-69" fill="#E54142"></path>
                    <path d="M46,73 L46,73.459 C46.947,73.162 47.955,73 49,73 L46,73" id="Fill-70" fill="#FFFFFF"></path>
                    <path d="M46,92.541 L46,93 L49,93 C47.955,93 46.947,92.838 46,92.541" id="Fill-71" fill="#FFFFFF"></path>
                    <path d="M54,26.5 L54,6.195 C52.683,6.07 51.35,6 50,6 C48.65,6 47.317,6.07 46,6.195 L46,26.5 C46,28.709 47.791,30.5 50,30.5 C52.209,30.5 54,28.709 54,26.5 Z" id="Fill-80" fill="#E54142"></path>
                    <path d="M38,30.5 C40.209,30.5 42,28.709 42,26.5 L42,5.09667969 C42,1.98878646 42,5.773 42,5.773 C39.227,6.31 36.551,8.119 34,9.174 L34,26.5 C34,28.709 35.791,30.5 38,30.5 L38.2353516,15.9423828" id="Fill-82" fill="#E54142"></path>
                    <path d="M78,26.5 L78,16.728 C75.57,14.55 72.889,12.646 70,11.075 L70,26.5 C70,28.709 71.791,30.5 74,30.5 C76.209,30.5 78,28.709 78,26.5 Z" id="Fill-84" fill="#E54142"></path>
                    <path d="M66,26.5 L66,9.174 C63.45,8.119 60.773,8.31 58,7.773 L58,26.5 C58,28.709 59.791,30.5 62,30.5 C64.209,30.5 66,28.709 66,26.5 Z" id="Fill-86" fill="#E54142"></path>
                    <path d="M30,26.5 L30,11.075 C27.111,12.646 24.431,14.55 22,16.729 L22,26.5 C22,28.709 23.791,30.5 26,30.5 C28.209,30.5 30,28.709 30,26.5 Z" id="Fill-88" fill="#E54142"></path>
                    <path d="M50,73 L8,73 L8,81 L40.201,81 C41.127,76.436 45.162,73 50,73" id="Fill-90" fill="#E54142"></path>
                    <path d="M91.979,81 L91.979,73 L50,73 C54.838,73 58.873,76.436 59.799,81 L91.979,81" id="Fill-91" fill="#E54142"></path>
                    <path d="M40.201,85 L8,85 L8,93 L50,93 C45.162,93 41.127,89.564 40.201,85" id="Fill-92" fill="#E54142"></path>
                    <path d="M50,93 L91.979,93 L91.979,85 L59.799,85 C58.873,89.564 54.838,93 50,93" id="Fill-93" fill="#E54142"></path>
                    <path d="M54,165.37025 L54,164.9135 L54,164.9135 L54,157.811 C52.678,157.935 51.344,158 50,158 C48.656,158 47.322,157.935 45.999,157.811 L45.999,165.827 C45.9993333,165.827026 45.9996667,165.827053 46,165.827079 L46,191 L54,191 L54,165.37025 L54,157.811 C55.347,157.684 56.682,157.492 58,157.238 L58,165.353 C56.684,165.565 55.349,165.721 54,165.827 L54,165.37025 L54,165.37025 Z M91.975,49 L99.975,49 C99.948,47.654 99.881,46.318 99.75,45 L91.692,45 C91.85,46.316 91.943,47.65 91.975,49 L91.975,49 Z M34,11.174 L34,2.631 C32.64,3.09 31.305,3.602 30,4.172 L30,13.075 C31.293,12.372 32.63,11.741 34,11.174 L34,11.174 Z M89.937,129 L98.266,129 C98.961,126.41 99.449,123.737 99.722,121 L91.685,121 C91.361,123.736 90.776,126.414 89.937,129 L89.937,129 Z M0.06,93 L8,93 L8,97 L0.06,97 L0.06,93 L0.06,93 Z M0.06,81 L8,81 L8,85 L0.06,85 L0.06,81 L0.06,81 Z M0.06,69 L8,69 L8,73 L0.06,73 L0.06,69 L0.06,69 Z M0.06,105 L8,105 L8,109 L0.06,109 L0.06,105 L0.06,105 Z M0.06,57 L8,57 L8,61 L0.06,61 L0.06,57 L0.06,57 Z M8.308,45 L0.249,45 C0.119,46.318 0.052,47.654 0.025,49 L8.025,49 C8.057,47.65 8.151,46.316 8.308,45 L8.308,45 Z M8.033,117.185 L8.027,117 L0,117 L0,117.406 L0.036,117.406 C0.069,118.617 0.161,119.812 0.278,121 L8.315,121 C8.167,119.739 8.068,118.468 8.033,117.185 L8.033,117.185 Z M10.069,37 L1.717,37 C1.021,39.591 0.522,42.261 0.249,45 L8.308,45 C8.637,42.243 9.231,39.568 10.069,37 L10.069,37 Z M8,50 C8,49.665 8.018,49.333 8.025,49 L0.025,49 C0.019,49.334 0,49.665 0,50 L0,57 L8,57 L8,50 L8,50 Z M0.06,61 L8,61 L8,69 L0.06,69 L0.06,61 L0.06,61 Z M0.06,73 L8,73 L8,81 L0.06,81 L0.06,73 L0.06,73 Z M0.06,85 L8,85 L8,93 L0.06,93 L0.06,85 L0.06,85 Z M0.06,97 L8,97 L8,105 L0.06,105 L0.06,97 L0.06,97 Z M8,116.177 L8,109 L0,109 L0,117 L8.027,117 L8,116.177 L8,116.177 Z M8.252,121 L0.215,121 C0.488,123.737 0.976,126.41 1.671,129 L10,129 C9.161,126.414 8.576,123.736 8.252,121 L8.252,121 Z M30,13.075 L30,4.172 C27.191,5.4 24.512,6.87 22,8.571 L22,18.729 C24.431,16.55 27.111,14.646 30,13.075 L30,13.075 Z M58,8.773 L58,0.645 C56.684,0.433 55.349,0.28 54,0.173 L54,8.195 C55.353,8.324 56.687,8.519 58,8.773 L58,8.773 Z M70,13.075 L70,4.172 C68.695,3.602 67.36,3.09 66,2.631 L66,11.174 C67.371,11.741 68.707,12.372 70,13.075 L70,13.075 Z M46,8.195 L46,0.174 C44.651,0.28 43.316,0.433 42,0.645 L42,8.773 C43.313,8.519 44.647,8.324 46,8.195 L46,8.195 Z M22,18.729 L22,8.571 C12.189,15.215 4.872,25.255 1.717,37 L10.069,37 C12.389,29.892 16.553,23.611 22,18.729 L22,18.729 Z M89.932,37 L98.283,37 C95.128,25.255 87.811,15.215 78,8.571 L78,18.728 C83.448,23.611 87.612,29.892 89.932,37 L89.932,37 Z M92,105 L100,105 L100,109 L92,109 L92,105 L92,105 Z M92,93 L100,93 L100,97 L92,97 L92,93 L92,93 Z M92.007,97 L99.98,97 L99.98,105 L92.007,105 L92.007,97 L92.007,97 Z M92.007,115.189 L92.007,115.254 L92.008,115.318 C92.011,115.482 92.016,115.644 92.021,115.808 C92.023,115.873 92.027,115.939 92.027,115.994 L92.027,116.029 L92.025,116.083 C92.024,116.12 92.022,116.156 92.021,116.192 C92.016,116.355 92.011,116.518 92.008,116.682 L92.007,116.746 L92.007,116.75 L92,117 L99.979,117 L99.979,116.81 C99.984,116.54 100,116.271 100,116 C100,115.729 99.984,115.46 99.979,115.189 L99.979,109 L92.007,109 L92.007,115.189 L92.007,115.189 Z M92,57 L100,57 L100,61 L92,61 L92,57 L92,57 Z M92,69 L100,69 L100,73 L92,73 L92,69 L92,69 Z M92,81 L100,81 L100,85 L92,85 L92,81 L92,81 Z M91.692,45 L99.75,45 C99.478,42.261 98.978,39.591 98.283,37 L89.932,37 C90.77,39.568 91.364,42.243 91.692,45 L91.692,45 Z M92.025,49.994 C92.025,50.061 92.021,50.127 92.02,50.193 C92.014,50.355 92.009,50.519 92.006,50.682 L92.005,50.747 L92.005,57 L99.979,57 L99.979,50.811 C99.984,50.54 100,50.272 100,50 C100,49.665 99.981,49.334 99.975,49 L92,49 C92.008,49.331 92.025,49.661 92.025,49.994 L92.025,49.994 Z M92.007,61 L99.98,61 L99.98,69 L92.007,69 L92.007,61 L92.007,61 Z M92.007,73 L99.98,73 L99.98,81 L92.007,81 L92.007,73 L92.007,73 Z M92.007,85 L99.98,85 L99.98,93 L92.007,93 L92.007,85 L92.007,85 Z M79.296,146.085 C78.873,146.498 78.438,146.896 78,147.289 L78,157.413 C87.801,150.769 95.113,140.74 98.266,129 L89.937,129 C87.859,135.408 84.246,141.261 79.296,146.085 L79.296,146.085 Z M20.704,146.085 C15.754,141.261 12.141,135.408 10.063,129 L1.734,129 C4.887,140.739 12.199,150.769 21.999,157.413 L21.999,147.289 C21.561,146.896 21.127,146.498 20.704,146.085 L20.704,146.085 Z M50,8 C51.35,8 52.683,8.07 54,8.195 L54,0.173 C52.679,0.069 51.348,0 50,0 C48.652,0 47.321,0.069 46,0.174 L46,8.195 C47.317,8.07 48.65,8 50,8 L50,8 Z M42,8.773 L42,0.645 C39.25,1.087 36.58,1.76 34,2.631 L34,11.174 C36.551,10.119 39.227,9.31 42,8.773 L42,8.773 Z M78,18.728 L78,8.571 C75.489,6.87 72.81,5.4 70,4.172 L70,13.075 C72.889,14.646 75.57,16.55 78,18.728 L78,18.728 Z M66,11.174 L66,2.631 C63.42,1.76 60.75,1.087 58,0.645 L58,8.773 C60.773,9.31 63.45,10.119 66,11.174 L66,11.174 Z M92.272,117.185 C92.238,118.468 92.144,119.739 92,121 L99.751,121 C99.865,119.812 99.953,118.617 99.985,117.406 L100,117.406 L100,117 L92.278,117 L92.272,117.185 L92.272,117.185 Z M30,152.935 L30,161.822 C31.305,162.394 32.639,162.909 33.999,163.369 L33.999,154.846 C32.634,154.283 31.301,153.642 30,152.935 L30,152.935 Z M66,154.846 L66,163.369 C67.361,162.909 68.695,162.394 70,161.822 L70,152.935 C68.699,153.642 67.366,154.283 66,154.846 L66,154.846 Z M42,157.238 L42,165.353 C43.316,165.565 44.651,165.721 45.999,165.827 L45.999,157.811 C44.652,157.683 43.317,157.491 42,157.238 L42,157.238 Z M33.999,154.846 L33.999,163.369 C36.579,164.24 39.25,164.91 42,165.353 L42,157.238 C39.248,156.709 36.571,155.906 33.999,154.846 L33.999,154.846 Z M70,152.935 L70,161.822 C72.811,160.594 75.487,159.117 78,157.413 L78,147.289 C75.537,149.499 72.852,151.385 70,152.935 L70,152.935 Z M58,157.238 L58,165.353 C60.749,164.91 63.42,164.241 66,163.369 L66,154.846 C63.428,155.906 60.751,156.709 58,157.238 L58,157.238 Z M21.999,147.289 L21.999,157.413 C24.512,159.116 27.188,160.593 30,161.822 L30,152.935 C27.147,151.385 24.462,149.499 21.999,147.289 L21.999,147.289 Z" id="Fill-16" fill="#202B33"></path>
                </g>
            </g>
        </g>
    </g>
</svg>