<?xml version="1.0" encoding="UTF-8" standalone="no"?>
<svg width="82px" height="136px" viewBox="0 0 82 136" version="1.1" xmlns="http://www.w3.org/2000/svg" xmlns:xlink="http://www.w3.org/1999/xlink" xmlns:sketch="http://www.bohemiancoding.com/sketch/ns">
    <!-- Generator: Sketch 3.3.2 (12043) - http://www.bohemiancoding.com/sketch -->
    <title>phone copy 4</title>
    <desc></desc>
    <defs></defs>
    <g id="styleguide" stroke="none" stroke-width="1" fill="none" fill-rule="evenodd" sketch:type="MSPage">
        <g id="Artboard-6" sketch:type="MSArtboardGroup" transform="translate(-1260.000000, -3752.000000)">
            <g id="location-copy-3" sketch:type="MSLayerGroup" transform="translate(358.000000, 3683.000000)">
                <g id="phone-copy-4" transform="translate(902.000000, 69.000000)" sketch:type="MSShapeGroup">
                    <rect id="Rectangle-87" fill="#FFFFFF" x="6" y="6" width="71" height="124"></rect>
                    <g id="Imported-Layers-Copy-4" transform="translate(17.000000, 39.000000)">
                        <path d="M48.3695,21.9369322 C46.8425,20.3394322 44.311,20.2814322 42.714,21.8084322 L28.453,35.4349322 L28.453,46.5009322 L48.241,27.5919322 C49.8385,26.0659322 49.8955,23.5339322 48.3695,21.9369322" id="Fill-1" fill="#E54142"></path>
                        <path d="M20.3695,21.9369322 C18.8425,20.3394322 16.311,20.2814322 14.714,21.8084322 L0.453,35.4349322 L0.453,46.5009322 L20.241,27.5919322 C21.8385,26.0659322 21.8955,23.5339322 20.3695,21.9369322" id="Fill-1-Copy" fill="#E54142" transform="translate(10.965298, 33.600442) scale(-1, 1) translate(-10.965298, -33.600442) "></path>
                        <path d="M25,0.0015 C22.791,0.0015 21,1.7925 21,4.0015 L21,40.0428475 L25.7089844,43.3745308 L29,44.6193856 L29,4.0015 C29,1.7925 27.209,0.0015 25,0.0015 L25.9746094,34.1312256" id="Fill-3" fill="#27B0A3"></path>
                        <path d="M25,39 L21,35 L21,46 L25,50 L29,46 L29,35 C29,35 24.7965,38.9794604 25,39 L26.1931152,35.4033203" id="Fill-4" fill="#232C2A"></path>
                    </g>
                    <rect id="Rectangle-16" fill="#27B0A3" x="6" y="104" width="75" height="8"></rect>
                    <path d="M74,18 C74,12.486 69.514,8 64,8 L64,0 C73.604445,0 81.4536777,7.52500542 81.9726821,17 L82,17 L82,118 L74,118 L74,18 Z M8,118 C8,123.514 12.486,128 18,128 L18,136 C8.17023464,136 0.179002079,128.11778 0.00296542515,118.330002 L0,118.330002 L0,18 L8,18 L8,118 Z M0,18 L8,18 C8,12.486 12.486,8 18,8 L18,0 C8.06,0 0,8.06 0,18 Z M82,118 L74,118 C74,123.514 69.514,128 64,128 L64,136 C73.94,136 82,127.94 82,118 Z M18,0 L64,0 L64,8 L18,8 L18,0 Z M18,128 L64,128 L64,136 L18,136 L18,128 Z" id="Imported-Layers" fill="#232C2A"></path>
                    <circle id="Oval-1" fill="#27B0A3" cx="41" cy="120" r="4"></circle>
                </g>
            </g>
        </g>
    </g>
</svg>