<?xml version="1.0" encoding="UTF-8" standalone="no"?>
<svg width="233px" height="234px" viewBox="0 0 233 234" version="1.1" xmlns="http://www.w3.org/2000/svg" xmlns:xlink="http://www.w3.org/1999/xlink" xmlns:sketch="http://www.bohemiancoding.com/sketch/ns">
    <!-- Generator: Sketch 3.3.3 (12081) - http://www.bohemiancoding.com/sketch -->
    <title>analytics</title>
    <desc>Created with Sketch.</desc>
    <defs>
        <path id="path-1" d="M156.276,98.813 L156.276,4.794 C156.276,2.654 154.544,0.923 152.407,0.923 L4.721,0.923 C2.582,0.923 0.852,2.654 0.852,4.794 L0.852,98.813 L156.276,98.813"></path>
        <path id="path-3" d="M6.599,6.41 C2.825,10.185 0.74,15.197 0.731,20.517 C0.712,31.547 9.668,40.536 20.698,40.555 C26.05,40.564 31.087,38.481 34.883,34.683 L34.885,34.684 C38.657,30.912 40.737,25.906 40.749,20.587 C40.759,15.253 38.683,10.227 34.904,6.435 C31.126,2.645 26.106,0.552 20.771,0.544 C15.425,0.534 10.393,2.618 6.599,6.41"></path>
    </defs>
    <g id="Page-1" stroke="none" stroke-width="1" fill="none" fill-rule="evenodd" sketch:type="MSPage">
        <g id="analytics" sketch:type="MSLayerGroup">
            <path d="M232.617,116.85 C232.617,181.05 180.572,233.094 116.373,233.094 C52.173,233.094 0.128,181.05 0.128,116.85 C0.128,52.651 52.173,0.606 116.373,0.606 C180.572,0.606 232.617,52.651 232.617,116.85" id="Fill-35" fill="#FAD179" sketch:type="MSShapeGroup"></path>
            <path d="M181.877,55.504 C173.922,55.504 167.449,61.978 167.449,69.935 C167.449,77.891 173.922,84.364 181.877,84.364 C189.835,84.364 196.309,77.891 196.309,69.935 C196.309,61.978 189.835,55.504 181.877,55.504 M181.877,85.769 C173.146,85.769 166.043,78.666 166.043,69.935 C166.043,61.202 173.146,54.098 181.877,54.098 C190.609,54.098 197.715,61.202 197.715,69.935 C197.715,78.666 190.609,85.769 181.877,85.769 M173.92,91.716 L174.464,91.898 C175.609,92.281 176.78,92.576 177.945,92.774 L178.53,92.874 L178.53,96.838 C178.53,97.253 178.868,97.591 179.283,97.591 L185.119,97.594 C185.537,97.594 185.876,97.255 185.876,96.838 L185.876,92.778 L186.44,92.664 C187.636,92.421 188.799,92.094 189.897,91.691 L190.452,91.488 L192.432,94.906 C192.635,95.259 193.103,95.388 193.465,95.182 L198.515,92.266 C198.876,92.059 198.998,91.594 198.789,91.227 L196.753,87.708 L197.188,87.328 C198.096,86.534 198.939,85.671 199.694,84.762 L200.073,84.306 L203.504,86.288 C203.852,86.487 204.334,86.357 204.536,86.008 L207.451,80.955 C207.66,80.595 207.536,80.133 207.176,79.924 L203.657,77.888 L203.842,77.343 C204.219,76.231 204.516,75.062 204.723,73.871 L204.824,73.288 L208.782,73.288 C209.196,73.288 209.534,72.946 209.535,72.526 L209.535,66.694 C209.535,66.491 209.459,66.303 209.317,66.161 C209.175,66.018 208.984,65.939 208.782,65.939 L204.723,65.939 L204.609,65.374 C204.378,64.217 204.048,63.052 203.632,61.913 L203.429,61.359 L206.85,59.383 C207.209,59.175 207.332,58.709 207.124,58.345 L204.209,53.298 C204.009,52.952 203.528,52.818 203.177,53.021 L199.651,55.054 L199.272,54.621 C198.478,53.717 197.615,52.875 196.705,52.119 L196.25,51.74 L198.228,48.312 C198.435,47.951 198.31,47.486 197.948,47.277 L192.899,44.359 C192.555,44.162 192.071,44.292 191.871,44.638 L189.835,48.157 L189.289,47.971 C188.182,47.594 187.012,47.299 185.811,47.093 L185.227,46.992 L185.227,43.031 C185.227,42.614 184.887,42.275 184.469,42.275 L178.638,42.275 C178.22,42.275 177.878,42.614 177.878,43.031 L177.878,47.093 L177.314,47.206 C176.138,47.441 174.976,47.769 173.858,48.18 L173.302,48.384 L171.331,44.961 C171.125,44.609 170.65,44.477 170.287,44.686 L165.238,47.604 C165.065,47.703 164.941,47.864 164.89,48.056 C164.837,48.253 164.863,48.459 164.965,48.636 L167,52.158 L166.567,52.539 C165.644,53.35 164.802,54.214 164.065,55.104 L163.686,55.562 L160.257,53.58 C159.91,53.382 159.426,53.513 159.218,53.865 L156.302,58.911 C156.201,59.085 156.175,59.288 156.227,59.484 C156.28,59.679 156.405,59.842 156.579,59.943 L160.102,61.976 L159.917,62.523 C159.536,63.644 159.24,64.813 159.037,65.999 L158.937,66.583 L154.978,66.583 C154.559,66.583 154.219,66.924 154.219,67.343 L154.219,73.173 C154.219,73.591 154.559,73.93 154.978,73.93 L159.038,73.93 L159.15,74.496 C159.386,75.675 159.713,76.839 160.123,77.953 L160.328,78.508 L156.904,80.487 C156.728,80.589 156.605,80.75 156.553,80.944 C156.502,81.138 156.528,81.342 156.63,81.517 L159.546,86.572 C159.745,86.915 160.225,87.049 160.578,86.845 L164.101,84.814 L164.48,85.245 C165.289,86.161 166.153,87.004 167.051,87.751 L167.506,88.13 L165.528,91.561 C165.427,91.737 165.4,91.94 165.452,92.134 C165.505,92.328 165.629,92.49 165.803,92.59 L170.859,95.508 C171.207,95.708 171.687,95.578 171.883,95.235 L173.92,91.716 M185.119,99 L179.283,98.996 C178.093,98.996 177.125,98.028 177.125,96.838 L177.125,94.053 C176.267,93.885 175.411,93.669 174.564,93.407 L173.102,95.936 C172.722,96.6 172.006,97.015 171.234,97.015 C170.857,97.015 170.484,96.914 170.156,96.725 L165.102,93.808 C164.601,93.521 164.244,93.056 164.095,92.499 C163.945,91.941 164.022,91.358 164.311,90.858 L165.701,88.447 C165.049,87.876 164.417,87.259 163.813,86.603 L161.281,88.063 C160.951,88.252 160.578,88.352 160.201,88.352 C159.43,88.352 158.712,87.939 158.328,87.275 L155.411,82.218 C155.123,81.718 155.047,81.137 155.194,80.582 C155.344,80.024 155.701,79.557 156.202,79.27 L158.606,77.88 C158.323,77.05 158.085,76.198 157.892,75.336 L154.978,75.336 C153.784,75.336 152.813,74.366 152.813,73.173 L152.813,67.343 C152.813,66.149 153.784,65.177 154.978,65.177 L157.759,65.177 C157.929,64.311 158.146,63.455 158.406,62.62 L155.877,61.16 C155.377,60.873 155.019,60.407 154.869,59.848 C154.72,59.29 154.796,58.707 155.084,58.207 L158.003,53.158 C158.396,52.489 159.115,52.076 159.885,52.076 C160.26,52.076 160.632,52.175 160.958,52.362 L163.368,53.754 C163.934,53.107 164.551,52.475 165.209,51.869 L163.747,49.338 C163.457,48.834 163.381,48.249 163.532,47.69 C163.683,47.134 164.04,46.671 164.537,46.385 L169.587,43.467 C169.919,43.277 170.293,43.176 170.671,43.176 C171.44,43.176 172.159,43.59 172.547,44.257 L173.933,46.662 C174.763,46.38 175.613,46.14 176.473,45.947 L176.473,43.031 C176.473,41.839 177.443,40.869 178.638,40.869 L184.469,40.869 C185.662,40.869 186.633,41.839 186.633,43.031 L186.633,45.814 C187.507,45.986 188.364,46.202 189.192,46.461 L190.653,43.936 C191.037,43.269 191.756,42.854 192.526,42.854 C192.901,42.854 193.273,42.953 193.6,43.14 L198.652,46.06 C199.684,46.656 200.039,47.981 199.446,49.013 L198.056,51.423 C198.713,51.998 199.344,52.614 199.941,53.264 L202.473,51.803 C202.8,51.614 203.172,51.514 203.55,51.514 C204.32,51.514 205.039,51.928 205.426,52.593 L208.344,57.645 C208.935,58.68 208.58,60.004 207.554,60.6 L205.149,61.988 C205.435,62.83 205.675,63.682 205.867,64.533 L208.782,64.533 C209.361,64.533 209.905,64.759 210.313,65.169 C210.721,65.578 210.943,66.12 210.94,66.697 L210.94,72.527 C210.938,73.722 209.971,74.694 208.782,74.694 L205.999,74.694 C205.827,75.562 205.61,76.416 205.352,77.245 L207.88,78.707 C208.911,79.304 209.265,80.628 208.669,81.658 L205.753,86.713 C205.364,87.38 204.646,87.793 203.878,87.793 C203.503,87.793 203.131,87.694 202.804,87.507 L200.391,86.113 C199.814,86.77 199.198,87.402 198.545,87.999 L200.007,90.527 C200.603,91.568 200.247,92.893 199.216,93.484 L194.164,96.402 C193.832,96.591 193.458,96.691 193.083,96.691 C192.314,96.691 191.598,96.276 191.214,95.609 L189.823,93.208 C189.002,93.486 188.15,93.725 187.282,93.921 L187.282,96.838 C187.282,98.03 186.312,99 185.119,99" id="Fill-36" fill="#63B5C3" sketch:type="MSShapeGroup"></path>
            <path d="M212.26,36.714 C210.534,36.714 209.13,38.118 209.13,39.845 C209.13,41.572 210.534,42.976 212.26,42.976 C213.986,42.976 215.392,41.572 215.392,39.845 C215.392,38.118 213.986,36.714 212.26,36.714 L212.26,36.714 Z M212.26,44.382 C209.759,44.382 207.725,42.346 207.725,39.845 C207.725,37.343 209.759,35.308 212.26,35.308 C214.762,35.308 216.798,37.343 216.798,39.845 C216.798,42.346 214.762,44.382 212.26,44.382 L212.26,44.382 Z M207.947,47.134 C208.224,47.134 208.492,47.194 208.723,47.309 L209.528,47.639 C210.188,47.86 210.717,48.596 210.717,49.335 L210.717,51.215 L210.807,51.306 L213.714,51.306 L213.808,51.215 L213.808,49.335 C213.808,48.596 214.335,47.861 215.035,47.623 L215.839,47.289 C216.027,47.194 216.296,47.134 216.572,47.134 C217.068,47.134 217.556,47.326 217.878,47.65 L219.208,48.979 L219.272,49.004 L221.393,46.922 L221.392,46.921 L221.393,46.795 L220.062,45.464 C219.538,44.938 219.394,44.043 219.725,43.382 L220.055,42.577 C220.271,41.92 221.008,41.389 221.75,41.389 L223.632,41.389 L223.721,41.3 L223.721,38.391 L223.632,38.301 L221.75,38.301 C221.007,38.301 220.271,37.77 220.037,37.067 L219.704,36.264 C219.395,35.648 219.539,34.753 220.061,34.229 L221.393,32.897 L221.392,32.896 L221.393,32.771 L219.335,30.712 L219.206,30.713 L217.877,32.043 C217.374,32.546 216.438,32.702 215.796,32.382 L214.991,32.049 C214.337,31.835 213.808,31.099 213.808,30.356 L213.808,28.474 L213.714,28.384 L210.807,28.384 L210.717,28.474 L210.717,30.356 C210.717,31.099 210.185,31.835 209.48,32.067 L208.681,32.402 C208.493,32.497 208.225,32.557 207.946,32.557 C207.451,32.557 206.963,32.365 206.642,32.041 L205.313,30.712 L205.186,30.712 L203.128,32.771 L203.128,32.897 L204.459,34.227 C204.981,34.752 205.126,35.646 204.797,36.309 L204.469,37.112 C204.248,37.771 203.512,38.301 202.771,38.301 L200.889,38.301 L200.801,38.391 L200.801,41.3 L200.889,41.389 L202.771,41.389 C203.511,41.389 204.247,41.918 204.484,42.62 L204.817,43.43 C205.127,44.044 204.983,44.939 204.46,45.463 L203.128,46.795 L203.128,46.922 L205.186,48.979 L205.314,48.978 L206.644,47.649 C206.961,47.327 207.45,47.134 207.947,47.134 L207.947,47.134 Z M213.714,52.712 L210.807,52.712 C209.981,52.712 209.312,52.04 209.312,51.215 L209.312,49.335 C209.312,49.198 209.167,48.999 209.035,48.955 L208.143,48.588 C207.982,48.513 207.721,48.559 207.641,48.64 L206.308,49.973 C205.74,50.537 204.753,50.535 204.191,49.972 L202.134,47.916 C201.852,47.635 201.695,47.258 201.695,46.856 C201.696,46.454 201.853,46.079 202.136,45.798 L203.466,44.469 C203.56,44.376 203.599,44.131 203.538,44.011 L203.168,43.111 C203.109,42.941 202.906,42.795 202.771,42.795 L200.889,42.795 C200.064,42.795 199.395,42.124 199.395,41.3 L199.395,38.391 C199.395,37.566 200.064,36.895 200.889,36.895 L202.771,36.895 C202.906,36.895 203.109,36.749 203.152,36.621 L203.517,35.729 C203.598,35.561 203.559,35.315 203.464,35.22 L202.134,33.891 C201.852,33.611 201.695,33.235 201.695,32.833 C201.696,32.431 201.853,32.056 202.136,31.775 L204.191,29.718 C204.752,29.156 205.742,29.154 206.307,29.718 L207.638,31.049 C207.689,31.101 207.811,31.152 207.946,31.152 L208.097,31.123 L208.99,30.751 C209.167,30.69 209.312,30.49 209.312,30.356 L209.312,28.474 C209.312,27.649 209.981,26.978 210.807,26.978 L213.714,26.978 C214.54,26.978 215.213,27.649 215.213,28.474 L215.213,30.356 C215.213,30.49 215.356,30.691 215.481,30.732 L216.379,31.104 C216.638,31.228 216.81,31.123 216.883,31.049 L218.214,29.718 C218.782,29.153 219.77,29.155 220.331,29.72 L222.387,31.778 C222.668,32.056 222.824,32.431 222.824,32.833 C222.824,33.235 222.669,33.611 222.385,33.893 L221.056,35.221 C220.962,35.315 220.922,35.562 220.982,35.682 L221.354,36.576 C221.414,36.751 221.615,36.895 221.75,36.895 L223.632,36.895 C224.456,36.895 225.127,37.566 225.127,38.391 L225.127,41.3 C225.127,42.124 224.456,42.795 223.632,42.795 L221.75,42.795 C221.615,42.795 221.414,42.94 221.372,43.067 L221.003,43.965 C220.922,44.131 220.962,44.376 221.057,44.47 L222.387,45.801 C222.667,46.079 222.824,46.454 222.824,46.856 C222.824,47.258 222.669,47.635 222.385,47.917 L220.329,49.973 C219.77,50.533 218.781,50.536 218.215,49.974 L216.883,48.644 C216.808,48.568 216.541,48.508 216.42,48.569 L215.53,48.938 C215.356,48.999 215.213,49.198 215.213,49.335 L215.213,51.215 C215.213,52.04 214.54,52.712 213.714,52.712 L213.714,52.712 Z" id="Fill-37" fill="#63B5C3" sketch:type="MSShapeGroup"></path>
            <path d="M191.705,34.287 C190.527,34.287 189.573,33.333 189.573,32.156 C189.573,30.976 190.527,30.022 191.705,30.022 C192.883,30.022 193.837,30.976 193.837,32.156 C193.837,33.333 192.883,34.287 191.705,34.287 L191.705,34.287 Z M198.031,30.905 L196.982,30.905 C196.739,30.905 196.478,30.717 196.402,30.486 L196.207,30.013 C196.099,29.796 196.149,29.479 196.319,29.306 L197.061,28.567 C197.234,28.397 197.234,28.115 197.061,27.944 L195.918,26.799 C195.744,26.626 195.464,26.626 195.293,26.799 L194.554,27.537 C194.381,27.709 194.063,27.762 193.846,27.653 L193.373,27.458 C193.145,27.381 192.956,27.119 192.956,26.876 L192.956,25.829 C192.956,25.588 192.757,25.389 192.513,25.389 L190.896,25.389 C190.652,25.389 190.454,25.588 190.454,25.829 L190.454,26.876 C190.454,27.119 190.267,27.381 190.034,27.458 L189.563,27.653 C189.346,27.762 189.026,27.709 188.856,27.537 L188.118,26.799 C187.946,26.626 187.666,26.626 187.492,26.799 L186.349,27.944 C186.176,28.115 186.176,28.397 186.349,28.567 L187.088,29.306 C187.26,29.479 187.311,29.796 187.202,30.013 L187.01,30.486 C186.932,30.717 186.67,30.905 186.427,30.905 L185.381,30.905 C185.139,30.905 184.939,31.103 184.939,31.346 L184.939,32.964 C184.939,33.206 185.139,33.405 185.381,33.405 L186.427,33.405 C186.67,33.405 186.932,33.592 187.01,33.823 L187.202,34.297 C187.311,34.513 187.26,34.831 187.088,35.004 L186.349,35.743 C186.176,35.915 186.176,36.196 186.349,36.367 L187.492,37.512 C187.666,37.683 187.946,37.683 188.118,37.512 L188.856,36.772 C189.026,36.6 189.346,36.549 189.563,36.657 L190.034,36.851 C190.267,36.93 190.454,37.19 190.454,37.434 L190.454,38.479 C190.454,38.723 190.652,38.921 190.896,38.921 L192.513,38.921 C192.757,38.921 192.956,38.723 192.956,38.479 L192.956,37.434 C192.956,37.19 193.145,36.93 193.373,36.851 L193.846,36.657 C194.063,36.549 194.381,36.6 194.554,36.772 L195.293,37.512 C195.464,37.683 195.744,37.683 195.918,37.512 L197.061,36.367 C197.234,36.196 197.234,35.915 197.061,35.743 L196.319,35.004 C196.149,34.831 196.099,34.513 196.207,34.297 L196.402,33.823 C196.478,33.592 196.739,33.405 196.982,33.405 L198.031,33.405 C198.271,33.405 198.471,33.206 198.471,32.964 L198.471,31.346 C198.471,31.103 198.271,30.905 198.031,30.905 L198.031,30.905 Z" id="Fill-38" fill="#63B5C3" sketch:type="MSShapeGroup"></path>
            <path d="M103.973,42.261 C103.973,36.712 99.469,32.207 93.916,32.207 C92.724,32.207 91.581,32.426 90.524,32.813 C89.302,27.627 84.658,23.758 79.101,23.758 C72.701,23.758 67.497,28.89 67.37,35.263 C66.802,35.146 66.216,35.082 65.617,35.082 C60.856,35.082 56.997,38.938 56.997,43.7 C56.997,47.596 59.587,50.882 63.131,51.95 C63.844,52.185 64.603,52.318 65.4,52.318 L94.42,52.318 C95.304,52.318 96.156,52.147 96.94,51.852 C101.014,50.573 103.973,46.761 103.973,42.261" id="Fill-39" fill="#FFFFFF" sketch:type="MSShapeGroup"></path>
            <path d="M120.108,36.816 C120.108,31.92 116.135,27.946 111.234,27.946 C110.182,27.946 109.174,28.139 108.242,28.479 C107.163,23.904 103.066,20.49 98.164,20.49 C92.516,20.49 87.923,25.019 87.812,30.641 C87.312,30.539 86.793,30.482 86.265,30.482 C82.065,30.482 78.659,33.884 78.659,38.087 C78.659,41.524 80.943,44.424 84.072,45.366 C84.7,45.573 85.371,45.689 86.073,45.689 L111.679,45.689 C112.459,45.689 113.212,45.539 113.904,45.279 C117.497,44.15 120.108,40.788 120.108,36.816" id="Fill-40" fill="#97CFCE" sketch:type="MSShapeGroup"></path>
            <path d="M94.495,167.655 C92.852,174.371 91.209,181.087 89.568,187.803 L135.562,187.803 C133.918,181.087 132.275,174.371 130.633,167.655 L94.495,167.655" id="Fill-41" fill="#B1C2BF" sketch:type="MSShapeGroup"></path>
            <path d="M138.404,187.448 L86.724,187.448 C85.411,187.448 84.347,188.696 84.347,190.239 L84.347,191.285 L140.781,191.285 L140.781,190.239 C140.781,188.696 139.718,187.448 138.404,187.448" id="Fill-42" fill="#E7E7E2" sketch:type="MSShapeGroup"></path>
            <path d="M34.852,159.813 L34.852,170.915 C34.852,173.054 36.582,174.785 38.721,174.785 L186.407,174.785 C188.544,174.785 190.276,173.054 190.276,170.915 L190.276,159.813 L34.852,159.813" id="Fill-43" fill="#E7E7E2" sketch:type="MSShapeGroup"></path>
            <path d="M190.276,159.813 L190.276,65.794 C190.276,63.654 188.544,61.923 186.407,61.923 L38.721,61.923 C36.582,61.923 34.852,63.654 34.852,65.794 L34.852,159.813 L190.276,159.813" id="Fill-44" fill="#214767" sketch:type="MSShapeGroup"></path>
            <path d="M41.218,67.968 L183.91,67.968 L183.91,153.393 L41.218,153.393 L41.218,67.968 Z" id="Fill-45" fill="#FFFFFF" sketch:type="MSShapeGroup"></path>
            <path d="M56.999,139.318 L63.536,139.318 L63.536,148.034 L56.999,148.034 L56.999,139.318 Z" id="Fill-46" fill="#E6872D" sketch:type="MSShapeGroup"></path>
            <path d="M70.073,131.473 L76.609,131.473 L76.609,148.034 L70.073,148.034 L70.073,131.473 Z" id="Fill-47" fill="#E6872D" sketch:type="MSShapeGroup"></path>
            <path d="M83.147,125.462 L89.684,125.462 L89.684,148.034 L83.147,148.034 L83.147,125.462 Z" id="Fill-48" fill="#E6872D" sketch:type="MSShapeGroup"></path>
            <path d="M96.221,130.898 L102.758,130.898 L102.758,148.034 L96.221,148.034 L96.221,130.898 Z" id="Fill-49" fill="#E6872D" sketch:type="MSShapeGroup"></path>
            <path d="M109.294,111.427 L115.831,111.427 L115.831,148.034 L109.294,148.034 L109.294,111.427 Z" id="Fill-50" fill="#E6872D" sketch:type="MSShapeGroup"></path>
            <path d="M122.368,117.964 L128.905,117.964 L128.905,148.034 L122.368,148.034 L122.368,117.964 Z" id="Fill-51" fill="#E6872D" sketch:type="MSShapeGroup"></path>
            <path d="M135.441,104.455 L141.979,104.455 L141.979,148.034 L135.441,148.034 L135.441,104.455 Z" id="Fill-52" fill="#E6872D" sketch:type="MSShapeGroup"></path>
            <path d="M148.516,92.252 L155.054,92.252 L155.054,148.034 L148.516,148.034 L148.516,92.252 Z" id="Fill-53" fill="#E6872D" sketch:type="MSShapeGroup"></path>
            <path d="M161.59,79.614 L168.127,79.614 L168.127,148.034 L161.59,148.034 L161.59,79.614 Z" id="Fill-54" fill="#E6872D" sketch:type="MSShapeGroup"></path>
            <path d="M50.686,77.927 L77.354,77.927 L77.354,80.468 L50.686,80.468 L50.686,77.927 Z" id="Fill-55" fill="#CB3E2B" sketch:type="MSShapeGroup"></path>
            <path d="M50.686,84.384 L98.885,84.384 L98.885,85.948 L50.686,85.948 L50.686,84.384 Z" id="Fill-56" fill="#97CFCE" sketch:type="MSShapeGroup"></path>
            <path d="M50.686,89.182 L91.648,89.182 L91.648,90.745 L50.686,90.745 L50.686,89.182 Z" id="Fill-57" fill="#97CFCE" sketch:type="MSShapeGroup"></path>
            <path d="M50.686,93.979 L96.078,93.979 L96.078,95.542 L50.686,95.542 L50.686,93.979 Z" id="Fill-58" fill="#97CFCE" sketch:type="MSShapeGroup"></path>
            <path d="M50.686,98.777 L86.013,98.777 L86.013,100.34 L50.686,100.34 L50.686,98.777 Z" id="Fill-59" fill="#97CFCE" sketch:type="MSShapeGroup"></path>
            <path d="M53.302,106.362 L63.671,106.362 L63.671,107.923 L53.302,107.923 L53.302,106.362 Z M50.686,109.426 L66.288,109.426 L66.288,104.861 L50.686,104.861 L50.686,109.426 Z" id="Fill-60" fill="#CB3E2B" sketch:type="MSShapeGroup"></path>
            <path d="M50.105,138.685 C49.874,138.685 49.649,138.572 49.514,138.364 C49.303,138.038 49.396,137.603 49.722,137.392 L86.977,113.258 C87.195,113.116 87.477,113.109 87.702,113.235 L98.839,119.472 L112.541,98.006 C112.646,97.84 112.817,97.726 113.012,97.692 C113.204,97.656 113.405,97.706 113.561,97.827 L125.291,106.85 L163.916,73.532 C164.21,73.279 164.654,73.312 164.907,73.606 C165.161,73.9 165.128,74.344 164.834,74.597 L125.775,108.288 C125.523,108.507 125.152,108.516 124.889,108.313 L113.312,99.409 L99.667,120.787 C99.467,121.101 99.056,121.204 98.731,121.022 L87.385,114.669 L50.486,138.572 C50.368,138.648 50.236,138.685 50.105,138.685" id="Fill-61" fill="#97CFCE" sketch:type="MSShapeGroup"></path>
            <path d="M53.832,137.679 C53.832,139.194 52.604,140.422 51.089,140.422 C49.575,140.422 48.347,139.194 48.347,137.679 C48.347,136.164 49.575,134.936 51.089,134.936 C52.604,134.936 53.832,136.164 53.832,137.679" id="Fill-62" fill="#CB3E2B" sketch:type="MSShapeGroup"></path>
            <path d="M89.682,114.131 C89.682,115.646 88.453,116.874 86.938,116.874 C85.424,116.874 84.195,115.646 84.195,114.131 C84.195,112.616 85.424,111.388 86.938,111.388 C88.453,111.388 89.682,112.616 89.682,114.131" id="Fill-63" fill="#CB3E2B" sketch:type="MSShapeGroup"></path>
            <path d="M101.748,120.223 C101.748,121.738 100.521,122.966 99.005,122.966 C97.49,122.966 96.263,121.738 96.263,120.223 C96.263,118.708 97.49,117.48 99.005,117.48 C100.521,117.48 101.748,118.708 101.748,120.223" id="Fill-64" fill="#CB3E2B" sketch:type="MSShapeGroup"></path>
            <path d="M116.041,98.55 C116.041,100.065 114.813,101.293 113.297,101.293 C111.783,101.293 110.555,100.065 110.555,98.55 C110.555,97.035 111.783,95.807 113.297,95.807 C114.813,95.807 116.041,97.035 116.041,98.55" id="Fill-65" fill="#CB3E2B" sketch:type="MSShapeGroup"></path>
            <path d="M128.576,108.039 C128.576,109.554 127.348,110.782 125.833,110.782 C124.318,110.782 123.09,109.554 123.09,108.039 C123.09,106.524 124.318,105.296 125.833,105.296 C127.348,105.296 128.576,106.524 128.576,108.039" id="Fill-66" fill="#CB3E2B" sketch:type="MSShapeGroup"></path>
            <path d="M167.119,74.065 C167.119,75.58 165.891,76.808 164.375,76.808 C162.861,76.808 161.632,75.58 161.632,74.065 C161.632,72.55 162.861,71.322 164.375,71.322 C165.891,71.322 167.119,72.55 167.119,74.065" id="Fill-67" fill="#CB3E2B" sketch:type="MSShapeGroup"></path>
            <g id="Group-79" transform="translate(34.000000, 61.000000)">
                <mask id="mask-2" sketch:name="Clip 69" fill="white">
                    <use xlink:href="#path-1"></use>
                </mask>
                <g id="Clip-69"></g>
                <path d="M149.91,83.278 L149.91,78.012 C152.194,76.965 154.336,75.591 156.276,73.915 L156.276,81.348 L155.102,80.136 C153.484,81.385 151.743,82.437 149.91,83.278" id="Fill-68" fill="#1A354A" sketch:type="MSShapeGroup" mask="url(#mask-2)"></path>
                <path d="M138.732,85.706 L138.686,85.706 C137.132,85.703 135.608,85.568 134.127,85.311 L134.127,80.039 C135.608,80.296 137.132,80.431 138.686,80.434 L138.734,80.434 C142.653,80.434 146.447,79.599 149.91,78.012 L149.91,83.278 C146.446,84.868 142.653,85.706 138.732,85.706 M127.59,83.286 C125.204,82.194 123.005,80.764 121.054,79.057 L121.054,73.785 C123.005,75.492 125.204,76.922 127.59,78.014 L127.59,83.286 M114.516,70.484 C112.803,66.941 111.845,62.968 111.852,58.776 C111.854,57.903 111.897,57.037 111.98,56.18 C112.293,59.387 113.172,62.432 114.516,65.212 L114.516,70.484" id="Fill-70" fill="#BDC2B9" sketch:type="MSShapeGroup" mask="url(#mask-2)"></path>
                <path d="M121.054,79.057 C118.337,76.68 116.103,73.766 114.516,70.484 L114.516,65.212 C116.103,68.495 118.337,71.408 121.054,73.785 L121.054,79.057" id="Fill-71" fill="#AA6B2F" sketch:type="MSShapeGroup" mask="url(#mask-2)"></path>
                <path d="M134.127,85.311 C131.836,84.913 129.644,84.225 127.59,83.286 L127.59,78.014 C129.644,78.953 131.836,79.642 134.127,80.039 L134.127,85.311" id="Fill-72" fill="#AA6B2F" sketch:type="MSShapeGroup" mask="url(#mask-2)"></path>
                <path d="M47.826,92.575 L0.852,92.575 L0.852,67.291 L7.218,67.291 L7.218,92.393 L47.826,92.393 L47.826,92.575" id="Fill-73" fill="#1A354A" sketch:type="MSShapeGroup" mask="url(#mask-2)"></path>
                <path d="M47.826,92.393 L7.218,92.393 L7.218,67.291 L29.77,67.291 L18.703,74.46 C18.25,74.13 17.692,73.936 17.089,73.936 C15.575,73.936 14.347,75.164 14.347,76.679 C14.347,78.194 15.575,79.422 17.089,79.422 C18.604,79.422 19.832,78.194 19.832,76.679 C19.832,76.28 19.747,75.901 19.594,75.558 L32.356,67.291 L44.168,67.291 C46.186,67.291 47.826,68.93 47.826,70.953 L47.826,92.393 L47.826,92.393 Z M36.073,87.034 L42.609,87.034 L42.609,70.473 L36.073,70.473 L36.073,87.034 Z M22.999,87.034 L29.536,87.034 L29.536,78.318 L22.999,78.318 L22.999,87.034 Z" id="Fill-74" fill="#BDC2B9" sketch:type="MSShapeGroup" mask="url(#mask-2)"></path>
                <path d="M22.999,78.318 L29.536,78.318 L29.536,87.034 L22.999,87.034 L22.999,78.318 Z" id="Fill-75" fill="#AA6B2F" sketch:type="MSShapeGroup" mask="url(#mask-2)"></path>
                <path d="M36.073,70.473 L42.609,70.473 L42.609,87.034 L36.073,87.034 L36.073,70.473 Z" id="Fill-76" fill="#AA6B2F" sketch:type="MSShapeGroup" mask="url(#mask-2)"></path>
                <path d="M19.594,75.558 C19.397,75.119 19.088,74.741 18.703,74.46 L29.77,67.291 L32.356,67.291 L19.594,75.558" id="Fill-77" fill="#709E9A" sketch:type="MSShapeGroup" mask="url(#mask-2)"></path>
                <path d="M17.089,79.422 C15.575,79.422 14.347,78.194 14.347,76.679 C14.347,75.164 15.575,73.936 17.089,73.936 C17.692,73.936 18.25,74.13 18.703,74.46 C19.088,74.741 19.397,75.119 19.594,75.558 C19.747,75.901 19.832,76.28 19.832,76.679 C19.832,78.194 18.604,79.422 17.089,79.422" id="Fill-78" fill="#953228" sketch:type="MSShapeGroup" mask="url(#mask-2)"></path>
            </g>
            <path d="M225.356,167.364 L225.345,167.375 C222.651,170.053 218.296,170.045 215.616,167.352 L194.644,146.278 C191.969,143.588 191.974,139.242 194.655,136.562 L194.667,136.55 C197.358,133.87 201.712,133.88 204.393,136.573 L225.367,157.648 C228.043,160.336 228.036,164.684 225.356,167.364" id="Fill-80" fill="#EA8B2F" sketch:type="MSShapeGroup"></path>
            <path d="M222.362,167.234 C221.33,168.261 219.641,168.256 218.604,167.217 L197.631,146.141 C196.599,145.104 196.6,143.417 197.635,142.383 C198.682,141.343 200.37,141.346 201.405,142.386 L222.378,163.46 C223.411,164.498 223.409,166.185 222.376,167.222 L222.362,167.234" id="Fill-81" fill="#F0A948" sketch:type="MSShapeGroup"></path>
            <path d="M191.748,133.547 L191.747,133.547 C186.649,138.646 179.879,141.447 172.686,141.434 C157.862,141.406 145.827,129.325 145.852,114.504 C145.863,107.35 148.665,100.616 153.735,95.547 C158.83,90.452 165.595,87.653 172.785,87.664 C179.954,87.679 186.702,90.488 191.776,95.58 C196.85,100.674 199.639,107.427 199.626,114.599 C199.613,121.749 196.815,128.478 191.748,133.547" id="Fill-82" fill="#28516C" sketch:type="MSShapeGroup"></path>
            <path d="M172.69,139.911 C165.925,139.9 159.564,137.248 154.777,132.444 C149.991,127.64 147.362,121.27 147.374,114.506 C147.387,107.756 150.028,101.405 154.811,96.621 C159.606,91.826 165.969,89.187 172.732,89.187 L172.78,89.187 L172.773,92.572 L172.732,92.572 C166.872,92.572 161.359,94.859 157.203,99.014 C153.059,103.16 150.77,108.664 150.758,114.512 C150.748,120.372 153.027,125.893 157.175,130.055 C161.323,134.219 166.836,136.517 172.695,136.527 L172.69,139.911" id="Fill-83" fill="#437D9F" sketch:type="MSShapeGroup"></path>
            <path d="M158.599,100.41 C154.825,104.185 152.74,109.197 152.731,114.517 C152.712,125.547 161.668,134.536 172.698,134.555 C178.05,134.564 183.087,132.481 186.883,128.683 L186.885,128.684 C190.657,124.912 192.737,119.906 192.749,114.587 C192.759,109.253 190.683,104.227 186.904,100.435 C183.126,96.645 178.106,94.552 172.771,94.544 C167.425,94.534 162.393,96.618 158.599,100.41" id="Fill-84" fill="#97CFCE" sketch:type="MSShapeGroup"></path>
            <path d="M186.904,100.435 C183.126,96.645 178.106,94.552 172.771,94.544 C171.27,94.541 169.791,94.708 168.359,95.028 C166.183,96.012 164.175,97.39 162.432,99.133 C158.657,102.907 156.571,107.918 156.565,113.24 C156.544,124.27 165.501,133.259 176.531,133.278 C178.037,133.282 179.514,133.113 180.949,132.792 C183.13,131.808 185.138,130.429 186.883,128.683 L186.885,128.684 C190.657,124.912 192.737,119.906 192.749,114.587 C192.759,109.253 190.683,104.227 186.904,100.435" id="Fill-85" fill="#BFDED4" sketch:type="MSShapeGroup"></path>
            <path d="M197.361,139.379 C196.016,140.718 193.838,140.716 192.497,139.368 L188.213,134.946 C186.875,133.603 186.878,131.429 188.217,130.089 L188.225,130.083 C189.569,128.743 191.746,128.747 193.087,130.093 L197.371,134.516 C198.71,135.86 198.706,138.033 197.365,139.372 L197.361,139.379" id="Fill-86" fill="#28516C" sketch:type="MSShapeGroup"></path>
            <g id="Group-92" transform="translate(152.000000, 94.000000)">
                <mask id="mask-4" sketch:name="Clip 88" fill="white">
                    <use xlink:href="#path-3"></use>
                </mask>
                <g id="Clip-88"></g>
                <path d="M5.721,33.757 C2.622,30.238 0.738,25.625 0.731,20.581 C0.73,20.56 0.73,20.538 0.731,20.517 C0.74,15.624 2.503,10.994 5.721,7.345 L5.721,12.55 C4.964,14.67 4.567,16.926 4.565,19.24 C4.56,21.605 4.968,23.875 5.721,25.983 L5.721,33.757" id="Fill-87" fill="#847030" sketch:type="MSShapeGroup" mask="url(#mask-4)"></path>
                <path d="M5.721,25.983 C4.968,23.875 4.56,21.605 4.565,19.24 C4.567,16.926 4.964,14.67 5.721,12.55 L5.721,25.983" id="Fill-89" fill="#A97830" sketch:type="MSShapeGroup" mask="url(#mask-4)"></path>
                <path d="M20.732,40.555 L20.698,40.555 C17.727,40.55 14.906,39.894 12.371,38.722 L12.371,35.121 C15.639,37.642 19.704,39.176 24.119,39.273 L24.119,40.271 C23.011,40.459 21.879,40.555 20.732,40.555 M12.371,3.426 L12.371,2.371 C14.899,1.203 17.663,0.574 20.522,0.545 C19.106,0.56 17.712,0.726 16.359,1.028 C14.951,1.665 13.612,2.466 12.371,3.426 M20.523,0.545 C20.534,0.545 20.545,0.545 20.556,0.544 C20.545,0.545 20.534,0.545 20.523,0.545 M20.6,0.544 L20.615,0.544 L20.6,0.544 M20.668,0.544 L20.673,0.544 L20.668,0.544" id="Fill-90" fill="#847030" sketch:type="MSShapeGroup" mask="url(#mask-4)"></path>
                <path d="M24.119,39.273 C19.704,39.176 15.639,37.642 12.371,35.121 L12.371,3.426 C13.612,2.466 14.951,1.665 16.359,1.028 C17.712,0.726 19.106,0.56 20.522,0.545 L20.523,0.545 C20.534,0.545 20.545,0.545 20.556,0.544 L20.6,0.544 L20.615,0.544 L20.668,0.544 L20.673,0.544 L20.732,0.544 L20.771,0.544 C21.905,0.546 23.023,0.641 24.119,0.828 L24.119,39.273" id="Fill-91" fill="#A97830" sketch:type="MSShapeGroup" mask="url(#mask-4)"></path>
            </g>
            <path d="M81.826,175.131 L24.298,175.131 L24.298,153.575 L34.852,153.575 L34.852,170.915 C34.852,173.054 36.582,174.785 38.721,174.785 L81.826,174.785 L81.826,175.131" id="Fill-93" fill="#B9A15C" sketch:type="MSShapeGroup"></path>
            <path d="M81.826,174.785 L38.721,174.785 C36.582,174.785 34.852,173.054 34.852,170.915 L34.852,159.813 L81.826,159.813 L81.826,174.785" id="Fill-94" fill="#AAAFA7" sketch:type="MSShapeGroup"></path>
            <path d="M34.852,153.575 L81.826,153.575 L81.826,159.813 L34.852,159.813 L34.852,153.575 Z" id="Fill-95" fill="#152835" sketch:type="MSShapeGroup"></path>
            <path d="M74.302,130.049 L24.093,130.049 C22.069,130.049 20.432,131.688 20.432,133.71 L20.432,199.812 C20.432,201.831 22.069,203.469 24.093,203.469 L74.302,203.469 C76.32,203.469 77.96,201.831 77.96,199.812 L77.96,133.71 C77.96,131.688 76.32,130.049 74.302,130.049" id="Fill-96" fill="#214767" sketch:type="MSShapeGroup"></path>
            <path d="M49.196,201.601 C48.383,201.601 47.723,200.943 47.723,200.13 C47.723,199.314 48.383,198.66 49.196,198.66 C50.008,198.66 50.667,199.314 50.667,200.13 C50.667,200.943 50.008,201.601 49.196,201.601" id="Fill-97" fill="#FFFFFF" sketch:type="MSShapeGroup"></path>
            <path d="M26.96,137.144 L71.43,137.144 L71.43,196.372 L26.96,196.372 L26.96,137.144 Z" id="Fill-98" fill="#FFFFFF" sketch:type="MSShapeGroup"></path>
            <path d="M54.745,168.568 C54.473,169.395 54.039,170.145 53.462,170.771 L57.836,176.888 C60.05,174.979 61.639,172.37 62.242,169.397 L54.745,168.568" id="Fill-99" fill="#E69F4C" sketch:type="MSShapeGroup"></path>
            <path d="M50.274,160.816 C52.825,161.344 54.756,163.494 55.01,166.136 L62.498,166.963 L62.511,166.708 C62.511,159.686 57.134,153.929 50.274,153.308 L50.274,160.816" id="Fill-100" fill="#98AD3C" sketch:type="MSShapeGroup"></path>
            <path d="M44.615,162.672 C45.454,161.751 46.56,161.079 47.828,160.816 L47.828,153.308 C43.834,153.67 40.354,155.775 38.136,158.854 L44.615,162.672" id="Fill-101" fill="#36A4A6" sketch:type="MSShapeGroup"></path>
            <path d="M51.479,172.203 C50.735,172.534 49.917,172.723 49.05,172.723 C45.728,172.723 43.033,170.031 43.033,166.708 C43.033,166.031 43.171,165.391 43.377,164.782 L36.894,160.962 C36.068,162.706 35.592,164.649 35.592,166.708 C35.592,174.141 41.617,180.167 49.05,180.167 C51.534,180.167 53.851,179.483 55.847,178.311 L51.479,172.203" id="Fill-102" fill="#E15B2E" sketch:type="MSShapeGroup"></path>
            <path d="M49.502,188.082 L62.318,188.082 L62.318,189.219 L49.502,189.219 L49.502,188.082 Z" id="Fill-103" fill="#B1C2BF" sketch:type="MSShapeGroup"></path>
            <path d="M32.511,184.441 L45.33,184.441 L45.33,185.579 L32.511,185.579 L32.511,184.441 Z" id="Fill-104" fill="#B1C2BF" sketch:type="MSShapeGroup"></path>
            <path d="M29.897,150.651 L42.716,150.651 L42.716,151.788 L29.897,151.788 L29.897,150.651 Z" id="Fill-105" fill="#B1C2BF" sketch:type="MSShapeGroup"></path>
            <path d="M45.354,185.686 L44.81,185.55 L46,180.811 L46.544,180.947 L45.354,185.686" id="Fill-106" fill="#B1C2BF" sketch:type="MSShapeGroup"></path>
            <path d="M43.892,153.498 L42.187,150.933 L42.654,150.623 L44.358,153.188 L43.892,153.498" id="Fill-107" fill="#B1C2BF" sketch:type="MSShapeGroup"></path>
            <path d="M55.554,149.671 L68.372,149.671 L68.372,150.808 L55.554,150.808 L55.554,149.671 Z" id="Fill-108" fill="#B1C2BF" sketch:type="MSShapeGroup"></path>
            <path d="M54.073,153.301 L53.592,153.012 L55.608,149.654 L56.089,149.942 L54.073,153.301" id="Fill-109" fill="#B1C2BF" sketch:type="MSShapeGroup"></path>
            <path d="M61.752,188.386 L58.974,176.65 L59.519,176.521 L62.297,188.258 L61.752,188.386" id="Fill-110" fill="#B1C2BF" sketch:type="MSShapeGroup"></path>
        </g>
    </g>
</svg>