<?xml version="1.0" encoding="UTF-8" standalone="no"?>
<svg width="94px" height="43px" viewBox="0 0 94 43" version="1.1" xmlns="http://www.w3.org/2000/svg" xmlns:xlink="http://www.w3.org/1999/xlink" xmlns:sketch="http://www.bohemiancoding.com/sketch/ns">
    <!-- Generator: Sketch 3.3.3 (12081) - http://www.bohemiancoding.com/sketch -->
    <title>ul-logo-svggrey</title>
    <desc>Created with Sketch.</desc>
    <defs></defs>
    <g id="Page-1" stroke="none" stroke-width="1" fill="none" fill-rule="evenodd" sketch:type="MSPage">
        <g id="Uniqleads_Georgy-business-card-front-final-(updated)_with-bleedmark" sketch:type="MSLayerGroup" transform="translate(-87.000000, -2.000000)">
            <path d="M174.298902,19.4360625 C174.298902,20.1800625 174.982294,20.790375 176.113549,21.844375 C177.926412,23.5513125 179.137961,24.73125 179.137961,27.095 C179.137961,29.5730625 177.837196,31.8283125 175.619294,33.295 C175.221392,33.128375 174.787804,33.0005 174.318529,32.911375 C173.212255,32.702125 171.561765,32.802875 168.838902,32.9714375 C167.845039,33.0315 166.688804,33.10125 165.418373,33.1651875 C165.300608,32.8358125 165.225667,32.4676875 165.225667,32.043375 C165.225667,30.9486875 165.709216,29.7241875 166.556765,28.2361875 C167.766529,29.1080625 169.015549,29.5033125 170.227098,29.5033125 C171.27449,29.5033125 171.838333,28.97825 171.838333,28.1896875 C171.838333,27.4456875 171.071078,26.8315 169.863098,25.6515625 C168.169784,23.94075 167.001059,22.8073125 167.001059,20.5714375 C167.001059,18.5603125 168.250078,16.23725 170.589314,14.574875 C172.482471,13.2166875 174.661118,12.51725 176.918275,12.51725 C179.337804,12.51725 180.588608,13.4375625 180.588608,15.2316875 C180.588608,16.3709375 180.103275,17.5954375 179.175431,18.99625 C178.129824,18.3820625 177.119902,18.03525 176.234882,18.03525 C175.025118,18.03525 174.298902,18.6475 174.298902,19.4360625 M140.195314,29.284375 C140.195314,30.6851875 140.313078,31.869 140.714549,32.9210625 C138.578725,34.0138125 136.805118,34.5834375 135.354471,34.5834375 C133.620118,34.5834375 132.854647,33.8375 132.854647,31.9988125 L132.854647,31.9871875 L132.886765,32.058875 L134.421275,31.0785 L131.759078,25.293125 L135.504353,25.293125 L127.467804,17.3474375 L128.008451,28.920125 L130.278098,26.2425 L132.456745,31.10175 C130.583216,33.78325 128.599059,34.9748125 125.758431,34.9748125 C121.806176,34.9748125 119.065471,31.648125 119.065471,26.393625 C119.065471,22.8073125 120.275235,19.3915 122.491353,16.806875 C124.789549,14.0924375 127.937078,12.559875 131.200588,12.559875 C132.733314,12.559875 134.183961,12.9105625 135.677431,13.6565 C136.805118,13.1295 138.016667,12.955125 139.38702,12.955125 C140.677078,12.955125 141.927882,13.1740625 143.053784,13.6565 C141.039294,20.1335625 140.195314,25.47525 140.195314,29.284375 M98.0623137,16.23725 C96.8953725,22.541875 96.1673725,27.052375 96.1673725,29.8075 C96.1673725,31.082375 96.3297451,32.2623125 96.6509216,33.3550625 C94.7149412,34.1881875 92.8610392,34.5834375 91.1284706,34.5834375 C88.7892353,34.5834375 87.7400588,33.6185625 87.7400588,31.3865625 C87.7400588,30.028375 88.5447843,26.8315 89.4351569,21.666125 C90.482549,15.7121875 91.1284706,11.2481875 91.1284706,8.1385 C91.1284706,6.824875 90.966098,5.600375 90.6841765,4.461125 C92.9413333,3.4981875 94.9165686,2.9285625 96.6116667,2.9285625 C98.8277843,2.9285625 100.000078,3.980625 100.000078,5.8193125 C100.000078,7.52625 99.0294118,10.940125 98.0623137,16.23725 M110.399059,17.729125 C111.648078,17.729125 112.454588,18.51575 112.454588,19.7848125 C112.454588,21.053875 111.528529,21.666125 109.672843,21.666125 C108.584412,21.666125 107.654784,21.5363125 106.810804,21.317375 C107.415686,18.99625 108.745,17.729125 110.399059,17.729125 M110.802314,25.7833125 C116.608471,25.7833125 119.511549,23.77025 119.511549,19.7848125 C119.511549,15.625 116.164176,12.4300625 111.043196,12.4300625 C104.148608,12.4300625 98.7849608,17.98875 98.7849608,25.300875 C98.7849608,31.342 102.617667,35.1085 109.189294,35.1085 C114.351314,35.1085 117.293647,33.1806875 117.293647,30.51275 C117.293647,29.45875 116.810098,28.583 115.841216,27.5348125 C114.351314,28.935625 112.413549,29.679625 110.156392,29.679625 C107.374647,29.679625 105.882961,28.4105625 105.882961,26.134 C105.882961,25.8705 105.882961,25.607 105.924,25.3454375 C107.335392,25.6515625 108.948412,25.7833125 110.802314,25.7833125 M156.478961,24.952125 C155.228157,26.8799375 153.816765,27.796375 152.728333,27.796375 C151.195608,27.796375 150.310588,26.657125 150.310588,24.510375 C150.310588,21.6235 152.285824,19.2616875 154.744608,19.2616875 C155.631412,19.2616875 156.437922,19.47675 157.324725,19.9165625 C157.042804,21.797875 156.760882,23.50675 156.478961,24.952125 M165.793078,14.6620625 C166.640627,10.4150625 167.447137,7.4390625 167.447137,5.732125 C167.447137,3.9360625 166.317667,2.973125 164.13902,2.973125 C162.486745,2.973125 160.51151,3.4981875 158.254353,4.461125 C158.616569,5.5558125 158.734333,6.7376875 158.734333,8.0086875 C158.734333,9.27775 158.579098,11.071875 158.291824,13.4375625 C157.005333,12.9996875 155.793784,12.78075 154.625059,12.78075 C151.03502,12.78075 147.810765,14.311375 145.512569,17.0258125 C143.294667,19.6530625 142.125941,22.937125 142.125941,26.440125 C142.125941,28.2090625 142.448902,29.75325 143.023451,31.032 L144.165412,31.6461875 C145.269902,32.2390625 146.452902,32.6575625 147.684078,32.888125 C149.13651,33.1651875 150.933314,33.33375 153.299314,33.3976875 C154.362765,32.54325 155.338784,31.353625 156.275549,29.7668125 C156.075706,30.72975 155.993627,31.47375 155.993627,31.9988125 C155.993627,32.582 156.088196,33.047 156.254137,33.42675 C158.116961,33.419 160.261706,33.3705625 162.765098,33.275625 C163.025608,33.267875 163.26649,33.2581875 163.523431,33.2485 C163.757176,33.1341875 163.980216,33.0450625 164.221098,32.9210625 C163.817843,31.869 163.69651,30.6851875 163.69651,29.284375 C163.69651,26.440125 164.379902,21.580875 165.793078,14.6620625" id="Fill-14" fill="#DF4F2A" sketch:type="MSShapeGroup"></path>
            <path d="M149.17398,43.4959375 C149.17398,43.7265 149.090118,43.92025 148.924176,44.079125 C148.761804,44.2399375 148.556608,44.319375 148.315725,44.319375 C148.098039,44.319375 147.917824,44.2476875 147.776863,44.102375 C147.635902,43.9570625 147.566314,43.76525 147.566314,43.53275 C147.566314,43.280875 147.643039,43.0755 147.801843,42.9205 C147.955294,42.761625 148.16049,42.6821875 148.412078,42.6821875 C148.649392,42.6821875 148.834961,42.75775 148.968784,42.8991875 C149.102608,43.0445 149.17398,43.242125 149.17398,43.4959375" id="Fill-16" fill="#FFFFFF" sketch:type="MSShapeGroup"></path>
            <path d="M109.189294,34.21725 C103.190431,34.21725 99.6057451,30.8828125 99.6057451,25.300875 C99.6057451,23.285875 100.041118,21.425875 100.811941,19.7925625 C102.806804,19.5484375 104.799882,19.3391875 106.787608,19.1686875 C106.47,19.720875 106.20949,20.3525 106.022137,21.07325 L105.791961,21.9645 L106.619882,22.1815 C107.588765,22.433375 108.586196,22.5593125 109.674627,22.5593125 C112.807882,22.5593125 113.275373,20.821375 113.275373,19.7848125 C113.275373,19.407 113.211137,19.062125 113.111216,18.7424375 C114.940137,18.6494375 116.760137,18.5835625 118.569431,18.5448125 C118.646157,18.9439375 118.692549,19.3546875 118.692549,19.7848125 C118.692549,21.0480625 118.692549,24.894 110.802314,24.894 C108.928784,24.894 107.387137,24.7564375 106.084588,24.471625 L105.258451,24.293375 L105.115706,25.19625 C105.063961,25.5314375 105.063961,25.851125 105.063961,26.134 C105.063961,28.951125 106.919647,30.5689375 110.156392,30.5689375 C112.288647,30.5689375 114.206784,29.93925 115.753784,28.7399375 C116.258745,29.3948125 116.474647,29.93925 116.474647,30.51275 C116.474647,32.7273125 113.546588,34.21725 109.189294,34.21725" id="Fill-24" fill="#DB5F3F" sketch:type="MSShapeGroup"></path>
            <path d="M128.008451,28.920125 L127.524902,18.558375 L128.008451,28.920125" id="Fill-25" fill="#DB5F3F" sketch:type="MSShapeGroup"></path>
            <path d="M125.758431,34.0855 C122.18802,34.0855 119.884471,31.066875 119.884471,26.3955625 C119.884471,23.499 120.724882,20.74775 122.262961,18.5021875 L122.641235,18.5021875 C124.282804,18.5021875 125.908314,18.5235 127.524902,18.558375 L128.008451,28.920125 L130.278098,26.2425 L132.049922,30.1969375 C130.219216,32.9714375 128.417059,34.0855 125.758431,34.0855" id="Fill-26" fill="#DB5F3F" sketch:type="MSShapeGroup"></path>
            <path d="M133.70398,31.53575 L133.705765,31.53575 L134.421275,31.0785 L133.70398,31.53575" id="Fill-27" fill="#DB5F3F" sketch:type="MSShapeGroup"></path>
            <path d="M150.100039,33.2175 C149.193608,33.1341875 148.397804,33.02375 147.684078,32.888125 C148.397804,33.02375 149.193608,33.1341875 150.100039,33.2175" id="Fill-29" fill="#DB5F3F" sketch:type="MSShapeGroup"></path>
            <path d="M157.267627,33.419 C156.910765,33.14 156.816196,32.6730625 156.816196,31.9988125 C156.816196,31.64425 156.85902,31.001 157.07849,29.9625 L155.590373,29.284375 C154.398451,31.2935625 153.199392,32.6033125 151.848667,33.3415 C151.222373,33.3085625 150.642471,33.267875 150.100039,33.2175 C149.193608,33.1341875 148.397804,33.02375 147.684078,32.888125 C146.531412,32.671125 145.421569,32.2855625 144.379529,31.7508125 C143.464176,30.4333125 142.944941,28.6236875 142.944941,26.440125 C142.944941,23.97175 143.556961,21.6486875 144.729255,19.6085 C146.841882,19.81775 148.913471,20.0483125 150.931529,20.29825 C150.041157,21.39875 149.491588,22.879 149.491588,24.510375 C149.491588,27.126 150.699569,28.687625 152.730118,28.687625 C154.207529,28.687625 155.820549,27.5135 157.148078,25.4655625 L157.246216,25.316375 L157.280118,25.1361875 C157.494235,24.0511875 157.713706,22.7685625 157.95102,21.267 C159.895922,21.5615 161.774804,21.8715 163.584098,22.1873125 C163.118392,25.2020625 162.873941,27.594875 162.873941,29.284375 C162.873941,30.55925 162.977431,31.570625 163.205824,32.446375 C162.401098,32.8319375 161.637412,33.1225625 160.918333,33.337625 C159.597941,33.3783125 158.384608,33.4054375 157.267627,33.419" id="Fill-30" fill="#DB5F3F" sketch:type="MSShapeGroup"></path>
            <path d="M166.28198,33.120625 L166.28198,33.120625 C166.549627,33.105125 166.810137,33.0915625 167.06351,33.0760625 C166.810137,33.0915625 166.549627,33.1070625 166.28198,33.120625 M168.904922,32.9675625 C168.987,32.96175 169.070863,32.957875 169.151157,32.9520625 C169.070863,32.957875 168.987,32.96175 168.904922,32.9675625 M174.475549,32.954 L174.318529,32.911375 C174.302471,32.9075 174.286412,32.9055625 174.270353,32.9016875 C174.286412,32.9055625 174.302471,32.9075 174.318529,32.911375 C174.375627,32.923 174.43451,32.934625 174.491608,32.94625 C174.486255,32.9481875 174.480902,32.9520625 174.475549,32.954 M169.295686,32.9443125 C169.320667,32.942375 169.347431,32.9404375 169.372412,32.9385 C169.347431,32.9404375 169.320667,32.942375 169.295686,32.9443125 M169.400961,32.9365625 C169.434863,32.934625 169.468765,32.9326875 169.502667,32.93075 C169.468765,32.9326875 169.434863,32.934625 169.400961,32.9365625 M169.586529,32.9249375 C169.616863,32.923 169.64898,32.9210625 169.681098,32.919125 C169.64898,32.9210625 169.616863,32.923 169.586529,32.9249375 M169.682882,32.919125 C170.906922,32.8455 171.888294,32.795125 172.685882,32.7931875 C171.888294,32.795125 170.906922,32.8455 169.682882,32.919125 M172.700157,32.7931875 L172.698373,32.7931875 L172.700157,32.7931875" id="Fill-31" fill="#DB5F3F" sketch:type="MSShapeGroup"></path>
            <path d="M166.28198,33.120625 C166.048235,32.7466875 166.044667,32.34175 166.044667,32.0414375 C166.044667,31.3633125 166.299824,30.532125 166.847608,29.4568125 C167.928902,30.0806875 169.063725,30.3945625 170.227098,30.3945625 C171.904353,30.3945625 172.659118,29.28825 172.659118,28.191625 C172.659118,27.1511875 171.920412,26.440125 170.892647,25.4539375 L170.412667,24.9889375 L170.330588,24.905625 C169.656118,24.2275 169.117255,23.6753125 168.708647,23.130875 C172.086353,23.7915625 175.153588,24.4580625 177.837196,25.0819375 C178.154804,25.6709375 178.318961,26.2948125 178.318961,27.095 C178.318961,29.5924375 176.834412,31.7081875 174.491608,32.94625 C174.43451,32.934625 174.375627,32.923 174.318529,32.911375 C174.302471,32.9075 174.286412,32.9055625 174.270353,32.9016875 C173.838549,32.826125 173.324667,32.7931875 172.700157,32.7931875 L172.698373,32.7931875 L172.685882,32.7931875 C171.888294,32.795125 170.906922,32.8455 169.682882,32.919125 L169.681098,32.919125 C169.64898,32.9210625 169.616863,32.923 169.586529,32.9249375 C169.55798,32.926875 169.531216,32.9288125 169.502667,32.93075 C169.468765,32.9326875 169.434863,32.934625 169.400961,32.9365625 C169.392039,32.9365625 169.381333,32.9385 169.372412,32.9385 C169.347431,32.9404375 169.320667,32.942375 169.295686,32.9443125 C169.24751,32.94625 169.199333,32.950125 169.151157,32.9520625 C169.070863,32.957875 168.987,32.96175 168.904922,32.9675625 C168.881725,32.9695 168.860314,32.9695 168.838902,32.9714375 C168.292902,33.004375 167.698725,33.0411875 167.06351,33.0760625 C166.810137,33.0915625 166.549627,33.105125 166.28198,33.120625" id="Fill-32" fill="#DB5F3F" sketch:type="MSShapeGroup"></path>
        </g>
    </g>
</svg>