<?xml version="1.0" encoding="UTF-8" standalone="no"?>
<svg width="245px" height="234px" viewBox="0 0 245 234" version="1.1" xmlns="http://www.w3.org/2000/svg" xmlns:xlink="http://www.w3.org/1999/xlink" xmlns:sketch="http://www.bohemiancoding.com/sketch/ns">
    <!-- Generator: Sketch 3.3.3 (12081) - http://www.bohemiancoding.com/sketch -->
    <title>deep-sector</title>
    <desc>Created with Sketch.</desc>
    <defs></defs>
    <g id="Page-1" stroke="none" stroke-width="1" fill="none" fill-rule="evenodd" sketch:type="MSPage">
        <g id="deep-sector" sketch:type="MSLayerGroup">
            <path d="M244.617,116.85 C244.617,181.05 192.572,233.094 128.373,233.094 C64.173,233.094 12.128,181.05 12.128,116.85 C12.128,52.651 64.173,0.606 128.373,0.606 C192.572,0.606 244.617,52.651 244.617,116.85" id="Fill-569" fill="#1C6978" sketch:type="MSShapeGroup"></path>
            <path d="M205.116,60.125 C205.116,73.188 194.527,83.778 181.462,83.778 C168.4,83.778 157.813,73.188 157.813,60.125 C157.813,47.065 168.4,36.474 181.462,36.474 C194.527,36.474 205.116,47.065 205.116,60.125" id="Fill-570" fill="#E5E6E2" sketch:type="MSShapeGroup"></path>
            <path d="M180.561,61.029 L180.561,46.253 C173.321,46.733 167.59,52.741 167.59,60.102 C167.59,67.776 173.812,73.997 181.486,73.997 C188.85,73.997 194.858,68.269 195.335,61.029 L180.561,61.029" id="Fill-571" fill="#E8A62D" sketch:type="MSShapeGroup"></path>
            <path d="M182.953,59.175 L194.424,59.175 C194.108,54.735 191.546,50.908 187.873,48.821 L182.953,59.175" id="Fill-572" fill="#57BEC4" sketch:type="MSShapeGroup"></path>
            <path d="M182.414,47.165 L182.414,55.993 L186.203,48.016 C184.989,47.54 183.72,47.256 182.414,47.165" id="Fill-573" fill="#E15B2E" sketch:type="MSShapeGroup"></path>
            <path d="M209.972,117.642 L158.794,117.642 L158.794,166.448 C158.794,167.055 159.023,167.662 159.492,168.123 C159.951,168.585 160.561,168.817 161.167,168.817 L207.602,168.817 C208.206,168.817 208.815,168.585 209.277,168.123 C209.738,167.662 209.972,167.055 209.972,166.448 L209.972,117.642" id="Fill-574" fill="#B5CCDB" sketch:type="MSShapeGroup"></path>
            <path d="M181.929,128.622 C181.929,128.851 181.744,129.037 181.516,129.037 L164.469,129.037 C164.241,129.037 164.053,128.851 164.053,128.622 L164.053,123.137 C164.053,122.91 164.241,122.724 164.469,122.724 L181.516,122.724 C181.744,122.724 181.929,122.91 181.929,123.137 L181.929,128.622" id="Fill-575" fill="#F3B03E" sketch:type="MSShapeGroup"></path>
            <path d="M172.991,122.724 L164.469,122.724 C164.241,122.724 164.053,122.91 164.053,123.137 L164.053,128.622 C164.053,128.851 164.241,129.037 164.469,129.037 L172.991,129.037 L172.991,122.724" id="Fill-576" fill="#FBD15F" sketch:type="MSShapeGroup"></path>
            <path d="M193.496,128.622 C193.496,128.851 193.31,129.037 193.083,129.037 L187.601,129.037 C187.375,129.037 187.188,128.851 187.188,128.622 L187.188,123.137 C187.188,122.91 187.375,122.724 187.601,122.724 L193.083,122.724 C193.31,122.724 193.496,122.91 193.496,123.137 L193.496,128.622" id="Fill-577" fill="#E36642" sketch:type="MSShapeGroup"></path>
            <path d="M205.061,128.622 C205.061,128.851 204.875,129.037 204.648,129.037 L199.167,129.037 C198.938,129.037 198.753,128.851 198.753,128.622 L198.753,123.137 C198.753,122.91 198.938,122.724 199.167,122.724 L204.648,122.724 C204.875,122.724 205.061,122.91 205.061,123.137 L205.061,128.622" id="Fill-578" fill="#F6FAFC" sketch:type="MSShapeGroup"></path>
            <path d="M170.362,140.191 C170.362,140.417 170.177,140.601 169.949,140.601 L164.469,140.601 C164.241,140.601 164.053,140.417 164.053,140.191 L164.053,134.705 C164.053,134.478 164.241,134.292 164.469,134.292 L169.949,134.292 C170.177,134.292 170.362,134.478 170.362,134.705 L170.362,140.191" id="Fill-579" fill="#F6FAFC" sketch:type="MSShapeGroup"></path>
            <path d="M181.929,140.191 C181.929,140.417 181.744,140.601 181.516,140.601 L176.034,140.601 C175.808,140.601 175.62,140.417 175.62,140.191 L175.62,134.705 C175.62,134.478 175.808,134.292 176.034,134.292 L181.516,134.292 C181.744,134.292 181.929,134.478 181.929,134.705 L181.929,140.191" id="Fill-580" fill="#F6FAFC" sketch:type="MSShapeGroup"></path>
            <path d="M193.496,140.191 C193.496,140.417 193.31,140.601 193.083,140.601 L187.601,140.601 C187.375,140.601 187.188,140.417 187.188,140.191 L187.188,134.705 C187.188,134.478 187.375,134.292 187.601,134.292 L193.083,134.292 C193.31,134.292 193.496,134.478 193.496,134.705 L193.496,140.191" id="Fill-581" fill="#F6FAFC" sketch:type="MSShapeGroup"></path>
            <path d="M205.061,140.191 C205.061,140.417 204.875,140.601 204.648,140.601 L199.167,140.601 C198.938,140.601 198.753,140.417 198.753,140.191 L198.753,134.705 C198.753,134.478 198.938,134.292 199.167,134.292 L204.648,134.292 C204.875,134.292 205.061,134.478 205.061,134.705 L205.061,140.191" id="Fill-582" fill="#F6FAFC" sketch:type="MSShapeGroup"></path>
            <path d="M170.362,151.755 C170.362,151.983 170.177,152.169 169.949,152.169 L164.469,152.169 C164.241,152.169 164.053,151.983 164.053,151.755 L164.053,146.274 C164.053,146.045 164.241,145.859 164.469,145.859 L169.949,145.859 C170.177,145.859 170.362,146.045 170.362,146.274 L170.362,151.755" id="Fill-583" fill="#F6FAFC" sketch:type="MSShapeGroup"></path>
            <path d="M181.929,151.755 C181.929,151.983 181.744,152.169 181.516,152.169 L176.034,152.169 C175.808,152.169 175.62,151.983 175.62,151.755 L175.62,146.274 C175.62,146.045 175.808,145.859 176.034,145.859 L181.516,145.859 C181.744,145.859 181.929,146.045 181.929,146.274 L181.929,151.755" id="Fill-584" fill="#F6FAFC" sketch:type="MSShapeGroup"></path>
            <path d="M193.496,151.755 C193.496,151.983 193.31,152.169 193.083,152.169 L187.601,152.169 C187.375,152.169 187.188,151.983 187.188,151.755 L187.188,146.274 C187.188,146.045 187.375,145.859 187.601,145.859 L193.083,145.859 C193.31,145.859 193.496,146.045 193.496,146.274 L193.496,151.755" id="Fill-585" fill="#1F2D3C" sketch:type="MSShapeGroup"></path>
            <path d="M170.362,163.323 C170.362,163.551 170.177,163.737 169.949,163.737 L164.469,163.737 C164.241,163.737 164.053,163.551 164.053,163.323 L164.053,157.841 C164.053,157.614 164.241,157.427 164.469,157.427 L169.949,157.427 C170.177,157.427 170.362,157.614 170.362,157.841 L170.362,163.323" id="Fill-586" fill="#F6FAFC" sketch:type="MSShapeGroup"></path>
            <path d="M181.929,163.323 C181.929,163.551 181.744,163.737 181.516,163.737 L176.034,163.737 C175.808,163.737 175.62,163.551 175.62,163.323 L175.62,157.841 C175.62,157.614 175.808,157.427 176.034,157.427 L181.516,157.427 C181.744,157.427 181.929,157.614 181.929,157.841 L181.929,163.323" id="Fill-587" fill="#F6FAFC" sketch:type="MSShapeGroup"></path>
            <path d="M193.496,163.323 C193.496,163.551 193.31,163.737 193.083,163.737 L187.601,163.737 C187.375,163.737 187.188,163.551 187.188,163.323 L187.188,157.841 C187.188,157.614 187.375,157.427 187.601,157.427 L193.083,157.427 C193.31,157.427 193.496,157.614 193.496,157.841 L193.496,163.323" id="Fill-588" fill="#1F2D3C" sketch:type="MSShapeGroup"></path>
            <path d="M205.061,163.323 C205.061,163.551 204.875,163.737 204.648,163.737 L199.167,163.737 C198.938,163.737 198.753,163.551 198.753,163.323 L198.753,157.841 C198.753,157.614 198.938,157.427 199.167,157.427 L204.648,157.427 C204.875,157.427 205.061,157.614 205.061,157.841 L205.061,163.323" id="Fill-589" fill="#1F2D3C" sketch:type="MSShapeGroup"></path>
            <path d="M205.061,151.755 C205.061,151.983 204.875,152.169 204.648,152.169 L199.167,152.169 C198.938,152.169 198.753,151.983 198.753,151.755 L198.753,146.274 C198.753,146.045 198.938,145.859 199.167,145.859 L204.648,145.859 C204.875,145.859 205.061,146.045 205.061,146.274 L205.061,151.755" id="Fill-590" fill="#1F2D3C" sketch:type="MSShapeGroup"></path>
            <path d="M209.972,97.234 C209.972,96.626 209.738,96.02 209.277,95.556 C208.815,95.093 208.206,94.862 207.602,94.862 L161.167,94.862 C160.56,94.862 159.951,95.093 159.492,95.556 C159.023,96.02 158.794,96.626 158.794,97.234 L158.794,117.642 L209.972,117.642 L209.972,97.234" id="Fill-591" fill="#9EA1A0" sketch:type="MSShapeGroup"></path>
            <path d="M164.469,113.549 C164.093,113.549 163.744,113.403 163.478,113.139 C163.214,112.874 163.068,112.525 163.068,112.149 L163.068,100.357 C163.068,99.985 163.214,99.633 163.478,99.369 C163.744,99.106 164.093,98.958 164.469,98.958 L204.648,98.958 C205.025,98.958 205.377,99.106 205.642,99.373 C205.902,99.633 206.048,99.985 206.048,100.357 L206.048,112.149 C206.048,112.525 205.902,112.874 205.638,113.139 C205.377,113.4 205.025,113.549 204.648,113.549 L164.469,113.549" id="Fill-592" fill="#797B79" sketch:type="MSShapeGroup"></path>
            <path d="M164.469,99.945 C164.362,99.945 164.256,99.985 164.174,100.067 C164.093,100.146 164.053,100.253 164.053,100.357 L164.053,112.149 C164.053,112.254 164.093,112.36 164.174,112.441 C164.256,112.522 164.362,112.564 164.469,112.564 L204.648,112.564 C204.753,112.564 204.86,112.522 204.941,112.441 C205.022,112.36 205.061,112.254 205.061,112.149 L205.061,100.357 C205.061,100.253 205.022,100.146 204.941,100.067 C204.86,99.985 204.753,99.945 204.648,99.945 L164.469,99.945" id="Fill-593" fill="#55BDC1" sketch:type="MSShapeGroup"></path>
            <path d="M184.558,112.564 L164.469,112.564 C164.362,112.564 164.256,112.522 164.174,112.441 C164.093,112.36 164.053,112.254 164.053,112.149 L164.053,100.357 C164.053,100.253 164.093,100.146 164.174,100.067 C164.256,99.985 164.362,99.945 164.469,99.945 L184.558,99.945 L184.558,112.564" id="Fill-594" fill="#77C8CE" sketch:type="MSShapeGroup"></path>
            <path d="M158.794,116.657 L209.972,116.657 L209.972,117.642 L158.794,117.642 L158.794,116.657 Z" id="Fill-595" fill="#797B79" sketch:type="MSShapeGroup"></path>
            <path d="M145.865,168.817 L145.865,42.51 C145.865,36.3 140.824,31.262 134.619,31.262 L51.002,31.262 L51.002,168.817 L145.865,168.817" id="Fill-596" fill="#F6FAFC" sketch:type="MSShapeGroup"></path>
            <path d="M61.179,114.701 L84.764,114.701 L84.764,133.323 L61.179,133.323 L61.179,114.701 Z" id="Fill-597" fill="#4D5F70" sketch:type="MSShapeGroup"></path>
            <path d="M89.698,114.701 L135.689,114.701 L135.689,116.839 L89.698,116.839 L89.698,114.701 Z" id="Fill-598" fill="#B5CCDB" sketch:type="MSShapeGroup"></path>
            <path d="M89.698,120.045 L135.689,120.045 L135.689,122.184 L89.698,122.184 L89.698,120.045 Z" id="Fill-599" fill="#B5CCDB" sketch:type="MSShapeGroup"></path>
            <path d="M89.698,125.39 L112.692,125.39 L112.692,127.528 L89.698,127.528 L89.698,125.39 Z" id="Fill-600" fill="#B5CCDB" sketch:type="MSShapeGroup"></path>
            <path d="M61.179,140.268 L135.689,140.268 L135.689,142.405 L61.179,142.405 L61.179,140.268 Z" id="Fill-601" fill="#4D5F70" sketch:type="MSShapeGroup"></path>
            <path d="M61.179,145.611 L135.689,145.611 L135.689,147.749 L61.179,147.749 L61.179,145.611 Z" id="Fill-602" fill="#B5CCDB" sketch:type="MSShapeGroup"></path>
            <path d="M61.179,150.956 L98.434,150.956 L98.434,153.094 L61.179,153.094 L61.179,150.956 Z" id="Fill-603" fill="#B5CCDB" sketch:type="MSShapeGroup"></path>
            <path d="M64.51,95.446 L76.375,95.446 L76.375,106.857 L64.51,106.857 L64.51,95.446 Z" id="Fill-604" fill="#B5CCDB" sketch:type="MSShapeGroup"></path>
            <path d="M80.71,95.446 L92.57,95.446 L92.57,103.303 L80.71,103.303 L80.71,95.446 Z" id="Fill-605" fill="#B5CCDB" sketch:type="MSShapeGroup"></path>
            <path d="M96.907,95.446 L108.765,95.446 L108.765,101.982 L96.907,101.982 L96.907,95.446 Z" id="Fill-606" fill="#B5CCDB" sketch:type="MSShapeGroup"></path>
            <path d="M113.102,95.446 L124.966,95.446 L124.966,105.929 L113.102,105.929 L113.102,95.446 Z" id="Fill-607" fill="#B5CCDB" sketch:type="MSShapeGroup"></path>
            <path d="M64.51,63.809 L66.68,63.809 L66.68,95.082 L64.51,95.082 L64.51,63.809 Z" id="Fill-608" fill="#CCE0EA" sketch:type="MSShapeGroup"></path>
            <path d="M67.747,51.752 L69.908,51.752 L69.908,95.082 L67.747,95.082 L67.747,51.752 Z" id="Fill-609" fill="#55BDC1" sketch:type="MSShapeGroup"></path>
            <path d="M70.975,67.921 L73.146,67.921 L73.146,95.082 L70.975,95.082 L70.975,67.921 Z" id="Fill-610" fill="#273B4E" sketch:type="MSShapeGroup"></path>
            <path d="M74.208,58.97 L76.375,58.97 L76.375,95.082 L74.208,95.082 L74.208,58.97 Z" id="Fill-611" fill="#E36642" sketch:type="MSShapeGroup"></path>
            <path d="M80.71,86.19 L82.874,86.19 L82.874,95.082 L80.71,95.082 L80.71,86.19 Z" id="Fill-612" fill="#CCE0EA" sketch:type="MSShapeGroup"></path>
            <path d="M83.943,74.861 L86.108,74.861 L86.108,95.082 L83.943,95.082 L83.943,74.861 Z" id="Fill-613" fill="#55BDC1" sketch:type="MSShapeGroup"></path>
            <path d="M87.173,78.613 L89.341,78.613 L89.341,95.082 L87.173,95.082 L87.173,78.613 Z" id="Fill-614" fill="#273B4E" sketch:type="MSShapeGroup"></path>
            <path d="M90.405,65.252 L92.57,65.252 L92.57,95.082 L90.405,95.082 L90.405,65.252 Z" id="Fill-615" fill="#E36642" sketch:type="MSShapeGroup"></path>
            <path d="M96.907,84.441 L99.072,84.441 L99.072,95.082 L96.907,95.082 L96.907,84.441 Z" id="Fill-616" fill="#CCE0EA" sketch:type="MSShapeGroup"></path>
            <path d="M100.139,86.348 L102.304,86.348 L102.304,95.082 L100.139,95.082 L100.139,86.348 Z" id="Fill-617" fill="#55BDC1" sketch:type="MSShapeGroup"></path>
            <path d="M103.368,70.258 L105.537,70.258 L105.537,95.082 L103.368,95.082 L103.368,70.258 Z" id="Fill-618" fill="#273B4E" sketch:type="MSShapeGroup"></path>
            <path d="M106.606,77.827 L108.765,77.827 L108.765,95.082 L106.606,95.082 L106.606,77.827 Z" id="Fill-619" fill="#E36642" sketch:type="MSShapeGroup"></path>
            <path d="M113.102,55.251 L115.271,55.251 L115.271,95.082 L113.102,95.082 L113.102,55.251 Z" id="Fill-620" fill="#CCE0EA" sketch:type="MSShapeGroup"></path>
            <path d="M116.334,67.764 L118.503,67.764 L118.503,95.082 L116.334,95.082 L116.334,67.764 Z" id="Fill-621" fill="#55BDC1" sketch:type="MSShapeGroup"></path>
            <path d="M119.568,79.839 L121.732,79.839 L121.732,95.082 L119.568,95.082 L119.568,79.839 Z" id="Fill-622" fill="#273B4E" sketch:type="MSShapeGroup"></path>
            <path d="M122.801,61.43 L124.966,61.43 L124.966,95.082 L122.801,95.082 L122.801,61.43 Z" id="Fill-623" fill="#E36642" sketch:type="MSShapeGroup"></path>
            <path d="M133.927,61.638 C132.949,61.638 132.159,62.436 132.159,63.406 C132.159,64.387 132.949,65.174 133.927,65.174 C134.902,65.174 135.689,64.387 135.689,63.406 C135.689,62.436 134.902,61.638 133.927,61.638" id="Fill-624" fill="#273B4E" sketch:type="MSShapeGroup"></path>
            <path d="M133.927,71.665 C132.949,71.665 132.159,72.453 132.159,73.433 C132.159,74.404 132.949,75.201 133.927,75.201 C134.902,75.201 135.689,74.404 135.689,73.433 C135.689,72.453 134.902,71.665 133.927,71.665" id="Fill-625" fill="#55BDC1" sketch:type="MSShapeGroup"></path>
            <path d="M133.927,81.696 C132.949,81.696 132.159,82.481 132.159,83.46 C132.159,84.432 132.949,85.219 133.927,85.219 C134.902,85.219 135.689,84.432 135.689,83.46 C135.689,82.481 134.902,81.696 133.927,81.696" id="Fill-626" fill="#CCE0EA" sketch:type="MSShapeGroup"></path>
            <path d="M133.927,91.712 C132.949,91.712 132.159,92.508 132.159,93.479 C132.159,94.45 132.949,95.246 133.927,95.246 C134.902,95.246 135.689,94.45 135.689,93.479 C135.689,92.508 134.902,91.712 133.927,91.712" id="Fill-627" fill="#E36642" sketch:type="MSShapeGroup"></path>
            <path d="M62.436,95.08 L62.436,49.698 L61.179,49.698 L61.179,50.07 L62.063,50.07 L62.063,56.178 L61.179,56.178 L61.179,56.557 L62.063,56.557 L62.063,62.665 L61.179,62.665 L61.179,63.036 L62.063,63.036 L62.063,69.146 L61.179,69.146 L61.179,69.525 L62.063,69.525 L62.063,75.631 L61.179,75.631 L61.179,76.004 L62.063,76.004 L62.063,82.113 L61.179,82.113 L61.179,82.49 L62.063,82.49 L62.063,88.6 L61.179,88.6 L61.179,88.972 L62.063,88.972 L62.063,95.446 L128.465,95.446 L128.465,95.08 L62.436,95.08" id="Fill-628" fill="#4D5F70" sketch:type="MSShapeGroup"></path>
            <path d="M39.753,31.262 C33.547,31.262 28.506,36.3 28.506,42.51 L123.368,42.51 C123.368,36.3 128.408,31.262 134.619,31.262 L39.753,31.262" id="Fill-629" fill="#B5CCDB" sketch:type="MSShapeGroup"></path>
            <path d="M53.638,157.045 C53.638,161.041 50.402,164.283 46.409,164.283 C42.411,164.283 39.175,161.041 39.175,157.045 C39.175,153.053 42.411,149.818 46.409,149.818 C50.402,149.818 53.638,153.053 53.638,157.045" id="Fill-630" fill="#F3B03E" sketch:type="MSShapeGroup"></path>
            <path d="M53.638,156.197 C53.638,160.192 50.402,163.434 46.409,163.434 C42.411,163.434 39.175,160.192 39.175,156.197 C39.175,152.204 42.411,148.969 46.409,148.969 C50.402,148.969 53.638,152.204 53.638,156.197" id="Fill-631" fill="#FBD15F" sketch:type="MSShapeGroup"></path>
            <path d="M46.409,161.613 C43.418,161.613 40.997,159.184 40.997,156.197 C40.997,153.212 43.418,150.782 46.409,150.782 C49.394,150.782 51.825,153.212 51.825,156.197 C51.825,159.184 49.394,161.613 46.409,161.613" id="Fill-632" fill="#F7C248" sketch:type="MSShapeGroup"></path>
            <path d="M41.57,156.779 C41.57,153.796 44.001,151.364 46.983,151.364 C48.333,151.364 49.566,151.859 50.514,152.676 C49.519,151.521 48.046,150.782 46.409,150.782 C43.418,150.782 40.997,153.212 40.997,156.197 C40.997,157.84 41.729,159.312 42.88,160.301 C42.07,159.353 41.57,158.127 41.57,156.779" id="Fill-633" fill="#F3B03E" sketch:type="MSShapeGroup"></path>
            <path d="M76.06,138.62 C76.06,142.615 72.824,145.859 68.829,145.859 C64.832,145.859 61.597,142.615 61.597,138.62 C61.597,134.628 64.832,131.393 68.829,131.393 C72.824,131.393 76.06,134.628 76.06,138.62" id="Fill-634" fill="#F3B03E" sketch:type="MSShapeGroup"></path>
            <path d="M76.06,137.772 C76.06,141.767 72.824,145.009 68.829,145.009 C64.832,145.009 61.597,141.767 61.597,137.772 C61.597,133.78 64.832,130.543 68.829,130.543 C72.824,130.543 76.06,133.78 76.06,137.772" id="Fill-635" fill="#FBD15F" sketch:type="MSShapeGroup"></path>
            <path d="M68.829,143.188 C65.839,143.188 63.418,140.758 63.418,137.772 C63.418,134.787 65.839,132.357 68.829,132.357 C71.816,132.357 74.245,134.787 74.245,137.772 C74.245,140.758 71.816,143.188 68.829,143.188" id="Fill-636" fill="#F7C248" sketch:type="MSShapeGroup"></path>
            <path d="M63.991,138.354 C63.991,135.37 66.422,132.939 69.405,132.939 C70.754,132.939 71.986,133.434 72.935,134.251 C71.94,133.096 70.467,132.357 68.829,132.357 C65.839,132.357 63.418,134.787 63.418,137.772 C63.418,139.415 64.15,140.887 65.301,141.876 C64.491,140.928 63.991,139.702 63.991,138.354" id="Fill-637" fill="#F3B03E" sketch:type="MSShapeGroup"></path>
            <path d="M89.021,187.002 C89.021,190.998 85.786,194.24 81.794,194.24 C77.795,194.24 74.56,190.998 74.56,187.002 C74.56,183.01 77.795,179.775 81.794,179.775 C85.786,179.775 89.021,183.01 89.021,187.002" id="Fill-638" fill="#F3B03E" sketch:type="MSShapeGroup"></path>
            <path d="M89.021,186.154 C89.021,190.149 85.786,193.391 81.794,193.391 C77.795,193.391 74.56,190.149 74.56,186.154 C74.56,182.161 77.795,178.926 81.794,178.926 C85.786,178.926 89.021,182.161 89.021,186.154" id="Fill-639" fill="#FBD15F" sketch:type="MSShapeGroup"></path>
            <path d="M81.794,191.57 C78.804,191.57 76.38,189.141 76.38,186.154 C76.38,183.169 78.804,180.739 81.794,180.739 C84.778,180.739 87.21,183.169 87.21,186.154 C87.21,189.141 84.778,191.57 81.794,191.57" id="Fill-640" fill="#F7C248" sketch:type="MSShapeGroup"></path>
            <path d="M76.955,186.736 C76.955,183.753 79.384,181.321 82.369,181.321 C83.718,181.321 84.95,181.816 85.899,182.633 C84.902,181.478 83.432,180.739 81.794,180.739 C78.804,180.739 76.38,183.169 76.38,186.154 C76.38,187.797 77.114,189.269 78.264,190.258 C77.455,189.31 76.955,188.084 76.955,186.736" id="Fill-641" fill="#F3B03E" sketch:type="MSShapeGroup"></path>
            <path d="M130.011,181.941 L205.177,181.939 C205.034,181.338 204.306,180.866 203.393,180.791 L130.012,180.791 L130.011,181.941" id="Fill-642" fill="#EDA22D" sketch:type="MSShapeGroup"></path>
            <path d="M130.012,178.059 L130.012,180.791 L203.393,180.791 L203.392,180.791 L203.414,180.787 L203.388,180.786 C204.41,180.703 205.202,180.127 205.204,179.425 C205.202,178.724 204.41,178.147 203.388,178.065 L203.414,178.063 L203.392,178.061 L203.392,178.059 L130.012,178.059" id="Fill-643" fill="#F4E5B1" sketch:type="MSShapeGroup"></path>
            <path d="M203.392,178.059 C204.306,177.985 205.035,177.513 205.177,176.911 L130.012,176.911 L130.012,178.059 L203.392,178.059" id="Fill-644" fill="#EDA22D" sketch:type="MSShapeGroup"></path>
            <path d="M205.177,176.908 C205.038,177.511 204.308,177.985 203.392,178.059 L203.392,178.061 L203.414,178.063 L203.388,178.065 C204.41,178.147 205.202,178.724 205.204,179.425 C205.202,180.127 204.41,180.703 203.388,180.786 L203.414,180.787 L203.392,180.791 L203.393,180.791 C204.308,180.866 205.036,181.338 205.177,181.943 L209.992,179.425 L205.177,176.908" id="Fill-645" fill="#E8AC6A" sketch:type="MSShapeGroup"></path>
            <path d="M207.628,180.66 L209.992,179.425 L207.628,178.19 C207.485,178.587 207.405,178.999 207.406,179.425 C207.405,179.851 207.485,180.265 207.628,180.66" id="Fill-646" fill="#172E41" sketch:type="MSShapeGroup"></path>
            <path d="M129.982,181.941 L129.982,180.791 L127.704,180.791 L127.705,181.939 L129.982,181.941" id="Fill-647" fill="#B4262D" sketch:type="MSShapeGroup"></path>
            <path d="M129.982,180.791 L129.982,178.059 L127.705,178.059 L127.704,180.791 L129.982,180.791" id="Fill-648" fill="#E05561" sketch:type="MSShapeGroup"></path>
            <path d="M129.982,178.059 L129.982,176.911 L127.704,176.911 L127.705,178.059 L129.982,178.059" id="Fill-649" fill="#B4262D" sketch:type="MSShapeGroup"></path>
            <path d="M80.047,172.579 L94.163,172.579 C97.179,172.579 99.625,170.135 99.625,167.115 L99.625,165.295 L99.612,165.069 L87.557,165.069 L80.047,172.579" id="Fill-650" fill="#F6C7B4" sketch:type="MSShapeGroup"></path>
            <path d="M82.069,177.286 L91.236,168.115 C92.104,167.246 92.611,166.159 92.775,165.032 L83.697,165.032 L71.444,177.286 L82.069,177.286" id="Fill-651" fill="#F6C7B4" sketch:type="MSShapeGroup"></path>
            <path d="M107.266,153.454 C105.575,153.454 103.882,153.179 102.24,152.628 C102.396,152.68 102.554,152.73 102.71,152.778 C102.554,152.73 102.396,152.68 102.24,152.628 C101.945,152.529 101.652,152.421 101.361,152.305 C98.883,151.31 96.745,149.745 95.09,147.749 L116.425,147.749 C114.854,149.733 112.784,151.365 110.3,152.432 C109.211,152.898 108.084,153.237 106.945,153.447 C105.533,153.418 104.124,153.2 102.746,152.787 C104.228,153.231 105.748,153.453 107.266,153.453 C109.377,153.453 111.483,153.024 113.479,152.168 C111.484,153.025 109.377,153.454 107.266,153.454 M117.853,145.611 L93.599,145.611 C93.28,145.061 92.992,144.488 92.737,143.895 C92.527,143.405 92.342,142.908 92.183,142.405 L119.201,142.405 C118.87,143.519 118.418,144.595 117.853,145.611 M119.678,140.268 L91.668,140.268 C91.524,139.412 91.452,138.547 91.452,137.682 C91.452,135.699 91.832,133.713 92.59,131.814 C93.221,130.235 94.081,128.794 95.137,127.528 L99.145,127.528 C98.089,128.276 97.118,129.16 96.254,130.168 C94.266,132.489 93.024,135.268 92.61,138.215 C93.252,136.444 94.218,134.736 95.482,133.26 C98.221,130.062 102.037,128.119 106.224,127.787 C106.639,127.755 107.052,127.738 107.462,127.738 C108.809,127.738 110.123,127.912 111.38,128.236 L111.35,127.528 L112.692,127.528 L112.692,125.39 L111.258,125.39 L111.238,124.933 C110.265,124.744 109.263,124.644 108.241,124.644 C107.829,124.644 107.414,124.66 106.996,124.694 C105.771,124.791 104.578,125.026 103.435,125.39 L97.307,125.39 C98.421,124.488 99.667,123.735 101.019,123.153 C102.028,122.721 103.065,122.398 104.118,122.184 L104.124,122.184 C103.501,122.31 102.883,122.475 102.272,122.678 C102.887,122.475 103.509,122.31 104.137,122.184 L105.286,122.184 C106.863,122.309 108.432,122.672 109.947,123.28 C113.854,124.848 116.919,127.838 118.576,131.698 C119.778,134.497 120.105,137.456 119.678,140.268 M112.765,122.88 C111.967,122.582 111.154,122.35 110.335,122.184 L110.336,122.184 C111.155,122.35 111.967,122.582 112.765,122.88" id="Fill-652" fill="#F7FBFC" sketch:type="MSShapeGroup"></path>
            <path d="M110.336,122.184 L110.335,122.184 C109.306,121.976 108.267,121.872 107.227,121.872 C106.188,121.872 105.149,121.976 104.124,122.184 L104.118,122.184 C105.143,121.975 106.183,121.871 107.224,121.871 C108.265,121.871 109.306,121.975 110.336,122.184 M105.286,122.184 L104.137,122.184 C104.216,122.168 104.295,122.153 104.374,122.138 C104.678,122.144 104.982,122.16 105.286,122.184" id="Fill-653" fill="#BDD3DF" sketch:type="MSShapeGroup"></path>
            <path d="M112.692,127.528 L111.35,127.528 L111.258,125.39 L112.692,125.39 L112.692,127.528 M99.145,127.528 L95.137,127.528 C95.789,126.746 96.515,126.031 97.307,125.39 L103.435,125.39 C101.902,125.878 100.458,126.598 99.145,127.528" id="Fill-654" fill="#BDD3DF" sketch:type="MSShapeGroup"></path>
            <path d="M119.201,142.405 L92.183,142.405 C91.961,141.702 91.789,140.987 91.668,140.268 L119.678,140.268 C119.568,140.992 119.409,141.706 119.201,142.405" id="Fill-655" fill="#5F6F7E" sketch:type="MSShapeGroup"></path>
            <path d="M116.425,147.749 L95.09,147.749 C94.537,147.083 94.039,146.368 93.599,145.611 L117.853,145.611 C117.437,146.359 116.96,147.074 116.425,147.749" id="Fill-656" fill="#BDD3DF" sketch:type="MSShapeGroup"></path>
            <path d="M102.71,152.778 C102.493,152.711 102.274,152.641 102.058,152.567 C102.274,152.641 102.493,152.711 102.71,152.778" id="Fill-657" fill="#A6D7DE" sketch:type="MSShapeGroup"></path>
            <path d="M102.014,152.549 C101.795,152.473 101.578,152.393 101.361,152.305 C101.578,152.393 101.795,152.473 102.014,152.549" id="Fill-658" fill="#A6D7DE" sketch:type="MSShapeGroup"></path>
            <path d="M107.266,153.453 C105.748,153.453 104.228,153.231 102.746,152.787 C104.124,153.2 105.533,153.418 106.945,153.447 C108.084,153.237 109.211,152.898 110.3,152.432 C112.784,151.365 114.854,149.733 116.425,147.749 L119.393,147.749 C117.849,149.614 115.853,151.15 113.479,152.168 C111.483,153.024 109.377,153.453 107.266,153.453 M120.884,145.611 L117.853,145.611 C118.418,144.595 118.87,143.519 119.201,142.405 L122.301,142.405 C121.949,143.522 121.473,144.598 120.884,145.611 M122.816,140.268 L119.678,140.268 C120.105,137.456 119.778,134.497 118.576,131.698 C116.919,127.838 113.854,124.848 109.947,123.28 C108.432,122.672 106.863,122.309 105.286,122.184 L110.335,122.184 C111.154,122.35 111.967,122.582 112.765,122.88 C112.885,122.925 113.005,122.971 113.124,123.019 C117.031,124.588 120.098,127.578 121.756,131.437 C122.628,133.467 123.039,135.582 123.037,137.663 C123.036,138.54 122.961,139.411 122.816,140.268 M102.272,122.678 C102.883,122.475 103.501,122.31 104.124,122.184 L104.137,122.184 C103.509,122.31 102.887,122.475 102.272,122.678" id="Fill-659" fill="#FDFEFE" sketch:type="MSShapeGroup"></path>
            <path d="M110.335,122.184 L105.286,122.184 C104.982,122.16 104.678,122.144 104.374,122.138 C104.295,122.153 104.216,122.168 104.137,122.184 L104.124,122.184 C105.149,121.976 106.188,121.872 107.227,121.872 C108.267,121.872 109.306,121.976 110.335,122.184" id="Fill-660" fill="#E6F0F3" sketch:type="MSShapeGroup"></path>
            <path d="M122.301,142.405 L119.201,142.405 C119.409,141.706 119.568,140.992 119.678,140.268 L122.816,140.268 C122.694,140.993 122.522,141.707 122.301,142.405" id="Fill-661" fill="#BAC1C5" sketch:type="MSShapeGroup"></path>
            <path d="M119.393,147.749 L116.425,147.749 C116.96,147.074 117.437,146.359 117.853,145.611 L120.884,145.611 C120.448,146.361 119.95,147.076 119.393,147.749" id="Fill-662" fill="#E6F0F3" sketch:type="MSShapeGroup"></path>
            <path d="M102.247,122.688 C102.13,122.727 102.011,122.768 101.893,122.81 C102.011,122.768 102.129,122.727 102.247,122.688" id="Fill-663" fill="#A6D7DE" sketch:type="MSShapeGroup"></path>
            <path d="M101.82,122.836 C101.716,122.875 101.611,122.914 101.507,122.957 C101.611,122.914 101.715,122.874 101.82,122.836" id="Fill-664" fill="#A6D7DE" sketch:type="MSShapeGroup"></path>
            <path d="M101.412,122.993 C101.281,123.044 101.15,123.098 101.019,123.154 C101.15,123.098 101.281,123.044 101.412,122.993" id="Fill-665" fill="#A6D7DE" sketch:type="MSShapeGroup"></path>
            <path d="M97.078,163.315 C98.468,163.871 100.047,163.192 100.603,161.801 L102.341,157.262 C102.893,155.87 102.221,154.295 100.834,153.738 L100.824,153.737 C99.434,153.182 97.854,153.859 97.3,155.251 L95.562,159.789 C95.007,161.179 95.682,162.755 97.071,163.313 L97.078,163.315" id="Fill-666" fill="#152830" sketch:type="MSShapeGroup"></path>
            <path d="M113.479,152.168 C109.598,153.834 105.299,153.882 101.361,152.305 C97.455,150.737 94.392,147.751 92.737,143.895 C91.075,140.026 91.024,135.736 92.59,131.814 C94.157,127.89 97.149,124.817 101.019,123.153 C104.894,121.491 109.193,121.443 113.124,123.019 C117.031,124.588 120.098,127.578 121.756,131.437 C125.19,139.434 121.479,148.735 113.479,152.168 M115.145,117.982 C109.867,115.863 104.091,115.931 98.876,118.167 C93.678,120.401 89.655,124.531 87.551,129.799 C85.449,135.068 85.518,140.834 87.751,146.034 C89.977,151.22 94.092,155.237 99.342,157.341 L99.343,157.343 C104.621,159.462 110.404,159.395 115.619,157.155 C126.367,152.542 131.358,140.041 126.742,129.295 C124.516,124.107 120.397,120.088 115.145,117.982" id="Fill-667" fill="#2C4F61" sketch:type="MSShapeGroup"></path>
            <path d="M103.204,162.609 L93.077,158.545 L80.348,190.262 L90.476,194.325 L103.204,162.609" id="Fill-668" fill="#172E41" sketch:type="MSShapeGroup"></path>
            <path d="M101.107,161.767 L95.174,159.386 L82.446,191.103 L88.377,193.483 L101.107,161.767" id="Fill-669" fill="#2C4F61" sketch:type="MSShapeGroup"></path>
            <path d="M92.428,189.461 L82.301,185.397 L80.348,190.262 L90.476,194.325 L92.428,189.461" id="Fill-670" fill="#152830" sketch:type="MSShapeGroup"></path>
            <path d="M90.331,188.617 L84.399,186.238 L82.446,191.103 L88.377,193.483 L90.331,188.617" id="Fill-671" fill="#1D3F55" sketch:type="MSShapeGroup"></path>
            <path d="M92.61,138.215 C93.024,135.268 94.266,132.489 96.254,130.168 C97.118,129.16 98.089,128.276 99.145,127.528 L111.35,127.528 L111.38,128.236 C110.123,127.912 108.809,127.738 107.462,127.738 C107.052,127.738 106.639,127.755 106.224,127.787 C102.037,128.119 98.221,130.062 95.482,133.26 C94.218,134.736 93.252,136.444 92.61,138.215 M111.258,125.39 L103.435,125.39 C104.578,125.026 105.771,124.791 106.996,124.694 C107.414,124.66 107.829,124.644 108.241,124.644 C109.263,124.644 110.265,124.744 111.238,124.933 L111.258,125.39" id="Fill-672" fill="#FDFEFE" sketch:type="MSShapeGroup"></path>
            <path d="M111.35,127.528 L99.145,127.528 C100.458,126.598 101.902,125.878 103.435,125.39 L111.258,125.39 L111.35,127.528" id="Fill-673" fill="#E6F0F3" sketch:type="MSShapeGroup"></path>
            <path d="M125.261,187.191 C125.261,189.232 123.603,190.889 121.561,190.889 L94.316,190.889 C92.275,190.891 90.618,189.232 90.618,187.191 C90.618,185.148 92.275,183.49 94.316,183.49 L121.561,183.49 C123.603,183.49 125.261,185.148 125.261,187.191" id="Fill-674" fill="#F6C7B4" sketch:type="MSShapeGroup"></path>
            <path d="M78.669,174.286 C73.362,174.286 69.057,178.59 69.059,183.897 L69.059,199.516 C69.057,204.823 73.362,209.127 78.669,209.127 L94.285,209.127 C99.594,209.127 103.897,204.823 103.897,199.516 L103.897,183.897 C103.897,178.589 99.595,174.286 94.285,174.286 L78.669,174.286" id="Fill-675" fill="#F6C7B4" sketch:type="MSShapeGroup"></path>
            <path d="M117.834,205.428 C117.834,207.47 116.178,209.127 114.136,209.127 L96.687,209.127 C94.643,209.127 92.986,207.47 92.986,205.428 C92.986,203.383 94.643,201.728 96.687,201.728 L114.136,201.728 C116.178,201.728 117.834,203.383 117.834,205.428" id="Fill-676" fill="#F6C7B4" sketch:type="MSShapeGroup"></path>
            <path d="M122.733,196.372 C122.733,198.415 121.075,200.073 119.033,200.073 L91.788,200.073 C89.745,200.073 88.087,198.415 88.087,196.372 C88.087,194.329 89.745,192.673 91.788,192.673 L119.033,192.673 C121.075,192.673 122.733,194.329 122.733,196.372" id="Fill-677" fill="#F6C7B4" sketch:type="MSShapeGroup"></path>
            <path d="M121.772,178.007 C121.772,180.051 120.115,181.706 118.073,181.706 L96.414,181.706 C94.371,181.706 92.714,180.051 92.714,178.007 C92.714,175.965 94.371,174.308 96.414,174.308 L118.073,174.308 C120.115,174.308 121.772,175.965 121.772,178.007" id="Fill-678" fill="#F6C7B4" sketch:type="MSShapeGroup"></path>
            <path d="M43.271,205.258 L81.569,205.258 C85.17,205.258 88.087,202.339 88.087,198.738 L88.087,188.144 C88.087,184.544 85.17,181.623 81.569,181.623 L43.271,181.623 L43.271,205.258" id="Fill-679" fill="#F6C7B4" sketch:type="MSShapeGroup"></path>
            <path d="M43.039,179.83 L59.421,179.83 L59.421,211.984 L43.039,211.984 L43.039,179.83 Z" id="Fill-680" fill="#FFFFFF" sketch:type="MSShapeGroup"></path>
            <path d="M0.011,178.618 L53.887,178.618 L53.887,213.194 L0.011,213.194 L0.011,178.618 Z" id="Fill-681" fill="#40BAC5" sketch:type="MSShapeGroup"></path>
            <path d="M47.091,209.486 C46.183,209.486 45.444,208.746 45.444,207.839 C45.444,206.929 46.183,206.193 47.091,206.193 C47.999,206.193 48.737,206.929 48.737,207.839 C48.737,208.746 47.999,209.486 47.091,209.486" id="Fill-682" fill="#172E41" sketch:type="MSShapeGroup"></path>
        </g>
    </g>
</svg>