<?xml version="1.0" encoding="UTF-8" standalone="no"?>
<svg width="500px" height="449px" viewBox="0 0 500 449" version="1.1" xmlns="http://www.w3.org/2000/svg" xmlns:xlink="http://www.w3.org/1999/xlink" xmlns:sketch="http://www.bohemiancoding.com/sketch/ns">
    <!-- Generator: Sketch 3.3.3 (12081) - http://www.bohemiancoding.com/sketch -->
    <title>deep-sector</title>
    <desc>Created with Sketch.</desc>
    <defs></defs>
    <g id="Page-1" stroke="none" stroke-width="1" fill="none" fill-rule="evenodd" sketch:type="MSPage">
        <g id="deep-sector" sketch:type="MSLayerGroup" transform="translate(0.000000, -1.000000)">
            <path d="M499.218367,225.210897 C499.218367,348.946795 393.004082,449.253821 261.985714,449.253821 C130.965306,449.253821 24.7510204,348.946795 24.7510204,225.210897 C24.7510204,101.476927 130.965306,1.16797436 261.985714,1.16797436 C393.004082,1.16797436 499.218367,101.476927 499.218367,225.210897" id="Fill-569" fill="#1C6978" sketch:type="MSShapeGroup"></path>
            <path d="M418.604082,115.881944 C418.604082,141.058923 396.993878,161.469564 370.330612,161.469564 C343.673469,161.469564 322.067347,141.058923 322.067347,115.881944 C322.067347,90.7107479 343.673469,70.2981795 370.330612,70.2981795 C396.993878,70.2981795 418.604082,90.7107479 418.604082,115.881944" id="Fill-570" fill="#E5E6E2" sketch:type="MSShapeGroup"></path>
            <path d="M368.491837,117.624269 L368.491837,89.1457393 C353.716327,90.0708675 342.020408,101.650389 342.020408,115.837615 C342.020408,130.628103 354.718367,142.61815 370.379592,142.61815 C385.408163,142.61815 397.669388,131.578286 398.642857,117.624269 L368.491837,117.624269" id="Fill-571" fill="#E8A62D" sketch:type="MSShapeGroup"></path>
            <path d="M373.373469,114.050962 L396.783673,114.050962 C396.138776,105.493526 390.910204,98.1175556 383.414286,94.0951752 L373.373469,114.050962" id="Fill-572" fill="#57BEC4" sketch:type="MSShapeGroup"></path>
            <path d="M372.273469,90.9034829 L372.273469,107.918132 L380.006122,92.5436581 C377.528571,91.6262393 374.938776,91.0788718 372.273469,90.9034829" id="Fill-573" fill="#E15B2E" sketch:type="MSShapeGroup"></path>
            <path d="M428.514286,226.737359 L324.069388,226.737359 L324.069388,320.803624 C324.069388,321.973526 324.536735,323.143427 325.493878,324.031936 C326.430612,324.922372 327.67551,325.369517 328.912245,325.369517 L423.677551,325.369517 C424.910204,325.369517 426.153061,324.922372 427.095918,324.031936 C428.036735,323.143427 428.514286,321.973526 428.514286,320.803624 L428.514286,226.737359" id="Fill-574" fill="#B5CCDB" sketch:type="MSShapeGroup"></path>
            <path d="M371.283673,247.899667 C371.283673,248.34103 370.906122,248.699517 370.440816,248.699517 L335.65102,248.699517 C335.185714,248.699517 334.802041,248.34103 334.802041,247.899667 L334.802041,237.32815 C334.802041,236.890641 335.185714,236.532154 335.65102,236.532154 L370.440816,236.532154 C370.906122,236.532154 371.283673,236.890641 371.283673,237.32815 L371.283673,247.899667" id="Fill-575" fill="#F3B03E" sketch:type="MSShapeGroup"></path>
            <path d="M353.042857,236.532154 L335.65102,236.532154 C335.185714,236.532154 334.802041,236.890641 334.802041,237.32815 L334.802041,247.899667 C334.802041,248.34103 335.185714,248.699517 335.65102,248.699517 L353.042857,248.699517 L353.042857,236.532154" id="Fill-576" fill="#FBD15F" sketch:type="MSShapeGroup"></path>
            <path d="M394.889796,247.899667 C394.889796,248.34103 394.510204,248.699517 394.046939,248.699517 L382.859184,248.699517 C382.397959,248.699517 382.016327,248.34103 382.016327,247.899667 L382.016327,237.32815 C382.016327,236.890641 382.397959,236.532154 382.859184,236.532154 L394.046939,236.532154 C394.510204,236.532154 394.889796,236.890641 394.889796,237.32815 L394.889796,247.899667" id="Fill-577" fill="#E36642" sketch:type="MSShapeGroup"></path>
            <path d="M418.491837,247.899667 C418.491837,248.34103 418.112245,248.699517 417.64898,248.699517 L406.463265,248.699517 C405.995918,248.699517 405.618367,248.34103 405.618367,247.899667 L405.618367,237.32815 C405.618367,236.890641 405.995918,236.532154 406.463265,236.532154 L417.64898,236.532154 C418.112245,236.532154 418.491837,236.890641 418.491837,237.32815 L418.491837,247.899667" id="Fill-578" fill="#F6FAFC" sketch:type="MSShapeGroup"></path>
            <path d="M347.677551,270.197184 C347.677551,270.632765 347.3,270.987397 346.834694,270.987397 L335.65102,270.987397 C335.185714,270.987397 334.802041,270.632765 334.802041,270.197184 L334.802041,259.623739 C334.802041,259.186231 335.185714,258.827744 335.65102,258.827744 L346.834694,258.827744 C347.3,258.827744 347.677551,259.186231 347.677551,259.623739 L347.677551,270.197184" id="Fill-579" fill="#F6FAFC" sketch:type="MSShapeGroup"></path>
            <path d="M371.283673,270.197184 C371.283673,270.632765 370.906122,270.987397 370.440816,270.987397 L359.253061,270.987397 C358.791837,270.987397 358.408163,270.632765 358.408163,270.197184 L358.408163,259.623739 C358.408163,259.186231 358.791837,258.827744 359.253061,258.827744 L370.440816,258.827744 C370.906122,258.827744 371.283673,259.186231 371.283673,259.623739 L371.283673,270.197184" id="Fill-580" fill="#F6FAFC" sketch:type="MSShapeGroup"></path>
            <path d="M394.889796,270.197184 C394.889796,270.632765 394.510204,270.987397 394.046939,270.987397 L382.859184,270.987397 C382.397959,270.987397 382.016327,270.632765 382.016327,270.197184 L382.016327,259.623739 C382.016327,259.186231 382.397959,258.827744 382.859184,258.827744 L394.046939,258.827744 C394.510204,258.827744 394.889796,259.186231 394.889796,259.623739 L394.889796,270.197184" id="Fill-581" fill="#F6FAFC" sketch:type="MSShapeGroup"></path>
            <path d="M418.491837,270.197184 C418.491837,270.632765 418.112245,270.987397 417.64898,270.987397 L406.463265,270.987397 C405.995918,270.987397 405.618367,270.632765 405.618367,270.197184 L405.618367,259.623739 C405.618367,259.186231 405.995918,258.827744 406.463265,258.827744 L417.64898,258.827744 C418.112245,258.827744 418.491837,259.186231 418.491837,259.623739 L418.491837,270.197184" id="Fill-582" fill="#F6FAFC" sketch:type="MSShapeGroup"></path>
            <path d="M347.677551,292.485064 C347.677551,292.9245 347.3,293.282987 346.834694,293.282987 L335.65102,293.282987 C335.185714,293.282987 334.802041,292.9245 334.802041,292.485064 L334.802041,281.921256 C334.802041,281.479893 335.185714,281.121406 335.65102,281.121406 L346.834694,281.121406 C347.3,281.121406 347.677551,281.479893 347.677551,281.921256 L347.677551,292.485064" id="Fill-583" fill="#F6FAFC" sketch:type="MSShapeGroup"></path>
            <path d="M371.283673,292.485064 C371.283673,292.9245 370.906122,293.282987 370.440816,293.282987 L359.253061,293.282987 C358.791837,293.282987 358.408163,292.9245 358.408163,292.485064 L358.408163,281.921256 C358.408163,281.479893 358.791837,281.121406 359.253061,281.121406 L370.440816,281.121406 C370.906122,281.121406 371.283673,281.479893 371.283673,281.921256 L371.283673,292.485064" id="Fill-584" fill="#F6FAFC" sketch:type="MSShapeGroup"></path>
            <path d="M394.889796,292.485064 C394.889796,292.9245 394.510204,293.282987 394.046939,293.282987 L382.859184,293.282987 C382.397959,293.282987 382.016327,292.9245 382.016327,292.485064 L382.016327,281.921256 C382.016327,281.479893 382.397959,281.121406 382.859184,281.121406 L394.046939,281.121406 C394.510204,281.121406 394.889796,281.479893 394.889796,281.921256 L394.889796,292.485064" id="Fill-585" fill="#1F2D3C" sketch:type="MSShapeGroup"></path>
            <path d="M347.677551,314.780654 C347.677551,315.22009 347.3,315.578577 346.834694,315.578577 L335.65102,315.578577 C335.185714,315.578577 334.802041,315.22009 334.802041,314.780654 L334.802041,304.214919 C334.802041,303.77741 335.185714,303.416996 335.65102,303.416996 L346.834694,303.416996 C347.3,303.416996 347.677551,303.77741 347.677551,304.214919 L347.677551,314.780654" id="Fill-586" fill="#F6FAFC" sketch:type="MSShapeGroup"></path>
            <path d="M371.283673,314.780654 C371.283673,315.22009 370.906122,315.578577 370.440816,315.578577 L359.253061,315.578577 C358.791837,315.578577 358.408163,315.22009 358.408163,314.780654 L358.408163,304.214919 C358.408163,303.77741 358.791837,303.416996 359.253061,303.416996 L370.440816,303.416996 C370.906122,303.416996 371.283673,303.77741 371.283673,304.214919 L371.283673,314.780654" id="Fill-587" fill="#F6FAFC" sketch:type="MSShapeGroup"></path>
            <path d="M394.889796,314.780654 C394.889796,315.22009 394.510204,315.578577 394.046939,315.578577 L382.859184,315.578577 C382.397959,315.578577 382.016327,315.22009 382.016327,314.780654 L382.016327,304.214919 C382.016327,303.77741 382.397959,303.416996 382.859184,303.416996 L394.046939,303.416996 C394.510204,303.416996 394.889796,303.77741 394.889796,304.214919 L394.889796,314.780654" id="Fill-588" fill="#1F2D3C" sketch:type="MSShapeGroup"></path>
            <path d="M418.491837,314.780654 C418.491837,315.22009 418.112245,315.578577 417.64898,315.578577 L406.463265,315.578577 C405.995918,315.578577 405.618367,315.22009 405.618367,314.780654 L405.618367,304.214919 C405.618367,303.77741 405.995918,303.416996 406.463265,303.416996 L417.64898,303.416996 C418.112245,303.416996 418.491837,303.77741 418.491837,304.214919 L418.491837,314.780654" id="Fill-589" fill="#1F2D3C" sketch:type="MSShapeGroup"></path>
            <path d="M418.491837,292.485064 C418.491837,292.9245 418.112245,293.282987 417.64898,293.282987 L406.463265,293.282987 C405.995918,293.282987 405.618367,292.9245 405.618367,292.485064 L405.618367,281.921256 C405.618367,281.479893 405.995918,281.121406 406.463265,281.121406 L417.64898,281.121406 C418.112245,281.121406 418.491837,281.479893 418.491837,281.921256 L418.491837,292.485064" id="Fill-590" fill="#1F2D3C" sketch:type="MSShapeGroup"></path>
            <path d="M428.514286,187.403991 C428.514286,186.232162 428.036735,185.064188 427.095918,184.169897 C426.153061,183.277534 424.910204,182.832316 423.677551,182.832316 L328.912245,182.832316 C327.673469,182.832316 326.430612,183.277534 325.493878,184.169897 C324.536735,185.064188 324.069388,186.232162 324.069388,187.403991 L324.069388,226.737359 L428.514286,226.737359 L428.514286,187.403991" id="Fill-591" fill="#9EA1A0" sketch:type="MSShapeGroup"></path>
            <path d="M335.65102,218.848714 C334.883673,218.848714 334.171429,218.567321 333.628571,218.0585 C333.089796,217.547752 332.791837,216.875107 332.791837,216.150423 L332.791837,193.423107 C332.791837,192.706132 333.089796,192.027705 333.628571,191.518885 C334.171429,191.011991 334.883673,190.726744 335.65102,190.726744 L417.64898,190.726744 C418.418367,190.726744 419.136735,191.011991 419.677551,191.526594 C420.208163,192.027705 420.506122,192.706132 420.506122,193.423107 L420.506122,216.150423 C420.506122,216.875107 420.208163,217.547752 419.669388,218.0585 C419.136735,218.561538 418.418367,218.848714 417.64898,218.848714 L335.65102,218.848714" id="Fill-592" fill="#797B79" sketch:type="MSShapeGroup"></path>
            <path d="M335.65102,192.629038 C335.432653,192.629038 335.216327,192.706132 335.04898,192.864175 C334.883673,193.016436 334.802041,193.222662 334.802041,193.423107 L334.802041,216.150423 C334.802041,216.352795 334.883673,216.557094 335.04898,216.713209 C335.216327,216.869325 335.432653,216.950274 335.65102,216.950274 L417.64898,216.950274 C417.863265,216.950274 418.081633,216.869325 418.246939,216.713209 C418.412245,216.557094 418.491837,216.352795 418.491837,216.150423 L418.491837,193.423107 C418.491837,193.222662 418.412245,193.016436 418.246939,192.864175 C418.081633,192.706132 417.863265,192.629038 417.64898,192.629038 L335.65102,192.629038" id="Fill-593" fill="#55BDC1" sketch:type="MSShapeGroup"></path>
            <path d="M376.64898,216.950274 L335.65102,216.950274 C335.432653,216.950274 335.216327,216.869325 335.04898,216.713209 C334.883673,216.557094 334.802041,216.352795 334.802041,216.150423 L334.802041,193.423107 C334.802041,193.222662 334.883673,193.016436 335.04898,192.864175 C335.216327,192.706132 335.432653,192.629038 335.65102,192.629038 L376.64898,192.629038 L376.64898,216.950274" id="Fill-594" fill="#77C8CE" sketch:type="MSShapeGroup"></path>
            <path d="M324.069388,224.838919 L428.514286,224.838919 L428.514286,226.737359 L324.069388,226.737359 L324.069388,224.838919 Z" id="Fill-595" fill="#797B79" sketch:type="MSShapeGroup"></path>
            <path d="M297.683673,325.369517 L297.683673,81.9316667 C297.683673,69.9628205 287.395918,60.2528291 274.732653,60.2528291 L104.085714,60.2528291 L104.085714,325.369517 L297.683673,325.369517" id="Fill-596" fill="#F6FAFC" sketch:type="MSShapeGroup"></path>
            <path d="M124.855102,221.069021 L172.987755,221.069021 L172.987755,256.960141 L124.855102,256.960141 L124.855102,221.069021 Z" id="Fill-597" fill="#4D5F70" sketch:type="MSShapeGroup"></path>
            <path d="M183.057143,221.069021 L276.916327,221.069021 L276.916327,225.189697 L183.057143,225.189697 L183.057143,221.069021 Z" id="Fill-598" fill="#B5CCDB" sketch:type="MSShapeGroup"></path>
            <path d="M183.057143,231.368782 L276.916327,231.368782 L276.916327,235.491385 L183.057143,235.491385 L183.057143,231.368782 Z" id="Fill-599" fill="#B5CCDB" sketch:type="MSShapeGroup"></path>
            <path d="M183.057143,241.67047 L229.983673,241.67047 L229.983673,245.791145 L183.057143,245.791145 L183.057143,241.67047 Z" id="Fill-600" fill="#B5CCDB" sketch:type="MSShapeGroup"></path>
            <path d="M124.855102,270.34559 L276.916327,270.34559 L276.916327,274.464338 L124.855102,274.464338 L124.855102,270.34559 Z" id="Fill-601" fill="#4D5F70" sketch:type="MSShapeGroup"></path>
            <path d="M124.855102,280.643423 L276.916327,280.643423 L276.916327,284.764098 L124.855102,284.764098 L124.855102,280.643423 Z" id="Fill-602" fill="#B5CCDB" sketch:type="MSShapeGroup"></path>
            <path d="M124.855102,290.945111 L200.885714,290.945111 L200.885714,295.065786 L124.855102,295.065786 L124.855102,290.945111 Z" id="Fill-603" fill="#B5CCDB" sketch:type="MSShapeGroup"></path>
            <path d="M131.653061,183.957889 L155.867347,183.957889 L155.867347,205.950885 L131.653061,205.950885 L131.653061,183.957889 Z" id="Fill-604" fill="#B5CCDB" sketch:type="MSShapeGroup"></path>
            <path d="M164.714286,183.957889 L188.918367,183.957889 L188.918367,199.101081 L164.714286,199.101081 L164.714286,183.957889 Z" id="Fill-605" fill="#B5CCDB" sketch:type="MSShapeGroup"></path>
            <path d="M197.769388,183.957889 L221.969388,183.957889 L221.969388,196.555051 L197.769388,196.555051 L197.769388,183.957889 Z" id="Fill-606" fill="#B5CCDB" sketch:type="MSShapeGroup"></path>
            <path d="M230.820408,183.957889 L255.032653,183.957889 L255.032653,204.162303 L230.820408,204.162303 L230.820408,183.957889 Z" id="Fill-607" fill="#B5CCDB" sketch:type="MSShapeGroup"></path>
            <path d="M131.653061,122.982303 L136.081633,122.982303 L136.081633,183.256333 L131.653061,183.256333 L131.653061,122.982303 Z" id="Fill-608" fill="#CCE0EA" sketch:type="MSShapeGroup"></path>
            <path d="M138.259184,99.7442393 L142.669388,99.7442393 L142.669388,183.256333 L138.259184,183.256333 L138.259184,99.7442393 Z" id="Fill-609" fill="#55BDC1" sketch:type="MSShapeGroup"></path>
            <path d="M144.846939,130.907568 L149.277551,130.907568 L149.277551,183.256333 L144.846939,183.256333 L144.846939,130.907568 Z" id="Fill-610" fill="#273B4E" sketch:type="MSShapeGroup"></path>
            <path d="M151.444898,113.655855 L155.867347,113.655855 L155.867347,183.256333 L151.444898,183.256333 L151.444898,113.655855 Z" id="Fill-611" fill="#E36642" sketch:type="MSShapeGroup"></path>
            <path d="M164.714286,166.118333 L169.130612,166.118333 L169.130612,183.256333 L164.714286,183.256333 L164.714286,166.118333 Z" id="Fill-612" fill="#CCE0EA" sketch:type="MSShapeGroup"></path>
            <path d="M171.312245,144.28338 L175.730612,144.28338 L175.730612,183.256333 L171.312245,183.256333 L171.312245,144.28338 Z" id="Fill-613" fill="#55BDC1" sketch:type="MSShapeGroup"></path>
            <path d="M177.904082,151.514799 L182.328571,151.514799 L182.328571,183.256333 L177.904082,183.256333 L177.904082,151.514799 Z" id="Fill-614" fill="#273B4E" sketch:type="MSShapeGroup"></path>
            <path d="M184.5,125.76347 L188.918367,125.76347 L188.918367,183.256333 L184.5,183.256333 L184.5,125.76347 Z" id="Fill-615" fill="#E36642" sketch:type="MSShapeGroup"></path>
            <path d="M197.769388,162.747397 L202.187755,162.747397 L202.187755,183.256333 L197.769388,183.256333 L197.769388,162.747397 Z" id="Fill-616" fill="#CCE0EA" sketch:type="MSShapeGroup"></path>
            <path d="M204.365306,166.422855 L208.783673,166.422855 L208.783673,183.256333 L204.365306,183.256333 L204.365306,166.422855 Z" id="Fill-617" fill="#55BDC1" sketch:type="MSShapeGroup"></path>
            <path d="M210.955102,135.411786 L215.381633,135.411786 L215.381633,183.256333 L210.955102,183.256333 L210.955102,135.411786 Z" id="Fill-618" fill="#273B4E" sketch:type="MSShapeGroup"></path>
            <path d="M217.563265,149.999902 L221.969388,149.999902 L221.969388,183.256333 L217.563265,183.256333 L217.563265,149.999902 Z" id="Fill-619" fill="#E36642" sketch:type="MSShapeGroup"></path>
            <path d="M230.820408,106.488038 L235.246939,106.488038 L235.246939,183.256333 L230.820408,183.256333 L230.820408,106.488038 Z" id="Fill-620" fill="#CCE0EA" sketch:type="MSShapeGroup"></path>
            <path d="M237.416327,130.604974 L241.842857,130.604974 L241.842857,183.256333 L237.416327,183.256333 L237.416327,130.604974 Z" id="Fill-621" fill="#55BDC1" sketch:type="MSShapeGroup"></path>
            <path d="M244.016327,153.877731 L248.432653,153.877731 L248.432653,183.256333 L244.016327,183.256333 L244.016327,153.877731 Z" id="Fill-622" fill="#273B4E" sketch:type="MSShapeGroup"></path>
            <path d="M250.614286,118.397137 L255.032653,118.397137 L255.032653,183.256333 L250.614286,183.256333 L250.614286,118.397137 Z" id="Fill-623" fill="#E36642" sketch:type="MSShapeGroup"></path>
            <path d="M273.320408,118.798026 C271.32449,118.798026 269.712245,120.336051 269.712245,122.205581 C269.712245,124.096312 271.32449,125.613137 273.320408,125.613137 C275.310204,125.613137 276.916327,124.096312 276.916327,122.205581 C276.916327,120.336051 275.310204,118.798026 273.320408,118.798026" id="Fill-624" fill="#273B4E" sketch:type="MSShapeGroup"></path>
            <path d="M273.320408,138.123568 C271.32449,138.123568 269.712245,139.642321 269.712245,141.531124 C269.712245,143.402581 271.32449,144.938679 273.320408,144.938679 C275.310204,144.938679 276.916327,143.402581 276.916327,141.531124 C276.916327,139.642321 275.310204,138.123568 273.320408,138.123568" id="Fill-625" fill="#55BDC1" sketch:type="MSShapeGroup"></path>
            <path d="M273.320408,157.456821 C271.32449,157.456821 269.712245,158.969791 269.712245,160.856667 C269.712245,162.730051 271.32449,164.246876 273.320408,164.246876 C275.310204,164.246876 276.916327,162.730051 276.916327,160.856667 C276.916327,158.969791 275.310204,157.456821 273.320408,157.456821" id="Fill-626" fill="#CCE0EA" sketch:type="MSShapeGroup"></path>
            <path d="M273.320408,176.761162 C271.32449,176.761162 269.712245,178.295333 269.712245,180.166791 C269.712245,182.038248 271.32449,183.572419 273.320408,183.572419 C275.310204,183.572419 276.916327,182.038248 276.916327,180.166791 C276.916327,178.295333 275.310204,176.761162 273.320408,176.761162" id="Fill-627" fill="#E36642" sketch:type="MSShapeGroup"></path>
            <path d="M127.420408,183.252479 L127.420408,95.7854615 L124.855102,95.7854615 L124.855102,96.5024359 L126.659184,96.5024359 L126.659184,108.274692 L124.855102,108.274692 L124.855102,109.005158 L126.659184,109.005158 L126.659184,120.777415 L124.855102,120.777415 L124.855102,121.492462 L126.659184,121.492462 L126.659184,133.268573 L124.855102,133.268573 L124.855102,133.999038 L126.659184,133.999038 L126.659184,145.76744 L124.855102,145.76744 L124.855102,146.486342 L126.659184,146.486342 L126.659184,158.260526 L124.855102,158.260526 L124.855102,158.987137 L126.659184,158.987137 L126.659184,170.763248 L124.855102,170.763248 L124.855102,171.480222 L126.659184,171.480222 L126.659184,183.957889 L262.173469,183.957889 L262.173469,183.252479 L127.420408,183.252479" id="Fill-628" fill="#4D5F70" sketch:type="MSShapeGroup"></path>
            <path d="M81.1285714,60.2528291 C68.4632653,60.2528291 58.1755102,69.9628205 58.1755102,81.9316667 L251.771429,81.9316667 C251.771429,69.9628205 262.057143,60.2528291 274.732653,60.2528291 L81.1285714,60.2528291" id="Fill-629" fill="#B5CCDB" sketch:type="MSShapeGroup"></path>
            <path d="M109.465306,302.680748 C109.465306,310.38244 102.861224,316.63091 94.7122449,316.63091 C86.5530612,316.63091 79.9489796,310.38244 79.9489796,302.680748 C79.9489796,294.986765 86.5530612,288.751786 94.7122449,288.751786 C102.861224,288.751786 109.465306,294.986765 109.465306,302.680748" id="Fill-630" fill="#F3B03E" sketch:type="MSShapeGroup"></path>
            <path d="M109.465306,301.046355 C109.465306,308.74612 102.861224,314.99459 94.7122449,314.99459 C86.5530612,314.99459 79.9489796,308.74612 79.9489796,301.046355 C79.9489796,293.350444 86.5530612,287.115466 94.7122449,287.115466 C102.861224,287.115466 109.465306,293.350444 109.465306,301.046355" id="Fill-631" fill="#FBD15F" sketch:type="MSShapeGroup"></path>
            <path d="M94.7122449,311.484885 C88.6081633,311.484885 83.6673469,306.80335 83.6673469,301.046355 C83.6673469,295.293214 88.6081633,290.609752 94.7122449,290.609752 C100.804082,290.609752 105.765306,295.293214 105.765306,301.046355 C105.765306,306.80335 100.804082,311.484885 94.7122449,311.484885" id="Fill-632" fill="#F7C248" sketch:type="MSShapeGroup"></path>
            <path d="M84.8367347,302.168073 C84.8367347,296.418786 89.7979592,291.73147 95.8836735,291.73147 C98.6387755,291.73147 101.155102,292.685509 103.089796,294.260154 C101.059184,292.034064 98.0530612,290.609752 94.7122449,290.609752 C88.6081633,290.609752 83.6673469,295.293214 83.6673469,301.046355 C83.6673469,304.212991 85.1612245,307.050051 87.5102041,308.956201 C85.8571429,307.129073 84.8367347,304.766141 84.8367347,302.168073" id="Fill-633" fill="#F3B03E" sketch:type="MSShapeGroup"></path>
            <path d="M155.22449,267.169316 C155.22449,274.869081 148.620408,281.121406 140.467347,281.121406 C132.310204,281.121406 125.708163,274.869081 125.708163,267.169316 C125.708163,259.475333 132.310204,253.240355 140.467347,253.240355 C148.620408,253.240355 155.22449,259.475333 155.22449,267.169316" id="Fill-634" fill="#F3B03E" sketch:type="MSShapeGroup"></path>
            <path d="M155.22449,265.534923 C155.22449,273.234688 148.620408,279.483158 140.467347,279.483158 C132.310204,279.483158 125.708163,273.234688 125.708163,265.534923 C125.708163,257.84094 132.310204,251.602107 140.467347,251.602107 C148.620408,251.602107 155.22449,257.84094 155.22449,265.534923" id="Fill-635" fill="#FBD15F" sketch:type="MSShapeGroup"></path>
            <path d="M140.467347,275.973453 C134.365306,275.973453 129.42449,271.289991 129.42449,265.534923 C129.42449,259.781782 134.365306,255.098321 140.467347,255.098321 C146.563265,255.098321 151.520408,259.781782 151.520408,265.534923 C151.520408,271.289991 146.563265,275.973453 140.467347,275.973453" id="Fill-636" fill="#F7C248" sketch:type="MSShapeGroup"></path>
            <path d="M130.593878,266.656641 C130.593878,260.905427 135.555102,256.220038 141.642857,256.220038 C144.395918,256.220038 146.910204,257.174077 148.846939,258.748722 C146.816327,256.522632 143.810204,255.098321 140.467347,255.098321 C134.365306,255.098321 129.42449,259.781782 129.42449,265.534923 C129.42449,268.70156 130.918367,271.53862 133.267347,273.444769 C131.614286,271.617641 130.593878,269.254709 130.593878,266.656641" id="Fill-637" fill="#F3B03E" sketch:type="MSShapeGroup"></path>
            <path d="M181.67551,360.418385 C181.67551,368.120077 175.073469,374.368547 166.926531,374.368547 C158.765306,374.368547 152.163265,368.120077 152.163265,360.418385 C152.163265,352.724402 158.765306,346.489423 166.926531,346.489423 C175.073469,346.489423 181.67551,352.724402 181.67551,360.418385" id="Fill-638" fill="#F3B03E" sketch:type="MSShapeGroup"></path>
            <path d="M181.67551,358.783991 C181.67551,366.483756 175.073469,372.732226 166.926531,372.732226 C158.765306,372.732226 152.163265,366.483756 152.163265,358.783991 C152.163265,351.088081 158.765306,344.853103 166.926531,344.853103 C175.073469,344.853103 181.67551,351.088081 181.67551,358.783991" id="Fill-639" fill="#FBD15F" sketch:type="MSShapeGroup"></path>
            <path d="M166.926531,369.222521 C160.82449,369.222521 155.877551,364.540987 155.877551,358.783991 C155.877551,353.03085 160.82449,348.347389 166.926531,348.347389 C173.016327,348.347389 177.979592,353.03085 177.979592,358.783991 C177.979592,364.540987 173.016327,369.222521 166.926531,369.222521" id="Fill-640" fill="#F7C248" sketch:type="MSShapeGroup"></path>
            <path d="M157.05102,359.905709 C157.05102,354.156423 162.008163,349.469107 168.1,349.469107 C170.853061,349.469107 173.367347,350.423145 175.304082,351.997791 C173.269388,349.771701 170.269388,348.347389 166.926531,348.347389 C160.82449,348.347389 155.877551,353.03085 155.877551,358.783991 C155.877551,361.950628 157.37551,364.787688 159.722449,366.693838 C158.071429,364.866709 157.05102,362.503778 157.05102,359.905709" id="Fill-641" fill="#F3B03E" sketch:type="MSShapeGroup"></path>
            <path d="M265.328571,350.664064 L418.728571,350.660209 C418.436735,349.501872 416.95102,348.592162 415.087755,348.447611 L265.330612,348.447611 L265.328571,350.664064" id="Fill-642" fill="#EDA22D" sketch:type="MSShapeGroup"></path>
            <path d="M265.330612,343.18209 L265.330612,348.447611 L415.087755,348.447611 L415.085714,348.447611 L415.130612,348.439902 L415.077551,348.437974 C417.163265,348.278004 418.779592,347.16785 418.783673,345.81485 C418.779592,344.463778 417.163265,343.351697 415.077551,343.193654 L415.130612,343.189799 L415.085714,343.185944 L415.085714,343.18209 L265.330612,343.18209" id="Fill-643" fill="#F4E5B1" sketch:type="MSShapeGroup"></path>
            <path d="M415.085714,343.18209 C416.95102,343.039466 418.438776,342.129756 418.728571,340.969491 L265.330612,340.969491 L265.330612,343.18209 L415.085714,343.18209" id="Fill-644" fill="#EDA22D" sketch:type="MSShapeGroup"></path>
            <path d="M418.728571,340.963709 C418.444898,342.125902 416.955102,343.039466 415.085714,343.18209 L415.085714,343.185944 L415.130612,343.189799 L415.077551,343.193654 C417.163265,343.351697 418.779592,344.463778 418.783673,345.81485 C418.779592,347.16785 417.163265,348.278004 415.077551,348.437974 L415.130612,348.439902 L415.085714,348.447611 L415.087755,348.447611 C416.955102,348.592162 418.440816,349.501872 418.728571,350.667919 L428.555102,345.81485 L418.728571,340.963709" id="Fill-645" fill="#E8AC6A" sketch:type="MSShapeGroup"></path>
            <path d="M423.730612,348.195128 L428.555102,345.81485 L423.730612,343.434573 C423.438776,344.199731 423.27551,344.993799 423.277551,345.81485 C423.27551,346.635902 423.438776,347.433825 423.730612,348.195128" id="Fill-646" fill="#172E41" sketch:type="MSShapeGroup"></path>
            <path d="M265.269388,350.664064 L265.269388,348.447611 L260.620408,348.447611 L260.622449,350.660209 L265.269388,350.664064" id="Fill-647" fill="#B4262D" sketch:type="MSShapeGroup"></path>
            <path d="M265.269388,348.447611 L265.269388,343.18209 L260.622449,343.18209 L260.620408,348.447611 L265.269388,348.447611" id="Fill-648" fill="#E05561" sketch:type="MSShapeGroup"></path>
            <path d="M265.269388,343.18209 L265.269388,340.969491 L260.620408,340.969491 L260.622449,343.18209 L265.269388,343.18209" id="Fill-649" fill="#B4262D" sketch:type="MSShapeGroup"></path>
            <path d="M163.361224,332.620209 L192.169388,332.620209 C198.32449,332.620209 203.316327,327.909765 203.316327,322.089167 L203.316327,318.581389 L203.289796,318.145808 L178.687755,318.145808 L163.361224,332.620209" id="Fill-650" fill="#F6C7B4" sketch:type="MSShapeGroup"></path>
            <path d="M167.487755,341.692248 L186.195918,324.016517 C187.967347,322.34165 189.002041,320.24662 189.336735,318.074496 L170.810204,318.074496 L145.804082,341.692248 L167.487755,341.692248" id="Fill-651" fill="#F6C7B4" sketch:type="MSShapeGroup"></path>
            <path d="M218.910204,295.759632 C215.459184,295.759632 212.004082,295.229611 208.653061,294.167641 C208.971429,294.267863 209.293878,294.364231 209.612245,294.456744 C209.293878,294.364231 208.971429,294.267863 208.653061,294.167641 C208.05102,293.976833 207.453061,293.768679 206.859184,293.545107 C201.802041,291.627393 197.438776,288.61109 194.061224,284.764098 L237.602041,284.764098 C234.395918,288.587962 230.171429,291.733397 225.102041,293.78988 C222.879592,294.688026 220.579592,295.341397 218.255102,295.746141 C215.373469,295.690248 212.497959,295.270085 209.685714,294.47409 C212.710204,295.329833 215.812245,295.757705 218.910204,295.757705 C223.218367,295.757705 227.516327,294.930872 231.589796,293.28106 C227.518367,294.932799 223.218367,295.759632 218.910204,295.759632 M240.516327,280.643423 L191.018367,280.643423 C190.367347,279.58338 189.779592,278.479009 189.259184,277.33609 C188.830612,276.391688 188.453061,275.433795 188.128571,274.464338 L243.267347,274.464338 C242.591837,276.611406 241.669388,278.685235 240.516327,280.643423 M244.240816,270.34559 L187.077551,270.34559 C186.783673,268.695778 186.636735,267.02862 186.636735,265.361462 C186.636735,261.539526 187.412245,257.711808 188.959184,254.051769 C190.246939,251.008483 192.002041,248.231171 194.157143,245.791145 L202.336735,245.791145 C200.181633,247.232803 198.2,248.936581 196.436735,250.87935 C192.379592,255.352731 189.844898,260.708838 189,266.388739 C190.310204,262.975402 192.281633,259.683487 194.861224,256.838718 C200.45102,250.675051 208.238776,246.930209 216.783673,246.290329 C217.630612,246.228654 218.473469,246.195889 219.310204,246.195889 C222.059184,246.195889 224.740816,246.531248 227.306122,247.155709 L227.244898,245.791145 L229.983673,245.791145 L229.983673,241.67047 L227.057143,241.67047 L227.016327,240.789671 C225.030612,240.425402 222.985714,240.232667 220.9,240.232667 C220.059184,240.232667 219.212245,240.263504 218.359184,240.329034 C215.859184,240.515987 213.42449,240.968915 211.091837,241.67047 L198.585714,241.67047 C200.859184,239.932 203.402041,238.480705 206.161224,237.358987 C208.220408,236.526372 210.336735,235.903838 212.485714,235.491385 L212.497959,235.491385 C211.226531,235.734231 209.965306,236.052244 208.718367,236.443496 C209.973469,236.052244 211.242857,235.734231 212.52449,235.491385 L214.869388,235.491385 C218.087755,235.732303 221.289796,236.431932 224.381633,237.603761 C232.355102,240.625846 238.610204,246.388624 241.991837,253.828197 C244.444898,259.22285 245.112245,264.92588 244.240816,270.34559 M230.132653,236.832821 C228.504082,236.25847 226.844898,235.811325 225.173469,235.491385 L225.17551,235.491385 C226.846939,235.811325 228.504082,236.25847 230.132653,236.832821" id="Fill-652" fill="#F7FBFC" sketch:type="MSShapeGroup"></path>
            <path d="M225.17551,235.491385 L225.173469,235.491385 C223.073469,235.090496 220.953061,234.890051 218.830612,234.890051 C216.710204,234.890051 214.589796,235.090496 212.497959,235.491385 L212.485714,235.491385 C214.577551,235.088568 216.7,234.888124 218.82449,234.888124 C220.94898,234.888124 223.073469,235.088568 225.17551,235.491385 M214.869388,235.491385 L212.52449,235.491385 C212.685714,235.460547 212.846939,235.431637 213.008163,235.402726 C213.628571,235.414291 214.24898,235.445128 214.869388,235.491385" id="Fill-653" fill="#BDD3DF" sketch:type="MSShapeGroup"></path>
            <path d="M229.983673,245.791145 L227.244898,245.791145 L227.057143,241.67047 L229.983673,241.67047 L229.983673,245.791145 M202.336735,245.791145 L194.157143,245.791145 C195.487755,244.283957 196.969388,242.905902 198.585714,241.67047 L211.091837,241.67047 C207.963265,242.611017 205.016327,243.998709 202.336735,245.791145" id="Fill-654" fill="#BDD3DF" sketch:type="MSShapeGroup"></path>
            <path d="M243.267347,274.464338 L188.128571,274.464338 C187.67551,273.10941 187.32449,271.731355 187.077551,270.34559 L244.240816,270.34559 C244.016327,271.740991 243.691837,273.11712 243.267347,274.464338" id="Fill-655" fill="#5F6F7E" sketch:type="MSShapeGroup"></path>
            <path d="M237.602041,284.764098 L194.061224,284.764098 C192.932653,283.480483 191.916327,282.102427 191.018367,280.643423 L240.516327,280.643423 C239.667347,282.085081 238.693878,283.463137 237.602041,284.764098" id="Fill-656" fill="#BDD3DF" sketch:type="MSShapeGroup"></path>
            <path d="M209.612245,294.456744 C209.169388,294.327611 208.722449,294.192697 208.281633,294.050073 C208.722449,294.192697 209.169388,294.327611 209.612245,294.456744" id="Fill-657" fill="#A6D7DE" sketch:type="MSShapeGroup"></path>
            <path d="M208.191837,294.01538 C207.744898,293.868902 207.302041,293.714714 206.859184,293.545107 C207.302041,293.714714 207.744898,293.868902 208.191837,294.01538" id="Fill-658" fill="#A6D7DE" sketch:type="MSShapeGroup"></path>
            <path d="M218.910204,295.757705 C215.812245,295.757705 212.710204,295.329833 209.685714,294.47409 C212.497959,295.270085 215.373469,295.690248 218.255102,295.746141 C220.579592,295.341397 222.879592,294.688026 225.102041,293.78988 C230.171429,291.733397 234.395918,288.587962 237.602041,284.764098 L243.659184,284.764098 C240.508163,288.358607 236.434694,291.319017 231.589796,293.28106 C227.516327,294.930872 223.218367,295.757705 218.910204,295.757705 M246.702041,280.643423 L240.516327,280.643423 C241.669388,278.685235 242.591837,276.611406 243.267347,274.464338 L249.593878,274.464338 C248.87551,276.617188 247.904082,278.691017 246.702041,280.643423 M250.644898,270.34559 L244.240816,270.34559 C245.112245,264.92588 244.444898,259.22285 241.991837,253.828197 C238.610204,246.388624 232.355102,240.625846 224.381633,237.603761 C221.289796,236.431932 218.087755,235.732303 214.869388,235.491385 L225.173469,235.491385 C226.844898,235.811325 228.504082,236.25847 230.132653,236.832821 C230.377551,236.919551 230.622449,237.008209 230.865306,237.100722 C238.838776,240.124735 245.097959,245.887513 248.481633,253.325158 C250.261224,257.237679 251.1,261.314026 251.095918,265.324842 C251.093878,267.015128 250.940816,268.69385 250.644898,270.34559 M208.718367,236.443496 C209.965306,236.052244 211.226531,235.734231 212.497959,235.491385 L212.52449,235.491385 C211.242857,235.734231 209.973469,236.052244 208.718367,236.443496" id="Fill-659" fill="#FDFEFE" sketch:type="MSShapeGroup"></path>
            <path d="M225.173469,235.491385 L214.869388,235.491385 C214.24898,235.445128 213.628571,235.414291 213.008163,235.402726 C212.846939,235.431637 212.685714,235.460547 212.52449,235.491385 L212.497959,235.491385 C214.589796,235.090496 216.710204,234.890051 218.830612,234.890051 C220.953061,234.890051 223.073469,235.090496 225.173469,235.491385" id="Fill-660" fill="#E6F0F3" sketch:type="MSShapeGroup"></path>
            <path d="M249.593878,274.464338 L243.267347,274.464338 C243.691837,273.11712 244.016327,271.740991 244.240816,270.34559 L250.644898,270.34559 C250.395918,271.742919 250.044898,273.119047 249.593878,274.464338" id="Fill-661" fill="#BAC1C5" sketch:type="MSShapeGroup"></path>
            <path d="M243.659184,284.764098 L237.602041,284.764098 C238.693878,283.463137 239.667347,282.085081 240.516327,280.643423 L246.702041,280.643423 C245.812245,282.088936 244.795918,283.466991 243.659184,284.764098" id="Fill-662" fill="#E6F0F3" sketch:type="MSShapeGroup"></path>
            <path d="M208.667347,236.462769 C208.428571,236.537936 208.185714,236.616957 207.944898,236.697906 C208.185714,236.616957 208.426531,236.537936 208.667347,236.462769" id="Fill-663" fill="#A6D7DE" sketch:type="MSShapeGroup"></path>
            <path d="M207.795918,236.748017 C207.583673,236.823184 207.369388,236.89835 207.157143,236.981226 C207.369388,236.89835 207.581633,236.821256 207.795918,236.748017" id="Fill-664" fill="#A6D7DE" sketch:type="MSShapeGroup"></path>
            <path d="M206.963265,237.050611 C206.695918,237.148906 206.428571,237.252983 206.161224,237.360915 C206.428571,237.252983 206.695918,237.148906 206.963265,237.050611" id="Fill-665" fill="#A6D7DE" sketch:type="MSShapeGroup"></path>
            <path d="M198.118367,314.765235 C200.955102,315.836842 204.177551,314.528171 205.312245,311.847226 L208.859184,303.098983 C209.985714,300.416111 208.614286,297.380534 205.783673,296.307 L205.763265,296.305073 C202.926531,295.235393 199.702041,296.540209 198.571429,299.223081 L195.02449,307.969397 C193.891837,310.648415 195.269388,313.685919 198.104082,314.76138 L198.118367,314.765235" id="Fill-666" fill="#152830" sketch:type="MSShapeGroup"></path>
            <path d="M231.589796,293.28106 C223.669388,296.492026 214.895918,296.584538 206.859184,293.545107 C198.887755,290.523021 192.636735,284.767953 189.259184,277.33609 C185.867347,269.879171 185.763265,261.610838 188.959184,254.051769 C192.157143,246.488846 198.263265,240.566098 206.161224,237.358987 C214.069388,234.155731 222.842857,234.063218 230.865306,237.100722 C238.838776,240.124735 245.097959,245.887513 248.481633,253.325158 C255.489796,268.738179 247.916327,286.664466 231.589796,293.28106 M234.989796,227.392658 C224.218367,223.308603 212.430612,223.439662 201.787755,227.749218 C191.179592,232.054919 182.969388,240.014876 178.67551,250.168158 C174.385714,260.323368 174.526531,271.43647 179.083673,281.458692 C183.626531,291.453932 192.02449,299.196098 202.738776,303.251244 L202.740816,303.255098 C213.512245,307.339154 225.314286,307.210021 235.957143,302.892756 C257.891837,294.001889 268.077551,269.908081 258.657143,249.196774 C254.114286,239.197679 245.708163,231.451658 234.989796,227.392658" id="Fill-667" fill="#2C4F61" sketch:type="MSShapeGroup"></path>
            <path d="M210.620408,313.404526 L189.953061,305.571774 L163.97551,366.701547 L184.644898,374.532372 L210.620408,313.404526" id="Fill-668" fill="#172E41" sketch:type="MSShapeGroup"></path>
            <path d="M206.340816,311.781697 L194.232653,307.192675 L168.257143,368.322449 L180.361224,372.909543 L206.340816,311.781697" id="Fill-669" fill="#2C4F61" sketch:type="MSShapeGroup"></path>
            <path d="M188.628571,365.157739 L167.961224,357.324987 L163.97551,366.701547 L184.644898,374.532372 L188.628571,365.157739" id="Fill-670" fill="#152830" sketch:type="MSShapeGroup"></path>
            <path d="M184.34898,363.531056 L172.242857,358.945889 L168.257143,368.322449 L180.361224,372.909543 L184.34898,363.531056" id="Fill-671" fill="#1D3F55" sketch:type="MSShapeGroup"></path>
            <path d="M189,266.388739 C189.844898,260.708838 192.379592,255.352731 196.436735,250.87935 C198.2,248.936581 200.181633,247.232803 202.336735,245.791145 L227.244898,245.791145 L227.306122,247.155709 C224.740816,246.531248 222.059184,246.195889 219.310204,246.195889 C218.473469,246.195889 217.630612,246.228654 216.783673,246.290329 C208.238776,246.930209 200.45102,250.675051 194.861224,256.838718 C192.281633,259.683487 190.310204,262.975402 189,266.388739 M227.057143,241.67047 L211.091837,241.67047 C213.42449,240.968915 215.859184,240.515987 218.359184,240.329034 C219.212245,240.263504 220.059184,240.232667 220.9,240.232667 C222.985714,240.232667 225.030612,240.425402 227.016327,240.789671 L227.057143,241.67047" id="Fill-672" fill="#FDFEFE" sketch:type="MSShapeGroup"></path>
            <path d="M227.244898,245.791145 L202.336735,245.791145 C205.016327,243.998709 207.963265,242.611017 211.091837,241.67047 L227.057143,241.67047 L227.244898,245.791145" id="Fill-673" fill="#E6F0F3" sketch:type="MSShapeGroup"></path>
            <path d="M255.634694,360.782654 C255.634694,364.716376 252.25102,367.909996 248.083673,367.909996 L192.481633,367.909996 C188.316327,367.91385 184.934694,364.716376 184.934694,360.782654 C184.934694,356.845077 188.316327,353.64953 192.481633,353.64953 L248.083673,353.64953 C252.25102,353.64953 255.634694,356.845077 255.634694,360.782654" id="Fill-674" fill="#F6C7B4" sketch:type="MSShapeGroup"></path>
            <path d="M160.54898,335.910197 C149.718367,335.910197 140.932653,344.205513 140.936735,354.433962 L140.936735,384.537248 C140.932653,394.765697 149.718367,403.061013 160.54898,403.061013 L192.418367,403.061013 C203.253061,403.061013 212.034694,394.765697 212.034694,384.537248 L212.034694,354.433962 C212.034694,344.203585 203.255102,335.910197 192.418367,335.910197 L160.54898,335.910197" id="Fill-675" fill="#F6C7B4" sketch:type="MSShapeGroup"></path>
            <path d="M240.477551,395.931744 C240.477551,399.867393 237.097959,403.061013 232.930612,403.061013 L197.320408,403.061013 C193.14898,403.061013 189.767347,399.867393 189.767347,395.931744 C189.767347,391.990312 193.14898,388.800547 197.320408,388.800547 L232.930612,388.800547 C237.097959,388.800547 240.477551,391.990312 240.477551,395.931744" id="Fill-676" fill="#F6C7B4" sketch:type="MSShapeGroup"></path>
            <path d="M250.47551,378.477658 C250.47551,382.415235 247.091837,385.610782 242.92449,385.610782 L187.322449,385.610782 C183.153061,385.610782 179.769388,382.415235 179.769388,378.477658 C179.769388,374.540081 183.153061,371.348389 187.322449,371.348389 L242.92449,371.348389 C247.091837,371.348389 250.47551,374.540081 250.47551,378.477658" id="Fill-677" fill="#F6C7B4" sketch:type="MSShapeGroup"></path>
            <path d="M248.514286,343.081868 C248.514286,347.021372 245.132653,350.211137 240.965306,350.211137 L196.763265,350.211137 C192.593878,350.211137 189.212245,347.021372 189.212245,343.081868 C189.212245,339.146218 192.593878,335.952598 196.763265,335.952598 L240.965306,335.952598 C245.132653,335.952598 248.514286,339.146218 248.514286,343.081868" id="Fill-678" fill="#F6C7B4" sketch:type="MSShapeGroup"></path>
            <path d="M88.3081633,395.604094 L166.467347,395.604094 C173.816327,395.604094 179.769388,389.978158 179.769388,383.037769 L179.769388,362.619419 C179.769388,355.680957 173.816327,350.051167 166.467347,350.051167 L88.3081633,350.051167 L88.3081633,395.604094" id="Fill-679" fill="#F6C7B4" sketch:type="MSShapeGroup"></path>
            <path d="M87.8346939,346.595427 L121.267347,346.595427 L121.267347,408.567453 L87.8346939,408.567453 L87.8346939,346.595427 Z" id="Fill-680" fill="#FFFFFF" sketch:type="MSShapeGroup"></path>
            <path d="M0.0224489796,344.259479 L109.973469,344.259479 L109.973469,410.899547 L0.0224489796,410.899547 L0.0224489796,344.259479 Z" id="Fill-681" fill="#40BAC5" sketch:type="MSShapeGroup"></path>
            <path d="M96.1040816,403.752932 C94.2510204,403.752932 92.7428571,402.326692 92.7428571,400.578585 C92.7428571,398.824697 94.2510204,397.406167 96.1040816,397.406167 C97.9571429,397.406167 99.4632653,398.824697 99.4632653,400.578585 C99.4632653,402.326692 97.9571429,403.752932 96.1040816,403.752932" id="Fill-682" fill="#172E41" sketch:type="MSShapeGroup"></path>
        </g>
    </g>
</svg>