<?xml version="1.0" encoding="UTF-8" standalone="no"?>
<svg width="199px" height="65px" viewBox="0 0 199 65" version="1.1" xmlns="http://www.w3.org/2000/svg" xmlns:xlink="http://www.w3.org/1999/xlink" xmlns:sketch="http://www.bohemiancoding.com/sketch/ns">
    <!-- Generator: Sketch 3.3.3 (12081) - http://www.bohemiancoding.com/sketch -->
    <title>ul-logo-svg</title>
    <desc>Created with Sketch.</desc>
    <defs>
        <path d="M87.774434,34.1568097 C85.6805763,34.1568097 84.9392482,33.2336526 84.9392482,30.6215379 C84.9392482,29.7482104 85.3927202,26.894816 86.0196945,22.9451726 C86.3075506,21.122462 86.6446972,19.003397 87.0153613,16.5801099 L85.3710324,15.6831789 C83.2929477,19.9108184 81.1852887,21.7151708 78.3303867,21.7151708 C74.3418048,21.7151708 71.6623768,17.5530964 71.6623768,11.3611256 C71.6623768,10.9100375 71.6840646,10.4668172 71.7096956,10.0262195 C74.0066298,9.84788239 76.3291951,9.61709314 78.6754198,9.33122918 L78.6695049,9.40466212 C78.6695049,12.6330891 80.1639909,14.8806617 82.2972809,14.8806617 C83.7247319,14.8806617 85.8067598,14.0833897 87.6443072,10.2963479 L87.7389449,10.1048977 L87.7724624,9.87935365 C87.8611851,9.28402228 87.9538512,8.60739015 88.0465172,7.89404155 C90.0831979,7.5137638 92.1317084,7.08890176 94.1940201,6.61421022 C92.2953526,18.3188971 92.0370707,25.7880766 92.0370707,28.9037315 C92.0370707,30.3592774 92.1533962,31.7282773 92.3821038,32.9818825 C90.7614343,33.7607963 89.2176579,34.1568097 87.774434,34.1568097 L87.774434,34.1568097 Z M13.5588127,22.6645538 C6.04103564,22.6645538 1.90261077,18.2900484 1.90261077,10.3566678 C1.90261077,7.62915842 2.34228144,4.61053988 2.83124255,1.42669721 C5.05917019,2.16627187 7.69916585,2.98452468 10.7019391,3.81851312 C10.5599827,5.08523141 10.4732315,6.22606466 10.4732315,7.2121642 C10.4732315,11.8594206 12.3127505,14.5213648 15.520572,14.5213648 C17.8904561,14.5213648 19.8482721,13.0395929 21.1870003,10.2334054 C21.5990684,9.36794565 22.0209945,8.15105685 22.4172896,6.65617191 C24.7043657,7.13348605 27.1057957,7.58981935 29.6097498,8.00681357 C29.3297801,9.02962958 29.0379807,9.97901265 28.73238,10.8549628 C25.9169104,18.7988338 20.9523779,22.6645538 13.5588127,22.6645538 L13.5588127,22.6645538 Z M62.9616293,21.833188 C60.4971076,21.833188 59.9923735,20.5874505 59.9923735,18.7149105 C59.9923735,17.7655274 60.1816488,16.5014317 60.4202145,14.9095104 L60.4655617,14.6236464 C60.6568086,13.3543055 60.8480555,12.1347941 61.0333875,10.9756026 L61.108309,10.4956659 C63.3046907,10.4720624 65.5326184,10.4012521 67.7881486,10.2832349 C67.5377532,12.2265853 67.358336,14.2905755 67.358336,16.45947 C67.358336,18.0356557 67.4825479,19.4230138 67.7388582,20.6661287 C65.8717365,21.4319294 64.2293793,21.833188 62.9616293,21.833188 L62.9616293,21.833188 Z M51.0668617,21.833188 C48.5668508,21.833188 48.0542303,20.5874505 48.0542303,18.7149105 C48.0542303,17.1990447 48.3953201,15.3474854 48.7521829,13.3936446 C48.9335717,12.3918094 49.1228469,11.3244091 49.2864912,10.2255375 C51.5203337,10.3540452 53.7975517,10.4405912 56.1161738,10.4851754 C55.8322609,12.5491657 55.5976384,14.7652671 55.5976384,17.1124987 C55.5976384,18.2507093 55.7277651,19.4230138 55.9919619,20.6608835 C54.0755498,21.4502876 52.4568519,21.833188 51.0668617,21.833188 L51.0668617,21.833188 Z M36.4552053,21.833188 C33.9019608,21.833188 33.5766439,20.2333988 33.5766439,18.8303051 C33.5766439,17.6029259 33.9611093,15.2976559 34.493446,12.1164359 C34.6590619,11.1172233 34.8424223,10.0183517 35.0336692,8.84080201 C37.1531578,9.12928858 39.3357383,9.39154909 41.5715524,9.61184793 C41.1930018,12.3419799 40.985982,14.725928 40.985982,16.5748646 C40.985982,17.9989392 41.1023074,19.3626939 41.3329867,20.6477705 C39.6985159,21.4266842 38.028556,21.833188 36.4552053,21.833188 L36.4552053,21.833188 Z" id="path-1"></path>
    </defs>
    <g id="Page-1" stroke="none" stroke-width="1" fill="none" fill-rule="evenodd" sketch:type="MSPage">
        <g id="Uniqleads_Georgy-business-card-front-final-(updated)_with-bleedmark" sketch:type="MSLayerGroup" transform="translate(-1.000000, 0.000000)">
            <path d="M86.8852345,32.7527007 C85.5938252,35.4198901 84.0323042,36.7862674 82.2953093,36.7862674 C80.6923844,36.7862674 79.5784205,35.1261584 79.5784205,32.5140436 C79.5784205,28.3126302 81.8063482,25.0501093 85.0141696,25.0501093 C85.8146463,25.0501093 86.7491929,25.2861438 87.7310584,25.8788526 C87.4195428,28.6640592 87.1533745,30.9719518 86.8852345,32.7527007 M97.3545228,17.8799068 C96.106489,17.2268781 94.7263568,16.9331463 93.3008775,16.9331463 C91.8734265,16.9331463 90.5820171,17.2268781 89.3339833,17.8799068 C87.6857112,16.8728264 86.0394107,16.3981349 84.3004442,16.3981349 C80.6036616,16.3981349 77.1277001,18.3545983 74.588257,21.9108509 C72.094161,25.4094062 70.7574044,29.7917795 70.7574044,34.4731297 C70.7574044,41.4649951 73.9198787,46.028328 78.3303867,46.028328 C81.5835554,46.028328 83.945553,43.8987726 86.1281335,39.4482117 C84.8800997,47.5704199 84.0323042,52.3094674 84.0323042,53.7309194 C84.0323042,56.9934402 85.1935868,58.4725895 87.7764056,58.4725895 C89.5134005,58.4725895 91.4298126,57.9402007 93.478323,56.8177257 C93.1214603,55.3910285 92.9440147,53.7938619 92.9440147,52.013113 C92.9440147,45.2599047 94.0560069,33.3480321 97.3545228,17.8799068 M66.8378291,16.337815 C65.2782797,16.337815 63.2751165,16.8728264 60.9150905,17.9376041 C61.3153288,19.2410389 61.4908027,20.6047936 61.4908027,22.2072053 C61.4908027,26.0571897 60.5562561,31.0348943 59.5763623,37.4943708 C59.3101939,39.2724971 59.0854295,40.6939491 59.0854295,41.8216694 C59.0854295,44.7852132 60.3354349,46.1489679 62.9616293,46.1489679 C64.5231503,46.1489679 66.5282851,45.6139564 68.8863395,44.5491787 C68.4427256,43.0674068 68.2633084,41.4099203 68.2633084,39.5714741 C68.2633084,31.5122085 70.7140288,24.9320921 70.7140288,20.6047936 C70.7140288,17.7015697 69.465995,16.337815 66.8378291,16.337815 M67.4628318,12.2491735 C70.2230961,12.2491735 72.4963709,9.28562969 72.4963709,5.55366254 C72.4963709,2.47210147 70.9368216,0.518260621 68.5314484,0.518260621 C65.8579352,0.518260621 63.5846604,3.53950177 63.5846604,7.15345169 C63.5846604,10.2953327 65.1008341,12.2491735 67.4628318,12.2491735 M51.7825588,16.337815 C48.4860145,16.337815 45.9012241,18.2942784 44.0735348,20.9640905 C43.8527137,17.7618896 42.3365399,16.337815 39.3515112,16.337815 C38.0167262,16.337815 36.4571769,16.576472 34.7182104,17.2268781 C35.0316975,18.4122957 35.1637959,19.6580331 35.1637959,21.0794851 C35.1637959,23.6260347 34.9863503,26.4741839 34.4973892,29.4954251 C33.5155238,35.8368844 32.6696999,39.9229032 32.6696999,41.9396866 C32.6696999,44.7248933 33.9611093,46.1489679 36.4571769,46.1489679 C38.3262702,46.1489679 40.3767522,45.6139564 42.4252627,44.4862362 C42.0703716,43.0070869 41.892926,41.4099203 41.892926,39.6842461 C41.892926,36.9016621 42.3838587,32.2806318 43.6732965,25.9391725 C44.5644676,25.1104292 45.4556386,24.6960576 46.2147113,24.6960576 C47.6835662,24.6960576 48.7975301,26.1752069 48.7975301,28.4280248 C48.7975301,33.4660493 47.1492579,38.2050968 47.1492579,41.8216694 C47.1492579,44.7852132 48.3972917,46.1489679 51.0688333,46.1489679 C52.7624526,46.1489679 54.7675875,45.6139564 57.1276135,44.5491787 C56.7273751,43.0674068 56.5045824,41.6433322 56.5045824,40.2218802 C56.5045824,34.2370952 58.0641317,29.0207335 58.0641317,24.9320921 C58.0641317,19.6003358 55.6567869,16.337815 51.7825588,16.337815 M28.5293034,4.25022777 C26.7016141,4.25022777 24.6531037,4.96095377 22.4685516,6.32470845 C23.2276243,8.28117191 23.4050699,10.4736698 23.4050699,13.0805394 C23.4050699,22.561257 21.7567977,29.9097967 20.4200412,32.6950034 C19.2627018,35.1261584 17.5710541,36.4269705 15.520572,36.4269705 C12.8490304,36.4269705 11.3782039,34.2947925 11.3782039,30.3215457 C11.3782039,28.3703275 11.733095,25.7608353 12.2240277,22.4458624 C13.1585744,16.4558322 14.0043982,12.1914762 14.0043982,9.3459496 C14.0043982,5.789697 12.5789189,4.25022777 9.28237461,4.25022777 C7.41328133,4.25022777 5.31745206,4.84293654 2.95545445,5.96803415 C3.22359441,7.39210876 3.35766439,8.81356076 3.35766439,10.2350128 C3.35766439,19.2410389 0.995666775,26.8859329 0.995666775,33.4660493 C0.995666775,41.9396866 5.40814646,46.9750885 13.5588127,46.9750885 C21.3112122,46.9750885 26.5695158,42.8916923 29.5545445,34.4731297 C30.8006067,30.9168771 31.7371249,26.4741839 32.5376016,21.2001249 C33.1626043,17.0511636 33.4307442,13.7912654 33.4307442,11.4204303 C33.4307442,6.44272569 32.0032933,4.25022777 28.5293034,4.25022777" id="Fill-13" fill="#000000" sketch:type="MSShapeGroup"></path>
            <path d="M192.595472,25.6454407 C192.595472,26.6525211 193.350601,27.4786417 194.600607,28.9053389 C196.60377,31.2158541 197.942498,32.8130206 197.942498,36.0125989 C197.942498,39.3669109 196.505189,42.4196233 194.054469,44.4049354 C193.614798,44.1793914 193.135695,44.0062995 192.61716,43.8856596 C191.394757,43.6024183 189.571011,43.7387937 186.562323,43.9669604 C185.464132,44.0482611 184.186524,44.1426749 182.782732,44.2292209 C182.652605,43.783378 182.569797,43.285083 182.569797,42.7107325 C182.569797,41.2289606 183.104106,39.5714741 184.040624,37.5573134 C185.377381,38.7374857 186.757513,39.2724971 188.096241,39.2724971 C189.25358,39.2724971 189.876611,38.5617711 189.876611,37.4943708 C189.876611,36.4872905 189.028816,35.6559246 187.694031,34.0587581 C185.822966,31.7429977 184.531557,30.2087737 184.531557,27.1822873 C184.531557,24.4600232 185.911689,21.3155196 188.496479,19.0653243 C190.588365,17.2268781 192.99571,16.2801177 195.489806,16.2801177 C198.163319,16.2801177 199.545423,17.5258551 199.545423,19.9543875 C199.545423,21.4964793 199.009143,23.1539658 197.983902,25.0501093 C196.828534,24.2187435 195.712599,23.7492972 194.734677,23.7492972 C193.39792,23.7492972 192.595472,24.5780404 192.595472,25.6454407 M154.911949,38.9761428 C154.911949,40.8722863 155.042076,42.474698 155.48569,43.8987726 C153.125664,45.377922 151.165876,46.1489679 149.562951,46.1489679 C147.646539,46.1489679 146.800715,45.1392649 146.800715,42.6504126 L146.800715,42.634677 L146.836204,42.7317133 L148.531795,41.4046751 L145.590142,33.5735761 L149.728567,33.5735761 L140.848402,22.8182723 L141.445802,38.483093 L143.953699,34.8586526 L146.361044,41.4361464 C144.290846,45.0658319 142.098408,46.6787341 138.959593,46.6787341 C134.59246,46.6787341 131.564056,42.1757211 131.564056,35.0632158 C131.564056,30.2087737 132.900812,25.5851208 135.349561,22.0865655 C137.889004,18.4122957 141.366937,16.337815 144.973026,16.337815 C146.666645,16.337815 148.26957,16.8125065 149.919814,17.8222095 C151.165876,17.1088609 152.504604,16.8728264 154.018806,16.8728264 C155.444286,16.8728264 156.826389,17.1691808 158.07048,17.8222095 C155.844524,26.5895786 154.911949,33.820101 154.911949,38.9761428 M108.356148,21.3155196 C107.06671,29.8494768 106.26229,35.9549016 106.26229,39.6842461 C106.26229,41.4099203 106.441707,43.0070869 106.796598,44.4862362 C104.657394,45.6139564 102.608883,46.1489679 100.694443,46.1489679 C98.1096523,46.1489679 96.9503412,44.8429105 96.9503412,41.8216694 C96.9503412,39.9832231 97.8395407,35.6559246 98.8233777,28.6640592 C99.9807171,20.6047936 100.694443,14.5623113 100.694443,10.35303 C100.694443,8.57490369 100.515025,6.91741722 100.20351,5.37532539 C102.697606,4.07189062 104.880186,3.3008447 106.753223,3.3008447 C109.201972,3.3008447 110.497324,4.7249193 110.497324,7.21377161 C110.497324,9.52428676 109.424764,14.1453171 108.356148,21.3155196 M121.98791,23.3349256 C123.368042,23.3349256 124.259214,24.3997032 124.259214,26.1175096 C124.259214,27.835316 123.235944,28.6640592 121.185462,28.6640592 C119.982775,28.6640592 118.955563,28.4883447 118.022988,28.1919903 C118.691366,25.0501093 120.160221,23.3349256 121.98791,23.3349256 M122.433496,34.2370952 C128.849139,34.2370952 132.05696,31.5122085 132.05696,26.1175096 C132.05696,20.4867763 128.358206,16.1621004 122.699664,16.1621004 C115.081335,16.1621004 109.154653,23.6863546 109.154653,33.5840665 C109.154653,41.7613494 113.389687,46.8596939 120.651154,46.8596939 C126.355043,46.8596939 129.60624,44.2502017 129.60624,40.6388744 C129.60624,39.2121772 129.071932,38.0267597 128.001343,36.6079303 C126.355043,38.5040738 124.213866,39.5111542 121.71977,39.5111542 C118.646019,39.5111542 116.997747,37.7933478 116.997747,34.7117868 C116.997747,34.3551125 116.997747,33.9984382 117.043094,33.6443865 C118.602643,34.0587581 120.384985,34.2370952 122.433496,34.2370952 M172.904929,33.1119976 C171.522825,35.7214897 169.963276,36.961982 168.760589,36.961982 C167.06697,36.961982 166.089048,35.4198901 166.089048,32.5140436 C166.089048,28.6063619 168.271628,25.4094062 170.988517,25.4094062 C171.968411,25.4094062 172.859582,25.7005154 173.839476,26.2958468 C173.52796,28.8423964 173.216445,31.1555342 172.904929,33.1119976 M183.196772,19.1833416 C184.13329,13.4345911 185.024461,9.40626952 185.024461,7.09575437 C185.024461,4.66459939 183.776427,3.36116462 181.369082,3.36116462 C179.543365,3.36116462 177.360784,4.07189062 174.866688,5.37532539 C175.266927,6.8570973 175.397053,8.45688645 175.397053,10.1773154 C175.397053,11.8951218 175.225523,14.3236542 174.908092,17.5258551 C173.486556,16.9331463 172.147828,16.636792 170.856419,16.636792 C166.889524,16.636792 163.326812,18.70865 160.787369,22.3829199 C158.336648,25.9391725 157.045239,30.3844882 157.045239,35.1261584 C157.045239,37.5205969 157.402102,39.6108132 158.036962,41.3417326 L159.298798,42.1730984 C160.519229,42.9756156 161.826411,43.5420983 163.186827,43.8541884 C164.791724,44.2292209 166.777142,44.4573875 169.391507,44.5439335 C170.566591,43.3873646 171.645066,41.7770851 172.680165,39.6291714 C172.459344,40.9326062 172.368649,41.9396866 172.368649,42.6504126 C172.368649,43.4398167 172.473145,44.069242 172.656505,44.5832726 C174.714874,44.5727822 177.084758,44.507217 179.850937,44.3787094 C180.138793,44.368219 180.404962,44.3551059 180.688874,44.3419929 C180.947156,44.1872592 181.193608,44.0666194 181.459777,43.8987726 C181.014191,42.474698 180.880121,40.8722863 180.880121,38.9761428 C180.880121,35.1261584 181.635251,28.5486646 183.196772,19.1833416" id="Fill-14" fill="#DF4F2A" sketch:type="MSShapeGroup"></path>
            <path d="M171.278345,62.7421908 C179.316629,62.2674992 185.042206,62.1311238 188.441274,62.9231505 C190.00871,63.28507 191.432218,63.9459665 192.705882,64.8901044 C194.164879,61.3364744 195.071823,57.8195609 195.45826,54.4259098 C195.986654,49.8468412 195.030419,47.5179678 192.274098,46.8754295 C190.602167,46.4899065 186.479515,47.1508031 179.908114,47.410441 C172.331188,47.7540022 166.678561,47.7408892 162.843766,46.8492035 C161.223096,46.4715483 159.748326,45.802784 158.407626,44.9242113 C156.710064,49.07055 155.568497,52.7710459 155.186004,56.0938867 C154.689156,60.429053 155.726227,63.0228095 157.991615,63.5525757 C160.097303,64.0377577 164.525555,63.1250911 171.278345,62.7421908" id="Fill-15" fill="#000000" sketch:type="MSShapeGroup"></path>
            <path d="M164.833128,58.2129516 C164.833128,58.5250416 164.740461,58.7873022 164.557101,59.0023558 C164.377684,59.220032 164.150948,59.3275588 163.88478,59.3275588 C163.644242,59.3275588 163.445109,59.2305224 163.289351,59.0338271 C163.133593,58.8371317 163.0567,58.5774938 163.0567,58.2627811 C163.0567,57.9218425 163.14148,57.6438463 163.316954,57.4340379 C163.486513,57.2189843 163.713249,57.1114575 163.991247,57.1114575 C164.253472,57.1114575 164.45852,57.2137391 164.606392,57.4051892 C164.754263,57.6018846 164.833128,57.8693904 164.833128,58.2129516" id="Fill-16" fill="#FFFFFF" sketch:type="MSShapeGroup"></path>
            <path d="M170.223529,52.3488065 L169.73654,52.0550747 C169.580782,51.9973774 169.403337,51.9659061 169.21209,51.9659061 C168.563428,51.9659061 168.021233,52.2753735 167.589449,52.8943084 C167.159636,53.5158658 166.946701,54.2974021 166.946701,55.2467852 C166.946701,56.1017545 167.135977,56.7836318 167.51847,57.287172 C167.900964,57.7907122 168.417528,58.0398597 169.070133,58.0398597 C169.352075,58.0398597 169.608385,57.9900302 169.841036,57.8903712 C170.071715,57.785467 170.286621,57.6254881 170.487726,57.4078118 L170.6632,57.8195609 L170.72432,58.1945934 C170.72432,58.5538903 170.568562,58.8371317 170.257047,59.0443175 C169.94356,59.2567485 169.523605,59.3642753 168.987325,59.3642753 C168.050807,59.3642753 167.293706,59.0049784 166.708136,58.2916298 C166.122565,57.5809038 165.828794,56.6525016 165.828794,55.5090457 C165.828794,54.1243102 166.183685,52.9624961 166.891496,52.0183582 C167.601278,51.0742204 168.460903,50.6021514 169.474315,50.6021514 C169.84695,50.6021514 170.122977,50.6729618 170.304366,50.8145825 C170.485755,50.9562031 170.574477,51.1738794 170.574477,51.4597433 L170.493641,51.8950958 L170.223529,52.3488065" id="Fill-17" fill="#FFFFFF" sketch:type="MSShapeGroup"></path>
            <path d="M174.298863,58.2129516 C174.9909,58.2129516 175.556754,57.9061068 176.000368,57.287172 C176.442011,56.6708598 176.662832,55.8814556 176.662832,54.9137143 C176.662832,53.9721991 176.445954,53.2037758 176.010226,52.6084444 C175.576471,52.0157356 175.018503,51.7193812 174.324494,51.7193812 C173.620626,51.7193812 173.050829,52.0262261 172.617073,52.6451609 C172.183317,53.2614731 171.966439,54.0771033 171.966439,55.0920515 C171.966439,55.9968503 172.18726,56.7416701 172.626931,57.3291337 C173.066602,57.9165973 173.624569,58.2129516 174.298863,58.2129516 L174.298863,58.2129516 Z M174.221969,59.4403309 C173.230246,59.4403309 172.423854,59.0312044 171.798852,58.2208195 C171.175821,57.4051892 170.866277,56.3666376 170.866277,55.0920515 C170.866277,53.7414098 171.197508,52.6451609 171.863915,51.800682 C172.532293,50.9562031 173.395862,50.5339637 174.460535,50.5339637 C175.420713,50.5339637 176.20936,50.9352223 176.830419,51.7351169 C177.449507,52.5376341 177.764966,53.5499597 177.764966,54.7773389 C177.764966,55.2730112 177.705817,55.7581932 177.58752,56.2433752 C177.471195,56.7233119 177.309522,57.1376835 177.110389,57.4786222 C176.729867,58.1316509 176.300054,58.622078 175.81898,58.9472811 C175.339877,59.2724841 174.80754,59.4403309 174.221969,59.4403309 L174.221969,59.4403309 Z" id="Fill-18" fill="#FFFFFF" sketch:type="MSShapeGroup"></path>
            <path d="M178.474748,50.7831112 L178.756689,50.6834522 L179.040602,50.6546036 C179.271282,50.6546036 179.450699,50.7332817 179.580825,50.8985058 C179.708981,51.0558621 179.785874,51.2918966 179.799675,51.5987414 C180.138793,51.2918966 180.468053,51.06373 180.791399,50.9168641 C181.112772,50.7726208 181.434146,50.6965652 181.753548,50.6965652 C182.067035,50.6965652 182.360806,50.7804886 182.634861,50.9404675 C182.910887,51.103069 183.167197,51.3469713 183.407735,51.6695517 C183.744881,51.3469713 184.105687,51.0925786 184.48621,50.9089963 C184.868703,50.7280365 185.235424,50.6362453 185.5844,50.6362453 C186.349388,50.6362453 186.934958,50.9325997 187.345055,51.5226859 C187.751208,52.1153946 187.956256,52.9624961 187.956256,54.0613677 C187.956256,54.218724 187.94837,54.5360592 187.934568,55.0055055 C187.922739,55.4775744 187.916824,55.8735878 187.916824,56.1935457 C187.916824,56.9252525 187.942455,57.48649 187.993717,57.8825034 C188.044979,58.2785168 188.127787,58.5984746 188.242141,58.8423769 C188.031178,58.9813749 187.85176,59.0784113 187.707832,59.1361087 L187.32731,59.2252772 C187.126205,59.2252772 186.988192,59.1597121 186.913271,59.0233366 C186.840321,58.8922064 186.80286,58.6325685 186.80286,58.2444229 C186.80286,57.8956164 186.816661,57.3291337 186.85215,56.55022 C186.881725,55.7713062 186.897498,55.1759749 186.897498,54.7589806 C186.897498,53.7387872 186.781172,52.99659 186.548521,52.5455019 C186.31587,52.0944138 185.941263,51.8662471 185.424699,51.8662471 C185.142758,51.8662471 184.870675,51.9186992 184.606478,52.0288487 C184.344253,52.1389981 184.064283,52.325203 183.758683,52.5795957 C183.80403,52.9257796 183.833604,53.2876991 183.85332,53.6653543 C183.873037,54.0430094 183.880923,54.5727757 183.880923,55.2467852 L183.880923,56.1410936 C183.880923,56.9252525 183.902611,57.5100935 183.945986,57.8929938 C183.98739,58.2758942 184.064283,58.5984746 184.168779,58.8607351 C183.981475,58.9918654 183.813888,59.0836565 183.671932,59.1413539 L183.248034,59.2252772 C183.054815,59.2252772 182.920745,59.1544669 182.847795,59.0102236 C182.772874,58.8686029 182.735413,58.608965 182.735413,58.2313099 C182.735413,58.0215015 182.745271,57.5625456 182.768931,56.8439517 C182.79259,56.1279805 182.802448,55.5090457 182.802448,55.0002603 C182.802448,53.7964845 182.703867,52.9782317 182.500791,52.5455019 C182.297714,52.1153946 181.948738,51.8977184 181.453862,51.8977184 C181.191637,51.8977184 180.92744,51.9659061 180.661272,52.099659 C180.393132,52.2307893 180.113162,52.4327299 179.827278,52.697613 C179.819391,53.1723045 179.80559,53.7702585 179.791789,54.5124557 C179.776016,55.2467852 179.768129,55.7004959 179.768129,55.878833 C179.768129,56.6315207 179.79376,57.2425877 179.846994,57.7041662 C179.898256,58.1683673 179.977121,58.5538903 180.089503,58.8607351 C179.910086,58.9866202 179.74447,59.0784113 179.594627,59.1361087 L179.154956,59.2252772 C178.955823,59.2252772 178.823724,59.1518443 178.750775,59.0023558 C178.677825,58.8581125 178.640364,58.5460225 178.640364,58.0765762 C178.640364,57.9375781 178.665995,57.373718 178.717257,56.3823732 C178.764576,55.3936511 178.788235,54.4678715 178.788235,53.6102796 C178.788235,52.9336474 178.762604,52.3671647 178.713314,51.913454 C178.662052,51.4597433 178.581215,51.0847108 178.474748,50.7831112" id="Fill-19" fill="#FFFFFF" sketch:type="MSShapeGroup"></path>
            <g id="Group-23" transform="translate(0.000000, 23.109382)">
                <mask id="mask-2" sketch:name="Clip 21" fill="white">
                    <use xlink:href="#path-1"></use>
                </mask>
                <g id="Clip-21"></g>
                <path d="M1.90261077,1.42669721 L94.1940201,1.42669721 L94.1940201,34.1568097 L1.90261077,34.1568097 L1.90261077,1.42669721 Z" id="Fill-20" fill="#030100" sketch:type="MSShapeGroup" mask="url(#mask-2)"></path>
                <path d="M1.90261077,1.42669721 L94.1940201,1.42669721 L94.1940201,34.1568097 L1.90261077,34.1568097 L1.90261077,1.42669721 Z" id="Fill-22" fill="#030100" sketch:type="MSShapeGroup" mask="url(#mask-2)"></path>
            </g>
            <path d="M120.651154,45.6532955 C114.022576,45.6532955 110.061597,41.139792 110.061597,33.5840665 C110.061597,30.8565572 110.542671,28.3388562 111.39441,26.1280001 C113.598678,25.7975518 115.800975,25.5143104 117.997357,25.2835212 C117.646409,26.0309637 117.358553,26.8859329 117.151533,27.8615421 L116.897194,29.0679404 L117.812025,29.3616722 C118.882613,29.7026109 119.984747,29.8730802 121.187434,29.8730802 C124.649594,29.8730802 125.166158,27.5206034 125.166158,26.1175096 C125.166158,25.6061016 125.095179,25.1392779 124.984769,24.7065481 C127.005677,24.580663 129.016726,24.4914944 131.015946,24.4390423 C131.100726,24.979299 131.151988,25.5352913 131.151988,26.1175096 C131.151988,27.8274482 131.151988,33.0333195 122.433496,33.0333195 C120.363298,33.0333195 118.65982,32.8471145 117.220539,32.4615915 L116.307681,32.2203118 L116.149951,33.4424459 C116.092774,33.8961565 116.092774,34.3288864 116.092774,34.7117868 C116.092774,38.5250547 118.143256,40.71493 121.71977,40.71493 C124.075853,40.71493 126.195342,39.8625833 127.904734,38.2391907 C128.462702,39.1256312 128.701267,39.8625833 128.701267,40.6388744 C128.701267,43.6365121 125.465843,45.6532955 120.651154,45.6532955" id="Fill-24" fill="#DB5F3F" sketch:type="MSShapeGroup"></path>
            <path d="M141.445802,38.483093 L140.911494,24.4574006 L141.445802,38.483093" id="Fill-25" fill="#DB5F3F" sketch:type="MSShapeGroup"></path>
            <path d="M138.959593,45.4749584 C135.014386,45.4749584 132.469028,41.3889395 132.469028,35.0658385 C132.469028,31.1450437 133.39766,27.4209444 135.097194,24.381345 L135.515177,24.381345 C137.329065,24.381345 139.125209,24.4101937 140.911494,24.4574006 L141.445802,38.483093 L143.953699,34.8586526 L145.911516,40.2113898 C143.888636,43.9669604 141.897303,45.4749584 138.959593,45.4749584" id="Fill-26" fill="#DB5F3F" sketch:type="MSShapeGroup"></path>
            <path d="M147.739205,42.02361 L147.741176,42.02361 L148.531795,41.4046751 L147.739205,42.02361" id="Fill-27" fill="#DB5F3F" sketch:type="MSShapeGroup"></path>
            <path d="M165.856397,44.3000312 C164.854815,44.1872592 163.975474,44.0377707 163.186827,43.8541884 C163.975474,44.0377707 164.854815,44.1872592 165.856397,44.3000312" id="Fill-29" fill="#DB5F3F" sketch:type="MSShapeGroup"></path>
            <path d="M173.776384,44.5727822 C173.38206,44.195127 173.277565,43.5630792 173.277565,42.6504126 C173.277565,42.1704758 173.324884,41.2997709 173.567392,39.8940546 L171.923064,38.9761428 C170.606023,41.6957843 169.281096,43.4686654 167.788582,44.467878 C167.096544,44.4232937 166.455769,44.368219 165.856397,44.3000312 C164.854815,44.1872592 163.975474,44.0377707 163.186827,43.8541884 C161.913162,43.5604566 160.686816,43.0385582 159.535392,42.3147191 C158.523952,40.5313476 157.950211,38.0818344 157.950211,35.1261584 C157.950211,31.7849594 158.626476,28.6404558 159.921829,25.8788526 C162.256224,26.1620939 164.545271,26.4741839 166.775171,26.8125 C165.791334,28.3021397 165.184075,30.3058101 165.184075,32.5140436 C165.184075,36.0545606 166.51886,38.1683804 168.762561,38.1683804 C170.39506,38.1683804 172.177402,36.5790816 173.644286,33.806988 L173.752725,33.6050474 L173.790185,33.3611451 C174.026779,31.8924862 174.269288,30.1563216 174.531513,28.1238026 C176.680576,28.5224386 178.756689,28.9420554 180.755909,29.36954 C180.241317,33.4503137 179.971206,36.689231 179.971206,38.9761428 C179.971206,40.701817 180.08556,42.0708168 180.337927,43.2562344 C179.448727,43.7781328 178.604875,44.1715236 177.810313,44.4626328 C176.351316,44.5177075 175.010616,44.5544239 173.776384,44.5727822" id="Fill-30" fill="#DB5F3F" sketch:type="MSShapeGroup"></path>
            <path d="M183.736995,44.168901 L183.736995,44.168901 C184.032738,44.1479201 184.320594,44.1295619 184.600563,44.1085811 C184.320594,44.1295619 184.032738,44.1505427 183.736995,44.168901 M186.635272,43.9617152 C186.725967,43.9538474 186.818633,43.9486021 186.907356,43.9407343 C186.818633,43.9486021 186.725967,43.9538474 186.635272,43.9617152 M192.790662,43.9433569 L192.61716,43.8856596 C192.599415,43.8804144 192.58167,43.8777918 192.563926,43.8725466 C192.58167,43.8777918 192.599415,43.8804144 192.61716,43.8856596 C192.680251,43.9013953 192.745315,43.9171309 192.808406,43.9328665 C192.802492,43.9354891 192.796577,43.9407343 192.790662,43.9433569 M187.067057,43.9302439 C187.094659,43.9276213 187.124234,43.9249987 187.151836,43.9223761 C187.124234,43.9249987 187.094659,43.9276213 187.067057,43.9302439 M187.183382,43.9197535 C187.220843,43.9171309 187.258304,43.9145083 187.295764,43.9118857 C187.258304,43.9145083 187.220843,43.9171309 187.183382,43.9197535 M187.38843,43.9040179 C187.421948,43.9013953 187.457437,43.8987726 187.492926,43.89615 C187.457437,43.8987726 187.421948,43.9013953 187.38843,43.9040179 M187.494898,43.89615 C188.847427,43.796491 189.931817,43.7283033 190.81313,43.7256807 C189.931817,43.7283033 188.847427,43.796491 187.494898,43.89615 M190.828903,43.7256807 L190.826931,43.7256807 L190.828903,43.7256807" id="Fill-31" fill="#DB5F3F" sketch:type="MSShapeGroup"></path>
            <path d="M183.736995,44.168901 C183.478713,43.6627382 183.47477,43.1146137 183.47477,42.7081099 C183.47477,41.7901981 183.756711,40.6651005 184.361998,39.2095546 C185.556798,40.0540335 186.810746,40.4788955 188.096241,40.4788955 C189.949561,40.4788955 190.783555,38.981388 190.783555,37.4969934 C190.783555,36.0886545 189.967306,35.1261584 188.831654,33.7912523 L188.301289,33.1618271 L188.210595,33.0490551 C187.465323,32.1311433 186.869895,31.3837008 186.418395,30.6467488 C190.150666,31.5410571 193.539877,32.4432333 196.505189,33.2877122 C196.856137,34.0849841 197.037526,34.929463 197.037526,36.0125989 C197.037526,39.393137 195.39714,42.2570218 192.808406,43.9328665 C192.745315,43.9171309 192.680251,43.9013953 192.61716,43.8856596 C192.599415,43.8804144 192.58167,43.8777918 192.563926,43.8725466 C192.086794,43.770265 191.518969,43.7256807 190.828903,43.7256807 L190.826931,43.7256807 L190.81313,43.7256807 C189.931817,43.7283033 188.847427,43.796491 187.494898,43.89615 L187.492926,43.89615 C187.457437,43.8987726 187.421948,43.9013953 187.38843,43.9040179 C187.356884,43.9066405 187.32731,43.9092631 187.295764,43.9118857 C187.258304,43.9145083 187.220843,43.9171309 187.183382,43.9197535 C187.173524,43.9197535 187.161694,43.9223761 187.151836,43.9223761 C187.124234,43.9249987 187.094659,43.9276213 187.067057,43.9302439 C187.013823,43.9328665 186.960589,43.9381117 186.907356,43.9407343 C186.818633,43.9486021 186.725967,43.9538474 186.635272,43.9617152 C186.609641,43.9643378 186.585982,43.9643378 186.562323,43.9669604 C185.959008,44.0115447 185.302459,44.0613742 184.600563,44.1085811 C184.320594,44.1295619 184.032738,44.1479201 183.736995,44.168901" id="Fill-32" fill="#DB5F3F" sketch:type="MSShapeGroup"></path>
        </g>
    </g>
</svg>