<?xml version="1.0" encoding="UTF-8" standalone="no"?>
<svg width="230px" height="236px" viewBox="0 0 230 236" version="1.1" xmlns="http://www.w3.org/2000/svg" xmlns:xlink="http://www.w3.org/1999/xlink" xmlns:sketch="http://www.bohemiancoding.com/sketch/ns">
    <!-- Generator: Sketch 3.3.3 (12081) - http://www.bohemiancoding.com/sketch -->
    <title>male-customer-care</title>
    <desc>Created with Sketch.</desc>
    <defs>
        <path d="M5.281,26.544 L13.994,26.544 L13.994,32.548 L5.281,32.548 L5.281,26.544 Z M5.281,22.241 L5.281,20.266 C5.281,19.241 5.447,18.361 5.775,17.629 C6.106,16.897 6.527,16.263 7.038,15.727 C7.553,15.189 8.094,14.719 8.669,14.315 C9.24,13.913 9.783,13.523 10.297,13.146 C10.811,12.768 11.23,12.376 11.56,11.974 C11.889,11.57 12.054,11.101 12.054,10.564 C12.054,10.149 11.896,9.802 11.578,9.521 C11.262,9.24 10.687,9.1 9.857,9.1 C9.15,9.1 8.441,9.167 7.734,9.302 C7.025,9.436 6.342,9.606 5.686,9.813 C5.026,10.021 4.397,10.254 3.799,10.509 C3.2,10.765 2.646,11.016 2.134,11.26 L0.192,3.792 C0.853,3.475 1.589,3.15 2.407,2.821 C3.226,2.492 4.115,2.193 5.08,1.925 C6.044,1.656 7.088,1.43 8.211,1.247 C9.333,1.064 10.516,0.973 11.763,0.973 C13.396,0.973 14.872,1.174 16.191,1.577 C17.508,1.979 18.626,2.541 19.54,3.261 C20.455,3.98 21.157,4.822 21.646,5.786 C22.133,6.751 22.378,7.794 22.378,8.917 C22.378,10.356 22.17,11.529 21.754,12.431 C21.341,13.334 20.826,14.097 20.218,14.719 C19.607,15.342 18.937,15.878 18.204,16.33 C17.472,16.781 16.801,17.258 16.191,17.757 C15.581,18.259 15.068,18.856 14.653,19.552 C14.239,20.247 14.031,21.144 14.031,22.241 L5.281,22.241 L5.281,22.241 Z" id="path-1"></path>
        <path id="path-3" d="M29.647,11.742 C31.447,19.59 26.545,27.414 18.69,29.219 C10.843,31.019 3.018,26.116 1.216,18.267 C-0.585,10.417 4.316,2.586 12.165,0.786 C20.019,-1.018 27.845,3.891 29.647,11.742"></path>
        <path d="M0.03,3.003 L0.03,3.003 C0.82,2.606 1.453,1.91 1.752,1.028 C1.453,1.911 0.82,2.606 0.03,3.003 L0.03,3.003 Z M1.752,1.027 C1.758,1.01 1.763,0.993 1.769,0.976 C1.763,0.993 1.758,1.01 1.752,1.027 L1.752,1.027 Z M1.769,0.973 C1.771,0.969 1.772,0.964 1.774,0.959 C1.772,0.964 1.771,0.969 1.769,0.973 L1.769,0.973 Z M1.776,0.953 C1.777,0.948 1.779,0.944 1.78,0.939 C1.779,0.944 1.777,0.948 1.776,0.953 L1.776,0.953 Z M1.782,0.932 C1.785,0.925 1.787,0.917 1.789,0.909 C1.787,0.917 1.785,0.925 1.782,0.932 L1.782,0.932 Z M1.792,0.901 C1.793,0.897 1.794,0.893 1.795,0.889 C1.794,0.893 1.793,0.897 1.792,0.901 L1.792,0.901 Z M1.798,0.88 C1.799,0.876 1.8,0.872 1.801,0.868 C1.8,0.872 1.799,0.876 1.798,0.88 L1.798,0.88 Z M1.804,0.858 C1.805,0.854 1.806,0.851 1.807,0.847 C1.806,0.851 1.805,0.854 1.804,0.858 L1.804,0.858 Z M1.813,0.827 C1.813,0.825 1.814,0.822 1.815,0.819 C1.814,0.822 1.813,0.825 1.813,0.827 L1.813,0.827 Z M1.819,0.806 C1.819,0.803 1.82,0.8 1.821,0.797 C1.82,0.8 1.819,0.803 1.819,0.806 L1.819,0.806 Z M1.825,0.783 C1.825,0.78 1.826,0.778 1.827,0.775 C1.826,0.777 1.825,0.78 1.825,0.783 L1.825,0.783 Z M1.832,0.754 C1.832,0.752 1.833,0.75 1.833,0.749 C1.833,0.75 1.832,0.752 1.832,0.754 L1.832,0.754 Z M1.837,0.732 C1.838,0.729 1.839,0.727 1.839,0.724 C1.839,0.727 1.838,0.729 1.837,0.732 L1.837,0.732 Z M1.843,0.709 C1.843,0.706 1.844,0.704 1.844,0.702 C1.844,0.704 1.843,0.706 1.843,0.709 L1.843,0.709 Z" id="path-5"></path>
    </defs>
    <g id="Page-1" stroke="none" stroke-width="1" fill="none" fill-rule="evenodd" sketch:type="MSPage">
        <g id="07" sketch:type="MSLayerGroup" transform="translate(-496.000000, -546.000000)">
            <g id="male-customer-care" transform="translate(496.000000, 546.000000)">
                <path d="M105.545,116.835 C83.217,126.623 76.519,131.841 73.871,134.186 C69.791,137.795 67.535,151.253 65.129,162.68 L166.158,162.68 C163.754,151.253 161.496,137.795 157.416,134.186 C154.77,131.841 148.317,126.758 125.987,116.968 L105.545,116.835" id="Fill-132" fill="#FADAC4" sketch:type="MSShapeGroup"></path>
                <path d="M105.545,116.835 C83.217,126.623 76.519,131.841 73.871,134.186 C69.791,137.795 67.535,151.253 65.129,162.68 L166.158,162.68 C163.754,151.253 161.496,137.795 157.416,134.186 C154.77,131.841 148.317,126.758 125.987,116.968 L105.545,116.835" id="Fill-133" fill="#33706C" sketch:type="MSShapeGroup"></path>
                <path d="M104.805,97.321 L104.805,122.072 C110.766,129.122 120.522,129.375 126.485,122.072 L126.485,97.321 C126.485,83.958 104.805,83.958 104.805,97.321" id="Fill-134" fill="#F2C39A" sketch:type="MSShapeGroup"></path>
                <path d="M93.037,81.764 C94.945,81.134 97.376,83.302 98.463,86.603 C99.551,89.905 98.885,93.093 96.974,93.721 C95.064,94.35 92.636,92.184 91.548,88.88 C90.459,85.578 91.127,82.392 93.037,81.764" id="Fill-135" fill="#F2C39A" sketch:type="MSShapeGroup"></path>
                <path d="M138.157,81.764 C136.246,81.134 133.816,83.302 132.729,86.603 C131.642,89.905 132.31,93.093 134.218,93.721 C136.128,94.35 138.558,92.184 139.646,88.88 C140.731,85.578 140.064,82.392 138.157,81.764" id="Fill-136" fill="#F2C39A" sketch:type="MSShapeGroup"></path>
                <path d="M110.982,132.477 L113.607,136.544 L117.68,136.544 L120.307,132.477 L115.7,127.455 L110.982,132.477" id="Fill-137" fill="#2E2F2C" sketch:type="MSShapeGroup"></path>
                <path d="M113.607,136.544 L109.869,162.68 L121.419,162.68 L117.68,136.544 L113.607,136.544" id="Fill-138" fill="#2E2F2C" sketch:type="MSShapeGroup"></path>
                <path d="M104.805,113.894 L103.856,117.579 L106.508,136.777 L115.7,127.455 L104.805,113.894" id="Fill-139" fill="#EEEEEA" sketch:type="MSShapeGroup"></path>
                <path d="M115.905,116.907 C115.812,116.907 115.718,116.905 115.625,116.9 C110.342,116.663 104.805,110.09 104.805,110.09 L104.805,109.308 L126.485,109.335 L126.485,110.536 C126.485,110.536 121.103,116.907 115.905,116.907" id="Fill-140" fill="#BA9779" sketch:type="MSShapeGroup"></path>
                <path d="M115.662,52.888 C82.31,52.888 95.093,98.574 97.271,102.074 C99.674,105.935 110.275,114.441 115.662,114.441 C121.052,114.441 131.651,105.935 134.056,102.074 C136.234,98.574 149.017,52.888 115.662,52.888" id="Fill-141" fill="#F2C39A" sketch:type="MSShapeGroup"></path>
                <path d="M113.971,62.667 C113.783,62.608 113.596,62.554 113.409,62.498 C113.688,62.567 113.967,62.639 114.245,62.718 C114.153,62.699 114.063,62.684 113.971,62.667 L113.971,62.667 Z M131.044,53.955 C119.553,43.817 97.05,56.762 91.797,64.147 C93.917,71.573 92.885,81.042 94.442,91.587 L94.441,91.541 C94.459,91.648 94.48,91.755 94.509,91.869 L94.755,92.264 C94.81,92.363 95.219,92.256 95.354,92.189 L95.427,92.048 C95.49,91.118 95.434,89.273 95.432,89.253 C95.309,87.801 95.515,86.328 95.302,84.908 C96.356,78.261 95.505,77.982 99.138,71.342 C99.444,70.782 101.389,68.513 101.652,68.308 C107.715,66.088 109.828,69.787 115.55,72.122 C117.737,73.016 121.034,73.076 123.454,73.076 C127.225,73.076 130.879,68.936 130.955,68.065 C135.488,75.069 135.952,80.075 137.283,86.091 C137.102,87.135 136.905,88.18 136.814,89.253 C136.811,89.273 136.755,91.118 136.817,92.048 L136.892,92.189 C137.026,92.256 137.436,92.363 137.489,92.264 L137.735,91.869 C137.839,91.467 137.859,91.129 137.88,90.725 C137.948,90.2 138.042,89.636 138.111,89.068 C139.85,82.558 143.044,56.751 131.044,53.955 L131.044,53.955 Z" id="Fill-142" fill="#564C3D" sketch:type="MSShapeGroup"></path>
                <path d="M126.485,113.894 L127.233,117.52 L124.741,136.97 L115.7,127.455 L126.485,113.894" id="Fill-143" fill="#EEEEEA" sketch:type="MSShapeGroup"></path>
                <path d="M115.7,127.455 L115.701,127.455 L115.7,127.455" id="Fill-144" fill="#306A66" sketch:type="MSShapeGroup"></path>
                <path d="M115.701,127.455 L115.7,127.455 L104.805,113.894 L104.805,113.569 L115.7,127.071 L126.485,113.569 L126.485,113.894 L115.7,127.455" id="Fill-145" fill="#E2B691" sketch:type="MSShapeGroup"></path>
                <path d="M117.699,136.678 L117.699,136.678 L117.68,136.544 L117.699,136.678" id="Fill-146" fill="#2C6360" sketch:type="MSShapeGroup"></path>
                <path d="M117.699,136.678 L113.589,136.678 L113.607,136.544 L117.68,136.544 L117.699,136.678" id="Fill-147" fill="#292A28" sketch:type="MSShapeGroup"></path>
                <path d="M84.106,162.132 L135.897,157.447 L137.969,173.89 C137.969,173.89 92.488,178.787 76.993,179.714 C61.498,180.641 65.233,162.211 65.233,162.211 L84.106,162.132" id="Fill-148" fill="#33706C" sketch:type="MSShapeGroup"></path>
                <path d="M138.479,158.75 C138.479,158.75 146.435,157.447 147.416,160.774 C147.801,162.075 148.125,164.17 147.458,165.351 C146.638,166.804 139.629,171.216 139.629,171.216 L138.479,158.75" id="Fill-149" fill="#F2C39A" sketch:type="MSShapeGroup"></path>
                <path d="M139.629,171.216 L138.479,157.447 L135.906,157.447 L137.051,171.813 L139.629,171.216" id="Fill-150" fill="#FFFFFF" sketch:type="MSShapeGroup"></path>
                <path d="M166.057,162.211 C166.057,162.211 170.586,180.675 155.001,179.748 C139.416,178.821 94.766,171.863 94.766,171.863 L96.075,155.388 L147.073,162.132 L166.057,162.211" id="Fill-151" fill="#33706C" sketch:type="MSShapeGroup"></path>
                <path d="M93.445,157.422 C93.445,157.422 85.18,155.591 84.509,159.445 C84.287,160.718 83.8,161.914 84.467,163.095 C85.287,164.548 92.297,169.888 92.297,169.888 L93.445,157.422" id="Fill-152" fill="#F2C39A" sketch:type="MSShapeGroup"></path>
                <path d="M92.297,169.888 L93.445,156.119 L96.018,156.119 L94.875,170.484 L92.297,169.888" id="Fill-153" fill="#FFFFFF" sketch:type="MSShapeGroup"></path>
                <path d="M94.803,171.391 L92.294,170.817 C92.294,170.817 85.291,164.552 84.467,163.096 C85.291,164.552 92.294,169.89 92.294,169.89 L93.88,170.254 L94.875,170.484 L94.803,171.391" id="Fill-154" fill="#275754" sketch:type="MSShapeGroup"></path>
                <path d="M94.805,171.392 L94.803,171.391 L94.875,170.484 L94.875,170.483 L94.878,170.483 L94.805,171.392" id="Fill-155" fill="#275754" sketch:type="MSShapeGroup"></path>
                <path d="M84.467,163.096 L84.467,163.096 C84.462,163.087 84.457,163.078 84.452,163.07 C84.457,163.078 84.462,163.087 84.467,163.096 M84.452,163.07 C84.127,162.501 84.089,162.784 84.159,162.191 C84.181,162.347 84.217,162.503 84.271,162.659 C84.316,162.796 84.376,162.934 84.452,163.07" id="Fill-156" fill="#275754" sketch:type="MSShapeGroup"></path>
                <path d="M84.271,162.659 C84.217,162.503 84.181,162.347 84.159,162.191 C84.159,162.184 84.16,162.176 84.161,162.169 C84.181,162.33 84.216,162.495 84.271,162.659" id="Fill-157" fill="#BA9779" sketch:type="MSShapeGroup"></path>
                <path d="M94.875,170.484 L94.875,170.484 L93.88,170.254 L94.875,170.483 L94.875,170.484" id="Fill-158" fill="#C7C7C2" sketch:type="MSShapeGroup"></path>
                <path d="M116.963,176.091 C116.952,176.089 116.94,176.088 116.929,176.086 C118.23,175.954 119.5,175.824 120.733,175.697 C120.745,175.699 120.758,175.701 120.77,175.702 C119.538,175.831 118.268,175.962 116.963,176.091" id="Fill-159" fill="#25847C" sketch:type="MSShapeGroup"></path>
                <path d="M116.929,176.086 C104.754,174.346 94.768,172.791 94.768,172.791 L94.841,171.875 C94.904,171.885 95.007,171.901 95.148,171.922 C97.308,172.261 108.343,173.958 120.733,175.697 C119.5,175.824 118.23,175.954 116.929,176.086" id="Fill-160" fill="#275754" sketch:type="MSShapeGroup"></path>
                <path d="M95.148,171.922 C95.007,171.901 94.904,171.885 94.841,171.875 L94.841,171.874 C94.904,171.884 95.007,171.901 95.148,171.922" id="Fill-161" fill="#275754" sketch:type="MSShapeGroup"></path>
                <path d="M213.565,139.91 C212.734,143.568 211.702,147.149 210.48,150.641 L211.355,150.947 C212.588,147.422 213.63,143.807 214.469,140.116 L213.565,139.91 M206.205,160.954 C204.582,164.319 202.775,167.579 200.798,170.72 L201.582,171.214 C203.578,168.043 205.402,164.753 207.04,161.357 L206.205,160.954 M194.332,179.82 C192.008,182.731 189.523,185.51 186.893,188.141 L187.548,188.797 C190.203,186.141 192.71,183.337 195.056,180.398 L194.332,179.82 M178.575,195.582 C175.672,197.901 172.636,200.061 169.481,202.049 L169.975,202.833 C173.159,200.827 176.223,198.647 179.153,196.306 L178.575,195.582 M159.723,207.457 C156.386,209.068 152.946,210.498 149.415,211.735 L149.722,212.61 C153.286,211.361 156.758,209.918 160.126,208.291 L159.723,207.457 M138.692,214.824 C135.094,215.643 131.423,216.268 127.689,216.685 L127.792,217.607 C131.56,217.185 135.266,216.555 138.897,215.728 L138.692,214.824 M116.546,217.308 L116.493,217.308 C112.744,217.308 109.044,217.101 105.403,216.697 L105.301,217.618 C108.976,218.026 112.71,218.235 116.493,218.235 L116.546,218.235 L116.546,217.308 M94.398,214.847 C90.74,214.018 87.159,212.988 83.666,211.768 L83.361,212.643 C86.886,213.874 90.501,214.914 94.193,215.751 L94.398,214.847 M73.351,207.499 C69.985,205.877 66.724,204.072 63.581,202.096 L63.088,202.881 C66.26,204.875 69.551,206.697 72.948,208.334 L73.351,207.499 M54.479,195.635 C51.566,193.312 48.786,190.83 46.153,188.2 L45.498,188.856 C48.156,191.51 50.961,194.015 53.901,196.36 L54.479,195.635 M38.708,179.886 C36.388,176.984 34.226,173.95 32.237,170.795 L31.453,171.29 C33.461,174.473 35.642,177.536 37.984,180.465 L38.708,179.886 M26.824,161.041 C25.211,157.705 23.779,154.265 22.54,150.735 L21.665,151.042 C22.916,154.605 24.361,158.077 25.989,161.444 L26.824,161.041 M19.445,140.013 C18.624,136.416 17.998,132.745 17.578,129.011 L16.657,129.114 C17.081,132.883 17.713,136.589 18.542,140.219 L19.445,140.013 M16.95,117.869 L16.95,117.764 C16.95,114.032 17.155,110.35 17.555,106.726 L16.633,106.624 C16.23,110.282 16.023,113.998 16.023,117.764 L16.023,117.87 L16.95,117.869 M19.399,95.719 C20.226,92.061 21.255,88.479 22.472,84.986 L21.597,84.681 C20.368,88.207 19.33,91.823 18.495,95.515 L19.399,95.72 L19.399,95.719 M26.737,74.668 C28.356,71.301 30.159,68.04 32.134,64.896 L31.349,64.403 C29.356,67.576 27.536,70.868 25.901,74.266 L26.737,74.668 M38.59,55.79 C40.911,52.876 43.393,50.095 46.021,47.461 L45.365,46.806 C42.712,49.465 40.208,52.271 37.865,55.212 L38.59,55.79 M54.331,40.011 C57.232,37.689 60.265,35.526 63.418,33.535 L62.923,32.751 C59.741,34.761 56.679,36.944 53.752,39.287 L54.331,40.011 M73.17,28.117 C76.505,26.502 79.944,25.068 83.473,23.827 L83.166,22.953 C79.603,24.205 76.132,25.653 72.766,27.283 L73.17,28.117 M94.194,20.728 C97.791,19.904 101.461,19.276 105.195,18.854 L105.091,17.933 C101.323,18.359 97.617,18.993 93.987,19.824 L94.194,20.727 L94.194,20.728 M116.336,18.22 L116.493,18.22 C120.206,18.22 123.872,18.424 127.48,18.82 L127.581,17.898 C123.94,17.498 120.241,17.293 116.493,17.293 L116.335,17.293 L116.336,18.22 M138.487,20.658 C142.146,21.483 145.728,22.51 149.222,23.726 L149.527,22.85 C146,21.623 142.384,20.587 138.691,19.754 L138.487,20.658 M159.542,27.984 C162.91,29.602 166.173,31.404 169.317,33.377 L169.81,32.591 C166.636,30.6 163.343,28.782 159.944,27.149 L159.542,27.984 M178.427,39.828 C181.342,42.148 184.124,44.628 186.76,47.254 L187.414,46.598 C184.754,43.947 181.946,41.444 179.004,39.103 L178.427,39.828 M194.214,55.561 C196.537,58.46 198.702,61.492 200.695,64.644 L201.478,64.149 C199.467,60.968 197.282,57.907 194.937,54.981 L194.214,55.561 M206.118,74.394 C207.734,77.728 209.17,81.166 210.413,84.695 L211.287,84.387 C210.033,80.825 208.584,77.355 206.952,73.989 L206.118,74.394 M213.518,95.414 C214.344,99.01 214.974,102.68 215.398,106.414 L216.318,106.309 C215.891,102.541 215.255,98.836 214.422,95.206 L213.518,95.413 L213.518,95.414 M216.037,117.555 L216.037,117.764 C216.037,121.531 215.828,125.248 215.421,128.906 L216.342,129.009 C216.753,125.317 216.964,121.565 216.964,117.764 L216.964,117.553 L216.037,117.555" id="Fill-162" fill="#FEFEFE" sketch:type="MSShapeGroup"></path>
                <g id="Group-165" transform="translate(5.000000, 99.000000)">
                    <mask id="mask-2" sketch:name="Clip 164" fill="white">
                        <use xlink:href="#path-1"></use>
                    </mask>
                    <g id="Clip-164"></g>
                    <path d="M5.281,26.544 L13.994,26.544 L13.994,32.548 L5.281,32.548 L5.281,26.544 Z M5.281,22.241 L5.281,20.266 C5.281,19.241 5.447,18.361 5.775,17.629 C6.106,16.897 6.527,16.263 7.038,15.727 C7.553,15.189 8.094,14.719 8.669,14.315 C9.24,13.913 9.783,13.523 10.297,13.146 C10.811,12.768 11.23,12.376 11.56,11.974 C11.889,11.57 12.054,11.101 12.054,10.564 C12.054,10.149 11.896,9.802 11.578,9.521 C11.262,9.24 10.687,9.1 9.857,9.1 C9.15,9.1 8.441,9.167 7.734,9.302 C7.025,9.436 6.342,9.606 5.686,9.813 C5.026,10.021 4.397,10.254 3.799,10.509 C3.2,10.765 2.646,11.016 2.134,11.26 L0.192,3.792 C0.853,3.475 1.589,3.15 2.407,2.821 C3.226,2.492 4.115,2.193 5.08,1.925 C6.044,1.656 7.088,1.43 8.211,1.247 C9.333,1.064 10.516,0.973 11.763,0.973 C13.396,0.973 14.872,1.174 16.191,1.577 C17.508,1.979 18.626,2.541 19.54,3.261 C20.455,3.98 21.157,4.822 21.646,5.786 C22.133,6.751 22.378,7.794 22.378,8.917 C22.378,10.356 22.17,11.529 21.754,12.431 C21.341,13.334 20.826,14.097 20.218,14.719 C19.607,15.342 18.937,15.878 18.204,16.33 C17.472,16.781 16.801,17.258 16.191,17.757 C15.581,18.259 15.068,18.856 14.653,19.552 C14.239,20.247 14.031,21.144 14.031,22.241 L5.281,22.241 L5.281,22.241 Z" id="Fill-163" sketch:type="MSShapeGroup" mask="url(#mask-2)"></path>
                </g>
                <path d="M10.281,125.544 L18.994,125.544 L18.994,131.548 L10.281,131.548 L10.281,125.544 Z" id="Fill-166" fill="#DE4446" sketch:type="MSShapeGroup"></path>
                <path d="M26.646,104.786 C26.157,103.822 25.455,102.98 24.54,102.261 C23.626,101.541 22.508,100.979 21.191,100.577 C19.872,100.174 18.396,99.973 16.762,99.973 C15.516,99.973 14.332,100.064 13.211,100.247 C12.087,100.43 11.044,100.656 10.08,100.925 C9.115,101.193 8.225,101.492 7.407,101.821 C6.589,102.15 5.853,102.475 5.192,102.792 L7.133,110.26 C7.646,110.016 8.2,109.765 8.799,109.509 C9.397,109.254 10.025,109.021 10.685,108.813 C11.342,108.606 12.025,108.436 12.734,108.302 C13.441,108.167 14.149,108.1 14.857,108.1 C15.687,108.1 16.26,108.24 16.578,108.521 C16.896,108.802 17.054,109.149 17.054,109.564 C17.054,110.101 16.889,110.57 16.56,110.974 C16.23,111.376 15.81,111.768 15.297,112.146 C14.783,112.523 14.24,112.913 13.668,113.315 C13.094,113.719 12.551,114.189 12.038,114.727 C11.526,115.263 11.105,115.897 10.775,116.629 C10.446,117.361 10.281,118.241 10.281,119.266 L10.281,121.241 L19.031,121.241 C19.031,120.144 19.239,119.247 19.652,118.552 C20.067,117.856 20.58,117.259 21.191,116.757 C21.801,116.258 22.472,115.781 23.204,115.33 C23.936,114.878 24.607,114.342 25.218,113.719 C25.826,113.097 26.34,112.334 26.754,111.431 C27.17,110.529 27.377,109.356 27.377,107.917 C27.377,106.794 27.133,105.751 26.646,104.786" id="Fill-167" fill="#DE4446" sketch:type="MSShapeGroup"></path>
                <path d="M16.794,93.074 L16.794,81.423 C16.794,81.112 16.543,80.861 16.232,80.861 C15.922,80.861 15.67,81.112 15.67,81.423 L15.67,93.074 C15.67,93.385 15.922,93.636 16.232,93.636 C16.543,93.636 16.794,93.385 16.794,93.074" id="Fill-168" fill="#393F45" sketch:type="MSShapeGroup"></path>
                <path d="M26.276,97.006 L31.517,91.141 C31.758,90.871 31.735,90.457 31.465,90.215 C31.195,89.974 30.781,89.998 30.54,90.267 L25.298,96.133 C25.057,96.403 25.081,96.817 25.35,97.058 C25.62,97.299 26.035,97.276 26.276,97.006" id="Fill-169" fill="#393F45" sketch:type="MSShapeGroup"></path>
                <path d="M7.273,96.133 L2.031,90.267 C1.789,89.998 1.375,89.974 1.105,90.216 C0.835,90.457 0.812,90.871 1.053,91.141 L6.296,97.006 C6.537,97.276 6.951,97.299 7.221,97.058 C7.491,96.817 7.514,96.402 7.273,96.133" id="Fill-170" fill="#393F45" sketch:type="MSShapeGroup"></path>
                <path d="M228.667,118.039 L210.6,136.105 L193.678,119.183 L216.137,96.723 L229.063,109.65" id="Fill-171" fill="#FFFFFF" sketch:type="MSShapeGroup"></path>
                <path d="M229.063,109.65 L228.667,118.039 L224.671,114.044 L229.063,109.65" id="Fill-172" fill="#ADADAA" sketch:type="MSShapeGroup"></path>
                <path d="M209.548,107.091 L222.359,119.903 C222.575,120.119 222.925,120.119 223.141,119.903 C223.357,119.687 223.357,119.337 223.141,119.121 L210.331,106.309 C210.115,106.093 209.764,106.093 209.548,106.309 C209.332,106.525 209.332,106.875 209.548,107.091" id="Fill-173" fill="#ADADAA" sketch:type="MSShapeGroup"></path>
                <path d="M207.679,108.96 L220.492,121.771 C220.708,121.987 221.058,121.987 221.274,121.771 C221.49,121.555 221.49,121.205 221.274,120.989 L208.461,108.178 C208.245,107.962 207.895,107.962 207.679,108.178 C207.463,108.394 207.463,108.744 207.679,108.96" id="Fill-174" fill="#ADADAA" sketch:type="MSShapeGroup"></path>
                <path d="M205.812,110.827 L218.622,123.64 C218.839,123.856 219.189,123.856 219.405,123.64 C219.621,123.424 219.621,123.074 219.405,122.858 L206.594,110.044 C206.378,109.828 206.028,109.828 205.812,110.044 C205.596,110.26 205.596,110.611 205.812,110.827" id="Fill-175" fill="#ADADAA" sketch:type="MSShapeGroup"></path>
                <path d="M203.943,112.696 L216.754,125.508 C216.97,125.724 217.321,125.724 217.537,125.508 C217.753,125.292 217.753,124.942 217.537,124.726 L204.725,111.914 C204.509,111.698 204.159,111.698 203.943,111.914 C203.727,112.13 203.727,112.48 203.943,112.696" id="Fill-176" fill="#ADADAA" sketch:type="MSShapeGroup"></path>
                <path d="M202.075,114.565 L214.886,127.376 C215.102,127.592 215.452,127.592 215.668,127.376 C215.884,127.16 215.884,126.81 215.668,126.594 L202.857,113.783 C202.641,113.567 202.291,113.567 202.075,113.783 C201.859,113.999 201.859,114.349 202.075,114.565" id="Fill-177" fill="#ADADAA" sketch:type="MSShapeGroup"></path>
                <path d="M200.207,116.433 L213.018,129.245 C213.234,129.461 213.584,129.461 213.8,129.245 C214.016,129.029 214.016,128.678 213.8,128.462 L200.989,115.651 C200.773,115.435 200.423,115.435 200.207,115.651 C199.991,115.867 199.991,116.217 200.207,116.433" id="Fill-178" fill="#ADADAA" sketch:type="MSShapeGroup"></path>
                <path d="M219.582,110.616 L212.977,104.011 L216.071,100.917 L222.675,107.521 L219.582,110.616" id="Fill-179" fill="#ADADAA" sketch:type="MSShapeGroup"></path>
                <path d="M219.582,110.616 L219.973,110.225 L213.759,104.011 L216.071,101.699 L221.893,107.521 L219.191,110.225 L219.582,110.616 L219.973,110.225 L219.582,110.616 L219.973,111.007 L223.066,107.912 C223.282,107.696 223.282,107.346 223.066,107.13 L216.462,100.526 C216.246,100.31 215.896,100.31 215.68,100.526 L212.586,103.62 C212.482,103.723 212.423,103.865 212.423,104.011 C212.423,104.156 212.482,104.299 212.585,104.402 L219.191,111.007 C219.295,111.112 219.434,111.169 219.582,111.169 C219.73,111.169 219.869,111.112 219.973,111.007 L219.582,110.616" id="Fill-180" fill="#ADADAA" sketch:type="MSShapeGroup"></path>
                <path d="M135.369,10.631 L108.285,2.189 C106.47,1.624 104.534,2.64 103.969,4.453 L97.72,24.501 C97.154,26.316 98.171,28.25 99.986,28.814 L127.069,37.257 C128.884,37.823 130.822,36.811 131.388,34.995 L137.636,14.948 C138.202,13.134 137.184,11.197 135.369,10.631" id="Fill-181" fill="#FFFFFF" sketch:type="MSShapeGroup"></path>
                <path d="M136.699,14.951 C137.18,13.409 136.315,11.751 134.772,11.271 L108.414,3.054 C106.876,2.575 105.217,3.447 104.736,4.988 L103.011,10.526 L134.974,20.489 L136.699,14.951" id="Fill-182" fill="#3F6E86" sketch:type="MSShapeGroup"></path>
                <path d="M116.376,8.405 C115.932,9.828 114.415,10.625 112.996,10.183 C111.574,9.738 110.784,8.226 111.228,6.802 C111.67,5.382 113.179,4.587 114.602,5.031 C116.021,5.473 116.817,6.986 116.376,8.405" id="Fill-183" fill="#A6D2E3" sketch:type="MSShapeGroup"></path>
                <path d="M130.237,12.727 C129.794,14.149 128.281,14.947 126.855,14.503 C125.44,14.061 124.645,12.545 125.088,11.122 C125.53,9.702 127.046,8.909 128.462,9.351 C129.887,9.795 130.679,11.308 130.237,12.727" id="Fill-184" fill="#A6D2E3" sketch:type="MSShapeGroup"></path>
                <path d="M134.906,20.705 L102.943,10.742 L103.079,10.306 L135.042,20.268 L134.906,20.705" id="Fill-185" fill="#ADADAA" sketch:type="MSShapeGroup"></path>
                <path d="M116.397,1.299 L116.303,1.232 L116.229,1.227 L116.071,1.16 L115.591,1.011 C114.63,0.712 113.601,1.253 113.3,2.214 L111.81,6.998 C111.512,7.958 112.052,8.984 113.012,9.283 C113.012,9.283 113.729,9.512 113.925,9.507 C114.743,9.557 115.527,9.052 115.782,8.236 L117.273,3.452 C117.538,2.606 117.148,1.707 116.397,1.299" id="Fill-186" fill="#152830" sketch:type="MSShapeGroup"></path>
                <path d="M130.26,5.621 L130.165,5.553 L130.091,5.547 L129.935,5.481 L129.453,5.331 C128.494,5.032 127.462,5.574 127.162,6.536 L125.672,11.318 C125.373,12.278 125.914,13.306 126.875,13.604 C126.875,13.604 127.592,13.832 127.787,13.828 C128.605,13.877 129.391,13.372 129.645,12.558 L131.137,7.773 C131.399,6.927 131.011,6.027 130.26,5.621" id="Fill-187" fill="#152830" sketch:type="MSShapeGroup"></path>
                <path d="M112.163,26.446 C112.762,25.954 113.208,25.595 113.504,25.368 C114.634,24.506 115.358,23.893 115.717,23.5 C116.383,22.784 116.864,21.96 117.148,21.053 C117.435,20.131 117.36,19.211 116.927,18.319 C116.49,17.419 115.797,16.817 114.863,16.526 C113.866,16.215 112.942,16.274 112.129,16.702 C111.224,17.164 110.56,18.025 110.154,19.258 C110.085,19.468 110.104,19.696 110.204,19.892 C110.306,20.087 110.48,20.234 110.691,20.3 L111.72,20.62 C112.152,20.755 112.614,20.514 112.749,20.081 L112.769,20.018 C112.841,19.785 112.936,19.588 113.043,19.447 C113.445,18.92 113.782,18.941 114.032,19.02 C114.289,19.099 114.462,19.259 114.561,19.495 C114.66,19.748 114.662,20.016 114.569,20.314 C114.44,20.729 114.188,21.157 113.822,21.583 C113.348,22.133 112.694,22.723 111.883,23.339 C110.997,24.014 110.35,24.505 109.933,24.814 L109.215,25.372 C108.979,25.558 108.768,25.728 108.575,25.883 C108.229,26.171 108.079,26.304 108.015,26.364 C107.913,26.462 107.838,26.583 107.796,26.717 L107.411,27.951 C107.276,28.385 107.518,28.847 107.951,28.981 L113.146,30.6 C113.579,30.734 114.039,30.493 114.175,30.06 L114.491,29.04 C114.627,28.606 114.386,28.146 113.952,28.01 L111.271,27.176 C111.387,27.079 111.516,26.971 111.66,26.854 L112.163,26.446" id="Fill-188" fill="#ADADAA" sketch:type="MSShapeGroup"></path>
                <path d="M121.637,30.405 L118.955,29.57 C119.068,29.474 119.2,29.366 119.344,29.248 L119.847,28.84 C120.444,28.35 120.892,27.989 121.188,27.763 C122.314,26.901 123.039,26.289 123.4,25.894 C124.067,25.178 124.549,24.354 124.831,23.448 C125.119,22.525 125.045,21.605 124.609,20.715 C124.173,19.813 123.479,19.211 122.548,18.922 C121.549,18.61 120.626,18.669 119.812,19.096 C118.906,19.56 118.242,20.42 117.838,21.653 C117.769,21.863 117.787,22.092 117.888,22.286 C117.989,22.482 118.164,22.63 118.374,22.695 L119.402,23.016 C119.836,23.15 120.298,22.908 120.433,22.476 L120.452,22.413 C120.524,22.179 120.619,21.982 120.727,21.843 C121.128,21.314 121.466,21.336 121.716,21.414 C121.973,21.493 122.146,21.654 122.245,21.89 C122.344,22.143 122.347,22.411 122.253,22.71 C122.123,23.126 121.871,23.553 121.506,23.978 C121.031,24.528 120.379,25.117 119.565,25.733 C118.681,26.409 118.033,26.899 117.616,27.209 L116.897,27.767 C116.663,27.952 116.449,28.122 116.259,28.278 C115.912,28.566 115.762,28.699 115.699,28.76 C115.598,28.856 115.521,28.978 115.479,29.111 L115.094,30.346 C114.959,30.78 115.202,31.241 115.635,31.376 L120.829,32.995 C121.262,33.13 121.724,32.888 121.858,32.454 L122.176,31.435 C122.311,31.003 122.069,30.541 121.637,30.405" id="Fill-189" fill="#ADADAA" sketch:type="MSShapeGroup"></path>
                <g id="Group-192" transform="translate(173.000000, 36.000000)">
                    <mask id="mask-4" sketch:name="Clip 191" fill="white">
                        <use xlink:href="#path-3"></use>
                    </mask>
                    <g id="Clip-191"></g>
                    <path d="M29.647,11.742 C31.447,19.59 26.545,27.414 18.69,29.219 C10.843,31.019 3.018,26.116 1.216,18.267 C-0.585,10.417 4.316,2.586 12.165,0.786 C20.019,-1.018 27.845,3.891 29.647,11.742" id="Fill-190" sketch:type="MSShapeGroup" mask="url(#mask-4)"></path>
                </g>
                <path d="M204.362,47.348 C206.38,56.14 200.887,64.917 192.086,66.935 C183.291,68.955 174.518,63.455 172.501,54.661 C170.48,45.861 175.977,37.092 184.771,35.073 C193.572,33.053 202.343,38.546 204.362,47.348" id="Fill-193" fill="#2D4C5F" sketch:type="MSShapeGroup"></path>
                <path d="M184.793,35.167 C193.532,33.16 202.24,38.62 204.246,47.356 C206.25,56.087 200.795,64.799 192.056,66.805 C183.322,68.81 174.612,63.351 172.608,54.618 C170.602,45.882 176.06,37.171 184.793,35.167" id="Fill-194" fill="#2D4C5F" sketch:type="MSShapeGroup"></path>
                <path d="M184.815,35.265 C193.492,33.274 202.137,38.69 204.127,47.363 C206.119,56.036 200.701,64.685 192.025,66.675 C183.354,68.667 174.708,63.247 172.717,54.574 C170.727,45.899 176.144,37.256 184.815,35.265" id="Fill-195" fill="#2D4C5F" sketch:type="MSShapeGroup"></path>
                <path d="M184.838,35.359 C193.452,33.383 202.036,38.764 204.013,47.372 C205.987,55.982 200.61,64.564 191.994,66.541 C183.388,68.517 174.803,63.14 172.826,54.53 C170.85,45.922 176.23,37.336 184.838,35.359" id="Fill-196" fill="#2D4C5F" sketch:type="MSShapeGroup"></path>
                <path d="M184.86,35.455 C193.412,33.491 201.932,38.832 203.894,47.377 C205.857,55.93 200.519,64.45 191.966,66.411 C183.418,68.374 174.898,63.035 172.935,54.484 C170.973,45.939 176.313,37.417 184.86,35.455" id="Fill-197" fill="#2D4C5F" sketch:type="MSShapeGroup"></path>
                <path d="M184.881,35.549 C193.371,33.601 201.826,38.905 203.774,47.388 C205.723,55.878 200.428,64.334 191.937,66.283 C183.451,68.229 174.995,62.931 173.046,54.441 C171.098,45.959 176.396,37.497 184.881,35.549" id="Fill-198" fill="#2D4C5F" sketch:type="MSShapeGroup"></path>
                <path d="M203.662,47.396 C205.596,55.823 200.336,64.218 191.906,66.153 C183.486,68.085 175.084,62.825 173.151,54.398 C171.216,45.973 176.482,37.576 184.902,35.642 C193.331,33.707 201.727,38.968 203.662,47.396" id="Fill-199" fill="#2D4C5F" sketch:type="MSShapeGroup"></path>
                <path d="M191.35,63.727 C184.338,65.336 177.318,60.939 175.709,53.925 C174.097,46.908 178.496,39.893 185.509,38.283 C192.527,36.673 199.544,41.067 201.153,48.084 C202.764,55.099 198.369,62.115 191.35,63.727" id="Fill-200" fill="#A6D2E3" sketch:type="MSShapeGroup"></path>
                <path d="M182.423,49.997 L190.903,52.313 L190.571,53.519 L182.093,51.205 L182.423,49.997" id="Fill-201" fill="#2D4C5F" sketch:type="MSShapeGroup"></path>
                <path d="M195.787,45.042 L187.671,54.177 L187.082,53.656 L195.203,44.524 L195.787,45.042" id="Fill-202" fill="#2D4C5F" sketch:type="MSShapeGroup"></path>
                <path d="M204.756,51.896 L204.756,51.881 L204.756,51.896 M204.758,51.845 C204.758,51.843 204.759,51.841 204.759,51.839 C204.759,51.841 204.758,51.843 204.758,51.845 M204.761,51.795 C204.828,50.402 204.716,48.979 204.408,47.554 C204.716,48.979 204.828,50.402 204.761,51.795" id="Fill-203" fill="#247A73" sketch:type="MSShapeGroup"></path>
                <path d="M192.089,66.935 L192.059,66.804 C200.796,64.797 206.25,56.086 204.246,47.356 C202.521,39.842 195.837,34.752 188.44,34.752 C187.238,34.752 186.018,34.886 184.797,35.166 L184.775,35.073 C186.006,34.791 187.234,34.656 188.445,34.656 C195.893,34.656 202.625,39.779 204.362,47.348 C204.378,47.416 204.393,47.485 204.408,47.554 C204.716,48.979 204.828,50.402 204.761,51.795 C204.76,51.81 204.759,51.824 204.759,51.839 C204.759,51.841 204.758,51.843 204.758,51.845 C204.758,51.857 204.757,51.869 204.756,51.881 L204.756,51.896 C204.37,58.986 199.357,65.264 192.089,66.935" id="Fill-204" fill="#213743" sketch:type="MSShapeGroup"></path>
                <path d="M192.059,66.804 L192.029,66.674 C200.703,64.682 206.119,56.035 204.127,47.363 C202.415,39.902 195.78,34.853 188.436,34.853 C187.243,34.853 186.031,34.986 184.819,35.264 L184.797,35.166 C186.018,34.886 187.238,34.752 188.44,34.752 C195.837,34.752 202.521,39.842 204.246,47.356 C206.25,56.086 200.796,64.797 192.059,66.804" id="Fill-205" fill="#213743" sketch:type="MSShapeGroup"></path>
                <path d="M192.029,66.674 L191.998,66.54 C200.612,64.561 205.987,55.981 204.013,47.372 C202.312,39.967 195.724,34.95 188.431,34.95 C187.247,34.95 186.044,35.083 184.841,35.359 L184.819,35.264 C186.031,34.986 187.243,34.853 188.436,34.853 C195.78,34.853 202.415,39.902 204.127,47.363 C206.119,56.035 200.703,64.682 192.029,66.674" id="Fill-206" fill="#213743" sketch:type="MSShapeGroup"></path>
                <path d="M191.998,66.54 L191.969,66.411 C200.519,64.448 205.856,55.929 203.894,47.377 C202.206,40.027 195.668,35.049 188.43,35.049 C187.254,35.049 186.058,35.18 184.863,35.455 L184.841,35.359 C186.044,35.083 187.247,34.95 188.431,34.95 C195.724,34.95 202.312,39.967 204.013,47.372 C205.987,55.981 200.612,64.561 191.998,66.54" id="Fill-207" fill="#213743" sketch:type="MSShapeGroup"></path>
                <path d="M191.969,66.411 L191.939,66.283 C200.429,64.332 205.722,55.877 203.774,47.388 C202.098,40.091 195.608,35.146 188.422,35.146 C187.255,35.146 186.07,35.276 184.884,35.548 L184.863,35.455 C186.058,35.18 187.254,35.049 188.43,35.049 C195.668,35.049 202.206,40.027 203.894,47.377 C205.856,55.929 200.519,64.448 191.969,66.411" id="Fill-208" fill="#213743" sketch:type="MSShapeGroup"></path>
                <path d="M191.939,66.283 L191.909,66.153 C200.337,64.216 205.595,55.822 203.662,47.396 C201.997,40.147 195.555,35.242 188.422,35.242 C187.262,35.242 186.084,35.371 184.906,35.642 L184.884,35.548 C186.07,35.276 187.255,35.146 188.422,35.146 C195.608,35.146 202.098,40.091 203.774,47.388 C205.722,55.877 200.429,64.332 191.939,66.283" id="Fill-209" fill="#213743" sketch:type="MSShapeGroup"></path>
                <path d="M191.909,66.153 L191.352,63.726 C198.37,62.114 202.763,55.098 201.153,48.084 C199.769,42.046 194.381,37.951 188.433,37.951 C187.469,37.951 186.49,38.058 185.512,38.282 L184.906,35.642 C186.084,35.371 187.262,35.242 188.422,35.242 C195.555,35.242 201.997,40.147 203.662,47.396 C205.595,55.822 200.337,64.216 191.909,66.153" id="Fill-210" fill="#213743" sketch:type="MSShapeGroup"></path>
                <path d="M191.352,63.726 L188.905,53.065 L190.571,53.519 L190.903,52.313 L189.635,51.966 L195.787,45.042 L195.203,44.524 L188.79,51.735 L188.587,51.68 L185.512,38.282 C186.49,38.058 187.469,37.951 188.433,37.951 C194.381,37.951 199.769,42.046 201.153,48.084 C202.763,55.098 198.37,62.114 191.352,63.726" id="Fill-211" fill="#7798A4" sketch:type="MSShapeGroup"></path>
                <path d="M190.571,53.519 L188.905,53.065 L188.855,52.845 L189.635,51.966 L190.903,52.313 L190.571,53.519 M188.639,51.905 L188.587,51.68 L188.79,51.735 L188.639,51.905" id="Fill-212" fill="#213743" sketch:type="MSShapeGroup"></path>
                <path d="M188.855,52.845 L188.639,51.905 L188.79,51.735 L195.203,44.524 L195.787,45.042 L189.635,51.966 L188.855,52.845" id="Fill-213" fill="#213743" sketch:type="MSShapeGroup"></path>
                <path d="M137.427,209.8 C137.447,209.762 138.634,207.949 138.641,205.599 C138.642,204.574 138.405,203.442 137.729,202.353 C137.054,201.262 135.949,200.226 134.261,199.356 C132.944,198.681 131.342,198.45 129.629,198.449 C127.454,198.449 125.089,198.828 122.891,199.236 C120.697,199.646 118.665,200.087 117.21,200.223 C116.955,200.247 116.682,200.26 116.396,200.26 C114.727,200.261 112.599,199.836 110.525,198.955 C108.448,198.075 106.425,196.741 104.927,194.946 C104.763,194.75 104.472,194.724 104.276,194.887 C104.08,195.051 104.054,195.343 104.217,195.539 C105.835,197.474 107.979,198.88 110.164,199.807 C112.35,200.733 114.576,201.183 116.396,201.184 C116.709,201.184 117.01,201.171 117.297,201.144 C118.847,200.996 120.88,200.551 123.061,200.145 C125.239,199.739 127.56,199.373 129.629,199.373 C131.259,199.372 132.725,199.603 133.837,200.178 C135.408,200.989 136.368,201.912 136.943,202.839 C137.517,203.768 137.715,204.712 137.716,205.599 C137.717,206.613 137.45,207.547 137.179,208.224 C137.044,208.561 136.91,208.835 136.81,209.021 C136.76,209.114 136.718,209.185 136.691,209.233 L136.659,209.284 L136.651,209.298 C136.512,209.512 136.573,209.798 136.788,209.937 C137.002,210.076 137.288,210.014 137.427,209.8" id="Fill-214" fill="#326065" sketch:type="MSShapeGroup"></path>
                <path d="M141.51,209.714 L101.236,200.594 C99.38,200.173 97.526,201.345 97.105,203.201 L92.84,222.033 C92.419,223.892 93.59,225.743 95.446,226.163 L135.719,235.284 C137.578,235.705 139.429,234.538 139.85,232.68 L144.114,213.848 C144.535,211.99 143.369,210.136 141.51,209.714" id="Fill-215" fill="#326065" sketch:type="MSShapeGroup"></path>
                <path d="M139.879,212.577 L101.866,203.968 C101.012,203.774 100.151,204.317 99.958,205.173 L96.486,220.497 L96.369,221.018 L96.253,221.532 C96.058,222.39 96.601,223.25 97.456,223.443 L135.469,232.053 C136.328,232.247 137.18,231.703 137.375,230.845 L137.49,230.33 L137.609,229.811 L141.079,214.486 C141.273,213.631 140.739,212.771 139.879,212.577" id="Fill-216" fill="#40888A" sketch:type="MSShapeGroup"></path>
                <path d="M141.775,210.246 L101.159,201.048 C101.018,201.016 100.874,201.128 100.836,201.296 C100.797,201.464 100.881,201.623 101.022,201.654 L141.638,210.853 C141.778,210.886 141.92,210.777 141.957,210.609 C141.995,210.44 141.916,210.278 141.775,210.246" id="Fill-217" fill="#ACDBDB" sketch:type="MSShapeGroup"></path>
                <path d="M137.92,213.49 L135.91,213.036 C135.197,212.874 134.483,213.323 134.322,214.034 L133.865,216.053 C133.704,216.765 134.155,217.474 134.868,217.635 L136.88,218.09 C137.596,218.252 138.306,217.807 138.467,217.095 L138.925,215.076 C139.086,214.365 138.637,213.653 137.92,213.49" id="Fill-218" fill="#326065" sketch:type="MSShapeGroup"></path>
                <path d="M131.374,212.008 L129.078,211.488 C128.44,211.345 127.809,211.742 127.665,212.378 L127.144,214.676 C127.001,215.31 127.398,215.942 128.036,216.088 L130.332,216.607 C130.964,216.75 131.605,216.354 131.75,215.718 L132.27,213.422 C132.413,212.784 132.005,212.151 131.374,212.008" id="Fill-219" fill="#326065" sketch:type="MSShapeGroup"></path>
                <path d="M121.348,214.573 L123.641,215.092 C124.275,215.235 124.915,214.838 125.059,214.203 L125.579,211.906 C125.724,211.269 125.316,210.637 124.684,210.493 L122.39,209.974 C121.755,209.83 121.118,210.227 120.974,210.864 L120.454,213.16 C120.31,213.796 120.713,214.43 121.348,214.573" id="Fill-220" fill="#326065" sketch:type="MSShapeGroup"></path>
                <path d="M114.656,213.057 L116.95,213.576 C117.582,213.72 118.223,213.322 118.365,212.686 L118.886,210.391 C119.029,209.754 118.623,209.12 117.992,208.977 L115.698,208.458 C115.061,208.314 114.424,208.711 114.279,209.347 L113.76,211.645 C113.616,212.279 114.018,212.912 114.656,213.057" id="Fill-221" fill="#326065" sketch:type="MSShapeGroup"></path>
                <path d="M107.965,211.541 L110.259,212.061 C110.897,212.206 111.535,211.807 111.679,211.173 L112.198,208.876 C112.344,208.24 111.939,207.607 111.301,207.462 L109.006,206.942 C108.369,206.799 107.737,207.196 107.592,207.832 L107.072,210.129 C106.929,210.766 107.328,211.396 107.965,211.541" id="Fill-222" fill="#326065" sketch:type="MSShapeGroup"></path>
                <path d="M135.371,225.394 L133.084,224.875 C132.449,224.732 131.808,225.137 131.665,225.77 L131.146,228.063 C131,228.703 131.406,229.336 132.041,229.479 L134.329,229.998 C134.966,230.142 135.603,229.745 135.748,229.105 L136.266,226.812 C136.41,226.178 136.009,225.537 135.371,225.394" id="Fill-223" fill="#326065" sketch:type="MSShapeGroup"></path>
                <path d="M128.542,223.847 L106.458,218.845 C105.743,218.684 105.032,219.139 104.871,219.851 L104.415,221.86 C104.253,222.576 104.701,223.288 105.415,223.449 L127.5,228.451 C128.215,228.613 128.931,228.165 129.093,227.449 L129.548,225.438 C129.709,224.727 129.257,224.009 128.542,223.847" id="Fill-224" fill="#326065" sketch:type="MSShapeGroup"></path>
                <path d="M104.514,205.925 L102.222,205.406 C101.587,205.262 100.948,205.658 100.804,206.296 L100.284,208.592 C100.14,209.228 100.545,209.861 101.18,210.005 L103.472,210.524 C104.109,210.668 104.744,210.27 104.889,209.635 L105.409,207.338 C105.553,206.702 105.15,206.069 104.514,205.925" id="Fill-225" fill="#326065" sketch:type="MSShapeGroup"></path>
                <path d="M136.573,219.439 L134.564,218.984 C133.85,218.822 133.137,219.27 132.976,219.982 L132.518,222.001 C132.357,222.712 132.809,223.421 133.521,223.583 L135.532,224.038 C136.249,224.2 136.959,223.754 137.12,223.043 L137.577,221.025 C137.738,220.313 137.29,219.602 136.573,219.439" id="Fill-226" fill="#326065" sketch:type="MSShapeGroup"></path>
                <path d="M130.027,217.957 L127.731,217.436 C127.094,217.292 126.461,217.689 126.317,218.327 L125.798,220.623 C125.653,221.259 126.052,221.892 126.689,222.035 L128.985,222.556 C129.616,222.698 130.258,222.302 130.402,221.666 L130.923,219.369 C131.066,218.733 130.658,218.1 130.027,217.957" id="Fill-227" fill="#326065" sketch:type="MSShapeGroup"></path>
                <path d="M120,220.521 L122.295,221.04 C122.929,221.184 123.568,220.786 123.712,220.15 L124.232,217.854 C124.376,217.218 123.969,216.584 123.336,216.441 L121.042,215.922 C120.408,215.778 119.771,216.175 119.627,216.811 L119.106,219.108 C118.964,219.743 119.367,220.377 120,220.521" id="Fill-228" fill="#326065" sketch:type="MSShapeGroup"></path>
                <path d="M113.309,219.005 L115.603,219.525 C116.234,219.667 116.875,219.27 117.019,218.635 L117.539,216.338 C117.682,215.702 117.276,215.068 116.645,214.926 L114.349,214.405 C113.713,214.262 113.076,214.658 112.932,215.296 L112.412,217.592 C112.269,218.227 112.672,218.861 113.309,219.005" id="Fill-229" fill="#326065" sketch:type="MSShapeGroup"></path>
                <path d="M106.617,217.489 L108.912,218.009 C109.55,218.154 110.188,217.756 110.332,217.12 L110.852,214.824 C110.996,214.188 110.592,213.555 109.954,213.411 L107.659,212.891 C107.021,212.746 106.39,213.144 106.245,213.781 L105.725,216.077 C105.581,216.713 105.981,217.346 106.617,217.489" id="Fill-230" fill="#326065" sketch:type="MSShapeGroup"></path>
                <path d="M103.167,211.873 L100.874,211.354 C100.239,211.211 99.601,211.607 99.457,212.243 L98.938,214.541 C98.793,215.175 99.197,215.809 99.833,215.952 L102.125,216.473 C102.762,216.616 103.397,216.218 103.542,215.582 L104.062,213.286 C104.206,212.649 103.803,212.017 103.167,211.873" id="Fill-231" fill="#326065" sketch:type="MSShapeGroup"></path>
                <path d="M101.825,217.796 L99.533,217.277 C98.898,217.133 98.258,217.537 98.114,218.172 L97.595,220.466 C97.45,221.104 97.855,221.737 98.49,221.882 L100.782,222.4 C101.419,222.545 102.055,222.148 102.199,221.509 L102.719,219.215 C102.862,218.581 102.462,217.94 101.825,217.796" id="Fill-232" fill="#326065" sketch:type="MSShapeGroup"></path>
                <g id="Group-235" transform="translate(138.000000, 232.000000)">
                    <mask id="mask-6" sketch:name="Clip 234" fill="white">
                        <use xlink:href="#path-5"></use>
                    </mask>
                    <g id="Clip-234"></g>
                    <path d="M0.03,0.702 L1.844,0.702 L1.844,3.003 L0.03,3.003 L0.03,0.702 Z" id="Fill-233" fill="#247D75" sketch:type="MSShapeGroup" mask="url(#mask-6)"></path>
                </g>
                <path d="M138.03,235.003 L134.488,231.831 L135.469,232.053 C135.586,232.079 135.704,232.092 135.82,232.092 C136.549,232.092 137.206,231.586 137.375,230.845 L137.49,230.33 L137.609,229.811 L141.079,214.486 C141.273,213.631 140.739,212.771 139.879,212.577 L103.881,204.424 L99.63,200.617 C99.906,200.547 100.192,200.51 100.484,200.51 C100.732,200.51 100.984,200.537 101.236,200.594 L141.51,209.714 C143.115,210.078 144.203,211.51 144.2,213.09 C144.2,213.34 144.172,213.594 144.114,213.848 L139.85,232.68 C139.848,232.687 139.846,232.694 139.844,232.702 C139.844,232.704 139.843,232.706 139.843,232.709 C139.842,232.714 139.84,232.719 139.839,232.724 C139.839,232.727 139.838,232.729 139.837,232.732 C139.836,232.737 139.835,232.743 139.833,232.749 C139.833,232.75 139.832,232.752 139.832,232.754 C139.83,232.761 139.828,232.768 139.827,232.775 C139.826,232.778 139.825,232.78 139.825,232.783 C139.823,232.788 139.822,232.792 139.821,232.797 C139.82,232.8 139.819,232.803 139.819,232.806 C139.817,232.81 139.816,232.815 139.815,232.819 C139.814,232.822 139.813,232.825 139.813,232.827 C139.811,232.834 139.809,232.841 139.807,232.847 C139.806,232.851 139.805,232.854 139.804,232.858 C139.803,232.861 139.802,232.865 139.801,232.868 C139.8,232.872 139.799,232.876 139.798,232.88 C139.797,232.883 139.796,232.886 139.795,232.889 C139.794,232.893 139.793,232.897 139.792,232.901 C139.791,232.904 139.79,232.906 139.789,232.909 C139.787,232.917 139.785,232.925 139.782,232.932 C139.782,232.935 139.781,232.937 139.78,232.939 C139.779,232.944 139.777,232.948 139.776,232.953 C139.775,232.955 139.775,232.957 139.774,232.959 C139.772,232.964 139.771,232.969 139.769,232.973 L139.769,232.976 C139.763,232.993 139.758,233.01 139.752,233.027 L139.752,233.028 C139.453,233.91 138.82,234.606 138.03,235.003 M101.11,201.042 C100.987,201.042 100.87,201.147 100.836,201.296 C100.797,201.464 100.881,201.623 101.022,201.654 L141.638,210.853 C141.654,210.857 141.671,210.859 141.688,210.859 C141.81,210.859 141.924,210.757 141.957,210.609 C141.995,210.44 141.916,210.278 141.775,210.246 L101.159,201.048 C101.143,201.044 101.127,201.042 101.11,201.042" id="Fill-236" fill="#26474A" sketch:type="MSShapeGroup"></path>
                <path d="M135.82,232.092 C135.704,232.092 135.586,232.079 135.469,232.053 L134.488,231.831 L131.731,229.362 C131.826,229.414 131.93,229.454 132.041,229.479 L134.329,229.998 C134.417,230.018 134.505,230.027 134.591,230.027 C135.132,230.027 135.623,229.657 135.748,229.105 L136.266,226.812 C136.41,226.178 136.009,225.537 135.371,225.394 L133.084,224.875 C132.998,224.855 132.911,224.846 132.826,224.846 C132.284,224.846 131.788,225.223 131.665,225.77 L131.146,228.063 C131.068,228.404 131.147,228.742 131.333,229.006 L129.177,227.076 L129.548,225.438 C129.709,224.727 129.257,224.009 128.542,223.847 L124.566,222.946 L122.466,221.066 C122.496,221.068 122.526,221.069 122.556,221.069 C123.096,221.069 123.588,220.698 123.712,220.15 L124.232,217.854 C124.376,217.218 123.969,216.584 123.336,216.441 L121.042,215.922 C120.954,215.902 120.867,215.893 120.78,215.893 C120.242,215.893 119.751,216.263 119.627,216.811 L119.304,218.235 L117.479,216.601 L117.539,216.338 C117.682,215.702 117.276,215.068 116.645,214.926 L115.258,214.611 L111.622,211.355 C111.645,211.297 111.664,211.236 111.679,211.173 L112.198,208.876 C112.344,208.24 111.939,207.607 111.301,207.462 L109.006,206.942 C108.918,206.922 108.83,206.913 108.744,206.913 C108.227,206.913 107.759,207.253 107.61,207.763 L103.881,204.424 L139.879,212.577 C140.739,212.771 141.273,213.631 141.079,214.486 L137.609,229.811 L137.49,230.33 L137.375,230.845 C137.206,231.586 136.549,232.092 135.82,232.092 M134.269,218.951 C133.663,218.951 133.114,219.369 132.976,219.982 L132.518,222.001 C132.357,222.712 132.809,223.421 133.521,223.583 L135.532,224.038 C135.632,224.061 135.731,224.071 135.829,224.071 C136.435,224.071 136.981,223.655 137.12,223.043 L137.577,221.025 C137.738,220.313 137.29,219.602 136.573,219.439 L134.564,218.984 C134.465,218.962 134.366,218.951 134.269,218.951 M127.468,217.407 C126.928,217.407 126.441,217.778 126.317,218.327 L125.798,220.623 C125.653,221.259 126.052,221.892 126.689,222.035 L128.985,222.556 C129.072,222.575 129.159,222.585 129.245,222.585 C129.783,222.585 130.278,222.214 130.402,221.666 L130.923,219.369 C131.066,218.733 130.658,218.1 130.027,217.957 L127.731,217.436 C127.643,217.416 127.555,217.407 127.468,217.407 M135.616,213.003 C135.011,213.003 134.461,213.421 134.322,214.034 L133.865,216.053 C133.704,216.765 134.155,217.474 134.868,217.635 L136.88,218.09 C136.979,218.112 137.079,218.123 137.176,218.123 C137.782,218.123 138.328,217.708 138.467,217.095 L138.925,215.076 C139.086,214.365 138.637,213.653 137.92,213.49 L135.91,213.036 C135.812,213.014 135.713,213.003 135.616,213.003 M128.816,211.459 C128.275,211.459 127.789,211.83 127.665,212.378 L127.144,214.676 C127.001,215.31 127.398,215.942 128.036,216.088 L130.332,216.607 C130.419,216.627 130.506,216.636 130.592,216.636 C131.131,216.636 131.625,216.266 131.75,215.718 L132.27,213.422 C132.413,212.784 132.005,212.151 131.374,212.008 L129.078,211.488 C128.99,211.468 128.902,211.459 128.816,211.459 M122.128,209.944 C121.588,209.944 121.098,210.315 120.974,210.864 L120.454,213.16 C120.31,213.796 120.713,214.43 121.348,214.573 L123.641,215.092 C123.729,215.112 123.817,215.121 123.903,215.121 C124.442,215.121 124.935,214.75 125.059,214.203 L125.579,211.906 C125.724,211.269 125.316,210.637 124.684,210.493 L122.39,209.974 C122.302,209.954 122.214,209.944 122.128,209.944 M115.435,208.429 C114.894,208.429 114.404,208.799 114.279,209.347 L113.76,211.645 C113.616,212.279 114.018,212.912 114.656,213.057 L116.95,213.576 C117.037,213.596 117.125,213.605 117.211,213.605 C117.749,213.606 118.242,213.235 118.365,212.686 L118.886,210.391 C119.029,209.754 118.623,209.12 117.992,208.977 L115.698,208.458 C115.61,208.438 115.522,208.429 115.435,208.429" id="Fill-237" fill="#326667" sketch:type="MSShapeGroup"></path>
                <path d="M141.688,210.859 C141.671,210.859 141.654,210.857 141.638,210.853 L101.022,201.654 C100.881,201.623 100.797,201.464 100.836,201.296 C100.87,201.147 100.987,201.042 101.11,201.042 C101.127,201.042 101.143,201.044 101.159,201.048 L141.775,210.246 C141.916,210.278 141.995,210.44 141.957,210.609 C141.924,210.757 141.81,210.859 141.688,210.859" id="Fill-238" fill="#7BAAAA" sketch:type="MSShapeGroup"></path>
                <path d="M137.176,218.123 C137.079,218.123 136.979,218.112 136.88,218.09 L134.868,217.635 C134.155,217.474 133.704,216.765 133.865,216.053 L134.322,214.034 C134.461,213.421 135.011,213.003 135.616,213.003 C135.713,213.003 135.812,213.014 135.91,213.036 L137.92,213.49 C138.637,213.653 139.086,214.365 138.925,215.076 L138.467,217.095 C138.328,217.708 137.782,218.123 137.176,218.123" id="Fill-239" fill="#26474A" sketch:type="MSShapeGroup"></path>
                <path d="M130.592,216.636 C130.506,216.636 130.419,216.627 130.332,216.607 L128.036,216.088 C127.398,215.942 127.001,215.31 127.144,214.676 L127.665,212.378 C127.789,211.83 128.275,211.459 128.816,211.459 C128.902,211.459 128.99,211.468 129.078,211.488 L131.374,212.008 C132.005,212.151 132.413,212.784 132.27,213.422 L131.75,215.718 C131.625,216.266 131.131,216.636 130.592,216.636" id="Fill-240" fill="#26474A" sketch:type="MSShapeGroup"></path>
                <path d="M123.903,215.121 C123.817,215.121 123.729,215.112 123.641,215.092 L121.348,214.573 C120.713,214.43 120.31,213.796 120.454,213.16 L120.974,210.864 C121.098,210.315 121.588,209.944 122.128,209.944 C122.214,209.944 122.302,209.954 122.39,209.974 L124.684,210.493 C125.316,210.637 125.724,211.269 125.579,211.906 L125.059,214.203 C124.935,214.75 124.442,215.121 123.903,215.121" id="Fill-241" fill="#26474A" sketch:type="MSShapeGroup"></path>
                <path d="M117.211,213.605 C117.125,213.605 117.037,213.596 116.95,213.576 L114.656,213.057 C114.018,212.912 113.616,212.279 113.76,211.645 L114.279,209.347 C114.404,208.799 114.894,208.429 115.435,208.429 C115.522,208.429 115.61,208.438 115.698,208.458 L117.992,208.977 C118.623,209.12 119.029,209.754 118.886,210.391 L118.365,212.686 C118.242,213.235 117.749,213.606 117.211,213.605" id="Fill-242" fill="#26474A" sketch:type="MSShapeGroup"></path>
                <path d="M111.622,211.355 L107.61,207.763 C107.759,207.253 108.227,206.913 108.744,206.913 C108.83,206.913 108.918,206.922 109.006,206.942 L111.301,207.462 C111.939,207.607 112.344,208.24 112.198,208.876 L111.679,211.173 C111.664,211.236 111.645,211.297 111.622,211.355" id="Fill-243" fill="#26474A" sketch:type="MSShapeGroup"></path>
                <path d="M134.591,230.027 C134.505,230.027 134.417,230.018 134.329,229.998 L132.041,229.479 C131.93,229.454 131.826,229.414 131.731,229.362 L131.333,229.006 C131.147,228.742 131.068,228.404 131.146,228.063 L131.665,225.77 C131.788,225.223 132.284,224.846 132.826,224.846 C132.911,224.846 132.998,224.855 133.084,224.875 L135.371,225.394 C136.009,225.537 136.41,226.178 136.266,226.812 L135.748,229.105 C135.623,229.657 135.132,230.027 134.591,230.027" id="Fill-244" fill="#26474A" sketch:type="MSShapeGroup"></path>
                <path d="M129.177,227.076 L124.566,222.946 L128.542,223.847 C129.257,224.009 129.709,224.727 129.548,225.438 L129.177,227.076" id="Fill-245" fill="#26474A" sketch:type="MSShapeGroup"></path>
                <path d="M135.829,224.071 C135.731,224.071 135.632,224.061 135.532,224.038 L133.521,223.583 C132.809,223.421 132.357,222.712 132.518,222.001 L132.976,219.982 C133.114,219.369 133.663,218.951 134.269,218.951 C134.366,218.951 134.465,218.962 134.564,218.984 L136.573,219.439 C137.29,219.602 137.738,220.313 137.577,221.025 L137.12,223.043 C136.981,223.655 136.435,224.071 135.829,224.071" id="Fill-246" fill="#26474A" sketch:type="MSShapeGroup"></path>
                <path d="M129.245,222.585 C129.159,222.585 129.072,222.575 128.985,222.556 L126.689,222.035 C126.052,221.892 125.653,221.259 125.798,220.623 L126.317,218.327 C126.441,217.778 126.928,217.407 127.468,217.407 C127.555,217.407 127.643,217.416 127.731,217.436 L130.027,217.957 C130.658,218.1 131.066,218.733 130.923,219.369 L130.402,221.666 C130.278,222.214 129.783,222.585 129.245,222.585" id="Fill-247" fill="#26474A" sketch:type="MSShapeGroup"></path>
                <path d="M122.556,221.069 C122.526,221.069 122.496,221.068 122.466,221.066 L119.304,218.235 L119.627,216.811 C119.751,216.263 120.242,215.893 120.78,215.893 C120.867,215.893 120.954,215.902 121.042,215.922 L123.336,216.441 C123.969,216.584 124.376,217.218 124.232,217.854 L123.712,220.15 C123.588,220.698 123.096,221.069 122.556,221.069" id="Fill-248" fill="#26474A" sketch:type="MSShapeGroup"></path>
                <path d="M117.479,216.601 L115.258,214.611 L116.645,214.926 C117.276,215.068 117.682,215.702 117.539,216.338 L117.479,216.601" id="Fill-249" fill="#26474A" sketch:type="MSShapeGroup"></path>
                <path d="M49.771,36.595 C56.679,35.008 63.24,37.904 64.425,43.062 C64.959,45.39 64.303,47.779 62.791,49.847 C63.696,51.323 64.995,52.733 66.865,53.688 C66.865,53.688 63.836,54.697 59.87,52.694 C58.244,53.857 56.271,54.761 54.062,55.269 C47.155,56.854 40.597,53.961 39.413,48.807 C38.229,43.649 42.867,38.181 49.771,36.595" id="Fill-250" fill="#FFFFFF" sketch:type="MSShapeGroup"></path>
                <path d="M50.287,55.703 L50.222,55.703 L50.285,55.703 C51.511,55.703 52.78,55.563 54.062,55.269 C56.271,54.761 58.244,53.857 59.87,52.694 C58.244,53.857 56.271,54.761 54.062,55.269 C52.78,55.563 51.512,55.703 50.287,55.703 M50.222,55.703 L50.192,55.703 L50.222,55.703 M50.167,55.702 L50.163,55.702 L50.167,55.702 M64.841,53.942 L64.812,53.942 L64.841,53.942 M64.845,53.942 C66.104,53.942 66.865,53.688 66.865,53.688 C66.865,53.688 66.104,53.942 64.845,53.942 M62.791,49.847 L62.791,49.847 C63.05,49.493 63.283,49.13 63.49,48.759 C63.283,49.13 63.05,49.493 62.791,49.847 M63.494,48.752 C63.495,48.749 63.497,48.746 63.499,48.744 C63.497,48.746 63.495,48.749 63.494,48.752" id="Fill-251" fill="#247D75" sketch:type="MSShapeGroup"></path>
                <path d="M50.285,55.703 L50.222,55.703 L50.192,55.703 C50.184,55.703 50.176,55.702 50.167,55.702 L50.163,55.702 C46.884,55.677 43.929,54.646 41.921,52.884 C42.163,52.837 42.405,52.785 42.647,52.729 C42.665,52.726 42.683,52.721 42.7,52.717 C42.702,52.717 42.704,52.716 42.706,52.716 C42.722,52.712 42.737,52.709 42.753,52.705 C42.757,52.704 42.76,52.703 42.764,52.702 C42.778,52.699 42.791,52.696 42.805,52.693 C42.809,52.692 42.813,52.691 42.817,52.69 C42.831,52.687 42.844,52.683 42.858,52.68 C42.862,52.679 42.865,52.678 42.869,52.677 C42.883,52.674 42.897,52.671 42.911,52.667 C42.914,52.666 42.918,52.666 42.921,52.665 C42.935,52.661 42.95,52.658 42.964,52.654 C42.967,52.654 42.97,52.653 42.974,52.652 C42.988,52.648 43.003,52.645 43.017,52.641 C43.019,52.641 43.023,52.64 43.026,52.639 C43.04,52.636 43.055,52.632 43.069,52.628 C43.072,52.628 43.076,52.627 43.078,52.626 C43.094,52.622 43.108,52.619 43.123,52.615 C43.125,52.614 43.127,52.614 43.129,52.613 C43.145,52.609 43.161,52.605 43.176,52.601 C43.178,52.601 43.18,52.601 43.181,52.6 C43.197,52.596 43.214,52.592 43.23,52.588 C43.231,52.587 43.232,52.587 43.233,52.587 C43.25,52.583 43.267,52.578 43.284,52.574 L43.285,52.574 C43.846,52.427 44.396,52.262 44.932,52.078 C44.965,52.067 44.999,52.055 45.031,52.044 C45.033,52.044 45.033,52.044 45.034,52.043 C45.049,52.038 45.065,52.032 45.08,52.027 C45.082,52.026 45.083,52.026 45.085,52.025 C45.099,52.02 45.114,52.015 45.128,52.01 C45.13,52.009 45.134,52.008 45.136,52.007 C45.15,52.002 45.164,51.997 45.178,51.992 C45.18,51.992 45.183,51.991 45.185,51.99 C45.199,51.985 45.213,51.98 45.227,51.975 C45.23,51.974 45.232,51.973 45.235,51.972 C45.249,51.967 45.262,51.962 45.276,51.957 C45.279,51.956 45.282,51.955 45.284,51.954 C45.298,51.95 45.31,51.945 45.323,51.94 C45.327,51.939 45.331,51.938 45.334,51.936 C45.349,51.931 45.363,51.926 45.377,51.921 C45.379,51.92 45.381,51.919 45.382,51.919 C45.396,51.914 45.41,51.908 45.424,51.903 C45.427,51.902 45.429,51.902 45.432,51.9 C45.46,51.89 45.488,51.88 45.516,51.869 C45.531,51.863 45.546,51.858 45.562,51.852 C45.567,51.85 45.571,51.849 45.576,51.847 C45.587,51.842 45.6,51.838 45.612,51.833 C45.615,51.832 45.619,51.83 45.622,51.829 C45.635,51.824 45.647,51.82 45.66,51.815 C45.663,51.814 45.666,51.812 45.67,51.811 C45.682,51.806 45.696,51.801 45.708,51.796 C45.711,51.795 45.714,51.794 45.716,51.793 C45.729,51.788 45.742,51.783 45.755,51.778 C45.758,51.777 45.76,51.776 45.763,51.775 C45.777,51.77 45.79,51.765 45.804,51.759 C45.805,51.759 45.807,51.758 45.809,51.757 C45.824,51.752 45.838,51.746 45.853,51.74 L45.854,51.74 C49.324,50.377 52.174,48.242 54.064,45.734 L64.48,43.342 C64.826,45.175 64.445,47.039 63.499,48.744 C63.497,48.746 63.495,48.749 63.494,48.752 C63.493,48.755 63.491,48.757 63.49,48.759 C63.283,49.13 63.05,49.493 62.791,49.847 C63.696,51.323 64.995,52.733 66.865,53.688 C66.865,53.688 66.104,53.942 64.845,53.942 L64.841,53.942 L64.812,53.942 C63.562,53.938 61.83,53.684 59.87,52.694 C58.244,53.857 56.271,54.761 54.062,55.269 C52.78,55.563 51.511,55.703 50.285,55.703" id="Fill-252" fill="#BCBCB7" sketch:type="MSShapeGroup"></path>
                <path d="M36.974,28.032 C27.84,30.131 21.703,37.363 23.271,44.184 C23.978,47.263 26.137,49.729 29.131,51.315 C28.905,53.595 28.172,56.023 26.498,58.238 C26.498,58.238 30.685,57.689 34.249,53.018 C36.855,53.463 39.724,53.4 42.647,52.729 C51.779,50.631 57.914,43.402 56.348,36.586 C54.781,29.766 46.106,25.934 36.974,28.032" id="Fill-253" fill="#FFFFFF" sketch:type="MSShapeGroup"></path>
                <path d="M41.921,52.884 L41.921,52.884 C42.163,52.837 42.405,52.785 42.647,52.729 C42.665,52.725 42.682,52.721 42.7,52.717 C42.683,52.721 42.665,52.726 42.647,52.729 C42.405,52.785 42.163,52.837 41.921,52.884 M42.706,52.716 C42.721,52.712 42.737,52.709 42.753,52.705 C42.737,52.709 42.722,52.712 42.706,52.716 M42.764,52.702 C42.778,52.699 42.791,52.696 42.805,52.693 C42.791,52.696 42.778,52.699 42.764,52.702 M42.817,52.69 C42.83,52.687 42.845,52.683 42.858,52.68 C42.844,52.683 42.831,52.687 42.817,52.69 M42.869,52.677 C42.883,52.674 42.897,52.671 42.911,52.667 C42.897,52.671 42.883,52.674 42.869,52.677 M42.921,52.665 C42.935,52.661 42.949,52.658 42.964,52.654 C42.95,52.658 42.935,52.661 42.921,52.665 M42.974,52.652 C42.988,52.648 43.002,52.645 43.017,52.641 C43.003,52.645 42.988,52.648 42.974,52.652 M43.026,52.639 C43.04,52.636 43.054,52.632 43.069,52.628 C43.055,52.632 43.04,52.636 43.026,52.639 M43.078,52.626 C43.093,52.622 43.108,52.619 43.123,52.615 C43.108,52.619 43.094,52.622 43.078,52.626 M43.129,52.613 C43.145,52.609 43.161,52.605 43.176,52.601 C43.161,52.605 43.145,52.609 43.129,52.613 M43.181,52.6 C43.198,52.596 43.214,52.592 43.23,52.588 C43.214,52.592 43.197,52.596 43.181,52.6 M43.233,52.587 C43.25,52.583 43.267,52.578 43.284,52.574 C43.267,52.578 43.25,52.583 43.233,52.587 M43.285,52.574 C43.846,52.427 44.396,52.262 44.932,52.078 C44.396,52.262 43.846,52.427 43.285,52.574 M44.932,52.078 C44.965,52.067 44.999,52.055 45.031,52.044 C44.999,52.055 44.965,52.067 44.932,52.078 M45.034,52.043 C45.049,52.038 45.065,52.032 45.08,52.027 C45.065,52.032 45.049,52.038 45.034,52.043 M45.085,52.025 C45.099,52.02 45.113,52.015 45.128,52.01 C45.114,52.015 45.099,52.02 45.085,52.025 M45.136,52.007 C45.15,52.002 45.164,51.997 45.178,51.992 C45.164,51.997 45.15,52.002 45.136,52.007 M45.185,51.99 C45.199,51.985 45.213,51.98 45.227,51.975 C45.213,51.98 45.199,51.985 45.185,51.99 M45.235,51.972 C45.249,51.967 45.263,51.962 45.276,51.957 C45.262,51.962 45.249,51.967 45.235,51.972 M45.284,51.954 C45.297,51.95 45.31,51.945 45.323,51.94 C45.31,51.945 45.298,51.95 45.284,51.954 M45.334,51.936 C45.349,51.931 45.363,51.926 45.377,51.921 C45.363,51.926 45.349,51.931 45.334,51.936 M45.382,51.919 C45.396,51.914 45.41,51.909 45.424,51.903 C45.41,51.908 45.396,51.914 45.382,51.919 M45.432,51.9 C45.46,51.89 45.488,51.88 45.516,51.869 C45.488,51.88 45.46,51.89 45.432,51.9 M45.562,51.852 C45.566,51.85 45.571,51.849 45.576,51.847 C45.571,51.849 45.567,51.85 45.562,51.852 M45.612,51.833 C45.615,51.832 45.619,51.831 45.622,51.829 C45.619,51.83 45.615,51.832 45.612,51.833 M45.66,51.815 C45.663,51.814 45.666,51.813 45.67,51.811 C45.666,51.812 45.663,51.814 45.66,51.815 M45.708,51.796 C45.711,51.795 45.714,51.794 45.716,51.793 C45.714,51.794 45.711,51.795 45.708,51.796 M45.755,51.778 C45.758,51.777 45.76,51.776 45.763,51.775 C45.76,51.776 45.758,51.777 45.755,51.778 M45.804,51.759 C45.806,51.759 45.807,51.758 45.809,51.757 C45.807,51.758 45.805,51.759 45.804,51.759 M45.853,51.74 L45.854,51.74 L45.853,51.74" id="Fill-254" fill="#8C8D89" sketch:type="MSShapeGroup"></path>
                <path d="M26.498,58.238 C28.172,56.023 28.905,53.595 29.131,51.315 C26.479,49.909 24.482,47.812 23.57,45.211 L56.525,37.641 C57.174,43.297 52.734,49.038 45.854,51.74 L45.853,51.74 C45.838,51.746 45.824,51.752 45.809,51.757 C45.807,51.758 45.806,51.759 45.804,51.759 C45.791,51.765 45.777,51.77 45.763,51.775 C45.76,51.776 45.758,51.777 45.755,51.778 C45.742,51.783 45.729,51.788 45.716,51.793 C45.714,51.794 45.711,51.795 45.708,51.796 C45.695,51.801 45.683,51.806 45.67,51.811 C45.666,51.813 45.663,51.814 45.66,51.815 C45.647,51.82 45.635,51.825 45.622,51.829 C45.619,51.831 45.615,51.832 45.612,51.833 C45.6,51.838 45.588,51.842 45.576,51.847 C45.571,51.849 45.566,51.85 45.562,51.852 C45.547,51.858 45.531,51.864 45.516,51.869 C45.488,51.88 45.46,51.89 45.432,51.9 C45.429,51.901 45.427,51.902 45.424,51.903 C45.41,51.909 45.396,51.914 45.382,51.919 C45.38,51.919 45.379,51.92 45.377,51.921 C45.363,51.926 45.349,51.931 45.334,51.936 C45.331,51.938 45.327,51.939 45.323,51.94 C45.31,51.945 45.297,51.95 45.284,51.954 C45.282,51.955 45.279,51.956 45.276,51.957 C45.263,51.962 45.249,51.967 45.235,51.972 C45.232,51.973 45.23,51.974 45.227,51.975 C45.213,51.98 45.199,51.985 45.185,51.99 C45.182,51.991 45.181,51.992 45.178,51.992 C45.164,51.997 45.15,52.002 45.136,52.007 C45.133,52.008 45.131,52.009 45.128,52.01 C45.113,52.015 45.099,52.02 45.085,52.025 C45.083,52.026 45.082,52.026 45.08,52.027 C45.065,52.032 45.049,52.038 45.034,52.043 C45.033,52.044 45.032,52.044 45.031,52.044 C44.999,52.055 44.965,52.067 44.932,52.078 C44.396,52.262 43.846,52.427 43.285,52.574 L43.284,52.574 C43.267,52.578 43.25,52.583 43.233,52.587 C43.232,52.587 43.231,52.587 43.23,52.588 C43.214,52.592 43.198,52.596 43.181,52.6 C43.18,52.601 43.178,52.601 43.176,52.601 C43.161,52.605 43.145,52.609 43.129,52.613 C43.127,52.614 43.125,52.614 43.123,52.615 C43.108,52.619 43.093,52.622 43.078,52.626 C43.075,52.627 43.072,52.628 43.069,52.628 C43.054,52.632 43.04,52.636 43.026,52.639 C43.022,52.64 43.02,52.641 43.017,52.641 C43.002,52.645 42.988,52.648 42.974,52.652 C42.97,52.653 42.967,52.654 42.964,52.654 C42.949,52.658 42.935,52.661 42.921,52.665 C42.918,52.666 42.914,52.667 42.911,52.667 C42.897,52.671 42.883,52.674 42.869,52.677 C42.866,52.678 42.862,52.679 42.858,52.68 C42.845,52.683 42.83,52.687 42.817,52.69 C42.813,52.691 42.809,52.692 42.805,52.693 C42.791,52.696 42.778,52.699 42.764,52.702 C42.761,52.703 42.756,52.704 42.753,52.705 C42.737,52.709 42.721,52.712 42.706,52.716 C42.704,52.716 42.702,52.717 42.7,52.717 C42.682,52.721 42.665,52.725 42.647,52.729 C42.405,52.785 42.163,52.837 41.921,52.884 C41.919,52.884 41.918,52.885 41.917,52.885 C41.555,52.956 41.195,53.017 40.837,53.069 C40.385,53.135 39.936,53.187 39.49,53.225 C38.874,53.277 38.264,53.303 37.662,53.303 C36.488,53.303 35.345,53.205 34.249,53.018 C30.685,57.689 26.498,58.238 26.498,58.238" id="Fill-255" fill="#BCBCB7" sketch:type="MSShapeGroup"></path>
                <path d="M196.571,177.162 C198.013,180.097 198.064,184.82 195.637,186.601 C193.793,187.951 191.891,187.285 190.54,185.442 C187.564,181.381 187.991,175.729 191.676,173.028 C192.637,172.323 193.474,171.968 193.982,171.788 L196.571,177.162 L196.571,177.162 Z M195.676,168.037 C194.22,168.332 192.354,169.122 190.554,170.441 C184.733,174.705 184.096,182.442 187.898,187.635 C190.322,190.943 193.859,191.377 196.288,189.598 C198.801,187.757 199.835,185.131 199.491,181.587 L199.658,181.466 C201.403,184.11 203.782,184.106 205.456,182.879 C209.394,179.995 210.211,173.733 205.607,167.452 C200.485,160.461 191.844,158.941 184.557,164.281 C175.262,171.091 174.735,182.93 181.055,191.556 C186.945,199.595 196.448,200.355 203.313,195.324 C206.119,193.269 208.125,191.09 209.54,188.188 L207.551,186.878 C206.539,189.099 204.689,191.227 202.302,192.977 C196.105,197.517 188.381,196.548 183.258,189.556 C177.03,181.057 178.809,171.452 185.634,166.45 C192.122,161.696 198.958,163.381 203.406,169.453 C206.965,174.31 206.664,178.906 204.497,180.428 C203.086,181.399 201.509,180.3 199.805,176.659 L195.676,168.037 L195.676,168.037 Z" id="Fill-256" fill="#393F45" sketch:type="MSShapeGroup"></path>
                <path d="M43.602,178.106 C43.816,177.679 44.364,177.463 44.825,177.619 L50.782,179.729 L46.447,166.483 L38.206,178.824 C37.267,180.054 35.402,180.706 33.93,180.219 L20.136,175.351 L24.446,188.521 L28.047,183.147 C28.311,182.74 28.878,182.578 29.312,182.78 C29.745,182.982 29.884,183.477 29.617,183.885 L25.613,189.871 L50.932,181.585 L44.046,179.159 C43.582,179.003 43.388,178.531 43.602,178.106 L43.602,178.106 Z M47.492,163.353 C47.565,163.575 53.54,181.809 53.54,181.809 C53.688,182.258 53.384,182.762 52.866,182.931 L24.603,192.181 C24.086,192.35 23.545,192.123 23.397,191.674 C23.397,191.674 17.438,173.466 17.36,173.228 C17.199,172.737 17.469,172.291 18.033,172.106 C18.033,172.106 45.76,163.032 46.296,162.857 C46.912,162.655 47.354,162.925 47.492,163.353 L47.492,163.353 Z M52.543,182.014 L24.301,191.257 L18.033,172.106 L46.275,162.863 L52.543,182.014 L52.543,182.014 Z" id="Fill-257" fill="#EDF1EF" sketch:type="MSShapeGroup"></path>
                <path d="M51.799,180.955 L22.741,190.465 L16.733,172.108 L45.792,162.598 L51.799,180.955" id="Fill-258" fill="#FFFFFF" sketch:type="MSShapeGroup"></path>
                <path d="M42.979,178.594 L49.865,181.018 L24.547,189.305 L28.551,183.319 C28.817,182.91 28.68,182.417 28.246,182.214 C27.812,182.012 27.244,182.173 26.98,182.581 L23.381,187.954 L19.07,174.784 L32.863,179.651 C34.336,180.14 36.201,179.488 37.141,178.258 L45.38,165.916 L49.715,179.163 L43.759,177.054 C43.298,176.896 42.75,177.113 42.536,177.539 C42.321,177.966 42.518,178.438 42.979,178.594 L42.979,178.594 Z M45.23,162.291 C44.694,162.467 16.968,171.541 16.968,171.541 C16.403,171.726 16.134,172.172 16.293,172.661 C16.372,172.899 22.331,191.107 22.331,191.107 C22.479,191.557 23.02,191.784 23.538,191.614 L51.8,182.366 C52.317,182.195 52.621,181.692 52.474,181.243 C52.474,181.243 46.499,163.008 46.427,162.787 C46.287,162.359 45.847,162.09 45.23,162.291 L45.23,162.291 Z" id="Fill-259" fill="#D6463C" sketch:type="MSShapeGroup"></path>
                <path d="M171.938,97.441 L163.855,97.367 C163.89,93.592 161.07,90.192 161.07,90.192 C159.385,88.258 158.149,85.885 158.174,83.131 C158.221,77.722 162.618,73.374 168.015,73.374 L168.107,73.374 L168.109,73.373 L168.112,73.374 C173.551,73.424 177.918,77.871 177.869,83.309 C177.845,86.065 176.567,88.414 174.849,90.316 C174.849,90.316 171.968,93.667 171.938,97.441" id="Fill-260" fill="#54B8AF" sketch:type="MSShapeGroup"></path>
                <path d="M167.834,106.16 L167.816,106.16 C166.854,106.152 166.083,105.364 166.09,104.405 L166.099,104.336 L163.77,104.314 C163.415,104.312 163.134,103.988 163.138,103.594 C163.14,103.203 163.424,102.886 163.774,102.886 L163.78,102.886 L163.479,102.883 C163.101,102.88 162.798,102.557 162.804,102.161 C162.804,101.936 162.906,101.738 163.063,101.609 C162.777,101.514 162.572,101.246 162.575,100.928 C162.577,100.536 162.898,100.221 163.289,100.221 L163.297,100.221 C162.902,100.217 162.584,99.895 162.587,99.5 C162.59,99.108 162.909,98.791 163.301,98.791 L163.308,98.791 C162.913,98.787 162.596,98.467 162.599,98.07 C162.604,97.678 162.922,97.362 163.314,97.362 L163.321,97.362 L163.855,97.367 L171.938,97.441 L172.467,97.446 C172.86,97.451 173.18,97.771 173.175,98.167 C173.169,98.56 172.854,98.875 172.462,98.875 L172.454,98.875 C172.85,98.879 173.165,99.203 173.161,99.597 C173.158,99.99 172.839,100.305 172.446,100.305 L172.439,100.305 C172.835,100.309 173.152,100.631 173.149,101.025 C173.147,101.344 172.935,101.609 172.646,101.699 C172.799,101.83 172.898,102.029 172.897,102.254 C172.893,102.648 172.588,102.963 172.212,102.963 L172.209,102.963 L171.956,102.959 C172.308,102.964 172.592,103.287 172.588,103.681 C172.583,104.071 172.3,104.389 171.947,104.389 L171.942,104.389 L169.562,104.367 L169.57,104.435 C169.561,105.391 168.787,106.16 167.834,106.16" id="Fill-261" fill="#54B8AF" sketch:type="MSShapeGroup"></path>
            </g>
        </g>
    </g>
</svg>