<?xml version="1.0" encoding="UTF-8" standalone="no"?>
<svg width="498px" height="450px" viewBox="0 0 498 450" version="1.1" xmlns="http://www.w3.org/2000/svg" xmlns:xlink="http://www.w3.org/1999/xlink" xmlns:sketch="http://www.bohemiancoding.com/sketch/ns">
    <!-- Generator: Sketch 3.3.3 (12081) - http://www.bohemiancoding.com/sketch -->
    <title>male-strategic-management</title>
    <desc>Created with Sketch.</desc>
    <defs></defs>
    <g id="Page-1" stroke="none" stroke-width="1" fill="none" fill-rule="evenodd" sketch:type="MSPage">
        <g id="male-strategic-management" sketch:type="MSLayerGroup" transform="translate(-1.000000, 0.000000)">
            <g id="Group" sketch:type="MSShapeGroup">
                <path d="M302.986887,299.140628 L307.043245,315.736206 L348.175208,315.736206 C343.110894,293.266848 338.361438,266.799501 329.772345,259.7013 C324.203031,255.092054 310.621182,245.096122 263.621403,225.843496 L220.592111,225.583712 C173.596421,244.830609 159.497305,255.092054 153.923901,259.7013 C145.334808,266.799501 140.589442,293.266848 135.523083,315.736206 L175.706381,315.736206 L178.634156,299.140628 L179.085998,315.736206 L303.665673,315.736206 L302.986887,299.140628" id="Fill-3" fill="#202732"></path>
                <path d="M219.032131,187.21026 L219.032131,235.881451 C231.581489,249.745482 252.116802,250.244037 264.668205,235.881451 L264.668205,187.21026 C264.668205,160.928199 219.032131,160.928199 219.032131,187.21026" id="Fill-4" fill="#F2C39A"></path>
                <path d="M194.266674,156.61312 C198.282141,155.373418 203.395524,159.636922 205.687448,166.131508 C207.973239,172.624184 206.572732,178.89146 202.549086,180.127341 C198.531574,181.363223 193.420236,177.103538 191.130356,170.607042 C188.838432,164.114366 190.245072,157.849001 194.266674,156.61312" id="Fill-5" fill="#F2C39A"></path>
                <path d="M289.237387,156.61312 C285.211697,155.373418 280.100358,159.636922 277.810478,166.131508 C275.522643,172.624184 276.925195,178.89146 280.944751,180.127341 C284.966352,181.363223 290.083824,177.103538 292.36757,170.607042 C294.65745,164.114366 293.252854,157.849001 289.237387,156.61312" id="Fill-6" fill="#F2C39A"></path>
                <path d="M241.971818,246.467626 C241.971818,246.467626 210.12409,253.550545 210.12409,255.349928 C210.12409,257.14549 222.242051,315.581482 222.242051,315.581482 L265.475796,315.581482 L270.43175,255.605891 L241.971818,246.467626" id="Fill-7" fill="#FFFFFF"></path>
                <path d="M219.032131,226.22362 L219.032131,235.881451 L228.944038,315.736206 L211.898747,315.736206 L193.148313,280.170707 L211.050265,269.021031 L189.173736,259.466349 L209.287875,230.303748 L219.032131,226.22362" id="Fill-8" fill="#516386"></path>
                <path d="M264.668205,226.271374 L264.668205,235.881451 L254.65816,315.736206 L271.705496,315.736206 L290.45593,280.170707 L272.558067,269.021031 L294.430507,259.466349 L276.553089,231.203439 L264.668205,226.271374" id="Fill-9" fill="#516386"></path>
                <path d="M232.035376,256.339397 L237.563799,264.341109 L246.136536,264.341109 L251.662915,256.339397 L241.971818,246.467626 L232.035376,256.339397" id="Fill-10" fill="#202732"></path>
                <path d="M237.563799,264.341109 L229.696427,315.736206 L254.003908,315.736206 L246.136536,264.341109 L237.563799,264.341109" id="Fill-11" fill="#202732"></path>
                <path d="M219.032131,219.79589 L217.03462,227.046904 L222.622335,264.79955 L241.971818,246.467626 L219.032131,219.79589" id="Fill-12" fill="#FFFFFF"></path>
                <path d="M242.397081,225.723155 C242.200806,225.723155 242.00453,225.719334 241.810299,225.711694 C230.690071,225.243701 219.032131,212.315655 219.032131,212.315655 L219.032131,210.777966 L264.668205,210.831451 L264.668205,213.194334 C264.668205,213.194334 253.339434,225.725065 242.397081,225.723155" id="Fill-13" fill="#BA9779"></path>
                <path d="M241.890036,99.8275164 C171.68478,99.8275164 198.59291,189.670562 203.176759,196.552913 C208.234939,204.145848 230.548999,220.877047 241.890036,220.877047 C253.231074,220.877047 275.543089,204.145848 280.599225,196.552913 C285.187162,189.670562 312.093248,99.8275164 241.890036,99.8275164" id="Fill-14" fill="#F2C39A"></path>
                <path d="M237.443172,119.057221 C237.046532,118.942611 236.653981,118.835641 236.26143,118.728672 C236.848212,118.862384 237.432949,119.003736 238.021775,119.15655 C237.827544,119.122167 237.635358,119.089694 237.443172,119.057221 L237.443172,119.057221 L237.443172,119.057221 Z M273.382015,101.924886 C249.669493,84.4945631 213.057998,94.8878107 202.00524,109.412761 C188.169869,127.591871 193.062442,155.191951 196.337788,175.930692 L196.335743,175.840914 C196.37459,176.049123 196.417525,176.263062 196.480905,176.484642 L196.998173,177.262083 C197.112667,177.45692 197.971372,177.246801 198.255562,177.116909 L198.410947,176.839934 C198.541797,175.009989 198.427303,171.380662 198.421169,171.340548 C198.161513,168.488661 197.497039,165.739923 197.049286,162.949161 C199.267607,149.874032 205.838744,147.127204 209.277652,131.358731 C210.007552,130.304316 210.788564,129.282374 211.602289,128.287174 C212.542775,127.142981 213.520063,126.042722 214.652736,125.062803 C215.251785,124.722792 215.828344,124.356039 216.380368,123.951083 C229.142358,119.584429 242.298943,124.824032 254.345346,129.416086 C258.94964,131.171534 264.118225,133.247892 269.196851,132.881138 C271.364058,132.720684 273.032399,131.385474 273.193918,129.675869 C278.959507,145.809185 283.711008,153.29133 286.514066,165.122937 C286.129693,167.178283 285.716697,169.231718 285.52451,171.340548 C285.518377,171.380662 285.403883,175.009989 285.530644,176.839934 L285.686029,177.116909 C285.974308,177.246801 286.830969,177.45692 286.949552,177.262083 L287.466819,176.484642 C287.681495,175.695741 287.726475,175.029091 287.767366,174.23637 C287.914572,173.202966 288.108803,172.093156 288.25601,170.977616 C291.913684,158.175641 298.636116,107.424272 273.382015,101.924886 L273.382015,101.924886 L273.382015,101.924886 Z" id="Fill-15" fill="#BD8A3A"></path>
                <path d="M264.668205,219.79589 L266.242497,226.926563 L260.996219,265.177764 L241.971818,246.467626 L264.668205,219.79589" id="Fill-16" fill="#FFFFFF"></path>
                <path d="M241.971818,246.467626 L241.971818,246.467626 L219.032131,219.79589 L219.032131,219.159803 L241.971818,245.713108 L264.668205,219.159803 L264.668205,219.79589 L241.971818,246.467626" id="Fill-17" fill="#E2B691"></path>
                <path id="Fill-18" fill="#E4E4DF" d="M237.525036,264.600892 L237.522909,264.600892 L237.565462,264.341109 L237.525036,264.600892"></path>
                <path id="Fill-19" fill="#1C232C" d="M246.175382,264.600892 L237.524953,264.600892 L237.563799,264.341109 L246.136536,264.341109 L246.175382,264.600892"></path>
                <path d="M175.467171,315.581482 L285.089024,306.382092 L289.474553,338.673555 C289.474553,338.673555 193.211693,348.291273 160.415301,350.111667 C127.616865,351.932061 135.523083,315.736206 135.523083,315.736206 L175.467171,315.581482" id="Fill-20" fill="#202732"></path>
                <path d="M290.061334,308.939812 C290.061334,308.939812 306.793812,306.382092 308.858793,312.914881 C309.668429,315.468781 310.349259,319.583293 308.946708,321.904152 C307.22112,324.75795 292.48002,333.422491 292.48002,333.422491 L290.061334,308.939812" id="Fill-21" fill="#F2C39A"></path>
                <path d="M292.48002,333.422491 L290.061334,306.384002 L284.651494,306.384002 L287.055867,334.597247 L292.48002,333.422491" id="Fill-22" fill="#FFFFFF"></path>
                <path d="M348.14454,315.736206 C348.14454,315.736206 357.676164,351.998917 324.879772,350.178523 C292.08338,348.358129 198.118578,334.692756 198.118578,334.692756 L200.876656,302.336347 L308.198408,315.581482 L348.14454,315.736206" id="Fill-23" fill="#202732"></path>
                <path d="M195.342099,306.332427 C195.342099,306.332427 177.957415,302.733662 176.546685,310.305586 C176.078487,312.806001 175.056219,315.153603 176.45877,317.472552 C178.182314,320.32635 192.925458,330.813196 192.925458,330.813196 L195.342099,306.332427" id="Fill-24" fill="#F2C39A"></path>
                <path d="M192.925458,330.813196 L195.342099,303.772796 L200.753984,303.772796 L198.349611,331.986042 L192.925458,330.813196" id="Fill-25" fill="#FFFFFF"></path>
                <path d="M198.198315,333.766322 L192.919325,332.639321 C192.919325,332.639321 178.190492,320.33399 176.45877,317.476373 C178.190492,320.33399 192.919325,330.818926 192.919325,330.818926 L196.266229,331.535241 L198.349611,331.986042 L198.198315,333.766322" id="Fill-26" fill="#1A2027"></path>
                <path id="Fill-27" fill="#1A2027" d="M198.20257,333.768232 L198.198315,333.766322 L198.355762,331.986042 L198.355762,331.982221 L198.362145,331.984131 L198.20257,333.768232"></path>
                <path d="M176.45877,317.476373 L176.45877,317.476373 C176.444459,317.453451 176.432191,317.432439 176.419924,317.411427 C176.432191,317.432439 176.444459,317.453451 176.45877,317.476373 M176.419924,317.411427 C175.743183,316.309257 175.663446,316.857477 175.810653,315.696092 C175.849499,315.953965 175.910835,316.211838 175.994661,316.467802 C176.094843,316.78489 176.233872,317.100069 176.419924,317.411427" id="Fill-28" fill="#1A2027"></path>
                <path id="Fill-29" fill="#BA9779" d="M176.002142,316.467802 C175.914908,316.211838 175.851078,315.953965 175.810653,315.696092 C175.81278,315.682721 175.81278,315.66935 175.814908,315.655978 C175.851078,315.923402 175.91278,316.196557 176.002142,316.467802"></path>
                <path id="Fill-30" fill="#C7C7C2" d="M198.349611,331.986042 L198.349611,331.986042 L196.266229,331.535241 L198.349611,331.982221 L198.349611,331.986042"></path>
                <path d="M244.807588,342.996275 C219.16707,339.575156 198.124712,336.51697 198.124712,336.51697 L198.278052,334.715678 C198.392546,334.732869 198.566332,334.757702 198.795319,334.792085 C203.013196,335.410981 226.47015,338.780525 252.813989,342.232206 C250.223563,342.488169 247.553399,342.742222 244.807588,342.996275" id="Fill-31" fill="#1A2027"></path>
                <path id="Fill-32" fill="#1A2027" d="M198.795319,334.792085 C198.566332,334.757702 198.392546,334.732869 198.278052,334.715678 L198.278052,334.713768 C198.392546,334.730959 198.564287,334.757702 198.795319,334.792085"></path>
                <path d="M445.861064,267.385923 C444.115031,274.570082 441.945779,281.601426 439.377843,288.460855 L441.21588,289.062559 C443.808351,282.138184 445.998048,275.039984 447.762482,267.78897 L445.861064,267.385923 M430.390065,308.714412 C426.977736,315.323608 423.181033,321.726506 419.022448,327.896363 L420.672388,328.86673 C424.867775,322.637658 428.701279,316.177455 432.146321,309.505223 L430.390065,308.714412 M405.430377,345.767935 C400.545982,351.485081 395.324239,356.940533 389.79377,362.109459 L391.171787,363.396916 C396.751324,358.180235 402.022137,352.673208 406.953556,346.902577 L405.430377,345.767935 M372.306859,376.722278 C366.205966,381.278039 359.822926,385.520531 353.192498,389.423014 L354.231122,390.962612 C360.924931,387.023837 367.365217,382.741231 373.523358,378.145356 L372.308904,376.722278 L372.306859,376.722278 M332.679675,400.043572 C325.664874,403.206817 318.433352,406.016681 311.011689,408.44642 L311.655717,410.163665 C319.146895,407.712914 326.447931,404.876308 333.526112,401.6825 L332.679675,400.043572 M288.468641,414.511217 C280.905905,416.121492 273.189828,417.347823 265.338813,418.167287 L265.555533,419.97622 C273.478108,419.149115 281.267788,417.911324 288.902083,416.287677 L288.468641,414.513127 L288.468641,414.511217 M241.916615,419.389797 L241.808255,419.389797 C233.928616,419.389797 226.147114,418.98293 218.494418,418.190209 L218.279742,419.999142 C226.003996,420.799504 233.855012,421.210191 241.810299,421.210191 L241.91866,421.210191 L241.916615,419.389797 M195.3605,414.557061 C187.671002,412.929594 180.140979,410.904812 172.801097,408.509456 L172.157068,410.228611 C179.568509,412.644979 187.168047,414.688863 194.929103,416.331611 L195.3605,414.557061 M151.116754,400.123799 C144.040617,396.939542 137.18529,393.394262 130.579396,389.512792 L129.542817,391.054301 C136.210047,394.972064 143.128755,398.549817 150.270317,401.764637 L151.116754,400.123799 M111.44459,376.823517 C105.323251,372.262025 99.4799687,367.385355 93.9454114,362.22216 L92.5673945,363.509616 C98.1530652,368.722476 104.05155,373.64308 110.230136,378.246595 L111.44459,376.823517 M78.294493,345.894006 C73.4162316,340.194052 68.873274,334.234314 64.6901546,328.039626 L63.0422591,329.011903 C67.2642246,335.263897 71.8501175,341.27903 76.7733587,347.030559 L78.294493,345.894006 M53.3123152,308.880597 C49.9224755,302.330616 46.9108749,295.576247 44.3081813,288.642321 L42.470144,289.244025 C45.097372,296.242897 48.1355516,303.060302 51.5581038,309.673319 L53.3123152,308.880597 M37.8024697,267.584581 C36.0768819,260.518854 34.7602011,253.309864 33.8790063,245.976712 L31.9428313,246.17919 C32.8322042,253.581108 34.1611522,260.858865 35.9030964,267.989538 L37.8024697,267.584581 M32.5582365,224.093778 L32.5582365,223.891299 C32.5582365,216.561968 32.9896335,209.328145 33.8299375,202.208933 L31.8937625,202.010275 C31.0452803,209.194433 30.6097943,216.495112 30.6097943,223.891299 L30.6097943,224.095688 L32.5582365,224.093778 M37.7063766,180.593423 C39.4462762,173.409265 41.6073501,166.3741 44.1671084,159.512761 L42.3290711,158.914877 C39.7447784,165.839252 37.5612146,172.939363 35.8070032,180.192287 L37.7063766,180.593423 M53.1323961,139.249653 C56.5365475,132.638547 60.3271161,126.231829 64.4775229,120.058152 L62.8275828,119.089694 C58.6383298,125.320676 54.8130041,131.78661 51.3761402,138.460752 L53.1323961,139.249653 M78.0511933,102.175118 C82.9294547,96.4522419 88.1450645,90.9910592 93.6693991,85.8164023 L92.2913823,84.5308563 C86.7159343,89.7513573 81.4512557,95.2641147 76.5259699,101.040476 L78.0511933,102.175118 M111.139954,71.1863924 C117.236758,66.626811 123.613664,62.3785878 130.242048,58.468465 L129.20138,56.9288661 C122.51166,60.8752821 116.075462,65.163619 109.921411,69.7652242 L111.139954,71.1863924 M150.742604,47.8268949 C157.753316,44.6560088 164.980749,41.8404148 172.400368,39.4030349 L171.754294,37.68579 C164.265161,40.146092 156.968215,42.9884284 149.894122,46.1879671 L150.742604,47.8268949 M194.937281,33.3153157 C202.497973,31.6993099 210.21405,30.4653386 218.063021,29.6363238 L217.844256,27.8293007 C209.921681,28.6640461 202.134046,29.9094784 194.501795,31.5407656 L194.937281,33.3153157 M241.483174,28.3928016 L241.810299,28.3928016 C249.616336,28.3928016 257.324234,28.7920276 264.907416,29.5694677 L265.120047,27.7605345 C257.465307,26.9754537 249.687894,26.5724074 241.810299,26.5724074 L241.479085,26.5724074 L241.483174,28.3928016 M288.045423,33.1796935 C295.736965,34.8014298 303.266989,36.8166616 310.613004,39.2062872 L311.252944,37.4871321 C303.839458,35.0764946 296.237876,33.0402509 288.474775,31.4051434 L288.045423,33.1796935 M332.305525,47.5709318 C339.385751,50.7475484 346.243122,54.2870978 352.853105,58.1609273 L353.889685,56.617508 C347.216321,52.7073852 340.295569,49.1372731 333.149918,45.9300938 L332.305525,47.5709318 M372.002224,70.8311004 C378.129696,75.3868614 383.979112,80.2578008 389.517758,85.4171763 L390.893731,84.12781 C385.301926,78.9206802 379.399353,74.0058068 373.214633,69.408022 L372.002224,70.8311004 M405.187077,101.730048 C410.071472,107.426182 414.622608,113.380189 418.809817,119.571058 L420.457712,118.59878 C416.229613,112.350606 411.637587,106.339294 406.708212,100.591585 L405.187077,101.730048 M430.210146,138.718625 C433.608164,145.266696 436.625898,152.019155 439.23677,158.94926 L441.074807,158.343736 C438.439401,151.348685 435.393043,144.53319 431.962313,137.923993 L430.210146,138.718625 M445.764971,180.00127 C447.498737,187.063177 448.823596,194.272167 449.715014,201.605319 L451.649144,201.39902 C450.751593,193.999013 449.414467,186.723166 447.664345,179.594403 L445.764971,180.00127 M451.058273,223.486343 L451.058273,223.891299 C451.058273,231.289397 450.618698,238.590075 449.762038,245.774234 L451.698213,245.976712 C452.563051,238.725698 453.006715,231.356253 453.006715,223.891299 L453.006715,223.482522 L451.058273,223.486343" id="Fill-33" fill="#FEFEFE"></path>
                <path d="M470.775772,240.698906 C469.851643,241.74377 468.810974,242.504019 467.6415,242.983472 C466.478159,243.464835 464.920223,243.682595 462.957469,243.642481 L461.759371,248.572636 L457.954491,247.764633 L459.130099,242.941448 C457.404511,242.389408 455.997871,241.661633 454.910178,240.771492 C453.423801,239.547072 452.121432,238.064778 451.015338,236.328431 L455.727992,233.54531 C457.613054,236.464054 459.710747,238.173658 462.012894,238.658842 C463.188502,238.910984 464.286417,238.75435 465.310729,238.185119 C466.332997,237.617798 466.968848,236.832717 467.214192,235.827966 C467.42069,234.974119 467.33073,234.177577 466.950447,233.419239 C466.547673,232.65517 465.643989,231.776491 464.231215,230.77556 C461.342286,228.743137 459.436779,227.203538 458.496293,226.170135 C457.557851,225.138642 456.928134,224.070856 456.605098,222.955315 C456.284106,221.845505 456.26366,220.729964 456.537628,219.608693 C456.985381,217.752005 458.113965,216.311736 459.91929,215.306985 C461.72257,214.296504 463.76915,213.983235 466.061074,214.371 L466.510872,212.518133 L470.311663,213.324226 L469.806663,215.412044 C471.041562,215.971725 472.06383,216.590621 472.850976,217.263001 C473.644256,217.935382 474.52545,218.978336 475.490471,220.386133 L470.736926,223.029812 C469.369132,220.980197 467.815285,219.763417 466.07743,219.392844 C465.046984,219.178904 464.155567,219.253401 463.390911,219.620154 C462.628299,219.981177 462.174412,220.489282 462.016983,221.142561 C461.879999,221.696511 462.027206,222.302036 462.464736,222.966776 C462.879777,223.635336 463.857065,224.460531 465.390466,225.45 C468.109698,227.22264 469.925246,228.620886 470.839153,229.656199 C471.744882,230.691513 472.364376,231.831886 472.685369,233.079228 C473.008405,234.32275 472.998182,235.64459 472.662879,237.040926 C472.323486,238.427711 471.695813,239.646401 470.775772,240.698906 L470.775772,240.698906 L470.775772,240.698906 Z M495.40629,231.226361 L494.954448,231.174786 C494.772484,219.35082 484.443492,208.298563 469.602209,205.146778 C463.397044,203.83258 457.27775,204.096183 451.835197,205.599489 L446.552117,198.1842 L443.28495,209.366349 C440.181345,211.352928 437.588874,213.857164 435.699723,216.791189 L435.6711,216.762536 C435.6711,216.762536 431.395976,221.881798 424.072451,221.289645 L424.285082,231.608396 C424.285082,231.608396 428.03476,231.871999 435.045472,238.704686 L435.049561,238.693225 C436.832396,242.013104 439.426911,245.031177 442.657277,247.573616 L443.293128,255.399592 C443.293128,255.399592 446.732036,257.655506 450.545095,257.37089 L451.986492,252.820859 C453.787728,253.498971 455.660522,254.068202 457.631455,254.48653 C460.187124,255.029019 462.728481,255.279251 465.216681,255.305994 L464.368199,260.303004 C467.678301,262.094746 471.82053,261.447198 471.82053,261.447198 L476.606787,253.661335 C484.087742,251.286991 490.106855,246.492458 493.032585,240.097201 L493.234994,240.164057 C495.563719,240.653062 497.929247,239.056158 498.53034,236.582484 C499.131434,234.114542 497.728882,231.715365 495.40629,231.226361 L495.40629,231.226361 L495.40629,231.226361 Z" id="Fill-34" fill="#48ADA6"></path>
                <path d="M269.413572,405.852406 C269.497398,395.462978 260.552555,386.977993 249.434372,386.899676 L249.422105,386.899676 C238.303921,386.819449 229.226184,395.176453 229.144403,405.56397 C229.103512,410.828405 231.636691,415.355513 235.085823,419.045966 C235.085823,419.045966 241.47704,426.222484 240.745096,433.868903 L249.009108,433.928119 L249.103157,433.928119 L257.371258,433.985424 C256.755853,426.331363 263.261565,419.244624 263.261565,419.244624 C266.767943,415.605746 269.370636,411.114931 269.413572,405.852406" id="Fill-35" fill="#E3BF2B"></path>
                <path d="M259.836968,436.976754 C259.843101,436.224146 259.197028,435.60334 258.389437,435.59952 C259.197028,435.60334 259.85128,435.001636 259.861502,434.245207 C259.86968,433.490689 259.215429,432.877524 258.411927,432.869883 L239.712606,432.736171 C238.905015,432.730441 238.248719,433.335965 238.236452,434.092394 C238.234407,434.846912 238.882525,435.460077 239.688072,435.465808 C238.882525,435.460077 238.224184,436.069422 238.218051,436.82203 C238.213962,437.576548 238.862079,438.191623 239.671715,438.197354 C238.862079,438.191623 238.201694,438.797148 238.197605,439.549756 C238.193516,440.155281 238.612646,440.667207 239.197383,440.850583 C238.876391,441.096996 238.667849,441.47521 238.667849,441.904998 C238.657626,442.659517 239.27712,443.274592 240.051999,443.280323 L240.669449,443.284143 C239.947728,443.278412 239.356857,443.885847 239.354812,444.640365 C239.348679,445.392973 239.927282,446.011869 240.649003,446.013779 L245.412771,446.048162 L245.39437,446.181874 C245.384147,448.01373 246.962529,449.517035 248.929372,449.528496 C250.89417,449.541867 252.495041,448.067214 252.511398,446.231539 L252.495041,446.099737 L257.361036,446.13412 C258.084801,446.13794 258.671583,445.530506 258.677716,444.777898 C258.68385,444.02529 258.103202,443.410214 257.383525,443.402574 L257.900793,443.408304 C258.671583,443.412124 259.299255,442.8066 259.305389,442.052082 C259.307433,441.622293 259.105024,441.244079 258.790166,440.991936 C259.378992,440.820021 259.812433,440.313825 259.818567,439.70448 C259.822656,438.951872 259.172494,438.336797 258.362858,438.331066 C259.172494,438.336797 259.830834,437.729362 259.836968,436.976754" id="Fill-36" fill="#ADADAA"></path>
                <path d="M250.38917,378.013554 L250.38917,356.449619 C250.38917,355.874657 249.892348,355.408575 249.276943,355.408575 C248.661537,355.408575 248.162671,355.874657 248.162671,356.449619 L248.162671,378.013554 C248.162671,378.586606 248.661537,379.052688 249.276943,379.052688 C249.892348,379.052688 250.38917,378.586606 250.38917,378.013554" id="Fill-37" fill="#FFFFFF"></path>
                <path d="M269.170272,385.291311 L279.554467,374.435801 C280.032888,373.937246 279.985864,373.169357 279.45224,372.724287 C278.916572,372.277307 278.096713,372.321241 277.618292,372.819796 L267.234097,383.675305 C266.75772,384.17386 266.8027,384.939839 267.338368,385.386819 C267.871992,385.8338 268.691851,385.789866 269.170272,385.291311" id="Fill-38" fill="#FFFFFF"></path>
                <path d="M231.528331,383.675305 L221.14618,372.819796 C220.667759,372.321241 219.8479,372.277307 219.312232,372.724287 C218.778608,373.169357 218.731584,373.937246 219.210005,374.435801 L229.592156,385.291311 C230.070577,385.789866 230.890436,385.8338 231.426104,385.386819 C231.959728,384.939839 232.006752,384.17386 231.528331,383.675305" id="Fill-39" fill="#FFFFFF"></path>
                <path d="M231.172582,35.491002 C229.700516,35.491002 228.220273,35.3114458 226.778875,34.9599741 C217.553932,32.7021504 212.013241,23.8542321 214.427837,15.2374447 C216.419214,8.13160363 223.292942,3.1689759 231.146003,3.1689759 C232.618068,3.1689759 234.098312,3.34662193 235.539709,3.70000381 C244.764653,5.95591734 250.303299,14.8038356 247.888703,23.4225332 C245.897326,30.5283743 239.021553,35.491002 231.172582,35.491002" id="Fill-40" fill="#E3BF2B"></path>
                <path d="M231.146003,0.597883941 C222.250229,0.597883941 214.125246,6.17176681 211.765852,14.5860759 C208.962794,24.5934688 215.372412,34.8243518 226.081689,37.4470185 C227.784787,37.863436 229.491974,38.0620939 231.172582,38.0620939 C240.066311,38.0620939 248.191294,32.4882111 250.550688,24.0739019 C253.353746,14.0684192 246.944128,3.8318057 236.236896,1.21295943 C234.533798,0.796541864 232.826611,0.597883941 231.146003,0.597883941 L231.146003,0.597883941 L231.146003,0.597883941 Z M231.148047,5.73815769 L231.148047,5.73815769 C232.384991,5.73815769 233.628069,5.88906131 234.842523,6.18704819 C242.59949,8.08384932 247.258986,15.5239706 245.226718,22.7692542 C243.552244,28.7461835 237.772342,32.91991 231.172582,32.91991 C229.933593,32.91991 228.690516,32.7690064 227.476062,32.4729297 C219.719095,30.5742184 215.061643,23.1340971 217.089822,15.8869033 C218.764297,9.91188425 224.544198,5.74006787 231.148047,5.73815769 L231.148047,5.73815769 L231.148047,5.73815769 Z" id="Fill-41" fill="#E9942D"></path>
                <path d="M235.42726,20.6699748 C235.365924,20.1580487 235.218717,19.7034276 234.979507,19.3061118 C234.742341,18.9068858 234.439749,18.5515937 234.073778,18.2325949 C233.707806,17.9174165 233.307077,17.6136991 232.871591,17.3233529 L231.796165,16.614679 C231.493574,16.4122007 231.217562,16.1791597 230.984485,15.9155559 C230.743229,15.6519521 230.677804,15.329133 230.788209,14.9432782 C230.845456,14.731249 230.941549,14.5727047 231.066266,14.4695554 L231.511975,14.2594365 L232.041509,14.2384246 C232.225518,14.2613467 232.409526,14.2957298 232.595578,14.3434841 C233.331611,14.5230403 233.916348,14.7369796 234.347745,14.9833918 C234.779142,15.2317142 235.210539,15.5125095 235.635803,15.8315083 C236.39637,14.9547392 236.952483,14.0837006 237.29801,13.2183926 C236.784831,12.8955734 236.290054,12.6109578 235.819811,12.3683659 C235.351612,12.125774 234.871146,11.9175652 234.39068,11.7418293 L234.875235,10.0131234 C234.681005,9.89278252 234.470417,9.79536373 234.243474,9.71895684 C234.014486,9.64063977 233.820255,9.5833346 233.66487,9.54513116 C233.507441,9.50692771 233.315255,9.47063444 233.084222,9.43243099 C232.849101,9.39804789 232.607846,9.38658685 232.362501,9.39613772 L231.86159,11.1878794 C230.616468,11.0961911 229.555354,11.3120406 228.686427,11.8468888 C227.817499,12.3760066 227.21845,13.2260332 226.891325,14.3931485 C226.73594,14.9490087 226.682782,15.4494738 226.733895,15.894544 C226.78092,16.3396142 226.905636,16.7464809 227.097823,17.1132339 C227.290009,17.4761667 227.547621,17.8142672 227.870657,18.1198948 C228.193694,18.4255223 228.547398,18.7177787 228.923593,18.9928435 L229.929504,19.7053378 C230.360901,20.0109654 230.710517,20.3127726 230.984485,20.6126697 C231.254363,20.9125667 231.336145,21.2716791 231.221651,21.680456 C231.088756,22.1465381 230.802521,22.4407046 230.358857,22.5648658 C229.911103,22.689027 229.336589,22.6641948 228.625091,22.4903691 C228.130313,22.368118 227.627357,22.1809212 227.126446,21.9230479 C226.621446,21.6632645 226.071466,21.3213436 225.480595,20.8915548 C225.122802,21.4015708 224.812032,21.8848444 224.538064,22.3432858 C224.266141,22.8017272 224.033064,23.2601685 223.842922,23.7243404 C224.18436,23.9612018 224.507396,24.1770512 224.80181,24.362338 C225.100312,24.5495348 225.404947,24.7157198 225.719806,24.8628031 C226.036709,25.0117966 226.36179,25.1435984 226.699138,25.2620291 C227.038531,25.38237 227.414726,25.4912498 227.825677,25.5924889 L227.24094,27.6803073 C227.447438,27.8044685 227.666204,27.8999771 227.884969,27.976384 C228.107823,28.0527909 228.293876,28.1081859 228.451305,28.1482995 C228.60669,28.186503 228.80501,28.2227962 229.04422,28.2590895 C229.285476,28.2953828 229.520597,28.308754 229.753674,28.2953828 L230.40997,25.947781 C231.661226,25.9286793 232.701894,25.6077703 233.536065,24.9888745 C234.368191,24.3718888 234.936571,23.5256825 235.237118,22.4521656 C235.42726,21.7740544 235.490641,21.1799908 235.42726,20.6699748" id="Fill-42" fill="#E9942D"></path>
                <path d="M242.458417,57.5878756 C240.984307,57.5878756 239.506108,57.4083194 238.064711,57.0568476 C228.839767,54.7990239 223.299076,45.9511057 225.713672,37.3324081 C227.70505,30.2284772 234.576733,25.2658495 242.429794,25.2658495 C243.903904,25.2658495 245.384147,25.4434955 246.825545,25.7968774 C251.292855,26.889496 255.036399,29.5427253 257.371258,33.2694716 C259.704073,36.9943076 260.344013,41.3456802 259.174538,45.5194067 C257.181116,52.6252478 250.307388,57.5878756 242.458417,57.5878756" id="Fill-43" fill="#E3BF2B"></path>
                <path d="M242.429794,22.6947575 C233.536065,22.6947575 225.409037,28.2686404 223.053732,36.6829495 C220.248629,46.6884322 226.656203,56.9212254 237.367524,59.5419819 C239.070622,59.9603096 240.777809,60.1589675 242.458417,60.1589675 C251.352146,60.1589675 259.475085,54.5850846 261.834479,46.1688653 C264.639582,36.167203 258.229963,25.9286793 247.520687,23.309833 C245.817589,22.8934154 244.112446,22.6947575 242.429794,22.6947575 L242.429794,22.6947575 L242.429794,22.6947575 Z M242.431838,27.8350313 L242.431838,27.8350313 C243.670827,27.8350313 244.91186,27.9859349 246.128358,28.2839218 C249.88417,29.2027147 253.034799,31.4337959 254.995508,34.5664786 C256.958262,37.6991612 257.49393,41.3571412 256.512553,44.8661278 C254.838079,50.843057 249.056133,55.0167836 242.458417,55.0167836 C241.217384,55.0167836 239.974307,54.86588 238.759853,54.5698033 C231.002885,52.671092 226.345434,45.2309707 228.375657,37.9837769 C230.050132,32.0087578 235.830033,27.8369414 242.431838,27.8350313 L242.431838,27.8350313 L242.431838,27.8350313 Z" id="Fill-44" fill="#E9942D"></path>
                <path d="M246.71514,42.7668484 C246.651759,42.2549222 246.502508,41.798391 246.263297,41.4029854 C246.028176,41.0037593 245.727629,40.6484673 245.359613,40.3294685 C244.991596,40.0142901 244.594957,39.7105727 244.159471,39.4202265 L243.084045,38.7115525 C242.777365,38.5090743 242.501352,38.2760332 242.268275,38.0124295 C242.029065,37.7488257 241.965684,37.4260066 242.072,37.0401517 C242.133336,36.8262124 242.227385,36.6695783 242.352101,36.566429 L242.799855,36.3563101 L243.327345,36.3352982 C243.511353,36.3582202 243.693316,36.3926033 243.879369,36.4403576 C244.617446,36.6199138 245.202184,36.8338531 245.633581,37.0802654 C246.064978,37.3285878 246.496375,37.6093831 246.923682,37.9264717 C247.682205,37.0516128 248.236274,36.178664 248.58589,35.3152661 C248.068622,34.992447 247.575889,34.7059212 247.103602,34.4652394 C246.637447,34.2226476 246.159026,34.0144388 245.676516,33.8406131 L246.161071,32.1099969 C245.968884,31.9896561 245.754208,31.8922373 245.529309,31.8158304 C245.300321,31.7375133 245.10609,31.6802082 244.950706,31.6420047 C244.793277,31.6038013 244.60109,31.567508 244.370058,31.5293046 C244.132892,31.4949215 243.893681,31.4834604 243.648337,31.4930113 L243.147426,33.2847529 C241.900259,33.1911545 240.84119,33.4089141 239.970218,33.9437624 C239.10129,34.4728801 238.502241,35.3229068 238.17716,36.4881119 C238.021775,37.0458823 237.968617,37.5463474 238.017686,37.9914176 C238.064711,38.4364877 238.189427,38.8414443 238.383658,39.2081973 C238.575844,39.5730403 238.833456,39.9111408 239.158537,40.2167683 C239.481574,40.5223959 239.833234,40.8146523 240.207384,41.0897171 L241.217384,41.8022114 C241.644692,42.107839 241.994308,42.4096462 242.27032,42.7095432 C242.542243,43.0094403 242.619935,43.3666425 242.505441,43.7773296 C242.374591,44.2434116 242.086312,44.5375782 241.642648,44.6617394 C241.196939,44.7878107 240.62038,44.7610683 239.912971,44.5872426 C239.416148,44.4649916 238.915237,44.2777947 238.410237,44.0199215 C237.905237,43.760138 237.357301,43.4182172 236.766431,42.9903386 C236.408637,43.4984444 236.097868,43.981718 235.8239,44.4401594 C235.551977,44.8986007 235.3189,45.3570421 235.128758,45.821214 C235.47224,46.0580753 235.791187,46.2739248 236.087645,46.4592115 C236.384102,46.6444982 236.690783,46.8125934 237.007686,46.9596767 C237.3205,47.1086701 237.645581,47.240472 237.982929,47.3589027 C238.322322,47.4773334 238.698517,47.5881234 239.111513,47.6893625 L238.524731,49.7771809 C238.733274,49.9013421 238.949994,49.9968507 239.170804,50.0732576 C239.393659,50.1496645 239.579711,50.2050595 239.737141,50.2451731 C239.890481,50.2833765 240.090845,50.3196698 240.3321,50.3559631 C240.571311,50.3922564 240.806433,50.4056276 241.03951,50.3903462 L241.69785,48.0446546 C242.945017,48.0255528 243.98773,47.7046439 244.819855,47.0857481 C245.654026,46.4687624 246.222407,45.622556 246.522953,44.5490392 C246.713095,43.870928 246.774431,43.2768644 246.71514,42.7668484" id="Fill-45" fill="#E9942D"></path>
                <path d="M253.294455,40.7134131 C251.820345,40.7134131 250.340101,40.5357671 248.898704,40.1823852 C244.431394,39.0897667 240.685805,36.4365373 238.35299,32.7117012 C236.020175,28.9868652 235.380236,24.6354926 236.54971,20.4598559 C238.541087,13.3540148 245.414815,8.39329724 253.267876,8.39329724 C254.741986,8.39329724 256.21814,8.57094327 257.659538,8.92241498 C266.884481,11.1802387 272.423128,20.0281569 270.010576,28.6468545 C268.017154,35.7507854 261.145471,40.7134131 253.294455,40.7134131" id="Fill-46" fill="#E3BF2B"></path>
                <path d="M253.267876,5.8202951 C244.372102,5.82220528 236.245074,11.3960882 233.889769,19.8103973 C231.082622,29.81588 237.494285,40.0505833 248.203562,42.6694296 C249.90666,43.0858472 251.611802,43.2845051 253.294455,43.2845051 C262.186139,43.2845051 270.311123,37.7125324 272.670516,29.2963131 C275.473575,19.2946508 269.066001,9.05612704 258.356724,6.43728077 C256.655671,6.01895303 254.948484,5.8202951 253.267876,5.8202951 L253.267876,5.8202951 L253.267876,5.8202951 Z M253.26992,10.962479 L253.26992,10.962479 C254.506864,10.962479 255.749942,11.1133826 256.964396,11.4094594 C264.721363,13.3081707 269.378815,20.7482919 267.348591,27.9935756 C265.672072,33.9705048 259.894215,38.1442314 253.294455,38.1442314 C252.055466,38.1442314 250.812389,37.9933277 249.59589,37.6953409 C245.838034,36.776548 242.68945,34.5454667 240.726696,31.412784 C238.765986,28.2820116 238.228273,24.6221214 239.211695,21.1112246 C240.884125,15.1362056 246.668115,10.962479 253.26992,10.962479 L253.26992,10.962479 L253.26992,10.962479 Z" id="Fill-47" fill="#E9942D"></path>
                <path d="M257.549133,25.8942962 C257.487797,25.38237 257.338546,24.927749 257.099335,24.5304331 C256.864213,24.1312071 256.559578,23.7759151 256.19565,23.4569163 C255.827634,23.1398277 255.42895,22.8380204 254.993464,22.5476742 L253.918038,21.8390003 C253.613402,21.636522 253.33739,21.403481 253.104313,21.1379671 C252.867147,20.8762734 252.799677,20.5534543 252.910082,20.1675995 C252.967329,19.9536602 253.061378,19.7951159 253.188139,19.6938768 L253.635892,19.4837578 C253.805589,19.4474645 253.979374,19.4398239 254.165427,19.4627459 L254.715407,19.5678054 C255.451439,19.7473616 256.038221,19.9613009 256.469618,20.2096233 C256.898971,20.4560355 257.328323,20.7368309 257.757675,21.0558296 C258.516198,20.1771504 259.072312,19.3061118 259.421927,18.4427139 C258.90466,18.1179846 258.413971,17.8333689 257.939639,17.5926872 C257.473485,17.3500953 256.993019,17.1418865 256.512553,16.9661507 L256.997108,15.2374447 C256.802877,15.1171039 256.59229,15.0196851 256.365347,14.941368 C256.134314,14.8649611 255.944173,14.8057458 255.784699,14.7675423 C255.62727,14.731249 255.437128,14.6949558 255.204051,14.6567523 C254.970974,14.6223692 254.729718,14.6109082 254.486419,14.6204591 L253.983463,16.4122007 C252.736296,16.3186023 251.677227,16.5363619 250.8083,17.0712102 C249.937328,17.6003279 249.338279,18.4503546 249.011153,19.6174699 C248.857813,20.1752402 248.80261,20.6737952 248.853724,21.1207755 C248.902793,21.5639355 249.027509,21.968892 249.219696,22.3375553 C249.409837,22.7023982 249.669493,23.0404987 249.99253,23.3442161 C250.317611,23.6498437 250.669271,23.9421 251.045466,24.2171649 L252.049333,24.9315693 C252.478685,25.2352867 252.830345,25.5370939 253.106357,25.836991 C253.376236,26.1368881 253.455973,26.4940903 253.341479,26.9047773 C253.210629,27.3708594 252.922349,27.6631158 252.478685,27.7891871 C252.032976,27.9152585 251.456417,27.8885161 250.746964,27.7146904 C250.250141,27.5924394 249.74923,27.4052425 249.246275,27.1473692 C248.743319,26.8875858 248.193339,26.5437548 247.602468,26.1158762 C247.246719,26.6258922 246.931861,27.1091658 246.659937,27.5676071 C246.388014,28.0241383 246.156982,28.4844899 245.964795,28.9467516 C246.308277,29.1874333 246.627225,29.4013726 246.925727,29.5866593 C247.22014,29.7738562 247.52682,29.9400412 247.843723,30.0852143 C248.156537,30.2361179 248.481618,30.3679198 248.821011,30.4863505 C249.15836,30.6047811 249.534554,30.7155711 249.94755,30.8168103 L249.360769,32.9046286 C249.567267,33.0268797 249.786032,33.1242985 250.004797,33.2007054 C250.229696,33.2752021 250.415749,33.3325072 250.573178,33.3707107 C250.728563,33.4089141 250.928927,33.4471176 251.168138,33.4834109 C251.407348,33.5197041 251.640426,33.5330753 251.873503,33.5197041 L252.531843,31.1721023 C253.781054,31.1530006 254.821723,30.8320917 255.657938,30.2131958 C256.488019,29.5981203 257.058444,28.7500038 257.358991,27.676487 C257.549133,26.9983758 257.610469,26.4062224 257.549133,25.8942962" id="Fill-48" fill="#E9942D"></path>
                <path d="M366.796836,350.818431 L437.000048,364.203008 L439.743814,351.634074 L369.542648,338.251407 L366.796836,350.818431" id="Fill-49" fill="#E8E7E3"></path>
                <path d="M397.098895,328.952688 L419.895465,333.29833 C421.774393,333.655532 422.982713,335.367047 422.598341,337.126315 L420.653988,346.025808 L418.102407,345.540625 L420.046761,336.641132 C420.142854,336.205612 419.834129,335.777734 419.372064,335.687956 L396.575494,331.342314 C396.10934,331.254446 395.653409,331.535241 395.557316,331.97267 L393.612963,340.870253 L391.061382,340.385069 L393.003691,331.485576 C393.388064,329.726308 395.217923,328.593576 397.098895,328.952688" id="Fill-50" fill="#E8E7E3"></path>
                <path d="M379.74079,350.59303 L384.907331,351.576769 C386.4714,351.874756 387.963911,351.064843 388.274681,349.765926 L419.253481,355.672179 C418.993825,356.980647 420.02836,358.273833 421.600607,358.57182 L426.754881,359.553649 C428.325084,359.853546 429.81964,359.045543 430.130409,357.746626 L438.302417,359.305326 L431.984803,388.227246 C431.218102,391.741963 427.544072,394.009337 423.78826,393.293023 L366.974711,382.460435 C363.220944,381.746031 360.792036,378.315361 361.558737,374.798734 L367.876351,345.876815 L377.405931,347.693389 C377.136052,349.001857 378.174676,350.293133 379.74079,350.59303" id="Fill-51" fill="#202732"></path>
                <path d="M377.38753,334.782534 L434.199034,345.613211 C437.956891,346.331436 440.387843,349.754465 439.621142,353.267272 L438.928045,356.443888 L430.764215,354.887098 L431.032049,353.658857 C431.322373,352.335108 430.265348,351.026639 428.682878,350.724832 L423.528604,349.743004 C421.94,349.439286 420.425,350.25875 420.134676,351.580589 L419.866841,352.80883 L388.902353,346.904488 L389.170187,345.676247 C389.456422,344.354408 388.417798,343.04785 386.833283,342.746042 L381.668787,341.762304 C380.088361,341.460496 378.57336,342.27996 378.285081,343.6018 L378.017247,344.83004 L368.501979,343.015377 L369.195076,339.84258 C369.961777,336.327863 373.633763,334.068129 377.38753,334.782534" id="Fill-52" fill="#202732"></path>
                <path d="M95.7323353,64.2868499 C99.4063654,66.7184993 101.561306,71.4767386 102.75327,75.3314664 C103.845052,78.8538242 103.998392,81.6102028 106.809628,84.3092763 C109.328496,86.7180037 113.00457,89.4247179 113.634287,92.8324653 C114.030927,94.9871397 108.82554,97.905883 109.169022,101.223852 C109.514548,104.505528 110.962079,112.360157 108.351208,115.38969 C105.948879,118.186183 98.6764663,118.025728 96.7362022,120.573898 C94.7448247,123.194655 96.9386112,126.010249 96.6769107,129.043602 L63.2487571,134.56591 C63.8273606,134.472312 66.2071998,124.562338 66.3482728,121.454488 C66.4934348,118.335176 65.9393657,115.731611 63.1097287,114.044929 C34.1959093,99.3155902 44.1977764,71.4748284 51.0265246,66.4396142 C54.8661621,62.3499352 76.732468,49.6129061 95.7323353,64.2868499" id="Fill-53" fill="#48ADA6"></path>
                <path d="M72.1854213,84.6664786 C77.2701808,83.7247636 75.7081558,76.3572289 70.6233963,77.2970337 C65.5365922,78.2368385 67.0965727,85.6062834 72.1854213,84.6664786 L72.1854213,84.6664786 L72.1854213,84.6664786 Z M57.5036127,86.7409257 C54.9111418,87.220379 53.6108173,81.0791749 56.2012437,80.5997217 C57.6140176,80.3399382 58.6505971,79.9254308 57.519969,78.7182019 C56.3218713,77.4517577 55.2750691,77.222537 55.8904743,75.1958441 C56.2462234,74.0268187 57.3155154,72.2522686 58.8346052,72.2293465 C59.9509216,72.2083346 61.6417523,73.6657961 61.6069952,71.7995577 C61.5804163,70.3249047 60.609262,69.6238714 61.8891411,68.3039424 C62.8950525,67.2705391 65.2769362,66.038478 66.7428681,66.9954743 C67.7896702,67.6831363 69.0327477,70.2484978 69.7074444,67.5494243 C70.0713717,66.0843221 70.7767364,65.4692466 72.5002797,65.4081211 C73.73109,65.362277 76.7038445,65.9047659 76.4871237,67.5933582 C76.2826702,69.2074539 76.6833991,70.1014145 78.4069425,69.1444182 C79.8074492,68.3707984 80.5271257,68.0059555 82.0871062,68.9839637 C83.1666208,69.6582545 84.6407309,71.1577398 84.1970667,72.5139622 C83.8740301,73.5072518 81.8438064,74.5578466 83.7799815,75.1098864 C85.286804,75.5454057 86.3029381,74.8959471 87.2475135,76.4450968 C87.9855907,77.6465952 88.31885,79.5338455 87.4621897,80.7659067 C87.0062583,81.4249161 84.362674,81.5987418 84.7429576,82.4564092 C85.2908931,83.7056619 86.9531004,83.8852181 87.0900842,85.3197575 C87.2250236,86.7829495 86.3847195,88.4810927 85.1048404,89.3311194 C84.0048803,90.0588951 81.9542114,88.6415472 81.3694742,89.260443 C80.5271257,90.1563139 81.9439887,91.5698414 81.6332193,92.5478496 C81.1261745,94.1447537 78.9303435,95.2755757 77.2333792,95.2602943 C76.1047956,95.2507435 74.4078313,92.2364915 73.5061912,93.4284391 C72.7333568,94.4484711 73.295604,95.6786221 71.8358057,96.2574043 C70.2737807,96.8782103 67.7794475,96.6126964 66.6631312,95.3156893 C66.0967949,94.6643206 66.8369167,92.2403119 65.6837988,92.3835748 C64.2935147,92.5554903 63.6167735,93.8945211 62.140619,93.5774325 C60.609262,93.2450625 59.139241,91.9747979 58.6689979,90.5727314 C58.2744025,89.3922449 60.3516505,87.9844479 59.89163,87.2776842 C59.5174801,86.7008121 58.0883498,86.6339561 57.5036127,86.7409257 L57.5036127,86.7409257 L57.5036127,86.7409257 Z" id="Fill-54" fill="#ACDBDB"></path>
                <path d="M44.7048212,277.349382 L34.0957271,251.875324 L33.5028118,250.446515 L1.4547197,250.446515 C1.90042841,258.396652 5.6439727,265.536877 11.4218297,270.701983 C12.2600892,271.44695 13.1371949,272.153714 14.0592803,272.822274 C19.5243234,276.757229 26.3796506,279.110561 33.8197148,279.110561 C37.6368624,279.110561 41.3027143,278.487845 44.7048212,277.349382" id="Fill-55" fill="#ACDBDB"></path>
                <path d="M34.637529,217.146481 C31.3867177,217.146481 28.2544895,217.597282 25.2940023,218.426296 C24.1756414,218.739565 23.0838595,219.100587 22.0268347,219.520825 C15.4025401,222.135851 9.92931886,226.756558 6.41885161,232.552021 C6.41885161,232.552021 5.71553144,233.623627 4.89771728,235.392447 L4.8874946,235.392447 L4.82206947,235.552901 C4.50721102,236.252025 4.18417443,237.048566 3.86931598,237.940617 L3.86113784,237.959719 C3.552413,238.834578 3.26004444,239.772472 3.02287833,240.798235 C2.63237208,242.425702 2.36658248,244.091372 2.27048931,245.802886 L34.7315776,245.802886 L36.0973272,244.374077 L55.4181866,224.185466 C49.7895807,219.790159 42.5478364,217.13693 34.637529,217.146481" id="Fill-56" fill="#40888A"></path>
                <path d="M38.7225107,250.129427 L49.4072526,275.781131 C59.7607798,271.110759 67.0434148,261.445287 67.6853989,250.129427 C67.7099333,249.703458 67.7160669,249.27749 67.720156,248.851521 L38.1950205,248.851521 L38.7225107,250.129427" id="Fill-57" fill="#DE4446"></path>
                <path d="M65.462989,223.113859 L46.2566236,241.955799 L44.3531611,243.827768 L73.7658471,241.470615 C73.2812923,234.450732 70.2553799,228.045924 65.462989,223.113859" id="Fill-58" fill="#FFFFFF"></path>
                <path d="M436.470513,107.126285 C430.700834,123.263421 412.011736,131.975717 394.741546,126.587121 C377.471356,121.196614 368.144185,103.739549 373.91182,87.5985931 C379.683543,71.4633674 398.374685,62.7510714 415.640787,68.1396675 C432.908933,73.5301739 442.240192,90.9872388 436.470513,107.126285" id="Fill-59" fill="#DE4446"></path>
                <path d="M428.257615,104.562834 C424.000892,116.463207 410.220724,122.889027 397.487357,118.912048 C384.751946,114.93889 377.867996,102.064328 382.122674,90.1639546 C386.379396,78.2616707 400.161609,71.8377612 412.89702,75.8109196 C425.632431,79.7878984 432.512293,92.66246 428.257615,104.562834" id="Fill-60" fill="#FFFFFF"></path>
                <path d="M422.197612,102.671763 C419.061294,111.447095 408.897909,116.184322 399.509403,113.254118 C390.120896,110.322003 385.046359,100.828447 388.180632,92.053115 C391.321038,83.2796935 401.484424,78.5424661 410.874975,81.4726704 C420.265526,84.404785 425.335974,93.8964313 422.197612,102.671763" id="Fill-61" fill="#DE4446"></path>
                <path d="M415.612163,100.614507 C413.6903,105.989732 407.462645,108.895104 401.711367,107.099542 C395.956,105.30207 392.850351,99.4855955 394.77017,94.1103706 C396.692033,88.7351456 402.917643,85.8316837 408.67301,87.6291559 C414.424288,89.4228077 417.534027,95.2373723 415.612163,100.614507" id="Fill-62" fill="#FFFFFF"></path>
                <path d="M410.257525,98.9431066 C409.323172,101.558133 406.29726,102.97166 403.500336,102.098711 C400.699322,101.225763 399.190455,98.3967973 400.122763,95.7817714 C401.057116,93.1667455 404.087117,91.7551281 406.884042,92.6280769 C409.683011,93.5010256 411.193922,96.3299908 410.257525,98.9431066" id="Fill-63" fill="#DE4446"></path>
                <path d="M435.176322,82.676079 L440.759949,70.0613009 L459.633055,63.2610874 L452.736837,78.0324501 L468.301885,83.9998284 L448.78475,91.598494 L438.06934,86.5842916 L406.714345,100.236293 C406.714345,100.236293 405.035782,98.8858014 404.767948,98.2630853 C404.51647,97.684303 404.708656,95.7626697 404.708656,95.7626697 L435.176322,82.676079" id="Fill-64" fill="#202732"></path>
                <path d="M406.714345,100.236293 C406.714345,100.236293 405.344507,99.5524516 404.767948,98.2630853 C404.508292,97.6862132 404.708656,95.7626697 404.708656,95.7626697" id="Fill-65" fill="#202732"></path>
                <path d="M406.714345,100.236293 C406.714345,100.236293 405.268859,99.5811042 404.767948,98.2630853 C404.248636,96.9068629 404.708656,95.7626697 404.708656,95.7626697" id="Fill-66" fill="#202732"></path>
                <path d="M125.666378,391.583418 C126.743848,393.911919 126.747937,396.070413 126.069151,398.186884 C125.400588,400.284253 124.357875,401.627105 122.438056,402.402635 L100.821184,411.135943 C99.1405758,411.817874 97.128753,411.708994 95.020837,410.734806 C92.9415445,409.728145 91.2588919,408.249672 90.1793772,405.923082 L71.2858257,365.10652 C70.3330722,363.045444 70.3330722,360.888859 70.8544288,358.533617 C71.5270809,356.415236 72.8253609,354.973056 74.5080135,354.293034 L96.1228416,345.559726 C98.167377,345.0478 99.9215883,345.244548 101.904788,345.987605 C104.13742,347.227307 105.818028,348.70578 106.772826,350.766856 L125.666378,391.583418" id="Fill-67" fill="#B0B0AC"></path>
                <path d="M125.666378,391.583418 L124.58073,392.022758 C125.122531,393.197514 125.351519,394.282492 125.351519,395.348368 C125.351519,396.190754 125.206357,397.021679 124.936479,397.869796 C124.627754,398.832522 124.255648,399.556478 123.791539,400.106607 C123.325385,400.656737 122.771316,401.059783 121.967813,401.388333 L100.352985,410.119731 C99.7927826,410.347041 99.1896446,410.463562 98.5313043,410.465472 C97.6317087,410.465472 96.6257973,410.241982 95.5442381,409.743427 L95.020837,410.734806 L95.5646834,409.752978 C93.6755327,408.828454 92.2464025,407.575381 91.26707,405.483743 L72.3735186,364.66718 C71.8950973,363.631867 71.6885992,362.581272 71.6885992,361.438989 C71.6885992,360.594693 71.8030932,359.704552 72.0136803,358.759017 L70.8544288,358.533617 L71.9891459,358.848795 C72.5963729,356.965365 73.6656649,355.844094 74.9782566,355.307336 L96.5930847,346.574028 L96.1228416,345.559726 L96.4295219,346.627513 C97.1103522,346.455597 97.7339355,346.37919 98.3411625,346.37919 C99.3409403,346.3811 100.324362,346.587399 101.463168,347.013367 L101.904788,345.987605 L101.299605,346.936961 C103.407521,348.113627 104.853008,349.414454 105.685134,351.206196 L124.578685,392.022758 L125.666378,391.583418 L126.752026,391.144079 L107.858475,350.327516 C106.783049,347.997106 104.865275,346.340987 102.50997,345.036339 L102.344363,344.961842 C101.015415,344.461377 99.7069121,344.167211 98.3411625,344.167211 C97.5151702,344.167211 96.6769107,344.27609 95.8161613,344.49194 L95.6525984,344.543515 L74.0398149,353.278733 C71.9871014,354.102017 70.4598334,355.865106 69.7197116,358.220348 L69.6972217,358.310127 C69.4600556,359.366452 69.3210272,360.407496 69.3210272,361.438989 C69.3189827,362.831504 69.5806832,364.212559 70.2001774,365.545859 L89.0937289,406.362422 C90.2713813,408.923963 92.2075563,410.627837 94.474946,411.716635 L94.4953914,411.726186 C95.8488738,412.350812 97.2125789,412.675541 98.5313043,412.675541 C99.4942804,412.677452 100.430678,412.499806 101.293472,412.150244 L122.906255,403.416936 C124.024616,402.969956 124.95079,402.312856 125.654111,401.472381 C126.359475,400.633815 126.841986,399.638615 127.203868,398.502063 C127.530994,397.482031 127.719091,396.429526 127.719091,395.348368 C127.719091,393.980685 127.414456,392.570978 126.752026,391.144079 L125.666378,391.583418" id="Fill-68" fill="#B0B0AC"></path>
                <path d="M111.933234,369.668011 L111.933234,369.410138 C111.914833,368.393926 111.689934,367.364343 111.231958,366.378695 L105.329384,353.626384 C103.937056,350.621683 100.796649,348.81275 97.4967693,348.799379 L97.4231661,348.799379 C96.3007161,348.803199 95.1598654,349.015228 94.066039,349.456478 L78.9446553,355.565209 C75.7326902,356.864126 73.7903816,359.828714 73.788337,362.930833 C73.7903816,359.828714 75.7326902,356.864126 78.9446553,355.565209 L94.066039,349.456478 C95.1721326,349.009497 96.323206,348.799379 97.4558786,348.799379 C100.772115,348.799379 103.930922,350.610222 105.329384,353.626384 L111.231958,366.378695 C111.72878,367.448391 111.951635,368.567752 111.933234,369.668011" id="Fill-69" fill="#40888A"></path>
                <path d="M79.8544735,351.92442 C79.8054047,351.817451 79.4680563,351.089675 79.1102626,350.317966 C78.7422463,349.517603 77.8038045,347.489 77.0023467,345.760294 C76.2008888,344.029678 74.3240053,343.122346 72.833539,343.72214 C71.3573845,344.320024 70.8564733,346.405933 71.7560689,348.342847 C72.6536199,350.289313 73.5941062,352.317916 73.8230941,352.816471 C74.0766165,353.36087 74.3321834,353.905269 74.3935195,354.046622 C74.4548556,354.174603 75.7449574,353.794479 77.2211119,353.196595 C78.7095337,352.596801 79.8974088,352.018019 79.8544735,351.92442" id="Fill-122" fill="#48ADA6"></path>
                <path d="M106.770782,376.899924 L91.6493981,383.008655 C89.1243969,384.028687 86.3397398,383.801376 84.0887063,382.632351 L98.4106767,348.854774 C101.36503,349.166132 104.067906,350.900568 105.329384,353.626384 L111.231958,366.378695 C113.100663,370.414889 111.11133,375.146386 106.770782,376.899924" id="Fill-123" fill="#326065"></path>
                <path d="M374.750079,199.4048 C373.813682,199.4048 373.036758,198.698036 373.016313,197.819357 L372.227122,161.281581 C372.208722,160.39144 372.971333,159.648383 373.926131,159.629282 L379.454555,159.526132 L379.489312,159.526132 C380.425709,159.526132 381.202633,160.232896 381.223078,161.113486 L382.012269,197.647442 C382.032714,198.537582 381.268058,199.280639 380.315304,199.299741 L374.786881,199.4048 L374.750079,199.4048" id="Fill-124" fill="#697374"></path>
                <path d="M362.178231,199.826948 C361.239789,199.826948 360.46491,199.120185 360.444465,198.241505 L359.822926,169.443747 C359.802481,168.553607 360.567137,167.81055 361.519891,167.791448 L367.052403,167.686389 L367.087161,167.686389 C368.025602,167.686389 368.802526,168.393152 368.822971,169.271832 L369.446554,198.07341 C369.467,198.96355 368.702343,199.706607 367.74959,199.725709 L362.212988,199.826948 L362.178231,199.826948" id="Fill-125" fill="#697374"></path>
                <path d="M349.616606,200.443934 C348.680208,200.443934 347.903285,199.73717 347.884884,198.856581 L347.410552,176.870497 C347.390107,175.980357 348.152718,175.23539 349.107516,175.218198 L354.633895,175.113139 L354.670697,175.113139 C355.609139,175.113139 356.384018,175.819902 356.400374,176.698582 L356.876751,198.690396 C356.895152,199.578626 356.13254,200.323593 355.177742,200.340785 L349.653407,200.442024 C349.64114,200.443934 349.628873,200.443934 349.616606,200.443934" id="Fill-126" fill="#697374"></path>
                <path d="M337.044758,200.495509 C336.106316,200.493598 335.331437,199.786835 335.310992,198.908155 L334.975688,183.460592 C334.955242,182.570451 335.717854,181.825484 336.672652,181.808293 L342.201076,181.705143 L342.235833,181.705143 C343.17223,181.705143 343.951198,182.411907 343.969599,183.292497 L344.304903,198.74006 C344.325348,199.630201 343.560692,200.373258 342.607938,200.390449 L337.079515,200.493598 C337.067247,200.493598 337.057025,200.495509 337.044758,200.495509" id="Fill-127" fill="#697374"></path>
            </g>
        </g>
    </g>
</svg>