<?xml version="1.0" encoding="UTF-8" standalone="no"?>
<svg width="180px" height="60px" viewBox="0 0 180 60" version="1.1" xmlns="http://www.w3.org/2000/svg" xmlns:xlink="http://www.w3.org/1999/xlink" xmlns:sketch="http://www.bohemiancoding.com/sketch/ns">
    <!-- Generator: Sketch 3.3.3 (12081) - http://www.bohemiancoding.com/sketch -->
    <title>Untitled</title>
    <desc>Created with Sketch.</desc>
    <defs></defs>
    <g id="Page-1" stroke="none" stroke-width="1" fill="none" fill-rule="evenodd" sketch:type="MSPage">
        <g id="quote" sketch:type="MSLayerGroup">
            <g id="Group" sketch:type="MSShapeGroup">
                <path d="M27,31.382 C24.912,30.4 22.458,29.906 19.629,29.906 C17.817,29.906 16.356,30.257 15.244,30.955 C15.38,26.337 17.191,22.451 20.671,19.303 C24.15,16.152 28.051,14.231 32.366,13.528 L32.366,0.72 C24.15,1.559 16.706,5.097 10.024,11.324 C3.341,17.554 0,26.965 0,39.564 C0,45.306 1.669,50.098 5.01,53.946 C8.351,57.798 12.738,59.719 18.167,59.719 C22.898,59.719 26.796,58.219 29.86,55.205 C30.365,54.71 30.811,54.192 31.234,53.662 C28.051,49.86 26.448,45.169 26.448,39.563 C26.448,36.66 26.646,33.947 27,31.382" id="left" fill="#DF4F2A"></path>
                <path d="M56.034,33.789 C53.387,31.201 49.769,29.906 45.177,29.906 C43.365,29.906 41.904,30.257 40.791,30.955 C40.928,26.337 42.738,22.451 46.219,19.303 C49.698,16.152 53.599,14.231 57.914,13.528 L57.914,0.72 C49.698,1.559 42.254,5.097 35.57,11.324 C30.429,16.119 27.288,22.817 26.101,31.383 C27.406,31.995 28.57,32.795 29.588,33.79 C32.231,36.383 33.554,39.916 33.554,44.393 C33.554,47.901 32.47,50.988 30.335,53.664 C30.411,53.758 30.479,53.856 30.558,53.947 C33.898,57.799 38.285,59.72 43.714,59.72 C48.444,59.72 52.343,58.22 55.407,55.206 C58.468,52.199 60,48.594 60,44.392 C60,39.915 58.678,36.382 56.034,33.789" id="right" fill="#232C2A"></path>
                <path d="M30.52,33.678 C29.458,32.638 28.243,31.803 26.881,31.164 C26.512,33.842 26.305,36.674 26.305,39.706 C26.305,45.555 27.977,50.453 31.299,54.42 C33.527,51.627 34.657,48.406 34.657,44.744 C34.657,40.071 33.277,36.384 30.52,33.678" id="center" fill="#27B0A3"></path>
            </g>
            <g id="Group" transform="translate(60.000000, 0.000000)" sketch:type="MSShapeGroup">
                <path d="M26.999,31.382 C24.911,30.4 22.458,29.907 19.628,29.907 C17.817,29.907 16.356,30.257 15.243,30.955 C15.379,26.338 17.19,22.452 20.671,19.304 C24.15,16.154 28.051,14.232 32.365,13.529 L32.365,0.72 C24.149,1.56 16.704,5.098 10.022,11.324 C3.341,17.554 7.10542736e-15,26.966 7.10542736e-15,39.565 C7.10542736e-15,45.306 1.67,50.098 5.011,53.947 C8.352,57.799 12.739,59.72 18.166,59.72 C22.898,59.72 26.796,58.219 29.859,55.205 C30.365,54.711 30.81,54.193 31.233,53.662 C28.05,49.861 26.447,45.17 26.447,39.564 C26.447,36.66 26.646,33.947 26.999,31.382" id="left_1_" fill="#FFFFFF"></path>
                <path d="M56.034,33.789 C53.387,31.201 49.769,29.907 45.177,29.907 C43.365,29.907 41.904,30.257 40.791,30.955 C40.928,26.338 42.738,22.452 46.219,19.304 C49.698,16.154 53.599,14.232 57.914,13.529 L57.914,0.72 C49.698,1.559 42.254,5.098 35.57,11.324 C30.429,16.12 27.288,22.818 26.101,31.382 C27.406,31.994 28.57,32.795 29.587,33.789 C32.231,36.383 33.554,39.916 33.554,44.393 C33.554,47.901 32.47,50.988 30.334,53.664 C30.411,53.759 30.478,53.857 30.557,53.948 C33.898,57.8 38.285,59.721 43.714,59.721 C48.444,59.721 52.343,58.22 55.407,55.206 C58.468,52.2 60,48.595 60,44.393 C60,39.916 58.678,36.383 56.034,33.789" id="right_1_" fill="#FFFFFF"></path>
                <path d="M30.52,33.678 C29.457,32.638 28.243,31.804 26.88,31.165 C26.512,33.842 26.304,36.674 26.304,39.707 C26.304,45.556 27.978,50.454 31.299,54.421 C33.527,51.628 34.657,48.407 34.657,44.745 C34.657,40.071 33.277,36.385 30.52,33.678" id="center_1_" fill="#27B0A3"></path>
            </g>
            <g id="Group" transform="translate(120.000000, 0.000000)" sketch:type="MSShapeGroup">
                <path d="M26.999,31.381 C24.911,30.4 22.458,29.905 19.628,29.905 C17.817,29.905 16.356,30.257 15.243,30.954 C15.379,26.337 17.19,22.451 20.671,19.303 C24.15,16.152 28.051,14.23 32.365,13.528 L32.365,0.72 C24.149,1.559 16.704,5.097 10.022,11.324 C3.341,17.553 1.42108547e-14,26.965 1.42108547e-14,39.564 C1.42108547e-14,45.305 1.67,50.098 5.011,53.945 C8.352,57.798 12.739,59.719 18.166,59.719 C22.898,59.719 26.796,58.219 29.859,55.205 C30.365,54.709 30.81,54.191 31.232,53.661 C28.05,49.859 26.447,45.168 26.447,39.563 C26.447,36.66 26.646,33.946 26.999,31.381" id="left_2_" fill="#FFFFFF"></path>
                <path d="M56.034,33.789 C53.387,31.2 49.769,29.905 45.177,29.905 C43.365,29.905 41.904,30.257 40.791,30.954 C40.928,26.337 42.738,22.451 46.219,19.303 C49.698,16.152 53.599,14.23 57.914,13.528 L57.914,0.72 C49.698,1.559 42.254,5.097 35.57,11.324 C30.429,16.119 27.288,22.817 26.101,31.382 C27.406,31.995 28.57,32.794 29.587,33.79 C32.231,36.383 33.554,39.915 33.554,44.393 C33.554,47.901 32.47,50.988 30.334,53.664 C30.411,53.758 30.478,53.857 30.557,53.947 C33.898,57.8 38.285,59.721 43.714,59.721 C48.444,59.721 52.343,58.221 55.407,55.207 C58.467,52.199 59.999,48.595 59.999,44.393 C60,39.914 58.678,36.382 56.034,33.789" id="right_2_" fill="#FFFFFF"></path>
                <path d="M30.52,33.677 C29.457,32.637 28.243,31.802 26.88,31.164 C26.512,33.841 26.305,36.674 26.305,39.706 C26.305,45.555 27.978,50.452 31.299,54.419 C33.527,51.626 34.657,48.405 34.657,44.743 C34.657,40.07 33.277,36.384 30.52,33.677" id="center_2_" fill="#DF4F2A"></path>
            </g>
        </g>
    </g>
</svg>