<?xml version="1.0" encoding="UTF-8" standalone="no"?>
<svg width="430px" height="280px" viewBox="0 0 430 280" version="1.1" xmlns="http://www.w3.org/2000/svg" xmlns:xlink="http://www.w3.org/1999/xlink" xmlns:sketch="http://www.bohemiancoding.com/sketch/ns">
    <!-- Generator: Sketch 3.3.2 (12043) - http://www.bohemiancoding.com/sketch -->
    <title>Imported Layers</title>
    <desc></desc>
    <defs></defs>
    <g id="vertical" stroke="none" stroke-width="1" fill="none" fill-rule="evenodd" sketch:type="MSPage">
        <g id="solution-detail" sketch:type="MSArtboardGroup" transform="translate(-795.000000, -162.000000)">
            <g id="Imported-Layers" sketch:type="MSLayerGroup" transform="translate(1010.000000, 302.000000) scale(-1, 1) translate(-1010.000000, -302.000000) translate(795.000000, 162.000000)">
                <path d="M242,15.1651602 L333.962236,106.890864 L342.284683,143.900371 C342.284683,143.900371 352.686741,151.400064 361.426511,150.983248 C370.16528,150.566431 379.586578,147.042527 381.949408,136.930717 C384.313239,126.818906 381.949408,106.890864 381.949408,106.890864 L289.021424,11 L242,15.1651602" id="Fill-1" fill="#19B1A3" sketch:type="MSShapeGroup"></path>
                <path d="M283,15.1651602 L374.962236,106.890864 L383.284683,143.900371 C383.284683,143.900371 393.686741,151.400064 402.426511,150.983248 C411.16528,150.566431 420.586578,147.042527 422.949408,136.930717 C425.313239,126.818906 422.949408,106.890864 422.949408,106.890864 L330.021424,11 L283,15.1651602" id="Fill-2" fill="#FFFFFF" sketch:type="MSShapeGroup"></path>
                <path d="M35,0 L315,0 L315,280 L35,280 L35,0 Z" id="Fill-3" fill="#FFFFFF" sketch:type="MSShapeGroup"></path>
                <path d="M70,219 L70,36 L90.9607817,36 L90.9607817,52.0041978 L86.0074702,52.0041978 L86,202.995802 L264,202.995802 L263.99253,147.981372 L280,147.981372 L280,219 L70,219 Z" id="Fill-4" fill="#27B0A3" sketch:type="MSShapeGroup"></path>
                <path d="M62,15.1651602 L153.962236,106.890864 L162.284683,143.900371 C162.284683,143.900371 172.686741,151.400064 181.426511,150.983248 C190.16528,150.566431 199.586578,147.042527 201.949408,136.930717 C204.313239,126.818906 201.949408,106.890864 201.949408,106.890864 L109.021424,11 L62,15.1651602" id="Fill-5" fill="#27B0A3" sketch:type="MSShapeGroup"></path>
                <path d="M242,15.1651602 L333.962236,106.890864 L342.284683,143.900371 C342.284683,143.900371 352.686741,151.400064 361.426511,150.983248 C370.16528,150.566431 379.586578,147.042527 381.949408,136.930717 C384.313239,126.818906 381.949408,106.890864 381.949408,106.890864 L289.021424,11 L242,15.1651602" id="Fill-6" fill="#27B0A3" sketch:type="MSShapeGroup"></path>
                <path d="M194,15.1651602 L285.962874,106.890864 L294.284288,143.900371 C294.284288,143.900371 304.687305,151.400064 313.42604,150.983248 C322.165776,150.566431 331.587036,147.042527 333.949857,136.930717 C336.312678,126.818906 333.949857,106.890864 333.949857,106.890864 L241.021239,11 L194,15.1651602" id="Fill-7" fill="#FFFFFF" sketch:type="MSShapeGroup"></path>
                <path d="M152,15.1651602 L243.962874,106.890864 L252.284288,143.900371 C252.284288,143.900371 262.687305,151.400064 271.42604,150.983248 C280.164775,150.566431 289.587036,147.042527 291.949857,136.930717 C294.312678,126.818906 291.949857,106.890864 291.949857,106.890864 L199.021239,11 L152,15.1651602" id="Fill-8" fill="#27B0A3" sketch:type="MSShapeGroup"></path>
                <path id="Stroke-9" stroke="#232C2A" stroke-width="16" sketch:type="MSShapeGroup"></path>
                <path id="Stroke-10" stroke="#19B1A3" stroke-width="16" sketch:type="MSShapeGroup"></path>
                <path d="M366,99 L429,99 L429,115 L366,115 L366,99 Z" id="Fill-11" fill="#232C2A" sketch:type="MSShapeGroup"></path>
                <path d="M430,99 L331,0" id="Fill-12" fill="#232C2A" sketch:type="MSShapeGroup"></path>
                <path d="M35,0 L35,280 L315,280 L315,158.203 C319.097217,157.77 322.66226,156.636 325.881912,154.936 C328.893327,153.346 331.595392,151.259 333.888993,148.789 C336.183596,151.262 338.889665,153.347 341.900079,154.937 C346.08883,157.149 350.855236,158.406 355.918979,158.406 C360.438104,158.406 364.719961,157.399 368.564321,155.611 C369.026846,155.396 369.485366,155.175 369.934876,154.938 C372.943288,153.349 375.648356,151.266 377.941957,148.795 C380.237561,151.267 382.94363,153.351 385.953043,154.94 C390.136788,157.149 394.903194,158.406 399.965936,158.406 C405.028678,158.406 409.796085,157.149 413.981833,154.938 C423.506635,149.908 430,139.917 430,128.406 L430,98.551 L331.899737,0 L35,0 Z M233.959731,16 L317,99 L293.856775,99 L211,16 L233.959731,16 L233.959731,16 Z M281.997999,128.966326 C281.975993,136.707413 275.705201,143 267.995999,143 C260.325807,143 254.084024,136.770741 254,129.081924 L254,115 L282,115 L282,128.810519 C282,128.836654 281.997999,128.861784 281.997999,128.88792 C281.997999,128.900987 281.996999,128.914055 281.996999,128.927123 C281.996999,128.94019 281.997999,128.952253 281.997999,128.966326 L281.997999,128.966326 Z M188.104802,16 L271,99 L247.944353,99 L165,16 L188.104802,16 L188.104802,16 Z M237.995,129.029654 C237.963,133.436475 235.902,137.361802 232.713,139.923066 C230.32,141.844014 227.294,143 224,143 C216.28,143 210,136.687309 210,128.927123 L210,115 L238,115 L238,128.616514 C237.999,128.685873 237.995,128.754227 237.995,128.823586 C237.995,128.858769 237.992,128.892946 237.992,128.927123 C237.992,128.9613 237.995,128.995477 237.995,129.029654 L237.995,129.029654 Z M142.110558,16 L225,99 L201.781172,99 L119,16 L142.110558,16 L142.110558,16 Z M97.1147895,16 L180,99 L156.864131,99 L74,16 L97.1147895,16 L97.1147895,16 Z M194,115 L194,128.927123 C194,136.687309 187.72,143 180,143 C172.28,143 166,136.687309 166,128.927123 L166,115 L194,115 L194,115 Z M299.041838,264 L51,264 L51,16 L149.568626,114.551 L149.568626,128.406 C149.568626,139.917 156.05572,149.908 165.571325,154.938 C169.753031,157.149 174.514834,158.406 179.573687,158.406 C184.63154,158.406 189.394344,157.149 193.576049,154.938 C193.58005,154.937 193.58305,154.935 193.587051,154.933 C196.591558,153.343 199.292013,151.259 201.582399,148.788 C203.873786,151.259 206.574241,153.343 209.578748,154.933 C209.582749,154.935 209.585749,154.937 209.58975,154.938 C213.770455,157.149 218.533259,158.406 223.592112,158.406 C226.624623,158.406 229.548117,157.946 232.306582,157.107 C234.147892,156.547 235.920191,155.824 237.594474,154.938 C240.598981,153.35 243.300436,151.268 245.591823,148.797 C247.88521,151.27 250.589666,153.353 253.597173,154.943 C257.775878,157.15 262.535681,158.406 267.591534,158.406 C272.649387,158.406 277.41219,157.149 281.593895,154.938 C284.599402,153.349 287.301858,151.266 289.593245,148.795 C291.886631,151.267 294.590087,153.351 297.596595,154.94 C298.069674,155.19 298.553756,155.424 299.041838,155.65 C299.356892,155.795 299.678946,155.927 300,156.062 L299.041838,156.062 L299.041838,264 L299.041838,264 Z M326,128.927123 C326,135.489104 321.502518,141.000646 315.446869,142.549668 C314.341751,142.833136 313.189627,143 311.9985,143 C306.48891,143 301.728399,139.777311 299.445155,135.116173 C298.537058,133.261569 298.009001,131.185819 298,128.984419 L298,115 L326,115 L326,128.927123 L326,128.927123 Z M338.856083,99 L256,16 L279.006852,16 L362,99 L338.856083,99 L338.856083,99 Z M370,128.810519 C370,128.836654 369.998,128.861784 369.998,128.88792 C369.998,128.900987 369.997,128.914055 369.997,128.927123 C369.997,128.94019 369.998,128.952253 369.998,128.966326 C369.992,131.110429 369.493,133.133908 368.631,134.95333 C366.38,139.701921 361.572,143 356,143 C348.28,143 342,136.687309 342,128.927123 L342,115 L370,115 L370,128.810519 L370,128.810519 Z M385.183362,99 L302,16 L325.22175,16 L408,99 L385.183362,99 L385.183362,99 Z M414,128.927123 C414,136.687309 407.719327,143 399.9985,143 C392.297675,143 386.031003,136.718471 386,128.984419 L386,115 L414,115 L414,128.927123 L414,128.927123 Z" id="Fill-13" fill="#232C2A" sketch:type="MSShapeGroup"></path>
                <rect id="Rectangle-31" fill="#232C2A" sketch:type="MSShapeGroup" x="0" y="264" width="420" height="16" rx="10"></rect>
                <path d="M340.822702,99 L339,99 L362,99" id="Fill-14" fill="#E73F3D" sketch:type="MSShapeGroup"></path>
            </g>
        </g>
    </g>
</svg>