<?xml version="1.0" encoding="UTF-8" standalone="no"?>
<svg width="450px" height="498px" viewBox="0 0 450 498" version="1.1" xmlns="http://www.w3.org/2000/svg" xmlns:xlink="http://www.w3.org/1999/xlink" xmlns:sketch="http://www.bohemiancoding.com/sketch/ns">
    <!-- Generator: Sketch 3.3.3 (12081) - http://www.bohemiancoding.com/sketch -->
    <title>suitcase</title>
    <desc>Created with Sketch.</desc>
    <defs></defs>
    <g id="Page-1" stroke="none" stroke-width="1" fill="none" fill-rule="evenodd" sketch:type="MSPage">
        <g id="suitcase" sketch:type="MSLayerGroup" transform="translate(0.000000, -1.000000)">
            <path d="M449.2603,285.43956 C449.2603,403.021978 348.746137,498.340659 224.754721,498.340659 C100.761373,498.340659 0.2472103,403.021978 0.2472103,285.43956 C0.2472103,167.858974 100.761373,72.5384615 224.754721,72.5384615 C348.746137,72.5384615 449.2603,167.858974 449.2603,285.43956" id="Fill-516" fill="#E15B2D" sketch:type="MSShapeGroup"></path>
            <path d="M271.351931,184.74359 C270.133262,187.058608 267.786695,188.289377 266.067811,187.558608 C239.083262,176.058608 208.181974,176.058608 181.203219,187.558608 C179.484335,188.289377 177.130043,187.058608 175.919099,184.74359 C175.830258,184.565934 175.739485,184.391941 175.648712,184.217949 C174.428112,181.899267 174.976609,179.302198 176.900215,178.479853 C206.623391,165.81685 240.645708,165.81685 270.370815,178.479853 C272.290558,179.298535 272.837124,181.899267 271.622318,184.217949 C271.531545,184.391941 271.440773,184.565934 271.351931,184.74359" id="Fill-517" fill="#152830" sketch:type="MSShapeGroup"></path>
            <path d="M270.370815,178.479853 C240.653433,165.81685 206.623391,165.81685 176.900215,178.479853 C174.976609,179.298535 174.428112,181.899267 175.648712,184.217949 C205.918455,170.153846 241.348712,170.153846 271.622318,184.217949 C272.837124,181.899267 272.288627,179.302198 270.370815,178.479853" id="Fill-518" fill="#2C4F61" sketch:type="MSShapeGroup"></path>
            <path d="M185.71867,211.465201 C185.71867,213.181319 184.258584,214.567766 182.448927,214.567766 L181.910086,214.567766 C180.104292,214.567766 178.646137,213.181319 178.646137,211.465201 L178.646137,185.126374 C178.646137,183.412088 180.104292,182.027473 181.910086,182.027473 L182.448927,182.027473 C184.258584,182.027473 185.71867,183.412088 185.71867,185.126374 L185.71867,211.465201" id="Fill-519" fill="#F4BA29" sketch:type="MSShapeGroup"></path>
            <path d="M190.075751,199.844322 C190.075751,203.979853 186.543348,207.32967 182.172747,207.32967 C177.817597,207.32967 174.277468,203.979853 174.277468,199.844322 C174.277468,195.708791 177.817597,192.357143 182.172747,192.357143 C186.543348,192.357143 190.075751,195.708791 190.075751,199.844322" id="Fill-520" fill="#F4BA29" sketch:type="MSShapeGroup"></path>
            <path d="M268.634549,211.465201 C268.634549,213.181319 267.16867,214.567766 265.370601,214.567766 L264.822103,214.567766 C263.022103,214.567766 261.560086,213.181319 261.560086,211.465201 L261.560086,185.126374 C261.560086,183.412088 263.022103,182.027473 264.822103,182.027473 L265.370601,182.027473 C267.16867,182.027473 268.634549,183.412088 268.634549,185.126374 L268.634549,211.465201" id="Fill-521" fill="#F4BA29" sketch:type="MSShapeGroup"></path>
            <path d="M272.995494,199.844322 C272.995494,203.979853 269.461159,207.32967 265.096352,207.32967 C260.729614,207.32967 257.199142,203.979853 257.199142,199.844322 C257.199142,195.708791 260.729614,192.357143 265.096352,192.357143 C269.461159,192.357143 272.995494,195.708791 272.995494,199.844322" id="Fill-522" fill="#F4BA29" sketch:type="MSShapeGroup"></path>
            <path d="M372.853004,380.349817 C372.853004,385.483516 368.461159,389.648352 363.047639,389.648352 L84.2214592,389.648352 C78.8040773,389.648352 74.4199571,385.483516 74.4199571,380.349817 L74.4199571,208.888278 C74.4199571,203.754579 78.8040773,199.591575 84.2214592,199.591575 L363.047639,199.591575 C368.461159,199.591575 372.853004,203.754579 372.853004,208.888278 L372.853004,380.349817" id="Fill-523" fill="#152830" sketch:type="MSShapeGroup"></path>
            <path d="M372.853004,271.895604 C372.853004,277.003663 368.540343,282.227106 363.188627,283.465201 C271.446567,304.272894 175.822532,304.272894 84.0804721,283.465201 C78.7345494,282.227106 74.4103004,277.003663 74.4199571,271.895604 L74.4199571,208.888278 C74.4103004,203.787546 78.7886266,199.622711 84.2214592,199.591575 L363.047639,199.591575 C368.468884,199.622711 372.853004,203.787546 372.853004,208.888278 L372.853004,271.895604" id="Fill-524" fill="#2C4F61" sketch:type="MSShapeGroup"></path>
            <path d="M223.634549,292.873626 C177.195708,292.873626 130.754936,287.677656 85.5965665,277.43956 C83.226824,276.89011 80.9497854,274.195971 80.9497854,271.901099 L80.9497854,208.888278 C80.9497854,207.186813 82.4311159,205.798535 84.2465665,205.794872 L363.047639,205.794872 C364.839914,205.798535 366.323176,207.192308 366.323176,208.893773 L366.323176,271.895604 C366.323176,274.195971 364.046137,276.891941 361.641631,277.446886 C316.5103,287.677656 270.071459,292.873626 223.634549,292.873626" id="Fill-525" fill="#152830" sketch:type="MSShapeGroup"></path>
            <path d="M223.634549,283.580586 C179.528755,283.580586 135.393991,278.941392 91.5373391,269.79304 C89.2255365,269.300366 86.8866953,266.893773 86.7379828,264.847985 C85.4015021,246.084249 84.0727468,227.320513 82.7401288,208.558608 C82.6242489,207.042125 84.0051502,205.798535 85.8109442,205.794872 L361.502575,205.794872 C363.269742,205.798535 364.639056,207.042125 364.52897,208.558608 C363.196352,227.324176 361.863734,246.084249 360.525322,264.847985 C360.386266,266.888278 358.035837,269.304029 355.698927,269.800366 C311.886695,278.941392 267.742275,283.580586 223.634549,283.580586" id="Fill-526" fill="#2C4F61" sketch:type="MSShapeGroup"></path>
            <path d="M204.574249,199.071429 L204.574249,281.505495 C204.574249,285.613553 206.036266,288.948718 207.836266,288.948718 L239.434764,288.948718 C241.230901,288.948718 242.696781,285.613553 242.696781,281.505495 L242.696781,199.071429 L204.574249,199.071429" id="Fill-527" fill="#152830" sketch:type="MSShapeGroup"></path>
            <path d="M209.209442,199.071429 L209.209442,281.505495 C209.209442,285.613553 209.375536,288.948718 209.572532,288.948718 L213.187983,288.948718 C213.388841,288.948718 213.562661,285.613553 213.562661,281.505495 L213.562661,199.071429 L209.209442,199.071429" id="Fill-528" fill="#2C4F61" sketch:type="MSShapeGroup"></path>
            <path d="M233.714163,199.071429 L233.714163,281.505495 C233.714163,285.613553 233.882189,288.948718 234.081116,288.948718 L237.696567,288.948718 C237.899356,288.948718 238.071245,285.613553 238.071245,281.505495 L238.071245,199.071429 L233.714163,199.071429" id="Fill-529" fill="#2C4F61" sketch:type="MSShapeGroup"></path>
            <path d="M240.520172,318.382784 C240.512446,319.880952 239.260944,321.57326 237.704292,322.043956 C228.534335,324.723443 218.736695,324.723443 209.566738,322.043956 C207.994635,321.57326 206.745064,319.880952 206.750858,318.382784 L206.750858,286.364469 C206.750858,284.8663 208.002361,283.177656 209.566738,282.703297 C218.736695,280.027473 228.534335,280.027473 237.704292,282.703297 C239.26867,283.177656 240.512446,284.8663 240.520172,286.364469 L240.520172,318.382784" id="Fill-530" fill="#F4BA29" sketch:type="MSShapeGroup"></path>
            <path d="M237.704292,283.791209 C228.534335,281.269231 218.736695,281.269231 209.566738,283.791209 C208.002361,284.230769 206.750858,285.826007 206.750858,287.232601 L206.750858,301.181319 L207.059871,301.228938 L240.520172,301.228938 L240.520172,287.232601 C240.512446,285.826007 239.26867,284.230769 237.704292,283.791209" id="Fill-531" fill="#EC942F" sketch:type="MSShapeGroup"></path>
            <path d="M206.750858,304.194139 L206.750858,318.382784 C206.745064,319.880952 207.994635,321.57326 209.566738,322.043956 C218.736695,324.723443 228.534335,324.723443 237.704292,322.043956 C239.260944,321.57326 240.512446,319.880952 240.520172,318.382784 L240.520172,304.194139 L206.750858,304.194139" id="Fill-532" fill="#EC942F" sketch:type="MSShapeGroup"></path>
            <path d="M223.634549,321.311355 C219.157725,321.311355 214.711803,320.67033 210.420386,319.423077 C210.082403,319.318681 209.643991,318.697802 209.643991,318.391941 L209.643991,306.943223 L237.623176,306.943223 L237.623176,318.382784 C237.623176,318.717949 237.155794,319.326007 236.817811,319.430403 C232.56309,320.67033 228.119099,321.311355 223.634549,321.311355" id="Fill-533" fill="#F4BA29" sketch:type="MSShapeGroup"></path>
            <path d="M240.280687,154.974359 L256.893991,154.97619 L256.893991,180.357143 C256.893991,182.377289 256.080901,184.384615 254.46824,185.92674 C252.84206,187.461538 250.711803,188.238095 248.583476,188.236264 C246.466738,188.238095 244.334549,187.461538 242.7103,185.92674 C241.086052,184.384615 240.274893,182.375458 240.280687,180.357143 L240.280687,154.974359" id="Fill-534" fill="#F6C7B4" sketch:type="MSShapeGroup"></path>
            <path d="M222.83691,154.97619 L239.444421,154.97619 L239.444421,180.357143 C239.444421,182.369963 238.63133,184.386447 237.01867,185.92674 C235.388627,187.467033 233.262232,188.236264 231.130043,188.238095 C229.011373,188.238095 226.879185,187.46337 225.253004,185.930403 C223.642275,184.384615 222.827253,182.369963 222.83691,180.357143 L222.83691,154.97619" id="Fill-535" fill="#F6C7B4" sketch:type="MSShapeGroup"></path>
            <path d="M205.379614,154.974359 L222.002575,154.974359 L221.998712,180.362637 C222.002575,182.375458 221.187554,184.391941 219.553648,185.932234 C217.939056,187.467033 215.806867,188.238095 213.680472,188.238095 C211.561803,188.238095 209.445064,187.467033 207.805365,185.932234 C206.177253,184.391941 205.383476,182.377289 205.379614,180.362637 L205.379614,154.974359" id="Fill-536" fill="#F6C7B4" sketch:type="MSShapeGroup"></path>
            <path d="M187.935837,154.974359 L204.551073,154.97619 L204.551073,176.369963 C204.551073,178.382784 203.739914,180.406593 202.106009,181.93956 C200.499142,183.485348 198.366953,184.25641 196.236695,184.25641 C194.108369,184.25641 191.987768,183.485348 190.363519,181.93956 C188.735408,180.406593 187.935837,178.382784 187.941631,176.368132 L187.935837,154.974359" id="Fill-537" fill="#F6C7B4" sketch:type="MSShapeGroup"></path>
            <path d="M200.261588,94.4725275 L251.401288,94.4725275 L251.403219,113.899267 L200.261588,113.895604 L200.261588,94.4725275" id="Fill-538" fill="#F6C7B4" sketch:type="MSShapeGroup"></path>
            <path d="M256.893991,111.728938 L256.893991,155.346154 L187.930043,155.346154 L187.930043,123.639194 C187.930043,121.283883 188.31824,118.877289 189.129399,116.521978 C189.938627,114.163004 191.110944,112.021978 192.563305,110.115385 L200.267382,100.06044 L244.587554,100.06044 L256.893991,111.728938" id="Fill-539" fill="#F6C7B4" sketch:type="MSShapeGroup"></path>
            <path d="M275.620172,133.732601 C275.620172,132.39011 275.353648,131.128205 274.778112,129.813187 C274.202575,128.498168 273.375966,127.357143 272.379399,126.410256 L244.587554,100.058608 L232.848927,111.188645 L259.020386,136.005495 L259.018455,150.430403 C259.018455,153.452381 260.235193,156.479853 262.666738,158.785714 C265.098283,161.093407 268.290773,162.247253 271.479399,162.247253 L272.866094,162.247253 C273.576824,162.247253 274.285622,161.990842 274.826395,161.478022 C275.369099,160.965201 275.635622,159.948718 275.635622,159.278388 L275.620172,133.732601" id="Fill-540" fill="#F6C7B4" sketch:type="MSShapeGroup"></path>
            <path d="M192.65794,82.5677656 L257.869313,82.5677656 L257.87897,94.4688645 L192.650215,94.4688645 L192.65794,82.5677656" id="Fill-541" fill="#E1EFF5" sketch:type="MSShapeGroup"></path>
            <path d="M187.943562,1.34981685 L262.608798,1.35347985 L262.603004,82.5677656 L187.941631,82.5677656 L187.943562,1.34981685" id="Fill-542" fill="#1C6978" sketch:type="MSShapeGroup"></path>
            <path d="M197.005365,71.4578755 C197.005365,70.0842491 198.191202,68.967033 199.6397,68.967033 C201.099785,68.967033 202.274034,70.0860806 202.274034,71.4615385 C202.270172,72.8388278 201.099785,73.9487179 199.6397,73.9487179 C198.191202,73.9487179 197.005365,72.8406593 197.005365,71.4578755" id="Fill-543" fill="#529CC3" sketch:type="MSShapeGroup"></path>
            <path d="M139.29721,419.996337 C139.29721,422.739927 136.952575,424.965201 134.055579,424.965201 L27.8439914,424.965201 C24.9508584,424.965201 22.6042918,422.739927 22.6042918,419.996337 L22.6042918,290.119048 C22.6042918,287.371795 24.9508584,285.14652 27.8439914,285.14652 L134.055579,285.14652 C136.952575,285.14652 139.29721,287.371795 139.29721,290.119048 L139.29721,419.996337" id="Fill-544" fill="#238C95" sketch:type="MSShapeGroup"></path>
            <path d="M139.29721,416.252747 C139.29721,419 136.952575,421.221612 134.055579,421.221612 L27.8439914,421.221612 C24.9508584,421.221612 22.6042918,419 22.6042918,416.252747 L22.6042918,286.375458 C22.6042918,283.631868 24.9508584,281.406593 27.8439914,281.406593 L134.055579,281.406593 C136.952575,281.406593 139.29721,283.631868 139.29721,286.375458 L139.29721,416.252747" id="Fill-545" fill="#2BA8B0" sketch:type="MSShapeGroup"></path>
            <path d="M32.0388412,290.349817 L129.864592,290.349817 L129.864592,412.276557 L32.0388412,412.276557 L32.0388412,290.349817 Z" id="Fill-546" fill="#FFFFFF" sketch:type="MSShapeGroup"></path>
            <path d="M32.0388412,408.298535 L129.864592,408.298535 L129.864592,412.276557 L32.0388412,412.276557 L32.0388412,408.298535 Z" id="Fill-547" fill="#D1EAF3" sketch:type="MSShapeGroup"></path>
            <path d="M103.6603,296.820513 L103.6603,291.849817 C103.6603,290.197802 102.252361,288.864469 100.518026,288.864469 L61.3834764,288.864469 C59.6472103,288.864469 58.2450644,290.197802 58.2450644,291.849817 L58.2450644,296.820513 L103.6603,296.820513" id="Fill-548" fill="#EC942F" sketch:type="MSShapeGroup"></path>
            <path d="M103.6603,294.655678 L103.6603,289.686813 C103.6603,288.038462 102.252361,286.703297 100.518026,286.703297 L61.3834764,286.703297 C59.6472103,286.703297 58.2450644,288.038462 58.2450644,289.686813 L58.2450644,294.655678 L103.6603,294.655678" id="Fill-549" fill="#F4BA29" sketch:type="MSShapeGroup"></path>
            <path d="M88.2869099,286.375458 C88.2869099,290.216117 85.0017167,293.333333 80.9497854,293.333333 C76.8978541,293.333333 73.6126609,290.216117 73.6126609,286.375458 C73.6126609,282.529304 76.8978541,279.415751 80.9497854,279.415751 C85.0017167,279.415751 88.2869099,282.529304 88.2869099,286.375458" id="Fill-550" fill="#F4BA29" sketch:type="MSShapeGroup"></path>
            <path d="M84.0920601,286.375458 C84.0920601,288.021978 82.6899142,289.357143 80.9497854,289.357143 C79.2154506,289.357143 77.8094421,288.021978 77.8094421,286.375458 C77.8094421,284.728938 79.2154506,283.391941 80.9497854,283.391941 C82.6899142,283.391941 84.0920601,284.728938 84.0920601,286.375458" id="Fill-551" fill="#2C4F61" sketch:type="MSShapeGroup"></path>
            <path d="M55.7188841,322.952381 L116.692918,322.952381 L116.692918,325.990842 L55.7188841,325.990842 L55.7188841,322.952381 Z" id="Fill-552" fill="#A6D7DE" sketch:type="MSShapeGroup"></path>
            <path d="M55.7188841,335.432234 L116.692918,335.432234 L116.692918,338.467033 L55.7188841,338.467033 L55.7188841,335.432234 Z" id="Fill-553" fill="#A6D7DE" sketch:type="MSShapeGroup"></path>
            <path d="M55.7188841,347.912088 L116.692918,347.912088 L116.692918,350.950549 L55.7188841,350.950549 L55.7188841,347.912088 Z" id="Fill-554" fill="#A6D7DE" sketch:type="MSShapeGroup"></path>
            <path d="M55.7188841,360.386447 L116.692918,360.386447 L116.692918,363.42674 L55.7188841,363.42674 L55.7188841,360.386447 Z" id="Fill-555" fill="#A6D7DE" sketch:type="MSShapeGroup"></path>
            <path d="M44.4148069,328.045788 C44.0150215,328.045788 43.6306867,327.891941 43.3545064,327.617216 L40.95,325.225275 C40.3918455,324.67033 40.4130901,323.791209 40.9982833,323.261905 C41.5854077,322.734432 42.510515,322.752747 43.0686695,323.307692 L44.3317597,324.564103 L48.5845494,319.64652 C49.0963519,319.054945 50.0175966,318.967033 50.645279,319.454212 C51.2690987,319.93956 51.3598712,320.815018 50.8480687,321.408425 L45.5465665,327.538462 C45.2819742,327.846154 44.8879828,328.031136 44.4708155,328.043956 L44.4148069,328.045788" id="Fill-556" fill="#2BA8B0" sketch:type="MSShapeGroup"></path>
            <path d="M44.4148069,340.038462 C44.0150215,340.038462 43.6287554,339.882784 43.3545064,339.606227 L40.95,337.214286 C40.3918455,336.659341 40.4130901,335.78022 41.0002146,335.252747 C41.5873391,334.721612 42.510515,334.74359 43.0686695,335.298535 L44.3317597,336.553114 L48.582618,331.631868 C49.0944206,331.038462 50.0175966,330.956044 50.645279,331.437729 C51.2690987,331.923077 51.3598712,332.798535 50.85,333.393773 L45.5465665,339.529304 C45.2819742,339.838828 44.8879828,340.021978 44.4708155,340.034799 L44.4148069,340.038462" id="Fill-557" fill="#2BA8B0" sketch:type="MSShapeGroup"></path>
            <path d="M44.4148069,352.025641 C44.0150215,352.025641 43.6306867,351.869963 43.3545064,351.595238 L40.95,349.205128 C40.3918455,348.650183 40.4130901,347.771062 40.9982833,347.241758 C41.5854077,346.710623 42.510515,346.736264 43.0686695,347.285714 L44.3317597,348.542125 L48.5845494,343.624542 C49.0963519,343.032967 50.0175966,342.945055 50.645279,343.432234 C51.2690987,343.919414 51.3598712,344.794872 50.8480687,345.386447 L45.5465665,351.516484 C45.2819742,351.826007 44.8879828,352.010989 44.4708155,352.02381 L44.4148069,352.025641" id="Fill-558" fill="#2BA8B0" sketch:type="MSShapeGroup"></path>
            <path d="M96.083691,390.386447 C95.4946352,390.89011 95.1025751,391.362637 95.0253219,391.734432 C95.0079399,391.805861 94.967382,391.992674 95.651073,392.175824 C96.1107296,392.304029 96.317382,392.252747 96.3482833,392.214286 C96.4912017,392.031136 96.4796137,391.371795 96.083691,390.386447 L96.083691,390.386447 Z M83.711588,389.441392 C83.2538627,390.79304 83.2133047,392.265568 83.6324034,393.657509 L83.6690987,393.769231 C83.8699571,392.838828 83.9645923,391.221612 83.711588,389.441392 L83.711588,389.441392 Z M83.6980687,395.968864 L83.5223176,395.956044 C82.6899142,395.822344 82.3075107,394.884615 82.0641631,394.082418 C81.3437768,391.677656 81.7454936,389.071429 83.1379828,386.970696 C82.8984979,386.25641 82.5875536,385.551282 82.1954936,384.888278 C81.9753219,384.518315 82.1143777,384.043956 82.5064378,383.833333 C82.8927039,383.626374 83.3929185,383.75641 83.6169528,384.131868 C83.8854077,384.584249 84.12103,385.056777 84.3296137,385.542125 C85.8167382,384.117216 87.7809013,383.318681 89.8590129,383.318681 C92.5435622,383.318681 95.0465665,385.619048 96.493133,387.771062 L96.6611588,388.025641 C99.1680258,386.434066 102.507296,385.216117 104.334335,385.42674 C106.729185,385.697802 106.997639,387.868132 107.020815,389.278388 C107.66588,388.443223 107.88412,387.840659 108.048283,387.388278 C108.664378,385.701465 109.280472,385.815018 113.293777,386.543956 L114.128112,386.697802 C114.570386,386.778388 114.860086,387.18315 114.775107,387.602564 C114.69206,388.020147 114.27103,388.300366 113.82103,388.216117 L112.982833,388.064103 C111.215665,387.741758 109.94485,387.512821 109.649356,387.586081 L109.657082,387.586081 L109.593348,387.891941 C109.386695,388.452381 109.081545,389.296703 108.123605,390.457875 C107.468884,391.247253 106.885622,391.897436 106.118884,391.641026 C105.377253,391.397436 105.383047,390.650183 105.388841,389.785714 C105.402361,388.007326 105.211159,387.082418 104.13927,386.961538 C102.503433,386.776557 99.5291845,388.040293 97.4182403,389.404762 C98.07103,390.813187 98.3472103,392.261905 97.6538627,393.141026 C97.3660944,393.507326 96.6688841,394.067766 95.1991416,393.664835 C93.2253219,393.126374 93.343133,391.81685 93.4261803,391.428571 C93.588412,390.64652 94.3203863,389.78022 95.3478541,388.957875 L95.1180258,388.600733 C93.9611588,386.879121 91.8888412,384.864469 89.8590129,384.864469 C87.9160944,384.864469 86.1643777,385.710623 84.9167382,387.249084 C85.8766094,390.716117 85.5309013,394.322344 84.7197425,395.415751 C84.3759657,395.880952 83.9645923,395.968864 83.6980687,395.968864 L83.6980687,395.968864 Z" id="Fill-559" fill="#2BA8B0" sketch:type="MSShapeGroup"></path>
            <path d="M435.316094,450.399267 C434.835193,450.399267 434.346567,450.294872 433.906223,450.056777 L408.816309,437.276557 C403.993777,434.815018 398.852575,432.928571 393.545279,431.659341 C388.232189,430.384615 382.758798,429.747253 377.279614,429.747253 L267.016094,429.747253 L267.016094,424.075092 L377.279614,424.075092 C383.251288,424.075092 389.211373,424.782051 395.003433,426.161172 C400.783906,427.543956 406.386695,429.604396 411.645708,432.289377 L436.73176,445.071429 C438.187983,445.809524 438.728755,447.531136 437.948498,448.906593 C437.411588,449.858974 436.382189,450.399267 435.316094,450.399267" id="Fill-560" fill="#4D5F70" sketch:type="MSShapeGroup"></path>
            <path d="M263.866094,450.399267 C264.33927,450.399267 264.827897,450.294872 265.277897,450.056777 L290.358155,437.276557 C295.180687,434.815018 300.321888,432.928571 305.629185,431.659341 C310.942275,430.384615 316.413734,429.747253 321.890987,429.747253 L432.1603,429.747253 L432.1603,424.075092 L321.890987,424.075092 C315.919313,424.075092 309.959227,424.782051 304.174893,426.161172 C298.386695,427.543956 292.793562,429.604396 287.526824,432.289377 L262.440773,445.071429 C260.990343,445.809524 260.445708,447.531136 261.224034,448.906593 C261.76867,449.858974 262.8,450.399267 263.866094,450.399267" id="Fill-561" fill="#4D5F70" sketch:type="MSShapeGroup"></path>
            <path d="M341.733476,428.589744 L341.733476,428.589744 C341.733476,424.479853 345.256223,421.144689 349.582403,421.144689 C353.920172,421.144689 357.448712,424.479853 357.448712,428.589744 L363.420386,428.589744 C363.420386,421.342491 357.230472,415.472527 349.582403,415.472527 C341.947854,415.472527 335.754077,421.342491 335.754077,428.589744 L341.733476,428.589744" id="Fill-562" fill="#1F2D3C" sketch:type="MSShapeGroup"></path>
            <path d="M335.754077,437.459707 C335.754077,443.430403 330.603219,448.31685 324.309013,448.31685 L284.436695,448.31685 C278.142489,448.31685 272.993562,443.430403 272.993562,437.459707 L272.993562,417.076923 C272.993562,411.108059 278.142489,406.223443 284.436695,406.223443 L324.309013,406.223443 C330.603219,406.223443 335.754077,411.108059 335.754077,417.076923 L335.754077,437.459707" id="Fill-563" fill="#E1EFF5" sketch:type="MSShapeGroup"></path>
            <path d="M324.309013,406.223443 L302.372961,406.223443 L302.372961,448.31685 L324.309013,448.31685 C330.603219,448.31685 335.754077,443.430403 335.754077,437.459707 L335.754077,417.076923 C335.754077,411.108059 330.603219,406.223443 324.309013,406.223443" id="Fill-564" fill="#CCE0EA" sketch:type="MSShapeGroup"></path>
            <path d="M426.007082,437.459707 C426.007082,443.430403 420.858155,448.31685 414.562017,448.31685 L374.687768,448.31685 C368.393562,448.31685 363.244635,443.430403 363.244635,437.459707 L363.244635,417.076923 C363.244635,411.108059 368.393562,406.223443 374.687768,406.223443 L414.562017,406.223443 C420.858155,406.223443 426.007082,411.108059 426.007082,417.076923 L426.007082,437.459707" id="Fill-565" fill="#E1EFF5" sketch:type="MSShapeGroup"></path>
            <path d="M414.562017,406.223443 L392.624034,406.223443 L392.624034,448.31685 L414.562017,448.31685 C420.858155,448.31685 426.007082,443.430403 426.007082,437.459707 L426.007082,417.076923 C426.007082,411.108059 420.858155,406.223443 414.562017,406.223443" id="Fill-566" fill="#CCE0EA" sketch:type="MSShapeGroup"></path>
            <path d="M335.754077,437.459707 C335.754077,443.430403 330.603219,448.31685 324.309013,448.31685 L284.436695,448.31685 C278.142489,448.31685 272.993562,443.430403 272.993562,437.459707 L272.993562,417.076923 C272.993562,411.108059 278.142489,406.223443 284.436695,406.223443 L324.309013,406.223443 C330.603219,406.223443 335.754077,411.108059 335.754077,417.076923 L335.754077,437.459707 L335.754077,437.459707 Z M327.279399,400.697802 L281.470172,400.697802 C273.516953,400.697802 267.016094,406.864469 267.016094,414.401099 L267.016094,440.139194 C267.016094,447.673993 273.516953,453.842491 281.470172,453.842491 L327.279399,453.842491 C335.230687,453.842491 341.733476,447.673993 341.733476,440.139194 L341.733476,414.401099 C341.733476,406.864469 335.230687,400.697802 327.279399,400.697802 L327.279399,400.697802 Z" id="Fill-567" fill="#273B4E" sketch:type="MSShapeGroup"></path>
            <path d="M426.007082,437.459707 C426.007082,443.430403 420.858155,448.31685 414.562017,448.31685 L374.687768,448.31685 C368.393562,448.31685 363.244635,443.430403 363.244635,437.459707 L363.244635,417.076923 C363.244635,411.108059 368.393562,406.223443 374.687768,406.223443 L414.562017,406.223443 C420.858155,406.223443 426.007082,411.108059 426.007082,417.076923 L426.007082,437.459707 L426.007082,437.459707 Z M417.530472,400.697802 L371.719313,400.697802 C363.771888,400.697802 357.269099,406.864469 357.269099,414.401099 L357.269099,440.139194 C357.269099,447.673993 363.771888,453.842491 371.719313,453.842491 L417.530472,453.842491 C425.48176,453.842491 431.980687,447.673993 431.980687,440.139194 L431.980687,414.401099 C431.980687,406.864469 425.48176,400.697802 417.530472,400.697802 L417.530472,400.697802 Z" id="Fill-568" fill="#273B4E" sketch:type="MSShapeGroup"></path>
        </g>
    </g>
</svg>