<?xml version="1.0" encoding="UTF-8" standalone="no"?>
<svg width="233px" height="273px" viewBox="0 0 233 273" version="1.1" xmlns="http://www.w3.org/2000/svg" xmlns:xlink="http://www.w3.org/1999/xlink" xmlns:sketch="http://www.bohemiancoding.com/sketch/ns">
    <!-- Generator: Sketch 3.3.3 (12081) - http://www.bohemiancoding.com/sketch -->
    <title>suitcase</title>
    <desc>Created with Sketch.</desc>
    <defs></defs>
    <g id="Page-1" stroke="none" stroke-width="1" fill="none" fill-rule="evenodd" sketch:type="MSPage">
        <g id="suitcase" sketch:type="MSLayerGroup">
            <path d="M232.617,155.85 C232.617,220.05 180.573,272.094 116.373,272.094 C52.172,272.094 0.128,220.05 0.128,155.85 C0.128,91.651 52.172,39.606 116.373,39.606 C180.573,39.606 232.617,91.651 232.617,155.85" id="Fill-516" fill="#E15B2D" sketch:type="MSShapeGroup"></path>
            <path d="M140.5,100.87 C139.869,102.134 138.654,102.806 137.764,102.407 C123.792,96.128 107.792,96.128 93.823,102.407 C92.933,102.806 91.714,102.134 91.087,100.87 C91.041,100.773 90.994,100.678 90.947,100.583 C90.315,99.317 90.599,97.899 91.595,97.45 C106.985,90.536 124.601,90.536 139.992,97.45 C140.986,97.897 141.269,99.317 140.64,100.583 C140.593,100.678 140.546,100.773 140.5,100.87" id="Fill-517" fill="#152830" sketch:type="MSShapeGroup"></path>
            <path d="M139.992,97.45 C124.605,90.536 106.985,90.536 91.595,97.45 C90.599,97.897 90.315,99.317 90.947,100.583 C106.62,92.904 124.965,92.904 140.64,100.583 C141.269,99.317 140.985,97.899 139.992,97.45" id="Fill-518" fill="#2C4F61" sketch:type="MSShapeGroup"></path>
            <path d="M96.161,115.46 C96.161,116.397 95.405,117.154 94.468,117.154 L94.189,117.154 C93.254,117.154 92.499,116.397 92.499,115.46 L92.499,101.079 C92.499,100.143 93.254,99.387 94.189,99.387 L94.468,99.387 C95.405,99.387 96.161,100.143 96.161,101.079 L96.161,115.46" id="Fill-519" fill="#F4BA29" sketch:type="MSShapeGroup"></path>
            <path d="M98.417,109.115 C98.417,111.373 96.588,113.202 94.325,113.202 C92.07,113.202 90.237,111.373 90.237,109.115 C90.237,106.857 92.07,105.027 94.325,105.027 C96.588,105.027 98.417,106.857 98.417,109.115" id="Fill-520" fill="#F4BA29" sketch:type="MSShapeGroup"></path>
            <path d="M139.093,115.46 C139.093,116.397 138.334,117.154 137.403,117.154 L137.119,117.154 C136.187,117.154 135.43,116.397 135.43,115.46 L135.43,101.079 C135.43,100.143 136.187,99.387 137.119,99.387 L137.403,99.387 C138.334,99.387 139.093,100.143 139.093,101.079 L139.093,115.46" id="Fill-521" fill="#F4BA29" sketch:type="MSShapeGroup"></path>
            <path d="M141.351,109.115 C141.351,111.373 139.521,113.202 137.261,113.202 C135,113.202 133.172,111.373 133.172,109.115 C133.172,106.857 135,105.027 137.261,105.027 C139.521,105.027 141.351,106.857 141.351,109.115" id="Fill-522" fill="#F4BA29" sketch:type="MSShapeGroup"></path>
            <path d="M193.055,207.671 C193.055,210.474 190.781,212.748 187.978,212.748 L43.608,212.748 C40.803,212.748 38.533,210.474 38.533,207.671 L38.533,114.053 C38.533,111.25 40.803,108.977 43.608,108.977 L187.978,108.977 C190.781,108.977 193.055,111.25 193.055,114.053 L193.055,207.671" id="Fill-523" fill="#152830" sketch:type="MSShapeGroup"></path>
            <path d="M193.055,148.455 C193.055,151.244 190.822,154.096 188.051,154.772 C140.549,166.133 91.037,166.133 43.535,154.772 C40.767,154.096 38.528,151.244 38.533,148.455 L38.533,114.053 C38.528,111.268 40.795,108.994 43.608,108.977 L187.978,108.977 C190.785,108.994 193.055,111.268 193.055,114.053 L193.055,148.455" id="Fill-524" fill="#2C4F61" sketch:type="MSShapeGroup"></path>
            <path d="M115.793,159.909 C91.748,159.909 67.702,157.072 44.32,151.482 C43.093,151.182 41.914,149.711 41.914,148.458 L41.914,114.053 C41.914,113.124 42.681,112.366 43.621,112.364 L187.978,112.364 C188.906,112.366 189.674,113.127 189.674,114.056 L189.674,148.455 C189.674,149.711 188.495,151.183 187.25,151.486 C163.882,157.072 139.837,159.909 115.793,159.909" id="Fill-525" fill="#152830" sketch:type="MSShapeGroup"></path>
            <path d="M115.793,154.835 C92.956,154.835 70.104,152.302 47.396,147.307 C46.199,147.038 44.988,145.724 44.911,144.607 C44.219,134.362 43.531,124.117 42.841,113.873 C42.781,113.045 43.496,112.366 44.431,112.364 L187.178,112.364 C188.093,112.366 188.802,113.045 188.745,113.873 C188.055,124.119 187.365,134.362 186.672,144.607 C186.6,145.721 185.383,147.04 184.173,147.311 C161.488,152.302 138.631,154.835 115.793,154.835" id="Fill-526" fill="#2C4F61" sketch:type="MSShapeGroup"></path>
            <path d="M105.924,108.693 L105.924,153.702 C105.924,155.945 106.681,157.766 107.613,157.766 L123.974,157.766 C124.904,157.766 125.663,155.945 125.663,153.702 L125.663,108.693 L105.924,108.693" id="Fill-527" fill="#152830" sketch:type="MSShapeGroup"></path>
            <path d="M108.324,108.693 L108.324,153.702 C108.324,155.945 108.41,157.766 108.512,157.766 L110.384,157.766 C110.488,157.766 110.578,155.945 110.578,153.702 L110.578,108.693 L108.324,108.693" id="Fill-528" fill="#2C4F61" sketch:type="MSShapeGroup"></path>
            <path d="M121.012,108.693 L121.012,153.702 C121.012,155.945 121.099,157.766 121.202,157.766 L123.074,157.766 C123.179,157.766 123.268,155.945 123.268,153.702 L123.268,108.693 L121.012,108.693" id="Fill-529" fill="#2C4F61" sketch:type="MSShapeGroup"></path>
            <path d="M124.536,173.837 C124.532,174.655 123.884,175.579 123.078,175.836 C118.33,177.299 113.257,177.299 108.509,175.836 C107.695,175.579 107.048,174.655 107.051,173.837 L107.051,156.355 C107.051,155.537 107.699,154.615 108.509,154.356 C113.257,152.895 118.33,152.895 123.078,154.356 C123.888,154.615 124.532,155.537 124.536,156.355 L124.536,173.837" id="Fill-530" fill="#F4BA29" sketch:type="MSShapeGroup"></path>
            <path d="M123.078,154.95 C118.33,153.573 113.257,153.573 108.509,154.95 C107.699,155.19 107.051,156.061 107.051,156.829 L107.051,164.445 L107.211,164.471 L124.536,164.471 L124.536,156.829 C124.532,156.061 123.888,155.19 123.078,154.95" id="Fill-531" fill="#EC942F" sketch:type="MSShapeGroup"></path>
            <path d="M107.051,166.09 L107.051,173.837 C107.048,174.655 107.695,175.579 108.509,175.836 C113.257,177.299 118.33,177.299 123.078,175.836 C123.884,175.579 124.532,174.655 124.536,173.837 L124.536,166.09 L107.051,166.09" id="Fill-532" fill="#EC942F" sketch:type="MSShapeGroup"></path>
            <path d="M115.793,175.436 C113.475,175.436 111.173,175.086 108.951,174.405 C108.776,174.348 108.549,174.009 108.549,173.842 L108.549,167.591 L123.036,167.591 L123.036,173.837 C123.036,174.02 122.794,174.352 122.619,174.409 C120.416,175.086 118.115,175.436 115.793,175.436" id="Fill-533" fill="#F4BA29" sketch:type="MSShapeGroup"></path>
            <path d="M124.412,84.616 L133.014,84.617 L133.014,98.475 C133.014,99.578 132.593,100.674 131.758,101.516 C130.916,102.354 129.813,102.778 128.711,102.777 C127.615,102.778 126.511,102.354 125.67,101.516 C124.829,100.674 124.409,99.577 124.412,98.475 L124.412,84.616" id="Fill-534" fill="#F6C7B4" sketch:type="MSShapeGroup"></path>
            <path d="M115.38,84.617 L123.979,84.617 L123.979,98.475 C123.979,99.574 123.558,100.675 122.723,101.516 C121.879,102.357 120.778,102.777 119.674,102.778 C118.577,102.778 117.473,102.355 116.631,101.518 C115.797,100.674 115.375,99.574 115.38,98.475 L115.38,84.617" id="Fill-535" fill="#F6C7B4" sketch:type="MSShapeGroup"></path>
            <path d="M106.341,84.616 L114.948,84.616 L114.946,98.478 C114.948,99.577 114.526,100.678 113.68,101.519 C112.844,102.357 111.74,102.778 110.639,102.778 C109.542,102.778 108.446,102.357 107.597,101.519 C106.754,100.678 106.343,99.578 106.341,98.478 L106.341,84.616" id="Fill-536" fill="#F6C7B4" sketch:type="MSShapeGroup"></path>
            <path d="M97.309,84.616 L105.912,84.617 L105.912,96.298 C105.912,97.397 105.492,98.502 104.646,99.339 C103.814,100.183 102.71,100.604 101.607,100.604 C100.505,100.604 99.407,100.183 98.566,99.339 C97.723,98.502 97.309,97.397 97.312,96.297 L97.309,84.616" id="Fill-537" fill="#F6C7B4" sketch:type="MSShapeGroup"></path>
            <path d="M103.691,51.582 L130.17,51.582 L130.171,62.189 L103.691,62.187 L103.691,51.582" id="Fill-538" fill="#F6C7B4" sketch:type="MSShapeGroup"></path>
            <path d="M133.014,61.004 L133.014,84.819 L97.306,84.819 L97.306,67.507 C97.306,66.221 97.507,64.907 97.927,63.621 C98.346,62.333 98.953,61.164 99.705,60.123 L103.694,54.633 L126.642,54.633 L133.014,61.004" id="Fill-539" fill="#F6C7B4" sketch:type="MSShapeGroup"></path>
            <path d="M142.71,73.018 C142.71,72.285 142.572,71.596 142.274,70.878 C141.976,70.16 141.548,69.537 141.032,69.02 L126.642,54.632 L120.564,60.709 L134.115,74.259 L134.114,82.135 C134.114,83.785 134.744,85.438 136.003,86.697 C137.262,87.957 138.915,88.587 140.566,88.587 L141.284,88.587 C141.652,88.587 142.019,88.447 142.299,88.167 C142.58,87.887 142.718,87.332 142.718,86.966 L142.71,73.018" id="Fill-540" fill="#F6C7B4" sketch:type="MSShapeGroup"></path>
            <path d="M99.754,45.082 L133.519,45.082 L133.524,51.58 L99.75,51.58 L99.754,45.082" id="Fill-541" fill="#E1EFF5" sketch:type="MSShapeGroup"></path>
            <path d="M97.313,0.737 L135.973,0.739 L135.97,45.082 L97.312,45.082 L97.313,0.737" id="Fill-542" fill="#1C6978" sketch:type="MSShapeGroup"></path>
            <path d="M102.005,39.016 C102.005,38.266 102.619,37.656 103.369,37.656 C104.125,37.656 104.733,38.267 104.733,39.018 C104.731,39.77 104.125,40.376 103.369,40.376 C102.619,40.376 102.005,39.771 102.005,39.016" id="Fill-543" fill="#529CC3" sketch:type="MSShapeGroup"></path>
            <path d="M72.125,229.318 C72.125,230.816 70.911,232.031 69.411,232.031 L14.417,232.031 C12.919,232.031 11.704,230.816 11.704,229.318 L11.704,158.405 C11.704,156.905 12.919,155.69 14.417,155.69 L69.411,155.69 C70.911,155.69 72.125,156.905 72.125,158.405 L72.125,229.318" id="Fill-544" fill="#238C95" sketch:type="MSShapeGroup"></path>
            <path d="M72.125,227.274 C72.125,228.774 70.911,229.987 69.411,229.987 L14.417,229.987 C12.919,229.987 11.704,228.774 11.704,227.274 L11.704,156.361 C11.704,154.863 12.919,153.648 14.417,153.648 L69.411,153.648 C70.911,153.648 72.125,154.863 72.125,156.361 L72.125,227.274" id="Fill-545" fill="#2BA8B0" sketch:type="MSShapeGroup"></path>
            <path d="M16.589,158.531 L67.241,158.531 L67.241,225.103 L16.589,225.103 L16.589,158.531 Z" id="Fill-546" fill="#FFFFFF" sketch:type="MSShapeGroup"></path>
            <path d="M16.589,222.931 L67.241,222.931 L67.241,225.103 L16.589,225.103 L16.589,222.931 Z" id="Fill-547" fill="#D1EAF3" sketch:type="MSShapeGroup"></path>
            <path d="M53.673,162.064 L53.673,159.35 C53.673,158.448 52.944,157.72 52.046,157.72 L31.783,157.72 C30.884,157.72 30.158,158.448 30.158,159.35 L30.158,162.064 L53.673,162.064" id="Fill-548" fill="#EC942F" sketch:type="MSShapeGroup"></path>
            <path d="M53.673,160.882 L53.673,158.169 C53.673,157.269 52.944,156.54 52.046,156.54 L31.783,156.54 C30.884,156.54 30.158,157.269 30.158,158.169 L30.158,160.882 L53.673,160.882" id="Fill-549" fill="#F4BA29" sketch:type="MSShapeGroup"></path>
            <path d="M45.713,156.361 C45.713,158.458 44.012,160.16 41.914,160.16 C39.816,160.16 38.115,158.458 38.115,156.361 C38.115,154.261 39.816,152.561 41.914,152.561 C44.012,152.561 45.713,154.261 45.713,156.361" id="Fill-550" fill="#F4BA29" sketch:type="MSShapeGroup"></path>
            <path d="M43.541,156.361 C43.541,157.26 42.815,157.989 41.914,157.989 C41.016,157.989 40.288,157.26 40.288,156.361 C40.288,155.462 41.016,154.732 41.914,154.732 C42.815,154.732 43.541,155.462 43.541,156.361" id="Fill-551" fill="#2C4F61" sketch:type="MSShapeGroup"></path>
            <path d="M28.85,176.332 L60.421,176.332 L60.421,177.991 L28.85,177.991 L28.85,176.332 Z" id="Fill-552" fill="#A6D7DE" sketch:type="MSShapeGroup"></path>
            <path d="M28.85,183.146 L60.421,183.146 L60.421,184.803 L28.85,184.803 L28.85,183.146 Z" id="Fill-553" fill="#A6D7DE" sketch:type="MSShapeGroup"></path>
            <path d="M28.85,189.96 L60.421,189.96 L60.421,191.619 L28.85,191.619 L28.85,189.96 Z" id="Fill-554" fill="#A6D7DE" sketch:type="MSShapeGroup"></path>
            <path d="M28.85,196.771 L60.421,196.771 L60.421,198.431 L28.85,198.431 L28.85,196.771 Z" id="Fill-555" fill="#A6D7DE" sketch:type="MSShapeGroup"></path>
            <path d="M22.997,179.113 C22.79,179.113 22.591,179.029 22.448,178.879 L21.203,177.573 C20.914,177.27 20.925,176.79 21.228,176.501 C21.532,176.213 22.011,176.223 22.3,176.526 L22.954,177.212 L25.156,174.527 C25.421,174.204 25.898,174.156 26.223,174.422 C26.546,174.687 26.593,175.165 26.328,175.489 L23.583,178.836 C23.446,179.004 23.242,179.105 23.026,179.112 L22.997,179.113" id="Fill-556" fill="#2BA8B0" sketch:type="MSShapeGroup"></path>
            <path d="M22.997,185.661 C22.79,185.661 22.59,185.576 22.448,185.425 L21.203,184.119 C20.914,183.816 20.925,183.336 21.229,183.048 C21.533,182.758 22.011,182.77 22.3,183.073 L22.954,183.758 L25.155,181.071 C25.42,180.747 25.898,180.702 26.223,180.965 C26.546,181.23 26.593,181.708 26.329,182.033 L23.583,185.383 C23.446,185.552 23.242,185.652 23.026,185.659 L22.997,185.661" id="Fill-557" fill="#2BA8B0" sketch:type="MSShapeGroup"></path>
            <path d="M22.997,192.206 C22.79,192.206 22.591,192.121 22.448,191.971 L21.203,190.666 C20.914,190.363 20.925,189.883 21.228,189.594 C21.532,189.304 22.011,189.318 22.3,189.618 L22.954,190.304 L25.156,187.619 C25.421,187.296 25.898,187.248 26.223,187.514 C26.546,187.78 26.593,188.258 26.328,188.581 L23.583,191.928 C23.446,192.097 23.242,192.198 23.026,192.205 L22.997,192.206" id="Fill-558" fill="#2BA8B0" sketch:type="MSShapeGroup"></path>
            <path d="M49.75,213.151 C49.445,213.426 49.242,213.684 49.202,213.887 C49.193,213.926 49.172,214.028 49.526,214.128 C49.764,214.198 49.871,214.17 49.887,214.149 C49.961,214.049 49.955,213.689 49.75,213.151 L49.75,213.151 Z M43.344,212.635 C43.107,213.373 43.086,214.177 43.303,214.937 L43.322,214.998 C43.426,214.49 43.475,213.607 43.344,212.635 L43.344,212.635 Z M43.337,216.199 L43.246,216.192 C42.815,216.119 42.617,215.607 42.491,215.169 C42.118,213.856 42.326,212.433 43.047,211.286 C42.923,210.896 42.762,210.511 42.559,210.149 C42.445,209.947 42.517,209.688 42.72,209.573 C42.92,209.46 43.179,209.531 43.295,209.736 C43.434,209.983 43.556,210.241 43.664,210.506 C44.434,209.728 45.451,209.292 46.527,209.292 C47.917,209.292 49.213,210.548 49.962,211.723 L50.049,211.862 C51.347,210.993 53.076,210.328 54.022,210.443 C55.262,210.591 55.401,211.776 55.413,212.546 C55.747,212.09 55.86,211.761 55.945,211.514 C56.264,210.593 56.583,210.655 58.661,211.053 L59.093,211.137 C59.322,211.181 59.472,211.402 59.428,211.631 C59.385,211.859 59.167,212.012 58.934,211.966 L58.5,211.883 C57.585,211.707 56.927,211.582 56.774,211.622 L56.778,211.622 L56.745,211.789 C56.638,212.095 56.48,212.556 55.984,213.19 C55.645,213.621 55.343,213.976 54.946,213.836 C54.562,213.703 54.565,213.295 54.568,212.823 C54.575,211.852 54.476,211.347 53.921,211.281 C53.074,211.18 51.534,211.87 50.441,212.615 C50.779,213.384 50.922,214.175 50.563,214.655 C50.414,214.855 50.053,215.161 49.292,214.941 C48.27,214.647 48.331,213.932 48.374,213.72 C48.458,213.293 48.837,212.82 49.369,212.371 L49.25,212.176 C48.651,211.236 47.578,210.136 46.527,210.136 C45.521,210.136 44.614,210.598 43.968,211.438 C44.465,213.331 44.286,215.3 43.866,215.897 C43.688,216.151 43.475,216.199 43.337,216.199 L43.337,216.199 Z" id="Fill-559" fill="#2BA8B0" sketch:type="MSShapeGroup"></path>
            <path d="M225.397,245.918 C225.148,245.918 224.895,245.861 224.667,245.731 L211.676,238.753 C209.179,237.409 206.517,236.379 203.769,235.686 C201.018,234.99 198.184,234.642 195.347,234.642 L138.255,234.642 L138.255,231.545 L195.347,231.545 C198.439,231.545 201.525,231.931 204.524,232.684 C207.517,233.439 210.418,234.564 213.141,236.03 L226.13,243.009 C226.884,243.412 227.164,244.352 226.76,245.103 C226.482,245.623 225.949,245.918 225.397,245.918" id="Fill-560" fill="#4D5F70" sketch:type="MSShapeGroup"></path>
            <path d="M136.624,245.918 C136.869,245.918 137.122,245.861 137.355,245.731 L150.341,238.753 C152.838,237.409 155.5,236.379 158.248,235.686 C160.999,234.99 163.832,234.642 166.668,234.642 L223.763,234.642 L223.763,231.545 L166.668,231.545 C163.576,231.545 160.49,231.931 157.495,232.684 C154.498,233.439 151.602,234.564 148.875,236.03 L135.886,243.009 C135.135,243.412 134.853,244.352 135.256,245.103 C135.538,245.623 136.072,245.918 136.624,245.918" id="Fill-561" fill="#4D5F70" sketch:type="MSShapeGroup"></path>
            <path d="M176.942,234.01 L176.942,234.01 C176.942,231.766 178.766,229.945 181.006,229.945 C183.252,229.945 185.079,231.766 185.079,234.01 L188.171,234.01 C188.171,230.053 184.966,226.848 181.006,226.848 C177.053,226.848 173.846,230.053 173.846,234.01 L176.942,234.01" id="Fill-562" fill="#1F2D3C" sketch:type="MSShapeGroup"></path>
            <path d="M173.846,238.853 C173.846,242.113 171.179,244.781 167.92,244.781 L147.275,244.781 C144.016,244.781 141.35,242.113 141.35,238.853 L141.35,227.724 C141.35,224.465 144.016,221.798 147.275,221.798 L167.92,221.798 C171.179,221.798 173.846,224.465 173.846,227.724 L173.846,238.853" id="Fill-563" fill="#E1EFF5" sketch:type="MSShapeGroup"></path>
            <path d="M167.92,221.798 L156.562,221.798 L156.562,244.781 L167.92,244.781 C171.179,244.781 173.846,242.113 173.846,238.853 L173.846,227.724 C173.846,224.465 171.179,221.798 167.92,221.798" id="Fill-564" fill="#CCE0EA" sketch:type="MSShapeGroup"></path>
            <path d="M220.577,238.853 C220.577,242.113 217.911,244.781 214.651,244.781 L194.005,244.781 C190.746,244.781 188.08,242.113 188.08,238.853 L188.08,227.724 C188.08,224.465 190.746,221.798 194.005,221.798 L214.651,221.798 C217.911,221.798 220.577,224.465 220.577,227.724 L220.577,238.853" id="Fill-565" fill="#E1EFF5" sketch:type="MSShapeGroup"></path>
            <path d="M214.651,221.798 L203.292,221.798 L203.292,244.781 L214.651,244.781 C217.911,244.781 220.577,242.113 220.577,238.853 L220.577,227.724 C220.577,224.465 217.911,221.798 214.651,221.798" id="Fill-566" fill="#CCE0EA" sketch:type="MSShapeGroup"></path>
            <path d="M173.846,238.853 C173.846,242.113 171.179,244.781 167.92,244.781 L147.275,244.781 C144.016,244.781 141.35,242.113 141.35,238.853 L141.35,227.724 C141.35,224.465 144.016,221.798 147.275,221.798 L167.92,221.798 C171.179,221.798 173.846,224.465 173.846,227.724 L173.846,238.853 L173.846,238.853 Z M169.458,218.781 L145.739,218.781 C141.621,218.781 138.255,222.148 138.255,226.263 L138.255,240.316 C138.255,244.43 141.621,247.798 145.739,247.798 L169.458,247.798 C173.575,247.798 176.942,244.43 176.942,240.316 L176.942,226.263 C176.942,222.148 173.575,218.781 169.458,218.781 L169.458,218.781 Z" id="Fill-567" fill="#273B4E" sketch:type="MSShapeGroup"></path>
            <path d="M220.577,238.853 C220.577,242.113 217.911,244.781 214.651,244.781 L194.005,244.781 C190.746,244.781 188.08,242.113 188.08,238.853 L188.08,227.724 C188.08,224.465 190.746,221.798 194.005,221.798 L214.651,221.798 C217.911,221.798 220.577,224.465 220.577,227.724 L220.577,238.853 L220.577,238.853 Z M216.188,218.781 L192.468,218.781 C188.353,218.781 184.986,222.148 184.986,226.263 L184.986,240.316 C184.986,244.43 188.353,247.798 192.468,247.798 L216.188,247.798 C220.305,247.798 223.67,244.43 223.67,240.316 L223.67,226.263 C223.67,222.148 220.305,218.781 216.188,218.781 L216.188,218.781 Z" id="Fill-568" fill="#273B4E" sketch:type="MSShapeGroup"></path>
        </g>
    </g>
</svg>