<?xml version="1.0" encoding="UTF-8" standalone="no"?>
<svg width="300px" height="300px" viewBox="0 0 300 300" version="1.1" xmlns="http://www.w3.org/2000/svg" xmlns:xlink="http://www.w3.org/1999/xlink" xmlns:sketch="http://www.bohemiancoding.com/sketch/ns">
    <!-- Generator: Sketch 3.3.3 (12081) - http://www.bohemiancoding.com/sketch -->
    <title>ul-avatar</title>
    <desc>Created with Sketch.</desc>
    <defs>
        <path d="M115.455031,38.2114857 C112.643855,38.2114857 111.648561,37.1787429 111.648561,34.25655 C111.648561,33.2795519 112.257384,30.0874375 113.099149,25.6689411 C113.485619,23.6298607 113.938267,21.2592464 114.435914,18.5482964 L112.228266,17.5448929 C109.438267,22.2743857 106.608561,24.2929286 102.775619,24.2929286 C97.4206194,24.2929286 93.8232665,19.6367839 93.8232665,12.7097786 C93.8232665,12.2051429 93.8523842,11.7093089 93.8867958,11.2164089 C96.9706195,11.0169018 100.088855,10.7587161 103.238855,10.4389179 L103.230914,10.5210679 C103.230914,14.1327339 105.237384,16.6471107 108.101502,16.6471107 C110.017972,16.6471107 112.813267,15.7551964 115.280325,11.5186036 L115.407384,11.3044268 L115.452384,11.0521089 C115.571502,10.3861071 115.695914,9.62915357 115.820325,8.831125 C118.554737,8.40570536 121.305031,7.93040893 124.073855,7.39936786 C121.524737,20.4934911 121.177972,28.8493196 121.177972,32.3348266 C121.177972,33.9631571 121.334149,35.4946679 121.641208,36.8970857 C119.465325,37.7684627 117.392678,38.2114857 115.455031,38.2114857 L115.455031,38.2114857 L115.455031,38.2114857 Z M15.814443,25.3550107 C5.7212077,25.3550107 0.16503124,20.4612179 0.16503124,11.5860839 C0.16503124,8.53479821 0.755325358,5.15784643 1.41179595,1.59605714 C4.40297241,2.423425 7.94738417,3.33881071 11.9788548,4.2718 C11.7882665,5.6888875 11.671796,6.96514643 11.671796,8.06830357 C11.671796,13.267225 14.1415018,16.2451625 18.4482665,16.2451625 C21.6300312,16.2451625 24.2585607,14.5874929 26.0559137,11.4481893 C26.609149,10.4799929 27.1756195,9.11865 27.7076784,7.44631071 C30.7782665,7.98028571 34.0023843,8.49078929 37.3641488,8.95728393 C36.9882665,10.1015161 36.5965018,11.1635982 36.1862076,12.1435304 C32.4062076,21.0304 25.7409135,25.3550107 15.814443,25.3550107 L15.814443,25.3550107 L15.814443,25.3550107 Z M82.1417958,24.4249554 C78.8329724,24.4249554 78.1553254,23.0313393 78.1553254,20.9365143 C78.1553254,19.8744321 78.4094429,18.4602786 78.729737,16.6793839 L78.7906194,16.3595857 C79.0473841,14.9395643 79.3041489,13.5752875 79.5529725,12.2784911 L79.6535607,11.7415821 C82.6023843,11.7151768 85.5935607,11.6359607 88.6217958,11.5039339 C88.2856195,13.677975 88.044737,15.9869768 88.044737,18.4133357 C88.044737,20.1766268 88.2115019,21.728675 88.5556195,23.1193571 C86.0488547,23.9760643 83.8438548,24.4249554 82.1417958,24.4249554 L82.1417958,24.4249554 L82.1417958,24.4249554 Z M66.1720901,24.4249554 C62.8156195,24.4249554 62.1273842,23.0313393 62.1273842,20.9365143 C62.1273842,19.2407036 62.5853252,17.16935 63.0644431,14.9835732 C63.3079724,13.8628125 63.5620901,12.6687036 63.7817958,11.4393875 C66.7809135,11.58315 69.8382664,11.6799696 72.9512078,11.7298464 C72.5700313,14.0388482 72.2550312,16.5180179 72.2550312,19.1438839 C72.2550312,20.4172089 72.4297372,21.728675 72.7844431,23.1134893 C70.2115018,23.9966018 68.0382665,24.4249554 66.1720901,24.4249554 L66.1720901,24.4249554 L66.1720901,24.4249554 Z M46.5547371,24.4249554 C43.1267958,24.4249554 42.6900312,22.6352589 42.6900312,21.0656071 C42.6900312,19.6925286 43.2062076,17.1136054 43.9209136,13.55475 C44.1432665,12.4369232 44.3894429,11.2076071 44.6462077,9.89027321 C47.491796,10.2130054 50.42209,10.5063982 53.4238546,10.7528482 C52.9156195,13.8070679 52.6376782,16.4740089 52.6376782,18.5424286 C52.6376782,20.1355518 52.7938548,21.6611946 53.1035606,23.0988196 C50.909149,23.9701964 48.66709,24.4249554 46.5547371,24.4249554 L46.5547371,24.4249554 L46.5547371,24.4249554 Z" id="path-1"></path>
        <path d="M115.455031,38.2114857 C112.643855,38.2114857 111.648561,37.1787429 111.648561,34.25655 C111.648561,33.2795519 112.257384,30.0874375 113.099149,25.6689411 C113.485619,23.6298607 113.938267,21.2592464 114.435914,18.5482964 L112.228266,17.5448929 C109.438267,22.2743857 106.608561,24.2929286 102.775619,24.2929286 C97.4206194,24.2929286 93.8232665,19.6367839 93.8232665,12.7097786 C93.8232665,12.2051429 93.8523842,11.7093089 93.8867958,11.2164089 C96.9706195,11.0169018 100.088855,10.7587161 103.238855,10.4389179 L103.230914,10.5210679 C103.230914,14.1327339 105.237384,16.6471107 108.101502,16.6471107 C110.017972,16.6471107 112.813267,15.7551964 115.280325,11.5186036 L115.407384,11.3044268 L115.452384,11.0521089 C115.571502,10.3861071 115.695914,9.62915357 115.820325,8.831125 C118.554737,8.40570536 121.305031,7.93040893 124.073855,7.39936786 C121.524737,20.4934911 121.177972,28.8493196 121.177972,32.3348266 C121.177972,33.9631571 121.334149,35.4946679 121.641208,36.8970857 C119.465325,37.7684627 117.392678,38.2114857 115.455031,38.2114857 L115.455031,38.2114857 L115.455031,38.2114857 Z M15.814443,25.3550107 C5.7212077,25.3550107 0.16503124,20.4612179 0.16503124,11.5860839 C0.16503124,8.53479821 0.755325358,5.15784643 1.41179595,1.59605714 C4.40297241,2.423425 7.94738417,3.33881071 11.9788548,4.2718 C11.7882665,5.6888875 11.671796,6.96514643 11.671796,8.06830357 C11.671796,13.267225 14.1415018,16.2451625 18.4482665,16.2451625 C21.6300312,16.2451625 24.2585607,14.5874929 26.0559137,11.4481893 C26.609149,10.4799929 27.1756195,9.11865 27.7076784,7.44631071 C30.7782665,7.98028571 34.0023843,8.49078929 37.3641488,8.95728393 C36.9882665,10.1015161 36.5965018,11.1635982 36.1862076,12.1435304 C32.4062076,21.0304 25.7409135,25.3550107 15.814443,25.3550107 L15.814443,25.3550107 L15.814443,25.3550107 Z M82.1417958,24.4249554 C78.8329724,24.4249554 78.1553254,23.0313393 78.1553254,20.9365143 C78.1553254,19.8744321 78.4094429,18.4602786 78.729737,16.6793839 L78.7906194,16.3595857 C79.0473841,14.9395643 79.3041489,13.5752875 79.5529725,12.2784911 L79.6535607,11.7415821 C82.6023843,11.7151768 85.5935607,11.6359607 88.6217958,11.5039339 C88.2856195,13.677975 88.044737,15.9869768 88.044737,18.4133357 C88.044737,20.1766268 88.2115019,21.728675 88.5556195,23.1193571 C86.0488547,23.9760643 83.8438548,24.4249554 82.1417958,24.4249554 L82.1417958,24.4249554 L82.1417958,24.4249554 Z M66.1720901,24.4249554 C62.8156195,24.4249554 62.1273842,23.0313393 62.1273842,20.9365143 C62.1273842,19.2407036 62.5853252,17.16935 63.0644431,14.9835732 C63.3079724,13.8628125 63.5620901,12.6687036 63.7817958,11.4393875 C66.7809135,11.58315 69.8382664,11.6799696 72.9512078,11.7298464 C72.5700313,14.0388482 72.2550312,16.5180179 72.2550312,19.1438839 C72.2550312,20.4172089 72.4297372,21.728675 72.7844431,23.1134893 C70.2115018,23.9966018 68.0382665,24.4249554 66.1720901,24.4249554 L66.1720901,24.4249554 L66.1720901,24.4249554 Z M46.5547371,24.4249554 C43.1267958,24.4249554 42.6900312,22.6352589 42.6900312,21.0656071 C42.6900312,19.6925286 43.2062076,17.1136054 43.9209136,13.55475 C44.1432665,12.4369232 44.3894429,11.2076071 44.6462077,9.89027321 C47.491796,10.2130054 50.42209,10.5063982 53.4238546,10.7528482 C52.9156195,13.8070679 52.6376782,16.4740089 52.6376782,18.5424286 C52.6376782,20.1355518 52.7938548,21.6611946 53.1035606,23.0988196 C50.909149,23.9701964 48.66709,24.4249554 46.5547371,24.4249554 L46.5547371,24.4249554 L46.5547371,24.4249554 Z" id="path-3"></path>
    </defs>
    <g id="Page-1" stroke="none" stroke-width="1" fill="none" fill-rule="evenodd" sketch:type="MSPage">
        <rect id="Rectangle-1" fill="#FFFFFF" sketch:type="MSShapeGroup" x="0" y="0" width="300" height="300"></rect>
        <g id="ul-logo-svg" sketch:type="MSLayerGroup" transform="translate(15.000000, 108.000000)">
            <g id="Page-1">
                <g id="Uniqleads_Georgy-business-card-front-final-(updated)_with-bleedmark">
                    <path d="M116.650588,38.8969838 C114.916765,41.8807893 112.820294,43.4093662 110.488235,43.4093662 C108.336177,43.4093662 106.840588,41.5521893 106.840588,38.6299964 C106.840588,33.9298429 109.831765,30.2800357 114.138529,30.2800357 C115.213235,30.2800357 116.467941,30.5440893 117.786177,31.2071571 C117.367941,34.3229893 117.010588,36.9048464 116.650588,38.8969838 M130.706471,22.258675 C129.030882,21.5281268 127.177941,21.1995268 125.264118,21.1995268 C123.347647,21.1995268 121.613824,21.5281268 119.938235,22.258675 C117.725294,21.1320464 115.515,20.6010054 113.180294,20.6010054 C108.217059,20.6010054 103.550294,22.7897161 100.140882,26.7681232 C96.792353,30.6819838 94.997647,35.5845786 94.997647,40.8216409 C94.997647,48.6434945 99.2435294,53.7485305 105.165,53.7485305 C109.532647,53.7485305 112.703824,51.3661802 115.634118,46.3873036 C113.958529,55.4736802 112.820294,60.7752893 112.820294,62.3654786 C112.820294,66.0152857 114.379412,67.6700214 117.847059,67.6700214 C120.179118,67.6700214 122.752059,67.0744338 125.502353,65.8187123 C125.023235,64.2226552 124.785,62.4358929 124.785,60.4437555 C124.785,52.8888893 126.277941,39.5629857 130.706471,22.258675 M89.7352942,20.533525 C87.6414705,20.533525 84.9520588,21.1320464 81.7835295,22.3232214 C82.3208823,23.7813839 82.5564707,25.3070268 82.5564707,27.0996571 C82.5564707,31.4066643 81.3017647,36.9752607 79.9861765,44.2015266 C79.6288236,46.1907302 79.3270587,47.7809198 79.3270587,49.0425091 C79.3270587,52.3578484 81.0052942,53.8834909 84.5311764,53.8834909 C86.627647,53.8834909 89.3197059,53.2849698 92.4855883,52.0937945 C91.8900001,50.436125 91.6491175,48.5818821 91.6491175,46.5251981 C91.6491175,37.5092357 94.9394119,30.1480089 94.9394119,25.3070268 C94.9394119,22.0591679 93.2638236,20.533525 89.7352942,20.533525 M90.5744117,15.9595304 C94.2802941,15.9595304 97.332353,12.6441911 97.332353,8.46921071 C97.332353,5.02184464 95.2385293,2.83606786 92.0091176,2.83606786 C88.4197058,2.83606786 85.3676471,6.21595357 85.3676471,10.2589071 C85.3676471,13.7737536 87.4032352,15.9595304 90.5744117,15.9595304 M69.522353,20.533525 C65.0964705,20.533525 61.6261765,22.7222357 59.172353,25.708975 C58.8758825,22.1266482 56.8402942,20.533525 52.8326471,20.533525 C51.0405883,20.533525 48.9467648,20.8005125 46.6120588,21.5281268 C47.0329413,22.8542625 47.2102942,24.2478786 47.2102942,25.8380679 C47.2102942,28.6869125 46.9720589,31.8731591 46.3155883,35.2530448 C44.997353,42.3472838 43.8617647,46.9183445 43.8617647,49.1745357 C43.8617647,52.2903679 45.5955881,53.8834909 48.9467648,53.8834909 C51.4561764,53.8834909 54.2091176,53.2849698 56.9594117,52.0233802 C56.4829413,50.3686448 56.2447059,48.5818821 56.2447059,46.6513571 C56.2447059,43.5384588 56.9038235,38.3688769 58.6349999,31.2746373 C59.8314705,30.3475162 61.0279411,29.8839554 62.0470587,29.8839554 C64.0191177,29.8839554 65.5147058,31.5386909 65.5147058,34.0589357 C65.5147058,39.6950123 63.3017647,44.9966214 63.3017647,49.0425091 C63.3017647,52.3578484 64.977353,53.8834909 68.5641175,53.8834909 C70.8379412,53.8834909 73.5300001,53.2849698 76.6985294,52.0937945 C76.1611764,50.436125 75.8620589,48.8430016 75.8620589,47.2528123 C75.8620589,40.5575873 77.9558824,34.7220036 77.9558824,30.1480089 C77.9558824,24.1833321 74.7238235,20.533525 69.522353,20.533525 M38.3029412,7.01104821 C35.8491176,7.01104821 33.0988236,7.80614286 30.1658824,9.33178571 C31.185,11.5204964 31.4232353,13.9732607 31.4232353,16.8895857 C31.4232353,27.4957375 29.2102941,35.7166055 27.4155883,38.8324377 C25.8617648,41.5521893 23.5905882,43.0074179 20.8376471,43.0074179 C17.2508824,43.0074179 15.2761765,40.6221341 15.2761765,36.1772321 C15.2761765,33.9943893 15.7526471,31.0751302 16.4117647,27.3666446 C17.6664706,20.6655518 18.8020588,15.8949839 18.8020588,12.7116714 C18.8020588,8.73326429 16.8882353,7.01104821 12.4623529,7.01104821 C9.95294119,7.01104821 7.13911764,7.67411607 3.96794117,8.93277143 C4.32794118,10.5258946 4.50794117,12.1160839 4.50794117,13.7062732 C4.50794117,23.7813839 1.33676471,32.3337857 1.33676471,39.6950123 C1.33676471,49.1745357 7.26088236,54.8076786 18.2038235,54.8076786 C28.6120589,54.8076786 35.6717647,50.2395516 39.6794117,40.8216409 C41.352353,36.8432341 42.6097059,31.8731591 43.6844118,25.9730286 C44.5235295,21.3315536 44.8835293,17.6846804 44.8835293,15.0324089 C44.8835293,9.4638125 42.9670588,7.01104821 38.3029412,7.01104821" id="Fill-13" fill="#000000" sketch:type="MSShapeGroup"></path>
                    <path d="M258.575294,30.9460373 C258.575294,32.0726659 259.589118,32.9968536 261.267352,34.5929107 C263.956764,37.1777016 265.754119,38.9644643 265.754119,42.5438571 C265.754119,46.2963516 263.824412,49.7114445 260.534118,51.9324286 C259.943824,51.6801107 259.300588,51.4864714 258.604411,51.3515107 C256.963236,51.0346464 254.514707,51.1872107 250.475294,51.4424623 C249.000881,51.5334143 247.285588,51.6390357 245.400883,51.7358552 C245.226176,51.2370873 245.115001,50.6796409 245.115001,50.0371107 C245.115001,48.3794409 245.832353,46.5251981 247.089707,44.2719409 C248.884411,45.5922088 250.737352,46.1907302 252.534706,46.1907302 C254.08853,46.1907302 254.924999,45.3956357 254.924999,44.2015266 C254.924999,43.0748981 253.786765,42.1448429 251.994706,40.3580802 C249.482647,37.7674214 247.748825,36.0510731 247.748825,32.6653195 C247.748825,29.6199018 249.601765,26.1021214 253.072058,23.5848107 C255.880589,21.5281268 259.112647,20.4689786 262.461177,20.4689786 C266.050588,20.4689786 267.906176,21.8625946 267.906176,24.5794125 C267.906176,26.3045625 267.186177,28.1588054 265.809705,30.2800357 C264.258529,29.3499804 262.760294,28.8248071 261.447353,28.8248071 C259.652647,28.8248071 258.575294,29.7519286 258.575294,30.9460373 M207.982059,45.8591964 C207.982059,47.9804266 208.156765,49.7730571 208.752353,51.3661802 C205.583824,53.0209159 202.952647,53.8834909 200.800588,53.8834909 C198.227647,53.8834909 197.092059,52.7539286 197.092059,49.9696302 L197.092059,49.9520266 L197.139706,50.0605821 L199.416176,48.5760143 L195.466765,39.8153036 L201.022941,39.8153036 L189.100588,27.7832625 L189.902647,45.3076179 L193.269706,41.2529286 L196.501765,48.6112214 C193.722353,52.6717786 190.778824,54.4761445 186.564706,54.4761445 C180.701471,54.4761445 176.635588,49.4385893 176.635588,41.481775 C176.635588,36.0510731 178.430294,30.8785571 181.717941,26.9646964 C185.127353,22.8542625 189.796765,20.533525 194.638235,20.533525 C196.912059,20.533525 199.064118,21.0645661 201.279706,22.1941286 C202.952647,21.3961 204.75,21.1320464 206.782941,21.1320464 C208.696765,21.1320464 210.552353,21.4635804 212.222647,22.1941286 C209.234118,32.0022516 207.982059,40.0910929 207.982059,45.8591964 M145.477059,26.1021214 C143.745882,35.649125 142.665882,42.4793107 142.665882,46.6513571 C142.665882,48.5818821 142.906765,50.3686445 143.383235,52.0233802 C140.511176,53.2849695 137.760882,53.8834909 135.190588,53.8834909 C131.720294,53.8834909 130.163824,52.4223945 130.163824,49.0425088 C130.163824,46.985825 131.357647,42.1448429 132.678529,34.3229893 C134.232353,25.3070268 135.190588,18.5472554 135.190588,13.8383 C135.190588,11.8490964 134.949706,9.99485357 134.531471,8.26970357 C137.88,6.81154107 140.810294,5.94896607 143.325,5.94896607 C146.612647,5.94896607 148.351765,7.54208929 148.351765,10.3263875 C148.351765,12.9111786 146.911765,18.0807607 145.477059,26.1021214 M163.778824,28.3612464 C165.631765,28.3612464 166.828235,29.5524214 166.828235,31.4741445 C166.828235,33.3958679 165.454412,34.3229893 162.701471,34.3229893 C161.086765,34.3229893 159.707647,34.1264159 158.455588,33.7948821 C159.352941,30.2800357 161.325,28.3612464 163.778824,28.3612464 M164.377059,40.5575873 C172.990588,40.5575873 177.297353,37.5092357 177.297353,31.4741445 C177.297353,25.175 172.331471,20.3369518 164.734412,20.3369518 C154.506177,20.3369518 146.549118,28.7543929 146.549118,39.8270393 C146.549118,48.9750286 152.235,54.6785857 161.984118,54.6785857 C169.642059,54.6785857 174.007059,51.7593266 174.007059,47.7193071 C174.007059,46.12325 173.289706,44.7971143 171.852353,43.2098588 C169.642059,45.3310893 166.767353,46.4577179 163.418823,46.4577179 C159.292059,46.4577179 157.079118,44.5359945 157.079118,41.0886286 C157.079118,40.6896143 157.079118,40.2906 157.14,39.8945195 C159.233823,40.3580802 161.626765,40.5575873 164.377059,40.5575873 M232.139118,39.2989321 C230.283529,42.2181909 228.189706,43.6059393 226.575,43.6059393 C224.301177,43.6059393 222.988235,41.8807893 222.988235,38.6299964 C222.988235,34.2584429 225.918529,30.6819838 229.566177,30.6819838 C230.881765,30.6819838 232.078235,31.00765 233.393824,31.6736516 C232.975588,34.5224964 232.557353,37.1102214 232.139118,39.2989321 M245.956765,23.7168375 C247.214117,17.2856661 248.410587,12.7791518 248.410587,10.1943607 C248.410587,7.47460893 246.735001,6.01644643 243.502941,6.01644643 C241.051764,6.01644643 238.121471,6.81154107 234.772941,8.26970357 C235.310294,9.92737321 235.485,11.7170696 235.485,13.6417268 C235.485,15.56345 235.254706,18.2802679 234.828529,21.8625946 C232.92,21.1995268 231.122647,20.8679929 229.388824,20.8679929 C224.062941,20.8679929 219.279706,23.1857964 215.870294,27.2962304 C212.58,31.2746373 210.846176,36.2476464 210.846176,41.5521893 C210.846176,44.2308662 211.325294,46.5692071 212.177647,48.5056 L213.871765,49.4356552 C215.510294,50.3334373 217.265294,50.9671659 219.091765,51.3163036 C221.246471,51.7358552 223.912059,51.9911071 227.422059,52.0879266 C228.999706,50.7940643 230.447647,48.9926321 231.837353,46.5897445 C231.540882,48.0479071 231.419118,49.1745357 231.419118,49.9696302 C231.419118,50.8527429 231.559412,51.5568857 231.805588,52.1319357 C234.569118,52.1202 237.750882,52.0468516 241.464706,51.9030893 C241.851176,51.8913536 242.20853,51.8766838 242.589705,51.8620143 C242.936471,51.6889123 243.267353,51.5539516 243.624706,51.3661802 C243.02647,49.7730571 242.84647,47.9804266 242.84647,45.8591964 C242.84647,41.5521893 243.860294,34.1938964 245.956765,23.7168375" id="Fill-14" fill="#DF4F2A" sketch:type="MSShapeGroup"></path>
                    <path d="M229.955294,72.4464571 C240.747352,71.9154159 248.434412,71.7628519 252.997942,72.6488981 C255.102353,73.0537805 257.01353,73.7931302 258.723529,74.8493445 C260.682353,70.8738714 261.9,66.9394731 262.418823,63.1429698 C263.128235,58.0203302 261.844411,55.4150019 258.143825,54.6961893 C255.899119,54.2649016 250.364119,55.0042519 241.54147,55.2947107 C231.368824,55.6790552 223.779706,55.6643857 218.631177,54.66685 C216.455294,54.2443643 214.475294,53.4962123 212.675294,52.5133464 C210.396177,57.1518877 208.863529,61.2916607 208.35,65.0089481 C207.682941,69.8587321 209.075294,72.7603873 212.116765,73.3530409 C214.943824,73.8958179 220.889118,72.8748107 229.955294,72.4464571" id="Fill-15" fill="#000000" sketch:type="MSShapeGroup"></path>
                    <path d="M221.302059,67.3795627 C221.302059,67.7287 221.177647,68.0220929 220.931471,68.262675 C220.690588,68.5061912 220.386177,68.6264821 220.028824,68.6264821 C219.705882,68.6264821 219.438529,68.5179266 219.229412,68.2978821 C219.020294,68.0778373 218.917059,67.7873786 218.917059,67.4353071 C218.917059,67.0538964 219.030882,66.7429 219.266471,66.5081857 C219.494118,66.2676036 219.798529,66.1473123 220.171765,66.1473123 C220.523823,66.1473123 220.799118,66.2617357 220.997647,66.4759123 C221.196177,66.6959571 221.302059,66.9952179 221.302059,67.3795627" id="Fill-16" fill="#FFFFFF" sketch:type="MSShapeGroup"></path>
                    <path d="M228.539118,60.8192984 L227.885294,60.4906981 C227.676177,60.4261519 227.437941,60.3909448 227.181176,60.3909448 C226.310294,60.3909448 225.582353,60.7371481 225.002647,61.4295555 C224.425588,62.1248964 224.139706,62.9992071 224.139706,64.0612893 C224.139706,65.01775 224.393824,65.7805714 224.907353,66.3438857 C225.420882,66.9072 226.114412,67.1859234 226.990588,67.1859234 C227.369118,67.1859234 227.713235,67.1301786 228.025588,67.0186893 C228.335294,66.9013321 228.623823,66.7223627 228.893823,66.4788464 L229.129412,66.9394734 L229.211471,67.359025 C229.211471,67.7609734 229.002353,68.0778377 228.584118,68.3096179 C228.163235,68.5472662 227.599412,68.6675571 226.879412,68.6675571 C225.622059,68.6675571 224.605588,68.2656091 223.819412,67.4675802 C223.033235,66.6724857 222.638824,65.633875 222.638824,64.3546821 C222.638824,62.8055679 223.115294,61.5058373 224.065588,60.4496231 C225.018529,59.3934088 226.172647,58.8653019 227.533235,58.8653019 C228.033529,58.8653019 228.404118,58.9445179 228.647647,59.10295 C228.891177,59.2613821 229.010294,59.5048981 229.010294,59.8246964 L228.901765,60.3117286 L228.539118,60.8192984" id="Fill-17" fill="#FFFFFF" sketch:type="MSShapeGroup"></path>
                    <path d="M234.010588,67.3795627 C234.939706,67.3795627 235.699412,67.0362929 236.295,66.3438857 C236.887941,65.6544123 237.184412,64.7713 237.184412,63.6886805 C237.184412,62.6354 236.893235,61.7757588 236.308235,61.1097571 C235.725882,60.4466893 234.976765,60.1151552 234.045,60.1151552 C233.1,60.1151552 232.335,60.458425 231.752647,61.1508321 C231.170294,61.8403055 230.879118,62.7527571 230.879118,63.8881873 C230.879118,64.9003929 231.175588,65.7336286 231.765882,66.3908286 C232.356176,67.0480286 233.105294,67.3795627 234.010588,67.3795627 L234.010588,67.3795627 L234.010588,67.3795627 Z M233.907353,68.7526409 C232.575882,68.7526409 231.493235,68.2949484 230.654118,67.3883643 C229.817647,66.4759127 229.402059,65.3140766 229.402059,63.8881873 C229.402059,62.3772143 229.846765,61.1508321 230.741471,60.2061071 C231.638824,59.2613821 232.798235,58.7890195 234.227647,58.7890195 C235.516765,58.7890195 236.575588,59.2379107 237.409412,60.1327588 C238.240588,61.0305412 238.664118,62.1630377 238.664118,63.5361162 C238.664118,64.0906286 238.584706,64.6334055 238.425882,65.1761821 C238.269706,65.7130909 238.052647,66.1766516 237.785294,66.5580627 C237.274412,67.2886107 236.697353,67.8372552 236.051471,68.2010623 C235.408235,68.5648698 234.693529,68.7526409 233.907353,68.7526409 L233.907353,68.7526409 L233.907353,68.7526409 Z" id="Fill-18" fill="#FFFFFF" sketch:type="MSShapeGroup"></path>
                    <path d="M239.617058,59.0677429 L239.995588,58.9562536 L240.376764,58.9239802 C240.68647,58.9239802 240.927353,59.0119981 241.102058,59.1968357 C241.274117,59.3728714 241.377353,59.636925 241.395882,59.9801945 C241.851176,59.636925 242.293236,59.3816731 242.727353,59.2173731 C243.158825,59.0560071 243.590294,58.9709231 244.019119,58.9709231 C244.440001,58.9709231 244.834411,59.0648091 245.202352,59.2437786 C245.572942,59.4256821 245.917058,59.6985373 246.24,60.0594107 C246.692647,59.6985373 247.177058,59.4139464 247.687941,59.2085714 C248.201471,59.0061302 248.693825,58.9034429 249.162353,58.9034429 C250.189412,58.9034429 250.975587,59.2349766 251.526177,59.8951107 C252.07147,60.5581786 252.346764,61.5058373 252.346764,62.7351536 C252.346764,62.9111893 252.336177,63.2661948 252.317647,63.7913679 C252.301765,64.319475 252.293823,64.7624981 252.293823,65.1204373 C252.293823,65.9390036 252.328235,66.5668643 252.397058,67.0098873 C252.465882,67.4529107 252.577058,67.81085 252.730587,68.0837052 C252.447353,68.2392036 252.20647,68.3477588 252.013236,68.4123052 L251.502353,68.5120588 C251.232353,68.5120588 251.047058,68.4387107 250.94647,68.2861464 C250.84853,68.13945 250.798236,67.8489909 250.798236,67.4147695 C250.798236,67.0245571 250.816765,66.3908286 250.864412,65.5194519 C250.904119,64.648075 250.925293,63.9820734 250.925293,63.5155786 C250.925293,62.3742802 250.769119,61.5439786 250.456764,61.0393429 C250.144413,60.5347071 249.64147,60.2794552 248.947942,60.2794552 C248.569412,60.2794552 248.204119,60.3381338 247.849413,60.4613588 C247.497352,60.5845841 247.121471,60.7928929 246.711176,61.0774838 C246.772058,61.4647623 246.811764,61.8696448 246.838236,62.2921302 C246.864706,62.7146159 246.875293,63.3072695 246.875293,64.0612893 L246.875293,65.0617588 C246.875293,65.9390036 246.904413,66.5932698 246.962647,67.0216234 C247.018236,67.4499766 247.121471,67.81085 247.261764,68.1042429 C247.010293,68.2509393 246.785295,68.3536266 246.594706,68.4181731 L246.025589,68.5120588 C245.766176,68.5120588 245.586177,68.4328429 245.488236,68.2714766 C245.387648,68.1130448 245.337352,67.8225857 245.337352,67.4001 C245.337352,67.1653857 245.350589,66.6519481 245.382353,65.8480516 C245.414118,65.0470893 245.427353,64.3546821 245.427353,63.7855 C245.427353,62.4388266 245.295,61.5234409 245.022353,61.0393429 C244.749705,60.5581786 244.281176,60.3146627 243.616764,60.3146627 C243.264705,60.3146627 242.909999,60.3909445 242.552648,60.540575 C242.192647,60.6872714 241.816764,60.9131838 241.432942,61.2095107 C241.422352,61.7405516 241.403825,62.4094873 241.385295,63.2397893 C241.364118,64.0612893 241.35353,64.5688588 241.35353,64.7683662 C241.35353,65.6104036 241.387942,66.2940088 241.459411,66.8103802 C241.528235,67.3296857 241.634118,67.7609731 241.785,68.1042429 C241.544117,68.2450714 241.321764,68.3477588 241.120587,68.4123052 L240.530293,68.5120588 C240.262941,68.5120588 240.085589,68.4299088 239.987648,68.262675 C239.889705,68.1013088 239.839411,67.7521714 239.839411,67.2269981 C239.839411,67.0715 239.873823,66.4407052 239.942647,65.3316802 C240.006175,64.2255893 240.037942,63.1899123 240.037942,62.2305179 C240.037942,61.4735643 240.00353,60.8398357 239.937352,60.3322662 C239.86853,59.8246964 239.76,59.4051445 239.617058,59.0677429" id="Fill-19" fill="#FFFFFF" sketch:type="MSShapeGroup"></path>
                    <g id="Group-23" transform="translate(0.000000, 28.108929)">
                        <g id="mask-2" transform="translate(2.389381, 0.000000)" fill="#FFFFFF" sketch:type="MSShapeGroup">
                            <path d="M115.455031,38.2114857 C112.643855,38.2114857 111.648561,37.1787429 111.648561,34.25655 C111.648561,33.2795519 112.257384,30.0874375 113.099149,25.6689411 C113.485619,23.6298607 113.938267,21.2592464 114.435914,18.5482964 L112.228266,17.5448929 C109.438267,22.2743857 106.608561,24.2929286 102.775619,24.2929286 C97.4206194,24.2929286 93.8232665,19.6367839 93.8232665,12.7097786 C93.8232665,12.2051429 93.8523842,11.7093089 93.8867958,11.2164089 C96.9706195,11.0169018 100.088855,10.7587161 103.238855,10.4389179 L103.230914,10.5210679 C103.230914,14.1327339 105.237384,16.6471107 108.101502,16.6471107 C110.017972,16.6471107 112.813267,15.7551964 115.280325,11.5186036 L115.407384,11.3044268 L115.452384,11.0521089 C115.571502,10.3861071 115.695914,9.62915357 115.820325,8.831125 C118.554737,8.40570536 121.305031,7.93040893 124.073855,7.39936786 C121.524737,20.4934911 121.177972,28.8493196 121.177972,32.3348266 C121.177972,33.9631571 121.334149,35.4946679 121.641208,36.8970857 C119.465325,37.7684627 117.392678,38.2114857 115.455031,38.2114857 L115.455031,38.2114857 L115.455031,38.2114857 Z M15.814443,25.3550107 C5.7212077,25.3550107 0.16503124,20.4612179 0.16503124,11.5860839 C0.16503124,8.53479821 0.755325358,5.15784643 1.41179595,1.59605714 C4.40297241,2.423425 7.94738417,3.33881071 11.9788548,4.2718 C11.7882665,5.6888875 11.671796,6.96514643 11.671796,8.06830357 C11.671796,13.267225 14.1415018,16.2451625 18.4482665,16.2451625 C21.6300312,16.2451625 24.2585607,14.5874929 26.0559137,11.4481893 C26.609149,10.4799929 27.1756195,9.11865 27.7076784,7.44631071 C30.7782665,7.98028571 34.0023843,8.49078929 37.3641488,8.95728393 C36.9882665,10.1015161 36.5965018,11.1635982 36.1862076,12.1435304 C32.4062076,21.0304 25.7409135,25.3550107 15.814443,25.3550107 L15.814443,25.3550107 L15.814443,25.3550107 Z M82.1417958,24.4249554 C78.8329724,24.4249554 78.1553254,23.0313393 78.1553254,20.9365143 C78.1553254,19.8744321 78.4094429,18.4602786 78.729737,16.6793839 L78.7906194,16.3595857 C79.0473841,14.9395643 79.3041489,13.5752875 79.5529725,12.2784911 L79.6535607,11.7415821 C82.6023843,11.7151768 85.5935607,11.6359607 88.6217958,11.5039339 C88.2856195,13.677975 88.044737,15.9869768 88.044737,18.4133357 C88.044737,20.1766268 88.2115019,21.728675 88.5556195,23.1193571 C86.0488547,23.9760643 83.8438548,24.4249554 82.1417958,24.4249554 L82.1417958,24.4249554 L82.1417958,24.4249554 Z M66.1720901,24.4249554 C62.8156195,24.4249554 62.1273842,23.0313393 62.1273842,20.9365143 C62.1273842,19.2407036 62.5853252,17.16935 63.0644431,14.9835732 C63.3079724,13.8628125 63.5620901,12.6687036 63.7817958,11.4393875 C66.7809135,11.58315 69.8382664,11.6799696 72.9512078,11.7298464 C72.5700313,14.0388482 72.2550312,16.5180179 72.2550312,19.1438839 C72.2550312,20.4172089 72.4297372,21.728675 72.7844431,23.1134893 C70.2115018,23.9966018 68.0382665,24.4249554 66.1720901,24.4249554 L66.1720901,24.4249554 L66.1720901,24.4249554 Z M46.5547371,24.4249554 C43.1267958,24.4249554 42.6900312,22.6352589 42.6900312,21.0656071 C42.6900312,19.6925286 43.2062076,17.1136054 43.9209136,13.55475 C44.1432665,12.4369232 44.3894429,11.2076071 44.6462077,9.89027321 C47.491796,10.2130054 50.42209,10.5063982 53.4238546,10.7528482 C52.9156195,13.8070679 52.6376782,16.4740089 52.6376782,18.5424286 C52.6376782,20.1355518 52.7938548,21.6611946 53.1035606,23.0988196 C50.909149,23.9701964 48.66709,24.4249554 46.5547371,24.4249554 L46.5547371,24.4249554 L46.5547371,24.4249554 Z" id="path-1"></path>
                        </g>
                        <g id="Clip-21"></g>
                        <g id="Fill-20-Clipped" transform="translate(2.389381, 0.000000)">
                            <mask id="mask-2" sketch:name="path-1" fill="white">
                                <use xlink:href="#path-1"></use>
                            </mask>
                            <g id="path-1"></g>
                            <path d="M0.16503124,1.59605714 L124.073855,1.59605714 L124.073855,38.2114857 L0.16503124,38.2114857 L0.16503124,1.59605714 L0.16503124,1.59605714 Z" id="Fill-20" fill="#030100" sketch:type="MSShapeGroup" mask="url(#mask-2)"></path>
                        </g>
                        <g id="Fill-22-Clipped" transform="translate(2.389381, 0.000000)">
                            <mask id="mask-4" sketch:name="path-1" fill="white">
                                <use xlink:href="#path-3"></use>
                            </mask>
                            <g id="path-1"></g>
                            <path d="M0.16503124,1.59605714 L124.073855,1.59605714 L124.073855,38.2114857 L0.16503124,38.2114857 L0.16503124,1.59605714 L0.16503124,1.59605714 Z" id="Fill-22" fill="#030100" sketch:type="MSShapeGroup" mask="url(#mask-4)"></path>
                        </g>
                    </g>
                    <path d="M161.984118,53.3289786 C153.084706,53.3289786 147.766765,48.2796873 147.766765,39.8270393 C147.766765,36.7757536 148.412647,33.9591821 149.556176,31.4858802 C152.515588,31.1162052 155.472353,30.7993412 158.421177,30.5411552 C157.95,31.377325 157.563529,32.3337857 157.285588,33.4252071 L156.944118,34.7748143 L158.172353,35.1034143 C159.609706,35.484825 161.089412,35.6755302 162.704118,35.6755302 C167.352353,35.6755302 168.045882,33.0437964 168.045882,31.4741445 C168.045882,30.9020286 167.950588,30.3797893 167.802353,29.8956911 C170.515588,29.7548625 173.215588,29.6551089 175.899706,29.5964304 C176.013529,30.2008196 176.082353,30.8228123 176.082353,31.4741445 C176.082353,33.3870659 176.082353,39.2109143 164.377059,39.2109143 C161.597647,39.2109143 159.310588,39.0026052 157.378235,38.5713179 L156.152647,38.3013964 L155.940882,39.6686071 C155.864118,40.1761766 155.864118,40.660275 155.864118,41.0886286 C155.864118,45.3545607 158.617059,47.8043909 163.418823,47.8043909 C166.582059,47.8043909 169.427647,46.8508643 171.722647,45.0347623 C172.471765,46.0264302 172.792059,46.8508643 172.792059,47.7193071 C172.792059,51.0727873 168.448235,53.3289786 161.984118,53.3289786" id="Fill-24" fill="#E3653A" sketch:type="MSShapeGroup"></path>
                    <path d="M189.902647,45.3076179 L189.185294,29.6169679 L189.902647,45.3076179" id="Fill-25" fill="#FFFFFF" sketch:type="MSShapeGroup"></path>
                    <path d="M186.564706,53.1294714 C181.267941,53.1294714 177.850588,48.5584107 177.850588,41.4847091 C177.850588,37.0984857 179.097353,32.9323071 181.379118,29.5318839 L181.940294,29.5318839 C184.375588,29.5318839 186.787059,29.5641571 189.185294,29.6169679 L189.902647,45.3076179 L193.269706,41.2529286 L195.898235,47.2410769 C193.182353,51.4424627 190.508824,53.1294714 186.564706,53.1294714" id="Fill-26" fill="#E3653A" sketch:type="MSShapeGroup"></path>
                    <path d="M198.352059,49.2684214 L198.354706,49.2684214 L199.416176,48.5760143 L198.352059,49.2684214" id="Fill-27" fill="#FFFFFF" sketch:type="MSShapeGroup"></path>
                    <path id="Fill-29" fill="#FFFFFF" sketch:type="MSShapeGroup" d="M222.675882,51.8150714 C221.331177,51.6889123 220.150588,51.5216786 219.091765,51.3163036 C220.150588,51.5216786 221.331177,51.6889123 222.675882,51.8150714"></path>
                    <path d="M233.309118,52.1202 C232.779706,51.6977143 232.639412,50.9906373 232.639412,49.9696302 C232.639412,49.4327214 232.702941,48.4586571 233.028529,46.8860714 L230.820882,45.8591964 C229.052647,48.9016805 227.273823,50.8850162 225.27,52.0028429 C224.340882,51.9529659 223.480588,51.8913536 222.675882,51.8150714 C221.331177,51.6889123 220.150588,51.5216786 219.091765,51.3163036 C217.381765,50.9877036 215.735294,50.4038519 214.189412,49.5940873 C212.831471,47.5990159 212.061176,44.8587269 212.061176,41.5521893 C212.061176,37.8143643 212.969118,34.2965838 214.708235,31.2071571 C217.842353,31.5240214 220.915588,31.8731591 223.909412,32.2516357 C222.588529,33.9181071 221.773235,36.1596286 221.773235,38.6299964 C221.773235,42.5908 223.565294,44.9555464 226.577647,44.9555464 C228.769412,44.9555464 231.162353,43.1775857 233.131765,40.0764231 L233.277353,39.8505107 L233.327647,39.5776552 C233.645294,37.9346555 233.970882,35.9923945 234.322941,33.7186 C237.208235,34.1645571 239.995588,34.6339857 242.679706,35.1122159 C241.988824,39.6774088 241.626175,43.3008107 241.626175,45.8591964 C241.626175,47.7897214 241.779705,49.3212321 242.118529,50.6473679 C240.924706,51.2312195 239.791764,51.6713088 238.725,51.996975 C236.766176,52.0585873 234.966177,52.0996623 233.309118,52.1202" id="Fill-30" fill="#E3653A" sketch:type="MSShapeGroup"></path>
                    <path id="Fill-31" fill="#FFFFFF" sketch:type="MSShapeGroup"></path>
                    <path d="M246.682059,51.668375 C246.335293,51.1021269 246.330001,50.4889357 246.330001,50.0341769 C246.330001,49.0073019 246.708529,47.7486464 247.521176,46.1203159 C249.125294,47.0650409 250.808823,47.5403377 252.534706,47.5403377 C255.022942,47.5403377 256.142647,45.8650643 256.142647,44.2044607 C256.142647,42.6289409 255.046764,41.5521893 253.522058,40.0588195 L252.810001,39.3546766 L252.688236,39.2285179 C251.687647,38.2016429 250.888236,37.3654734 250.282058,36.5410393 C255.292942,37.5415091 259.843236,38.5507802 263.824412,39.4955052 C264.295588,40.3874198 264.539119,41.3321448 264.539119,42.5438571 C264.539119,46.3256912 262.336764,49.5295412 258.861176,51.4043214 C258.77647,51.3867179 258.689117,51.3691143 258.604411,51.3515107 C258.580589,51.3456429 258.556764,51.3427088 258.532942,51.3368412 C257.892352,51.2224179 257.130001,51.1725412 256.20353,51.1725412 L256.200883,51.1725412 L256.182353,51.1725412 C254.999118,51.175475 253.543235,51.2517571 251.727353,51.3632464 L251.724706,51.3632464 C251.677059,51.3661802 251.629413,51.3691143 251.584411,51.3720481 C251.542059,51.3749821 251.502353,51.3779159 251.460001,51.38085 C251.409707,51.3837838 251.359413,51.3867179 251.309119,51.3896519 C251.295881,51.3896519 251.279999,51.3925857 251.266764,51.3925857 C251.229705,51.3955195 251.190001,51.3984536 251.152942,51.4013873 C251.08147,51.4043214 251.009999,51.4101893 250.93853,51.4131231 C250.819413,51.421925 250.695,51.4277929 250.573235,51.4365945 C250.538823,51.4395286 250.507058,51.4395286 250.475294,51.4424627 C249.665294,51.4923393 248.783823,51.5480841 247.84147,51.6008948 C247.465587,51.6243659 247.079117,51.6449036 246.682059,51.668375" id="Fill-32" fill="#E3653A" sketch:type="MSShapeGroup"></path>
                </g>
            </g>
        </g>
    </g>
</svg>