<?xml version="1.0" encoding="UTF-8" standalone="no"?>
<svg width="180px" height="60px" viewBox="0 0 180 60" version="1.1" xmlns="http://www.w3.org/2000/svg" xmlns:xlink="http://www.w3.org/1999/xlink" xmlns:sketch="http://www.bohemiancoding.com/sketch/ns">
    <!-- Generator: Sketch 3.3.3 (12081) - http://www.bohemiancoding.com/sketch -->
    <title>Untitled</title>
    <desc>Created with Sketch.</desc>
    <defs>
        <path d="M78.0969906,22.1073361 C76.2125187,22.1073361 75.5453234,21.4918202 75.5453234,19.7501901 C75.5453234,19.1678981 75.9534482,17.2653946 76.5177251,14.6319659 C76.7767955,13.4166717 77.0802275,12.003783 77.4138252,10.3880539 L75.9339292,9.79002427 C74.0636529,12.6088071 72.1667598,13.8118609 69.597348,13.8118609 C66.0076243,13.8118609 63.5961391,11.0367936 63.5961391,6.90829089 C63.5961391,6.60752745 63.6156581,6.31200987 63.638726,6.01824091 C65.7059668,5.89933446 67.7962756,5.7454555 69.9078778,5.55485542 L69.9025544,5.6038169 C69.9025544,7.75637383 71.2475918,9.25494512 73.1675528,9.25494512 C74.4522587,9.25494512 76.3260838,8.72336321 77.9798765,6.19834929 L78.0650504,6.07069968 L78.0952162,5.92031796 C78.1750666,5.52338017 78.2584661,5.07223502 78.3418655,4.59660912 C80.1748781,4.34305855 82.0185376,4.05978136 83.8746181,3.7432803 C82.1658173,11.547392 81.9333636,16.5274749 81.9333636,18.604841 C81.9333636,19.5753277 82.0380566,20.4881097 82.2438934,21.3239522 C80.7852909,21.8432938 79.3958921,22.1073361 78.0969906,22.1073361 L78.0969906,22.1073361 L78.0969906,22.1073361 Z M11.3029314,14.444863 C4.53693208,14.444863 0.812349693,11.5281571 0.812349693,6.23856764 C0.812349693,4.41999803 1.2080533,2.40733109 1.6481183,0.284500793 C3.65325317,0.77761294 6.02924927,1.32318382 8.73174519,1.87924645 C8.60398443,2.72383214 8.52590835,3.48448386 8.52590835,4.14196671 C8.52590835,7.24052958 10.1814755,9.01538355 13.0685148,9.01538355 C15.2014105,9.01538355 16.9634449,8.02741065 18.1683003,6.15638232 C18.5391616,5.57933616 18.9188951,4.76797433 19.2755606,3.7712583 C21.3339291,4.08950798 23.4952161,4.39376866 25.7487748,4.67179998 C25.4968021,5.35376358 25.2341826,5.98676569 24.959142,6.57080634 C22.4252194,11.8673903 17.9571401,14.444863 11.3029314,14.444863 L11.3029314,14.444863 L11.3029314,14.444863 Z M55.7654664,13.890549 C53.5473968,13.890549 53.0931361,13.0599523 53.0931361,11.8114344 C53.0931361,11.1784322 53.2634839,10.3355951 53.478193,9.27418002 L53.5190055,9.08357991 C53.6911277,8.23724559 53.8632499,7.42413514 54.0300487,6.65124304 L54.0974781,6.33124477 C56.0742216,6.31550711 58.0793566,6.26829427 60.1093337,6.18960618 C59.8839779,7.48533701 59.7225024,8.86150455 59.7225024,10.3076171 C59.7225024,11.3585405 59.8342931,12.2835629 60.0649724,13.112411 C58.3845628,13.6230094 56.9064414,13.890549 55.7654664,13.890549 L55.7654664,13.890549 L55.7654664,13.890549 Z M45.0601755,13.890549 C42.8101657,13.890549 42.3488073,13.0599523 42.3488073,11.8114344 C42.3488073,10.8007293 42.6557881,9.56620029 42.9769646,8.26347497 C43.1402145,7.59550035 43.3105622,6.88381013 43.4578421,6.15113639 C45.4683003,6.23681902 47.5177965,6.29452366 49.6045564,6.32425022 C49.3490348,7.70041782 49.1378746,9.17800565 49.1378746,10.7430247 C49.1378746,11.5019277 49.2549886,12.2835629 49.4927657,13.1089138 C47.7679948,13.6352498 46.3111667,13.890549 45.0601755,13.890549 L45.0601755,13.890549 L45.0601755,13.890549 Z M31.9096848,13.890549 C29.6117647,13.890549 29.3189795,12.8238879 29.3189795,11.8883738 C29.3189795,11.0700175 29.6649984,9.53297642 30.1441014,7.41189479 C30.2931557,6.74566879 30.4581801,6.01299505 30.6303023,5.22786261 C32.537842,5.42021132 34.5021645,5.59507378 36.5143972,5.74195825 C36.1737016,7.56227648 35.9873838,9.15177627 35.9873838,10.3845566 C35.9873838,11.3340598 36.0920767,12.2433446 36.299688,13.1001707 C34.8286643,13.6195122 33.3257004,13.890549 31.9096848,13.890549 L31.9096848,13.890549 L31.9096848,13.890549 Z" id="path-1"></path>
        <path d="M78.0969906,22.1073361 C76.2125187,22.1073361 75.5453234,21.4918202 75.5453234,19.7501901 C75.5453234,19.1678981 75.9534482,17.2653946 76.5177251,14.6319659 C76.7767955,13.4166717 77.0802275,12.003783 77.4138252,10.3880539 L75.9339292,9.79002427 C74.0636529,12.6088071 72.1667598,13.8118609 69.597348,13.8118609 C66.0076243,13.8118609 63.5961391,11.0367936 63.5961391,6.90829089 C63.5961391,6.60752745 63.6156581,6.31200987 63.638726,6.01824091 C65.7059668,5.89933446 67.7962756,5.7454555 69.9078778,5.55485542 L69.9025544,5.6038169 C69.9025544,7.75637383 71.2475918,9.25494512 73.1675528,9.25494512 C74.4522587,9.25494512 76.3260838,8.72336321 77.9798765,6.19834929 L78.0650504,6.07069968 L78.0952162,5.92031796 C78.1750666,5.52338017 78.2584661,5.07223502 78.3418655,4.59660912 C80.1748781,4.34305855 82.0185376,4.05978136 83.8746181,3.7432803 C82.1658173,11.547392 81.9333636,16.5274749 81.9333636,18.604841 C81.9333636,19.5753277 82.0380566,20.4881097 82.2438934,21.3239522 C80.7852909,21.8432938 79.3958921,22.1073361 78.0969906,22.1073361 L78.0969906,22.1073361 L78.0969906,22.1073361 Z M11.3029314,14.444863 C4.53693208,14.444863 0.812349693,11.5281571 0.812349693,6.23856764 C0.812349693,4.41999803 1.2080533,2.40733109 1.6481183,0.284500793 C3.65325317,0.77761294 6.02924927,1.32318382 8.73174519,1.87924645 C8.60398443,2.72383214 8.52590835,3.48448386 8.52590835,4.14196671 C8.52590835,7.24052958 10.1814755,9.01538355 13.0685148,9.01538355 C15.2014105,9.01538355 16.9634449,8.02741065 18.1683003,6.15638232 C18.5391616,5.57933616 18.9188951,4.76797433 19.2755606,3.7712583 C21.3339291,4.08950798 23.4952161,4.39376866 25.7487748,4.67179998 C25.4968021,5.35376358 25.2341826,5.98676569 24.959142,6.57080634 C22.4252194,11.8673903 17.9571401,14.444863 11.3029314,14.444863 L11.3029314,14.444863 L11.3029314,14.444863 Z M55.7654664,13.890549 C53.5473968,13.890549 53.0931361,13.0599523 53.0931361,11.8114344 C53.0931361,11.1784322 53.2634839,10.3355951 53.478193,9.27418002 L53.5190055,9.08357991 C53.6911277,8.23724559 53.8632499,7.42413514 54.0300487,6.65124304 L54.0974781,6.33124477 C56.0742216,6.31550711 58.0793566,6.26829427 60.1093337,6.18960618 C59.8839779,7.48533701 59.7225024,8.86150455 59.7225024,10.3076171 C59.7225024,11.3585405 59.8342931,12.2835629 60.0649724,13.112411 C58.3845628,13.6230094 56.9064414,13.890549 55.7654664,13.890549 L55.7654664,13.890549 L55.7654664,13.890549 Z M45.0601755,13.890549 C42.8101657,13.890549 42.3488073,13.0599523 42.3488073,11.8114344 C42.3488073,10.8007293 42.6557881,9.56620029 42.9769646,8.26347497 C43.1402145,7.59550035 43.3105622,6.88381013 43.4578421,6.15113639 C45.4683003,6.23681902 47.5177965,6.29452366 49.6045564,6.32425022 C49.3490348,7.70041782 49.1378746,9.17800565 49.1378746,10.7430247 C49.1378746,11.5019277 49.2549886,12.2835629 49.4927657,13.1089138 C47.7679948,13.6352498 46.3111667,13.890549 45.0601755,13.890549 L45.0601755,13.890549 L45.0601755,13.890549 Z M31.9096848,13.890549 C29.6117647,13.890549 29.3189795,12.8238879 29.3189795,11.8883738 C29.3189795,11.0700175 29.6649984,9.53297642 30.1441014,7.41189479 C30.2931557,6.74566879 30.4581801,6.01299505 30.6303023,5.22786261 C32.537842,5.42021132 34.5021645,5.59507378 36.5143972,5.74195825 C36.1737016,7.56227648 35.9873838,9.15177627 35.9873838,10.3845566 C35.9873838,11.3340598 36.0920767,12.2433446 36.299688,13.1001707 C34.8286643,13.6195122 33.3257004,13.890549 31.9096848,13.890549 L31.9096848,13.890549 L31.9096848,13.890549 Z" id="path-3"></path>
    </defs>
    <g id="Page-1" stroke="none" stroke-width="1" fill="none" fill-rule="evenodd" sketch:type="MSPage">
        <g id="ul-logo" sketch:type="MSLayerGroup" transform="translate(0.000000, 8.000000)">
            <g id="Page-1">
                <g id="Uniqleads_Georgy-business-card-front-final-(updated)_with-bleedmark">
                    <path d="M78.196711,21.8417345 C77.0344427,23.6200857 75.6290738,24.5311191 74.0657784,24.5311191 C72.623146,24.5311191 71.6205784,23.4242398 71.6205784,21.6826096 C71.6205784,18.881313 73.6257134,16.7060239 76.5127526,16.7060239 C77.2331817,16.7060239 78.0742736,16.8634001 78.9579526,17.2585893 C78.6775885,19.1156286 78.438037,20.6544183 78.196711,21.8417345 M87.6190705,11.9252842 C86.4958401,11.4898767 85.2537211,11.2940307 83.9707897,11.2940307 C82.6860838,11.2940307 81.5238154,11.4898767 80.400585,11.9252842 C78.9171401,11.2538123 77.4354696,10.9373113 75.8703998,10.9373113 C72.5432954,10.9373113 69.4149301,12.2417852 67.1294313,14.6129202 C64.8847449,16.9455855 63.681664,19.8675373 63.681664,22.9888322 C63.681664,27.6506655 66.5278908,30.6932723 70.497348,30.6932723 C73.4251999,30.6932723 75.5509977,29.2733891 77.5153201,26.3059731 C76.3920897,31.7214636 75.6290738,34.8812283 75.6290738,35.8289828 C75.6290738,38.0042718 76.6742281,38.9904961 78.998765,38.9904961 C80.5620605,38.9904961 82.2868313,38.6355253 84.1304907,37.887114 C83.8093143,36.9358622 83.6496132,35.8709498 83.6496132,34.6836337 C83.6496132,30.1809253 84.6504062,22.2386723 87.6190705,11.9252842 M60.1540462,10.8970929 C58.7504517,10.8970929 56.9476049,11.2538123 54.8235815,11.9637539 C55.1837959,12.8328204 55.3417224,13.7421052 55.3417224,14.8105148 C55.3417224,17.3774958 54.5006305,20.6963853 53.6187261,25.0032477 C53.3791745,26.1888152 53.1768866,27.1365698 53.1768866,27.8884784 C53.1768866,29.8644242 54.3018914,30.773709 56.6654664,30.773709 C58.0708353,30.773709 59.8754566,30.4169896 61.9977056,29.707048 C61.598453,28.7190751 61.4369776,27.6139443 61.4369776,26.3881585 C61.4369776,21.014635 63.6426259,16.6273358 63.6426259,13.7421052 C63.6426259,11.8063778 62.5193955,10.8970929 60.1540462,10.8970929 M60.7165486,8.17098712 C63.2007865,8.17098712 65.2467338,6.19504131 65.2467338,3.70674846 C65.2467338,1.65211453 63.8431394,0.349389183 61.6783036,0.349389183 C59.2721417,0.349389183 57.2261944,2.36380475 57.2261944,4.77340949 C57.2261944,6.8682618 58.5907507,8.17098712 60.7165486,8.17098712 M46.6043029,10.8970929 C43.6374131,10.8970929 41.3111017,12.2015669 39.6661813,13.9816668 C39.4674423,11.8465961 38.1028859,10.8970929 35.4163601,10.8970929 C34.2150536,10.8970929 32.8114592,11.0562177 31.2463894,11.4898767 C31.5285278,12.280255 31.6474163,13.1108517 31.6474163,14.0586062 C31.6474163,15.7565207 31.4877153,17.6555271 31.0476503,19.6699427 C30.1639714,23.898117 29.4027299,26.6224742 29.4027299,27.9671665 C29.4027299,29.8242059 30.5649984,30.773709 32.8114592,30.773709 C34.4936432,30.773709 36.339077,30.4169896 38.1827364,29.665081 C37.8633344,28.6788567 37.7036334,27.6139443 37.7036334,26.4633493 C37.7036334,24.6080586 38.1454728,21.526982 39.3059669,17.2988077 C40.1080208,16.7462423 40.9100747,16.4699596 41.5932402,16.4699596 C42.9152096,16.4699596 43.9177771,17.4561839 43.9177771,18.9582525 C43.9177771,22.3173603 42.4343321,25.477125 42.4343321,27.8884784 C42.4343321,29.8644242 43.5575625,30.773709 45.96195,30.773709 C47.4862073,30.773709 49.2908288,30.4169896 51.4148522,29.707048 C51.0546376,28.7190751 50.8541242,27.7695719 50.8541242,26.8218174 C50.8541242,22.831456 52.2577185,19.3534416 52.2577185,16.6273358 C52.2577185,13.072382 50.0911082,10.8970929 46.6043029,10.8970929 M25.6763731,2.83768202 C24.0314527,2.83768202 22.1877933,3.3115593 20.2216964,4.2208441 C20.9048619,5.52531807 21.0645629,6.98716824 21.0645629,8.72530116 C21.0645629,15.0465791 19.5811179,19.9462254 18.3780371,21.8032647 C17.3364316,23.4242398 15.8139487,24.2915575 13.9685148,24.2915575 C11.5641274,24.2915575 10.2403835,22.8699257 10.2403835,20.2207594 C10.2403835,18.9197827 10.5597855,17.1799012 11.0016249,14.9696397 C11.842717,10.975781 12.6039584,8.13251738 12.6039584,6.23525967 C12.6039584,3.86412468 11.321027,2.83768202 8.35413715,2.83768202 C6.6719532,2.83768202 4.78570685,3.23287119 2.659909,3.98303115 C2.90123497,4.93253433 3.02189795,5.88028887 3.02189795,6.82804345 C3.02189795,12.8328204 0.896100097,17.9300611 0.896100097,22.3173603 C0.896100097,27.9671665 4.86733181,31.3245258 12.2029314,31.3245258 C19.180091,31.3245258 23.9125642,28.6019173 26.59909,22.9888322 C27.720546,20.6176972 28.5634124,17.6555271 29.2838414,14.1390429 C29.8463439,11.3727188 30.0876698,9.19917844 30.0876698,7.61842176 C30.0876698,4.29953221 28.802964,2.83768202 25.6763731,2.83768202" id="Fill-13" fill="#000000" sketch:type="MSShapeGroup"></path>
                    <path d="M173.335925,17.1029617 C173.335925,17.7744336 174.015541,18.3252503 175.140546,19.2765021 C176.943393,20.8170404 178.148248,21.8819528 178.148248,24.0152748 C178.148248,26.2517657 176.85467,28.2871648 174.649022,29.6108736 C174.253318,29.4604919 173.822125,29.3450827 173.355444,29.264646 C172.255281,29.0757945 170.61391,29.166723 167.906091,29.3188534 C166.917719,29.3730607 165.767872,29.4360112 164.504459,29.4937158 C164.387344,29.1964496 164.312817,28.8642109 164.312817,28.4812621 C164.312817,27.4932892 164.793695,26.3881585 165.636562,25.0452148 C166.839643,25.8320959 168.081762,26.1888152 169.286617,26.1888152 C170.328222,26.1888152 170.88895,25.714938 170.88895,25.0032477 C170.88895,24.3317759 170.125934,23.7774619 168.924628,22.7125495 C167.240669,21.168514 166.078401,20.1455686 166.078401,18.1276557 C166.078401,16.3125834 167.32052,14.2159825 169.646831,12.7156625 C171.529529,11.4898767 173.696139,10.8586232 175.940825,10.8586232 C178.346987,10.8586232 179.590881,11.6892199 179.590881,13.3084463 C179.590881,14.3366375 179.108229,15.4417683 178.185512,16.7060239 C177.145681,16.1517099 176.141339,15.8387061 175.261209,15.8387061 C174.058128,15.8387061 173.335925,16.3912715 173.335925,17.1029617 M139.420754,25.9912207 C139.420754,27.2554763 139.537868,28.3238859 139.937121,29.2733891 C137.813098,30.2596134 136.049288,30.773709 134.606656,30.773709 C132.881885,30.773709 132.120643,30.1004886 132.120643,28.4410438 L132.120643,28.4305521 L132.152584,28.4952511 L133.678615,27.6104471 L131.031128,22.3890539 L134.75571,22.3890539 L126.763562,15.2179443 L127.301222,25.6624793 L129.558329,23.24588 L131.72494,27.6314306 C129.861761,30.051527 127.888567,31.1269312 125.063634,31.1269312 C121.133214,31.1269312 118.40765,28.1245428 118.40765,23.3822727 C118.40765,20.1455686 119.610731,17.0627434 121.814605,14.7300781 C124.100104,12.280255 127.230243,10.8970929 130.475723,10.8970929 C131.99998,10.8970929 133.442613,11.213594 134.927833,11.8868145 C136.049288,11.4111886 137.254144,11.2538123 138.616925,11.2538123 C139.899857,11.2538123 141.14375,11.4514069 142.263432,11.8868145 C140.260072,17.7324666 139.420754,22.5534247 139.420754,25.9912207 M97.5205332,14.2159825 C96.360039,19.906007 95.636061,23.9768051 95.636061,26.4633493 C95.636061,27.6139443 95.7975363,28.6788567 96.1169382,29.665081 C94.1916546,30.4169896 92.3479947,30.773709 90.6249987,30.773709 C88.2986871,30.773709 87.2553071,29.902894 87.2553071,27.8884784 C87.2553071,26.6626925 88.0555866,23.7774619 88.9410399,19.1156286 C89.9826454,13.7421052 90.6249987,9.71327407 90.6249987,6.90673153 C90.6249987,5.72116403 90.4635225,4.61603327 90.183159,3.58784199 C92.4278454,2.71877555 94.3921674,2.20467991 96.0779007,2.20467991 C98.2817748,2.20467991 99.4475916,3.15418308 99.4475916,4.81362785 C99.4475916,6.35416615 98.4822876,9.43524276 97.5205332,14.2159825 M109.789119,15.5624235 C111.031238,15.5624235 111.833293,16.272365 111.833293,17.4177141 C111.833293,18.5630633 110.91235,19.1156286 109.066916,19.1156286 C107.984498,19.1156286 107.060007,18.9984708 106.220689,18.8008762 C106.822229,16.7060239 108.144199,15.5624235 109.789119,15.5624235 M110.190146,22.831456 C115.964225,22.831456 118.851264,21.014635 118.851264,17.4177141 C118.851264,13.663417 115.522385,10.7799351 110.429698,10.7799351 C103.573201,10.7799351 98.2391877,15.7967391 98.2391877,22.3960484 C98.2391877,27.84826 102.050718,31.2475863 108.586039,31.2475863 C113.719539,31.2475863 116.645616,29.5077048 116.645616,27.0998487 C116.645616,26.1485969 116.164739,25.3582186 115.201209,24.4122127 C113.719539,25.6764682 111.792479,26.3479401 109.547793,26.3479401 C106.781417,26.3479401 105.297972,25.202591 105.297972,23.1479571 C105.297972,22.9101441 105.297972,22.6723312 105.338785,22.4362669 C106.742379,22.7125495 108.346486,22.831456 110.190146,22.831456 M155.614436,22.081296 C154.370542,23.8211775 152.966948,24.648277 151.88453,24.648277 C150.360273,24.648277 149.480143,23.6200857 149.480143,21.6826096 C149.480143,19.0771589 151.444465,16.9455855 153.889665,16.9455855 C154.77157,16.9455855 155.573624,17.1396828 156.455528,17.5366206 C156.175164,19.2345351 155.8948,20.7768221 155.614436,22.081296 M164.877095,12.7943507 C165.719961,8.96136549 166.522015,6.27547803 166.522015,4.73493974 C166.522015,3.11396472 165.398784,2.24489828 163.232174,2.24489828 C161.589029,2.24489828 159.624706,2.71877555 157.380019,3.58784199 C157.740234,4.5758149 157.857348,5.64247592 157.857348,6.78957365 C157.857348,7.93492279 157.702971,9.5541492 157.417283,11.6892199 C156.1379,11.2940307 154.933045,11.0964362 153.770777,11.0964362 C150.200572,11.0964362 146.994131,12.4778496 144.708632,14.9276727 C142.502983,17.2988077 141.340715,20.2627264 141.340715,23.4242398 C141.340715,25.020734 141.661892,26.4143878 142.233266,27.5684801 L143.368918,28.1227941 C144.467306,28.6578732 145.64377,29.0355761 146.868144,29.2436625 C148.312552,29.4937158 150.099428,29.6458461 152.452356,29.7035508 C153.509932,28.9324073 154.480559,27.8587518 155.412149,26.4266282 C155.21341,27.2956947 155.131784,27.9671665 155.131784,28.4410438 C155.131784,28.9673798 155.225831,29.3870497 155.390855,29.7297801 C157.243387,29.7227857 159.376282,29.67907 161.865843,29.5933874 C162.124914,29.5863929 162.364466,29.5776498 162.619987,29.5689067 C162.85244,29.4657378 163.074247,29.3853011 163.313799,29.2733891 C162.912772,28.3238859 162.792109,27.2554763 162.792109,25.9912207 C162.792109,23.4242398 163.471726,19.0386892 164.877095,12.7943507" id="Fill-14" fill="#DF4F2A" sketch:type="MSShapeGroup"></path>
                    <path d="M154.150511,41.8372571 C161.384966,41.520756 166.537985,41.4298275 169.597147,41.9579121 C171.007839,42.1992223 172.288996,42.6398757 173.435294,43.2693806 C174.748391,40.8999942 175.564641,38.5550886 175.912434,36.2923684 C176.387989,33.2392698 175.527377,31.6864911 173.046688,31.258078 C171.54195,31.0010302 167.831564,31.4416837 161.917303,31.6147975 C155.098069,31.8438673 150.010705,31.8351242 146.559389,31.2405918 C145.100786,30.9887899 143.773493,30.5428906 142.566863,29.9571014 C141.039058,32.7216768 140.011647,35.1889862 139.667404,37.4044936 C139.22024,40.2949701 140.153604,42.0243599 142.192453,42.377582 C144.087573,42.7010776 148.073,42.0925562 154.150511,41.8372571" id="Fill-15" fill="#000000" sketch:type="MSShapeGroup"></path>
                    <path d="M148.349815,38.8173823 C148.349815,39.0254686 148.266415,39.2003311 148.101391,39.3437183 C147.939916,39.4888542 147.735853,39.5605478 147.496302,39.5605478 C147.279818,39.5605478 147.100598,39.4958486 146.960416,39.3647018 C146.820234,39.233555 146.75103,39.0604412 146.75103,38.8506062 C146.75103,38.623285 146.827332,38.4379308 146.985259,38.2980408 C147.137862,38.1546536 147.341924,38.08296 147.592122,38.08296 C147.828125,38.08296 148.012668,38.1511563 148.145753,38.2788059 C148.278837,38.4099528 148.349815,38.5883125 148.349815,38.8173823" id="Fill-16" fill="#FFFFFF" sketch:type="MSShapeGroup"></path>
                    <path d="M153.201176,34.9074577 L152.762886,34.7116117 C152.622704,34.673142 152.463003,34.6521584 152.290881,34.6521584 C151.707085,34.6521584 151.21911,34.8584961 150.830504,35.2711716 C150.443672,35.6855956 150.252031,36.2066857 150.252031,36.8396879 C150.252031,37.4097395 150.422379,37.8643819 150.766623,38.2001178 C151.110868,38.5358537 151.575775,38.7019731 152.16312,38.7019731 C152.416868,38.7019731 152.647547,38.6687492 152.856932,38.6023015 C153.064544,38.5323565 153.257959,38.4256904 153.438953,38.2805545 L153.59688,38.5550886 L153.651888,38.8051419 C153.651888,39.0447035 153.511706,39.233555 153.231342,39.3716963 C152.949204,39.5133349 152.571245,39.5850285 152.088593,39.5850285 C151.245726,39.5850285 150.564335,39.3454669 150.037322,38.8698411 C149.510309,38.3959638 149.245915,37.7769507 149.245915,37.0145503 C149.245915,36.0912765 149.565316,35.3166358 150.202346,34.6871309 C150.84115,34.0576261 151.614813,33.7428736 152.526883,33.7428736 C152.862255,33.7428736 153.110679,33.7900865 153.273929,33.8845123 C153.43718,33.9789379 153.517029,34.1240738 153.517029,34.3146739 L153.444277,34.6049456 L153.201176,34.9074577" id="Fill-17" fill="#FFFFFF" sketch:type="MSShapeGroup"></path>
                    <path d="M156.868977,38.8173823 C157.49181,38.8173823 158.001079,38.6127932 158.400331,38.2001178 C158.79781,37.789191 158.996549,37.262855 158.996549,36.6176125 C158.996549,35.9898563 158.801359,35.4775093 158.409203,35.0805715 C158.018824,34.6853823 157.516653,34.4877877 156.892045,34.4877877 C156.258563,34.4877877 155.745746,34.6923769 155.355366,35.1050522 C154.964985,35.515979 154.769795,36.0598013 154.769795,36.736519 C154.769795,37.3397945 154.968534,37.8364039 155.364238,38.2280958 C155.759942,38.6197878 156.262112,38.8173823 156.868977,38.8173823 L156.868977,38.8173823 L156.868977,38.8173823 Z M156.799772,39.6357387 C155.907221,39.6357387 155.181469,39.3629532 154.618967,38.8226282 C154.058239,38.2788059 153.779649,37.5863506 153.779649,36.736519 C153.779649,35.8359773 154.077757,35.1050522 154.677523,34.5419951 C155.279064,33.9789379 156.056276,33.6974094 157.014481,33.6974094 C157.878642,33.6974094 158.588424,33.964949 159.147377,34.4982795 C159.704556,35.0333586 159.988469,35.7083278 159.988469,36.5266841 C159.988469,36.8571741 159.935235,37.1806697 159.828768,37.5041652 C159.724075,37.8241635 159.57857,38.1004462 159.39935,38.3277674 C159.05688,38.763175 158.670049,39.0901677 158.237082,39.3069972 C157.805889,39.5238266 157.326786,39.6357387 156.799772,39.6357387 L156.799772,39.6357387 L156.799772,39.6357387 Z" id="Fill-18" fill="#FFFFFF" sketch:type="MSShapeGroup"></path>
                    <path d="M160.627273,33.8635287 L160.88102,33.797081 L161.136542,33.7778462 C161.344154,33.7778462 161.505629,33.8303049 161.622743,33.9404682 C161.738083,34.0453857 161.807287,34.2027619 161.819708,34.407351 C162.124914,34.2027619 162.421248,34.0506316 162.712259,33.9527086 C163.001495,33.8565343 163.290731,33.8058241 163.578193,33.8058241 C163.860332,33.8058241 164.124725,33.8617801 164.371375,33.9684462 C164.619798,34.0768609 164.850477,34.239483 165.066962,34.4545638 C165.370393,34.239483 165.695118,34.0698664 166.037589,33.9474628 C166.381833,33.8268076 166.711882,33.7656058 167.02596,33.7656058 C167.714449,33.7656058 168.241462,33.9632004 168.61055,34.3566409 C168.976087,34.75183 169.16063,35.3166358 169.16063,36.0493096 C169.16063,36.154227 169.153533,36.3658106 169.141111,36.6788144 C169.130465,36.9935668 169.125142,37.2576091 169.125142,37.4709414 C169.125142,37.9588076 169.14821,38.3330133 169.194345,38.5970556 C169.240481,38.8610979 169.315008,39.0744301 169.417927,39.2370522 C169.22806,39.3297293 169.066584,39.3944284 168.937049,39.4328982 L168.594579,39.4923514 C168.413585,39.4923514 168.289373,39.4486358 168.221944,39.3577073 C168.156289,39.2702761 168.122574,39.0971623 168.122574,38.8383658 C168.122574,38.6057987 168.134995,38.2280958 168.166935,37.7087543 C168.193553,37.1894128 168.207748,36.792475 168.207748,36.5144437 C168.207748,35.8342287 168.103055,35.339368 167.893669,35.0386045 C167.684283,34.7378411 167.347137,34.5857107 166.882229,34.5857107 C166.628482,34.5857107 166.383608,34.6206832 166.14583,34.6941255 C165.909828,34.7675677 165.657855,34.89172 165.382815,35.0613366 C165.423627,35.292155 165.450244,35.5334652 165.467988,35.7852672 C165.485733,36.0370691 165.492831,36.3902914 165.492831,36.8396879 L165.492831,37.4359689 C165.492831,37.9588076 165.51235,38.3487509 165.551387,38.6040501 C165.588651,38.8593493 165.657855,39.0744301 165.751901,39.2492926 C165.583327,39.3367238 165.432499,39.3979257 165.304739,39.4363955 L164.923231,39.4923514 C164.749334,39.4923514 164.628671,39.4451386 164.563016,39.3489642 C164.495587,39.2545384 164.461872,39.0814246 164.461872,38.8296227 C164.461872,38.6897327 164.470744,38.3837234 164.492038,37.9046002 C164.513331,37.4272257 164.522203,37.0145503 164.522203,36.6753171 C164.522203,35.8726984 164.43348,35.3271275 164.250712,35.0386045 C164.067943,34.75183 163.753864,34.6066942 163.308476,34.6066942 C163.072473,34.6066942 162.834696,34.6521584 162.595145,34.7413383 C162.353819,34.8287696 162.101846,34.9634137 161.84455,35.1400247 C161.837452,35.4565258 161.825031,35.8552122 161.81261,36.3500729 C161.798414,36.8396879 161.791316,37.1421999 161.791316,37.2611064 C161.791316,37.7629616 161.814384,38.1703912 161.862295,38.4781491 C161.90843,38.7876557 161.979409,39.0447035 162.080553,39.2492926 C161.919077,39.3332266 161.770023,39.3944284 161.635164,39.4328982 L161.23946,39.4923514 C161.060241,39.4923514 160.941352,39.4433899 160.875698,39.3437183 C160.810043,39.247544 160.776328,39.0394576 160.776328,38.7264539 C160.776328,38.6337767 160.799396,38.2578224 160.845531,37.5968423 C160.888118,36.9376108 160.909412,36.3203464 160.909412,35.7485461 C160.909412,35.2974009 160.886344,34.919698 160.841983,34.6171859 C160.795847,34.3146739 160.723094,34.0646206 160.627273,33.8635287" id="Fill-19" fill="#FFFFFF" sketch:type="MSShapeGroup"></path>
                    <g id="Group-23" transform="translate(0.000000, 15.412042)">
                        <g id="mask-2" transform="translate(0.900000, 0.666751)" fill="#FFFFFF" sketch:type="MSShapeGroup">
                            <path d="M78.0969906,22.1073361 C76.2125187,22.1073361 75.5453234,21.4918202 75.5453234,19.7501901 C75.5453234,19.1678981 75.9534482,17.2653946 76.5177251,14.6319659 C76.7767955,13.4166717 77.0802275,12.003783 77.4138252,10.3880539 L75.9339292,9.79002427 C74.0636529,12.6088071 72.1667598,13.8118609 69.597348,13.8118609 C66.0076243,13.8118609 63.5961391,11.0367936 63.5961391,6.90829089 C63.5961391,6.60752745 63.6156581,6.31200987 63.638726,6.01824091 C65.7059668,5.89933446 67.7962756,5.7454555 69.9078778,5.55485542 L69.9025544,5.6038169 C69.9025544,7.75637383 71.2475918,9.25494512 73.1675528,9.25494512 C74.4522587,9.25494512 76.3260838,8.72336321 77.9798765,6.19834929 L78.0650504,6.07069968 L78.0952162,5.92031796 C78.1750666,5.52338017 78.2584661,5.07223502 78.3418655,4.59660912 C80.1748781,4.34305855 82.0185376,4.05978136 83.8746181,3.7432803 C82.1658173,11.547392 81.9333636,16.5274749 81.9333636,18.604841 C81.9333636,19.5753277 82.0380566,20.4881097 82.2438934,21.3239522 C80.7852909,21.8432938 79.3958921,22.1073361 78.0969906,22.1073361 L78.0969906,22.1073361 L78.0969906,22.1073361 Z M11.3029314,14.444863 C4.53693208,14.444863 0.812349693,11.5281571 0.812349693,6.23856764 C0.812349693,4.41999803 1.2080533,2.40733109 1.6481183,0.284500793 C3.65325317,0.77761294 6.02924927,1.32318382 8.73174519,1.87924645 C8.60398443,2.72383214 8.52590835,3.48448386 8.52590835,4.14196671 C8.52590835,7.24052958 10.1814755,9.01538355 13.0685148,9.01538355 C15.2014105,9.01538355 16.9634449,8.02741065 18.1683003,6.15638232 C18.5391616,5.57933616 18.9188951,4.76797433 19.2755606,3.7712583 C21.3339291,4.08950798 23.4952161,4.39376866 25.7487748,4.67179998 C25.4968021,5.35376358 25.2341826,5.98676569 24.959142,6.57080634 C22.4252194,11.8673903 17.9571401,14.444863 11.3029314,14.444863 L11.3029314,14.444863 L11.3029314,14.444863 Z M55.7654664,13.890549 C53.5473968,13.890549 53.0931361,13.0599523 53.0931361,11.8114344 C53.0931361,11.1784322 53.2634839,10.3355951 53.478193,9.27418002 L53.5190055,9.08357991 C53.6911277,8.23724559 53.8632499,7.42413514 54.0300487,6.65124304 L54.0974781,6.33124477 C56.0742216,6.31550711 58.0793566,6.26829427 60.1093337,6.18960618 C59.8839779,7.48533701 59.7225024,8.86150455 59.7225024,10.3076171 C59.7225024,11.3585405 59.8342931,12.2835629 60.0649724,13.112411 C58.3845628,13.6230094 56.9064414,13.890549 55.7654664,13.890549 L55.7654664,13.890549 L55.7654664,13.890549 Z M45.0601755,13.890549 C42.8101657,13.890549 42.3488073,13.0599523 42.3488073,11.8114344 C42.3488073,10.8007293 42.6557881,9.56620029 42.9769646,8.26347497 C43.1402145,7.59550035 43.3105622,6.88381013 43.4578421,6.15113639 C45.4683003,6.23681902 47.5177965,6.29452366 49.6045564,6.32425022 C49.3490348,7.70041782 49.1378746,9.17800565 49.1378746,10.7430247 C49.1378746,11.5019277 49.2549886,12.2835629 49.4927657,13.1089138 C47.7679948,13.6352498 46.3111667,13.890549 45.0601755,13.890549 L45.0601755,13.890549 L45.0601755,13.890549 Z M31.9096848,13.890549 C29.6117647,13.890549 29.3189795,12.8238879 29.3189795,11.8883738 C29.3189795,11.0700175 29.6649984,9.53297642 30.1441014,7.41189479 C30.2931557,6.74566879 30.4581801,6.01299505 30.6303023,5.22786261 C32.537842,5.42021132 34.5021645,5.59507378 36.5143972,5.74195825 C36.1737016,7.56227648 35.9873838,9.15177627 35.9873838,10.3845566 C35.9873838,11.3340598 36.0920767,12.2433446 36.299688,13.1001707 C34.8286643,13.6195122 33.3257004,13.890549 31.9096848,13.890549 L31.9096848,13.890549 L31.9096848,13.890549 Z" id="path-1"></path>
                        </g>
                        <g id="Clip-21"></g>
                        <g id="Fill-20-Clipped" transform="translate(0.900000, 0.666751)">
                            <mask id="mask-2" sketch:name="path-1" fill="white">
                                <use xlink:href="#path-1"></use>
                            </mask>
                            <g id="path-1"></g>
                            <path d="M0.812349693,0.284500793 L83.8746181,0.284500793 L83.8746181,22.1073361 L0.812349693,22.1073361 L0.812349693,0.284500793 L0.812349693,0.284500793 Z" id="Fill-20" fill="#030100" sketch:type="MSShapeGroup" mask="url(#mask-2)"></path>
                        </g>
                        <g id="Fill-22-Clipped" transform="translate(0.900000, 0.666751)">
                            <mask id="mask-4" sketch:name="path-1" fill="white">
                                <use xlink:href="#path-3"></use>
                            </mask>
                            <g id="path-1"></g>
                            <path d="M0.812349693,0.284500793 L83.8746181,0.284500793 L83.8746181,22.1073361 L0.812349693,22.1073361 L0.812349693,0.284500793 L0.812349693,0.284500793 Z" id="Fill-22" fill="#030100" sketch:type="MSShapeGroup" mask="url(#mask-4)"></path>
                        </g>
                    </g>
                    <path d="M108.586039,30.443219 C102.620318,30.443219 99.0554373,27.433836 99.0554373,22.3960484 C99.0554373,20.5774789 99.4884039,18.8987992 100.254969,17.4247087 C102.23881,17.2043819 104.220878,17.0155305 106.197621,16.8616515 C105.881768,17.3600096 105.622698,17.9300611 105.43638,18.5805495 L105.207475,19.3849168 L106.030823,19.5807628 C106.994352,19.808084 107.986272,19.9217446 109.068691,19.9217446 C112.184635,19.9217446 112.649542,18.3532283 112.649542,17.4177141 C112.649542,17.0767323 112.585661,16.7654772 112.486292,16.4769541 C114.305109,16.3930201 116.115053,16.3335669 117.914351,16.2985944 C117.990653,16.6588111 118.036789,17.0295195 118.036789,17.4177141 C118.036789,18.5578174 118.036789,22.0288373 110.190146,22.0288373 C108.326968,22.0288373 106.793838,21.9046849 105.498485,21.6476371 L104.676913,21.4867636 L104.534956,22.3016228 C104.483497,22.6041348 104.483497,22.8926578 104.483497,23.1479571 C104.483497,25.6904573 106.32893,27.1505588 109.547793,27.1505588 C111.668268,27.1505588 113.575808,26.5822558 115.114261,25.4998572 C115.616432,26.0908923 115.83114,26.5822558 115.83114,27.0998487 C115.83114,29.0985266 112.919259,30.443219 108.586039,30.443219" id="Fill-24" fill="#DB5F3F" sketch:type="MSShapeGroup"></path>
                    <path id="Fill-25" fill="#DB5F3F" sketch:type="MSShapeGroup" d="M127.301222,25.6624793 L126.820345,16.3108348 L127.301222,25.6624793"></path>
                    <path d="M125.063634,30.3243125 C121.512947,30.3243125 119.222125,27.5999553 119.222125,23.3840214 C119.222125,20.7698275 120.057894,18.2867806 121.587475,16.2601246 L121.963659,16.2601246 C123.596158,16.2601246 125.212688,16.2793595 126.820345,16.3108348 L127.301222,25.6624793 L129.558329,23.24588 L131.320364,26.8148229 C129.499772,29.3188534 127.707573,30.3243125 125.063634,30.3243125" id="Fill-26" fill="#DB5F3F" sketch:type="MSShapeGroup"></path>
                    <path id="Fill-27" fill="#DB5F3F" sketch:type="MSShapeGroup" d="M132.965284,28.0231225 L132.967058,28.0231225 L133.678615,27.6104471 L132.965284,28.0231225"></path>
                    <path id="Fill-29" fill="#DB5F3F" sketch:type="MSShapeGroup" d="M149.270757,29.5409286 C148.369334,29.4657378 147.577927,29.3660662 146.868144,29.2436625 C147.577927,29.3660662 148.369334,29.4657378 149.270757,29.5409286"></path>
                    <path d="M156.398746,29.7227857 C156.043854,29.4709837 155.949808,29.0495652 155.949808,28.4410438 C155.949808,28.1210454 155.992396,27.5405021 156.210653,26.6032393 L154.730758,25.9912207 C153.545421,27.8045444 152.352986,28.9866147 151.009724,29.6528407 C150.38689,29.623114 149.810192,29.5863929 149.270757,29.5409286 C148.369333,29.4657378 147.577927,29.3660662 146.868144,29.2436625 C145.721846,29.0478165 144.618134,28.6998403 143.581853,28.2172198 C142.671557,27.0281551 142.15519,25.3949397 142.15519,23.4242398 C142.15519,21.196492 142.763828,19.099891 143.929646,17.2585893 C146.030602,17.4474408 148.090744,17.6555271 150.097654,17.8810997 C149.212201,18.8743184 148.665667,20.2102677 148.665667,21.6826096 C148.665667,24.0432529 149.866974,25.4526443 151.886305,25.4526443 C153.355554,25.4526443 154.959662,24.3929778 156.279857,22.5446816 L156.377452,22.4100375 L156.411167,22.2474154 C156.624101,21.2681856 156.842359,20.1105961 157.078362,18.755412 C159.012518,19.021203 160.88102,19.3009829 162.680318,19.5860087 C162.217185,22.3068686 161.974085,24.46642 161.974085,25.9912207 C161.974085,27.1418157 162.077004,28.0545977 162.304134,28.8449761 C161.503854,29.1929524 160.744387,29.4552461 160.029282,29.6493434 C158.716184,29.6860645 157.509554,29.7105452 156.398746,29.7227857" id="Fill-30" fill="#DB5F3F" sketch:type="MSShapeGroup"></path>
                    <path id="Fill-31" fill="#DB5F3F" sketch:type="MSShapeGroup"></path>
                    <path d="M165.363295,29.4534975 C165.130842,29.1160129 165.127293,28.7505503 165.127293,28.4795135 C165.127293,27.8674949 165.38104,27.117335 165.925798,26.1468483 C167.001118,26.7099054 168.129671,26.9931826 169.286617,26.9931826 C170.954605,26.9931826 171.705199,25.994718 171.705199,25.0049964 C171.705199,24.065985 170.970575,23.4242398 169.948489,22.5341898 L169.47116,22.1145199 L169.389535,22.039329 C168.718791,21.4273104 168.182905,20.9289524 167.776555,20.4375889 C171.135599,21.0338699 174.185889,21.6353968 176.85467,22.1984539 C177.170523,22.7300357 177.333773,23.2930929 177.333773,24.0152748 C177.333773,26.269252 175.857426,28.1787501 173.527565,29.2961212 C173.470783,29.2856295 173.412226,29.2751378 173.355444,29.264646 C173.339473,29.2611487 173.323503,29.2594001 173.307533,29.2559029 C172.878115,29.1877065 172.367072,29.1579799 171.746013,29.1579799 L171.744238,29.1579799 L171.731817,29.1579799 C170.938635,29.1597285 169.962684,29.2051927 168.745408,29.2716405 L168.743633,29.2716405 C168.711693,29.2733891 168.679753,29.2751378 168.649587,29.2768864 C168.621196,29.278635 168.594579,29.2803836 168.566188,29.2821322 C168.532474,29.2838809 168.498759,29.2856295 168.465044,29.2873781 C168.456172,29.2873781 168.445525,29.2891267 168.436652,29.2891267 C168.411811,29.2908754 168.385193,29.292624 168.360351,29.2943726 C168.312441,29.2961212 168.26453,29.2996185 168.21662,29.3013671 C168.13677,29.3066129 168.05337,29.3101103 167.971745,29.3153561 C167.948677,29.3171047 167.927384,29.3171047 167.906091,29.3188534 C167.363107,29.34858 166.772213,29.3818039 166.140507,29.4132791 C165.888535,29.4272681 165.629464,29.4395084 165.363295,29.4534975" id="Fill-32" fill="#DB5F3F" sketch:type="MSShapeGroup"></path>
                </g>
            </g>
        </g>
    </g>
</svg>