<?xml version="1.0" encoding="UTF-8" standalone="no"?>
<svg width="113px" height="25px" viewBox="0 0 113 25" version="1.1" xmlns="http://www.w3.org/2000/svg" xmlns:xlink="http://www.w3.org/1999/xlink" xmlns:sketch="http://www.bohemiancoding.com/sketch/ns">
    <!-- Generator: Sketch 3.3.3 (12081) - http://www.bohemiancoding.com/sketch -->
    <title>ul-logo-svg</title>
    <desc></desc>
    <defs>
        <path d="M49.3200686,12.617 C48.1435392,12.617 47.7269902,12.276 47.7269902,11.311125 C47.7269902,10.9885313 47.9817941,9.93453125 48.3340882,8.47559375 C48.4958333,7.8023125 48.6852745,7.0195625 48.893549,6.1244375 L47.9696078,5.793125 C46.8019412,7.35475 45.6176569,8.02125 44.0135,8.02125 C41.7723333,8.02125 40.2667745,6.48384375 40.2667745,4.196625 C40.2667745,4.03 40.2789608,3.86628125 40.2933627,3.70353125 C41.584,3.63765625 42.8890392,3.55240625 44.2073725,3.4468125 L44.204049,3.4739375 C44.204049,4.66646875 45.0437941,5.4966875 46.2424804,5.4966875 C47.0445588,5.4966875 48.2144412,5.2021875 49.246951,3.8033125 L49.3001275,3.73259375 L49.3189608,3.64928125 C49.3688137,3.429375 49.4208824,3.1794375 49.472951,2.9159375 C50.6173529,2.77546875 51.768402,2.61853125 52.9272059,2.4431875 C51.8603529,6.76671875 51.7152255,9.52571875 51.7152255,10.6765937 C51.7152255,11.21425 51.7805882,11.7199375 51.909098,12.183 C50.998451,12.4707188 50.1310098,12.617 49.3200686,12.617 L49.3200686,12.617 Z M7.61863725,8.3719375 C3.39443137,8.3719375 1.06906863,6.7560625 1.06906863,3.82559375 C1.06906863,2.81809375 1.31611765,1.7030625 1.59086275,0.527 C2.84272549,0.8001875 4.32612745,1.1024375 6.01337255,1.4105 C5.93360784,1.87840625 5.88486275,2.2998125 5.88486275,2.6640625 C5.88486275,4.3806875 6.91848039,5.36396875 8.72094118,5.36396875 C10.0525686,5.36396875 11.1526569,4.816625 11.9048824,3.7800625 C12.1364216,3.460375 12.3735,3.010875 12.5961765,2.4586875 C13.8812745,2.635 15.2306275,2.8035625 16.6375882,2.95759375 C16.4802745,3.33540625 16.3163137,3.68609375 16.144598,4.00965625 C14.562598,6.944 11.773049,8.3719375 7.61863725,8.3719375 L7.61863725,8.3719375 Z M35.3778627,8.06484375 C33.9930588,8.06484375 33.709451,7.6046875 33.709451,6.913 C33.709451,6.5623125 33.8158039,6.095375 33.9498529,5.50734375 L33.9753333,5.40175 C34.0827941,4.932875 34.1902549,4.48240625 34.2943922,4.05421875 L34.3364902,3.8769375 C35.5706275,3.86821875 36.8224902,3.8420625 38.0898627,3.79846875 C37.9491667,4.5163125 37.8483529,5.27871875 37.8483529,6.079875 C37.8483529,6.66209375 37.9181471,7.1745625 38.0621667,7.63375 C37.0130392,7.916625 36.0902059,8.06484375 35.3778627,8.06484375 L35.3778627,8.06484375 Z M28.6942451,8.06484375 C27.2895,8.06484375 27.0014608,7.6046875 27.0014608,6.913 C27.0014608,6.3530625 27.1931176,5.669125 27.3936373,4.94740625 C27.4955588,4.57734375 27.6019118,4.1830625 27.6938627,3.77715625 C28.949049,3.824625 30.2286078,3.85659375 31.5314314,3.8730625 C31.371902,4.63546875 31.2400686,5.4540625 31.2400686,6.32109375 C31.2400686,6.74153125 31.3131863,7.1745625 31.4616373,7.6318125 C30.3848137,7.92340625 29.4752745,8.06484375 28.6942451,8.06484375 L28.6942451,8.06484375 Z M20.4840196,8.06484375 C19.0493627,8.06484375 18.8665686,7.47390625 18.8665686,6.955625 C18.8665686,6.50225 19.082598,5.65071875 19.3817157,4.475625 C19.4747745,4.10653125 19.5778039,3.700625 19.6852647,3.26565625 C20.8761961,3.37221875 22.1025784,3.46909375 23.3588725,3.55046875 C23.1461667,4.5589375 23.0298431,5.43953125 23.0298431,6.1225 C23.0298431,6.64853125 23.0952059,7.15228125 23.2248235,7.62696875 C22.3064216,7.9146875 21.3680784,8.06484375 20.4840196,8.06484375 L20.4840196,8.06484375 Z" id="path-1"></path>
    </defs>
    <g id="Page-1" stroke="none" stroke-width="1" fill="none" fill-rule="evenodd" sketch:type="MSPage">
        <g id="Uniqleads_Georgy-business-card-front-final-(updated)_with-bleedmark" sketch:type="MSLayerGroup">
            <path d="M48.8204314,12.8433437 C48.0947941,13.8285625 47.2173824,14.3332813 46.2413725,14.3332813 C45.3406961,14.3332813 44.7147647,13.7200625 44.7147647,12.7551875 C44.7147647,11.20325 45.9666275,9.998125 47.7690882,9.998125 C48.2188725,9.998125 48.7439902,10.0853125 49.2956961,10.30425 C49.1206569,11.3330625 48.971098,12.1855625 48.8204314,12.8433437 M54.7030784,7.3495625 C54.0018137,7.10834375 53.2263235,6.99984375 52.4253529,6.99984375 C51.6232745,6.99984375 50.8976373,7.10834375 50.1963725,7.3495625 C49.2702157,6.9775625 48.3451667,6.80221875 47.368049,6.80221875 C45.2908431,6.80221875 43.3377157,7.52490625 41.9108137,8.83853125 C40.5093922,10.1308437 39.7582745,11.749625 39.7582745,13.4788437 C39.7582745,16.0615312 41.5352549,17.7471563 44.0135,17.7471563 C45.8414412,17.7471563 47.1686373,16.9605312 48.3950196,15.3165625 C47.6937549,18.3167812 47.2173824,20.0673125 47.2173824,20.592375 C47.2173824,21.7975 47.869902,22.343875 49.3211765,22.343875 C50.2971863,22.343875 51.3740098,22.1472187 52.5250588,21.7325937 C52.3245392,21.2055937 52.2248333,20.615625 52.2248333,19.9578438 C52.2248333,17.4633125 52.8496569,13.06325 54.7030784,7.3495625 M37.5558824,6.7799375 C36.6795784,6.7799375 35.5540098,6.9775625 34.2279216,7.370875 C34.4528137,7.85234375 34.5514118,8.35609375 34.5514118,8.948 C34.5514118,10.370125 34.0262941,12.2088125 33.4756961,14.5948437 C33.3261373,15.2516562 33.1998431,15.7767188 33.1998431,16.1932813 C33.1998431,17.2879688 33.9022157,17.7917187 35.3778627,17.7917187 C36.2552745,17.7917187 37.381951,17.5940938 38.7069314,17.2007812 C38.4576667,16.6534375 38.3568529,16.0411875 38.3568529,15.3620937 C38.3568529,12.385125 39.733902,9.95453125 39.733902,8.35609375 C39.733902,7.2836875 39.0326373,6.7799375 37.5558824,6.7799375 M37.9070686,5.26965625 C39.458049,5.26965625 40.7353922,4.17496875 40.7353922,2.7964375 C40.7353922,1.65815625 39.8590882,0.9364375 38.5075196,0.9364375 C37.0052843,0.9364375 35.7279412,2.0524375 35.7279412,3.387375 C35.7279412,4.5479375 36.5798725,5.26965625 37.9070686,5.26965625 M29.0963922,6.7799375 C27.2440784,6.7799375 25.7916961,7.502625 24.7647255,8.4888125 C24.6406471,7.30596875 23.7887157,6.7799375 22.1114412,6.7799375 C21.3614314,6.7799375 20.4851275,6.86809375 19.5080098,7.10834375 C19.6841569,7.54621875 19.7583824,8.006375 19.7583824,8.5314375 C19.7583824,9.47209375 19.6586765,10.5241563 19.3839314,11.6401563 C18.8322255,13.9825937 18.3569608,15.4919062 18.3569608,16.236875 C18.3569608,17.2656875 19.082598,17.7917187 20.4851275,17.7917187 C21.5353627,17.7917187 22.6875196,17.5940938 23.8385686,17.1775312 C23.6391569,16.6311563 23.539451,16.0411875 23.539451,15.40375 C23.539451,14.3759062 23.8153039,12.6689688 24.5398333,10.3265312 C25.0405784,10.0204063 25.5413235,9.86734375 25.9678431,9.86734375 C26.7931863,9.86734375 27.4191176,10.4137187 27.4191176,11.245875 C27.4191176,13.1068437 26.4929608,14.857375 26.4929608,16.1932813 C26.4929608,17.2879688 27.1942255,17.7917187 28.6953529,17.7917187 C29.6469902,17.7917187 30.7736667,17.5940938 32.0997549,17.2007812 C31.8748627,16.6534375 31.7496765,16.1274062 31.7496765,15.6023437 C31.7496765,13.3916562 32.6259804,11.4648125 32.6259804,9.95453125 C32.6259804,7.9850625 31.2733039,6.7799375 29.0963922,6.7799375 M16.0304902,2.31496875 C15.0035196,2.31496875 13.8524706,2.5775 12.6249804,3.08125 C13.0515,3.8039375 13.1512059,4.6138125 13.1512059,5.57675 C13.1512059,9.07878125 12.225049,11.7932188 11.4739314,12.8220313 C10.8236275,13.7200625 9.87309804,14.2005625 8.72094118,14.2005625 C7.21981373,14.2005625 6.39336275,13.4129688 6.39336275,11.9453125 C6.39336275,11.2245625 6.59277451,10.2606562 6.86862745,9.03615625 C7.3937451,6.82353125 7.8690098,5.24834375 7.8690098,4.19725 C7.8690098,2.883625 7.06803922,2.31496875 5.21572549,2.31496875 C4.1654902,2.31496875 2.98785294,2.53390625 1.66065686,2.9495 C1.81132353,3.47553125 1.88665686,4.00059375 1.88665686,4.52565625 C1.88665686,7.85234375 0.559460784,10.67625 0.559460784,13.1068437 C0.559460784,16.236875 3.03881373,18.096875 7.61863725,18.096875 C11.9746765,18.096875 14.9292941,16.5885312 16.6065686,13.4788437 C17.3067255,12.1652188 17.832951,10.5241563 18.2827353,8.576 C18.6339216,7.0434375 18.7845882,5.83928125 18.7845882,4.96353125 C18.7845882,3.12484375 17.9825098,2.31496875 16.0304902,2.31496875" id="Fill-13" fill="#000000" sketch:type="MSShapeGroup"></path>
            <path d="M108.218549,10.2180312 C108.218549,10.5900312 108.642853,10.8951875 109.345225,11.4221875 C110.470794,12.2756562 111.22302,12.865625 111.22302,14.0475 C111.22302,15.2865312 110.415402,16.4141562 109.038353,17.1475 C108.791304,17.0641875 108.522098,17.00025 108.230735,16.9556875 C107.543873,16.8510625 106.519118,16.9014375 104.828549,16.9857187 C104.21148,17.01575 103.493598,17.050625 102.704814,17.0825937 C102.631696,16.9179062 102.585167,16.7338437 102.585167,16.5216875 C102.585167,15.9743437 102.885392,15.3620937 103.411618,14.6180937 C104.162735,15.0540312 104.938225,15.2516562 105.690451,15.2516562 C106.340755,15.2516562 106.690833,14.989125 106.690833,14.5948437 C106.690833,14.2228437 106.214461,13.91575 105.464451,13.3257812 C104.413108,12.470375 103.687471,11.9036562 103.687471,10.7857187 C103.687471,9.78015625 104.462961,8.618625 105.915343,7.7874375 C107.090765,7.10834375 108.443441,6.758625 109.844863,6.758625 C111.347098,6.758625 112.123696,7.21878125 112.123696,8.11584375 C112.123696,8.68546875 111.822363,9.29771875 111.246284,9.998125 C110.597088,9.69103125 109.970049,9.517625 109.420559,9.517625 C108.669441,9.517625 108.218549,9.82375 108.218549,10.2180312 M87.0443431,15.1421875 C87.0443431,15.8425937 87.1174608,16.4345 87.3667255,16.9605312 C86.0406373,17.5069062 84.9394412,17.7917187 84.0387647,17.7917187 C82.9619412,17.7917187 82.4866765,17.41875 82.4866765,16.4994062 L82.4866765,16.4935937 L82.5066176,16.5294375 L83.4593627,16.03925 L81.8064608,13.1465625 L84.1318235,13.1465625 L79.142098,9.17371875 L79.4777745,14.9600625 L80.886951,13.62125 L82.2396275,16.050875 C81.0763922,17.391625 79.8444706,17.9874062 78.0807843,17.9874062 C75.6269118,17.9874062 73.9252647,16.3240625 73.9252647,13.6968125 C73.9252647,11.9036562 74.6763824,10.19575 76.0523235,8.9034375 C77.4792255,7.54621875 79.4334608,6.7799375 81.4597059,6.7799375 C82.4113431,6.7799375 83.3120196,6.95528125 84.2392843,7.32825 C84.9394412,7.06475 85.6916667,6.9775625 86.5424902,6.9775625 C87.3434608,6.9775625 88.1200588,7.08703125 88.8191078,7.32825 C87.5683529,10.5667812 87.0443431,13.237625 87.0443431,15.1421875 M60.8848431,8.618625 C60.1603137,11.7709375 59.7083137,14.0261875 59.7083137,15.40375 C59.7083137,16.0411875 59.8091275,16.6311562 60.0085392,17.1775312 C58.8065294,17.5940937 57.6554804,17.7917187 56.5797647,17.7917187 C55.1273824,17.7917187 54.4759706,17.3092812 54.4759706,16.1932812 C54.4759706,15.5141875 54.9756078,13.91575 55.5284216,11.3330625 C56.1787255,8.35609375 56.5797647,6.12409375 56.5797647,4.56925 C56.5797647,3.9124375 56.478951,3.3001875 56.3039118,2.7305625 C57.7053333,2.24909375 58.9317157,1.96428125 59.9841667,1.96428125 C61.3601078,1.96428125 62.0879608,2.4903125 62.0879608,3.40965625 C62.0879608,4.263125 61.4852941,5.9700625 60.8848431,8.618625 M68.5444706,9.3645625 C69.3199608,9.3645625 69.8207059,9.757875 69.8207059,10.3924062 C69.8207059,11.0269375 69.2457353,11.3330625 68.0935784,11.3330625 C67.4177941,11.3330625 66.8406078,11.2681562 66.316598,11.1586875 C66.6921569,9.998125 67.5175,9.3645625 68.5444706,9.3645625 M68.7948431,13.3916562 C72.3997647,13.3916562 74.2022255,12.385125 74.2022255,10.3924062 C74.2022255,8.3125 72.1239118,6.71503125 68.944402,6.71503125 C64.6636961,6.71503125 61.3335196,9.494375 61.3335196,13.1504375 C61.3335196,16.171 63.7131667,18.05425 67.7933529,18.05425 C70.9983431,18.05425 72.8251765,17.0903437 72.8251765,15.756375 C72.8251765,15.229375 72.524951,14.7915 71.9233922,14.2674062 C70.9983431,14.9678125 69.7952255,15.3398125 68.3938039,15.3398125 C66.6666765,15.3398125 65.7405196,14.7052812 65.7405196,13.567 C65.7405196,13.43525 65.7405196,13.3035 65.766,13.1727187 C66.6423039,13.3257812 67.6437941,13.3916562 68.7948431,13.3916562 M97.1545196,12.9760625 C96.3779216,13.9399687 95.5016176,14.3981875 94.8258333,14.3981875 C93.8741961,14.3981875 93.3247059,13.8285625 93.3247059,12.7551875 C93.3247059,11.31175 94.5510882,10.1308437 96.0776961,10.1308437 C96.6282941,10.1308437 97.1290392,10.238375 97.6796373,10.4582812 C97.504598,11.3989375 97.3295588,12.253375 97.1545196,12.9760625 M102.937461,7.83103125 C103.463686,5.70753125 103.964431,4.21953125 103.964431,3.3660625 C103.964431,2.46803125 103.263167,1.9865625 101.91049,1.9865625 C100.884627,1.9865625 99.6582451,2.24909375 98.2568235,2.7305625 C98.4817157,3.27790625 98.5548333,3.86884375 98.5548333,4.50434375 C98.5548333,5.138875 98.458451,6.0359375 98.2800882,7.21878125 C97.4813333,6.99984375 96.7291078,6.890375 96.0034706,6.890375 C93.7744902,6.890375 91.7726176,7.6556875 90.3457157,9.01290625 C88.9686667,10.3265312 88.2430294,11.9685625 88.2430294,13.7200625 C88.2430294,14.6045313 88.443549,15.376625 88.8002745,16.016 L89.5092941,16.3230937 C90.195049,16.6195312 90.929549,16.8287812 91.6939608,16.9440625 C92.5957451,17.0825937 93.7113431,17.166875 95.1803431,17.1988437 C95.8406176,16.771625 96.4466078,16.1768125 97.0282255,15.3834062 C96.9041471,15.864875 96.8531863,16.236875 96.8531863,16.4994062 C96.8531863,16.791 96.911902,17.0235 97.0149314,17.213375 C98.1715196,17.2095 99.5031471,17.1852812 101.057451,17.1378125 C101.219196,17.1339375 101.368755,17.1290937 101.528284,17.12425 C101.673412,17.0670937 101.811892,17.0225312 101.961451,16.9605312 C101.711078,16.4345 101.635745,15.8425937 101.635745,15.1421875 C101.635745,13.7200625 102.060049,11.2904375 102.937461,7.83103125" id="Fill-14" fill="#DF4F2A" sketch:type="MSShapeGroup"></path>
            <path d="M96.240549,23.921 C100.757225,23.7456562 103.974402,23.6952813 105.884324,23.9878437 C106.765059,24.1215313 107.564922,24.3656562 108.280588,24.7144062 C109.100392,23.40175 109.61,22.1026562 109.827137,20.8490938 C110.124039,19.1576562 109.586735,18.2974063 108.037971,18.0600625 C107.09852,17.9176562 104.78202,18.1617813 101.089578,18.2576875 C96.8321373,18.3845937 93.655951,18.37975 91.5011961,18.050375 C90.590549,17.910875 89.7618824,17.6638437 89.008549,17.3393125 C88.0546961,18.8709063 87.4132549,20.2378125 87.1983333,21.4652187 C86.9191569,23.0665625 87.5018824,24.0246562 88.7747941,24.2203437 C89.9579706,24.3995625 92.4461863,24.0624375 96.240549,23.921" id="Fill-15" fill="#000000" sketch:type="MSShapeGroup"></path>
            <path d="M92.6190098,22.2479688 C92.6190098,22.36325 92.5669412,22.460125 92.4639118,22.5395625 C92.363098,22.6199688 92.2356961,22.6596875 92.0861373,22.6596875 C91.9509804,22.6596875 91.8390882,22.6238437 91.7515686,22.5511875 C91.664049,22.4785312 91.6208431,22.382625 91.6208431,22.266375 C91.6208431,22.1404375 91.6684804,22.03775 91.7670784,21.96025 C91.8623529,21.8808125 91.9897549,21.8410937 92.1459608,21.8410937 C92.2933039,21.8410937 92.4085196,21.878875 92.4916078,21.9495937 C92.5746961,22.02225 92.6190098,22.1210625 92.6190098,22.2479688" id="Fill-16" fill="#FFFFFF" sketch:type="MSShapeGroup"></path>
            <path d="M95.6478529,20.0818438 L95.3742157,19.9733437 C95.2866961,19.9520313 95.1869902,19.9404063 95.0795294,19.9404063 C94.715049,19.9404063 94.4103922,20.0547187 94.1677745,20.2833438 C93.9262647,20.5129375 93.8066176,20.801625 93.8066176,21.1523125 C93.8066176,21.468125 93.9129706,21.72 94.1278922,21.906 C94.3428137,22.092 94.6330686,22.1840313 94.9997647,22.1840313 C95.1581863,22.1840313 95.3022059,22.165625 95.4329314,22.1288125 C95.562549,22.0900625 95.6833039,22.0309688 95.7963039,21.9505625 L95.894902,22.1026563 L95.9292451,22.2411875 C95.9292451,22.3739063 95.8417255,22.4785313 95.6666863,22.5550625 C95.4905392,22.6335313 95.2545686,22.67325 94.9532353,22.67325 C94.4270098,22.67325 94.001598,22.5405313 93.6725686,22.2770312 C93.3435392,22.0145 93.1784706,21.6715625 93.1784706,21.2491875 C93.1784706,20.7376875 93.3778824,20.3085312 93.775598,19.9597812 C94.1744216,19.6110312 94.6574412,19.4366563 95.2268725,19.4366563 C95.4362549,19.4366563 95.5913529,19.4628125 95.6932745,19.515125 C95.7951961,19.5674375 95.845049,19.6478437 95.845049,19.7534375 L95.7996275,19.91425 L95.6478529,20.0818438" id="Fill-17" fill="#FFFFFF" sketch:type="MSShapeGroup"></path>
            <path d="M97.9377647,22.2479688 C98.3266176,22.2479688 98.6445686,22.134625 98.8938333,21.906 C99.1419902,21.6783437 99.2660686,21.38675 99.2660686,21.0292813 C99.2660686,20.6815 99.1442059,20.3976562 98.8993725,20.17775 C98.6556471,19.9588125 98.3421275,19.8493437 97.9521667,19.8493437 C97.5566667,19.8493437 97.2365,19.9626875 96.9927745,20.1913125 C96.749049,20.4189688 96.6271863,20.72025 96.6271863,21.0951562 C96.6271863,21.429375 96.7512647,21.7045 96.9983137,21.9215 C97.2453627,22.1385 97.5588824,22.2479688 97.9377647,22.2479688 L97.9377647,22.2479688 Z M97.8945588,22.7013437 C97.3373137,22.7013437 96.8842059,22.5502188 96.5330196,22.250875 C96.1829412,21.9495938 96.0090098,21.5659687 96.0090098,21.0951562 C96.0090098,20.59625 96.1951275,20.1913125 96.5695784,19.879375 C96.9451373,19.5674375 97.4303725,19.4114687 98.0286078,19.4114687 C98.5681275,19.4114687 99.0112647,19.5596875 99.3602353,19.8551562 C99.708098,20.1515938 99.8853529,20.5255313 99.8853529,20.9789063 C99.8853529,21.162 99.8521176,21.3412188 99.7856471,21.5204375 C99.7202843,21.6977187 99.6294412,21.8507812 99.517549,21.9767188 C99.3037353,22.2179375 99.0622255,22.3990937 98.7919118,22.5192187 C98.5227059,22.6393438 98.2235882,22.7013437 97.8945588,22.7013437 L97.8945588,22.7013437 Z" id="Fill-18" fill="#FFFFFF" sketch:type="MSShapeGroup"></path>
            <path d="M100.284176,19.5035 L100.442598,19.4666875 L100.602127,19.4560312 C100.731745,19.4560312 100.832559,19.4850937 100.905676,19.546125 C100.977686,19.60425 101.020892,19.6914375 101.028647,19.8047812 C101.219196,19.6914375 101.404206,19.6071562 101.585892,19.5529062 C101.766471,19.499625 101.947049,19.4715312 102.12652,19.4715312 C102.302667,19.4715312 102.467735,19.5025313 102.621725,19.561625 C102.776824,19.6216875 102.920843,19.7117812 103.056,19.8309375 C103.245441,19.7117812 103.448176,19.6178125 103.66199,19.55 C103.876912,19.4831562 104.082971,19.44925 104.279059,19.44925 C104.708902,19.44925 105.037931,19.5587187 105.268363,19.7766875 C105.496578,19.995625 105.611794,20.3085312 105.611794,20.7144375 C105.611794,20.7725625 105.607363,20.8897813 105.599608,21.0631875 C105.592961,21.2375625 105.589637,21.3838437 105.589637,21.5020312 C105.589637,21.7723125 105.604039,21.979625 105.632843,22.1259062 C105.661647,22.2721875 105.708176,22.390375 105.772431,22.4804687 C105.653892,22.5318125 105.553078,22.5676562 105.472206,22.5889687 L105.258392,22.6219062 C105.145392,22.6219062 105.067843,22.5976875 105.025745,22.5473125 C104.984755,22.498875 104.963706,22.4029687 104.963706,22.2595937 C104.963706,22.13075 104.971461,21.9215 104.991402,21.6337813 C105.00802,21.3460625 105.016882,21.1261563 105.016882,20.972125 C105.016882,20.5952812 104.95152,20.321125 104.820794,20.1545 C104.690069,19.987875 104.479578,19.9035937 104.189324,19.9035937 C104.030902,19.9035937 103.87802,19.9229687 103.729569,19.9636562 C103.582225,20.0043438 103.424912,20.073125 103.253196,20.1670937 C103.278676,20.2949687 103.295294,20.4286563 103.306373,20.5681562 C103.317451,20.7076562 103.321882,20.9033437 103.321882,21.1523125 L103.321882,21.4826562 C103.321882,21.7723125 103.334069,21.9883438 103.358441,22.1297813 C103.381706,22.2712187 103.424912,22.390375 103.483627,22.48725 C103.378382,22.5356875 103.284216,22.5695937 103.204451,22.5909062 L102.966265,22.6219062 C102.857696,22.6219062 102.782363,22.59575 102.741373,22.5424687 C102.699275,22.4901563 102.678225,22.39425 102.678225,22.25475 C102.678225,22.17725 102.683765,22.0077187 102.697059,21.7422812 C102.710353,21.4778125 102.715892,21.2491875 102.715892,21.06125 C102.715892,20.6165937 102.6605,20.3143437 102.546392,20.1545 C102.432284,19.995625 102.236196,19.9152188 101.958127,19.9152188 C101.810784,19.9152188 101.662333,19.9404062 101.512775,19.9898125 C101.362108,20.03825 101.204794,20.1128437 101.044157,20.2106875 C101.039725,20.3860312 101.031971,20.6069062 101.024216,20.8810625 C101.015353,21.1523125 101.010922,21.3199062 101.010922,21.3857813 C101.010922,21.6638125 101.025324,21.8895312 101.055235,22.0600312 C101.084039,22.2315 101.128353,22.3739062 101.1915,22.48725 C101.090686,22.53375 100.997627,22.5676562 100.913431,22.5889687 L100.666382,22.6219062 C100.55449,22.6219062 100.480265,22.5947812 100.439275,22.5395625 C100.398284,22.4862812 100.377235,22.371 100.377235,22.1975937 C100.377235,22.14625 100.391637,21.9379687 100.420441,21.5717812 C100.447029,21.2065625 100.460324,20.8645937 100.460324,20.5478125 C100.460324,20.297875 100.445922,20.088625 100.418225,19.9210313 C100.389422,19.7534375 100.344,19.6149062 100.284176,19.5035" id="Fill-19" fill="#FFFFFF" sketch:type="MSShapeGroup"></path>
            <g id="Group-23" transform="translate(0.000000, 9.281250)">
                <mask id="mask-2" sketch:name="Clip 21" fill="white">
                    <use xlink:href="#path-1"></use>
                </mask>
                <g id="Clip-21"></g>
                <path d="M1.06906863,0.527 L52.9272059,0.527 L52.9272059,12.617 L1.06906863,12.617 L1.06906863,0.527 Z" id="Fill-20" fill="#030100" sketch:type="MSShapeGroup" mask="url(#mask-2)"></path>
                <path d="M1.06906863,0.527 L52.9272059,0.527 L52.9272059,12.617 L1.06906863,12.617 L1.06906863,0.527 Z" id="Fill-22" fill="#030100" sketch:type="MSShapeGroup" mask="url(#mask-2)"></path>
            </g>
            <path d="M67.7933529,17.608625 C64.0687843,17.608625 61.8431275,15.9414062 61.8431275,13.1504375 C61.8431275,12.1429375 62.1134412,11.2129375 62.5920294,10.3962812 C63.830598,10.2742187 65.0680588,10.1695938 66.3021961,10.0843437 C66.105,10.3604375 65.9432549,10.67625 65.8269314,11.036625 L65.6840196,11.48225 L66.1980588,11.59075 C66.7996176,11.7166875 67.418902,11.7796562 68.0946863,11.7796562 C70.0400588,11.7796562 70.3303137,10.9106875 70.3303137,10.3924062 C70.3303137,10.2035 70.2904314,10.0310625 70.2283922,9.87121875 C71.3639314,9.82471875 72.4939314,9.79178125 73.6172843,9.77240625 C73.6649216,9.97196875 73.6937255,10.1773437 73.6937255,10.3924062 C73.6937255,11.0240312 73.6937255,12.947 68.7948431,12.947 C67.6316078,12.947 66.6744314,12.8782187 65.8657059,12.7358125 L65.3527745,12.6466875 L65.2641471,13.098125 C65.2320196,13.2657187 65.2320196,13.4255625 65.2320196,13.567 C65.2320196,14.9755625 66.3841765,15.7844687 68.3938039,15.7844687 C69.7176765,15.7844687 70.9086078,15.469625 71.8691078,14.8699687 C72.1826275,15.1974062 72.3166765,15.469625 72.3166765,15.756375 C72.3166765,16.8636562 70.4987059,17.608625 67.7933529,17.608625" id="Fill-24" fill="#E3653A" sketch:type="MSShapeGroup"></path>
            <path d="M79.4777745,14.9600625 L79.177549,9.7791875 L79.4777745,14.9600625" id="Fill-25" fill="#FFFFFF" sketch:type="MSShapeGroup"></path>
            <path d="M78.0807843,17.54275 C75.8639902,17.54275 74.4337647,16.0334375 74.4337647,13.6977813 C74.4337647,12.2495 74.9555588,10.873875 75.9105196,9.75109375 L76.1453824,9.75109375 C77.164598,9.75109375 78.1738431,9.76175 79.177549,9.7791875 L79.4777745,14.9600625 L80.886951,13.62125 L81.9870392,15.5984688 C80.8503922,16.9857188 79.7314706,17.54275 78.0807843,17.54275" id="Fill-26" fill="#E3653A" sketch:type="MSShapeGroup"></path>
            <path d="M83.0140098,16.267875 L83.0151176,16.267875 L83.4593627,16.03925 L83.0140098,16.267875" id="Fill-27" fill="#FFFFFF" sketch:type="MSShapeGroup"></path>
            <path d="M93.1939804,17.10875 C92.6311961,17.0670937 92.137098,17.011875 91.6939608,16.9440625 C92.137098,17.011875 92.6311961,17.0670937 93.1939804,17.10875" id="Fill-29" fill="#FFFFFF" sketch:type="MSShapeGroup"></path>
            <path d="M97.6441863,17.2095 C97.4226176,17.07 97.363902,16.8365312 97.363902,16.4994062 C97.363902,16.322125 97.3904902,16.0005 97.5267549,15.48125 L96.6028137,15.1421875 C95.8627745,16.1467813 95.1183039,16.8016563 94.2796667,17.17075 C93.8908137,17.1542812 93.5307647,17.1339375 93.1939804,17.10875 C92.6311961,17.0670937 92.137098,17.011875 91.6939608,16.9440625 C90.9782941,16.8355625 90.2892157,16.6427813 89.6422353,16.3754062 C89.0739118,15.7166562 88.7515294,14.8118438 88.7515294,13.7200625 C88.7515294,12.485875 89.1315196,11.3243437 89.8593725,10.30425 C91.1710588,10.408875 92.4572647,10.5241563 93.7102353,10.649125 C93.1574216,11.199375 92.8162059,11.9395 92.8162059,12.7551875 C92.8162059,14.063 93.5662157,14.8438125 94.8269412,14.8438125 C95.7442353,14.8438125 96.7457255,14.25675 97.5699608,13.2327812 L97.6308922,13.1581875 L97.6519412,13.0680937 C97.7848824,12.5255938 97.9211471,11.8842812 98.0684902,11.1335 C99.2760392,11.28075 100.442598,11.43575 101.565951,11.5936562 C101.276804,13.1010312 101.125029,14.2974375 101.125029,15.1421875 C101.125029,15.779625 101.189284,16.2853125 101.331088,16.7231875 C100.831451,16.9159687 100.357294,17.0612812 99.9108333,17.1688125 C99.0910294,17.1891562 98.3376961,17.2027187 97.6441863,17.2095" id="Fill-30" fill="#E3653A" sketch:type="MSShapeGroup"></path>
            <path d="M103.24101,17.0603125 L103.24101,17.0603125 C103.407186,17.0525625 103.568931,17.0457812 103.726245,17.0380313 C103.568931,17.0457812 103.407186,17.0535312 103.24101,17.0603125 M104.869539,16.9837812 C104.9205,16.980875 104.972569,16.9789375 105.022422,16.9760312 C104.972569,16.9789375 104.9205,16.980875 104.869539,16.9837812 M108.328225,16.977 L108.230735,16.9556875 C108.220765,16.95375 108.210794,16.9527812 108.200824,16.9508437 C108.210794,16.9527812 108.220765,16.95375 108.230735,16.9556875 C108.266186,16.9615 108.302745,16.9673125 108.338196,16.973125 C108.334873,16.9740937 108.331549,16.9760312 108.328225,16.977 M105.112157,16.9721562 C105.127667,16.9711875 105.144284,16.9702187 105.159794,16.96925 C105.144284,16.9702187 105.127667,16.9711875 105.112157,16.9721562 M105.17752,16.9682813 C105.198569,16.9673125 105.219618,16.9663437 105.240667,16.965375 C105.219618,16.9663437 105.198569,16.9673125 105.17752,16.9682813 M105.292735,16.9624687 C105.311569,16.9615 105.33151,16.9605312 105.351451,16.9595625 C105.33151,16.9605312 105.311569,16.9615 105.292735,16.9624687 M105.352559,16.9595625 C106.112539,16.92275 106.721853,16.8975625 107.217059,16.8965938 C106.721853,16.8975625 106.112539,16.92275 105.352559,16.9595625 M107.225922,16.8965938 L107.224814,16.8965938 L107.225922,16.8965938" id="Fill-31" fill="#FFFFFF" sketch:type="MSShapeGroup"></path>
            <path d="M103.24101,17.0603125 C103.095882,16.8733438 103.093667,16.670875 103.093667,16.5207188 C103.093667,16.1816563 103.252088,15.7660625 103.592196,15.2284062 C104.263549,15.5403437 104.968137,15.6972813 105.690451,15.6972813 C106.731824,15.6972813 107.200441,15.144125 107.200441,14.5958125 C107.200441,14.0755937 106.741794,13.7200625 106.103676,13.2269687 L105.805667,12.9944687 L105.754706,12.9528125 C105.335941,12.61375 105.001373,12.3376563 104.747676,12.0654375 C106.844824,12.3957813 108.749206,12.7290312 110.415402,13.0409687 C110.612598,13.3354688 110.71452,13.6474063 110.71452,14.0475 C110.71452,15.2962188 109.792794,16.3540938 108.338196,16.973125 C108.302745,16.9673125 108.266186,16.9615 108.230735,16.9556875 C108.220765,16.95375 108.210794,16.9527812 108.200824,16.9508438 C107.932725,16.9130625 107.613667,16.8965938 107.225922,16.8965938 L107.224814,16.8965938 L107.217059,16.8965938 C106.721853,16.8975625 106.112539,16.92275 105.352559,16.9595625 L105.351451,16.9595625 C105.33151,16.9605312 105.311569,16.9615 105.292735,16.9624687 C105.27501,16.9634375 105.258392,16.9644062 105.240667,16.965375 C105.219618,16.9663437 105.198569,16.9673125 105.17752,16.9682813 C105.17198,16.9682813 105.165333,16.96925 105.159794,16.96925 C105.144284,16.9702187 105.127667,16.9711875 105.112157,16.9721562 C105.082245,16.973125 105.052333,16.9750625 105.022422,16.9760312 C104.972569,16.9789375 104.9205,16.980875 104.869539,16.9837812 C104.855137,16.98475 104.841843,16.98475 104.828549,16.9857188 C104.489549,17.0021875 104.120637,17.0205938 103.726245,17.0380313 C103.568931,17.0457812 103.407186,17.0525625 103.24101,17.0603125" id="Fill-32" fill="#E3653A" sketch:type="MSShapeGroup"></path>
        </g>
    </g>
</svg>