<?xml version="1.0" encoding="UTF-8" standalone="no"?>
<svg width="243px" height="244px" viewBox="0 0 243 244" version="1.1" xmlns="http://www.w3.org/2000/svg" xmlns:xlink="http://www.w3.org/1999/xlink" xmlns:sketch="http://www.bohemiancoding.com/sketch/ns">
    <!-- Generator: Sketch 3.3.3 (12081) - http://www.bohemiancoding.com/sketch -->
    <title>women-market-analysis</title>
    <desc>Created with Sketch.</desc>
    <defs>
        <path id="path-1" d="M0.479,1.23 C0.678,0.534 2.084,0.322 3.628,0.757 C5.166,1.191 6.257,2.109 6.059,2.809 C5.86,3.506 4.453,3.717 2.916,3.281 C1.372,2.852 0.286,1.931 0.479,1.23"></path>
        <path id="path-3" d="M0.717,6.908 C0.604,6.999 0.517,7.106 0.479,7.23 C0.286,7.931 1.372,8.852 2.916,9.281 C4.453,9.717 5.86,9.506 6.059,8.809 C6.094,8.675 6.076,8.542 6.029,8.401 L5.44,0.316 L0.717,6.908"></path>
    </defs>
    <g id="Page-1" stroke="none" stroke-width="1" fill="none" fill-rule="evenodd" sketch:type="MSPage">
        <g id="07" sketch:type="MSLayerGroup" transform="translate(-78.000000, -277.000000)">
            <g id="women-market-analysis" transform="translate(78.000000, 277.000000)">
                <path d="M109.872,58.334 C112.417,53.912 132.706,50.012 140.983,65.735 C149.262,81.458 145.092,86.966 149.656,92.515 C154.224,98.065 149.925,110.801 146.751,111.917 C143.578,113.032 144.851,117.438 146.4,119.33 C153.003,127.409 143.454,141.025 117.955,140.886 C90.697,140.735 85.349,124.9 92.337,119.96 C94.616,118.347 95.499,115.254 93.003,112.529 C90.507,109.802 84.752,99.647 90.175,91.322 C95.6,83 90.86,58.322 109.872,58.334" id="Fill-267" fill="#745944" sketch:type="MSShapeGroup"></path>
                <path d="M129.104,123.064 C128.903,123.379 109.191,123.693 108.971,124.005 C102.782,132.834 91.296,137.65 80.66,140.028 C70.075,142.394 68.625,159.647 67.758,168.577 L170.946,168.577 C169.945,159.568 168.842,142.443 158.043,140.028 C147.245,137.614 134.976,132.297 129.104,123.064" id="Fill-268" fill="#912F31" sketch:type="MSShapeGroup"></path>
                <path d="M109.015,104.202 L109.015,129.53 C114.194,140.128 123.493,140.403 129.69,129.53 L129.69,104.202 C129.69,90.526 109.015,90.526 109.015,104.202" id="Fill-269" fill="#F2C39A" sketch:type="MSShapeGroup"></path>
                <path d="M146.625,92.375 C144.558,91.445 141.641,93.728 140.108,97.47 C138.573,101.216 139.002,105.005 141.069,105.935 C143.135,106.864 146.053,104.583 147.586,100.839 C149.12,97.095 148.69,93.307 146.625,92.375" id="Fill-270" fill="#F2C39A" sketch:type="MSShapeGroup"></path>
                <path d="M92.1,92.375 C94.166,91.445 97.083,93.725 98.617,97.47 C100.15,101.216 99.721,105.005 97.654,105.935 C95.589,106.864 92.672,104.583 91.138,100.839 C89.604,97.095 90.036,93.307 92.1,92.375" id="Fill-271" fill="#F2C39A" sketch:type="MSShapeGroup"></path>
                <path d="M119.256,123.983 C115.502,123.983 109.015,117.506 109.015,117.506 L109.015,116.8 L129.69,116.8 L129.69,117.434 C129.69,117.434 123.01,123.983 119.256,123.983" id="Fill-272" fill="#BA9779" sketch:type="MSShapeGroup"></path>
                <path d="M119.374,121.722 C112.953,121.722 99.389,111.139 95.198,95.984 C90.963,80.679 98.937,58.728 119.374,58.728 C139.808,58.728 147.783,80.679 143.547,95.984 C139.353,111.139 125.792,121.722 119.374,121.722" id="Fill-273" fill="#F2C39A" sketch:type="MSShapeGroup"></path>
                <path d="M114.563,77.707 C109.55,88.22 107.515,91.324 100.847,88.548 C94.181,85.773 95.446,93.552 96.658,99.102 C90.754,91.606 91.447,84.487 93.283,77.25 C95.295,69.319 105.447,57.253 114.969,57.475 C120.142,56.931 127.972,57.573 136.301,63.577 C150.846,74.059 145.988,97.61 142.072,100.388 C145.865,78.575 136.573,83.015 130.162,71.604 C128.056,66.587 120.014,66.277 114.563,77.707" id="Fill-274" fill="#745945" sketch:type="MSShapeGroup"></path>
                <path d="M118.002,137.691 L120.121,137.691 L120.121,163.85 L118.002,163.85 L118.002,137.691 Z" id="Fill-275" fill="#FFFFFF" sketch:type="MSShapeGroup"></path>
                <path d="M109.015,123.983 L101.636,130.73 L111.019,145.29 L119.119,137.607 L109.015,123.983" id="Fill-276" fill="#FFFFFF" sketch:type="MSShapeGroup"></path>
                <path d="M129.69,123.933 L137.069,130.964 L127.216,145.29 L119.119,137.607 L129.69,123.933" id="Fill-277" fill="#FFFFFF" sketch:type="MSShapeGroup"></path>
                <path d="M108.425,88.156 C104.704,87.958 99.773,88.427 98.864,88.739 C97.694,89.144 97.657,89.248 97.575,90.2 C97.495,91.151 97.617,91.97 98.291,92.214 C99.215,92.546 99.183,93.82 99.69,97.475 C100.146,100.802 101.427,103.43 107.269,103.895 C107.567,103.92 107.855,103.93 108.138,103.933 L108.156,103.004 C105.472,103.026 102.486,102.01 101.48,99.936 C100.07,97.024 99.873,91.142 101.839,89.909 C102.687,89.377 105.5,89.01 108.411,89.143 L108.425,88.156 L108.425,88.156 Z M119.616,90.038 C118.321,90.069 113.021,88.54 109.252,88.215 C108.985,88.19 108.71,88.17 108.425,88.156 L108.411,89.143 C111.474,89.282 114.646,89.977 115.733,91.612 C117.517,94.296 114.313,100.858 111.416,102.319 C110.534,102.762 109.375,102.992 108.156,103.004 L108.138,103.933 C113.211,103.94 115.087,100.281 115.713,99.061 C116.892,96.764 116.648,93.597 119.553,93.591 C122.453,93.584 122.072,96.693 123.11,98.988 C123.67,100.226 125.316,104.025 130.58,103.877 L130.593,102.951 C129.297,102.972 128.061,102.748 127.157,102.283 C124.348,100.834 121.54,94.289 123.491,91.598 C124.663,89.972 127.813,89.262 130.849,89.099 L130.864,88.114 C130.631,88.126 130.403,88.143 130.181,88.165 C126.786,88.474 122.667,89.959 119.616,90.038 L119.616,90.038 Z M130.58,103.877 C130.782,103.871 130.992,103.858 131.208,103.84 C137.076,103.35 138.521,100.713 139.18,97.384 C139.906,93.725 139.953,92.454 140.896,92.117 C141.589,91.868 141.758,91.051 141.737,90.097 C141.712,89.147 141.683,89.045 140.539,88.648 C139.632,88.332 134.623,87.877 130.864,88.114 L130.849,89.099 C133.809,88.938 136.665,89.293 137.492,89.83 C139.376,91.049 138.826,96.937 137.239,99.853 C136.138,101.878 133.22,102.908 130.593,102.951 L130.58,103.877 L130.58,103.877 Z" id="Fill-278" fill="#2D7878" sketch:type="MSShapeGroup"></path>
                <path d="M119.119,137.607 L119.119,137.607 L119.1,137.582 L119.139,137.582 L119.119,137.607" id="Fill-279" fill="#892D2F" sketch:type="MSShapeGroup"></path>
                <path d="M119.1,137.582 L109.015,123.983 L109.015,123.643 L119.119,137.224 L129.679,123.643 L129.69,123.933 L119.139,137.582 L119.1,137.582" id="Fill-280" fill="#E2B691" sketch:type="MSShapeGroup"></path>
                <path d="M119.119,137.607 L109.015,123.983 L119.1,137.582 L119.119,137.607" id="Fill-281" fill="#F5F4F2" sketch:type="MSShapeGroup"></path>
                <path d="M119.119,137.607 L119.119,137.607 L119.139,137.582 L129.69,123.933 L119.119,137.607" id="Fill-282" fill="#F5F4F2" sketch:type="MSShapeGroup"></path>
                <path d="M87.142,168.471 L140.335,163.693 L142.462,180.465 C142.462,180.465 95.723,187.736 79.836,186.405 C66.379,185.607 67.758,168.552 67.758,168.552 L87.142,168.471" id="Fill-283" fill="#912F31" sketch:type="MSShapeGroup"></path>
                <path d="M142.748,164.933 C142.748,164.933 150.866,163.604 151.869,166.997 C152.261,168.324 152.591,170.461 151.911,171.666 C151.074,173.147 143.92,177.648 143.92,177.648 L142.748,164.933" id="Fill-284" fill="#F2C39A" sketch:type="MSShapeGroup"></path>
                <path d="M143.92,177.648 L142.748,163.604 L140.122,163.604 L141.289,178.258 L143.92,177.648" id="Fill-285" fill="#FFFFFF" sketch:type="MSShapeGroup"></path>
                <path d="M170.932,168.463 C170.932,168.463 172.82,186.475 159.643,186.351 C143.728,185.406 98.133,178.309 98.133,178.309 L98.244,176.902 L99.47,161.503 L151.548,168.383 L170.932,168.463" id="Fill-286" fill="#912F31" sketch:type="MSShapeGroup"></path>
                <path d="M96.786,163.578 C96.786,163.578 88.35,161.71 87.665,165.643 C87.438,166.94 86.941,168.16 87.622,169.365 C88.459,170.847 95.613,176.293 95.613,176.293 L96.786,163.578" id="Fill-287" fill="#F2C39A" sketch:type="MSShapeGroup"></path>
                <path d="M95.613,176.293 L96.786,162.249 L99.411,162.249 L98.244,176.902 L95.613,176.293" id="Fill-288" fill="#FFFFFF" sketch:type="MSShapeGroup"></path>
                <path d="M98.171,177.828 L95.61,177.241 C95.61,177.241 88.463,170.851 87.622,169.366 C88.463,170.851 95.61,176.296 95.61,176.296 L97.336,176.692 L98.244,176.902 L98.171,177.828" id="Fill-289" fill="#6E2627" sketch:type="MSShapeGroup"></path>
                <path d="M98.173,177.828 L98.171,177.828 L98.244,176.902 L98.244,176.901 L98.248,176.901 L98.173,177.828" id="Fill-290" fill="#6E2627" sketch:type="MSShapeGroup"></path>
                <path d="M87.622,169.366 L87.622,169.366 C87.616,169.356 87.611,169.346 87.605,169.336 C87.611,169.346 87.616,169.356 87.622,169.366" id="Fill-291" fill="#6E2627" sketch:type="MSShapeGroup"></path>
                <path d="M87.306,168.456 C87.306,168.451 87.307,168.447 87.307,168.442 C87.308,168.447 87.309,168.451 87.309,168.456 L87.306,168.456" id="Fill-292" fill="#6E2627" sketch:type="MSShapeGroup"></path>
                <path d="M87.605,169.336 C87.277,168.764 87.237,169.041 87.306,168.456 L87.309,168.456 C87.331,168.598 87.363,168.74 87.409,168.882 C87.457,169.034 87.521,169.186 87.605,169.336" id="Fill-293" fill="#6E2627" sketch:type="MSShapeGroup"></path>
                <path d="M87.409,168.882 C87.363,168.74 87.331,168.598 87.309,168.456 C87.309,168.451 87.308,168.447 87.307,168.442 C87.308,168.435 87.309,168.428 87.31,168.42 C87.328,168.573 87.36,168.727 87.409,168.882" id="Fill-294" fill="#BA9779" sketch:type="MSShapeGroup"></path>
                <path d="M98.244,176.902 L98.244,176.902 L97.336,176.692 L98.244,176.901 L98.244,176.902" id="Fill-295" fill="#C7C7C2" sketch:type="MSShapeGroup"></path>
                <path d="M120.788,182.621 C108.346,180.844 98.135,179.255 98.135,179.255 L98.21,178.321 C98.295,178.334 98.449,178.358 98.668,178.392 C101.187,178.785 112.27,180.484 124.673,182.224 C123.416,182.356 122.121,182.489 120.788,182.621" id="Fill-296" fill="#6E2627" sketch:type="MSShapeGroup"></path>
                <path d="M98.668,178.392 C98.449,178.358 98.295,178.334 98.21,178.321 L98.21,178.319 C98.295,178.333 98.449,178.357 98.668,178.392" id="Fill-297" fill="#6E2627" sketch:type="MSShapeGroup"></path>
                <path d="M219.137,144.973 C218.29,148.704 217.237,152.356 215.991,155.918 L216.883,156.23 C218.141,152.635 219.204,148.948 220.059,145.182 L219.137,144.973 L219.137,144.973 Z M211.63,166.438 C209.974,169.87 208.132,173.196 206.114,176.4 L206.914,176.904 C208.95,173.669 210.811,170.313 212.482,166.849 L211.63,166.438 L211.63,166.438 Z M199.519,185.682 C197.148,188.651 194.614,191.485 191.931,194.17 L192.599,194.838 C195.308,192.129 197.865,189.269 200.258,186.272 L199.519,185.682 L199.519,185.682 Z M183.446,201.76 C180.485,204.125 177.388,206.328 174.17,208.356 L174.674,209.156 C177.922,207.109 181.047,204.886 184.036,202.498 L183.446,201.759 L183.446,201.76 Z M164.217,213.872 C160.813,215.515 157.304,216.974 153.703,218.236 L154.015,219.128 C157.651,217.854 161.193,216.382 164.628,214.723 L164.217,213.872 L164.217,213.872 Z M142.764,221.386 C139.095,222.222 135.35,222.859 131.541,223.285 L131.646,224.225 C135.49,223.794 139.27,223.151 142.974,222.308 L142.764,221.386 L142.764,221.386 Z M120.175,223.92 L120.122,223.92 C116.298,223.92 112.523,223.708 108.809,223.297 L108.705,224.236 C112.454,224.652 116.263,224.865 120.122,224.865 L120.176,224.865 L120.175,223.92 L120.175,223.92 Z M97.584,221.41 C93.853,220.564 90.199,219.513 86.637,218.269 L86.325,219.162 C89.921,220.417 93.609,221.478 97.375,222.332 L97.584,221.41 L97.584,221.41 Z M76.115,213.914 C72.681,212.26 69.355,210.419 66.15,208.403 L65.647,209.204 C68.882,211.238 72.239,213.096 75.704,214.766 L76.115,213.914 L76.115,213.914 Z M56.865,201.813 C53.894,199.443 51.059,196.911 48.373,194.229 L47.705,194.898 C50.415,197.605 53.277,200.161 56.275,202.552 L56.865,201.813 L56.865,201.813 Z M40.779,185.748 C38.411,182.788 36.207,179.693 34.178,176.476 L33.378,176.98 C35.426,180.227 37.651,183.351 40.04,186.339 L40.779,185.748 L40.779,185.748 Z M28.656,166.525 C27.011,163.123 25.55,159.615 24.287,156.014 L23.395,156.327 C24.67,159.961 26.145,163.503 27.805,166.937 L28.656,166.525 L28.656,166.525 Z M21.13,145.077 C20.293,141.408 19.654,137.663 19.226,133.854 L18.286,133.96 C18.719,137.804 19.363,141.584 20.209,145.287 L21.13,145.077 L21.13,145.077 Z M18.585,122.489 L18.585,122.383 C18.585,118.577 18.794,114.82 19.202,111.123 L18.263,111.019 C17.851,114.751 17.64,118.542 17.64,122.383 L17.64,122.49 L18.585,122.489 L18.585,122.489 Z M21.083,99.896 C21.927,96.165 22.976,92.511 24.218,88.948 L23.326,88.637 C22.072,92.233 21.013,95.921 20.161,99.688 L21.083,99.896 L21.083,99.896 Z M28.568,78.424 C30.22,74.989 32.06,71.662 34.073,68.456 L33.273,67.953 C31.24,71.189 29.383,74.547 27.716,78.014 L28.568,78.424 L28.568,78.424 Z M40.659,59.167 C43.027,56.195 45.558,53.358 48.239,50.671 L47.569,50.004 C44.864,52.716 42.309,55.578 39.92,58.578 L40.659,59.167 L40.659,59.167 Z M56.715,43.073 C59.674,40.704 62.768,38.498 65.984,36.467 L65.479,35.667 C62.233,37.717 59.111,39.944 56.124,42.335 L56.715,43.073 L56.715,43.073 Z M75.932,30.94 C79.333,29.293 82.841,27.831 86.441,26.565 L86.128,25.673 C82.494,26.951 78.953,28.427 75.52,30.089 L75.932,30.94 L75.932,30.94 Z M97.377,23.403 C101.045,22.564 104.79,21.923 108.598,21.492 L108.492,20.553 C104.648,20.987 100.869,21.634 97.166,22.481 L97.377,23.403 L97.377,23.403 Z M119.963,20.846 L120.122,20.846 C123.91,20.846 127.649,21.053 131.329,21.457 L131.433,20.517 C127.718,20.11 123.945,19.9 120.122,19.9 L119.961,19.9 L119.963,20.846 L119.963,20.846 Z M142.557,23.332 C146.289,24.174 149.943,25.221 153.507,26.462 L153.818,25.569 C150.22,24.317 146.532,23.26 142.765,22.41 L142.557,23.333 L142.557,23.332 Z M164.034,30.806 C167.469,32.456 170.797,34.294 174.004,36.306 L174.507,35.505 C171.269,33.474 167.91,31.619 164.443,29.954 L164.034,30.806 L164.034,30.806 Z M183.296,42.887 C186.27,45.253 189.108,47.783 191.796,50.462 L192.463,49.792 C189.75,47.088 186.886,44.535 183.885,42.147 L183.296,42.887 L183.296,42.887 Z M199.399,58.935 C201.769,61.892 203.977,64.985 206.01,68.2 L206.809,67.695 C204.758,64.45 202.529,61.328 200.137,58.343 L199.399,58.935 L199.399,58.935 Z M211.541,78.145 C213.19,81.546 214.655,85.053 215.922,88.652 L216.814,88.338 C215.535,84.705 214.056,81.165 212.392,77.733 L211.542,78.145 L211.541,78.145 Z M219.09,99.586 C219.931,103.254 220.574,106.998 221.006,110.806 L221.946,110.7 C221.51,106.856 220.861,103.077 220.011,99.374 L219.09,99.586 L219.09,99.586 Z M221.659,122.17 L221.659,122.383 C221.659,126.225 221.446,130.017 221.03,133.749 L221.97,133.853 C222.389,130.087 222.605,126.26 222.605,122.383 L222.604,122.168 L221.659,122.17 L221.659,122.17 Z" id="Fill-298" fill="#FEFEFE" sketch:type="MSShapeGroup"></path>
                <path d="M203.248,103.012 C194.697,112.144 195.17,126.53 204.304,135.083 C213.435,143.634 227.82,143.162 236.372,134.031 C244.926,124.896 244.456,110.51 235.325,101.958 C226.19,93.404 211.801,93.877 203.248,103.012" id="Fill-299" fill="#48ADA6" sketch:type="MSShapeGroup"></path>
                <path d="M204.018,110.136 C204.015,110.148 203.981,110.19 203.896,110.468 L204.041,110.497 L204.006,110.637 L204.129,110.623 C204.36,110.081 204.493,109.629 204.018,110.136 C204.015,110.148 204.493,109.629 204.018,110.136" id="Fill-300" fill="#90C680" sketch:type="MSShapeGroup"></path>
                <path d="M204.129,110.623 L204.056,110.788 L204.158,110.641 L204.129,110.623" id="Fill-301" fill="#90C680" sketch:type="MSShapeGroup"></path>
                <path d="M203.517,110.405 C203.631,110.282 203.724,110.132 203.793,109.977 L203.649,109.885 C203.517,109.999 203.439,110.15 203.413,110.338 C203.45,110.456 203.498,110.417 203.517,110.405 C203.631,110.282 203.498,110.417 203.517,110.405" id="Fill-302" fill="#90C680" sketch:type="MSShapeGroup"></path>
                <path d="M206.543,108.187 C206.507,108.286 206.507,108.286 206.511,108.334 C206.854,108.55 208.708,106.637 208.552,106.225 C208.067,105.918 207.13,107.732 206.581,107.789 C206.617,107.698 206.721,107.649 206.75,107.563 C206.67,107.425 205.669,108.211 205.576,108.308 C205.491,108.503 206.671,107.819 206.543,108.187 C206.507,108.286 206.671,107.819 206.543,108.187" id="Fill-303" fill="#90C680" sketch:type="MSShapeGroup"></path>
                <path d="M203.814,111.334 L203.914,111.146 L203.814,111.334" id="Fill-304" fill="#90C680" sketch:type="MSShapeGroup"></path>
                <path d="M205.933,107.702 L205.552,108.035 C205.741,108.06 205.869,107.948 205.933,107.702" id="Fill-305" fill="#90C680" sketch:type="MSShapeGroup"></path>
                <path d="M206.261,107.292 C206.199,107.401 206.225,107.46 206.29,107.442 C206.681,107.303 206.379,107.135 206.261,107.292" id="Fill-306" fill="#90C680" sketch:type="MSShapeGroup"></path>
                <path d="M203.391,109.952 L203.622,109.836 C204.086,109.141 203.567,109.682 203.391,109.952" id="Fill-307" fill="#90C680" sketch:type="MSShapeGroup"></path>
                <path d="M206.55,110.02 L206.446,109.849 L206.148,109.968 C206.177,109.817 206.191,109.426 205.979,109.604 C205.952,109.72 205.891,109.817 205.794,109.891 C204.879,110.217 206.074,110.665 206.282,110.679 C206.36,110.597 206.6,110.114 206.55,110.02" id="Fill-308" fill="#90C680" sketch:type="MSShapeGroup"></path>
                <path d="M206.771,110.937 C206.798,111.139 206.764,111.327 206.661,111.502 C206.946,111.355 207.176,111.147 207.352,110.879 C207.351,110.864 207.283,110.794 206.771,110.929 L206.771,110.937 C206.798,111.139 206.775,110.933 206.771,110.937" id="Fill-309" fill="#90C680" sketch:type="MSShapeGroup"></path>
                <path d="M205.4,108.771 C205.315,108.923 205.021,109.652 204.949,109.729 C205.083,109.818 205.289,109.511 205.348,109.37 C205.446,109.386 205.299,109.517 205.374,109.579 C206.064,109.534 205.538,108.618 205.4,108.771 C205.391,108.789 205.538,108.618 205.4,108.771" id="Fill-310" fill="#90C680" sketch:type="MSShapeGroup"></path>
                <path d="M204.849,110.023 C204.771,110.081 204.759,110.16 204.813,110.266 C204.942,110.183 204.945,109.918 204.849,110.023" id="Fill-311" fill="#90C680" sketch:type="MSShapeGroup"></path>
                <path d="M204.584,109.608 L204.718,109.592 L204.79,109.701 C204.917,109.621 204.768,109.442 204.584,109.608 C204.634,109.669 204.768,109.442 204.584,109.608" id="Fill-312" fill="#90C680" sketch:type="MSShapeGroup"></path>
                <path d="M206.547,105.484 C207.401,104.572 206.112,105.812 207.129,104.628 L207.151,104.655 C206.996,104.883 206.891,105.138 206.842,105.402 L206.979,105.44 C206.59,105.586 206.59,105.586 206.289,105.982 C206.653,106.324 207.241,106.199 207.317,106.271 C207.089,106.475 206.862,106.668 206.614,106.848 C207.566,106.984 206.842,106.583 207.992,106.139 L208.025,106.2 L208.063,106.193 L208.579,102.914 C208.547,102.919 208.547,102.919 208.346,103.103 C208.374,102.836 208.682,102.696 208.667,102.412 C207.78,102.063 205.555,105.602 205.405,106.122 C205.936,106.139 206.144,105.915 206.547,105.484" id="Fill-313" fill="#90C680" sketch:type="MSShapeGroup"></path>
                <path d="M204.537,109.404 L204.543,109.338 C204.397,109.252 204.302,109.268 204.256,109.387 C204.342,109.537 204.437,109.537 204.537,109.404 C204.544,109.373 204.437,109.537 204.537,109.404" id="Fill-314" fill="#90C680" sketch:type="MSShapeGroup"></path>
                <path d="M205.521,107.678 C205.398,107.726 205.238,107.782 205.123,107.829 L205.077,108.01 C204.958,108.196 206.076,108.024 205.521,107.678 C205.398,107.726 206.076,108.024 205.521,107.678" id="Fill-315" fill="#90C680" sketch:type="MSShapeGroup"></path>
                <path d="M203.814,111.334 L203.786,111.364 C203.615,111.713 203.538,111.852 203.814,111.334" id="Fill-316" fill="#90C680" sketch:type="MSShapeGroup"></path>
                <path d="M204.803,107.764 C204.988,107.64 204.781,107.516 204.691,107.688 C204.657,107.816 204.698,107.844 204.803,107.764" id="Fill-317" fill="#90C680" sketch:type="MSShapeGroup"></path>
                <path d="M204.456,108.953 C204.552,108.858 205.152,108.425 205.102,108.331 C204.858,108.298 204.511,108.253 204.205,108.644 C203.97,109.032 204.458,108.65 204.477,108.657 C204.476,108.638 204.194,109.22 204.456,108.953 C204.552,108.858 204.194,109.22 204.456,108.953" id="Fill-318" fill="#90C680" sketch:type="MSShapeGroup"></path>
                <path d="M204.38,107.742 L204.376,107.863 L204.413,107.87 C204.618,107.877 204.43,107.682 204.38,107.742" id="Fill-319" fill="#90C680" sketch:type="MSShapeGroup"></path>
                <path d="M205.412,107.271 C205.554,107.172 205.647,107.027 205.779,106.918 L205.786,106.925 C205.576,107.881 206.352,107.179 206.451,106.748 C206.094,106.415 206.277,106.531 205.952,106.227 L205.264,106.482 C205.2,106.621 204.968,107.566 205.412,107.271 C205.554,107.172 204.865,107.635 205.412,107.271" id="Fill-320" fill="#90C680" sketch:type="MSShapeGroup"></path>
                <path d="M223.565,96.559 C223.863,96.84 225.632,97.046 225.647,97.047 C225.654,97.013 225.654,97.013 225.24,96.767 C225.747,96.907 226.262,97.01 226.773,97.096 C226.261,96.871 225.731,96.718 225.186,96.639 L225.253,96.642 C225.1,96.608 224.935,96.574 224.771,96.538 C223.566,96.307 222.304,96.169 221.069,96.136 C221.214,96.137 223.251,96.267 223.565,96.559" id="Fill-321" fill="#90C680" sketch:type="MSShapeGroup"></path>
                <path d="M226.799,97.864 L226.826,97.919 L226.821,97.927 C226.765,97.945 227.035,98.072 226.875,97.911 L226.798,97.862 L226.799,97.864" id="Fill-322" fill="#90C680" sketch:type="MSShapeGroup"></path>
                <path d="M224.841,98.554 L225.29,98.53 C225.15,98.401 224.998,98.378 224.827,98.457 L224.841,98.554" id="Fill-323" fill="#90C680" sketch:type="MSShapeGroup"></path>
                <path d="M231.392,99.332 C231.289,99.208 231.161,99.123 231.012,99.08 C231.078,99.225 231.204,99.309 231.392,99.332 C231.289,99.208 231.378,99.327 231.392,99.332" id="Fill-324" fill="#90C680" sketch:type="MSShapeGroup"></path>
                <path d="M227.296,97.283 L227.308,97.329 C226.791,97.213 226.293,97.069 225.793,96.906 C227.319,98.334 230.732,101.437 232.007,101.326 C232.011,101.272 232.007,101.251 231.906,101.116 L232.094,100.845 C231.801,100.233 231.051,99.595 230.488,99.244 C230.5,99.216 230.5,99.216 230.848,99.189 C230.765,99.045 230.579,99.007 230.542,98.836 C230.542,98.836 231.029,98.857 232.404,99.686 C231.786,99.135 230.757,99.072 230.211,98.491 L230.229,98.473 L230.405,98.513 C229.345,97.966 228.249,97.509 227.113,97.146 C227.416,97.28 227.416,97.28 227.421,97.286 L227.296,97.283" id="Fill-325" fill="#90C680" sketch:type="MSShapeGroup"></path>
                <path d="M231.493,99.4 C232.737,100.244 231.706,99.318 231.481,99.39 L231.493,99.4" id="Fill-326" fill="#90C680" sketch:type="MSShapeGroup"></path>
                <path d="M230.405,98.513 C230.652,98.639 230.898,98.766 231.14,98.903 C230.938,98.711 230.69,98.586 230.405,98.513" id="Fill-327" fill="#90C680" sketch:type="MSShapeGroup"></path>
                <path d="M232.413,99.761 L232.471,99.821 L232.446,99.825 C232.67,99.962 232.738,99.994 232.939,100.073 C232.805,99.955 232.645,99.846 232.484,99.755 L232.506,99.782 L232.413,99.761" id="Fill-328" fill="#90C680" sketch:type="MSShapeGroup"></path>
                <path d="M214.984,96.885 L215.063,96.868 L214.85,96.931 C215.32,96.822 215.791,96.708 216.26,96.59 L216.244,96.585 L216.272,96.569 C222.146,95.367 214.879,96.82 214.774,96.931 C214.864,96.908 214.945,96.884 215.039,96.865 L214.984,96.885" id="Fill-329" fill="#90C680" sketch:type="MSShapeGroup"></path>
                <path d="M213.849,105.633 C214.075,105.635 214.189,105.587 214.201,105.554 C214.247,105.355 214.273,104.966 214.106,104.81 C213.755,104.565 212.61,105.694 212.131,105.697 C212.117,105.65 212.117,105.65 212.254,105.391 C211.421,105.172 207.863,107.295 208.142,107.925 C208.203,107.94 208.203,107.94 208.324,107.889 C208.331,107.895 208.331,107.895 208.279,108.113 C208.313,108.131 208.313,108.131 208.491,108.111 C208.602,108.46 207.875,107.855 207.842,107.679 C207.622,107.974 207.144,108.752 207.732,109.105 C207.916,109.044 208.072,108.931 208.201,108.768 C207.97,109.04 207.97,109.04 207.956,109.089 C208.618,109.51 209.938,107.072 210.747,107.001 L210.757,107.154 C210.907,107.182 210.984,107.028 211.022,106.897 C212.921,105.965 211.469,108.62 212.256,108.595 C212.816,108.578 214.562,107.164 214.661,106.612 C214.333,106.514 214.069,106.75 213.774,106.783 L213.765,106.746 C214.079,106.55 214.532,106.595 214.713,106.17 C214.174,106.008 213.646,106.015 213.127,106.22 C212.917,105.88 213.708,105.637 213.849,105.633 C214.075,105.635 213.708,105.637 213.849,105.633" id="Fill-330" fill="#90C680" sketch:type="MSShapeGroup"></path>
                <path d="M210.985,107.697 L211.14,107.674 C211.255,107.551 211.327,107.396 211.351,107.217 C211.101,106.911 210.84,107.454 210.985,107.697 C211.052,107.735 210.84,107.454 210.985,107.697" id="Fill-331" fill="#90C680" sketch:type="MSShapeGroup"></path>
                <path d="M211.385,109.178 C210.884,109.303 210.454,109.727 209.867,109.75 C209.817,110.018 209.919,110.234 210.175,110.401 C210.126,110.488 210.062,110.6 210.011,110.697 C210.209,110.771 211.401,109.056 211.385,109.178 C210.884,109.303 211.335,109.551 211.385,109.178" id="Fill-332" fill="#90C680" sketch:type="MSShapeGroup"></path>
                <path d="M212.097,109.609 C212.337,109.398 212.048,109.27 211.968,109.362 C211.872,109.438 211.837,109.53 211.858,109.636 L212.097,109.609 C212.337,109.398 212.048,109.653 212.097,109.609" id="Fill-333" fill="#90C680" sketch:type="MSShapeGroup"></path>
                <path d="M211.363,109.792 L211.322,109.754 C211.155,109.889 211.041,110.069 210.997,110.291 C210.985,110.333 211.339,110.044 211.363,109.792 C211.355,109.785 211.339,110.044 211.363,109.792" id="Fill-334" fill="#90C680" sketch:type="MSShapeGroup"></path>
                <path d="M221.5,106.713 L221.497,106.718 C221.415,106.893 221.472,107.039 221.657,107.136 C222.098,106.982 221.771,106.507 221.5,106.713 C221.497,106.718 221.771,106.507 221.5,106.713" id="Fill-335" fill="#90C680" sketch:type="MSShapeGroup"></path>
                <path d="M219.853,106.508 C219.741,106.929 219.99,107.553 220.275,107.84 C220.725,107.748 221.058,107.474 221.275,107.018 C221.236,106.885 221.418,106.633 221.231,106.51 C220.821,106.635 221.343,106.77 221.04,106.486 C220.579,106.496 220.203,107.402 220.106,106.781 C220.09,106.621 220.002,106.535 219.853,106.508 C219.843,106.54 220.002,106.535 219.853,106.508" id="Fill-336" fill="#90C680" sketch:type="MSShapeGroup"></path>
                <path d="M207.842,107.679 L207.878,107.631 L207.842,107.679" id="Fill-337" fill="#90C680" sketch:type="MSShapeGroup"></path>
                <path d="M208.761,102.579 C208.875,102.541 208.958,102.56 209.007,102.636 C208.837,102.817 208.692,102.972 208.702,103.454 C209.033,103.225 209.033,103.225 209.06,103.211 C208.651,103.665 208.517,104.12 208.658,104.581 C208.985,104.443 209.265,104.232 209.497,103.946 C209.541,104.162 209.333,104.271 209.28,104.442 C211.001,103.538 212.252,102.109 214.299,102.366 C214.34,102.675 213.74,102.609 213.886,102.886 L214.074,102.853 L214.042,102.878 C214.058,103.987 219.75,103.271 219.368,102.472 C218.854,102.364 218.575,102.065 218.531,101.577 C218.523,101.576 218.523,101.576 218.398,101.608 C218.253,101.527 218.31,101.403 218.082,101.42 C218.229,101.303 218.125,100.925 218.017,100.824 L218.061,100.73 C218.103,100.735 218.103,100.735 218.194,100.809 C218.432,100.423 218.532,100.261 217.978,99.61 L218.168,99.626 C218.378,99.204 218.635,98.677 218.29,98.49 C218.045,98.567 217.915,98.794 217.697,98.902 C217.7,98.838 217.7,98.838 217.673,98.747 C217.464,98.794 217.464,98.794 217.369,98.771 C217.522,98.455 217.937,98.756 218.087,98.448 C218.07,98.398 218.07,98.398 216.872,98.634 C216.972,98.527 217.154,98.551 217.244,98.429 L217.218,98.389 C217.077,98.374 216.813,98.444 216.668,98.48 C216.84,98.384 216.861,98.286 216.725,98.192 C216.69,98.22 216.663,98.241 216.424,98.323 C216.464,98.229 216.473,98.22 216.565,98.123 C216.072,97.992 215.628,98.3 215.147,98.32 L215.125,98.22 L215.24,98.098 C215.1,98.014 213.597,98.209 213.339,98.224 L213.339,98.125 C213.027,97.866 211.667,99.419 211.502,99.596 L211.464,99.582 C211.513,99.272 212.044,99.13 211.966,98.842 C211.561,98.595 210.515,99.914 210.267,100.172 L210.344,100.287 L210.155,100.46 C209.985,100.872 210.033,101.012 210.284,100.89 C209.57,101.232 209.06,101.794 208.761,102.579 C208.837,102.615 209.069,102.14 208.761,102.579" id="Fill-338" fill="#90C680" sketch:type="MSShapeGroup"></path>
                <path d="M218.254,98.48 L218.25,98.482 L218.251,98.484 L218.254,98.48" id="Fill-339" fill="#90C680" sketch:type="MSShapeGroup"></path>
                <path d="M242.062,117.048 C241.988,114.444 241.449,111.853 240.439,109.411 L240.326,109.532 C240.944,110.439 241.962,114.075 242.062,117.048 C241.988,114.444 241.962,114.075 242.062,117.048" id="Fill-340" fill="#90C680" sketch:type="MSShapeGroup"></path>
                <path d="M223.242,117.136 L223.089,117.202 L223.07,117.321 C223.2,117.286 223.305,117.314 223.242,117.136" id="Fill-341" fill="#90C680" sketch:type="MSShapeGroup"></path>
                <path d="M220.975,118.324 C220.707,118.274 220.429,118.333 220.155,118.325 C220.393,118.846 220.677,118.995 220.975,118.324" id="Fill-342" fill="#90C680" sketch:type="MSShapeGroup"></path>
                <path d="M223.737,117.169 L223.625,117.289 L223.767,117.293 L223.737,117.169" id="Fill-343" fill="#90C680" sketch:type="MSShapeGroup"></path>
                <path d="M222.37,118.422 L222.38,118.679 C222.452,118.746 222.563,118.718 222.913,118.396 C222.823,118.657 222.847,118.685 222.864,118.701 C222.945,118.704 223.592,117.827 223.394,117.894 C223.038,118.043 222.697,118.221 222.37,118.422" id="Fill-344" fill="#90C680" sketch:type="MSShapeGroup"></path>
                <path d="M203.758,115.779 L203.622,115.756 L203.592,115.8 L203.774,115.894 L203.758,115.779" id="Fill-345" fill="#90C680" sketch:type="MSShapeGroup"></path>
                <path d="M210.635,116.141 L210.566,116.269 C210.04,116.25 210.04,116.25 209.92,116.002 C209.929,115.897 209.977,115.847 210.024,115.796 C210.92,115.931 210.988,115.954 211.176,116.243 C212.346,115.028 213.509,113.807 214.667,112.583 C213.49,113.841 212.314,115.102 211.137,116.36 C210.854,116.173 210.854,116.173 210.635,116.141 C210.617,116.179 210.854,116.173 210.635,116.141 L210.635,116.141 Z M216.413,113.633 C216.526,113.804 216.384,113.921 215.991,113.978 C216.082,114.086 216.408,114.621 216.213,114.763 L215.968,114.581 C215.905,114.688 215.899,114.827 215.799,114.913 C214.49,114.957 215.426,113.783 214.748,115.942 C214.845,115.632 214.697,114.943 214.944,114.596 L215.012,114.448 C214.28,114.9 213.93,115.674 213.142,116.055 C213.405,114.861 215.125,113.363 216.413,113.633 C216.526,113.804 215.373,113.414 216.413,113.633 L216.413,113.633 Z M216.924,113.486 C217.013,113.3 217.158,113.172 217.362,113.1 L217.313,112.984 C217.928,112.933 216.876,113.932 216.817,114.058 C216.696,113.885 216.779,113.755 216.924,113.486 C217.013,113.3 216.779,113.755 216.924,113.486 L216.924,113.486 Z M217.162,113.869 C217.144,114.58 216.859,115.058 216.299,115.31 C216.199,115.115 217.063,113.99 217.16,113.856 L217.162,113.869 C217.144,114.58 217.161,113.861 217.162,113.869 L217.162,113.869 Z M206.726,117.25 C206.051,117.298 207.243,116.046 207.307,116.024 C207.14,116.399 206.905,116.889 206.726,117.25 L206.726,117.25 Z M205.067,117.385 C205.196,117.16 205.3,116.93 205.381,116.691 C205.061,116.609 205.061,116.609 205.056,116.593 C205.666,116.425 206.043,116.004 206.188,115.339 C205.972,115.884 205.758,117.179 205.067,117.385 C205.196,117.16 205.795,117.167 205.067,117.385 L205.067,117.385 Z M203.839,116.331 C203.761,116.544 203.643,116.736 203.492,116.912 C203.475,116.661 203.545,116.442 203.702,116.255 C203.367,116.138 203.377,116.668 203.191,116.714 C203.289,116.369 203.432,116.05 203.622,115.756 C203.656,115.708 205.514,116.273 204.022,116.014 C203.919,116.194 203.865,116.391 203.859,116.604 C203.813,116.514 203.87,116.418 203.848,116.333 L203.839,116.331 C203.761,116.544 203.845,116.329 203.839,116.331 L203.839,116.331 Z M223.202,122.019 C222.524,120.578 221.747,121.783 221.138,122.434 C220.831,122.174 220.437,121.25 220.435,120.851 C218.539,121.528 220.407,124.452 217.371,123.218 L216.411,122.044 C215.883,120.621 218.826,118.17 219.828,118.07 L219.863,118.283 C219.96,118.31 220.057,118.322 220.155,118.325 C219.74,117.419 219.454,115.389 219.444,114.574 C219.17,114.552 218.884,114.601 218.622,114.472 C218.599,114.306 218.599,114.306 218.619,114.003 L218.805,114.191 C218.935,114.138 219.016,114.102 219.053,113.88 L218.781,113.811 C219.471,113.521 218.872,110.453 220.044,109.537 C219.659,109.933 219.742,110.382 219.759,110.427 C220.207,109.872 220.512,109.254 220.694,108.58 C220.572,108.495 220.433,108.459 220.277,108.471 C219.867,108.98 220.273,109.645 219.207,109.528 L219.135,109.33 C218.997,109.39 218.997,109.39 218.809,109.466 C218.958,109.252 218.958,109.252 218.976,109.081 L218.781,108.996 C219.004,108.497 219.228,107.999 219.459,107.506 C218.821,108.172 218.185,108.842 217.552,109.514 C217.917,109.123 220.481,107.066 219.547,106.271 C217.05,104.411 214.39,109.006 212.274,109.046 C212.604,109.374 212.604,109.374 213.068,109.438 C212.948,110.114 213.327,110.338 214.204,110.112 C214.12,109.997 214.445,112.399 214.784,112.209 C214.463,112.264 214.143,112.319 213.824,112.375 C213.522,112.07 213.517,112.064 213.284,111.871 C212.316,112.068 211.212,112.821 210.594,113.591 L210.349,113.33 C210.041,113.289 209.861,113.62 209.554,113.604 C209.181,113.073 209.181,113.073 209.491,111.587 L209.357,111.541 C209.439,110.873 209.842,110.533 209.654,109.796 L209.425,109.808 C209.729,109.608 210.296,109.229 210.252,108.514 C209.938,108.451 209.938,108.451 209.818,108.405 L209.915,108.113 C209.909,108.113 208.953,108.282 208.936,108.715 C209.259,108.813 209.302,109.537 209.192,109.738 C208.987,109.761 208.984,109.765 208.753,109.648 L208.725,109.516 C208.64,109.503 208.514,109.497 208.423,109.514 C208.325,109.671 208.311,109.701 208.412,109.908 C208.188,110.039 207.931,109.894 207.702,110.007 C207.706,109.915 207.695,109.798 207.682,109.708 C207.617,109.691 207.617,109.691 206.945,109.674 C206.792,109.147 207.139,109.004 207.146,108.437 C206.979,108.525 206.9,108.56 206.524,108.939 C205.967,109.673 207.495,110.478 207.525,110.562 L207.653,110.509 C207.762,110.73 207.622,111.098 207.653,111.363 C207.069,111.428 206.548,111.688 206.092,112.14 C206.14,112.054 206.176,111.954 206.194,111.838 L205.977,112.046 C205.841,111.904 206.308,111.38 206.279,111.41 C206.108,111.486 205.604,111.832 205.426,111.765 C205.373,111.543 205.256,111.369 205.062,111.244 C204.948,111.231 204.578,111.423 204.576,111.426 C204.582,111.503 204.768,111.827 204.893,111.885 C204.72,111.973 204.538,111.964 204.362,111.859 L204.42,111.993 C204.173,112.149 203.972,112.353 203.812,112.602 C203.766,112.521 203.898,112.426 203.807,112.358 C203.612,112.439 203.214,113.522 203.333,113.644 C203.462,113.767 203.932,113.17 203.837,113.246 L203.849,113.258 C203.827,113.396 203.65,113.614 203.512,113.774 C203.85,113.585 204.177,113.365 204.476,113.109 C204.307,113.454 204.123,113.788 203.922,114.115 C204.171,113.702 204.367,113.646 204.511,113.947 C204.942,113.852 205.336,112.84 205.414,112.545 C205.58,112.524 205.718,112.48 205.831,112.413 C205.606,112.675 205.435,112.871 205.283,113.191 C205.428,113.111 205.503,113.044 205.599,112.91 C205.645,113.371 204.808,114.189 204.46,114.498 L204.357,114.413 L204.391,114.126 L202.958,115.154 L202.853,115.055 C202.753,115.168 202.761,115.326 202.688,115.455 C202.596,115.388 202.461,115.319 202.359,115.279 C202.232,115.456 202.184,115.696 202.184,115.9 C202.572,115.832 200.109,117.784 200.125,117.754 C199.899,117.662 199.87,117.67 199.71,117.729 C199.284,118.754 199.321,120.271 199.674,121.31 L199.82,121.261 L199.856,121.098 C200.306,121.753 200.167,122.78 200.538,123.496 L200.669,123.436 L200.692,123.284 L200.819,123.341 C200.927,123.867 200.859,124.395 200.886,124.925 C201.312,123.881 200.908,122.816 200.94,121.761 C201.066,121.951 200.999,122.173 201.038,122.378 L201.173,122.403 C201.29,122.214 201.287,121.937 201.28,121.507 C201.991,121.58 203.208,121.411 203.907,121.366 C205.629,124.293 209.67,117.927 210.726,116.799 C210.459,116.726 210.459,116.726 210.311,116.54 C210.702,116.627 210.791,116.728 211.12,116.378 C209.326,118.299 207.475,120.27 205.659,122.21 C205.791,122.167 206.146,122.044 206.77,122.141 C206.87,122.316 206.945,122.441 206.789,122.605 L206.558,122.549 L206.457,122.64 C206.969,125.865 211.798,125.339 213.722,125.789 L213.836,126.028 C214.109,126.151 214.37,126.036 214.905,125.817 C212.591,125.582 211.87,125.23 211.754,125.163 L211.808,125.024 C212.476,124.739 215.531,124.99 216.071,125.346 C218.167,126.724 220.605,121.817 223.077,122.299 C223.072,122.422 223.005,122.538 223.027,122.664 C223.6,122.711 223.78,122.386 223.884,122.204 C223.667,122.125 223.409,122.151 223.202,122.019 C222.775,121.112 223.409,122.151 223.202,122.019 L223.202,122.019 Z" id="Fill-346" fill="#90C680" sketch:type="MSShapeGroup"></path>
                <path d="M223.642,118.728 C223.592,118.728 223.5,118.736 223.099,119.156 C223.142,119.156 223.987,119.175 223.642,118.728" id="Fill-347" fill="#90C680" sketch:type="MSShapeGroup"></path>
                <path d="M225.93,116.063 C225.854,116.146 225.777,116.242 225.715,116.337 C225.676,116.345 226.198,116.069 225.93,116.063" id="Fill-348" fill="#90C680" sketch:type="MSShapeGroup"></path>
                <path d="M224.584,117.581 C224.752,117.633 225.229,116.879 225.234,116.754 C225.117,116.773 225.014,116.738 224.929,116.633 C224.381,116.871 224.034,117.34 224.026,118.005 C224.089,117.7 224.277,117.56 224.584,117.581 C224.752,117.633 224.535,117.569 224.584,117.581" id="Fill-349" fill="#90C680" sketch:type="MSShapeGroup"></path>
                <path d="M223.933,116.715 C223.929,116.735 223.899,116.767 223.816,116.92 L224.029,116.75 L223.933,116.715" id="Fill-350" fill="#90C680" sketch:type="MSShapeGroup"></path>
                <path d="M231.797,123.598 C231.614,123.729 231.442,123.728 231.274,123.607 L231.864,123.492 L231.797,123.598 C231.614,123.729 231.826,123.558 231.797,123.598 L231.797,123.598 Z M235.726,115.045 C234.716,115.228 233.476,115.713 232.756,116.481 C232.341,115.717 233.131,116.321 231.833,115.562 C231.02,115.797 230.741,116.644 229.938,116.68 C229.819,116.567 229.844,116.681 229.715,116.75 C229.625,116.716 229.625,116.716 229.531,116.652 C229.15,116.836 228.697,116.94 228.261,116.916 C228.127,117.423 227.211,118.531 226.585,118.346 C226.134,118.802 226.754,119.243 226.426,119.308 C226.181,119.209 226.046,119.016 226.021,118.729 C225.018,119.802 226.128,120.413 225.026,121.181 C225.892,121.589 226.557,122.904 227.036,123.688 C227.333,123.371 233.592,117.009 233.469,116.857 C233.604,117.027 227.349,123.391 227.048,123.71 L227.038,123.721 C227.883,125.195 229.71,123.699 231.499,124.784 C233.026,125.712 233.97,127.771 234.8,129.243 L234.565,129.198 C234.572,129.355 234.75,129.679 234.752,129.681 C234.846,129.6 234.846,129.6 234.886,129.586 C234.786,129.975 234.943,130.24 235.368,130.406 C235.46,130.407 235.539,130.396 235.609,130.375 L235.525,130.469 C235.928,130.371 236.231,130.162 236.433,129.842 C236.276,129.902 236.116,129.913 235.952,129.876 C235.942,129.467 235.931,129.056 235.924,128.648 C235.867,128.636 235.354,128.628 235.539,128.43 C235.7,128.172 235.786,127.717 235.817,127.456 C235.683,127.426 235.644,127.604 235.516,127.592 C235.086,126.889 236.153,126.077 236.173,125.325 C235.771,125.146 235.718,125.067 235.718,125.067 C237.234,124.057 237.525,114.72 235.726,115.045 C235.079,115.162 236.68,114.872 235.726,115.045 L235.726,115.045 Z" id="Fill-351" fill="#90C680" sketch:type="MSShapeGroup"></path>
                <path d="M234.397,128.786 L234.292,128.868 L234.298,128.874 C234.529,129.161 234.576,129.045 234.397,128.786 C234.367,128.813 234.576,129.045 234.397,128.786" id="Fill-352" fill="#90C680" sketch:type="MSShapeGroup"></path>
                <path d="M238.153,105.316 L238.269,105.494 C238.25,105.494 238.046,105.232 237.946,105.077 C238.053,105.108 238.059,105.274 238.153,105.316 L238.153,105.316 Z M234.438,101.196 C233.83,100.852 233.258,100.418 232.645,100.07 L232.625,100.203 L232.473,100.156 C232.506,100.247 232.578,100.319 232.605,100.41 L232.388,100.402 C232.907,102.634 234.402,108.869 238.744,108.18 C238.823,108.005 238.674,107.842 238.726,107.668 C238.917,107.67 239.089,107.777 239.28,107.784 C239.301,107.743 239.301,107.743 239.318,107.586 C239.876,108.11 239.917,108.91 240.312,109.512 L240.439,109.411 C239.044,106.138 237.043,103.398 234.438,101.196 L234.438,101.196 Z" id="Fill-353" fill="#90C680" sketch:type="MSShapeGroup"></path>
                <path d="M216.867,96.459 C216.701,96.483 216.543,96.509 216.384,96.542 C216.543,96.544 216.703,96.499 216.867,96.459" id="Fill-354" fill="#90C680" sketch:type="MSShapeGroup"></path>
                <path d="M223.875,122.529 C224.022,122.469 224.935,121.803 224.952,121.75 L224.737,121.758 C224.72,121.604 224.719,121.487 224.728,121.395 C224.24,121.761 223.767,122.206 223.875,122.529 C224.138,122.422 223.767,122.206 223.875,122.529" id="Fill-355" fill="#90C680" sketch:type="MSShapeGroup"></path>
                <path d="M220.775,119.453 C220.528,119.926 220.528,120.031 220.525,120.127 C220.629,120.204 222.094,117.81 222.329,118.667 C221.833,118.379 220.992,119.074 220.775,119.453 C220.528,119.926 220.914,119.211 220.775,119.453" id="Fill-356" fill="#90C680" sketch:type="MSShapeGroup"></path>
                <path d="M224.728,121.395 C224.827,121.319 224.929,121.247 225.026,121.181 C224.864,121.104 224.753,121.153 224.728,121.395" id="Fill-357" fill="#90C680" sketch:type="MSShapeGroup"></path>
                <path d="M227.036,123.688 L227.03,123.695 L227.044,123.716 L227.048,123.71 L227.036,123.688" id="Fill-358" fill="#90C680" sketch:type="MSShapeGroup"></path>
                <path d="M203.024,111.584 C202.854,111.769 202.798,112.13 203.024,111.584" id="Fill-359" fill="#90C680" sketch:type="MSShapeGroup"></path>
                <path d="M219.444,114.574 L219.668,114.614 C219.508,114.058 219.439,114.154 219.444,114.574" id="Fill-360" fill="#90C680" sketch:type="MSShapeGroup"></path>
                <path d="M202.606,112.105 C202.635,111.998 202.702,111.936 202.806,111.917 C202.844,111.699 202.89,111.483 202.945,111.271 L202.97,111.473 C203.406,111.426 202.988,110.928 203.143,110.764 C202.565,110.876 202.79,111.901 202.515,112.195 L202.606,112.105 C202.681,111.963 202.577,112.137 202.606,112.105" id="Fill-361" fill="#90C680" sketch:type="MSShapeGroup"></path>
                <path d="M201.03,125.828 L200.991,125.786 L200.997,125.84 L201.03,125.828" id="Fill-362" fill="#90C680" sketch:type="MSShapeGroup"></path>
                <path d="M200.976,125.867 L201.022,125.989 L200.976,125.867" id="Fill-363" fill="#90C680" sketch:type="MSShapeGroup"></path>
                <path d="M203.024,111.582 L203.024,111.584 L203.026,111.581 L203.024,111.582" id="Fill-364" fill="#90C680" sketch:type="MSShapeGroup"></path>
                <path d="M204.779,111.172 L204.946,111.183 C205.879,111.072 204.37,111.16 204.779,111.172" id="Fill-365" fill="#90C680" sketch:type="MSShapeGroup"></path>
                <path d="M203.219,111.224 C203.26,111.358 203.252,111.49 203.193,111.617 L203.334,111.493 C203.168,111.73 203.12,111.938 203.12,111.947 C203.219,111.512 203.44,111.317 203.786,111.364 C203.866,111.202 203.964,110.995 204.056,110.788 C203.816,111.046 203.327,110.887 203.219,111.224" id="Fill-366" fill="#90C680" sketch:type="MSShapeGroup"></path>
                <path d="M203.195,111.469 L203.244,111.433 L203.195,111.469" id="Fill-367" fill="#90C680" sketch:type="MSShapeGroup"></path>
                <path d="M202.699,114.382 L202.731,114.373 C202.809,114.489 202.823,114.498 202.837,114.502 C203.243,114.199 203.411,112.878 203.64,112.362 C202.105,112.651 202.813,114.329 202.699,114.382 C202.705,114.379 202.333,114.55 202.699,114.382" id="Fill-368" fill="#90C680" sketch:type="MSShapeGroup"></path>
                <path d="M203.205,121.313 L203.057,121.217 C203.027,121.201 202.964,121.241 202.878,121.335 L202.878,121.339 L203.4,121.648 C203.386,121.549 203.279,121.371 203.205,121.313" id="Fill-369" fill="#90C680" sketch:type="MSShapeGroup"></path>
                <path d="M201.208,122.974 L201.146,122.956 C201.14,123.081 201.128,123.766 201.316,123.813 C201.315,123.622 201.313,123.424 201.311,123.223 L201.231,123.198 L201.293,123.006 L201.208,122.974" id="Fill-370" fill="#90C680" sketch:type="MSShapeGroup"></path>
                <path d="M204.001,122.219 L204.009,122.218 C204.642,122.807 203.916,121.488 203.387,121.495 C203.645,121.617 203.805,122.189 204.001,122.219" id="Fill-371" fill="#90C680" sketch:type="MSShapeGroup"></path>
                <path d="M206.123,122.621 C206.85,122.693 205.984,121.785 205.317,122.498 L205.331,122.492 L205.34,122.549 C205.458,122.817 205.913,122.597 206.123,122.621 C206.85,122.693 205.913,122.597 206.123,122.621" id="Fill-372" fill="#90C680" sketch:type="MSShapeGroup"></path>
                <path d="M200.939,125.612 L200.976,125.683 L200.978,125.68 L200.939,125.587 L200.939,125.612" id="Fill-373" fill="#90C680" sketch:type="MSShapeGroup"></path>
                <path d="M201.124,124.73 L201.046,124.813 C201.044,124.816 201.253,124.853 201.124,124.73" id="Fill-374" fill="#90C680" sketch:type="MSShapeGroup"></path>
                <path d="M200.974,125.502 L200.907,125.284 L200.974,125.502" id="Fill-375" fill="#90C680" sketch:type="MSShapeGroup"></path>
                <path d="M200.977,125.612 C201.023,125.746 200.975,125.555 200.966,125.564 L200.977,125.612" id="Fill-376" fill="#90C680" sketch:type="MSShapeGroup"></path>
                <path d="M200.907,125.087 L200.966,125.364 C200.971,125.266 200.95,125.173 200.907,125.087" id="Fill-377" fill="#90C680" sketch:type="MSShapeGroup"></path>
                <path d="M124.388,34.589 L118.77,20.149 L118.456,19.34 L101.484,19.34 C101.721,23.846 103.702,27.895 106.764,30.82 C107.207,31.244 107.672,31.644 108.16,32.022 C111.054,34.253 114.686,35.586 118.625,35.586 C120.647,35.586 122.586,35.233 124.388,34.589" id="Fill-378" fill="#48ADA6" sketch:type="MSShapeGroup"></path>
                <path d="M119.059,0.466 C117.337,0.466 115.678,0.719 114.108,1.191 C113.517,1.368 112.939,1.573 112.379,1.812 C108.871,3.293 105.973,5.912 104.115,9.196 C104.115,9.196 103.741,9.805 103.309,10.807 L103.303,10.807 L103.269,10.899 C103.1,11.295 102.93,11.746 102.765,12.251 L102.759,12.263 C102.597,12.758 102.442,13.291 102.315,13.872 C102.108,14.793 101.968,15.737 101.917,16.708 L119.106,16.708 L119.831,15.898 L130.062,4.455 C127.081,1.965 123.247,0.46 119.059,0.466" id="Fill-379" fill="#33706C" sketch:type="MSShapeGroup"></path>
                <path d="M121.22,19.161 L126.88,33.699 C132.36,31.052 136.218,25.575 136.557,19.161 C136.57,18.918 136.575,18.679 136.576,18.436 L120.942,18.436 L121.22,19.161" id="Fill-380" fill="#202732" sketch:type="MSShapeGroup"></path>
                <path d="M135.381,3.847 L125.21,14.528 L124.203,15.589 L139.779,14.252 C139.52,10.274 137.919,6.643 135.381,3.847" id="Fill-381" fill="#FFFFFF" sketch:type="MSShapeGroup"></path>
                <path d="M17.161,108.411 C14.879,108.439 12.919,108.747 10.908,109.489 C8.848,110.362 7.167,111.413 5.425,112.887 C3.87,114.298 2.577,116.126 1.662,118.127 C0.685,120.262 0.207,122.303 0.1,124.531 C0.123,126.813 0.431,128.768 1.17,130.781 C1.93,132.775 2.973,134.475 4.449,136.207 C5.992,137.825 7.688,139.054 9.82,140.029 C11.824,140.945 13.945,141.613 16.227,141.593 C18.372,141.518 20.338,141.193 22.341,140.463 C24.48,139.766 26.159,138.721 27.898,137.244 C29.502,135.702 30.619,133.952 31.714,131.871 L16.692,125.002 L23.564,109.977 C21.431,109.001 19.335,108.651 17.161,108.411" id="Fill-382" fill="#ACDBDB" sketch:type="MSShapeGroup"></path>
                <path d="M28.938,113.797 C27.345,112.314 25.567,110.893 23.564,109.977 L16.692,125.002 L31.714,131.871 C32.629,129.87 33.164,127.695 33.224,125.601 C33.202,123.318 32.897,121.359 32.079,119.17 C31.328,117.166 30.28,115.482 28.938,113.797" id="Fill-383" fill="#D5483E" sketch:type="MSShapeGroup"></path>
                <path d="M28.938,113.797 C30.28,115.482 31.328,117.166 32.079,119.17 C32.897,121.359 33.202,123.318 33.224,125.601 C33.164,127.695 32.629,129.87 31.714,131.871 L16.692,125.002 L23.564,109.977 C25.567,110.893 27.345,112.314 28.938,113.797" id="Fill-384" fill="#516386" sketch:type="MSShapeGroup"></path>
                <path d="M146.395,223.3 L126.621,243.074 L108.098,224.552 L132.68,199.968 L146.829,214.117" id="Fill-385" fill="#FFFFFF" sketch:type="MSShapeGroup"></path>
                <path d="M146.83,214.117 L146.395,223.3 L142.021,218.927 L146.83,214.117" id="Fill-386" fill="#ADADAA" sketch:type="MSShapeGroup"></path>
                <path d="M50.646,27.11 L34.696,31.045 C31.607,31.808 29.704,34.958 30.466,38.047 L37.259,65.582 C38.021,68.671 41.172,70.575 44.261,69.813 L60.21,65.878 C63.299,65.115 65.203,61.964 64.44,58.875 L57.646,31.34 C56.885,28.251 53.734,26.348 50.646,27.11" id="Fill-387" fill="#3A3B39" sketch:type="MSShapeGroup"></path>
                <path d="M55.052,29.472 L31.894,35.186 L31.832,35.288 L39.672,67.064 L39.774,67.125 L62.933,61.412 L62.994,61.31 L55.154,29.534 L55.052,29.472" id="Fill-388" fill="#545B67" sketch:type="MSShapeGroup"></path>
                <path d="M45.889,29.301 L39.926,30.772 C39.764,30.813 39.664,30.977 39.704,31.139 C39.744,31.3 39.909,31.4 40.071,31.36 L46.034,29.889 C46.195,29.849 46.295,29.684 46.255,29.522 C46.215,29.36 46.05,29.261 45.889,29.301" id="Fill-389" fill="#545B67" sketch:type="MSShapeGroup"></path>
                <path d="M52.026,66.995 C52.573,66.86 52.91,66.304 52.775,65.757 C52.64,65.209 52.083,64.873 51.535,65.008 C50.988,65.143 50.652,65.7 50.788,66.247 C50.922,66.794 51.479,67.13 52.026,66.995" id="Fill-390" fill="#545B67" sketch:type="MSShapeGroup"></path>
                <path d="M39.693,67.146 L63.014,61.392 L55.133,29.451 L31.812,35.205 L39.693,67.146" id="Fill-391" fill="#FFFFFF" sketch:type="MSShapeGroup"></path>
                <path d="M32.194,36.757 L55.516,31.002 L55.133,29.451 L31.812,35.205 L32.194,36.757" id="Fill-392" fill="#48ADA6" sketch:type="MSShapeGroup"></path>
                <path d="M39.244,38.524 L50.097,35.846 L49.514,33.484 L38.661,36.162 L39.244,38.524" id="Fill-393" fill="#33706C" sketch:type="MSShapeGroup"></path>
                <path d="M35.299,49.341 L58.621,43.586 L57.015,37.075 L33.693,42.829 L35.299,49.341" id="Fill-394" fill="#48ADA6" sketch:type="MSShapeGroup"></path>
                <path d="M37.961,40.872 L52.324,37.328 L52.08,36.337 L37.717,39.881 L37.961,40.872" id="Fill-395" fill="#8DB4D3" sketch:type="MSShapeGroup"></path>
                <path d="M38.332,55.563 L44.189,54.117 L42.89,48.855 L37.034,50.3 L38.332,55.563" id="Fill-396" fill="#E3BF2B" sketch:type="MSShapeGroup"></path>
                <path d="M45.653,53.756 L51.51,52.312 L50.211,47.049 L44.355,48.494 L45.653,53.756" id="Fill-397" fill="#DE4446" sketch:type="MSShapeGroup"></path>
                <path d="M52.974,51.95 L58.83,50.505 L57.531,45.242 L51.675,46.688 L52.974,51.95" id="Fill-398" fill="#33706C" sketch:type="MSShapeGroup"></path>
                <path d="M39.693,67.146 L63.014,61.392 L62.314,58.552 L38.992,64.307 L39.693,67.146" id="Fill-399" fill="#48ADA6" sketch:type="MSShapeGroup"></path>
                <path d="M38.755,57.275 L44.611,55.831 L44.368,54.841 L38.511,56.286 L38.755,57.275" id="Fill-400" fill="#8DB4D3" sketch:type="MSShapeGroup"></path>
                <path d="M39.175,58.977 L45.031,57.532 L44.787,56.541 L38.93,57.986 L39.175,58.977" id="Fill-401" fill="#8DB4D3" sketch:type="MSShapeGroup"></path>
                <path d="M39.595,60.678 L45.451,59.233 L45.207,58.243 L39.351,59.688 L39.595,60.678" id="Fill-402" fill="#8DB4D3" sketch:type="MSShapeGroup"></path>
                <path d="M40.014,62.379 L43.722,61.464 L43.478,60.475 L39.77,61.389 L40.014,62.379" id="Fill-403" fill="#8DB4D3" sketch:type="MSShapeGroup"></path>
                <path d="M46.076,55.469 L51.932,54.024 L51.688,53.034 L45.832,54.479 L46.076,55.469" id="Fill-404" fill="#8DB4D3" sketch:type="MSShapeGroup"></path>
                <path d="M46.495,57.17 L52.352,55.725 L52.107,54.735 L46.251,56.18 L46.495,57.17" id="Fill-405" fill="#8DB4D3" sketch:type="MSShapeGroup"></path>
                <path d="M46.916,58.872 L52.771,57.427 L52.527,56.437 L46.671,57.881 L46.916,58.872" id="Fill-406" fill="#8DB4D3" sketch:type="MSShapeGroup"></path>
                <path d="M47.335,60.573 L51.043,59.658 L50.799,58.668 L47.091,59.583 L47.335,60.573" id="Fill-407" fill="#8DB4D3" sketch:type="MSShapeGroup"></path>
                <path d="M53.396,53.664 L59.252,52.218 L59.008,51.229 L53.151,52.673 L53.396,53.664" id="Fill-408" fill="#8DB4D3" sketch:type="MSShapeGroup"></path>
                <path d="M53.815,55.364 L59.672,53.919 L59.428,52.929 L53.571,54.374 L53.815,55.364" id="Fill-409" fill="#8DB4D3" sketch:type="MSShapeGroup"></path>
                <path d="M54.235,57.065 L60.092,55.621 L59.848,54.631 L53.991,56.076 L54.235,57.065" id="Fill-410" fill="#8DB4D3" sketch:type="MSShapeGroup"></path>
                <path d="M54.655,58.767 L58.363,57.852 L58.119,56.862 L54.411,57.777 L54.655,58.767" id="Fill-411" fill="#8DB4D3" sketch:type="MSShapeGroup"></path>
                <path d="M56.041,39.724 L56.004,39.439 L56.289,39.403 L56.957,39.916 L56.974,39.93 L56.974,39.931 L56.98,39.937 L56.988,39.945 L56.993,39.952 L56.996,39.955 L57.009,39.974 L57.01,39.977 L57.022,40.001 L57.023,40.003 L57.031,40.023 L57.032,40.027 L57.032,40.03 L57.033,40.034 L57.035,40.055 L57.036,40.057 L57.037,40.085 L57.037,40.087 L57.034,40.11 L57.033,40.115 L57.032,40.123 L57.031,40.125 L57.029,40.132 L57.026,40.143 L57.026,40.144 L57.018,40.164 L56.665,40.928 C56.619,41.03 56.499,41.074 56.396,41.028 C56.295,40.982 56.25,40.861 56.296,40.759 L56.582,40.14 L56.041,39.724" id="Fill-412" fill="#FFFFFF" sketch:type="MSShapeGroup"></path>
                <path d="M35.417,44.553 C35.463,44.451 35.584,44.406 35.687,44.453 C35.788,44.5 35.833,44.62 35.786,44.721 L35.5,45.342 L36.042,45.757 L36.078,46.041 L35.794,46.078 L35.126,45.565 L35.11,45.551 L35.108,45.55 L35.102,45.543 L35.096,45.537 L35.095,45.536 L35.089,45.529 L35.086,45.525 L35.073,45.506 L35.073,45.505 L35.061,45.479 L35.06,45.478 L35.054,45.457 L35.051,45.453 L35.051,45.446 L35.047,45.426 L35.047,45.423 L35.046,45.396 L35.045,45.393 L35.049,45.371 L35.049,45.366 L35.051,45.358 L35.052,45.356 L35.053,45.348 L35.056,45.339 L35.057,45.337 L35.065,45.316 L35.417,44.553" id="Fill-413" fill="#FFFFFF" sketch:type="MSShapeGroup"></path>
                <path d="M126.701,235.915 L126.032,224.669 L134.413,226.06 L134.071,220.816 L137.339,221.467 L133.277,208.349 L132.269,208.661 L135.806,220.085 L132.929,219.512 L133.273,224.801 L124.9,223.411 L125.647,235.978 L126.701,235.915" id="Fill-414" fill="#393F45" sketch:type="MSShapeGroup"></path>
                <path d="M131.831,205.462 C132.805,206.729 134.262,208.226 135.563,209.029 L132.896,208.904 L130.768,210.514 C131.387,209.115 131.743,207.059 131.831,205.462" id="Fill-415" fill="#393F45" sketch:type="MSShapeGroup"></path>
                <path d="M113.229,223.04 L127.883,238.482 L128.649,237.756 L113.995,222.313" id="Fill-416" fill="#393F45" sketch:type="MSShapeGroup"></path>
                <path d="M125.016,239.123 L142.743,221.396 L141.996,220.649 L124.269,238.377" id="Fill-417" fill="#393F45" sketch:type="MSShapeGroup"></path>
                <path d="M196.327,198.52 C200.388,187.305 200.495,184.843 203.045,171.8 C203.278,170.575 197.932,169.069 197.494,170.244 C192.859,182.691 191.67,184.85 189.278,196.536 C189.556,204.551 191.904,205.22 196.327,198.52" id="Fill-418" fill="#ACDBDB" sketch:type="MSShapeGroup"></path>
                <path d="M194.755,206.265 L199.924,189.334 C200.086,188.746 199.765,188.462 199.205,188.7 C199.205,188.7 196.964,189.652 195.162,189.145 C193.362,188.639 191.95,186.657 191.95,186.657 C191.595,186.159 191.169,186.236 191.003,186.819 L186.569,203.962 C186.436,204.555 186.778,205.227 187.343,205.461 L193.31,207.461 C193.919,207.384 194.562,206.845 194.755,206.265" id="Fill-419" fill="#ACDBDB" sketch:type="MSShapeGroup"></path>
                <path d="M199.502,189.332 C199.67,189.263 199.817,189.234 199.938,189.242 C200.046,188.718 199.733,188.473 199.205,188.7 C199.205,188.7 196.964,189.652 195.162,189.145 C193.362,188.639 191.95,186.657 191.95,186.657 C191.618,186.187 191.222,186.235 191.035,186.736 C191.146,186.794 191.255,186.896 191.362,187.046 C191.362,187.046 192.946,189.264 194.965,189.835 C196.991,190.405 199.502,189.332 199.502,189.332" id="Fill-420" fill="#40888A" sketch:type="MSShapeGroup"></path>
                <path d="M193.78,207.332 C192.611,207.805 191.286,207.916 189.98,207.547 C188.672,207.181 187.603,206.394 186.852,205.385 C186.587,212.046 190.535,212.988 193.78,207.332" id="Fill-421" fill="#326065" sketch:type="MSShapeGroup"></path>
                <path d="M193.786,207.506 C194.366,207.316 194.912,206.966 195.003,206.713 C195.09,206.467 194.847,205.971 194.276,206.166 C194.276,206.166 192.045,206.938 190.279,206.438 C188.526,205.938 187.033,204.151 187.033,204.151 C186.639,203.686 186.279,203.515 186.225,203.771 C186.17,204.032 186.353,205.085 186.749,205.545 C186.749,205.545 188.211,207.24 189.917,207.72 C191.635,208.205 193.786,207.506 193.786,207.506" id="Fill-422" fill="#40888A" sketch:type="MSShapeGroup"></path>
                <g id="Group-425" transform="translate(197.000000, 169.000000)">
                    <mask id="mask-2" sketch:name="Clip 424" fill="white">
                        <use xlink:href="#path-1"></use>
                    </mask>
                    <g id="Clip-424"></g>
                    <path d="M0.479,1.23 C0.678,0.534 2.084,0.322 3.628,0.757 C5.166,1.191 6.257,2.109 6.059,2.809 C5.86,3.506 4.453,3.717 2.916,3.281 C1.372,2.852 0.286,1.931 0.479,1.23" id="Fill-423" sketch:type="MSShapeGroup" mask="url(#mask-2)"></path>
                </g>
                <path d="M197.264,170.873 C197.463,170.164 198.484,168.334 200.049,168.773 C201.376,169.149 202.893,171.022 203.038,171.668 C203.062,171.781 202.94,172.361 202.916,172.462 C202.716,173.174 201.288,173.386 199.726,172.948 C198.17,172.513 197.06,171.582 197.264,170.873" id="Fill-426" fill="#40888A" sketch:type="MSShapeGroup"></path>
                <g id="Group-429" transform="translate(197.000000, 163.000000)">
                    <mask id="mask-4" sketch:name="Clip 428" fill="white">
                        <use xlink:href="#path-3"></use>
                    </mask>
                    <g id="Clip-428"></g>
                    <path d="M0.717,6.908 C0.604,6.999 0.517,7.106 0.479,7.23 C0.286,7.931 1.372,8.852 2.916,9.281 C4.453,9.717 5.86,9.506 6.059,8.809 C6.094,8.675 6.076,8.542 6.029,8.401 L5.44,0.316 L0.717,6.908" id="Fill-427" sketch:type="MSShapeGroup" mask="url(#mask-4)"></path>
                </g>
                <path d="M197.717,169.908 C197.604,169.999 197.517,170.106 197.479,170.23 C197.286,170.931 198.372,171.852 199.916,172.281 C201.453,172.717 202.86,172.506 203.059,171.809 C203.094,171.675 203.076,171.542 203.029,171.401 L202.44,163.316 L197.717,169.908" id="Fill-430" fill="#326065" sketch:type="MSShapeGroup"></path>
                <path d="M201.923,165.079 C202.141,165.139 202.362,165.157 202.568,165.125 C202.568,165.125 202.823,163.429 202.44,163.316 C202.064,163.212 201.371,164.799 201.371,164.799 C201.54,164.923 201.719,165.016 201.923,165.079" id="Fill-431" fill="#ACDBDB" sketch:type="MSShapeGroup"></path>
                <path d="M207.047,64.037 C207.057,64.636 207.556,65.118 208.155,65.108 L211.633,65.05 C212.232,65.041 212.714,64.542 212.704,63.943 L212.297,39.352 C212.287,38.753 211.789,38.271 211.189,38.281 L207.711,38.338 C207.112,38.348 206.63,38.847 206.64,39.446 L207.047,64.037" id="Fill-432" fill="#FFFFFF" sketch:type="MSShapeGroup"></path>
                <path d="M199.142,64.294 C199.152,64.893 199.65,65.375 200.25,65.365 L203.732,65.308 C204.331,65.298 204.813,64.8 204.803,64.201 L204.481,44.815 C204.472,44.216 203.973,43.734 203.374,43.744 L199.893,43.803 C199.294,43.813 198.812,44.311 198.822,44.91 L199.142,64.294" id="Fill-433" fill="#33706C" sketch:type="MSShapeGroup"></path>
                <path d="M191.244,64.679 C191.253,65.278 191.752,65.761 192.351,65.75 L195.826,65.694 C196.425,65.684 196.907,65.186 196.897,64.586 L196.652,49.784 C196.643,49.185 196.144,48.703 195.545,48.713 L192.07,48.771 C191.471,48.781 190.989,49.279 190.999,49.878 L191.244,64.679" id="Fill-434" fill="#48ADA6" sketch:type="MSShapeGroup"></path>
                <path d="M183.336,64.684 C183.346,65.283 183.845,65.765 184.444,65.755 L187.921,65.698 C188.52,65.688 189.002,65.189 188.992,64.59 L188.819,54.193 C188.81,53.594 188.311,53.112 187.712,53.122 L184.236,53.179 C183.637,53.189 183.155,53.688 183.165,54.287 L183.336,64.684" id="Fill-435" fill="#202732" sketch:type="MSShapeGroup"></path>
                <path d="M56.401,192.827 C56.725,202.88 48.837,211.291 38.785,211.614 C28.732,211.938 20.321,204.052 19.998,193.998 C19.674,183.945 27.562,175.534 37.614,175.211 C47.667,174.887 56.078,182.774 56.401,192.827" id="Fill-436" fill="#ACDBDB" sketch:type="MSShapeGroup"></path>
                <path d="M40.922,183.662 L39.598,183.348 L37.942,186.594 L36.347,183.378 C36.347,183.378 35.425,183.474 35.135,183.575 C34.894,183.659 34.459,183.953 34.471,184.347 L34.719,191.744 C34.728,191.997 34.864,192.214 35.06,192.335 L35.053,192.451 C35.067,192.876 35.382,193.212 35.756,193.2 C35.891,193.196 36.015,193.145 36.118,193.063 L36.415,202.047 L38.349,201.996 L38.2,193.413 L38.656,201.948 L40.783,201.893 L40.523,193.165 C40.63,193.236 40.752,193.278 40.884,193.275 C41.258,193.265 41.553,192.91 41.542,192.484 L41.528,192.369 C41.717,192.237 41.838,192.013 41.832,191.76 L41.637,184.36 C41.627,183.964 41.339,183.792 40.922,183.662" id="Fill-437" fill="#193737" sketch:type="MSShapeGroup"></path>
                <path d="M39.874,181.003 C39.911,182.171 39.08,183.146 38.015,183.181 C36.954,183.214 36.061,182.295 36.023,181.127 C35.985,179.96 36.817,178.983 37.879,178.95 C38.943,178.915 39.836,179.835 39.874,181.003" id="Fill-438" fill="#193737" sketch:type="MSShapeGroup"></path>
                <path d="M44.263,206.277 L48.085,204.025 L44.157,201.81 L44.188,203.056 L37.519,203.213 L37.565,205.117 L44.233,204.961 L44.263,206.277" id="Fill-439" fill="#40888A" sketch:type="MSShapeGroup"></path>
                <path d="M33.323,206.63 L29.365,204.628 L33.141,202.163 L33.192,203.409 L39.856,203.137 L39.935,205.04 L33.27,205.313 L33.323,206.63" id="Fill-440" fill="#40888A" sketch:type="MSShapeGroup"></path>
                <path d="M59.046,101.478 C54.985,100.965 51.821,97.487 51.777,93.238 C51.732,88.607 55.41,84.811 59.997,84.763 C60.027,84.762 60.057,84.762 60.086,84.762 C64.631,84.762 68.338,88.461 68.388,93.064 C68.43,97.314 65.341,100.857 61.292,101.455 L61.283,100.624 L59.037,100.647 L59.046,101.478 M60.083,86.327 L60.012,86.327 C56.281,86.364 53.287,89.453 53.329,93.222 C53.365,96.967 56.382,99.979 60.081,99.979 C60.105,99.979 60.13,99.979 60.154,99.978 C63.883,99.939 66.877,96.851 66.837,93.081 C66.799,89.335 63.781,86.327 60.083,86.327" id="Fill-442" fill="#E98370" sketch:type="MSShapeGroup"></path>
                <path d="M59.067,103.616 L59.046,101.478 L59.037,100.647 L61.283,100.624 L61.292,101.455 L61.314,103.594 C61.009,103.351 60.624,103.206 60.208,103.206 L60.187,103.206 C59.761,103.21 59.372,103.363 59.067,103.616" id="Fill-443" fill="#E98370" sketch:type="MSShapeGroup"></path>
                <path d="M60.281,114.544 C59.299,114.544 58.498,113.745 58.488,112.749 L58.409,105.038 C58.404,104.466 58.661,103.953 59.067,103.616 C59.372,103.363 59.761,103.21 60.187,103.206 L60.208,103.206 C60.624,103.206 61.009,103.351 61.314,103.594 C61.726,103.922 61.993,104.429 62,105 L62.079,112.712 C62.088,113.713 61.293,114.536 60.303,114.544 L60.281,114.544" id="Fill-444" fill="#E98370" sketch:type="MSShapeGroup"></path>
                <path d="M55.548,92.385 C55.094,92.385 54.677,92.079 54.552,91.614 C54.403,91.058 54.729,90.485 55.28,90.334 C55.37,90.31 55.461,90.298 55.55,90.298 C56.005,90.298 56.423,90.604 56.547,91.069 C56.697,91.626 56.371,92.198 55.819,92.349 C55.729,92.374 55.638,92.385 55.548,92.385" id="Fill-445" fill="#E98370" sketch:type="MSShapeGroup"></path>
                <path d="M171.948,99.001 L171.948,99.001 L172.445,98.307 L166.572,94.078 L174.264,83.344 L180.138,87.571 L176.713,92.351 C175.986,92.166 175.205,92.066 174.376,92.063 L174.368,95.048 C174.506,95.049 174.641,95.052 174.773,95.059 L171.948,99.001" id="Fill-446" fill="#E98370" sketch:type="MSShapeGroup"></path>
                <path d="M170.21,101.424 L164.338,97.195 L166.571,94.078 L166.572,94.078 L172.445,98.307 L171.948,99.001 L170.21,101.424" id="Fill-447" fill="#E98370" sketch:type="MSShapeGroup"></path>
                <path d="M165.27,114.025 L165.281,109.424 L174.33,109.448 L174.322,112.688 L174.321,112.688 L165.27,114.025" id="Fill-448" fill="#E98370" sketch:type="MSShapeGroup"></path>
                <path d="M174.416,109.448 L174.33,109.448 L165.281,109.424 L161.401,109.414 L161.411,106.174 L174.427,106.208 L174.445,106.208 C177.83,106.207 179.846,103.653 179.853,100.644 C179.86,97.732 178.358,95.241 174.773,95.059 C174.641,95.052 174.506,95.049 174.368,95.048 L174.376,92.063 C175.205,92.066 175.986,92.166 176.713,92.351 C180.519,93.32 182.841,96.628 182.831,100.543 C182.819,104.919 179.518,108.772 175.241,109.19 L174.416,109.448" id="Fill-449" fill="#E98370" sketch:type="MSShapeGroup"></path>
                <path d="M182.718,115.949 L161.384,115.894 L161.389,114.598 L165.27,114.025 L174.321,112.688 L174.322,112.688 L182.721,114.654 L182.718,115.949" id="Fill-450" fill="#E98370" sketch:type="MSShapeGroup"></path>
            </g>
        </g>
    </g>
</svg>