<?xml version="1.0" encoding="utf-8"?>
<!-- Generator: Adobe Illustrator 18.1.1, SVG Export Plug-In . SVG Version: 6.00 Build 0)  -->
<!DOCTYPE svg PUBLIC "-//W3C//DTD SVG 1.1//EN" "http://www.w3.org/Graphics/SVG/1.1/DTD/svg11.dtd">
<svg version="1.1" id="Server" xmlns="http://www.w3.org/2000/svg" xmlns:xlink="http://www.w3.org/1999/xlink" x="0px" y="0px"
	 viewBox="0 0 123.8 131.7" enable-background="new 0 0 123.8 131.7" xml:space="preserve">
<path fill="#F8B317" d="M62.6,50.5c2.2-0.9,3-3,2.2-5l-8.3-21.2c-0.8-2-3-3-5-2.2c-8.6,3.4-13.1,10.4-14.5,15.2
	c-1.5,4.9-1,19.5,6,37.5c6.9,17.7,16.3,28.6,20.8,31.5c2.3,1.5,5.5,2.8,9.3,3.3c2.3,0.3,4.8,0.2,7.5-0.3c1.5-0.3,3-0.7,4.6-1.3l0,0
	c2-0.8,3-3,2.2-5L79,81.8c-0.8-2-2.8-3.1-5-2.2c-4.5,1.8-10,3.7-11.8,1.8c-1.9-1.9-4.6-6.6-6.5-11.5c-1.8-4.7-3.2-9.6-3-12.6
	C52.8,54.3,58,52.3,62.6,50.5z"/>
<g>
	<path fill="#F8B317" d="M61.9,124.4c-32.3,0-58.6-26.3-58.6-58.6c0-32.3,26.3-58.6,58.6-58.6s58.6,26.3,58.6,58.6
		C120.5,98.1,94.2,124.4,61.9,124.4z M61.9,14.2c-28.4,0-51.6,23.1-51.6,51.6c0,28.4,23.1,51.6,51.6,51.6s51.6-23.1,51.6-51.6
		C113.5,37.4,90.4,14.2,61.9,14.2z"/>
</g>
</svg>
