<?xml version="1.0" encoding="UTF-8" standalone="no"?>
<svg width="508px" height="362px" viewBox="0 0 508 362" version="1.1" xmlns="http://www.w3.org/2000/svg" xmlns:xlink="http://www.w3.org/1999/xlink" xmlns:sketch="http://www.bohemiancoding.com/sketch/ns">
    <!-- Generator: Sketch 3.3.3 (12081) - http://www.bohemiancoding.com/sketch -->
    <title>devices</title>
    <desc>Created with Sketch.</desc>
    <defs></defs>
    <g id="Page-1" stroke="none" stroke-width="1" fill="none" fill-rule="evenodd" sketch:type="MSPage">
        <g id="devices" sketch:type="MSLayerGroup">
            <g id="Page-1" sketch:type="MSShapeGroup">
                <g id="devices">
                    <g id="tour">
                        <g id="Rectangle-100-+-Rectangle-12-Copy-4-+-Rectangle-89-+-Rectangle-17-+-Imported-Layers-Copy-8-+-Group">
                            <g id="Group">
                                <g id="Rectangle-100-+-Rectangle-12-Copy-4" transform="translate(62.000000, 0.000000)">
                                    <rect id="Rectangle-100" fill="#FFFFFF" x="12" y="14" width="370" height="232"></rect>
                                    <rect id="Rectangle-101" fill="#FFFFFF" x="165" y="243" width="75" height="53"></rect>
                                    <g id="Rectangle-12-Copy-2">
                                        <g id="path-1-link" fill="#232C2A">
                                            <path d="M48,272 L32,272 L32,261.780212 C14.0019465,259.789997 0,244.52798 0,226 L16,226 C16,237.028 24.972,246 36,246 L36,248 L36,246 L360,246 C371.028,246 380,237.028 380,226 L396,226 C396,244.52798 381.998053,259.789997 364,261.780212 L364,266 L348,266 L348,262 L48,262 L48,272 L48,272 Z M396,36 L380,36 C380,24.972 371.028,16 360,16 L360,0 C379.88,0 396,16.12 396,36 L396,36 L396,36 Z M0,36 L16,36 C16,24.972 24.972,16 36,16 L36,0 C16.12,0 0,16.12 0,36 L0,36 L0,36 Z M0,36 L16,36 L16,206 L0,206 L0,36 L0,36 Z M396,36 L396,226 L380,226 L380,36 L396,36 L396,36 Z M36,0 L360,0 L360,16 L36,16 L36,0 L36,0 Z" id="path-1"></path>
                                        </g>
                                        <path d="M48,272 L32,272 L32,261.780212 C14.0019465,259.789997 0,244.52798 0,226 L16,226 C16,237.028 24.972,246 36,246 L36,248 L36,246 L360,246 C371.028,246 380,237.028 380,226 L396,226 C396,244.52798 381.998053,259.789997 364,261.780212 L364,266 L348,266 L348,262 L48,262 L48,272 L48,272 Z M396,36 L380,36 C380,24.972 371.028,16 360,16 L360,0 C379.88,0 396,16.12 396,36 L396,36 L396,36 Z M0,36 L16,36 C16,24.972 24.972,16 36,16 L36,0 C16.12,0 0,16.12 0,36 L0,36 L0,36 Z M0,36 L16,36 L16,206 L0,206 L0,36 L0,36 Z M396,36 L396,226 L380,226 L380,36 L396,36 L396,36 Z M36,0 L360,0 L360,16 L36,16 L36,0 L36,0 Z" id="path-1"></path>
                                    </g>
                                    <rect id="Rectangle-94-Copy-3" fill="#232C2A" x="134" y="294" width="128" height="16" rx="8"></rect>
                                    <rect id="Rectangle-92-Copy-7" fill="#232C2A" x="154" y="260" width="16" height="50"></rect>
                                    <rect id="Rectangle-92-Copy-8" fill="#232C2A" x="226" y="260" width="16" height="50"></rect>
                                </g>
                                <g id="Rectangle-89-+-Rectangle-17-+-Imported-Layers-Copy-8" transform="translate(0.000000, 90.000000)">
                                    <rect id="Rectangle-89" fill="#FFFFFF" x="10" y="16" width="146" height="240"></rect>
                                    <path d="M148,224 L148,236 L164,236 L164,34 L163.945364,34 C162.907355,15.0500108 147.20889,0 128,0 L128,16 C139.028,16 148,24.972 148,36 L148,36 L148,208 L16,208 L16,36 L0,36 L0,236.660004 L0.00593085031,236.660004 C0.358004158,256.235559 16.3404693,272 36,272 L36,256 C24.972,256 16,247.028 16,236 L16,224 L148,224 L148,224 Z M0,36 L16,36 C16,24.972 24.972,16 36,16 L36,0 C16.12,0 0,16.12 0,36 L0,36 L0,36 Z M164,236 L148,236 C148,247.028 139.028,256 128,256 L128,272 C147.88,272 164,255.88 164,236 L164,236 L164,236 Z M36,0 L128,0 L128,16 L36,16 L36,0 L36,0 Z M36,256 L128,256 L128,272 L36,272 L36,256 L36,256 Z M82,248 C86.418278,248 90,244.418278 90,240 C90,235.581722 86.418278,232 82,232 C77.581722,232 74,235.581722 74,240 C74,244.418278 77.581722,248 82,248 L82,248 L82,248 Z" id="Rectangle-17" fill="#232C2A"></path>
                                </g>
                                <g id="watch" transform="translate(372.000000, 114.000000)">
                                    <rect id="Rectangle-94" fill="#232C2A" x="120" y="84" width="16" height="24" rx="4"></rect>
                                    <path d="M10,56 L10,188 L40,188 L40,228 L90,228 L90,188 L124,188 L124,56 L90,56 L90,0 L40,0 L40,56 L10,56 L10,56 Z" id="Rectangle-92" fill="#FFFFFF"></path>
                                    <path d="M16,176 C16,178.211511 17.788765,180 20,180 L108,180 C110.211511,180 112,178.211235 112,176 L112,68 C112,65.788489 110.211235,64 108,64 L20,64 C17.788489,64 16,65.788765 16,68 L16,176 L16,176 Z M20,48 L108,48 C119.045695,48 128,56.9498371 128,68 L128,176 C128,187.045695 119.050163,196 108,196 L20,196 C8.954305,196 0,187.050163 0,176 L0,68 C0,56.954305 8.94983712,48 20,48 L20,48 L20,48 Z" id="Shape" fill="#232C2A"></path>
                                    <rect id="Rectangle-94-Copy" fill="#232C2A" x="32" y="0" width="64" height="16"></rect>
                                    <rect id="Rectangle-92-Copy-3" fill="#232C2A" x="24" y="0" width="16" height="50"></rect>
                                    <rect id="Rectangle-92-Copy-4" fill="#232C2A" x="88" y="0" width="16" height="50"></rect>
                                    <rect id="Rectangle-94-Copy-2" fill="#232C2A" x="32" y="228" width="64" height="16"></rect>
                                    <rect id="Rectangle-92-Copy-5" fill="#232C2A" x="24" y="194" width="16" height="50"></rect>
                                    <rect id="Rectangle-92-Copy-6" fill="#232C2A" x="88" y="194" width="16" height="50"></rect>
                                </g>
                            </g>
                        </g>
                    </g>
                </g>
            </g>
        </g>
    </g>
</svg>