<?xml version="1.0" encoding="UTF-8" standalone="no"?>
<svg width="229px" height="400px" viewBox="0 0 229 400" version="1.1" xmlns="http://www.w3.org/2000/svg" xmlns:xlink="http://www.w3.org/1999/xlink" xmlns:sketch="http://www.bohemiancoding.com/sketch/ns">
    <!-- Generator: Sketch 3.3.3 (12081) - http://www.bohemiancoding.com/sketch -->
    <title>Untitled 2</title>
    <desc>Created with Sketch.</desc>
    <defs>
        <path d="M78.2528545,21.2686571 C76.3475015,21.2686571 75.6729133,20.6938286 75.6729133,19.067325 C75.6729133,18.5235242 76.0855604,16.7467813 76.6560897,14.2874295 C76.9180309,13.1524696 77.2248251,11.8329768 77.5621192,10.3240518 L76.065825,9.76555357 C74.1748251,12.3980071 72.2569134,13.5215357 69.659031,13.5215357 C66.0295309,13.5215357 63.5913251,10.929908 63.5913251,7.07431071 C63.5913251,6.79342857 63.6110604,6.51744554 63.6343838,6.24309554 C65.724531,6.13204911 67.8380015,5.98834196 69.9730015,5.81034107 L69.9676192,5.85606607 C69.9676192,7.86633304 71.3275604,9.26584464 73.2687957,9.26584464 C74.5677368,9.26584464 76.4623251,8.76940179 78.1344428,6.41129821 L78.2205605,6.29208661 L78.2510604,6.15164554 C78.3317956,5.78094643 78.4161193,5.35962321 78.5004428,4.9154375 C80.3537662,4.67864732 82.2178546,4.41409554 84.0945016,4.11851607 C82.3667662,11.4067545 82.1317369,16.0576402 82.1317369,17.9976865 C82.1317369,18.9040214 82.2375897,19.7564661 82.4457074,20.5370571 C80.9709428,21.0220688 79.5661486,21.2686571 78.2528545,21.2686571 L78.2528545,21.2686571 L78.2528545,21.2686571 Z M10.718678,14.1126946 C3.87770744,14.1126946 0.111854507,11.3887911 0.111854507,6.44885804 C0.111854507,4.75050089 0.511942743,2.87087679 0.956883923,0.888371429 C2.98423686,1.3488875 5.38656038,1.85839464 8.11900156,2.3777 C7.98982509,3.16645625 7.91088392,3.87682679 7.91088392,4.49084821 C7.91088392,7.3845875 9.58479568,9.04211875 12.5038251,9.04211875 C14.6603545,9.04211875 16.4419134,8.11945357 17.6601193,6.37210536 C18.0350898,5.83320357 18.419031,5.075475 18.7796487,4.14464464 C20.8608251,4.44185714 23.0460605,4.72600536 25.3245897,4.98565804 C25.0698251,5.62254196 24.8042956,6.21370089 24.5262074,6.75913482 C21.9642074,11.7056 17.4466192,14.1126946 10.718678,14.1126946 L10.718678,14.1126946 L10.718678,14.1126946 Z M55.6738838,13.5950223 C53.4312368,13.5950223 52.9719428,12.8193304 52.9719428,11.6533429 C52.9719428,11.0621839 53.144178,10.2750607 53.3612662,9.28380804 L53.4025309,9.10580714 C53.5765604,8.31541786 53.7505898,7.55605625 53.9192369,6.83425446 L53.9874133,6.53540893 C55.9860605,6.52071161 58.0134133,6.47661964 60.0658838,6.40313304 C59.838031,7.6132125 59.6747662,8.89841161 59.6747662,10.2489321 C59.6747662,11.2303866 59.7877957,12.0942625 60.021031,12.8683214 C58.3220015,13.3451679 56.8275016,13.5950223 55.6738838,13.5950223 L55.6738838,13.5950223 L55.6738838,13.5950223 Z M44.8499722,13.5950223 C42.575031,13.5950223 42.1085604,12.8193304 42.1085604,11.6533429 C42.1085604,10.7094482 42.4189427,9.556525 42.7436781,8.33991339 C42.9087368,7.71609375 43.0809722,7.05144821 43.2298838,6.36720625 C45.2626192,6.447225 47.334825,6.50111518 49.4447075,6.52887679 C49.1863546,7.81407589 48.9728545,9.19399107 48.9728545,10.655558 C48.9728545,11.3642955 49.0912663,12.0942625 49.3316781,12.8650554 C47.5877956,13.3565991 46.1148251,13.5950223 44.8499722,13.5950223 L44.8499722,13.5950223 L44.8499722,13.5950223 Z M31.5537663,13.5950223 C29.2303838,13.5950223 28.9343545,12.5988705 28.9343545,11.7251964 C28.9343545,10.9609357 29.2842074,9.52549732 29.7686192,7.544625 C29.9193251,6.92243839 30.086178,6.23819643 30.2602074,5.50496339 C32.1888839,5.68459732 34.1749721,5.84790089 36.2095015,5.98507589 C35.865031,7.68506607 35.6766486,9.16949554 35.6766486,10.3207857 C35.6766486,11.2075241 35.7825016,12.0567027 35.9924133,12.8568902 C34.5050898,13.3419018 32.9854721,13.5950223 31.5537663,13.5950223 L31.5537663,13.5950223 L31.5537663,13.5950223 Z" id="path-1"></path>
        <path d="M78.2528545,21.2686571 C76.3475015,21.2686571 75.6729133,20.6938286 75.6729133,19.067325 C75.6729133,18.5235242 76.0855604,16.7467813 76.6560897,14.2874295 C76.9180309,13.1524696 77.2248251,11.8329768 77.5621192,10.3240518 L76.065825,9.76555357 C74.1748251,12.3980071 72.2569134,13.5215357 69.659031,13.5215357 C66.0295309,13.5215357 63.5913251,10.929908 63.5913251,7.07431071 C63.5913251,6.79342857 63.6110604,6.51744554 63.6343838,6.24309554 C65.724531,6.13204911 67.8380015,5.98834196 69.9730015,5.81034107 L69.9676192,5.85606607 C69.9676192,7.86633304 71.3275604,9.26584464 73.2687957,9.26584464 C74.5677368,9.26584464 76.4623251,8.76940179 78.1344428,6.41129821 L78.2205605,6.29208661 L78.2510604,6.15164554 C78.3317956,5.78094643 78.4161193,5.35962321 78.5004428,4.9154375 C80.3537662,4.67864732 82.2178546,4.41409554 84.0945016,4.11851607 C82.3667662,11.4067545 82.1317369,16.0576402 82.1317369,17.9976865 C82.1317369,18.9040214 82.2375897,19.7564661 82.4457074,20.5370571 C80.9709428,21.0220688 79.5661486,21.2686571 78.2528545,21.2686571 L78.2528545,21.2686571 L78.2528545,21.2686571 Z M10.718678,14.1126946 C3.87770744,14.1126946 0.111854507,11.3887911 0.111854507,6.44885804 C0.111854507,4.75050089 0.511942743,2.87087679 0.956883923,0.888371429 C2.98423686,1.3488875 5.38656038,1.85839464 8.11900156,2.3777 C7.98982509,3.16645625 7.91088392,3.87682679 7.91088392,4.49084821 C7.91088392,7.3845875 9.58479568,9.04211875 12.5038251,9.04211875 C14.6603545,9.04211875 16.4419134,8.11945357 17.6601193,6.37210536 C18.0350898,5.83320357 18.419031,5.075475 18.7796487,4.14464464 C20.8608251,4.44185714 23.0460605,4.72600536 25.3245897,4.98565804 C25.0698251,5.62254196 24.8042956,6.21370089 24.5262074,6.75913482 C21.9642074,11.7056 17.4466192,14.1126946 10.718678,14.1126946 L10.718678,14.1126946 L10.718678,14.1126946 Z M55.6738838,13.5950223 C53.4312368,13.5950223 52.9719428,12.8193304 52.9719428,11.6533429 C52.9719428,11.0621839 53.144178,10.2750607 53.3612662,9.28380804 L53.4025309,9.10580714 C53.5765604,8.31541786 53.7505898,7.55605625 53.9192369,6.83425446 L53.9874133,6.53540893 C55.9860605,6.52071161 58.0134133,6.47661964 60.0658838,6.40313304 C59.838031,7.6132125 59.6747662,8.89841161 59.6747662,10.2489321 C59.6747662,11.2303866 59.7877957,12.0942625 60.021031,12.8683214 C58.3220015,13.3451679 56.8275016,13.5950223 55.6738838,13.5950223 L55.6738838,13.5950223 L55.6738838,13.5950223 Z M44.8499722,13.5950223 C42.575031,13.5950223 42.1085604,12.8193304 42.1085604,11.6533429 C42.1085604,10.7094482 42.4189427,9.556525 42.7436781,8.33991339 C42.9087368,7.71609375 43.0809722,7.05144821 43.2298838,6.36720625 C45.2626192,6.447225 47.334825,6.50111518 49.4447075,6.52887679 C49.1863546,7.81407589 48.9728545,9.19399107 48.9728545,10.655558 C48.9728545,11.3642955 49.0912663,12.0942625 49.3316781,12.8650554 C47.5877956,13.3565991 46.1148251,13.5950223 44.8499722,13.5950223 L44.8499722,13.5950223 L44.8499722,13.5950223 Z M31.5537663,13.5950223 C29.2303838,13.5950223 28.9343545,12.5988705 28.9343545,11.7251964 C28.9343545,10.9609357 29.2842074,9.52549732 29.7686192,7.544625 C29.9193251,6.92243839 30.086178,6.23819643 30.2602074,5.50496339 C32.1888839,5.68459732 34.1749721,5.84790089 36.2095015,5.98507589 C35.865031,7.68506607 35.6766486,9.16949554 35.6766486,10.3207857 C35.6766486,11.2075241 35.7825016,12.0567027 35.9924133,12.8568902 C34.5050898,13.3419018 32.9854721,13.5950223 31.5537663,13.5950223 L31.5537663,13.5950223 L31.5537663,13.5950223 Z" id="path-3"></path>
    </defs>
    <g id="Page-1" stroke="none" stroke-width="1" fill="none" fill-rule="evenodd" sketch:type="MSPage">
        <g id="flag" sketch:type="MSLayerGroup">
            <g id="tour">
                <g id="Group">
                    <g sketch:type="MSShapeGroup">
                        <rect id="Rectangle-87" fill="#FFFFFF" x="9" y="24" width="212" height="138"></rect>
                        <rect id="Rectangle-81" fill="#232C2A" x="0" y="10" width="221" height="16"></rect>
                        <rect id="Rectangle-81-Copy" fill="#232C2A" x="0" y="150" width="221" height="16"></rect>
                        <rect id="Rectangle-83" fill="#232C2A" x="0" y="10" width="16" height="152"></rect>
                        <rect id="Rectangle-83-Copy" fill="#232C2A" x="213" y="0" width="16" height="400" rx="8"></rect>
                    </g>
                    <g id="ul-logo-svg" transform="translate(23.000000, 60.000000)">
                        <g id="Uniqleads_Georgy-business-card-front-final-(updated)_with-bleedmark">
                            <path d="M79.0631765,21.650208 C77.8880294,23.3110054 76.4670883,24.161817 74.8864705,24.161817 C73.427853,24.161817 72.4141765,23.1281054 72.4141765,21.5016018 C72.4141765,18.8854786 74.4415295,16.8539821 77.3605588,16.8539821 C78.0889705,16.8539821 78.9393824,17.0009554 79.832853,17.3700214 C79.5493824,19.1043054 79.3071764,20.5413768 79.0631765,21.650208 M88.5899411,12.3892625 C87.4542647,11.9826366 86.1983823,11.7997366 84.9012352,11.7997366 C83.6022941,11.7997366 82.4271471,11.9826366 81.2914705,12.3892625 C79.7915883,11.7621768 78.2935001,11.4665973 76.7110882,11.4665973 C73.3471176,11.4665973 70.1840883,12.684842 67.8732647,14.8992384 C65.603706,17.077708 64.3872941,19.8065107 64.3872941,22.7214794 C64.3872941,27.0751526 67.2650588,29.9166349 71.2785,29.9166349 C74.2387942,29.9166349 76.3881471,28.5906097 78.3742353,25.8193482 C77.2385588,30.8768597 76.4670883,33.8277554 76.4670883,34.7128607 C76.4670883,36.7443571 77.5238236,37.6653893 79.8741177,37.6653893 C81.4547353,37.6653893 83.1986176,37.333883 85.0627058,36.6349437 C84.7379706,35.7465722 84.5764999,34.7520536 84.5764999,33.6432224 C84.5764999,29.4381554 85.5883824,22.0209071 88.5899411,12.3892625 M60.8205883,11.4290375 C59.4014411,11.4290375 57.5786176,11.7621768 55.4310589,12.4251893 C55.7952647,13.236808 55.9549412,14.0859866 55.9549412,15.0837714 C55.9549412,17.4810679 55.1045294,20.5805696 54.212853,24.6027365 C53.9706471,25.7099347 53.7661176,26.5950403 53.7661176,27.2972456 C53.7661176,29.142576 54.9035883,29.9917544 57.2933529,29.9917544 C58.7142941,29.9917544 60.5389118,29.6586153 62.6846765,28.9956026 C62.2810001,28.0729375 62.1177352,27.0408589 62.1177352,25.8961008 C62.1177352,20.8777821 64.3478236,16.7804955 64.3478236,14.0859866 C64.3478236,12.2782161 63.2121471,11.4290375 60.8205883,11.4290375 M61.3893235,8.88313482 C63.9010882,8.88313482 65.969706,7.03780446 65.969706,4.71399464 C65.969706,2.79517768 64.5505588,1.57856607 62.3617353,1.57856607 C59.9289117,1.57856607 57.8602942,3.45982321 57.8602942,5.71014643 C57.8602942,7.66652321 59.2399705,8.88313482 61.3893235,8.88313482 M47.120706,11.4290375 C44.1209411,11.4290375 41.768853,12.6472821 40.1057059,14.3097125 C39.9047648,12.3157759 38.5250883,11.4290375 35.8087942,11.4290375 C34.5941765,11.4290375 33.1750295,11.5776437 31.5926176,11.9826366 C31.8778824,12.7207687 31.9980883,13.4964607 31.9980883,14.3815661 C31.9980883,15.9672437 31.8366177,17.7407206 31.3916765,19.6219778 C30.4982059,23.570658 29.7285294,26.1149276 29.7285294,27.3707321 C29.7285294,29.1050161 30.9036764,29.9917544 33.1750295,29.9917544 C34.8758529,29.9917544 36.7417353,29.6586153 38.6058235,28.9564097 C38.2828824,28.0353778 38.1214118,27.0408589 38.1214118,25.9663214 C38.1214118,24.2336705 38.568147,21.3562617 39.7414999,17.4075812 C40.5524411,16.891542 41.3633823,16.6335223 42.0541176,16.6335223 C43.3907353,16.6335223 44.4044117,17.5545544 44.4044117,18.9573321 C44.4044117,22.0943937 42.9045294,25.0452893 42.9045294,27.2972456 C42.9045294,29.142576 44.0402059,29.9917544 46.4712352,29.9917544 C48.0123824,29.9917544 49.8370001,29.6586153 51.9845588,28.9956026 C51.6203529,28.0729375 51.4176177,27.186199 51.4176177,26.3010937 C51.4176177,22.5745062 52.8367647,19.3263982 52.8367647,16.7804955 C52.8367647,13.4605339 50.646147,11.4290375 47.120706,11.4290375 M25.9608824,3.90237589 C24.2977353,3.90237589 22.4336471,4.34492857 20.4457647,5.19410714 C21.1365,6.41235179 21.2979706,7.77756964 21.2979706,9.40080714 C21.2979706,15.3042312 19.7980882,19.8799974 18.5816765,21.6142813 C17.5285295,23.1281054 15.9891765,23.9380911 14.1232941,23.9380911 C11.6922647,23.9380911 10.3538529,22.6104331 10.3538529,20.1363839 C10.3538529,18.9214054 10.6767941,17.2965347 11.1235294,15.2323777 C11.9739412,11.5025241 12.7436176,8.84720804 12.7436176,7.07536429 C12.7436176,4.86096786 11.4464706,3.90237589 8.44670588,3.90237589 C6.74588236,3.90237589 4.83873529,4.27144196 2.68938235,4.97201429 C2.93338235,5.85875268 3.05538235,6.74385804 3.05538235,7.62896339 C3.05538235,13.236808 0.906029411,17.9971071 0.906029411,22.0943937 C0.906029411,27.3707321 4.92126471,30.5061607 12.3381471,30.5061607 C19.3926177,30.5061607 24.1775294,27.963524 26.8938235,22.7214794 C28.0277059,20.5070831 28.8799118,17.7407206 29.6083235,14.4566857 C30.1770589,11.8732232 30.4210588,9.84335982 30.4210588,8.36709554 C30.4210588,5.26759375 29.1221176,3.90237589 25.9608824,3.90237589" id="Fill-13" fill="#000000" sketch:type="MSShapeGroup"></path>
                            <path d="M175.256588,17.2246812 C175.256588,17.8517669 175.943735,18.3661732 177.081205,19.2545446 C178.904029,20.693249 180.122236,21.6877679 180.122236,23.6800714 C180.122236,25.768724 178.814324,27.6695776 176.584235,28.9057857 C176.184147,28.7653446 175.748176,28.6575643 175.276323,28.5824446 C174.163971,28.4060768 172.504412,28.4909946 169.766588,28.6330687 C168.767264,28.6836929 167.604676,28.7424821 166.327265,28.7963722 C166.208853,28.5187562 166.133501,28.2084794 166.133501,27.8508446 C166.133501,26.9281794 166.619706,25.8961008 167.471912,24.6419294 C168.688323,25.3767955 169.944205,25.7099347 171.162412,25.7099347 C172.215559,25.7099347 172.782499,25.2673821 172.782499,24.6027365 C172.782499,23.9756508 172.01103,23.4579786 170.796412,22.4634597 C169.093794,21.0214893 167.918648,20.0661633 167.918648,18.1816401 C167.918648,16.4865491 169.17453,14.5285393 171.526617,13.1273946 C173.430177,11.9826366 175.620794,11.3931107 177.890353,11.3931107 C180.323176,11.3931107 181.580853,12.1688027 181.580853,13.6809937 C181.580853,14.6412187 181.092853,15.6732973 180.159911,16.8539821 C179.108558,16.3363098 178.093088,16.0439964 177.203206,16.0439964 C175.986794,16.0439964 175.256588,16.5600357 175.256588,17.2246812 M140.965618,25.5254018 C140.965618,26.7060865 141.084029,27.7038714 141.487706,28.5906097 C139.340147,29.5116419 137.556794,29.9917544 136.098176,29.9917544 C134.354294,29.9917544 133.584618,29.3630357 133.584618,27.8132847 L133.584618,27.8034865 L133.616912,27.8639089 L135.159853,27.0375929 L132.483029,22.1613482 L136.248882,22.1613482 L128.168176,15.4642688 L128.711794,25.2183911 L130.993912,22.9615357 L133.184529,27.0571893 C131.300706,29.3173107 129.305647,30.3216276 126.449412,30.3216276 C122.475441,30.3216276 119.719676,27.5177054 119.719676,23.0889125 C119.719676,20.0661633 120.936088,17.1871214 123.164382,15.0086518 C125.475206,12.7207688 128.640029,11.4290375 131.921471,11.4290375 C133.462618,11.4290375 134.921235,11.724617 136.422912,12.3533357 C137.556794,11.90915 138.775,11.7621768 140.152882,11.7621768 C141.450029,11.7621768 142.707706,11.9467098 143.839794,12.3533357 C141.814235,17.812574 140.965618,22.3148536 140.965618,25.5254018 M98.6011176,14.5285393 C97.4277647,19.8424375 96.6957647,23.6441446 96.6957647,25.9663214 C96.6957647,27.0408589 96.8590295,28.0353776 97.1819706,28.9564097 C95.2353529,29.6586151 93.3712647,29.9917544 91.6291765,29.9917544 C89.2770883,29.9917544 88.2221471,29.1785026 88.2221471,27.2972455 C88.2221471,26.1524875 89.031294,23.4579786 89.9265589,19.1043054 C90.9797059,14.0859866 91.6291765,10.3234723 91.6291765,7.70245 C91.6291765,6.59525179 91.4659118,5.56317321 91.1824412,4.60294821 C93.4519999,3.79132946 95.4380883,3.31121696 97.1425001,3.31121696 C99.370794,3.31121696 100.549529,4.19795536 100.549529,5.74770625 C100.549529,7.18641071 99.5735294,10.0638196 98.6011176,14.5285393 M111.005647,15.7859768 C112.261529,15.7859768 113.072471,16.4489893 113.072471,17.5186276 C113.072471,18.5882661 112.141324,19.1043054 110.275441,19.1043054 C109.181029,19.1043054 108.246294,18.9948919 107.397676,18.8103589 C108.005882,16.8539821 109.3425,15.7859768 111.005647,15.7859768 M111.411118,22.5745062 C117.249176,22.5745062 120.168206,20.8777821 120.168206,17.5186276 C120.168206,14.0125 116.802441,11.3196241 111.653324,11.3196241 C104.720853,11.3196241 99.3277353,16.0048036 99.3277353,22.1678804 C99.3277353,27.2596857 103.1815,30.4343071 109.789235,30.4343071 C114.979618,30.4343071 117.938118,28.8094365 117.938118,26.5607464 C117.938118,25.672375 117.451912,24.9342429 116.477706,24.0507705 C114.979618,25.2314554 113.031206,25.8585411 110.761647,25.8585411 C107.964618,25.8585411 106.464735,24.7889026 106.464735,22.8700857 C106.464735,22.6479929 106.464735,22.4259 106.506,22.2054401 C107.925147,22.4634597 109.547029,22.5745062 111.411118,22.5745062 M157.338735,21.8739339 C156.081059,23.4988044 154.661912,24.2712304 153.5675,24.2712304 C152.026353,24.2712304 151.136471,23.3110054 151.136471,21.5016018 C151.136471,19.0683786 153.122559,17.077708 155.594853,17.077708 C156.486529,17.077708 157.297471,17.258975 158.189147,17.629674 C157.905676,19.2153518 157.622206,20.6556893 157.338735,21.8739339 M166.70403,13.2008813 C167.556235,9.62126696 168.367176,7.11292411 168.367176,5.67421964 C168.367176,4.16039554 167.231501,3.34877679 165.040882,3.34877679 C163.379529,3.34877679 161.393441,3.79132946 159.123882,4.60294821 C159.488088,5.52561339 159.6065,6.52176518 159.6065,7.59303661 C159.6065,8.662675 159.450412,10.1748661 159.161559,12.1688027 C157.868,11.7997366 156.649794,11.6152036 155.474647,11.6152036 C151.864882,11.6152036 148.622912,12.9053018 146.312088,15.1931848 C144.082,17.4075812 142.906853,20.1755768 142.906853,23.1281054 C142.906853,24.619067 143.231588,25.9205964 143.809294,26.9984 L144.957529,27.5160722 C146.068088,28.0157812 147.257588,28.3685169 148.495529,28.5628482 C149.955941,28.7963722 151.762618,28.9384464 154.141618,28.9923365 C155.210912,28.2721679 156.192294,27.2694839 157.134206,25.9320276 C156.933265,26.7436464 156.850735,27.3707321 156.850735,27.8132847 C156.850735,28.3048286 156.945824,28.6967571 157.112677,29.0168321 C158.985735,29.0103 161.142265,28.969474 163.659412,28.8894554 C163.921353,28.8829232 164.163559,28.874758 164.421911,28.8665929 C164.656942,28.7702437 164.881206,28.695124 165.123412,28.5906097 C164.71794,27.7038714 164.595941,26.7060865 164.595941,25.5254018 C164.595941,23.1281054 165.283088,19.0324518 166.70403,13.2008813" id="Fill-14" fill="#DF4F2A" sketch:type="MSShapeGroup"></path>
                            <path d="M155.858588,40.3239714 C163.173205,40.0283919 168.383324,39.9434742 171.476383,40.4366508 C172.902706,40.6620099 174.19806,41.0735347 175.357058,41.6614276 C176.684706,39.4486643 177.51,37.2587633 177.861647,35.1456153 C178.34247,32.2943347 177.472323,30.8441992 174.964148,30.4441054 C173.442736,30.204049 169.691236,30.6155742 163.71144,30.7772446 C156.816647,30.9911722 151.672912,30.9830071 148.183353,30.427775 C146.708588,30.1926179 145.366588,29.7761937 144.146588,29.2291268 C142.601853,31.8109563 141.563059,34.1151696 141.215,36.1842258 C140.762882,38.8836339 141.706588,40.4987062 143.768029,40.8285794 C145.684147,41.1306911 149.713735,40.5623946 155.858588,40.3239714" id="Fill-15" fill="#000000" sketch:type="MSShapeGroup"></path>
                            <path d="M149.993618,37.5037188 C149.993618,37.69805 149.909294,37.8613536 149.742441,37.9952625 C149.579176,38.1308045 149.372853,38.1977589 149.130647,38.1977589 C148.911765,38.1977589 148.730559,38.1373365 148.588823,38.0148589 C148.447088,37.8923812 148.377118,37.7307107 148.377118,37.5347464 C148.377118,37.3224518 148.454265,37.14935 148.613941,37.0187071 C148.768235,36.8847982 148.974559,36.8178437 149.227529,36.8178437 C149.466147,36.8178437 149.652735,36.8815321 149.787294,37.0007437 C149.921853,37.1232214 149.993618,37.2897911 149.993618,37.5037188" id="Fill-16" fill="#FFFFFF" sketch:type="MSShapeGroup"></path>
                            <path d="M154.898735,33.852251 L154.455588,33.6693508 C154.313853,33.6334242 154.152382,33.6138278 153.978353,33.6138278 C153.388088,33.6138278 152.894706,33.8065258 152.501794,34.1919224 C152.110676,34.5789518 151.916912,35.0655964 151.916912,35.6567554 C151.916912,36.189125 152.089147,36.6137143 152.437206,36.9272571 C152.785265,37.2408 153.255323,37.3959385 153.849176,37.3959385 C154.105735,37.3959385 154.338971,37.3649107 154.550677,37.3028554 C154.760588,37.2375339 154.956147,37.1379188 155.139147,37.0023768 L155.298824,37.2587635 L155.354441,37.4922875 C155.354441,37.7160135 155.212706,37.8923813 154.929235,38.0213911 C154.643971,38.153667 154.261823,38.2206214 153.773824,38.2206214 C152.921618,38.2206214 152.232676,37.9968956 151.699823,37.5527097 C151.166971,37.1101571 150.899647,36.5320625 150.899647,35.8200589 C150.899647,34.9578161 151.222588,34.2343812 151.866676,33.6464883 C152.512559,33.0585955 153.294794,32.7646492 154.216971,32.7646492 C154.556059,32.7646492 154.807235,32.8087411 154.972294,32.896925 C155.137353,32.9851089 155.218088,33.1206508 155.218088,33.2986518 L155.144529,33.5697357 L154.898735,33.852251" id="Fill-17" fill="#FFFFFF" sketch:type="MSShapeGroup"></path>
                            <path d="M158.607176,37.5037188 C159.236912,37.5037188 159.751823,37.3126536 160.1555,36.9272571 C160.557382,36.5434937 160.758323,36.05195 160.758323,35.4493599 C160.758323,34.8631 160.560971,34.3846205 160.164471,34.0139214 C159.769765,33.6448554 159.262029,33.4603222 158.6305,33.4603222 C157.99,33.4603222 157.4715,33.6513875 157.076794,34.0367839 C156.682088,34.4205474 156.484735,34.9284214 156.484735,35.5604062 C156.484735,36.1238036 156.685676,36.5875857 157.085765,36.9533857 C157.485853,37.3191857 157.993588,37.5037188 158.607176,37.5037188 L158.607176,37.5037188 L158.607176,37.5037188 Z M158.537206,38.2679794 C157.634765,38.2679794 156.900971,38.013226 156.332235,37.5086179 C155.765294,37.0007438 155.483618,36.3540615 155.483618,35.5604062 C155.483618,34.7193929 155.785029,34.0367839 156.391441,33.5109464 C156.999647,32.9851089 157.785471,32.7221901 158.754294,32.7221901 C159.628029,32.7221901 160.345676,32.9720446 160.910824,33.4701205 C161.474176,33.9698295 161.761235,34.6001813 161.761235,35.364442 C161.761235,35.6730857 161.707412,35.9751974 161.599765,36.2773089 C161.493912,36.5761544 161.346794,36.834174 161.165588,37.0464688 C160.819324,37.4530946 160.428206,37.7584722 159.990441,37.9609687 C159.554471,38.1634653 159.070059,38.2679794 158.537206,38.2679794 L158.537206,38.2679794 L158.537206,38.2679794 Z" id="Fill-18" fill="#FFFFFF" sketch:type="MSShapeGroup"></path>
                            <path d="M162.407117,32.8773286 L162.663676,32.8152732 L162.922029,32.7973097 C163.131941,32.7973097 163.295206,32.8463008 163.413617,32.9491821 C163.530235,33.0471643 163.600206,33.1941375 163.612765,33.3852026 C163.921353,33.1941375 164.220971,33.0520633 164.515206,32.9606133 C164.807648,32.8707964 165.100088,32.8234383 165.390736,32.8234383 C165.676001,32.8234383 165.943323,32.8756956 166.192705,32.9753107 C166.443883,33.0765589 166.677117,33.2284312 166.896,33.4292946 C167.202794,33.2284312 167.531117,33.0700268 167.877382,32.9557143 C168.225442,32.8430347 168.559148,32.7858786 168.876706,32.7858786 C169.572824,32.7858786 170.105676,32.9704115 170.478853,33.3378446 C170.84844,33.7069107 171.035029,34.2343812 171.035029,34.9186232 C171.035029,35.0166054 171.027853,35.2142028 171.015294,35.5065161 C171.00453,35.8004625 170.999147,36.0470508 170.999147,36.2462812 C170.999147,36.7018982 171.02247,37.0513679 171.069117,37.2979562 C171.115765,37.5445446 171.191117,37.743775 171.295176,37.8956472 C171.103206,37.9821982 170.93994,38.0426205 170.808971,38.0785472 L170.462706,38.1340705 C170.279706,38.1340705 170.154117,38.0932446 170.085941,38.0083268 C170.019559,37.926675 169.985471,37.7650044 169.985471,37.5233151 C169.985471,37.3061214 169.99803,36.9533857 170.030324,36.4683742 C170.057236,35.9833625 170.071588,35.6126635 170.071588,35.3530107 C170.071588,34.7177597 169.965736,34.2556107 169.754029,33.9747286 C169.542324,33.6938464 169.20144,33.5517722 168.731383,33.5517722 C168.474824,33.5517722 168.227236,33.584433 167.986824,33.6530205 C167.748205,33.7216081 167.493442,33.8375536 167.215353,33.995958 C167.256617,34.2115187 167.283529,34.4368778 167.301471,34.6720347 C167.319412,34.9071919 167.326588,35.2370651 167.326588,35.6567554 L167.326588,36.2136205 C167.326588,36.7018982 167.346324,37.0660653 167.385794,37.3044885 C167.423471,37.5429115 167.493442,37.743775 167.588529,37.9070786 C167.418088,37.9887304 167.265589,38.0458865 167.136412,38.0818133 L166.750677,38.1340705 C166.574853,38.1340705 166.452853,38.0899786 166.386471,38.0001615 C166.318295,37.9119778 166.284205,37.7503071 166.284205,37.51515 C166.284205,37.3845071 166.293177,37.0987258 166.314706,36.651274 C166.336235,36.2054554 166.345206,35.8200589 166.345206,35.50325 C166.345206,34.7536865 166.2555,34.2441794 166.070706,33.9747286 C165.885911,33.7069107 165.568353,33.5713688 165.118029,33.5713688 C164.879411,33.5713688 164.638999,33.6138276 164.396795,33.6971125 C164.152794,33.7787643 163.898029,33.904508 163.637883,34.0694446 C163.630705,34.365024 163.618148,34.7373562 163.605589,35.1995054 C163.591235,35.6567554 163.58406,35.9392705 163.58406,36.050317 C163.58406,36.5189982 163.607383,36.8994955 163.655823,37.1869097 C163.70247,37.4759571 163.774235,37.7160133 163.8765,37.9070786 C163.713235,37.9854643 163.562529,38.0426205 163.426176,38.0785472 L163.026088,38.1340705 C162.844882,38.1340705 162.724677,38.0883455 162.658295,37.9952625 C162.591911,37.9054455 162.557823,37.7111143 162.557823,37.4188008 C162.557823,37.33225 162.581147,36.9811472 162.627794,36.3638597 C162.670852,35.7482054 162.692383,35.1717437 162.692383,34.6377411 C162.692383,34.2164179 162.66906,33.8636821 162.624205,33.581167 C162.57756,33.2986518 162.504,33.0651276 162.407117,32.8773286" id="Fill-19" fill="#FFFFFF" sketch:type="MSShapeGroup"></path>
                            <g id="Group-23" transform="translate(0.000000, 15.645536)">
                                <g id="mask-2" transform="translate(1.619469, 0.000000)" fill="#FFFFFF" sketch:type="MSShapeGroup">
                                    <path d="M78.2528545,21.2686571 C76.3475015,21.2686571 75.6729133,20.6938286 75.6729133,19.067325 C75.6729133,18.5235242 76.0855604,16.7467813 76.6560897,14.2874295 C76.9180309,13.1524696 77.2248251,11.8329768 77.5621192,10.3240518 L76.065825,9.76555357 C74.1748251,12.3980071 72.2569134,13.5215357 69.659031,13.5215357 C66.0295309,13.5215357 63.5913251,10.929908 63.5913251,7.07431071 C63.5913251,6.79342857 63.6110604,6.51744554 63.6343838,6.24309554 C65.724531,6.13204911 67.8380015,5.98834196 69.9730015,5.81034107 L69.9676192,5.85606607 C69.9676192,7.86633304 71.3275604,9.26584464 73.2687957,9.26584464 C74.5677368,9.26584464 76.4623251,8.76940179 78.1344428,6.41129821 L78.2205605,6.29208661 L78.2510604,6.15164554 C78.3317956,5.78094643 78.4161193,5.35962321 78.5004428,4.9154375 C80.3537662,4.67864732 82.2178546,4.41409554 84.0945016,4.11851607 C82.3667662,11.4067545 82.1317369,16.0576402 82.1317369,17.9976865 C82.1317369,18.9040214 82.2375897,19.7564661 82.4457074,20.5370571 C80.9709428,21.0220688 79.5661486,21.2686571 78.2528545,21.2686571 L78.2528545,21.2686571 L78.2528545,21.2686571 Z M10.718678,14.1126946 C3.87770744,14.1126946 0.111854507,11.3887911 0.111854507,6.44885804 C0.111854507,4.75050089 0.511942743,2.87087679 0.956883923,0.888371429 C2.98423686,1.3488875 5.38656038,1.85839464 8.11900156,2.3777 C7.98982509,3.16645625 7.91088392,3.87682679 7.91088392,4.49084821 C7.91088392,7.3845875 9.58479568,9.04211875 12.5038251,9.04211875 C14.6603545,9.04211875 16.4419134,8.11945357 17.6601193,6.37210536 C18.0350898,5.83320357 18.419031,5.075475 18.7796487,4.14464464 C20.8608251,4.44185714 23.0460605,4.72600536 25.3245897,4.98565804 C25.0698251,5.62254196 24.8042956,6.21370089 24.5262074,6.75913482 C21.9642074,11.7056 17.4466192,14.1126946 10.718678,14.1126946 L10.718678,14.1126946 L10.718678,14.1126946 Z M55.6738838,13.5950223 C53.4312368,13.5950223 52.9719428,12.8193304 52.9719428,11.6533429 C52.9719428,11.0621839 53.144178,10.2750607 53.3612662,9.28380804 L53.4025309,9.10580714 C53.5765604,8.31541786 53.7505898,7.55605625 53.9192369,6.83425446 L53.9874133,6.53540893 C55.9860605,6.52071161 58.0134133,6.47661964 60.0658838,6.40313304 C59.838031,7.6132125 59.6747662,8.89841161 59.6747662,10.2489321 C59.6747662,11.2303866 59.7877957,12.0942625 60.021031,12.8683214 C58.3220015,13.3451679 56.8275016,13.5950223 55.6738838,13.5950223 L55.6738838,13.5950223 L55.6738838,13.5950223 Z M44.8499722,13.5950223 C42.575031,13.5950223 42.1085604,12.8193304 42.1085604,11.6533429 C42.1085604,10.7094482 42.4189427,9.556525 42.7436781,8.33991339 C42.9087368,7.71609375 43.0809722,7.05144821 43.2298838,6.36720625 C45.2626192,6.447225 47.334825,6.50111518 49.4447075,6.52887679 C49.1863546,7.81407589 48.9728545,9.19399107 48.9728545,10.655558 C48.9728545,11.3642955 49.0912663,12.0942625 49.3316781,12.8650554 C47.5877956,13.3565991 46.1148251,13.5950223 44.8499722,13.5950223 L44.8499722,13.5950223 L44.8499722,13.5950223 Z M31.5537663,13.5950223 C29.2303838,13.5950223 28.9343545,12.5988705 28.9343545,11.7251964 C28.9343545,10.9609357 29.2842074,9.52549732 29.7686192,7.544625 C29.9193251,6.92243839 30.086178,6.23819643 30.2602074,5.50496339 C32.1888839,5.68459732 34.1749721,5.84790089 36.2095015,5.98507589 C35.865031,7.68506607 35.6766486,9.16949554 35.6766486,10.3207857 C35.6766486,11.2075241 35.7825016,12.0567027 35.9924133,12.8568902 C34.5050898,13.3419018 32.9854721,13.5950223 31.5537663,13.5950223 L31.5537663,13.5950223 L31.5537663,13.5950223 Z" id="path-1"></path>
                                </g>
                                <g id="Clip-21"></g>
                                <g id="Fill-20-Clipped" transform="translate(1.619469, 0.000000)">
                                    <mask id="mask-2" sketch:name="path-1" fill="white">
                                        <use xlink:href="#path-1"></use>
                                    </mask>
                                    <g id="path-1"></g>
                                    <path d="M0.111854507,0.888371429 L84.0945016,0.888371429 L84.0945016,21.2686571 L0.111854507,21.2686571 L0.111854507,0.888371429 L0.111854507,0.888371429 Z" id="Fill-20" fill="#030100" sketch:type="MSShapeGroup" mask="url(#mask-2)"></path>
                                </g>
                                <g id="Fill-22-Clipped" transform="translate(1.619469, 0.000000)">
                                    <mask id="mask-4" sketch:name="path-1" fill="white">
                                        <use xlink:href="#path-3"></use>
                                    </mask>
                                    <g id="path-1"></g>
                                    <path d="M0.111854507,0.888371429 L84.0945016,0.888371429 L84.0945016,21.2686571 L0.111854507,21.2686571 L0.111854507,0.888371429 L0.111854507,0.888371429 Z" id="Fill-22" fill="#030100" sketch:type="MSShapeGroup" mask="url(#mask-4)"></path>
                                </g>
                            </g>
                            <path d="M109.789235,29.6831107 C103.757412,29.6831107 100.153029,26.8726562 100.153029,22.1678804 C100.153029,20.4695232 100.590794,18.9018089 101.365853,17.5251597 C103.371676,17.3193972 105.375706,17.1430295 107.374353,16.9993222 C107.055,17.4647375 106.793059,17.9971071 106.604677,18.6045964 L106.373235,19.3557929 L107.205706,19.5386929 C108.179912,19.7509875 109.182824,19.8571347 110.277235,19.8571347 C113.427706,19.8571347 113.897765,18.3923018 113.897765,17.5186276 C113.897765,17.2001857 113.833177,16.9095054 113.732706,16.6400545 C115.571677,16.5616688 117.401677,16.5061455 119.220912,16.4734848 C119.298059,16.8098902 119.344706,17.1560937 119.344706,17.5186276 C119.344706,18.5833669 119.344706,21.8249429 111.411118,21.8249429 C109.527294,21.8249429 107.977177,21.7089972 106.667471,21.4689411 L105.836794,21.3187018 L105.693265,22.0796964 C105.641235,22.3622115 105.641235,22.6316625 105.641235,22.8700857 C105.641235,25.2445196 107.507118,26.6081044 110.761647,26.6081044 C112.905618,26.6081044 114.834294,26.0773679 116.389794,25.0665187 C116.897529,25.6184847 117.114618,26.0773679 117.114618,26.5607464 C117.114618,28.4273062 114.170471,29.6831107 109.789235,29.6831107" id="Fill-24" fill="#E3653A" sketch:type="MSShapeGroup"></path>
                            <path id="Fill-25" fill="#FFFFFF" sketch:type="MSShapeGroup" d="M128.711794,25.2183911 L128.225588,16.4849161 L128.711794,25.2183911"></path>
                            <path d="M126.449412,29.5720643 C122.859382,29.5720643 120.543176,27.0277946 120.543176,23.0905456 C120.543176,20.6491571 121.388206,18.3302464 122.934735,16.437558 L123.315088,16.437558 C124.965676,16.437558 126.600118,16.4555214 128.225588,16.4849161 L128.711794,25.2183911 L130.993912,22.9615357 L132.775471,26.2945617 C130.934706,28.6330688 129.122647,29.5720643 126.449412,29.5720643" id="Fill-26" fill="#E3653A" sketch:type="MSShapeGroup"></path>
                            <path id="Fill-27" fill="#FFFFFF" sketch:type="MSShapeGroup" d="M134.438618,27.4229893 L134.440412,27.4229893 L135.159853,27.0375929 L134.438618,27.4229893"></path>
                            <path id="Fill-29" fill="#FFFFFF" sketch:type="MSShapeGroup" d="M150.924765,28.8404643 C150.013353,28.7702437 149.213176,28.6771607 148.495529,28.5628482 C149.213176,28.6771607 150.013353,28.7702437 150.924765,28.8404643"></path>
                            <path d="M158.131735,29.0103 C157.772912,28.7751429 157.677824,28.3815812 157.677824,27.8132847 C157.677824,27.5144393 157.720882,26.9722714 157.941559,26.0969643 L156.445265,25.5254018 C155.246794,27.2188599 154.041147,28.322792 152.683,28.9449786 C152.053265,28.9172169 151.470176,28.8829232 150.924765,28.8404643 C150.013353,28.7702437 149.213176,28.6771607 148.495529,28.5628482 C147.336529,28.3799482 146.220588,28.0549742 145.172824,27.6042562 C144.252441,26.4937919 143.730353,24.9685367 143.730353,23.1281054 C143.730353,21.0476179 144.345735,19.089608 145.524471,17.3700214 C147.648706,17.5463893 149.731676,17.7407206 151.760824,17.9513821 C150.865559,18.8789464 150.312971,20.1265857 150.312971,21.5016018 C150.312971,23.7062 151.527588,25.0224268 153.569294,25.0224268 C155.054824,25.0224268 156.676706,24.0328071 158.011529,22.3066883 L158.110206,22.1809446 L158.144294,22.0290722 C158.359588,21.1145724 158.580265,20.0335026 158.818882,18.7679 C160.774471,19.0161214 162.663676,19.2774071 164.482912,19.5435919 C164.014647,22.0845955 163.768852,24.1013946 163.768852,25.5254018 C163.768852,26.5999393 163.872911,27.4523839 164.102558,28.1905161 C163.293412,28.5154901 162.525529,28.7604455 161.8025,28.9417125 C160.474853,28.9760062 159.254853,28.9988687 158.131735,29.0103" id="Fill-30" fill="#E3653A" sketch:type="MSShapeGroup"></path>
                            <path id="Fill-31" fill="#FFFFFF" sketch:type="MSShapeGroup"></path>
                            <path d="M167.195618,28.7588125 C166.960588,28.4436367 166.957001,28.1023321 166.957001,27.8492117 C166.957001,27.2776492 167.213558,26.5770768 167.764353,25.6707419 C168.851588,26.1965794 169.992647,26.4611313 171.162412,26.4611313 C172.848883,26.4611313 173.607794,25.5286679 173.607794,24.6043696 C173.607794,23.7274294 172.865029,23.1281054 171.831617,22.2968901 L171.349001,21.9049615 L171.266471,21.8347411 C170.588294,21.2631786 170.046471,20.7977635 169.635617,20.3388804 C173.031883,20.8957456 176.115971,21.4575097 178.814324,21.9833472 C179.133676,22.4797903 179.298736,23.0056278 179.298736,23.6800714 C179.298736,25.7850545 177.806029,27.5683295 175.450353,28.6118393 C175.392941,28.6020411 175.333735,28.5922429 175.276323,28.5824446 C175.260177,28.5791786 175.244029,28.5775455 175.227883,28.5742795 C174.793705,28.5105911 174.277001,28.4828295 173.64906,28.4828295 L173.647265,28.4828295 L173.634706,28.4828295 C172.832735,28.4844625 171.84597,28.5269214 170.615206,28.5889768 L170.613412,28.5889768 C170.581118,28.5906097 170.548824,28.5922429 170.518323,28.5938758 C170.489618,28.5955089 170.462706,28.5971419 170.434001,28.598775 C170.399912,28.600408 170.365824,28.6020411 170.331736,28.6036742 C170.322764,28.6036742 170.311999,28.6053071 170.303029,28.6053071 C170.277911,28.6069401 170.251001,28.6085732 170.225883,28.6102062 C170.177441,28.6118393 170.128999,28.6151054 170.08056,28.6167383 C169.999824,28.6216375 169.9155,28.6249036 169.83297,28.6298026 C169.809647,28.6314357 169.788117,28.6314357 169.766588,28.6330688 C169.217588,28.6608304 168.620147,28.6918581 167.981441,28.7212528 C167.726676,28.7343169 167.464735,28.7457482 167.195618,28.7588125" id="Fill-32" fill="#E3653A" sketch:type="MSShapeGroup"></path>
                        </g>
                    </g>
                </g>
            </g>
        </g>
    </g>
</svg>