<?xml version="1.0" encoding="UTF-8" standalone="no"?>
<svg width="99px" height="94px" viewBox="0 0 99 94" version="1.1" xmlns="http://www.w3.org/2000/svg" xmlns:xlink="http://www.w3.org/1999/xlink" xmlns:sketch="http://www.bohemiancoding.com/sketch/ns">
    <!-- Generator: Sketch 3.3.3 (12081) - http://www.bohemiancoding.com/sketch -->
    <title>globe-automation</title>
    <desc>Created with Sketch.</desc>
    <defs></defs>
    <g id="Page-1" stroke="none" stroke-width="1" fill="none" fill-rule="evenodd" sketch:type="MSPage">
        <g id="globe-automation" sketch:type="MSLayerGroup" transform="translate(0.000000, -1.000000)">
            <g id="Group" sketch:type="MSShapeGroup">
                <path d="M74.6575342,70.1733333 C78.3561644,71.82 81.6438356,73.8466667 84.3835616,76.2533333 C90.4109589,69.7933333 94.2465753,61.4333333 94.6575342,52.3133333 L77.3972603,52.3133333 C77.260274,58.7733333 76.3013699,64.8533333 74.6575342,70.1733333 L74.6575342,70.1733333 Z" id="Shape"></path>
                <path d="M64.5205479,88.54 C70.9589041,86.64 76.8493151,83.3466667 81.6438356,79.1666667 C79.4520548,77.14 76.7123288,75.4933333 73.5616438,73.9733333 C71.2328767,80.0533333 68.0821918,84.9933333 64.5205479,88.54 L64.5205479,88.54 Z" id="Shape"></path>
                <path d="M73.1506849,52.3133333 L53.6986301,52.3133333 L53.6986301,65.6133333 C59.7260274,65.8666667 65.4794521,66.88 70.6849315,68.6533333 C72.1917808,63.7133333 73.0136986,58.14 73.1506849,52.3133333 L73.1506849,52.3133333 Z" id="Shape"></path>
                <path d="M53.6986301,69.54 L53.6986301,90.1866667 C60.1369863,88.92 66.0273973,82.2066667 69.4520548,72.4533333 C64.6575342,70.8066667 59.3150685,69.7933333 53.6986301,69.54 L53.6986301,69.54 Z" id="Shape"></path>
                <path d="M74.6575342,30.6533333 C76.1643836,35.9733333 77.1232877,42.0533333 77.260274,48.5133333 L94.6575342,48.5133333 C94.2465753,39.3933333 90.4109589,31.0333333 84.3835616,24.5733333 C81.6438356,26.8533333 78.3561644,29.0066667 74.6575342,30.6533333 L74.6575342,30.6533333 Z" id="Shape"></path>
                <path d="M37.5342466,6.71333333 L37.9452055,7.98 L38.3561644,6.96666667 L37.5342466,6.71333333 Z" id="Shape"></path>
                <path d="M70.6849315,32.1733333 C65.4794521,33.9466667 59.7260274,34.96 53.6986301,35.2133333 L53.6986301,48.5133333 L73.1506849,48.5133333 C73.0136986,42.6866667 72.1917808,37.1133333 70.6849315,32.1733333 L70.6849315,32.1733333 Z" id="Shape"></path>
                <path d="M53.6986301,10.64 L53.6986301,31.2866667 C59.3150685,31.0333333 64.6575342,30.02 69.4520548,28.3733333 C66.0273973,18.7466667 60.2739726,11.9066667 53.6986301,10.64 L53.6986301,10.64 Z" id="Shape"></path>
                <path d="M81.5068493,21.66 C76.7123288,17.3533333 70.9589041,14.1866667 64.5205479,12.2866667 C68.2191781,15.8333333 71.2328767,20.7733333 73.5616438,26.8533333 C76.5753425,25.46 79.3150685,23.6866667 81.5068493,21.66 L81.5068493,21.66 Z" id="Shape"></path>
                <path d="M51.6438356,6.58666667 L49.5890411,6.58666667 L49.5890411,6.71333333 L49.5890411,8.48666667 L49.5890411,10.5133333 L49.5890411,10.64 L49.5890411,31.2866667 L49.5890411,35.2133333 L49.5890411,48.5133333 L49.5890411,52.44 L49.5890411,65.74 L49.5890411,69.6666667 L49.5890411,90.3133333 L49.5890411,90.44 L49.5890411,91.8333333 C24.3835616,91.8333333 3.83561644,72.8333333 3.83561644,49.5266667 C3.83561644,30.2733333 17.8082192,13.5533333 37.8082192,8.61333333 L34.2465753,16.8466667 C33.9726027,17.48 34.3835616,18.24 35.0684932,18.4933333 C35.2054795,18.4933333 35.3424658,18.62 35.6164384,18.62 C36.1643836,18.62 36.7123288,18.3666667 36.8493151,17.86 L41.369863,6.84 C41.5068493,6.58666667 41.5068493,6.20666667 41.369863,5.82666667 C41.2328767,5.57333333 40.9589041,5.32 40.5479452,5.19333333 L28.630137,1.01333333 C27.9452055,0.76 27.1232877,1.14 26.8493151,1.77333333 C26.5753425,2.40666667 26.9863014,3.16666667 27.6712329,3.42 L36.1643836,6.46 C15.4794521,11.6533333 0.95890411,29.26 0.95890411,49.4 C0.95890411,74.1 22.739726,94.24 49.4520548,94.24 L49.4520548,94.1133333 L51.5068493,94.1133333 C77.6712329,94.1133333 98.9041096,74.48 98.9041096,50.2866667 C99.0410959,26.22 77.6712329,6.58666667 51.6438356,6.58666667 L51.6438356,6.58666667 Z M81.5068493,21.66 C79.3150685,23.6866667 76.5753425,25.46 73.4246575,26.8533333 C71.2328767,20.7733333 68.0821918,15.8333333 64.3835616,12.2866667 C70.9589041,14.1866667 76.7123288,17.48 81.5068493,21.66 L81.5068493,21.66 Z M53.6986301,10.64 C60.2739726,11.9066667 66.0273973,18.7466667 69.4520548,28.3733333 C64.6575342,30.02 59.3150685,31.0333333 53.6986301,31.2866667 L53.6986301,10.64 L53.6986301,10.64 Z M53.6986301,35.2133333 C59.7260274,34.96 65.6164384,33.9466667 70.6849315,32.1733333 C72.0547945,37.1133333 73.0136986,42.6866667 73.1506849,48.5133333 L53.6986301,48.5133333 L53.6986301,35.2133333 L53.6986301,35.2133333 Z M53.6986301,52.3133333 L73.1506849,52.3133333 C73.0136986,58.14 72.1917808,63.7133333 70.6849315,68.6533333 C65.4794521,66.88 59.7260274,65.8666667 53.6986301,65.6133333 L53.6986301,52.3133333 L53.6986301,52.3133333 Z M53.6986301,90.1866667 L53.6986301,69.54 C59.3150685,69.7933333 64.6575342,70.68 69.4520548,72.4533333 C66.0273973,82.08 60.2739726,88.92 53.6986301,90.1866667 L53.6986301,90.1866667 Z M64.5205479,88.54 C68.2191781,84.9933333 71.2328767,80.0533333 73.4246575,73.9733333 C76.5753425,75.3666667 79.3150685,77.14 81.5068493,79.1666667 C76.7123288,83.3466667 70.9589041,86.64 64.5205479,88.54 L64.5205479,88.54 Z M84.3835616,76.38 C81.6438356,73.9733333 78.3561644,71.9466667 74.6575342,70.3 C76.1643836,64.8533333 77.1232877,58.9 77.3972603,52.44 L94.7945205,52.44 C94.2465753,61.4333333 90.4109589,69.7933333 84.3835616,76.38 L84.3835616,76.38 Z M77.3972603,48.5133333 C77.260274,42.0533333 76.3013699,35.9733333 74.7945205,30.6533333 C78.4931507,29.0066667 81.7808219,26.98 84.5205479,24.5733333 C90.5479452,31.16 94.3835616,39.3933333 94.7945205,48.5133333 L77.3972603,48.5133333 L77.3972603,48.5133333 Z" id="Shape" fill="#27343A"></path>
            </g>
        </g>
    </g>
</svg>