<?xml version="1.0" encoding="UTF-8" standalone="no"?>
<svg width="90px" height="96px" viewBox="0 0 90 96" version="1.1" xmlns="http://www.w3.org/2000/svg" xmlns:xlink="http://www.w3.org/1999/xlink" xmlns:sketch="http://www.bohemiancoding.com/sketch/ns">
    <!-- Generator: Sketch 3.3.3 (12081) - http://www.bohemiancoding.com/sketch -->
    <title>hourglass</title>
    <desc>Created with Sketch.</desc>
    <defs></defs>
    <g id="Page-1" stroke="none" stroke-width="1" fill="none" fill-rule="evenodd" sketch:type="MSPage">
        <g id="hourglass" sketch:type="MSLayerGroup">
            <g id="Page-1" sketch:type="MSShapeGroup">
                <g id="hourglass">
                    <g id="Group">
                        <g id="Shape" transform="translate(10.384616, 24.533334)" fill="#DF4F2A">
                            <path d="M7.15384616,31.8933333 L0.461538462,41.8133334 L34.0384615,60.0533334 L40.0384616,49.8133333 L27.8076923,34.1333334 L7.15384616,31.8933333 L7.15384616,31.8933333 Z"></path>
                            <path d="M26.423077,1.38666666 L36.6923077,20.2666667 L59.4230769,19.2 L60.4615385,18.1333333 L27,0 L26.423077,1.38666666 L26.423077,1.38666666 Z"></path>
                        </g>
                        <g transform="translate(0.507693, 3.200000)" fill="#FFFFFF">
                            <path d="M34.6846153,23.36 L45.0692308,43.52 L45.3,43.52 L45.4153846,43.6266666 L69.5307693,42.0266667 L79.9153846,26.24 L44.6076923,7.25333334 L34.6846153,23.36 L34.6846153,23.36 Z M69.3,40.5333333 L46.4538461,41.6 L36.3,22.72 L36.7615384,21.3333333 L70.3384616,39.4666667 L69.3,40.5333333 L69.3,40.5333333 Z" id="Shape"></path>
                            <path d="M43.8,45.8666667 L43.5692308,45.8666667 L19.4538461,47.4666666 L9.06923077,63.2533333 L13.9153846,65.92 L44.2615385,82.3466667 L54.0692308,66.24 L43.6846153,46.08 L43.8,45.8666667 L43.8,45.8666667 Z M49.9153847,71.1466667 L43.8,81.3866667 L10.2230769,63.2533333 L16.9153846,53.3333334 L37.6846154,55.5733333 L49.9153847,71.1466667 L49.9153847,71.1466667 Z" id="Shape"></path>
                            <path d="M45.4047358,78.74733 L0.597853845,74.9440086 L3.3317412,74.2671126 L48.1386231,78.0704341 L45.4047358,78.74733 L45.4047358,78.74733 Z" id="Rectangle-path"></path>
                            <path d="M42.876923,3.84 L43.6846153,4.26666666 L83.0307693,25.6 L83.9538462,26.0266667 L86.3769231,22.1866667 L45.3,0 L42.876923,3.84 L42.876923,3.84 Z" id="Shape"></path>
                        </g>
                        <path d="M40.1538461,7.78666667 L43.0384615,9.38666667 L32.6538462,26.56 L43.1538461,46.9333333 L18.6923077,48.5333334 L7.61538461,65.3866667 L4.73076923,63.7866666 L0,71.36 L45,95.7866667 L49.7307693,88.2133333 L46.8461539,86.6133333 L57.2307692,69.44 L46.8461539,49.0666667 L71.3076923,47.4666666 L82.3846154,30.6133333 L85.2692307,32.2133334 L90,24.64 L45,0.32 L40.1538461,7.78666667 L40.1538461,7.78666667 Z M86.8846153,25.3866666 L84.4615384,29.2266666 L83.5384615,28.8 L44.1923077,7.46666667 L43.3846154,7.04 L45.8076923,3.2 L86.8846153,25.3866666 L86.8846153,25.3866666 Z M3.11538461,70.6133334 L5.53846153,66.7733334 L46.6153846,88.96 L44.1923077,92.8 L3.11538461,70.6133334 L3.11538461,70.6133334 Z M14.5384616,69.12 L9.69230772,66.4533333 L20.0769231,50.6666667 L44.1923077,49.0666667 L44.423077,49.0666667 L44.5384616,49.1733333 L54.9230769,69.3333333 L45.1153846,85.44 L14.5384616,69.12 L14.5384616,69.12 Z M45.8076923,46.8266667 L45.576923,46.8266667 L35.1923077,26.6666667 L45,10.56 L80.3076923,29.6533333 L69.9230769,45.44 L45.8076923,46.9333333 L45.8076923,46.8266667 L45.8076923,46.8266667 Z" id="Shape" fill="#27343A"></path>
                    </g>
                </g>
            </g>
        </g>
    </g>
</svg>