<?xml version="1.0" encoding="utf-8"?>
<!-- Generator: Adobe Illustrator 16.0.4, SVG Export Plug-In . SVG Version: 6.00 Build 0)  -->
<!DOCTYPE svg PUBLIC "-//W3C//DTD SVG 1.1//EN" "http://www.w3.org/Graphics/SVG/1.1/DTD/svg11.dtd">
<svg version="1.1" id="Laag_1" xmlns:sketch="http://www.bohemiancoding.com/sketch/ns"
	 xmlns="http://www.w3.org/2000/svg" xmlns:xlink="http://www.w3.org/1999/xlink" x="0px" y="0px" width="33px" height="20px"
	 viewBox="-2 -2 33 20" enable-background="new -2 -2 33 20" xml:space="preserve">
<title>password</title>
<desc></desc>
<g id="sign-in-and-sign-up" sketch:type="MSPage">
	<g id="gui-login" transform="translate(-121.000000, -254.000000)" sketch:type="MSArtboardGroup">
		<g id="start" transform="translate(82.000000, 68.000000)" sketch:type="MSLayerGroup">
			<g id="password" transform="translate(39.000000, 186.000000)" sketch:type="MSShapeGroup">
				<path id="Rectangle-3" fill="none" stroke="#27B0A3" stroke-width="4" d="M8,0L8,0c4.418,0,8,3.582,8,8l0,0c0,4.418-3.582,8-8,8
					l0,0c-4.418,0-8-3.582-8-8l0,0C0,3.582,3.582,0,8,0z"/>
				<rect id="Rectangle-4-Copy" x="14" y="7" fill="#27B0A3" width="17" height="4"/>
				<rect id="Rectangle-4-Copy-2" x="27" y="7" fill="#232C2A" width="4" height="4"/>
				<rect id="Rectangle-4-Copy-3" x="21" y="7" fill="#232C2A" width="4" height="4"/>
				<rect id="Rectangle-8-Copy" x="27" y="1" fill="#E54142" width="4" height="6"/>
				<rect id="Rectangle-8-Copy-2" x="21" y="3" fill="#E54142" width="4" height="4"/>
			</g>
		</g>
	</g>
</g>
</svg>
