<?xml version="1.0" encoding="utf-8"?>
<!-- Generator: Adobe Illustrator 18.1.1, SVG Export Plug-In . SVG Version: 6.00 Build 0)  -->
<!DOCTYPE svg PUBLIC "-//W3C//DTD SVG 1.1//EN" "http://www.w3.org/Graphics/SVG/1.1/DTD/svg11.dtd">
<svg version="1.1" id="Layer_1" xmlns="http://www.w3.org/2000/svg" xmlns:xlink="http://www.w3.org/1999/xlink" x="0px" y="0px"
	 viewBox="0 0 100 100" enable-background="new 0 0 100 100" xml:space="preserve">
<g id="XMLID_1_">
	<path id="XMLID_63_" fill="none" stroke="#1059A5" stroke-width="1.0362" stroke-miterlimit="10" d="M81,49"/>
	<path id="XMLID_62_" fill="none" stroke="#1059A5" stroke-width="1.0362" stroke-miterlimit="10" d="M50,35.3"/>
	<g id="XMLID_7_">
		<g opacity="0.25">
			<rect id="XMLID_291_" x="2.6" y="81.1" width="90.7" height="2.3"/>
			<path id="XMLID_290_" stroke="#000000" stroke-width="1.0362" stroke-miterlimit="10" d="M83.4,66.5l-70.8,0l0-42.5
				c0-1.9,1.6-3.5,3.5-3.5l63.9,0c1.9,0,3.5,1.6,3.5,3.5L83.4,66.5z"/>
			<path id="XMLID_289_" stroke="#000000" stroke-width="1.0362" stroke-miterlimit="10" d="M91.7,81H4.2c-1.2,0-1.9-0.8-1.4-1.4
				l9.8-13l70.8,0l9.8,13C93.6,80.3,92.8,81,91.7,81z"/>
			
				<line id="XMLID_288_" fill="none" stroke="#000000" stroke-width="1.0362" stroke-miterlimit="10" x1="2.6" y1="83.5" x2="93.3" y2="83.5"/>
			<polygon id="XMLID_287_" fill="none" stroke="#000000" stroke-width="1.0362" stroke-miterlimit="10" points="61.5,78.3 
				34.3,78.3 36.6,72.5 59.3,72.5 			"/>
			
				<line id="XMLID_286_" fill="none" stroke="#000000" stroke-width="1.0362" stroke-miterlimit="10" x1="35.2" y1="76" x2="60.9" y2="76"/>
			
				<line id="XMLID_285_" fill="none" stroke="#000000" stroke-width="1.0362" stroke-miterlimit="10" x1="47.9" y1="76" x2="47.9" y2="78.3"/>
			<polyline id="XMLID_284_" stroke="#000000" stroke-width="1.0362" stroke-miterlimit="10" points="16.4,66.6 11,74.9 35.7,74.9 
				36.6,72.5 59.3,72.5 60.2,74.9 85.4,74.9 79.8,66.7 			"/>
			<path id="XMLID_283_" stroke="#000000" stroke-width="1.0362" stroke-miterlimit="10" d="M77.6,63.4H17.8c-0.8,0-1.4-0.6-1.4-1.4
				V25.9c0-0.8,0.6-1.4,1.4-1.4h59.8c0.8,0,1.4,0.6,1.4,1.4V62C79,62.7,78.3,63.4,77.6,63.4z"/>
			
				<line id="XMLID_282_" fill="none" stroke="#000000" stroke-width="1.0362" stroke-miterlimit="10" x1="2.7" y1="80.3" x2="2.7" y2="83.5"/>
			
				<line id="XMLID_281_" fill="none" stroke="#000000" stroke-width="1.0362" stroke-miterlimit="10" x1="93.3" y1="80.2" x2="93.3" y2="83.6"/>
			<path id="XMLID_280_" stroke="#000000" stroke-width="1.0362" stroke-miterlimit="10" d="M16.4,54.9"/>
		</g>
		<g>
			<g>
				<rect id="XMLID_253_" x="4.7" y="79.1" fill="#ABABAB" width="90.7" height="2.3"/>
				<g id="XMLID_242_">
					<path id="XMLID_252_" fill="#DEDDDD" stroke="#1059A5" stroke-width="1.0362" stroke-miterlimit="10" d="M85.4,64.4l-70.8,0
						l0-42.5c0-1.9,1.6-3.5,3.5-3.5l63.9,0c1.9,0,3.5,1.6,3.5,3.5L85.4,64.4z"/>
					<path id="XMLID_251_" fill="#FFFFFF" stroke="#1059A5" stroke-width="1.0362" stroke-miterlimit="10" d="M93.7,78.9H6.3
						c-1.2,0-1.9-0.8-1.4-1.4l9.8-13h70.8l9.8,13C95.7,78.2,94.9,78.9,93.7,78.9z"/>
					
						<line id="XMLID_250_" fill="none" stroke="#1059A5" stroke-width="1.0362" stroke-miterlimit="10" x1="4.7" y1="81.4" x2="95.3" y2="81.4"/>
					<polygon id="XMLID_249_" fill="none" stroke="#1059A5" stroke-width="1.0362" stroke-miterlimit="10" points="63.6,76.2 
						36.4,76.2 38.6,70.4 61.4,70.4 					"/>
					
						<line id="XMLID_248_" fill="none" stroke="#1059A5" stroke-width="1.0362" stroke-miterlimit="10" x1="37.3" y1="74" x2="63" y2="74"/>
					
						<line id="XMLID_247_" fill="none" stroke="#1059A5" stroke-width="1.0362" stroke-miterlimit="10" x1="50" y1="74" x2="50" y2="76.2"/>
					<polyline id="XMLID_246_" fill="#ABABAB" stroke="#1059A5" stroke-width="1.0362" stroke-miterlimit="10" points="18.5,64.5 
						13.1,72.8 37.7,72.8 38.6,70.4 61.4,70.4 62.3,72.8 87.5,72.8 81.8,64.6 					"/>
					<path id="XMLID_245_" fill="#FFFFFF" stroke="#1059A5" stroke-width="1.0362" stroke-miterlimit="10" d="M79.6,61.3H19.8
						c-0.8,0-1.4-0.6-1.4-1.4V23.8c0-0.8,0.6-1.4,1.4-1.4h59.8c0.8,0,1.4,0.6,1.4,1.4v36.1C81,60.7,80.4,61.3,79.6,61.3z"/>
					
						<line id="XMLID_244_" fill="none" stroke="#1059A5" stroke-width="1.0362" stroke-miterlimit="10" x1="4.7" y1="78.2" x2="4.7" y2="81.4"/>
					
						<line id="XMLID_243_" fill="none" stroke="#1059A5" stroke-width="1.0362" stroke-miterlimit="10" x1="95.3" y1="78.1" x2="95.3" y2="81.6"/>
				</g>
				<g id="XMLID_240_">
					<path id="XMLID_241_" fill="#FFFFFF" stroke="#1059A5" stroke-width="1.0362" stroke-miterlimit="10" d="M18.4,52.8"/>
				</g>
			</g>
		</g>
	</g>
	<g id="XMLID_6_">
		<g opacity="0.25">
			<path d="M69.2,32.7c-2,0-3.6,1.6-3.6,3.6c0,0.5,0.1,1,0.3,1.5L55.8,47.9c-0.4-0.2-0.9-0.3-1.4-0.3c-0.5,0-1,0.1-1.4,0.3L43.1,38
				c0.3-0.5,0.4-1.1,0.4-1.7c0-2-1.6-3.6-3.6-3.6c-2,0-3.6,1.6-3.6,3.6c0,0.5,0.1,1,0.3,1.5L26.6,47.9c-0.4-0.2-0.9-0.3-1.4-0.3
				c-2,0-3.6,1.6-3.6,3.6c0,2,1.6,3.6,3.6,3.6s3.6-1.6,3.6-3.6c0-0.6-0.1-1.1-0.4-1.6l10-10c0.5,0.2,1,0.3,1.5,0.3
				c0.5,0,0.9-0.1,1.3-0.2l10,10c-0.2,0.5-0.4,1-0.4,1.6c0,2,1.6,3.6,3.6,3.6c2,0,3.6-1.6,3.6-3.6c0-0.6-0.1-1.1-0.4-1.6l10-10
				c0.5,0.2,1,0.3,1.5,0.3c2,0,3.6-1.6,3.6-3.6C72.8,34.3,71.2,32.7,69.2,32.7z"/>
			<path fill="none" stroke="#000000" stroke-width="1.0362" stroke-miterlimit="10" d="M69.2,32.7c-2,0-3.6,1.6-3.6,3.6
				c0,0.5,0.1,1,0.3,1.5L55.8,47.9c-0.4-0.2-0.9-0.3-1.4-0.3c-0.5,0-1,0.1-1.4,0.3L43.1,38c0.3-0.5,0.4-1.1,0.4-1.7
				c0-2-1.6-3.6-3.6-3.6c-2,0-3.6,1.6-3.6,3.6c0,0.5,0.1,1,0.3,1.5L26.6,47.9c-0.4-0.2-0.9-0.3-1.4-0.3c-2,0-3.6,1.6-3.6,3.6
				c0,2,1.6,3.6,3.6,3.6s3.6-1.6,3.6-3.6c0-0.6-0.1-1.1-0.4-1.6l10-10c0.5,0.2,1,0.3,1.5,0.3c0.5,0,0.9-0.1,1.3-0.2l10,10
				c-0.2,0.5-0.4,1-0.4,1.6c0,2,1.6,3.6,3.6,3.6c2,0,3.6-1.6,3.6-3.6c0-0.6-0.1-1.1-0.4-1.6l10-10c0.5,0.2,1,0.3,1.5,0.3
				c2,0,3.6-1.6,3.6-3.6C72.8,34.3,71.2,32.7,69.2,32.7z"/>
		</g>
		<g>
			<path fill="#F4B21B" d="M71.3,30.7c-2,0-3.6,1.6-3.6,3.6c0,0.5,0.1,1,0.3,1.5L57.9,45.8c-0.4-0.2-0.9-0.3-1.4-0.3
				c-0.5,0-1,0.1-1.4,0.3l-9.9-9.9c0.3-0.5,0.4-1.1,0.4-1.7c0-2-1.6-3.6-3.6-3.6c-2,0-3.6,1.6-3.6,3.6c0,0.5,0.1,1,0.3,1.5
				L28.7,45.8c-0.4-0.2-0.9-0.3-1.4-0.3c-2,0-3.6,1.6-3.6,3.6c0,2,1.6,3.6,3.6,3.6s3.6-1.6,3.6-3.6c0-0.6-0.1-1.1-0.4-1.6l10-10
				c0.5,0.2,1,0.3,1.5,0.3c0.5,0,0.9-0.1,1.3-0.2l10,10c-0.2,0.5-0.4,1-0.4,1.6c0,2,1.6,3.6,3.6,3.6c2,0,3.6-1.6,3.6-3.6
				c0-0.6-0.1-1.1-0.4-1.6l10-10c0.5,0.2,1,0.3,1.5,0.3c2,0,3.6-1.6,3.6-3.6C74.8,32.3,73.2,30.7,71.3,30.7z"/>
			<path fill="none" stroke="#14489F" stroke-width="1.0362" stroke-miterlimit="10" d="M71.3,30.7c-2,0-3.6,1.6-3.6,3.6
				c0,0.5,0.1,1,0.3,1.5L57.9,45.8c-0.4-0.2-0.9-0.3-1.4-0.3c-0.5,0-1,0.1-1.4,0.3l-9.9-9.9c0.3-0.5,0.4-1.1,0.4-1.7
				c0-2-1.6-3.6-3.6-3.6c-2,0-3.6,1.6-3.6,3.6c0,0.5,0.1,1,0.3,1.5L28.7,45.8c-0.4-0.2-0.9-0.3-1.4-0.3c-2,0-3.6,1.6-3.6,3.6
				c0,2,1.6,3.6,3.6,3.6s3.6-1.6,3.6-3.6c0-0.6-0.1-1.1-0.4-1.6l10-10c0.5,0.2,1,0.3,1.5,0.3c0.5,0,0.9-0.1,1.3-0.2l10,10
				c-0.2,0.5-0.4,1-0.4,1.6c0,2,1.6,3.6,3.6,3.6c2,0,3.6-1.6,3.6-3.6c0-0.6-0.1-1.1-0.4-1.6l10-10c0.5,0.2,1,0.3,1.5,0.3
				c2,0,3.6-1.6,3.6-3.6C74.8,32.3,73.2,30.7,71.3,30.7z"/>
		</g>
	</g>
</g>
</svg>
