<?xml version="1.0" encoding="utf-8"?>
<!-- Generator: Adobe Illustrator 18.1.1, SVG Export Plug-In . SVG Version: 6.00 Build 0)  -->
<!DOCTYPE svg PUBLIC "-//W3C//DTD SVG 1.1//EN" "http://www.w3.org/Graphics/SVG/1.1/DTD/svg11.dtd">
<svg version="1.1" id="Layer_1" xmlns="http://www.w3.org/2000/svg" xmlns:xlink="http://www.w3.org/1999/xlink" x="0px" y="0px"
	 viewBox="0 0 100 100" enable-background="new 0 0 100 100" xml:space="preserve">
<g>
	<circle fill="#007AB7" cx="50" cy="50" r="50"/>
	<g>
		<path fill="#FFFFFF" d="M35.9,72.2H25.4V38.8h10.4V72.2z M30.4,34.6L30.4,34.6c-3.9,0-6.3-2.6-6.3-5.8c0-3.3,2.5-5.8,6.4-5.8
			c3.9,0,6.2,2.5,6.3,5.8C36.8,32,34.3,34.6,30.4,34.6z M77.7,72.2H65.8V54.9c0-4.5-1.9-7.6-5.9-7.6c-3.1,0-4.8,2.1-5.7,4.1
			C54,52.1,54,53.1,54,54.1v18.1H42.3c0,0,0.2-30.6,0-33.4H54V44c0.7-2.3,4.4-5.6,10.4-5.6c7.4,0,13.3,4.8,13.3,15.2V72.2z"/>
	</g>
</g>
</svg>
