<?xml version="1.0" encoding="UTF-8" standalone="no"?>
<svg width="243px" height="289px" viewBox="0 0 243 289" version="1.1" xmlns="http://www.w3.org/2000/svg" xmlns:xlink="http://www.w3.org/1999/xlink" xmlns:sketch="http://www.bohemiancoding.com/sketch/ns">
    <!-- Generator: Sketch 3.3.3 (12081) - http://www.bohemiancoding.com/sketch -->
    <title>Untitled</title>
    <desc>Created with Sketch.</desc>
    <defs></defs>
    <g id="Page-1" stroke="none" stroke-width="1" fill="none" fill-rule="evenodd" sketch:type="MSPage">
        <g id="lock" sketch:type="MSLayerGroup">
            <g id="Fill-2" transform="translate(69.000000, 0.000000)" fill="#27B0A3" sketch:type="MSShapeGroup">
                <path d="M106.088,94.899 L83.678,94.899 L83.678,52.627 C83.678,35.965 70.122,22.41 53.46,22.41 C36.798,22.41 23.243,35.965 23.243,52.627 L23.243,94.899 L0.833,94.899 L0.833,52.627 C0.833,23.608 24.441,0 53.46,0 C82.48,0 106.088,23.608 106.088,52.627 L106.088,94.899 L106.088,94.899 Z" id="Shape"></path>
            </g>
            <g id="Rectangle-93" transform="translate(0.000000, 62.000000)" sketch:type="MSShapeGroup">
                <path d="M39.615,12.49 L203.004,12.49 C218.256,12.49 230.619,24.853 230.619,40.105 L230.619,187.385 C230.619,202.637 218.256,215 203.004,215 L39.615,215 C24.364,215 12,202.637 12,187.385 L12,40.105 C12,24.853 24.364,12.49 39.615,12.49 L39.615,12.49 Z" id="Shape" fill="#FFFFFF"></path>
                <path d="M203.004,227 L39.615,227 C17.771,227 0,209.229 0,187.385 L0,40.105 C0,18.261 17.771,0.49 39.615,0.49 L203.004,0.49 C224.848,0.49 242.619,18.261 242.619,40.105 L242.619,187.385 C242.619,209.229 224.848,227 203.004,227 L203.004,227 Z M39.615,24.49 C31.005,24.49 24,31.495 24,40.104 L24,187.384 C24,195.995 31.005,203 39.615,203 L203.004,203 C211.614,203 218.619,195.995 218.619,187.385 L218.619,40.105 C218.619,31.495 211.614,24.49 203.004,24.49 L39.615,24.49 L39.615,24.49 Z" id="Shape" fill="#DF4F2A"></path>
            </g>
            <g id="Rectangle-31" transform="translate(67.000000, 133.000000)" fill="#27B0A3" sketch:type="MSShapeGroup">
                <path d="M14.038,0.172 L94.582,0.172 C102.207,0.172 108.389,6.354 108.389,13.98 L108.389,13.98 C108.389,21.605 102.207,27.787 94.582,27.787 L14.038,27.787 C6.413,27.787 0.23,21.605 0.23,13.98 L0.23,13.98 C0.23,6.354 6.412,0.172 14.038,0.172 L14.038,0.172 Z" id="Shape"></path>
            </g>
            <g id="Rectangle-31-Copy" transform="translate(67.000000, 188.000000)" fill="#27B0A3" sketch:type="MSShapeGroup">
                <path d="M14.038,0.401 L94.582,0.401 C102.207,0.401 108.389,6.584 108.389,14.209 L108.389,14.209 C108.389,21.834 102.207,28.017 94.582,28.017 L14.038,28.017 C6.413,28.017 0.23,21.834 0.23,14.209 L0.23,14.209 C0.23,6.584 6.412,0.401 14.038,0.401 L14.038,0.401 Z" id="Shape"></path>
            </g>
            <g id="Path" transform="translate(66.000000, 62.000000)" fill="#232C2A" sketch:type="MSShapeGroup">
                <rect id="Rectangle-path" x="0.23" y="0.49" width="27.615" height="23.615"></rect>
            </g>
            <g id="Path-Copy-3" transform="translate(150.000000, 62.000000)" fill="#232C2A" sketch:type="MSShapeGroup">
                <rect id="Rectangle-path" x="0.075" y="0.49" width="27.615" height="23.615"></rect>
            </g>
        </g>
    </g>
</svg>