<?xml version="1.0" encoding="UTF-8" standalone="no"?>
<svg width="109px" height="97px" viewBox="0 0 109 97" version="1.1" xmlns="http://www.w3.org/2000/svg" xmlns:xlink="http://www.w3.org/1999/xlink" xmlns:sketch="http://www.bohemiancoding.com/sketch/ns">
    <!-- Generator: Sketch 3.3.3 (12081) - http://www.bohemiancoding.com/sketch -->
    <title>patop-analytics</title>
    <desc>Created with Sketch.</desc>
    <defs></defs>
    <g id="Page-1" stroke="none" stroke-width="1" fill="none" fill-rule="evenodd" sketch:type="MSPage">
        <g id="patop-analytics" sketch:type="MSLayerGroup" transform="translate(0.000000, -1.000000)">
            <g id="Page-1" sketch:type="MSShapeGroup">
                <g id="patop-analytics">
                    <g id="Group">
                        <path d="M79.4989131,20.721144 C77.1293478,20.721144 75.2336956,23.1235955 75.2336956,26.1266598 C75.2336956,26.8774259 75.352174,27.628192 75.5891304,28.3789582 L63.7413044,43.3942799 C63.2673913,43.0939734 62.675,42.9438202 62.0826087,42.9438202 C61.4902174,42.9438202 61.0163044,43.0939734 60.4239131,43.3942799 L48.9315218,28.5291113 C49.2869565,27.7783452 49.4054348,27.0275791 49.4054348,26.1266598 C49.4054348,23.1235955 47.5097826,20.721144 45.1402174,20.721144 C42.7706522,20.721144 40.875,23.1235955 40.875,26.1266598 C40.875,26.8774259 40.9934782,27.628192 41.2304348,28.3789582 L29.3826087,43.3942799 C28.9086956,43.0939734 28.3163044,42.9438202 27.7239131,42.9438202 C25.3543478,42.9438202 23.4586956,45.3462717 23.4586956,48.349336 C23.4586956,51.3524004 25.3543478,53.7548519 27.7239131,53.7548519 C30.0934782,53.7548519 31.9891304,51.3524004 31.9891304,48.349336 C31.9891304,47.4484168 31.8706522,46.6976507 31.5152174,45.9468845 L43.3630435,30.9315628 C43.9554348,31.2318693 44.547826,31.3820225 45.1402174,31.3820225 C45.7326087,31.3820225 46.2065218,31.2318693 46.6804348,31.081716 L58.4097826,45.9468845 C58.172826,46.6976507 57.9358696,47.4484168 57.9358696,48.349336 C57.9358696,51.3524004 59.8315218,53.7548519 62.2010869,53.7548519 C64.5706522,53.7548519 66.4663044,51.3524004 66.4663044,48.349336 C66.4663044,47.4484168 66.347826,46.6976507 65.9923913,45.9468845 L77.8402174,30.9315628 C78.4326087,31.2318693 79.025,31.3820225 79.6173913,31.3820225 C81.9869565,31.3820225 83.8826087,28.979571 83.8826087,25.9765066 C83.8826087,22.9734423 81.75,20.721144 79.4989131,20.721144 L79.4989131,20.721144 L79.4989131,20.721144 Z" id="Shape" fill="#DF4F2A"></path>
                        <g transform="translate(2.369565, 3.003065)" fill="#FFFFFF">
                            <rect id="Rectangle-path" x="0.11847826" y="91.2931563" width="104.142391" height="0.450459653"></rect>
                            <path d="M92.5315218,9.60980593 C92.5315218,4.95505618 89.4510869,1.05107252 85.7782609,1.05107252 L18.4826087,1.05107252 C14.8097826,1.05107252 11.7293478,4.95505618 11.7293478,9.60980593 L11.7293478,66.5178754 L92.65,66.5178754 L92.65,9.60980593 L92.5315218,9.60980593 L92.5315218,9.60980593 Z M89.8065218,59.310521 C89.8065218,62.3135853 87.7923913,64.86619 85.422826,64.86619 L18.2456522,64.86619 C15.8760869,64.86619 13.8619565,62.3135853 13.8619565,59.310521 L13.8619565,9.45965271 C13.8619565,6.45658835 15.8760869,3.90398366 18.2456522,3.90398366 L85.422826,3.90398366 C87.7923913,3.90398366 89.8065218,6.45658835 89.8065218,9.45965271 L89.8065218,59.310521 L89.8065218,59.310521 Z" id="Shape"></path>
                            <path d="M93.9532609,78.9805924 L88.8586956,69.671093 L15.7576087,69.671093 L10.9,78.9805924 L36.8467391,78.9805924 L37.9130435,75.5270684 L66.347826,75.5270684 L67.4141304,78.9805924 L93.9532609,78.9805924 L93.9532609,78.9805924 Z" id="Shape"></path>
                            <path d="M103.55,88.1399387 C103.786956,88.1399387 103.905435,88.1399387 104.142391,87.9897855 L93.2423913,69.671093 L91.8206522,69.671093 L98.4554348,81.9836568 L68.2434782,81.9836568 L69.7836956,87.0888662 L34.477174,87.0888662 L36.0173913,81.9836568 L6.51630435,81.9836568 L12.9141304,69.671093 L11.0184782,69.671093 L0.236956522,87.9897855 C0.355434782,87.9897855 0.592391304,88.1399387 0.710869565,88.1399387 L103.55,88.1399387 L103.55,88.1399387 Z" id="Shape"></path>
                            <path d="M64.6891304,78.5301328 L39.5717391,78.5301328 L38.8608696,80.7824311 L65.4,80.7824311 L64.6891304,78.5301328 L64.6891304,78.5301328 Z" id="Shape"></path>
                            <path id="Shape" d="M37.9130435,84.0858019 L50.9456522,84.0858019 L50.9456522,83.7854954 L38.0315218,83.7854954 L37.9130435,84.0858019 L37.9130435,84.0858019 Z"></path>
                            <path id="Shape" d="M66.2293478,83.7854954 L53.3152174,83.7854954 L53.3152174,84.0858019 L66.347826,84.0858019 L66.2293478,83.7854954 L66.2293478,83.7854954 Z"></path>
                            <path d="M85.422826,6.90704801 L18.2456522,6.90704801 C17.1793478,6.90704801 16.2315218,8.10827374 16.2315218,9.45965271 L16.2315218,59.310521 C16.2315218,60.6618999 17.1793478,61.8631257 18.2456522,61.8631257 L85.422826,61.8631257 C86.4891304,61.8631257 87.4369565,60.6618999 87.4369565,59.310521 L87.4369565,9.45965271 C87.4369565,8.10827374 86.4891304,6.90704801 85.422826,6.90704801 L85.422826,6.90704801 L85.422826,6.90704801 Z M77.1293478,31.3820225 C76.7739131,31.3820225 76.4184782,31.3820225 76.0630435,31.2318693 L66.2293478,43.6945863 C66.347826,44.145046 66.347826,44.7456588 66.347826,45.1961184 C66.347826,49.8508683 63.3858696,53.6046987 59.7130435,53.6046987 C56.0402174,53.6046987 53.0782609,49.8508683 53.0782609,45.1961184 C53.0782609,44.7456588 53.0782609,44.145046 53.1967391,43.6945863 L43.4815218,31.3820225 L42.652174,31.3820225 C42.2967391,31.3820225 41.9413044,31.3820225 41.5858696,31.2318693 L31.752174,43.6945863 C31.8706522,44.145046 31.8706522,44.7456588 31.8706522,45.1961184 C31.8706522,49.8508683 28.9086956,53.6046987 25.2358696,53.6046987 C21.5630435,53.6046987 18.6010869,49.8508683 18.6010869,45.1961184 C18.6010869,40.5413687 21.5630435,36.7875383 25.2358696,36.7875383 C25.5913044,36.7875383 25.8282609,36.7875383 26.1836956,36.9376915 L36.1358696,24.3248213 C36.1358696,23.8743616 36.0173913,23.423902 36.0173913,22.9734423 C36.0173913,18.3186925 38.9793478,14.5648621 42.652174,14.5648621 C46.325,14.5648621 49.2869565,18.3186925 49.2869565,22.9734423 C49.2869565,23.5740551 49.2869565,24.0245148 49.1684782,24.6251277 L58.7652174,36.7875383 C59.1206522,36.7875383 59.3576087,36.6373851 59.7130435,36.6373851 C60.0684782,36.6373851 60.3054348,36.6373851 60.6608696,36.7875383 L70.6130435,24.1746681 C70.6130435,23.7242083 70.4945652,23.2737487 70.4945652,22.823289 C70.4945652,18.1685393 73.4565218,14.4147089 77.1293478,14.4147089 C80.802174,14.4147089 83.7641304,18.1685393 83.7641304,22.823289 C83.6456522,27.628192 80.6836956,31.3820225 77.1293478,31.3820225 L77.1293478,31.3820225 L77.1293478,31.3820225 Z" id="Shape"></path>
                        </g>
                        <g id="Shape" fill="#27343A">
                            <path d="M108.881522,91.2931563 C108.881522,90.6925435 108.763044,90.0919305 108.526087,89.6414709 L97.2706522,70.7221654 L97.2706522,12.6128703 C97.2706522,6.30643514 93.1239131,1.05107252 88.147826,1.05107252 L20.852174,1.05107252 C15.8760869,1.05107252 11.7293478,6.30643514 11.7293478,12.6128703 L11.7293478,70.7221654 L0.473913044,89.6414709 C0.11847826,90.0919305 3.46944695e-16,90.6925435 0.11847826,91.2931563 L0.11847826,91.2931563 L0.11847826,97.7497447 L1.30326087,97.7497447 L107.815218,97.7497447 L109,97.7497447 L109,96.5485189 L108.881522,91.2931563 L108.881522,91.2931563 Z M14.0989131,12.6128703 C14.0989131,7.95812053 17.1793478,4.05413687 20.852174,4.05413687 L88.2663044,4.05413687 C91.9391304,4.05413687 95.0195652,7.95812053 95.0195652,12.6128703 L95.0195652,69.5209397 L14.0989131,69.5209397 L14.0989131,12.6128703 L14.0989131,12.6128703 Z M68.7173913,87.0888662 L55.6847826,87.0888662 L55.6847826,86.6384066 L68.5989131,86.6384066 L68.7173913,87.0888662 L68.7173913,87.0888662 Z M67.7695652,83.7854954 L41.2304348,83.7854954 L41.9413044,81.5331971 L67.0586956,81.5331971 L67.7695652,83.7854954 L67.7695652,83.7854954 Z M40.4010869,86.7885597 L53.3152174,86.7885597 L53.3152174,87.0888662 L40.2826087,87.0888662 L40.4010869,86.7885597 L40.4010869,86.7885597 Z M68.7173913,78.5301328 L40.2826087,78.5301328 L39.2163044,81.9836568 L13.2695652,81.9836568 L18.127174,72.6741573 L91.2282609,72.6741573 L96.322826,81.9836568 L69.7836956,81.9836568 L68.7173913,78.5301328 L68.7173913,78.5301328 Z M13.5065218,72.6741573 L15.402174,72.6741573 L9.00434782,84.9867212 L38.3869565,84.9867212 L36.8467391,90.0919305 L72.2717391,90.0919305 L70.7315218,84.9867212 L100.706522,84.9867212 L94.0717391,72.6741573 L95.4934782,72.6741573 L106.393478,90.9928498 C106.275,90.9928498 106.038044,91.1430031 105.801087,91.1430031 L3.08043478,91.1430031 C2.84347826,91.1430031 2.725,91.1430031 2.60652174,90.9928498 L13.5065218,72.6741573 L13.5065218,72.6741573 Z M2.48804348,94.2962206 L106.630435,94.2962206 L106.630435,94.7466802 L2.48804348,94.7466802 L2.48804348,94.2962206 L2.48804348,94.2962206 Z"></path>
                            <path d="M87.7923913,6.90704801 L20.6152174,6.90704801 C18.2456522,6.90704801 16.2315218,9.45965271 16.2315218,12.462717 L16.2315218,62.3135853 C16.2315218,65.3166496 18.2456522,67.8692543 20.6152174,67.8692543 L87.7923913,67.8692543 C90.1619565,67.8692543 92.1760869,65.3166496 92.1760869,62.3135853 L92.1760869,12.462717 C92.1760869,9.45965271 90.1619565,6.90704801 87.7923913,6.90704801 L87.7923913,6.90704801 L87.7923913,6.90704801 Z M89.8065218,62.3135853 C89.8065218,63.6649642 88.8586956,64.86619 87.7923913,64.86619 L20.6152174,64.86619 C19.5489131,64.86619 18.6010869,63.6649642 18.6010869,62.3135853 L18.6010869,12.462717 C18.6010869,11.1113381 19.5489131,9.91011236 20.6152174,9.91011236 L87.7923913,9.91011236 C88.8586956,9.91011236 89.8065218,11.1113381 89.8065218,12.462717 L89.8065218,62.3135853 L89.8065218,62.3135853 Z"></path>
                            <path d="M79.4989131,17.7180797 C75.8260869,17.7180797 72.8641304,21.4719101 72.8641304,26.1266598 C72.8641304,26.5771195 72.8641304,27.0275791 72.9826087,27.4780389 L63.0304348,40.0909091 C62.675,40.0909091 62.4380435,39.9407559 62.0826087,39.9407559 C61.727174,39.9407559 61.4902174,39.9407559 61.1347826,40.0909091 L51.5380435,27.9284985 C51.6565218,27.3278856 51.6565218,26.8774259 51.6565218,26.2768131 C51.6565218,21.6220633 48.6945652,17.8682329 45.0217391,17.8682329 C41.3489131,17.8682329 38.3869565,21.6220633 38.3869565,26.2768131 C38.3869565,26.7272728 38.3869565,27.1777324 38.5054348,27.628192 L28.5532609,40.2410623 C28.197826,40.2410623 27.9608696,40.0909091 27.6054348,40.0909091 C23.9326087,40.0909091 20.9706522,43.8447395 20.9706522,48.4994892 C20.9706522,53.154239 23.9326087,56.9080695 27.6054348,56.9080695 C31.2782609,56.9080695 34.2402174,53.154239 34.2402174,48.4994892 C34.2402174,48.0490296 34.2402174,47.4484168 34.1217391,46.9979571 L43.9554348,34.5352401 C44.3108696,34.5352401 44.6663044,34.6853933 45.0217391,34.6853933 L45.8510869,34.6853933 L55.5663044,46.9979571 C55.447826,47.4484168 55.447826,48.0490296 55.447826,48.4994892 C55.447826,53.154239 58.4097826,56.9080695 62.0826087,56.9080695 C65.7554348,56.9080695 68.7173913,53.154239 68.7173913,48.4994892 C68.7173913,48.0490296 68.7173913,47.4484168 68.5989131,46.9979571 L78.4326087,34.5352401 C78.7880435,34.5352401 79.1434782,34.6853933 79.4989131,34.6853933 C83.1717391,34.6853933 86.1336956,30.9315628 86.1336956,26.2768131 C86.0152174,21.4719101 83.0532609,17.7180797 79.4989131,17.7180797 L79.4989131,17.7180797 L79.4989131,17.7180797 Z M65.8739131,45.7967314 C66.1108696,46.5474975 66.347826,47.2982636 66.347826,48.1991829 C66.347826,51.2022472 64.452174,53.6046987 62.0826087,53.6046987 C59.7130435,53.6046987 57.8173913,51.2022472 57.8173913,48.1991829 C57.8173913,47.2982636 57.9358696,46.5474975 58.2913044,45.7967314 L46.5619565,30.9315628 C46.0880435,31.2318693 45.6141304,31.2318693 45.0217391,31.2318693 C44.4293478,31.2318693 43.8369565,31.081716 43.2445652,30.7814097 L31.3967391,45.7967314 C31.6336956,46.5474975 31.8706522,47.2982636 31.8706522,48.1991829 C31.8706522,51.2022472 29.975,53.6046987 27.6054348,53.6046987 C25.2358696,53.6046987 23.3402174,51.2022472 23.3402174,48.1991829 C23.3402174,45.1961184 25.2358696,42.793667 27.6054348,42.793667 C28.197826,42.793667 28.6717391,42.9438202 29.2641304,43.2441267 L41.1119565,28.2288049 C40.875,27.628192 40.7565218,26.8774259 40.7565218,25.9765066 C40.7565218,22.9734423 42.652174,20.5709908 45.0217391,20.5709908 C47.3913044,20.5709908 49.2869565,22.9734423 49.2869565,25.9765066 C49.2869565,26.8774259 49.1684782,27.628192 48.8130435,28.3789582 L60.4239131,43.0939734 C60.897826,42.793667 61.4902174,42.6435138 62.0826087,42.6435138 C62.675,42.6435138 63.1489131,42.793667 63.7413044,43.0939734 L75.5891304,28.0786517 C75.352174,27.4780389 75.2336956,26.7272728 75.2336956,25.8263535 C75.2336956,22.823289 77.1293478,20.4208375 79.4989131,20.4208375 C81.8684782,20.4208375 83.7641304,22.823289 83.7641304,25.8263535 C83.7641304,28.8294178 81.8684782,31.2318693 79.4989131,31.2318693 C78.9065218,31.2318693 78.3141304,31.081716 77.7217391,30.7814097 L65.8739131,45.7967314 L65.8739131,45.7967314 Z"></path>
                        </g>
                    </g>
                </g>
            </g>
        </g>
    </g>
</svg>