<?xml version="1.0" encoding="UTF-8" standalone="no"?>
<svg width="178px" height="135px" viewBox="0 0 178 135" version="1.1" xmlns="http://www.w3.org/2000/svg" xmlns:xlink="http://www.w3.org/1999/xlink" xmlns:sketch="http://www.bohemiancoding.com/sketch/ns">
    <!-- Generator: Sketch 3.3.3 (12081) - http://www.bohemiancoding.com/sketch -->
    <title>Untitled 2</title>
    <desc>Created with Sketch.</desc>
    <defs></defs>
    <g id="Page-1" stroke="none" stroke-width="1" fill="none" fill-rule="evenodd" sketch:type="MSPage">
        <g id="phone" sketch:type="MSLayerGroup">
            <g id="components" sketch:type="MSShapeGroup">
                <g id="features">
                    <g id="features-laag-copy">
                        <g id="Group">
                            <g id="phone">
                                <path d="M62,47 L70,47 C70,41.486 74.486,37 80,37 L80,29 C70.06,29 62,37.06 62,47" id="Imported-Layers" fill="#27B0A3"></path>
                                <path d="M100,47 L108,47 C108,41.486 112.486,37 118,37 L118,29 C108.06,29 100,37.06 100,47" id="Imported-Layers-Copy" fill="#27B0A3" transform="translate(109.000000, 38.000000) scale(-1, 1) translate(-109.000000, -38.000000) "></path>
                                <path d="M178,18 L170,18 C170,12.486 165.514,8 160,8 L160,0 C169.94,0 178,8.06 178,18 L178,18 Z M0,18 L8,18 C8,12.486 12.486,8 18,8 L18,0 C8.06,0 0,8.06 0,18 L0,18 Z M0,18 L8,18 L8,93 L0,93 L0,18 L0,18 Z M170,18 L178,18 L178,93 L170,93 L170,18 L170,18 Z M18,0 L160,0 L160,8 L18,8 L18,0 L18,0 Z M178,93 L170,93 C170,98.514 165.514,103 160,103 L160,111 C169.94,111 178,102.94 178,93 L178,93 Z M0,93 L8,93 C8,98.514 12.486,103 18,103 L18,111 C8.06,111 0,102.94 0,93 L0,93 Z M18,111 L160,111 L160,103 L18,103 L18,111 L18,111 Z" id="Imported-Layers-Copy-4" fill="#DF4F2A"></path>
                                <path d="M62,135 L70,135 C70,129.486 74.486,125 80,125 L80,117 C70.06,117 62,125.06 62,135" id="Imported-Layers-Copy-3" fill="#27B0A3" transform="translate(71.000000, 126.000000) scale(1, -1) translate(-71.000000, -126.000000) "></path>
                                <path d="M100,135 L108,135 C108,129.486 112.486,125 118,125 L118,117 C108.06,117 100,125.06 100,135" id="Imported-Layers-Copy-2" fill="#27B0A3" transform="translate(109.000000, 126.000000) scale(-1, -1) translate(-109.000000, -126.000000) "></path>
                                <rect id="Rectangle-7" fill="#27B0A3" x="80" y="29" width="20" height="8"></rect>
                                <rect id="Rectangle-7-Copy" fill="#27B0A3" x="80" y="127" width="20" height="8"></rect>
                                <rect id="Rectangle-8" fill="#27B0A3" x="62" y="46.6679688" width="8" height="70.3300018"></rect>
                                <rect id="Rectangle-8-Copy" fill="#27B0A3" x="110" y="46.6679688" width="8" height="70.3300018"></rect>
                                <rect id="Rectangle-16" fill="#DF4F2A" x="62" y="103" width="56" height="8"></rect>
                                <circle id="Oval-1" fill="#27B0A3" cx="91" cy="119" r="4"></circle>
                            </g>
                        </g>
                    </g>
                </g>
            </g>
        </g>
    </g>
</svg>