<?xml version="1.0" encoding="utf-8"?>
<!-- Generator: Adobe Illustrator 18.1.1, SVG Export Plug-In . SVG Version: 6.00 Build 0)  -->
<!DOCTYPE svg PUBLIC "-//W3C//DTD SVG 1.1//EN" "http://www.w3.org/Graphics/SVG/1.1/DTD/svg11.dtd">
<svg version="1.1" id="Layer_1" xmlns="http://www.w3.org/2000/svg" xmlns:xlink="http://www.w3.org/1999/xlink" x="0px" y="0px"
	 viewBox="0 0 100 100" enable-background="new 0 0 100 100" xml:space="preserve">
<g>
	<path fill="none" d="M27.7,21.6c0.2-0.1,0.3-0.3,0.4-0.4c0.1-0.2,0.1-0.3,0.1-0.5c0-0.2,0-0.4-0.1-0.6C28,20,28,19.8,27.8,19.7
		c-0.1-0.1-0.3-0.2-0.4-0.3c-0.2-0.1-0.4-0.1-0.6-0.1c-0.2,0-0.5,0.1-0.7,0.2c-0.4,0.1-0.7,0.3-1.1,0.4c0.3,0.8,0.6,1.6,0.9,2.4
		c0.3-0.1,0.7-0.3,1-0.4C27.3,21.9,27.5,21.7,27.7,21.6z"/>
	<path fill="none" d="M35.5,19.3c0.3-0.1,0.5-0.1,0.7-0.2c0.2-0.1,0.3-0.2,0.4-0.4c0.1-0.1,0.2-0.3,0.2-0.5c0-0.2,0-0.3,0-0.5
		c-0.1-0.4-0.3-0.6-0.6-0.8c-0.3-0.1-0.7-0.2-1.3,0C34.6,17,34.3,17,34,17.1c0.2,0.8,0.4,1.6,0.6,2.3C34.9,19.4,35.2,19.3,35.5,19.3
		z"/>
	<g>
		<path fill="#F6B31A" d="M78.1,42.9C76.8,34.6,64.7,28.1,50,28.1s-26.8,6.5-28.1,14.8c-0.1,0.3-0.1,0.7-0.1,1c0,0.1,0,0.3,0,0.4
			c0,0.2,0,0.4,0,0.6c0.2,2.9,1.7,5.7,4.3,8c0.2,0.2,0.5,0.4,0.7,0.6c0.3,0.2,0.5,0.4,0.8,0.6c5.2,3.8,13.2,6.3,22.3,6.3
			s17.2-2.5,22.3-6.3c0.3-0.2,0.5-0.4,0.8-0.6c0.3-0.2,0.5-0.4,0.7-0.6c2.6-2.3,4.1-5.1,4.3-8c0-0.2,0-0.4,0-0.6c0-0.1,0-0.3,0-0.4
			C78.1,43.5,78.1,43.2,78.1,42.9z M56,46.1v1v1v0.2h1.3H58h2v0.5v1.5v3v2h-2H44h-2v-2v-3v-1.9v-0.1h0.7H44h2.7v-0.4v-1v-1v-1v-1v-1
			v-0.2c-0.2,0.1-0.4,0.2-0.6,0.2c-0.1,0-0.1,0.1-0.2,0.1c-0.4,0.1-0.7,0.1-1.1,0.1c-0.4,0-0.8-0.1-1.2-0.2c-0.1,0-0.3-0.1-0.4-0.1
			c-0.5-0.2-0.8-0.5-1.2-0.8l-1.7-1.8l-1.6-1.7l2-1.3l7.7-5.1l0.5-0.3h0.6H54h2v2v9.2v1v1V46.1z"/>
	</g>
	<g>
		<path fill="#FFFFFF" d="M78.2,63.9v-0.2v-4.3v-2v-6.7c-0.7,1.2-1.7,2.3-2.8,3.3c-0.2,0.2-0.5,0.4-0.7,0.6
			c-0.2,0.2-0.5,0.4-0.8,0.6c-5.5,4.3-14.2,7.1-23.9,7.1c-9.7,0-18.3-2.8-23.9-7.1c-0.3-0.2-0.5-0.4-0.8-0.6
			c-0.2-0.2-0.5-0.4-0.7-0.6c-1.1-1-2.1-2.2-2.8-3.3v6.7v2v4.3v0.2h0h-1v0h1c0,8.9,12.6,16.2,28.2,16.2S78.2,72.9,78.2,63.9l1,0v0
			H78.2L78.2,63.9z"/>
		<path fill="#FFFFFF" d="M44.2,40.9c0.2,0.1,0.5,0.2,0.8,0.2c0.2,0,0.3,0,0.5-0.1s0.4-0.1,0.5-0.2l2.8-1.8c0,0.5-0.1,1-0.1,1.5v2.4
			v1v1v0.9v1v1v2.5H44v3h14v-3h-4v-2.4v-1v-1v-1.1v-1v-1v-9.2h-4.3L42,38.8l1.7,1.8C43.8,40.7,43.9,40.8,44.2,40.9z"/>
	</g>
	<g>
		<path fill="#1059A5" d="M80.2,44.3c0-0.1,0-0.1,0-0.2v-1.3h-0.1C78.9,33.5,65.8,26.1,50,26.1s-28.9,7.4-30.1,16.8h-0.1v1.3
			c0,0.1,0,0.1,0,0.2s0,0.1,0,0.2v19.3c0,0.1,0,0.1,0,0.2c0,10,13.5,18.2,30.2,18.2S80.2,74,80.2,63.9c0-0.1,0-0.1,0-0.2V44.4
			C80.2,44.4,80.2,44.3,80.2,44.3z M78.2,57.4v2v4.3v0.2h0h1v0h-1c0,8.9-12.6,16.2-28.2,16.2s-28.2-7.3-28.2-16.2h-1v0h1h0v-0.2
			v-4.3v-2v-6.7c0.7,1.2,1.7,2.3,2.8,3.3c0.2,0.2,0.5,0.4,0.7,0.6c0.2,0.2,0.5,0.4,0.8,0.6c5.5,4.3,14.2,7.1,23.9,7.1
			c9.7,0,18.3-2.8,23.9-7.1c0.3-0.2,0.5-0.4,0.8-0.6c0.2-0.2,0.5-0.4,0.7-0.6c1.1-1,2.1-2.2,2.8-3.3V57.4z M21.9,42.9
			c1.3-8.3,13.4-14.8,28.1-14.8s26.8,6.5,28.1,14.8c0.1,0.3,0.1,0.7,0.1,1c0,0.1,0,0.3,0,0.4c0,0.2,0,0.4,0,0.6
			c-0.2,2.9-1.7,5.7-4.3,8c-0.2,0.2-0.5,0.4-0.7,0.6c-0.3,0.2-0.5,0.4-0.8,0.6C67.2,58,59.1,60.4,50,60.4S32.8,58,27.7,54.1
			c-0.3-0.2-0.5-0.4-0.8-0.6c-0.3-0.2-0.5-0.4-0.7-0.6c-2.6-2.3-4.1-5.1-4.3-8c0-0.2,0-0.4,0-0.6c0-0.1,0-0.3,0-0.4
			C21.9,43.5,21.9,43.2,21.9,42.9z"/>
		<path fill="#1059A5" d="M42.2,42c0.3,0.3,0.7,0.6,1.2,0.8c0.1,0.1,0.2,0.1,0.4,0.1c0.4,0.1,0.8,0.2,1.2,0.2c0.3,0,0.7,0,1.1-0.1
			c0.1,0,0.1,0,0.2-0.1c0.2-0.1,0.4-0.1,0.6-0.2v0.2v1v1v1v1v1v0.4H44h-1.3H42v0.1v1.9v3v2h2h14h2v-2v-3v-1.5v-0.5h-2h-0.7H56v-0.2
			v-1v-1v-1.3v-1v-1v-9.2v-2h-2h-4.3H49L48.5,32l-7.7,5.1l-2,1.3l1.6,1.7L42.2,42z M54,33.7v9.2v1v1v1.1v1v1v2.4h4v3H44v-3h4.7v-2.5
			v-1v-1v-0.9v-1v-1v-2.4c0-0.5,0-1,0.1-1.5L46,40.7c-0.2,0.1-0.4,0.2-0.5,0.2s-0.4,0.1-0.5,0.1c-0.3,0-0.6-0.1-0.8-0.2
			c-0.2-0.1-0.4-0.2-0.5-0.3L42,38.8l7.7-5.1H54z"/>
	</g>
	<path fill="#0055A4" d="M27.3,25.7c-0.3-0.8-0.6-1.6-0.9-2.4c0.3-0.1,0.7-0.3,1-0.4c0.5-0.2,0.9-0.4,1.2-0.6
		c0.3-0.2,0.6-0.5,0.7-0.8c0.2-0.3,0.3-0.6,0.3-0.9c0-0.3,0-0.6-0.1-1c-0.1-0.3-0.3-0.6-0.5-0.8c-0.2-0.2-0.5-0.4-0.8-0.5
		c-0.3-0.1-0.7-0.2-1.1-0.1c-0.4,0-0.9,0.1-1.4,0.3c-0.9,0.3-1.7,0.6-2.6,1c0.9,2.2,1.9,4.5,2.8,6.7C26.4,26,26.9,25.9,27.3,25.7z
		 M25,19.9c0.4-0.1,0.7-0.3,1.1-0.4c0.3-0.1,0.5-0.2,0.7-0.2c0.2,0,0.4,0,0.6,0.1c0.2,0.1,0.3,0.2,0.4,0.3c0.1,0.1,0.2,0.3,0.3,0.5
		c0.1,0.2,0.1,0.4,0.1,0.6c0,0.2-0.1,0.3-0.1,0.5c-0.1,0.2-0.2,0.3-0.4,0.4c-0.2,0.1-0.4,0.2-0.6,0.3c-0.3,0.1-0.7,0.3-1,0.4
		C25.7,21.5,25.4,20.7,25,19.9z"/>
	<path fill="#0055A4" d="M35.5,23.2c-0.2-0.9-0.4-1.8-0.7-2.8c0.2,0,0.4-0.1,0.6-0.1c0.1,0,0.3,0,0.3,0c0.1,0,0.2,0.1,0.2,0.1
		c0.7,0.6,1.4,1.3,2,2c0.1,0.1,0.2,0.1,0.2,0.2c0.1,0,0.2,0,0.3,0c0.4-0.1,0.8-0.1,1.2-0.2c-0.8-0.8-1.5-1.5-2.3-2.3
		c-0.2-0.2-0.3-0.3-0.5-0.3c0.3-0.1,0.5-0.3,0.7-0.5c0.2-0.2,0.3-0.4,0.4-0.6c0.1-0.2,0.2-0.4,0.2-0.6c0-0.2,0-0.5,0-0.7
		c-0.1-0.3-0.2-0.6-0.3-0.8c-0.2-0.2-0.4-0.4-0.7-0.5c-0.3-0.1-0.6-0.2-1.1-0.2c-0.4,0-0.9,0-1.5,0.2c-0.8,0.2-1.6,0.4-2.5,0.6
		c0.6,2.3,1.2,4.7,1.8,7C34.6,23.4,35,23.3,35.5,23.2z M35,16.9c0.5-0.1,1-0.1,1.3,0c0.3,0.1,0.5,0.4,0.6,0.8c0,0.2,0,0.4,0,0.5
		c0,0.2-0.1,0.3-0.2,0.5c-0.1,0.1-0.3,0.3-0.4,0.4c-0.2,0.1-0.4,0.2-0.7,0.2c-0.3,0.1-0.6,0.1-0.9,0.2c-0.2-0.8-0.4-1.6-0.6-2.3
		C34.3,17,34.6,17,35,16.9z"/>
	<path fill="#0055A4" d="M47.4,21.5c0-0.4,0-0.7,0-1.1c-1.1,0-2.2,0.1-3.3,0.2c-0.1-0.7-0.1-1.4-0.2-2c0.9-0.1,1.8-0.2,2.7-0.2
		c0-0.3,0-0.7-0.1-1c-0.9,0-1.8,0.1-2.8,0.2c-0.1-0.7-0.1-1.3-0.2-2c1.2-0.1,2.4-0.2,3.6-0.2c0-0.4,0-0.7,0-1.1
		c-1.7,0.1-3.5,0.2-5.2,0.4c0.3,2.4,0.6,4.8,0.8,7.2C44.3,21.7,45.8,21.6,47.4,21.5z"/>
	<path fill="#0055A4" d="M52.6,20.5c-0.3,0-0.5-0.1-0.7-0.1c-0.2-0.1-0.3-0.2-0.5-0.2c-0.1-0.1-0.3-0.2-0.4-0.2
		c-0.1-0.1-0.2-0.1-0.3-0.1c-0.1,0-0.1,0-0.2,0c-0.1,0-0.1,0.1-0.1,0.1c-0.1,0.2-0.3,0.4-0.4,0.6c0.1,0.1,0.3,0.3,0.5,0.4
		c0.2,0.1,0.4,0.2,0.6,0.3c0.2,0.1,0.4,0.2,0.7,0.2c0.2,0.1,0.5,0.1,0.7,0.1c0.4,0,0.8,0,1.1-0.1c0.3-0.1,0.6-0.3,0.8-0.4
		c0.2-0.2,0.4-0.4,0.6-0.7c0.1-0.3,0.2-0.6,0.2-0.9c0-0.3,0-0.6-0.1-0.8c-0.1-0.2-0.2-0.4-0.4-0.6c-0.2-0.2-0.3-0.3-0.6-0.4
		c-0.2-0.1-0.4-0.2-0.7-0.3c-0.2-0.1-0.4-0.2-0.7-0.2c-0.2-0.1-0.4-0.2-0.6-0.2c-0.2-0.1-0.3-0.2-0.4-0.3c-0.1-0.1-0.1-0.3-0.1-0.4
		c0-0.1,0-0.3,0.1-0.4c0.1-0.1,0.1-0.2,0.2-0.3c0.1-0.1,0.2-0.1,0.4-0.2c0.2,0,0.3-0.1,0.6,0c0.2,0,0.4,0,0.6,0.1
		c0.2,0.1,0.3,0.1,0.4,0.2c0.1,0.1,0.2,0.1,0.3,0.2c0.1,0.1,0.2,0.1,0.2,0.1c0.1,0,0.1,0,0.2,0c0.1,0,0.1-0.1,0.2-0.1
		c0.1-0.2,0.3-0.4,0.4-0.6c-0.3-0.3-0.6-0.5-1-0.6c-0.4-0.2-0.8-0.3-1.3-0.3c-0.4,0-0.8,0-1.2,0.1c-0.3,0.1-0.6,0.3-0.9,0.4
		c-0.2,0.2-0.4,0.4-0.5,0.7c-0.1,0.3-0.2,0.5-0.2,0.8c0,0.3,0,0.6,0.2,0.8c0.1,0.2,0.2,0.4,0.4,0.6c0.2,0.2,0.4,0.3,0.6,0.4
		c0.2,0.1,0.4,0.2,0.7,0.3c0.2,0.1,0.4,0.1,0.7,0.2c0.2,0.1,0.4,0.1,0.6,0.2c0.2,0.1,0.3,0.2,0.4,0.3c0.1,0.1,0.1,0.3,0.1,0.5
		c0,0.3-0.1,0.6-0.4,0.8C53.3,20.4,53,20.5,52.6,20.5z"/>
	<path fill="#0055A4" d="M58.7,21.9c0.2,0.1,0.4,0.2,0.6,0.3c0.2,0.1,0.4,0.1,0.7,0.2c0.4,0.1,0.8,0.1,1.1,0
		c0.3-0.1,0.6-0.2,0.9-0.3c0.3-0.2,0.5-0.4,0.6-0.6c0.2-0.3,0.3-0.5,0.4-0.9c0.1-0.3,0.1-0.6,0-0.8c-0.1-0.2-0.2-0.4-0.3-0.6
		c-0.1-0.2-0.3-0.3-0.5-0.5c-0.2-0.1-0.4-0.3-0.6-0.4c-0.2-0.1-0.4-0.2-0.6-0.3c-0.2-0.1-0.4-0.2-0.5-0.3c-0.2-0.1-0.3-0.2-0.4-0.4
		c-0.1-0.1-0.1-0.3-0.1-0.4c0-0.1,0.1-0.3,0.1-0.4c0.1-0.1,0.2-0.2,0.3-0.3c0.1-0.1,0.3-0.1,0.4-0.1c0.2,0,0.3,0,0.6,0
		c0.2,0,0.4,0.1,0.6,0.2c0.2,0.1,0.3,0.2,0.4,0.2c0.1,0.1,0.2,0.2,0.3,0.2c0.1,0.1,0.2,0.1,0.2,0.1c0.1,0,0.1,0,0.2,0
		c0.1,0,0.1-0.1,0.2-0.1c0.2-0.2,0.3-0.4,0.5-0.6c-0.2-0.3-0.5-0.5-0.9-0.8c-0.4-0.2-0.8-0.4-1.3-0.4c-0.4-0.1-0.8-0.1-1.2,0
		c-0.4,0.1-0.7,0.2-0.9,0.3c-0.3,0.2-0.5,0.4-0.6,0.6c-0.1,0.2-0.2,0.5-0.3,0.7c0,0.3,0,0.6,0.1,0.8c0.1,0.2,0.2,0.4,0.3,0.6
		c0.1,0.2,0.3,0.3,0.5,0.4c0.2,0.1,0.4,0.2,0.6,0.3c0.2,0.1,0.4,0.2,0.6,0.3c0.2,0.1,0.4,0.2,0.5,0.3c0.2,0.1,0.3,0.2,0.3,0.4
		c0.1,0.1,0.1,0.3,0.1,0.5c-0.1,0.3-0.2,0.6-0.5,0.7c-0.2,0.1-0.6,0.2-1,0.1c-0.3,0-0.5-0.1-0.6-0.2c-0.2-0.1-0.3-0.2-0.4-0.3
		c-0.1-0.1-0.2-0.2-0.3-0.3c-0.1-0.1-0.2-0.1-0.3-0.1c-0.1,0-0.1,0-0.2,0c-0.1,0-0.1,0.1-0.2,0.1c-0.2,0.2-0.3,0.4-0.5,0.6
		c0.1,0.2,0.3,0.3,0.4,0.5C58.3,21.6,58.5,21.8,58.7,21.9z"/>
	<path fill="#0055A4" d="M74.4,25.4c-0.4-0.2-0.9-0.3-1.3-0.5c0.8-2,1.5-3.9,2.3-5.9c-0.4-0.1-0.7-0.3-1.1-0.4c-1,0.3-2,0.6-3,0.9
		c0.1,0.2,0.2,0.4,0.2,0.6c0,0,0,0.1,0.1,0.1c0,0,0.1,0.1,0.2,0.1c0,0,0.1,0,0.1,0c0.1,0,0.1,0,0.2,0c0.5-0.1,0.9-0.3,1.4-0.4
		c-0.1,0.2-0.1,0.3-0.2,0.5c-0.5,1.3-1,2.7-1.5,4c-0.5-0.2-1-0.3-1.5-0.5c-0.1,0.3-0.2,0.6-0.3,0.9c1.3,0.4,2.6,0.9,3.9,1.5
		C74.1,25.9,74.2,25.7,74.4,25.4z"/>
</g>
</svg>
