<?xml version="1.0" encoding="utf-8"?>
<!-- Generator: Adobe Illustrator 18.1.1, SVG Export Plug-In . SVG Version: 6.00 Build 0)  -->
<!DOCTYPE svg PUBLIC "-//W3C//DTD SVG 1.1//EN" "http://www.w3.org/Graphics/SVG/1.1/DTD/svg11.dtd">
<svg version="1.1" id="Layer_1" xmlns="http://www.w3.org/2000/svg" xmlns:xlink="http://www.w3.org/1999/xlink" x="0px" y="0px"
	 viewBox="0 0 100 100" enable-background="new 0 0 100 100" xml:space="preserve">
<g>
	<path fill="none" d="M80.5,46l-1-1.3l1.4,0c-1.3-0.1-2.4-0.5-3.5-1.3l2.4,5.5L80.5,46L80.5,46z"/>
	<path fill="none" d="M30.3,48.9l-2.2-1.5l-4-2.3l-3.4,7.3c-0.3,0.7-1,1.2-1.8,1.2c-0.8,0-1.5-0.5-1.9-1.2L13.8,45l-5.4,3.1
		C6.9,49,6,50.6,6,52.3l0,1.9l25.7,0l0-1.9C31.7,51.2,31,49.8,30.3,48.9z"/>
	<path fill="none" d="M81.1,42.8v0.9V42.8c3.4,0,6.1-4,6.1-9c0-4.9-1.4-6.4-6.1-6.4c-2.6,0-4.2,0.4-5,1.3c-0.8,0.9-1.2,2.4-1.2,5.1
		C75,38.8,77.7,42.8,81.1,42.8z"/>
	<path fill="none" d="M18.9,42.8v0.9V42.8c3.4,0,6.1-4,6.1-9c0-4.9-1.4-6.4-6.1-6.4c-2.6,0-4.2,0.4-5,1.3c-0.8,0.9-1.2,2.4-1.2,5.1
		C12.7,38.8,15.5,42.8,18.9,42.8z"/>
	<path fill="none" d="M82.7,44.6l-1,1.3l0,0l0.8,3.2l3-6.4c-1.2,1.1-2.6,1.7-4.1,1.8L82.7,44.6z"/>
	<path fill="none" d="M86.4,45.1L83,52.4c-0.3,0.7-1,1.2-1.8,1.2c-0.8,0-1.5-0.5-1.9-1.2L76.1,45l-5.4,3.1c-1.5,0.9-2.4,2.5-2.4,4.2
		l0,1.9l25.7,0l0-1.9c0-1-0.7-2.5-1.4-3.4l-2.2-1.5L86.4,45.1z"/>
	<path fill="none" d="M20.4,44.6l-1,1.3l0,0l0.8,3.2l3-6.4c-1.2,1.1-2.6,1.7-4.1,1.8L20.4,44.6z"/>
	<path fill="none" d="M18.2,46l-1-1.3l1.4,0c-1.3-0.1-2.4-0.5-3.5-1.3l2.4,5.5L18.2,46L18.2,46z"/>
	<path fill="none" d="M50.2,54.9v0.9V54.9c3.5,0,6.8-1.9,9.3-5.5c2.6-3.6,4-8.4,4-13.6c0-10.6-3.1-13.8-13.3-13.8
		c-5.6,0-8.9,0.9-10.7,2.9c-1.8,2-2.6,5.2-2.6,10.9C36.9,46.4,42.9,54.9,50.2,54.9z"/>
	<path fill="none" d="M23.4,73.1l0,4.8L77,77.9l0-4.8c0-2.4-1.5-5.6-3.1-7.5l-4.5-3l-9-5.2L53.2,73c-0.5,1.1-1.6,1.8-2.9,1.8
		c-1.3,0-2.4-0.7-2.9-1.9L40.5,57c-0.2,0.1-0.4,0.2-0.6,0.3l-11.2,6.5C25.5,65.7,23.4,69.3,23.4,73.1z"/>
	<path fill="#0756A4" d="M50.2,56.7L50.2,56.7c4.1,0,7.9-2.2,10.8-6.2c2.8-3.9,4.3-9.1,4.3-14.6c0-11.5-4-15.6-15.1-15.6
		c-6.2,0-9.8,1.1-12,3.5c-2.2,2.3-3.1,5.9-3.1,12.1C35.1,47.4,41.9,56.7,50.2,56.7z M39.5,25c1.9-2,5.2-2.9,10.7-2.9
		c10.1,0,13.2,3.2,13.3,13.8c0,5.1-1.4,10-4,13.6c-2.5,3.5-5.8,5.5-9.3,5.5l0,0.9v-0.9c-7.3,0-13.3-8.5-13.3-19
		C36.9,30.2,37.7,27,39.5,25z"/>
	<path fill="#0756A4" d="M21.6,73.1l0,6.6l57.3-0.1l0-6.6c0-3-1.9-6.6-3.6-8.8L70.4,61l-9.1-5.2c-0.3-0.2-0.6-0.3-0.9-0.5l-0.8-0.4
		l-6.3,13.5l-1.9-8l0-0.1l1.9-2.7l-6.5,0l2,2.7v0l-1.8,7.4l-5.6-13.1L40.7,55c-0.6,0.2-1.1,0.5-1.6,0.8l-11.2,6.5
		C24,64.5,21.6,68.7,21.6,73.1z M40,57.3c0.2-0.1,0.4-0.2,0.6-0.3l6.8,15.9c0.5,1.2,1.6,1.9,2.9,1.9c1.3,0,2.4-0.7,2.9-1.8l7.3-15.7
		l9,5.2l4.5,3c1.6,2,3.1,5.1,3.1,7.5l0,4.8l-53.6,0.1l0-4.8c0-3.8,2-7.4,5.4-9.3L40,57.3z"/>
	<path fill="#0756A4" d="M86.9,43.3c-0.2-0.1-0.3-0.2-0.5-0.2l-0.8-0.4c2.1-2,3.4-5.2,3.4-8.9c0-6-2.2-8.2-8-8.2
		c-3.2,0-5.1,0.6-6.3,1.9c-1.2,1.2-1.6,3.1-1.6,6.3c0,3.7,1.4,7,3.5,8.9l-0.4,0.2c-0.3,0.1-0.6,0.3-0.9,0.4l-5.6,3.2
		c-2.1,1.2-3.3,3.4-3.3,5.8l0,3.7l29.3,0l0-3.7c0-1.6-0.9-3.5-1.9-4.6l-2.5-1.8L86.9,43.3z M82.5,49.2L81.7,46l0,0l1-1.3l-1.3,0
		c1.5-0.1,2.9-0.7,4.1-1.8L82.5,49.2z M75,33.8c0-2.7,0.3-4.2,1.2-5.1c0.8-0.9,2.4-1.3,5-1.3c4.7,0,6.1,1.4,6.1,6.4c0,5-2.7,9-6.1,9
		l0,0.9v-0.9C77.7,42.8,75,38.8,75,33.8z M80.9,44.6l-1.4,0l1,1.3v0l-0.7,2.9l-2.4-5.5C78.4,44.1,79.6,44.6,80.9,44.6z M94,52.3
		l0,1.9l-25.7,0l0-1.9c0-1.7,0.9-3.4,2.4-4.2l5.4-3.1l3.2,7.4c0.3,0.8,1,1.2,1.9,1.2c0.8,0,1.5-0.5,1.8-1.2l3.4-7.3l4,2.3l2.2,1.5
		C93.3,49.8,94,51.2,94,52.3z"/>
	<path fill="#0756A4" d="M33.5,52.3c0-1.6-0.9-3.5-1.9-4.6l-2.5-1.8l-4.5-2.6c-0.2-0.1-0.3-0.2-0.5-0.2l-0.8-0.4
		c2.1-2,3.4-5.2,3.4-8.9c0-6-2.2-8.2-8-8.2c-3.2,0-5.1,0.6-6.3,1.9c-1.2,1.2-1.6,3.1-1.6,6.3c0,3.7,1.4,7,3.5,8.9L14,42.9
		c-0.3,0.1-0.6,0.3-0.9,0.4l-5.6,3.2c-2.1,1.2-3.3,3.4-3.3,5.8l0,3.7l29.3,0L33.5,52.3z M20.3,49.2L19.5,46l0,0l1-1.3l-1.3,0
		c1.5-0.1,2.9-0.7,4.1-1.8L20.3,49.2z M12.7,33.8c0-2.7,0.3-4.2,1.2-5.1c0.8-0.9,2.4-1.3,5-1.3c4.7,0,6.1,1.4,6.1,6.4
		c0,5-2.7,9-6.1,9l0,0.9v-0.9C15.5,42.8,12.7,38.8,12.7,33.8z M18.6,44.6l-1.4,0l1,1.3v0l-0.7,2.9l-2.4-5.5
		C16.2,44.1,17.3,44.6,18.6,44.6z M6,54.2l0-1.9c0-1.7,0.9-3.4,2.4-4.2l5.4-3.1l3.2,7.4c0.3,0.8,1,1.2,1.9,1.2
		c0.8,0,1.5-0.5,1.8-1.2l3.4-7.3l4,2.3l2.2,1.5c0.7,0.9,1.4,2.4,1.4,3.4l0,1.9L6,54.2z"/>
</g>
</svg>
