<?xml version="1.0" encoding="utf-8"?>
<!-- Generator: Adobe Illustrator 18.1.1, SVG Export Plug-In . SVG Version: 6.00 Build 0)  -->
<!DOCTYPE svg PUBLIC "-//W3C//DTD SVG 1.1//EN" "http://www.w3.org/Graphics/SVG/1.1/DTD/svg11.dtd">
<svg version="1.1" id="Layer_1" xmlns="http://www.w3.org/2000/svg" xmlns:xlink="http://www.w3.org/1999/xlink" x="0px" y="0px"
	 viewBox="0 0 100 100" enable-background="new 0 0 100 100" xml:space="preserve">
<g>
	<path fill="none" d="M85,54.8h-3.5c-2.7,0-4.9,2.2-4.9,4.9v16.7c0,2.7,2.2,4.9,4.9,4.9H85c2.7,0,4.9-2.2,4.9-4.9V59.6
		C89.9,56.9,87.7,54.8,85,54.8z"/>
	<path fill="none" d="M18.5,81.2c2.7,0,4.9-2.2,4.9-4.9V59.6c0-2.7-2.2-4.9-4.9-4.9H15c-2.7,0-4.9,2.2-4.9,4.9v16.7
		c0,2.7,2.2,4.9,4.9,4.9H18.5z"/>
	<path fill="#0756A4" d="M18.5,83.2c3.8,0,6.9-3.1,6.9-6.9V59.6c0-3.8-3.1-6.9-6.9-6.9H15c-3.8,0-6.9,3.1-6.9,6.9v16.7
		c0,3.8,3.1,6.9,6.9,6.9H18.5z M10.1,76.3V59.6c0-2.7,2.2-4.9,4.9-4.9h3.5c2.7,0,4.9,2.2,4.9,4.9v16.7c0,2.7-2.2,4.9-4.9,4.9H15
		C12.3,81.2,10.1,79,10.1,76.3z"/>
	<path fill="#0756A4" d="M85,52.8h-3.5c-3.8,0-6.9,3.1-6.9,6.9v16.7c0,3.8,3.1,6.9,6.9,6.9H85c3.8,0,6.9-3.1,6.9-6.9V59.6
		C91.9,55.8,88.8,52.8,85,52.8z M89.9,76.3c0,2.7-2.2,4.9-4.9,4.9h-3.5c-2.7,0-4.9-2.2-4.9-4.9V59.6c0-2.7,2.2-4.9,4.9-4.9H85
		c2.7,0,4.9,2.2,4.9,4.9V76.3z"/>
	<path fill="#0756A4" d="M19.3,49.2c0-16.8,13.6-30.4,30.4-30.4c16.8,0,30.4,13.6,30.4,30.4h2c0-17.9-14.5-32.4-32.4-32.4
		S17.3,31.3,17.3,49.2H19.3z"/>
</g>
</svg>
