<?xml version="1.0" encoding="utf-8"?>
<!-- Generator: Adobe Illustrator 18.1.1, SVG Export Plug-In . SVG Version: 6.00 Build 0)  -->
<!DOCTYPE svg PUBLIC "-//W3C//DTD SVG 1.1//EN" "http://www.w3.org/Graphics/SVG/1.1/DTD/svg11.dtd">
<svg version="1.1" id="Layer_1" xmlns="http://www.w3.org/2000/svg" xmlns:xlink="http://www.w3.org/1999/xlink" x="0px" y="0px"
	 viewBox="0 0 100 100" enable-background="new 0 0 100 100" xml:space="preserve">
<g>
	<path fill="none" d="M71.5,81.3h-0.8v2.3h0.8c0.2,0,0.5,0,0.6-0.1c0.2-0.1,0.3-0.1,0.5-0.3c0.1-0.1,0.2-0.2,0.3-0.4
		c0.1-0.1,0.1-0.3,0.1-0.5c0-0.4-0.1-0.6-0.4-0.8C72.4,81.4,72,81.3,71.5,81.3z"/>
	<path fill="none" d="M66.4,82c-0.2-0.2-0.4-0.4-0.7-0.5c-0.3-0.1-0.6-0.2-0.9-0.2c-0.3,0-0.7,0.1-0.9,0.2c-0.3,0.1-0.5,0.3-0.7,0.5
		c-0.2,0.2-0.3,0.5-0.4,0.8c-0.1,0.3-0.2,0.7-0.2,1c0,0.4,0.1,0.7,0.2,1c0.1,0.3,0.3,0.6,0.4,0.8s0.4,0.4,0.7,0.5
		c0.3,0.1,0.6,0.2,0.9,0.2c0.3,0,0.6-0.1,0.9-0.2c0.3-0.1,0.5-0.3,0.7-0.5c0.2-0.2,0.3-0.5,0.4-0.8c0.1-0.3,0.2-0.6,0.2-1
		c0-0.4-0.1-0.7-0.2-1C66.7,82.4,66.6,82.2,66.4,82z"/>
	<path fill="none" d="M42.3,81.3h-0.8v2.3h0.8c0.2,0,0.5,0,0.6-0.1c0.2-0.1,0.3-0.1,0.5-0.3c0.1-0.1,0.2-0.2,0.3-0.4
		c0.1-0.1,0.1-0.3,0.1-0.5c0-0.4-0.1-0.6-0.4-0.8C43.2,81.4,42.8,81.3,42.3,81.3z"/>
	<path fill="none" d="M58.1,56.9c0-1,0.1-1.9,0.3-2.8l-2.8-1.6c0,0-0.1,0-0.1-0.1l-8.1,17.5c-0.6,1.2-1.7,1.9-3,1.9
		c-1.4,0-2.5-0.8-3.1-2L33.6,52c-0.3,0.1-0.5,0.3-0.8,0.4l-12.4,7.2c-3.7,2.2-6,6.2-6,10.4l0,5.5l59.7-0.1l0-4.2
		c-0.5,0-0.9,0.1-1.4,0.1C64.7,71.4,58.1,64.9,58.1,56.9z"/>
	<path fill="none" d="M31.9,81.6c-0.1-0.1-0.3-0.2-0.4-0.2c-0.2-0.1-0.4-0.1-0.6-0.1h-1v2.5h1c0.2,0,0.4,0,0.6-0.1
		c0.2-0.1,0.3-0.1,0.4-0.3c0.1-0.1,0.2-0.2,0.3-0.4c0.1-0.2,0.1-0.3,0.1-0.5c0-0.2,0-0.4-0.1-0.5C32.1,81.9,32.1,81.7,31.9,81.6z"/>
	<path fill="none" d="M44.2,50.1V51V50.1c3.9,0,7.6-2.2,10.4-6.1c2.9-4,4.4-9.4,4.4-15.1c0-11.7-3.6-15.4-14.8-15.4
		c-11.7,0-14.9,3.3-14.9,15.4C29.3,40.6,36,50.1,44.2,50.1z"/>
	<path fill="#0756A4" d="M44.2,51.8L44.2,51.8c4.5,0,8.7-2.4,11.8-6.8c3.1-4.3,4.7-10,4.7-16.1c0-12.6-4.3-17-16.5-17
		c-12.7,0-16.5,4-16.5,17.1C27.7,41.5,35.1,51.8,44.2,51.8z M44.2,13.5c11.2,0,14.8,3.7,14.8,15.4c0,5.7-1.6,11.1-4.4,15.1
		c-2.8,3.9-6.5,6.1-10.4,6.1l0,0.8v-0.8c-8.2,0-14.9-9.5-14.9-21.2C29.3,16.8,32.5,13.5,44.2,13.5z"/>
	<path fill="#0756A4" d="M75.7,77.2l0-6.1c6.6-1.4,11.5-7.2,11.5-14.2c0-8-6.5-14.6-14.5-14.6c-6.5,0-12,4.2-13.8,10.1L56.5,51
		c-0.3-0.2-0.6-0.3-1-0.5l-0.8-0.4l-7,14.9L45.6,56l0-0.1l2.1-3l-7.2,0l2.2,3v0l-2,8.5l-6.3-14.5l-0.7,0.3c-0.6,0.2-1.2,0.5-1.8,0.8
		l-12.4,7.2c-4.2,2.4-6.8,7-6.8,11.9l0,7.1L75.7,77.2z M60.3,53.2c1.6-5.4,6.5-9.3,12.4-9.3c7.1,0,12.9,5.8,12.9,12.9
		c0,6.1-4.2,11.2-9.9,12.5c-0.5,0.1-1.1,0.2-1.6,0.3c-0.4,0-0.9,0.1-1.4,0.1c-7.1,0-12.9-5.8-12.9-12.9c0-0.7,0.1-1.3,0.2-1.9
		C60,54.3,60.1,53.8,60.3,53.2z M20.4,59.6l12.4-7.2c0.3-0.1,0.5-0.3,0.8-0.4l7.6,17.8c0.5,1.2,1.7,2,3.1,2c1.3,0,2.5-0.7,3-1.9
		l8.1-17.5c0,0,0.1,0,0.1,0.1l2.8,1.6c-0.2,0.9-0.3,1.8-0.3,2.8c0,8,6.5,14.6,14.6,14.6c0.5,0,0.9,0,1.4-0.1l0,4.2l-59.7,0.1l0-5.5
		C14.4,65.8,16.7,61.8,20.4,59.6z"/>
	<polygon fill="#0756A4" points="68.4,60.1 68.6,62.2 70.2,61.3 71.8,60.4 72.5,60 73.9,63.8 74.9,66.3 75,66.3 79.8,63.8 
		75.4,58.4 79.8,56 67.5,47.9 68.3,58 	"/>
	<path fill="#0756A4" d="M18.1,86.3c-0.2,0-0.4,0-0.6-0.1c-0.2-0.1-0.3-0.1-0.5-0.2c-0.1-0.1-0.2-0.2-0.3-0.2
		c-0.1-0.1-0.2-0.1-0.3-0.1c-0.1,0-0.1,0-0.2,0c0,0-0.1,0.1-0.1,0.1l-0.4,0.6c0.1,0.1,0.3,0.3,0.5,0.4c0.2,0.1,0.4,0.2,0.6,0.3
		c0.2,0.1,0.4,0.1,0.6,0.2c0.2,0,0.4,0.1,0.7,0.1c0.4,0,0.7-0.1,1-0.2c0.3-0.1,0.6-0.3,0.8-0.5c0.2-0.2,0.4-0.4,0.5-0.7
		c0.1-0.3,0.2-0.6,0.2-0.9c0-0.3,0-0.5-0.1-0.7c-0.1-0.2-0.2-0.4-0.4-0.5c-0.2-0.1-0.3-0.3-0.5-0.3c-0.2-0.1-0.4-0.2-0.6-0.2
		c-0.2-0.1-0.4-0.1-0.6-0.2c-0.2-0.1-0.4-0.1-0.5-0.2c-0.2-0.1-0.3-0.2-0.4-0.3c-0.1-0.1-0.1-0.2-0.1-0.4c0-0.1,0-0.2,0.1-0.4
		c0-0.1,0.1-0.2,0.2-0.3c0.1-0.1,0.2-0.1,0.3-0.2c0.1,0,0.3-0.1,0.5-0.1c0.2,0,0.4,0,0.5,0.1c0.1,0,0.3,0.1,0.4,0.2
		c0.1,0.1,0.2,0.1,0.3,0.2c0.1,0,0.2,0.1,0.2,0.1s0.1,0,0.2,0c0,0,0.1-0.1,0.1-0.1l0.3-0.6c-0.2-0.2-0.5-0.4-0.9-0.5
		c-0.3-0.1-0.7-0.2-1.1-0.2c-0.4,0-0.7,0.1-1,0.2c-0.3,0.1-0.5,0.3-0.7,0.5s-0.3,0.4-0.4,0.6C16.1,81.7,16,82,16,82.2
		c0,0.3,0,0.6,0.1,0.8c0.1,0.2,0.2,0.4,0.4,0.5c0.2,0.1,0.3,0.3,0.5,0.4c0.2,0.1,0.4,0.2,0.6,0.2c0.2,0.1,0.4,0.1,0.6,0.2
		c0.2,0.1,0.4,0.1,0.5,0.2c0.2,0.1,0.3,0.2,0.4,0.3c0.1,0.1,0.1,0.3,0.1,0.5c0,0.3-0.1,0.6-0.3,0.8C18.8,86.2,18.5,86.3,18.1,86.3z"
		/>
	<path fill="#0756A4" d="M21.4,80.3v4.2c0,0.4,0.1,0.8,0.2,1.2c0.1,0.4,0.3,0.7,0.6,0.9c0.3,0.3,0.6,0.5,0.9,0.6
		c0.4,0.1,0.8,0.2,1.2,0.2s0.9-0.1,1.2-0.2c0.4-0.1,0.7-0.3,0.9-0.6c0.3-0.3,0.4-0.6,0.6-0.9c0.1-0.4,0.2-0.7,0.2-1.2v-4.2h-1.3v4.2
		c0,0.3,0,0.5-0.1,0.7c-0.1,0.2-0.2,0.4-0.3,0.6c-0.1,0.2-0.3,0.3-0.5,0.4c-0.2,0.1-0.4,0.1-0.7,0.1s-0.5,0-0.7-0.1
		c-0.2-0.1-0.4-0.2-0.5-0.4c-0.1-0.2-0.2-0.3-0.3-0.6c-0.1-0.2-0.1-0.5-0.1-0.7v-4.2H21.4z"/>
	<path fill="#0756A4" d="M32.1,80.4c-0.3-0.1-0.7-0.2-1.2-0.2h-2.3v7h1.3v-2.5h1c0.5,0,0.9-0.1,1.2-0.2c0.3-0.1,0.6-0.3,0.8-0.5
		c0.2-0.2,0.4-0.4,0.5-0.7c0.1-0.3,0.2-0.6,0.2-0.9c0-0.3-0.1-0.6-0.2-0.9c-0.1-0.3-0.3-0.5-0.5-0.7C32.7,80.7,32.4,80.6,32.1,80.4z
		 M32.2,83c-0.1,0.2-0.1,0.3-0.3,0.4c-0.1,0.1-0.3,0.2-0.4,0.3c-0.2,0.1-0.4,0.1-0.6,0.1h-1v-2.5h1c0.2,0,0.4,0,0.6,0.1
		c0.2,0.1,0.3,0.1,0.4,0.2c0.1,0.1,0.2,0.2,0.3,0.4c0.1,0.2,0.1,0.3,0.1,0.5C32.3,82.7,32.3,82.9,32.2,83z"/>
	<polygon fill="#0756A4" points="39,81.3 39,80.3 34.6,80.3 34.6,87.3 39,87.3 39,86.2 35.9,86.2 35.9,84.3 38.4,84.3 38.4,83.3 
		35.9,83.3 35.9,81.3 	"/>
	<path fill="#0756A4" d="M44.6,83.5c0.1-0.2,0.2-0.4,0.3-0.6c0.1-0.2,0.1-0.4,0.1-0.7c0-0.3-0.1-0.6-0.2-0.8
		c-0.1-0.2-0.3-0.5-0.5-0.6s-0.5-0.3-0.8-0.4c-0.3-0.1-0.8-0.1-1.2-0.1h-2.1v7h1.3v-2.7h0.6c0.1,0,0.2,0,0.3,0.1
		c0.1,0,0.1,0.1,0.2,0.2L44,87c0.1,0.1,0.1,0.1,0.2,0.2c0.1,0,0.2,0.1,0.3,0.1h1.2l-1.8-2.6c-0.1-0.2-0.3-0.3-0.4-0.4
		c0.2-0.1,0.5-0.2,0.7-0.3C44.3,83.9,44.5,83.7,44.6,83.5z M43.7,82.9c-0.1,0.1-0.1,0.3-0.3,0.4c-0.1,0.1-0.3,0.2-0.5,0.3
		c-0.2,0.1-0.4,0.1-0.6,0.1h-0.8v-2.3h0.8c0.5,0,0.8,0.1,1.1,0.3c0.2,0.2,0.4,0.5,0.4,0.8C43.8,82.6,43.7,82.7,43.7,82.9z"/>
	<path fill="#0756A4" d="M51.2,80.6l-1.6,4.3c-0.1,0.3-0.2,0.6-0.3,1c0-0.2-0.1-0.4-0.1-0.5c0-0.2-0.1-0.3-0.2-0.5l-1.6-4.3
		c0-0.1-0.1-0.2-0.2-0.2c-0.1-0.1-0.2-0.1-0.3-0.1h-1.1l2.8,7h1.2l2.8-7h-1.1c-0.1,0-0.2,0-0.3,0.1C51.2,80.4,51.2,80.5,51.2,80.6z"
		/>
	<rect x="53.5" y="80.3" fill="#0756A4" width="1.3" height="7"/>
	<path fill="#0756A4" d="M58.2,86.3c-0.2,0-0.4,0-0.6-0.1c-0.2-0.1-0.3-0.1-0.5-0.2c-0.1-0.1-0.2-0.2-0.3-0.2
		c-0.1-0.1-0.2-0.1-0.3-0.1c-0.1,0-0.1,0-0.2,0c0,0-0.1,0.1-0.1,0.1l-0.4,0.6c0.1,0.1,0.3,0.3,0.5,0.4c0.2,0.1,0.4,0.2,0.6,0.3
		c0.2,0.1,0.4,0.1,0.6,0.2c0.2,0,0.4,0.1,0.7,0.1c0.4,0,0.7-0.1,1-0.2c0.3-0.1,0.6-0.3,0.8-0.5c0.2-0.2,0.4-0.4,0.5-0.7
		c0.1-0.3,0.2-0.6,0.2-0.9c0-0.3,0-0.5-0.1-0.7c-0.1-0.2-0.2-0.4-0.4-0.5c-0.2-0.1-0.3-0.3-0.5-0.3c-0.2-0.1-0.4-0.2-0.6-0.2
		c-0.2-0.1-0.4-0.1-0.6-0.2c-0.2-0.1-0.4-0.1-0.5-0.2c-0.2-0.1-0.3-0.2-0.4-0.3c-0.1-0.1-0.1-0.2-0.1-0.4c0-0.1,0-0.2,0.1-0.4
		c0-0.1,0.1-0.2,0.2-0.3c0.1-0.1,0.2-0.1,0.3-0.2c0.1,0,0.3-0.1,0.5-0.1c0.2,0,0.4,0,0.5,0.1c0.1,0,0.3,0.1,0.4,0.2
		c0.1,0.1,0.2,0.1,0.3,0.2s0.2,0.1,0.2,0.1s0.1,0,0.2,0c0,0,0.1-0.1,0.1-0.1l0.3-0.6c-0.2-0.2-0.5-0.4-0.9-0.5
		c-0.3-0.1-0.7-0.2-1.1-0.2c-0.4,0-0.7,0.1-1,0.2c-0.3,0.1-0.5,0.3-0.7,0.5c-0.2,0.2-0.3,0.4-0.4,0.6c-0.1,0.2-0.2,0.5-0.2,0.7
		c0,0.3,0,0.6,0.1,0.8c0.1,0.2,0.2,0.4,0.4,0.5c0.2,0.1,0.3,0.3,0.5,0.4c0.2,0.1,0.4,0.2,0.6,0.2c0.2,0.1,0.4,0.1,0.6,0.2
		s0.4,0.1,0.5,0.2c0.2,0.1,0.3,0.2,0.4,0.3c0.1,0.1,0.1,0.3,0.1,0.5c0,0.3-0.1,0.6-0.3,0.8C58.9,86.2,58.6,86.3,58.2,86.3z"/>
	<path fill="#0756A4" d="M66.2,80.5c-0.4-0.2-0.9-0.3-1.4-0.3c-0.5,0-1,0.1-1.5,0.3c-0.4,0.2-0.8,0.4-1.1,0.7
		c-0.3,0.3-0.6,0.7-0.7,1.1c-0.2,0.4-0.3,0.9-0.3,1.4c0,0.5,0.1,1,0.3,1.4c0.2,0.4,0.4,0.8,0.7,1.1c0.3,0.3,0.7,0.6,1.1,0.7
		c0.4,0.2,0.9,0.3,1.5,0.3c0.5,0,1-0.1,1.4-0.3c0.4-0.2,0.8-0.4,1.1-0.7c0.3-0.3,0.6-0.7,0.7-1.1c0.2-0.4,0.3-0.9,0.3-1.4
		c0-0.5-0.1-1-0.3-1.4c-0.2-0.4-0.4-0.8-0.7-1.1C67,80.9,66.7,80.7,66.2,80.5z M66.8,84.8c-0.1,0.3-0.2,0.6-0.4,0.8
		c-0.2,0.2-0.4,0.4-0.7,0.5c-0.3,0.1-0.6,0.2-0.9,0.2c-0.3,0-0.7-0.1-0.9-0.2c-0.3-0.1-0.5-0.3-0.7-0.5s-0.3-0.5-0.4-0.8
		c-0.1-0.3-0.2-0.6-0.2-1c0-0.4,0.1-0.7,0.2-1c0.1-0.3,0.3-0.6,0.4-0.8c0.2-0.2,0.4-0.4,0.7-0.5c0.3-0.1,0.6-0.2,0.9-0.2
		c0.3,0,0.6,0.1,0.9,0.2c0.3,0.1,0.5,0.3,0.7,0.5c0.2,0.2,0.3,0.5,0.4,0.8c0.1,0.3,0.2,0.7,0.2,1C67,84.2,66.9,84.5,66.8,84.8z"/>
	<path fill="#0756A4" d="M73.8,83.5c0.1-0.2,0.2-0.4,0.3-0.6c0.1-0.2,0.1-0.4,0.1-0.7c0-0.3-0.1-0.6-0.2-0.8
		c-0.1-0.2-0.3-0.5-0.5-0.6c-0.2-0.2-0.5-0.3-0.8-0.4c-0.3-0.1-0.8-0.1-1.2-0.1h-2.1v7h1.3v-2.7h0.6c0.1,0,0.2,0,0.3,0.1
		c0.1,0,0.1,0.1,0.2,0.2l1.5,2.2c0.1,0.1,0.1,0.1,0.2,0.2c0.1,0,0.2,0.1,0.3,0.1h1.2l-1.8-2.6c-0.1-0.2-0.3-0.3-0.4-0.4
		c0.2-0.1,0.5-0.2,0.7-0.3C73.5,83.9,73.7,83.7,73.8,83.5z M72.9,82.9c-0.1,0.1-0.1,0.3-0.3,0.4c-0.1,0.1-0.3,0.2-0.5,0.3
		c-0.2,0.1-0.4,0.1-0.6,0.1h-0.8v-2.3h0.8c0.5,0,0.8,0.1,1.1,0.3c0.2,0.2,0.4,0.5,0.4,0.8C73,82.6,72.9,82.7,72.9,82.9z"/>
</g>
</svg>
