<?xml version="1.0" encoding="utf-8"?>
<!-- Generator: Adobe Illustrator 18.1.1, SVG Export Plug-In . SVG Version: 6.00 Build 0)  -->
<!DOCTYPE svg PUBLIC "-//W3C//DTD SVG 1.1//EN" "http://www.w3.org/Graphics/SVG/1.1/DTD/svg11.dtd">
<svg version="1.1" id="Layer_1" xmlns="http://www.w3.org/2000/svg" xmlns:xlink="http://www.w3.org/1999/xlink" x="0px" y="0px"
	 viewBox="0 0 100 100" enable-background="new 0 0 100 100" xml:space="preserve">
<g>
	<path fill="#FFFFFF" d="M82.5,25.1H35.1v49.8h47.4c1.3,0,2.4-1.1,2.4-2.4V27.5C84.9,26.2,83.9,25.1,82.5,25.1z M42.2,70.3
		c-2.2,0-4-1.8-4-4c0-2.2,1.8-4,4-4c2.2,0,4,1.8,4,4C46.2,68.5,44.4,70.3,42.2,70.3z M42.2,60.3c-2.2,0-4-1.8-4-4c0-2.2,1.8-4,4-4
		c2.2,0,4,1.8,4,4C46.2,58.5,44.4,60.3,42.2,60.3z M42.2,50.5c-2.2,0-4-1.8-4-4c0-2.2,1.8-4,4-4c2.2,0,4,1.8,4,4
		C46.2,48.7,44.4,50.5,42.2,50.5z M53.1,70.3c-2.2,0-4-1.8-4-4c0-2.2,1.8-4,4-4c2.2,0,4,1.8,4,4C57.2,68.5,55.4,70.3,53.1,70.3z
		 M53.1,60.3c-2.2,0-4-1.8-4-4c0-2.2,1.8-4,4-4c2.2,0,4,1.8,4,4C57.2,58.5,55.4,60.3,53.1,60.3z M53.1,50.5c-2.2,0-4-1.8-4-4
		c0-2.2,1.8-4,4-4c2.2,0,4,1.8,4,4C57.2,48.7,55.4,50.5,53.1,50.5z M64.1,70.3c-2.2,0-4-1.8-4-4c0-2.2,1.8-4,4-4c2.2,0,4,1.8,4,4
		C68.1,68.5,66.3,70.3,64.1,70.3z M64.1,60.3c-2.2,0-4-1.8-4-4c0-2.2,1.8-4,4-4c2.2,0,4,1.8,4,4C68.1,58.5,66.3,60.3,64.1,60.3z
		 M64.1,50.5c-2.2,0-4-1.8-4-4c0-2.2,1.8-4,4-4c2.2,0,4,1.8,4,4C68.1,48.7,66.3,50.5,64.1,50.5z M75,70.3c-2.2,0-4-1.8-4-4
		c0-2.2,1.8-4,4-4c2.2,0,4,1.8,4,4C79,68.5,77.2,70.3,75,70.3z M75,60.3c-2.2,0-4-1.8-4-4c0-2.2,1.8-4,4-4c2.2,0,4,1.8,4,4
		C79,58.5,77.2,60.3,75,60.3z M75,50.5c-2.2,0-4-1.8-4-4c0-2.2,1.8-4,4-4c2.2,0,4,1.8,4,4C79,48.7,77.2,50.5,75,50.5z M81.2,36.8
		c0,1.2-1,2.2-2.2,2.2H40.4c-1.2,0-2.2-1-2.2-2.2v-6c0-1.2,1-2.2,2.2-2.2H79c1.2,0,2.2,1,2.2,2.2V36.8z"/>
	<path fill="#FFFFFF" d="M31.3,21.9H14.8c-1,0-1.8,0.8-1.8,1.8v52.6c0,1,0.8,1.8,1.8,1.8h16.5c1,0,1.8-0.8,1.8-1.8V23.7
		C33.1,22.7,32.3,21.9,31.3,21.9z M16.9,44H29v2.1H16.9V44z M29.2,52H17V50h12.2V52z M29.2,49H17V47h12.2V49z"/>
	<path fill="#FFFFFF" d="M79,30.6H40.4c-0.1,0-0.2,0.1-0.2,0.2v6c0,0.1,0.1,0.2,0.2,0.2H79c0.1,0,0.2-0.1,0.2-0.2v-6
		C79.1,30.7,79.1,30.6,79,30.6z"/>
	<circle fill="#FFFFFF" cx="42.2" cy="46.5" r="2"/>
	<circle fill="#FFFFFF" cx="53.1" cy="46.5" r="2"/>
	<circle fill="#FFFFFF" cx="64.1" cy="46.5" r="2"/>
	<circle fill="#FFFFFF" cx="75" cy="46.5" r="2"/>
	<circle fill="#FFFFFF" cx="42.2" cy="56.2" r="2"/>
	<circle fill="#FFFFFF" cx="53.1" cy="56.2" r="2"/>
	<circle fill="#FFFFFF" cx="64.1" cy="56.2" r="2"/>
	<circle fill="#FFFFFF" cx="75" cy="56.2" r="2"/>
	<circle fill="#FFFFFF" cx="42.2" cy="66.3" r="2"/>
	<circle fill="#FFFFFF" cx="53.1" cy="66.3" r="2"/>
	<circle fill="#FFFFFF" cx="64.1" cy="66.3" r="2"/>
	<circle fill="#FFFFFF" cx="75" cy="66.3" r="2"/>
	<polygon fill="#FFFFFF" points="86,33.4 86,33.4 86,32.3 86,32.3 86,41.9 86,41.9 86,40.9 86,40.9 87,40.9 87,40.9 87,33.4 
		87,33.4 	"/>
	<path fill="#1059A5" d="M87,27.5c0-2.5-2-4.5-4.5-4.5H35.1c-0.3-1.8-1.9-3.2-3.8-3.2H14.8c-2.1,0-3.9,1.7-3.9,3.9v52.6
		c0,2.1,1.7,3.9,3.9,3.9h16.5c1.9,0,3.5-1.4,3.8-3.2h47.4c2.5,0,4.5-2,4.5-4.5V43h2.1V31.3H87V27.5z M87,40.9L87,40.9h-1h0v1h0v-9.6
		h0v1h0h1h0V40.9z M84.9,72.5c0,1.3-1.1,2.4-2.4,2.4H35.1V25.1h47.4c1.3,0,2.4,1.1,2.4,2.4V72.5z M13,76.3V23.7c0-1,0.8-1.8,1.8-1.8
		h16.5c1,0,1.8,0.8,1.8,1.8v52.6c0,1-0.8,1.8-1.8,1.8H14.8C13.8,78.1,13,77.3,13,76.3z"/>
	<path fill="#1059A5" d="M79,28.6H40.4c-1.2,0-2.2,1-2.2,2.2v6c0,1.2,1,2.2,2.2,2.2H79c1.2,0,2.2-1,2.2-2.2v-6
		C81.2,29.6,80.2,28.6,79,28.6z M79.1,36.8c0,0.1-0.1,0.2-0.2,0.2H40.4c-0.1,0-0.2-0.1-0.2-0.2v-6c0-0.1,0.1-0.2,0.2-0.2H79
		c0.1,0,0.2,0.1,0.2,0.2V36.8z"/>
	<rect x="16.9" y="44" fill="#1059A5" width="12.2" height="2.1"/>
	<rect x="17" y="47" fill="#1059A5" width="12.2" height="2.1"/>
	<rect x="17" y="50" fill="#1059A5" width="12.2" height="2.1"/>
	<path fill="#1059A5" d="M42.2,42.4c-2.2,0-4,1.8-4,4c0,2.2,1.8,4,4,4c2.2,0,4-1.8,4-4C46.2,44.3,44.4,42.4,42.2,42.4z M42.2,48.5
		c-1.1,0-2-0.9-2-2s0.9-2,2-2c1.1,0,2,0.9,2,2S43.3,48.5,42.2,48.5z"/>
	<path fill="#1059A5" d="M53.1,42.4c-2.2,0-4,1.8-4,4c0,2.2,1.8,4,4,4c2.2,0,4-1.8,4-4C57.2,44.3,55.4,42.4,53.1,42.4z M53.1,48.5
		c-1.1,0-2-0.9-2-2s0.9-2,2-2c1.1,0,2,0.9,2,2S54.2,48.5,53.1,48.5z"/>
	<path fill="#1059A5" d="M64.1,42.4c-2.2,0-4,1.8-4,4c0,2.2,1.8,4,4,4c2.2,0,4-1.8,4-4C68.1,44.3,66.3,42.4,64.1,42.4z M64.1,48.5
		c-1.1,0-2-0.9-2-2s0.9-2,2-2c1.1,0,2,0.9,2,2S65.2,48.5,64.1,48.5z"/>
	<path fill="#1059A5" d="M75,42.4c-2.2,0-4,1.8-4,4c0,2.2,1.8,4,4,4c2.2,0,4-1.8,4-4C79,44.3,77.2,42.4,75,42.4z M75,48.5
		c-1.1,0-2-0.9-2-2s0.9-2,2-2s2,0.9,2,2S76.1,48.5,75,48.5z"/>
	<path fill="#1059A5" d="M42.2,52.2c-2.2,0-4,1.8-4,4c0,2.2,1.8,4,4,4c2.2,0,4-1.8,4-4C46.2,54,44.4,52.2,42.2,52.2z M42.2,58.2
		c-1.1,0-2-0.9-2-2c0-1.1,0.9-2,2-2c1.1,0,2,0.9,2,2C44.2,57.3,43.3,58.2,42.2,58.2z"/>
	<path fill="#1059A5" d="M53.1,52.2c-2.2,0-4,1.8-4,4c0,2.2,1.8,4,4,4c2.2,0,4-1.8,4-4C57.2,54,55.4,52.2,53.1,52.2z M53.1,58.2
		c-1.1,0-2-0.9-2-2c0-1.1,0.9-2,2-2c1.1,0,2,0.9,2,2C55.1,57.3,54.2,58.2,53.1,58.2z"/>
	<path fill="#1059A5" d="M64.1,52.2c-2.2,0-4,1.8-4,4c0,2.2,1.8,4,4,4c2.2,0,4-1.8,4-4C68.1,54,66.3,52.2,64.1,52.2z M64.1,58.2
		c-1.1,0-2-0.9-2-2c0-1.1,0.9-2,2-2c1.1,0,2,0.9,2,2C66.1,57.3,65.2,58.2,64.1,58.2z"/>
	<path fill="#1059A5" d="M75,52.2c-2.2,0-4,1.8-4,4c0,2.2,1.8,4,4,4c2.2,0,4-1.8,4-4C79,54,77.2,52.2,75,52.2z M75,58.2
		c-1.1,0-2-0.9-2-2c0-1.1,0.9-2,2-2s2,0.9,2,2C77,57.3,76.1,58.2,75,58.2z"/>
	<path fill="#1059A5" d="M42.2,62.3c-2.2,0-4,1.8-4,4c0,2.2,1.8,4,4,4c2.2,0,4-1.8,4-4C46.2,64.1,44.4,62.3,42.2,62.3z M42.2,68.3
		c-1.1,0-2-0.9-2-2s0.9-2,2-2c1.1,0,2,0.9,2,2S43.3,68.3,42.2,68.3z"/>
	<path fill="#1059A5" d="M53.1,62.3c-2.2,0-4,1.8-4,4c0,2.2,1.8,4,4,4c2.2,0,4-1.8,4-4C57.2,64.1,55.4,62.3,53.1,62.3z M53.1,68.3
		c-1.1,0-2-0.9-2-2s0.9-2,2-2c1.1,0,2,0.9,2,2S54.2,68.3,53.1,68.3z"/>
	<path fill="#1059A5" d="M64.1,62.3c-2.2,0-4,1.8-4,4c0,2.2,1.8,4,4,4c2.2,0,4-1.8,4-4C68.1,64.1,66.3,62.3,64.1,62.3z M64.1,68.3
		c-1.1,0-2-0.9-2-2s0.9-2,2-2c1.1,0,2,0.9,2,2S65.2,68.3,64.1,68.3z"/>
	<path fill="#1059A5" d="M75,62.3c-2.2,0-4,1.8-4,4c0,2.2,1.8,4,4,4c2.2,0,4-1.8,4-4C79,64.1,77.2,62.3,75,62.3z M75,68.3
		c-1.1,0-2-0.9-2-2s0.9-2,2-2s2,0.9,2,2S76.1,68.3,75,68.3z"/>
</g>
</svg>
