<?xml version="1.0" encoding="utf-8"?>
<!-- Generator: Adobe Illustrator 18.1.1, SVG Export Plug-In . SVG Version: 6.00 Build 0)  -->
<!DOCTYPE svg PUBLIC "-//W3C//DTD SVG 1.1//EN" "http://www.w3.org/Graphics/SVG/1.1/DTD/svg11.dtd">
<svg version="1.1" id="Layer_1" xmlns="http://www.w3.org/2000/svg" xmlns:xlink="http://www.w3.org/1999/xlink" x="0px" y="0px"
	 viewBox="0 0 100 100" enable-background="new 0 0 100 100" xml:space="preserve">
<g>
	<path fill="none" d="M78.2,35.3v0.9V35.3c3.5,0,6.3-4.2,6.3-9.2c0-5.1-1.4-6.5-6.3-6.5c-5.1,0-6.3,1.3-6.3,6.6
		C71.9,31.2,74.8,35.3,78.2,35.3z"/>
	<path fill="none" d="M65.1,45.1l0,2l26.4,0l0-2c0-0.3-0.1-0.6-0.2-1c-0.4-1.3-1.2-2.5-2.5-3.3l-1-0.7l-4.1-2.4l-3.5,7.5
		c-0.3,0.7-1.1,1.2-1.9,1.2c-0.9,0-1.6-0.5-1.9-1.3l-3.3-7.6l-5.5,3.2c-0.4,0.2-0.8,0.5-1.1,0.9c-0.4,0.8-0.8,1.6-1.2,2.3
		C65.1,44.2,65.1,44.6,65.1,45.1z"/>
	<path fill="none" d="M79.9,37.2l-1,1.4l0,0l0.8,3.3l3.1-6.6c-1.2,1.1-2.7,1.8-4.2,1.8L79.9,37.2z"/>
	<path fill="none" d="M77.5,38.5l-1-1.4l1.4,0c-1.3-0.1-2.5-0.5-3.6-1.3l2.5,5.7L77.5,38.5L77.5,38.5z"/>
	<path fill="none" d="M57.7,25.6c-6.8,0-8.4,1.7-8.4,8.7c0,6.7,3.8,12.2,8.4,12.2v0.9l0-0.9c2.2,0,4.3-1.3,5.8-3.4
		c0.3-0.9,0.8-1.8,1.4-2.6c0.8-1.8,1.2-4,1.2-6.2C66.1,27.6,64.2,25.6,57.7,25.6z"/>
	<path fill="none" d="M31.3,78.2c-1.2,0-2.2-0.7-2.6-1.7l-5.7-13.4c-0.1,0.1-0.2,0.1-0.3,0.2L13,68.8c-2.8,1.6-4.5,4.6-4.5,7.8
		l0,3.9l45.2,0l0-3.9c0-0.5-0.1-1.2-0.3-1.8c-0.7-2.3-2.2-4.4-4.3-5.8l-1.7-1.2l-7.2-4.1l-0.3,0l-6.1,13
		C33.4,77.5,32.4,78.2,31.3,78.2z"/>
	<path fill="none" d="M31.2,33.3c-8.9,0-11.2,2.4-11.2,11.6c0,8.8,5,16,11.1,16v0.9l0-0.9c2.9,0,5.7-1.6,7.8-4.6
		c0.3-1.1,0.9-2.2,1.7-3.1c1.1-2.5,1.6-5.4,1.6-8.4C42.3,36,39.7,33.3,31.2,33.3z"/>
	<path fill="none" d="M40.4,58.8l0,2.7c0.1,0.1,0.2,0.1,0.3,0.2l0,0l34.3,0l0-2.8c0-0.4-0.1-0.9-0.2-1.4c-0.5-1.7-1.7-3.3-3.3-4.4
		l-1.3-0.9l-5.6-3.2l-4.6,10c-0.4,0.9-1.2,1.4-2.2,1.4c-1,0-1.8-0.6-2.2-1.5l-4.4-10.1c0,0,0,0,0,0L43.8,53
		c-0.6,0.3-1.1,0.8-1.5,1.2c-0.5,1-1,2-1.6,2.9C40.5,57.7,40.4,58.3,40.4,58.8z"/>
	<path fill="#0756A4" d="M93,43.5c-0.5-1.7-1.6-3.2-3.2-4.3l-1.1-0.7l-4.6-2.7c-0.2-0.1-0.3-0.2-0.5-0.3l-0.8-0.4
		c2.1-2,3.5-5.3,3.5-9.1c0-6.1-2.2-8.4-8.2-8.4c-6.1,0-8.2,2.1-8.1,8.4c0,3.8,1.4,7.1,3.5,9.1l-0.4,0.2c-0.3,0.1-0.6,0.3-0.9,0.4
		l-4.9,2.8c0.3-1.4,0.5-2.8,0.5-4.3c0-7.7-2.8-10.6-10.3-10.6c-7.8,0-10.3,2.6-10.2,10.6c0,7.7,4.6,14,10.3,14h0
		c2,0,3.9-0.8,5.5-2.2l0,1.4l-3.6,7.6l-1.1-4.7l0-0.1l1.3-1.8l-4.3,0l1.3,1.8v0l-1,4.3l-3.7-8.5l-0.8,0.3c-0.4,0.2-0.8,0.3-1.1,0.5
		l-6.9,4c0.5-2,0.8-4.1,0.8-6.2c0-9.9-3.4-13.4-13-13.4c-9.8,0-13,3.3-13,13.4c0,9.9,5.8,17.9,13,17.9h0c2.7,0,5.2-1.1,7.4-3.2
		l0,2.4l-4.7,10.2l-1.6-6.5l0-0.1l1.6-2.3l-5.5,0l1.7,2.3v0l-1.4,6l-4.8-11.1L23,61c-0.5,0.2-1,0.4-1.4,0.7l-9.5,5.5
		c-3.3,1.9-5.4,5.5-5.4,9.4l0,5.8l49-0.1l0-5.8c0-0.7-0.1-1.5-0.4-2.3c-0.8-2.7-2.6-5.2-5.1-6.9l-1.8-1.2L44,63.5l32.9,0l0-4.7
		c0-0.6-0.1-1.2-0.3-1.9c-0.6-2.2-2-4.1-4-5.4l-1.4-1l-2.9-1.7l25,0l0-3.8C93.3,44.6,93.2,44.1,93,43.5z M79.7,41.9l-0.8-3.3l0,0
		l1-1.4l-1.4,0c1.6-0.1,3-0.7,4.2-1.8L79.7,41.9z M71.9,26.1c0-5.3,1.2-6.6,6.3-6.6c4.9,0,6.3,1.5,6.3,6.5c0,5.1-2.8,9.2-6.3,9.2
		l0,0.9v-0.9C74.8,35.3,71.9,31.2,71.9,26.1z M78,37.2l-1.4,0l1,1.4v0l-0.7,3l-2.5-5.7C75.5,36.6,76.7,37.1,78,37.2z M57.7,46.5
		l0,0.9L57.7,46.5c-4.6,0-8.4-5.5-8.4-12.2c0-7,1.6-8.7,8.4-8.7c6.5,0,8.4,2,8.4,8.7c0,2.3-0.4,4.4-1.2,6.2
		c-0.6,0.7-1.1,1.6-1.4,2.6C62,45.2,59.9,46.5,57.7,46.5z M31.2,60.9l0,0.9L31.2,60.9c-6.1,0-11.1-7.2-11.1-16
		c0-9.2,2.3-11.6,11.2-11.6c8.5,0,11.1,2.7,11.1,11.5c0,3-0.6,5.9-1.6,8.4c-0.8,0.9-1.4,2-1.7,3.1C36.8,59.3,34.1,60.9,31.2,60.9z
		 M47.4,67.7l1.7,1.2c2.1,1.5,3.7,3.5,4.3,5.8c0.2,0.7,0.3,1.3,0.3,1.8l0,3.9l-45.2,0l0-3.9c0-3.2,1.7-6.2,4.5-7.8l9.5-5.5
		c0.1-0.1,0.2-0.1,0.3-0.2l5.7,13.4c0.5,1.1,1.5,1.7,2.6,1.7c1.1,0,2.1-0.6,2.6-1.7l6.1-13l0.3,0L47.4,67.7z M70.2,52.1l1.3,0.9
		c1.6,1.1,2.8,2.7,3.3,4.4c0.1,0.5,0.2,1,0.2,1.4l0,2.8l-34.3,0l0,0c-0.1-0.1-0.2-0.1-0.3-0.2l0-2.7c0-0.6,0.1-1.1,0.2-1.7
		c0.6-0.9,1.2-1.9,1.6-2.9c0.4-0.5,1-0.9,1.5-1.2l7.4-4.3c0,0,0,0,0,0l4.4,10.1c0.4,0.9,1.2,1.5,2.2,1.5c1,0,1.8-0.5,2.2-1.4l4.6-10
		L70.2,52.1z M65.1,47l0-2c0-0.4,0.1-0.8,0.2-1.2c0.5-0.7,0.9-1.4,1.2-2.3c0.3-0.3,0.7-0.6,1.1-0.9l5.5-3.2l3.3,7.6
		c0.3,0.8,1.1,1.3,1.9,1.3c0.8,0,1.5-0.5,1.9-1.2l3.5-7.5l4.1,2.4l1,0.7c1.2,0.8,2.1,2,2.5,3.3c0.1,0.4,0.2,0.7,0.2,1l0,2L65.1,47z"
		/>
</g>
</svg>
