<?xml version="1.0" encoding="utf-8"?>
<!-- Generator: Adobe Illustrator 18.1.1, SVG Export Plug-In . SVG Version: 6.00 Build 0)  -->
<!DOCTYPE svg PUBLIC "-//W3C//DTD SVG 1.1//EN" "http://www.w3.org/Graphics/SVG/1.1/DTD/svg11.dtd">
<svg version="1.1" id="Layer_1" xmlns="http://www.w3.org/2000/svg" xmlns:xlink="http://www.w3.org/1999/xlink" x="0px" y="0px"
	 viewBox="0 0 100 100" enable-background="new 0 0 100 100" xml:space="preserve">
<g>
	<polygon fill="none" points="31,39 10.8,39 10.8,61 31,61 53.7,78 53.3,22 	"/>
	<path fill="#0756A4" d="M30.4,37.1H8.9v25.8h21.5l25.2,18.9l-0.4-63.5L30.4,37.1z M31,61H10.8V39H31l22.3-17l0.4,56L31,61z"/>
	<polygon fill="#0756A4" points="89.5,39.1 80.9,47.6 72.4,39.1 71.1,40.5 79.6,49 71.1,57.5 72.4,58.8 80.9,50.3 89.5,58.8 
		90.8,57.5 82.3,49 90.8,40.5 	"/>
</g>
</svg>
