<?xml version="1.0" encoding="utf-8"?>
<!-- Generator: Adobe Illustrator 18.1.1, SVG Export Plug-In . SVG Version: 6.00 Build 0)  -->
<!DOCTYPE svg PUBLIC "-//W3C//DTD SVG 1.1//EN" "http://www.w3.org/Graphics/SVG/1.1/DTD/svg11.dtd">
<svg version="1.1" id="Layer_1" xmlns="http://www.w3.org/2000/svg" xmlns:xlink="http://www.w3.org/1999/xlink" x="0px" y="0px"
	 viewBox="0 0 100 100" enable-background="new 0 0 100 100" xml:space="preserve">
<g>
	<path fill="none" d="M10.3,72.8l0,3.5l43.4,0l0-3.5c0-1.8-1.2-4.4-2.4-5.9l-3.6-2.5l-7-4l-5.8,12.5c-0.5,1.1-1.6,1.8-2.8,1.8
		c-1.2,0-2.3-0.7-2.8-1.9l-5.5-12.7c0,0,0,0,0,0l-9.2,5.4C11.9,67,10.3,69.8,10.3,72.8z"/>
	<path fill="none" d="M32,57.3v1.2V57.3c2.7,0,5.3-1.5,7.3-4.3c2.1-2.9,3.2-6.8,3.2-11c0-8.5-2.4-10.9-10.5-10.9
		c-4.5,0-7.1,0.7-8.6,2.3c-1.4,1.5-2,4.1-2,8.7C21.5,50.5,26.2,57.3,32,57.3z"/>
	<path fill="none" d="M84.6,44.5c-2.8,0-5.1,2.3-5.1,5.1c0,2.8,2.3,5.1,5.1,5.1c2.8,0,5.1-2.3,5.1-5.1
		C89.7,46.7,87.4,44.5,84.6,44.5z"/>
	<path fill="none" d="M75.7,81.4c2.8,0,5.1-2.3,5.1-5.1c0-2.8-2.3-5.1-5.1-5.1c-2.8,0-5.1,2.3-5.1,5.1
		C70.7,79.1,72.9,81.4,75.7,81.4z"/>
	<path fill="none" d="M83.4,23.6c0-2.8-2.3-5.1-5.1-5.1c-2.8,0-5.1,2.3-5.1,5.1c0,2.8,2.3,5.1,5.1,5.1
		C81.2,28.7,83.4,26.4,83.4,23.6z"/>
	<path fill="#0756A4" d="M32,59.7L32,59.7c3.5,0,6.8-1.9,9.3-5.3c2.4-3.3,3.6-7.7,3.6-12.3c0-9.7-3.5-13.3-12.9-13.3
		c-5.2,0-8.3,0.9-10.2,3c-1.9,2-2.6,5.1-2.6,10.3C19.1,51.8,24.9,59.7,32,59.7z M23.5,33.3c1.5-1.6,4.1-2.3,8.6-2.3
		c8.1,0,10.5,2.5,10.5,10.9c0,4.2-1.1,8.1-3.2,11c-2,2.8-4.6,4.3-7.3,4.3l0,1.2v-1.2c-5.8,0-10.5-6.9-10.5-15.3
		C21.5,37.5,22.1,34.9,23.5,33.3z"/>
	<path fill="#0756A4" d="M8,72.8l0,5.9l48.2-0.1l0-5.9c0-2.6-1.6-5.7-3.1-7.5l-0.1-0.1l-4-2.7l-7.5-4.3c-0.2-0.1-0.5-0.3-0.8-0.4
		l-1.1-0.5l-5.1,11l-1.4-5.9l0-0.1l1.6-2.2l-5.4,0l1.6,2.2v0l-1.3,5.4L25,57L24,57.4c-0.5,0.2-1,0.4-1.4,0.7l-9.2,5.4
		C10,65.4,8,68.9,8,72.8z M23.8,60.1C23.8,60.1,23.8,60.1,23.8,60.1l5.5,12.7c0.5,1.1,1.6,1.9,2.8,1.9c1.2,0,2.3-0.7,2.8-1.8
		l5.8-12.5l7,4l3.6,2.5c1.2,1.5,2.4,4.1,2.4,5.9l0,3.5l-43.4,0l0-3.5c0-3,1.6-5.8,4.2-7.3L23.8,60.1z"/>
	<polygon fill="#0756A4" points="67.5,69.6 69.2,68 52.9,51.7 74,51.7 74,49.3 52.9,49.3 70.3,31.9 68.6,30.3 49.2,49.7 50.1,50.5 
		49.2,51.4 	"/>
	<path fill="#0756A4" d="M85.8,23.6c0-4.1-3.3-7.4-7.4-7.4c-4.1,0-7.4,3.3-7.4,7.4c0,4.1,3.3,7.4,7.4,7.4
		C82.5,31.1,85.8,27.7,85.8,23.6z M73.3,23.6c0-2.8,2.3-5.1,5.1-5.1c2.8,0,5.1,2.3,5.1,5.1c0,2.8-2.3,5.1-5.1,5.1
		C75.6,28.7,73.3,26.4,73.3,23.6z"/>
	<path fill="#0756A4" d="M92,49.5c0-4.1-3.3-7.4-7.4-7.4c-4.1,0-7.4,3.3-7.4,7.4c0,4.1,3.3,7.4,7.4,7.4C88.7,56.9,92,53.6,92,49.5z
		 M84.6,54.6c-2.8,0-5.1-2.3-5.1-5.1c0-2.8,2.3-5.1,5.1-5.1c2.8,0,5.1,2.3,5.1,5.1C89.7,52.3,87.4,54.6,84.6,54.6z"/>
	<path fill="#0756A4" d="M68.3,76.4c0,4.1,3.3,7.4,7.4,7.4c4.1,0,7.4-3.3,7.4-7.4c0-4.1-3.3-7.4-7.4-7.4
		C71.6,68.9,68.3,72.3,68.3,76.4z M75.7,71.3c2.8,0,5.1,2.3,5.1,5.1c0,2.8-2.3,5.1-5.1,5.1c-2.8,0-5.1-2.3-5.1-5.1
		C70.7,73.6,72.9,71.3,75.7,71.3z"/>
</g>
</svg>
