<?xml version="1.0" encoding="utf-8"?>
<!-- Generator: Adobe Illustrator 18.1.1, SVG Export Plug-In . SVG Version: 6.00 Build 0)  -->
<!DOCTYPE svg PUBLIC "-//W3C//DTD SVG 1.1//EN" "http://www.w3.org/Graphics/SVG/1.1/DTD/svg11.dtd">
<svg version="1.1" id="Layer_1" xmlns="http://www.w3.org/2000/svg" xmlns:xlink="http://www.w3.org/1999/xlink" x="0px" y="0px"
	 viewBox="0 0 100 100" enable-background="new 0 0 100 100" xml:space="preserve">
<g>
	<polygon fill="none" points="17.9,70 38.1,70 39,67.8 61,67.8 61.9,70 82.5,70 78.6,64.2 21.7,64.2 	"/>
	<polygon fill="none" points="50.9,73.1 61.1,73.1 61,72.8 50.9,72.8 	"/>
	<polygon fill="none" points="39,72.8 38.9,73.1 49.1,73.1 49.1,72.8 	"/>
	<polygon fill="none" points="60.3,71 59.8,69.6 40.2,69.6 39.7,71 	"/>
	<path fill="none" d="M62.6,71.8l1.2,3.2H36.2l1.2-3.2H14.5l5-7.6H18L9.6,75.5c0.1,0,0.2,0.1,0.4,0.1h80c0.2,0,0.3,0,0.4-0.1
		L82,64.2h-1.1l5.2,7.6H62.6z"/>
	<path fill="none" d="M81.5,27.3c0-1.4-0.5-2.7-1.5-3.7c-1-1-2.3-1.5-3.7-1.5H23.8c-2.9,0-5.3,2.4-5.3,5.3v35h63V27.3z M79.3,57.9
		c0,1.9-1.5,3.4-3.4,3.4H23.6c-1.9,0-3.4-1.5-3.4-3.4V27.2c0-1.9,1.5-3.4,3.4-3.4h52.3c1.9,0,3.4,1.5,3.4,3.4V57.9z"/>
	<path fill="none" d="M75.9,25.7H23.6c-0.9,0-1.6,0.7-1.6,1.6v30.6c0,0.9,0.7,1.6,1.6,1.6h52.3c0.9,0,1.6-0.7,1.6-1.6V27.2
		C77.5,26.4,76.8,25.7,75.9,25.7z M69.5,38.9c-0.5,0-1-0.1-1.4-0.3l-9.2,9.2c0.2,0.4,0.3,0.9,0.3,1.4c0,1.8-1.5,3.3-3.3,3.3
		s-3.3-1.5-3.3-3.3c0-0.5,0.1-1,0.3-1.4l-9.1-9.1c-0.4,0.1-0.8,0.2-1.2,0.2c-0.5,0-1-0.1-1.4-0.3l-9.2,9.2c0.2,0.4,0.3,0.9,0.3,1.4
		c0,1.8-1.5,3.3-3.3,3.3c-1.8,0-3.3-1.5-3.3-3.3c0-1.8,1.5-3.3,3.3-3.3c0.4,0,0.9,0.1,1.3,0.3l9.2-9.2c-0.2-0.4-0.3-0.9-0.3-1.3
		c0-1.8,1.5-3.3,3.3-3.3c1.8,0,3.3,1.5,3.3,3.3c0,0.5-0.1,1.1-0.4,1.5l9.1,9.1c0.4-0.2,0.8-0.3,1.3-0.3c0.4,0,0.9,0.1,1.3,0.3
		l9.2-9.2c-0.2-0.4-0.3-0.9-0.3-1.3c0-1.8,1.5-3.3,3.3-3.3s3.3,1.5,3.3,3.3C72.7,37.4,71.3,38.9,69.5,38.9z"/>
	<rect x="9.5" y="77.5" fill="none" width="81.1" height="0.3"/>
	<path fill="#0756A4" d="M81.3,22.3c-1.3-1.3-3.1-2.1-5-2.1H23.8c-3.9,0-7.1,3.2-7.1,7.1V63L7.9,74.6c-0.2,0.3-0.3,0.7-0.3,1.1h0v4
		h0.9h83h0.9v-0.8v-3.2v0h0c0-0.4-0.1-0.7-0.3-1.1L83.3,63V27.3C83.3,25.4,82.6,23.6,81.3,22.3z M9.5,77.5h81.1v0.3H9.5V77.5z
		 M18.5,27.3c0-2.9,2.4-5.3,5.3-5.3h52.5c1.4,0,2.7,0.5,3.7,1.5c1,1,1.5,2.3,1.5,3.7v35h-63V27.3z M61.1,73.1H50.9v-0.3H61
		L61.1,73.1z M60.3,71H39.7l0.5-1.4h19.5L60.3,71z M39,72.8h10.1v0.3H38.9L39,72.8z M61,67.8H39L38.1,70H17.9l3.8-5.7h56.9l3.9,5.7
		H61.9L61,67.8z M90.4,75.5c-0.1,0-0.2,0.1-0.4,0.1H10c-0.2,0-0.3,0-0.4-0.1L18,64.2h1.4l-5,7.6h22.9l-1.2,3.2h27.5l-1.2-3.2H86
		l-5.2-7.6H82L90.4,75.5z"/>
	<path fill="#0756A4" d="M75.9,23.8H23.6c-1.9,0-3.4,1.5-3.4,3.4v30.6c0,1.9,1.5,3.4,3.4,3.4h52.3c1.9,0,3.4-1.5,3.4-3.4V27.2
		C79.3,25.3,77.8,23.8,75.9,23.8z M77.5,57.9c0,0.9-0.7,1.6-1.6,1.6H23.6c-0.9,0-1.6-0.7-1.6-1.6V27.2c0-0.9,0.7-1.6,1.6-1.6h52.3
		c0.9,0,1.6,0.7,1.6,1.6V57.9z"/>
	<path fill="#0756A4" d="M69.5,32.3c-1.8,0-3.3,1.5-3.3,3.3c0,0.5,0.1,0.9,0.3,1.3l-9.2,9.2c-0.4-0.2-0.8-0.3-1.3-0.3
		c-0.4,0-0.9,0.1-1.3,0.3l-9.1-9.1c0.2-0.5,0.4-1,0.4-1.5c0-1.8-1.5-3.3-3.3-3.3c-1.8,0-3.3,1.5-3.3,3.3c0,0.5,0.1,0.9,0.3,1.3
		l-9.2,9.2c-0.4-0.2-0.8-0.3-1.3-0.3c-1.8,0-3.3,1.5-3.3,3.3c0,1.8,1.5,3.3,3.3,3.3c1.8,0,3.3-1.5,3.3-3.3c0-0.5-0.1-1-0.3-1.4
		l9.2-9.2c0.4,0.2,0.9,0.3,1.4,0.3c0.4,0,0.8-0.1,1.2-0.2l9.1,9.1c-0.2,0.4-0.3,0.9-0.3,1.4c0,1.8,1.5,3.3,3.3,3.3s3.3-1.5,3.3-3.3
		c0-0.5-0.1-1-0.3-1.4l9.2-9.2c0.4,0.2,0.9,0.3,1.4,0.3c1.8,0,3.3-1.5,3.3-3.3C72.7,33.8,71.3,32.3,69.5,32.3z"/>
</g>
</svg>
