<?xml version="1.0" encoding="utf-8"?>
<!-- Generator: Adobe Illustrator 18.1.1, SVG Export Plug-In . SVG Version: 6.00 Build 0)  -->
<!DOCTYPE svg PUBLIC "-//W3C//DTD SVG 1.1//EN" "http://www.w3.org/Graphics/SVG/1.1/DTD/svg11.dtd">
<svg version="1.1" id="Layer_1" xmlns="http://www.w3.org/2000/svg" xmlns:xlink="http://www.w3.org/1999/xlink" x="0px" y="0px"
	 viewBox="0 0 100 100" enable-background="new 0 0 100 100" xml:space="preserve">
<g>
	<polygon fill="none" points="34.9,86.5 34.9,86.5 34.9,86.5 	"/>
	<polygon fill="none" points="57.7,45.2 57.7,45.2 57.7,45.2 	"/>
	<polygon fill="none" points="76.2,83.8 76.2,83.8 76.2,83.8 	"/>
	<path fill="#0756A4" d="M46.9,23.8c2.1-1.7,2.5-3.7,1.3-6c-0.6-1.2-1.3-2.4-2.2-3.5c-1.5-1.9-3.4-2.1-5.4-0.6
		c-1.1,0.9-2,1.8-2.7,2.9c-1.8-1.9-4.3-3.2-7.1-3.2c-5.3,0-9.6,4.3-9.6,9.6s4.3,9.6,9.6,9.6c2.8,0,5.3-1.2,7-3.1
		c3,6.5,7.8,11.6,14.5,15c1.1,0.5,2.2,0.8,3.4,1.1c0.4,0.1,0.9,0.2,1.3,0.3c0.2,0.1,0.4,0.1,0.6,0.1c0,0,0,0,0,0
		c3.2,0,6-1.4,8.3-4.1c0.6-0.7,1.2-1.9,1-2.9c-0.6-3.3-4-5.2-7-5.2c-1.6,0-2.9,0.5-4,1.5c-1.5,1.4-2.9,1.5-4.2,0.3
		c-1.9-1.7-4-3.8-5.8-6.2C44.2,26.9,44.4,25.9,46.9,23.8z M30.9,31.1c-4.4,0-8-3.6-8-8s3.6-8,8-8c2.5,0,4.8,1.2,6.3,3
		c0.2,0.2,0.4,0.5,0.5,0.8c0.2,0.3,0.4,0.6,0.5,1c0.4,1,0.7,2.1,0.7,3.2c0,1-0.2,2-0.6,3c-0.1,0.4-0.3,0.7-0.5,1
		c-0.2,0.3-0.4,0.6-0.6,0.8C35.8,29.8,33.5,31.1,30.9,31.1z M57.5,44.4c-0.4-0.1-0.9-0.2-1.3-0.3c-1.1-0.2-2.1-0.5-3-0.9
		c-6.6-3.4-11.4-8.5-14.1-15.1c0.9-1.5,1.4-3.2,1.4-5c0-1.9-0.5-3.6-1.5-5.1c0.7-1.1,1.5-2.1,2.7-3c0.6-0.5,1.1-0.7,1.6-0.7
		c0.5,0,1,0.3,1.5,1c0.8,1.1,1.5,2.1,2,3.2c0.8,1.6,0.5,2.9-0.9,4.1c-3.2,2.6-3.5,4.6-1.1,7.9c1.8,2.5,4,4.6,6,6.4
		c1.9,1.8,4.2,1.7,6.4-0.3c0.9-0.8,2.1-1,2.9-1c2.3,0,5,1.5,5.4,3.9c0.1,0.3-0.2,1.1-0.6,1.5c-2,2.3-4.3,3.5-7.1,3.5l0,0.8v-0.8
		C57.7,44.4,57.6,44.4,57.5,44.4z"/>
	<path fill="#0756A4" d="M30.1,86c1,0.5,2,0.7,3.1,1c0.4,0.1,0.8,0.2,1.1,0.3c0.2,0.1,0.4,0.1,0.6,0.1c0,0,0,0,0,0
		c2.9,0,5.4-1.2,7.5-3.7c0.6-0.6,1.1-1.7,0.9-2.6c-0.5-3-3.7-4.8-6.4-4.8c-1.4,0-2.7,0.5-3.6,1.3c-1.3,1.2-2.5,1.4-3.7,0.3
		c-1.7-1.6-3.6-3.5-5.2-5.6c-1.6-2.2-1.5-3.1,0.8-5c1.9-1.5,2.3-3.4,1.2-5.5c-0.5-1.1-1.2-2.1-2-3.2c-1.3-1.8-3.1-2-5-0.5
		c-3.8,3-5.1,7.4-3.5,11.9C18.5,77.1,23.2,82.5,30.1,86z M34.7,85.7c-0.4-0.1-0.8-0.2-1.2-0.3c-1-0.2-1.9-0.4-2.7-0.8
		c-6.5-3.3-10.9-8.4-13.3-15.1c-1.4-3.9-0.3-7.6,3-10.1c0.5-0.4,1-0.6,1.4-0.6c0.2,0,0.7,0,1.3,0.8c0.7,0.9,1.3,1.9,1.8,2.9
		c0.7,1.4,0.5,2.5-0.8,3.5c-2.9,2.4-3.2,4.2-1,7.2c1.6,2.2,3.6,4.2,5.4,5.8c1.8,1.6,3.9,1.6,5.9-0.3c0.8-0.7,1.8-0.9,2.5-0.9
		c2,0,4.4,1.3,4.8,3.4c0,0.3-0.2,0.9-0.5,1.3c-1.8,2.1-3.9,3.1-6.3,3.1l0,0.8v-0.8C34.8,85.7,34.8,85.7,34.7,85.7z"/>
	<path fill="#0756A4" d="M74.4,84.3c0.4,0.1,0.8,0.2,1.2,0.3c0.2,0.1,0.4,0.1,0.6,0.1c0,0,0,0,0,0c2.9,0,5.4-1.2,7.5-3.7
		c0.6-0.6,1.1-1.7,0.9-2.6c-0.5-3-3.7-4.8-6.4-4.8c-1.4,0-2.7,0.5-3.6,1.3c-1.3,1.2-2.5,1.4-3.7,0.3c-1.7-1.6-3.6-3.5-5.2-5.6
		c-1.6-2.2-1.5-3.1,0.8-5c1.9-1.5,2.3-3.4,1.2-5.5c-0.5-1.1-1.2-2.1-2-3.2c-1.3-1.8-3.1-2-5-0.5c-3.8,3-5.1,7.4-3.5,11.9
		c2.5,7.1,7.2,12.5,14.1,16C72.3,83.8,73.4,84,74.4,84.3z M76,83c-0.4-0.1-0.8-0.2-1.2-0.3c-1-0.2-1.9-0.4-2.7-0.8
		c-6.5-3.3-10.9-8.4-13.3-15.1c-1.4-3.9-0.3-7.6,3-10.1c0.5-0.4,1-0.6,1.4-0.6c0.2,0,0.7,0,1.3,0.8c0.7,0.9,1.3,1.9,1.8,2.9
		c0.7,1.4,0.5,2.5-0.8,3.5c-2.9,2.4-3.2,4.2-1,7.2c1.6,2.2,3.6,4.2,5.4,5.8c1.8,1.6,3.9,1.5,5.9-0.3c0.8-0.7,1.8-0.9,2.5-0.9
		c2,0,4.4,1.3,4.8,3.4c0,0.3-0.2,0.9-0.5,1.3c-1.8,2.1-3.9,3.1-6.3,3.1l0,0.8V83C76.1,83,76.1,83,76,83z"/>
	<polygon fill="#0756A4" points="32.1,25.1 32.5,17.4 29.8,17.4 30.2,25.1 	"/>
	<path fill="#0756A4" d="M31.1,26c-0.9,0-1.5,0.6-1.5,1.5c0,0.9,0.6,1.5,1.5,1.5c0.9,0,1.5-0.7,1.5-1.5C32.6,26.6,32,26,31.1,26z"/>
</g>
</svg>
