<?xml version="1.0" encoding="utf-8"?>
<!-- Generator: Adobe Illustrator 18.1.1, SVG Export Plug-In . SVG Version: 6.00 Build 0)  -->
<!DOCTYPE svg PUBLIC "-//W3C//DTD SVG 1.1//EN" "http://www.w3.org/Graphics/SVG/1.1/DTD/svg11.dtd">
<svg version="1.1" id="Layer_1" xmlns="http://www.w3.org/2000/svg" xmlns:xlink="http://www.w3.org/1999/xlink" x="0px" y="0px"
	 viewBox="0 0 100 100" enable-background="new 0 0 100 100" xml:space="preserve">
<polygon fill="none" points="49.6,18 48,22.3 53.9,24.2 55.4,20.1 "/>
<path fill="none" d="M61.2,20.2c-0.1-0.2-0.2-0.4-0.3-0.6c-0.6-1.2-1.3-2.2-2.2-3.1L57.7,19L61.2,20.2z"/>
<path fill="none" d="M56.1,18.4l1.1-3.1c-0.8-0.6-1.7-1-2.7-1.4c-1-0.4-2.1-0.6-3.2-0.6l-1.1,3L56.1,18.4z"/>
<path fill="none" d="M49.4,13.4c-1.3,0.2-2.6,0.6-3.8,1.2l2.9,1.1L49.4,13.4z"/>
<path fill="none" d="M40.1,21.6c-0.4,1.6-0.5,3.2-0.2,4.8l4.1,1.4l1.6-4.4L40.1,21.6z"/>
<path fill="none" d="M47.9,17.4l-4.2-1.5c-1.3,1.1-2.3,2.4-3,4l5.6,1.8L47.9,17.4z"/>
<g>
	<path fill="none" d="M55.6,24.8l6.1,2l-0.6,1.7l-6.2-2l-1.7,4.6l4.9,1.7c1.5-1.3,2.6-2.9,3.2-4.7c0.7-1.9,0.8-3.8,0.4-5.7l-4.7-1.7
		L55.6,24.8z"/>
	<path fill="none" d="M36.3,71.1c1.9,0,3.8-1.1,4.6-2.9l15.5-32.3l-17-6l-8,34.9c-0.6,2.5,0.8,5.1,3.3,5.9
		C35.1,71,35.7,71.1,36.3,71.1z"/>
	<polygon fill="none" points="47.4,24 45.7,28.4 51.6,30.5 53.3,25.9 	"/>
	<path fill="#0756A4" d="M69.7,88.4c2.4-5.4,0-11.8-5.4-14.2c-5.4-2.4-11.8,0-14.2,5.4c-2,4.5-7.3,6.5-11.8,4.5
		c-4.5-2-6.5-7.3-4.5-11.8c0.1,0,0.2,0.1,0.3,0.1c0.7,0.3,1.5,0.4,2.3,0.4c2.6,0,5.1-1.5,6.2-3.9l16.3-34.1l-0.2-0.1l0.3-0.3
		c1.9-1.5,3.3-3.5,4.1-5.8c1.1-3.3,0.9-6.8-0.6-9.9s-4.1-5.4-7.4-6.6c-1.4-0.5-2.8-0.7-4.3-0.7c-5.5,0-10.4,3.5-12.2,8.7
		c-0.8,2.3-0.9,4.8-0.4,7.1l0.1,0.4L38,27.6l-8.5,36.9c-0.7,3,0.7,6.1,3.4,7.6L32,71.6c-2.4,5.4,0,11.8,5.4,14.2
		c5.4,2.4,11.8,0,14.2-5.4c2-4.5,7.3-6.5,11.8-4.5c4.5,2,6.5,7.3,4.5,11.8L69.7,88.4z M40.1,21.6l5.5,1.8L44,27.8l-4.1-1.4
		C39.6,24.8,39.7,23.1,40.1,21.6z M47.4,24l5.9,1.9l-1.7,4.6l-5.9-2L47.4,24z M49.6,18l5.8,2.1l-1.5,4.2L48,22.3L49.6,18z
		 M61.4,28.1c-0.6,1.8-1.7,3.4-3.2,4.7l-4.9-1.7l1.7-4.6l6.2,2l0.6-1.7l-6.1-2l1.5-4.1l4.7,1.7C62.1,24.2,62,26.2,61.4,28.1z
		 M60.9,19.6c0.1,0.2,0.2,0.4,0.3,0.6L57.7,19l0.9-2.5C59.6,17.4,60.3,18.4,60.9,19.6z M57.2,15.3l-1.1,3.1l-5.8-2.1l1.1-3
		c1.1,0,2.2,0.2,3.2,0.6C55.5,14.2,56.4,14.7,57.2,15.3z M49.4,13.4l-0.8,2.3l-2.9-1.1C46.7,14,48,13.6,49.4,13.4z M43.7,15.9
		l4.2,1.5l-1.6,4.4l-5.6-1.8C41.4,18.3,42.4,16.9,43.7,15.9z M31.3,64.8l8-34.9l17,6L40.9,68.2c-0.8,1.8-2.6,2.9-4.6,2.9
		c-0.6,0-1.1-0.1-1.7-0.3C32.1,69.9,30.7,67.4,31.3,64.8z"/>
</g>
</svg>
