<?xml version="1.0" encoding="utf-8"?>
<!-- Generator: Adobe Illustrator 18.1.1, SVG Export Plug-In . SVG Version: 6.00 Build 0)  -->
<!DOCTYPE svg PUBLIC "-//W3C//DTD SVG 1.1//EN" "http://www.w3.org/Graphics/SVG/1.1/DTD/svg11.dtd">
<svg version="1.1" id="Layer_1" xmlns="http://www.w3.org/2000/svg" xmlns:xlink="http://www.w3.org/1999/xlink" x="0px" y="0px"
	 viewBox="0 0 100 100" enable-background="new 0 0 100 100" xml:space="preserve">
<g>
	<path fill="none" d="M91.6,28.8H8.4v32.2h83.2V28.8z M50,32.1c2.3,0,4.2,1.9,4.2,4.2c0,2.3-1.9,4.2-4.2,4.2c-2.3,0-4.2-1.9-4.2-4.2
		C45.8,34,47.7,32.1,50,32.1z M54,58.8l-4-5.5l-4,5.5h-4.7l6.3-8.7l-5-6.9l-0.9-1.2h4.7l3.2,4.4l0.3-2.9c-0.3-0.2-0.6-0.8-0.7-1.2
		H51c0,0-0.4,0.9-0.7,1.2l0.3,2.9l3.2-4.4h4l0.7,0l-6,8.2l6.3,8.6H54z"/>
	<path fill="none" d="M85.2,69.1c3.5,0,6.3-2.8,6.3-6.3v-0.1H8.4v0.1c0,3.5,2.8,6.3,6.3,6.3h25.2h20.2H85.2z"/>
	<circle fill="none" cx="50.1" cy="48.5" r="0.3"/>
	<polygon fill="none" points="64.2,80.4 59.1,70.8 40.9,70.8 35.8,80.4 	"/>
	<circle fill="none" cx="50.1" cy="50.7" r="0.3"/>
	<path fill="none" d="M91.6,26c0-3.5-2.8-6.3-6.3-6.3H14.8c-3.5,0-6.3,2.8-6.3,6.3V27h83.2V26z"/>
	<path fill="#0756A4" d="M14.8,70.8H39l-6.1,11.3h34.2L61,70.8h24.2c4.4,0,8.1-3.6,8.1-8.1v-0.1V27V26c0-4.4-3.6-8.1-8.1-8.1H14.8
		c-4.4,0-8.1,3.6-8.1,8.1V27v35.6v0.1C6.7,67.2,10.3,70.8,14.8,70.8z M64.2,80.4H35.8l5.2-9.6h18.1L64.2,80.4z M91.6,60.9H8.4V28.8
		h83.2V60.9z M8.4,26c0-3.5,2.8-6.3,6.3-6.3h70.5c3.5,0,6.3,2.8,6.3,6.3V27H8.4V26z M8.4,62.6h83.2v0.1c0,3.5-2.8,6.3-6.3,6.3H60.1
		H39.9H14.8c-3.5,0-6.3-2.8-6.3-6.3V62.6z"/>
	<path fill="#0756A4" d="M50,40.5c2.3,0,4.2-1.9,4.2-4.2c0-2.3-1.9-4.2-4.2-4.2c-2.3,0-4.2,1.9-4.2,4.2C45.8,38.7,47.7,40.5,50,40.5
		z"/>
	<path fill="#0756A4" d="M46,58.8l4-5.5l4,5.5h4.8l-6.3-8.6l6-8.2l-0.7,0h-4l-3.2,4.4l-0.3-2.9c0.3-0.3,0.7-1.2,0.7-1.2h-1.8
		c0.1,0.4,0.4,1,0.7,1.2l-0.3,2.9l-3.2-4.4h-4.7l0.9,1.2l5,6.9l-6.3,8.7H46z M50.1,48.3c0.1,0,0.3,0.1,0.3,0.3s-0.1,0.3-0.3,0.3
		c-0.1,0-0.3-0.1-0.3-0.3S50,48.3,50.1,48.3z M50.1,50.5c0.1,0,0.3,0.1,0.3,0.3S50.2,51,50.1,51c-0.1,0-0.3-0.1-0.3-0.3
		S50,50.5,50.1,50.5z"/>
</g>
</svg>
