<?xml version="1.0" encoding="utf-8"?>
<!-- Generator: Adobe Illustrator 18.1.1, SVG Export Plug-In . SVG Version: 6.00 Build 0)  -->
<!DOCTYPE svg PUBLIC "-//W3C//DTD SVG 1.1//EN" "http://www.w3.org/Graphics/SVG/1.1/DTD/svg11.dtd">
<svg version="1.1" id="Layer_1" xmlns="http://www.w3.org/2000/svg" xmlns:xlink="http://www.w3.org/1999/xlink" x="0px" y="0px"
	 viewBox="0 0 100 100" enable-background="new 0 0 100 100" xml:space="preserve">
<path fill="none" d="M80.2,51c1-1.3,1.7-3,1.7-4.8c0-1.7-0.5-3.2-1.4-4.5l-4.8,4.8L80.2,51z"/>
<g>
	<path fill="none" d="M69.6,52.5c1.3,0.9,2.8,1.4,4.5,1.4c1.8,0,3.5-0.6,4.8-1.7l-4.5-4.5L69.6,52.5z"/>
	<path fill="none" d="M79.2,40.3c-1.4-1.2-3.2-1.9-5.1-1.9c-1.8,0-3.5,0.6-4.8,1.7l5.1,5.1L79.2,40.3z"/>
	<path fill="none" d="M74.1,30.6c4.3,0,7.8-3.5,7.8-7.8c0-4.3-3.5-7.8-7.8-7.8s-7.8,3.5-7.8,7.8C66.3,27.1,69.8,30.6,74.1,30.6z"/>
	<path fill="none" d="M68.2,51.3l4.8-4.8L68,41.3c-1,1.3-1.7,3-1.7,4.8C66.3,48.1,67.1,49.9,68.2,51.3z"/>
	<path fill="none" d="M53.2,82.1c3.1,1.6,5,2,10.2,2.9l0.2,0c6.5,0,12-2.7,16.8-8.1c0.9-1.1,1.8-2.9,1.6-4.1c-1-5.8-7.6-9.4-13-9.4
		c-2,0-4.8,0.4-7,2.5c-4.5,4.2-9.1,4.4-13.1,0.7c-4.3-4-9.3-8.8-13.3-14.3c-5-6.8-4.4-10.8,2.4-16.3c3.6-2.9,4.3-6.1,2.3-10.2
		c-1.2-2.5-2.8-5-4.6-7.4c-2.4-3.2-4.9-3.3-8.2-0.7C18.8,24.4,16,34,19.6,44.1C25.5,61,36.8,73.8,53.2,82.1z"/>
	<path fill="#0756A4" d="M52.3,83.8c3.3,1.7,5.4,2.2,10.8,3.1c0,0,0.1,0,0.1,0l0.3,0c7.1,0,13-2.9,18.1-8.8c1.2-1.4,2.3-3.8,2-5.6
		c-1.2-6.8-8.5-10.9-14.9-10.9c-3.3,0-6.2,1-8.3,3c-3.8,3.5-7.3,3.7-10.6,0.7c-4.2-3.9-9.1-8.7-13-14c-4.4-6-4-8.9,2.1-13.8
		c4.2-3.5,5.2-7.6,2.8-12.4c-1.3-2.6-2.9-5.2-4.8-7.7c-3-3.9-6.7-4.3-10.9-1.1c-9,7.1-12.1,17.7-8.3,28.4
		C24,62.1,35.6,75.2,52.3,83.8z M27.3,17.7c3.3-2.6,5.9-2.4,8.2,0.7c1.8,2.4,3.4,4.9,4.6,7.4c2,4,1.3,7.2-2.3,10.2
		c-6.8,5.6-7.4,9.5-2.4,16.3c4,5.5,8.9,10.3,13.3,14.3c4,3.7,8.6,3.5,13.1-0.7c2.2-2.1,5.1-2.5,7-2.5c5.5,0,12,3.6,13,9.4
		c0.2,1.2-0.7,3-1.6,4.1C75.5,82.4,70.1,85,63.5,85l-0.2,0c-5.2-0.9-7.1-1.3-10.2-2.9c-16.3-8.3-27.6-21.1-33.6-38
		C16,34,18.8,24.4,27.3,17.7z"/>
	<path fill="#0756A4" d="M74.1,32.4c5.3,0,9.6-4.3,9.6-9.6c0-5.3-4.3-9.6-9.6-9.6s-9.6,4.3-9.6,9.6C64.5,28.1,68.8,32.4,74.1,32.4z
		 M74.1,15c4.3,0,7.8,3.5,7.8,7.8c0,4.3-3.5,7.8-7.8,7.8s-7.8-3.5-7.8-7.8C66.3,18.5,69.8,15,74.1,15z"/>
	<path fill="#0756A4" d="M74.1,55.8c5.3,0,9.6-4.3,9.6-9.6c0-5.3-4.3-9.6-9.6-9.6s-9.6,4.3-9.6,9.6C64.5,51.5,68.8,55.8,74.1,55.8z
		 M74.1,54c-1.7,0-3.2-0.5-4.5-1.4l4.8-4.8l4.5,4.5C77.6,53.3,75.9,54,74.1,54z M80.2,51l-4.5-4.5l4.8-4.8c0.9,1.3,1.4,2.8,1.4,4.5
		C81.9,48,81.3,49.6,80.2,51z M74.1,38.4c2,0,3.7,0.7,5.1,1.9l-4.8,4.8L69.3,40C70.6,39,72.3,38.4,74.1,38.4z M68,41.3l5.1,5.1
		l-4.8,4.8c-1.2-1.4-1.9-3.2-1.9-5.1C66.3,44.3,67,42.7,68,41.3z"/>
</g>
</svg>
