<?xml version="1.0" encoding="utf-8"?>
<!-- Generator: Adobe Illustrator 18.1.1, SVG Export Plug-In . SVG Version: 6.00 Build 0)  -->
<!DOCTYPE svg PUBLIC "-//W3C//DTD SVG 1.1//EN" "http://www.w3.org/Graphics/SVG/1.1/DTD/svg11.dtd">
<svg version="1.1" id="Layer_1" xmlns="http://www.w3.org/2000/svg" xmlns:xlink="http://www.w3.org/1999/xlink" x="0px" y="0px"
	 viewBox="0 0 100 100" enable-background="new 0 0 100 100" xml:space="preserve">
<g>
	<path fill="none" d="M92.9,83.2V27.1H44.5l-5-10.2H7.1l0,66.4H92.9z M41.3,36.7c1.7-1.8,4.3-2.6,8.7-2.6c8,0,11,3.1,11,11.3
		c0,3.9-1.1,7.7-3.1,10.5c-2.1,2.9-4.9,4.5-7.9,4.5h0c-6,0-11-6.7-11-15C39,41,39.7,38.4,41.3,36.7z M34.1,63.6l7.9-4.5
		c0.4-0.2,0.8-0.4,1.2-0.6l0.9-0.4l3.9,9.1l1.1-4.6v0l-1.4-1.9l4.5,0l-1.4,1.9l0,0.1l1.2,5l4.4-9.4l0.9,0.4c0.2,0.1,0.4,0.2,0.6,0.3
		l6.4,3.7l3.5,2.4c1.3,1.5,2.6,4.2,2.6,6.4l0,5l-40.9,0l0-5C29.5,68.3,31.3,65.3,34.1,63.6z"/>
	<path fill="none" d="M50,58.4v1V58.4c2.3,0,4.5-1.3,6.2-3.7c1.8-2.5,2.7-5.8,2.7-9.3c0-7.2-2-9.3-8.9-9.3c-3.8,0-6,0.6-7.3,1.9
		c-1.2,1.3-1.7,3.5-1.7,7.4C41,52.6,45,58.4,50,58.4z"/>
	<path fill="none" d="M68.5,74.5l0-3c0-1.6-1-3.7-2.1-5l-3.1-2.1L57.4,61l-5,10.6c-0.4,0.9-1.3,1.5-2.4,1.5c-1.1,0-2-0.6-2.4-1.6
		L43,60.8c0,0,0,0,0,0l-7.9,4.5c-2.2,1.3-3.6,3.7-3.6,6.2l0,3L68.5,74.5z"/>
	<path fill="#0756A4" d="M94.9,85.2V25.1H45.7l-5-10.2H5.1l0,70.4H94.9z M39.4,16.8l5,10.2h48.4v56.1H7.1l0-66.4H39.4z"/>
	<path fill="#0756A4" d="M50,60.4L50,60.4c3,0,5.8-1.6,7.9-4.5c2-2.8,3.1-6.5,3.1-10.5c0-8.2-3-11.3-11-11.3c-4.4,0-7,0.8-8.7,2.6
		C39.7,38.4,39,41,39,45.4C39,53.7,43.9,60.4,50,60.4z M42.7,38c1.2-1.3,3.5-1.9,7.3-1.9c6.9,0,8.9,2.1,8.9,9.3c0,3.5-1,6.8-2.7,9.3
		c-1.7,2.4-3.9,3.7-6.2,3.7l0,1v-1c-4.9,0-9-5.8-9-13C41,41.6,41.5,39.3,42.7,38z"/>
	<path fill="#0756A4" d="M70.5,76.5l0-5c0-2.2-1.3-4.8-2.6-6.4l-3.5-2.4L58,59.1c-0.2-0.1-0.4-0.2-0.6-0.3l-0.9-0.4l-4.4,9.4l-1.2-5
		l0-0.1l1.4-1.9l-4.5,0l1.4,1.9v0L48,67.2l-3.9-9.1l-0.9,0.4c-0.4,0.2-0.8,0.4-1.2,0.6l-7.9,4.5c-2.8,1.6-4.6,4.7-4.6,7.9l0,5
		L70.5,76.5z M35.1,65.3l7.9-4.5c0,0,0,0,0,0l4.6,10.8c0.4,1,1.3,1.6,2.4,1.6c1,0,1.9-0.6,2.4-1.5l5-10.6l5.9,3.4l3.1,2.1
		c1,1.3,2.1,3.5,2.1,5l0,3l-36.9,0l0-3C31.5,69,32.9,66.6,35.1,65.3z"/>
</g>
</svg>
