<?xml version="1.0" encoding="utf-8"?>
<!-- Generator: Adobe Illustrator 18.1.1, SVG Export Plug-In . SVG Version: 6.00 Build 0)  -->
<!DOCTYPE svg PUBLIC "-//W3C//DTD SVG 1.1//EN" "http://www.w3.org/Graphics/SVG/1.1/DTD/svg11.dtd">
<svg version="1.1" id="Layer_1" xmlns="http://www.w3.org/2000/svg" xmlns:xlink="http://www.w3.org/1999/xlink" x="0px" y="0px"
	 viewBox="0 0 100 100" enable-background="new 0 0 100 100" xml:space="preserve">
<g>
	<circle fill="#64CBEE" cx="50" cy="50" r="50"/>
	<g>
		<g>
			<g>
				<path fill="#FFFFFF" d="M81.4,30.8C79.1,32,76.6,32.7,74,33c2.7-1.7,4.7-4.4,5.7-7.7c-2.5,1.6-5.3,2.7-8.2,3.4
					c-2.3-2.7-5.7-4.4-9.4-4.4c-7.1,0-12.9,6.2-12.9,13.9c0,1.1,0.1,2.1,0.3,3.1c-10.7-0.6-20.2-6.1-26.6-14.5c-1.1,2-1.7,4.4-1.7,7
					c0,4.8,2.3,9.1,5.7,11.5c-2.1-0.1-4.1-0.7-5.8-1.7c0,0.1,0,0.1,0,0.2c0,6.7,4.4,12.3,10.3,13.6c-1.1,0.3-2.2,0.5-3.4,0.5
					c-0.8,0-1.6-0.1-2.4-0.2c1.6,5.5,6.4,9.6,12,9.6c-4.4,3.7-10,5.9-16,5.9c-1,0-2.1-0.1-3.1-0.2c5.7,4,12.5,6.3,19.8,6.3
					C62.1,79.4,75,58.2,75,39.8c0-0.6,0-1.2,0-1.8C77.5,36.1,79.7,33.6,81.4,30.8z"/>
			</g>
		</g>
	</g>
</g>
</svg>
