<?xml version="1.0" encoding="UTF-8" standalone="no"?>
<svg width="84px" height="96px" viewBox="0 0 84 96" version="1.1" xmlns="http://www.w3.org/2000/svg" xmlns:xlink="http://www.w3.org/1999/xlink" xmlns:sketch="http://www.bohemiancoding.com/sketch/ns">
    <!-- Generator: Sketch 3.3.3 (12081) - http://www.bohemiancoding.com/sketch -->
    <title>webchat</title>
    <desc>Created with Sketch.</desc>
    <defs></defs>
    <g id="Page-1" stroke="none" stroke-width="1" fill="none" fill-rule="evenodd" sketch:type="MSPage">
        <g id="webchat" sketch:type="MSLayerGroup">
            <g id="Group" sketch:type="MSShapeGroup">
                <path d="M65.5741935,24.7518072 C64.4903226,24.7518072 63.6774194,25.4457831 63.6774194,26.3710843 L63.6774194,32.2698795 C63.6774194,33.1951807 64.4903226,33.8891566 65.5741935,33.8891566 L67.4709677,33.8891566 C68.5548387,33.8891566 69.3677419,33.1951807 69.3677419,32.2698795 L69.3677419,26.3710843 C69.3677419,25.4457831 68.5548387,24.7518072 67.4709677,24.7518072 L65.5741935,24.7518072 L65.5741935,24.7518072 Z" id="Shape"></path>
                <path d="M22.083871,39.7879518 C21.5419355,38.4 21.1354839,36.8963855 20.8645161,35.2771084 C20.3225806,35.6240964 19.7806452,35.739759 19.1032258,35.8554217 C19.5096774,36.8963855 20.4580645,38.5156627 22.083871,39.7879518 L22.083871,39.7879518 Z" id="Shape"></path>
                <path d="M32.6516129,45.339759 L36.9870968,45.339759 C37.3935484,45.339759 37.8,44.9927711 37.8,44.6457831 L37.8,43.2578313 C37.8,42.9108434 37.3935484,42.5638554 36.9870968,42.5638554 L32.6516129,42.5638554 C32.2451613,42.5638554 31.9741935,42.7951807 31.8387097,43.1421687 L31.8387097,44.9927711 C31.9741935,45.2240964 32.3806452,45.339759 32.6516129,45.339759 L32.6516129,45.339759 Z" id="Shape"></path>
                <path d="M41.8645161,10.2939759 C55.2774194,10.2939759 61.3741935,13.7638554 63.1354839,23.2481928 C63.8129032,22.9012048 64.4903226,22.6698795 65.3032258,22.6698795 C64.7612903,11.7975904 54.1935484,3.12289157 41.4580645,3.12289157 C28.5870968,3.12289157 18.1548387,11.7975904 17.4774194,22.5542169 L18.4258065,22.5542169 C19.2387097,22.5542169 20.0516129,22.7855422 20.7290323,23.1325301 C21.2709677,19.2 22.6258065,16.539759 24.6580645,14.573494 C27.9096774,11.5662651 33.0580645,10.2939759 41.8645161,10.2939759 L41.8645161,10.2939759 Z" id="Shape"></path>
                <path d="M42,12.4915663 C33.8709677,12.4915663 29.1290323,13.6481928 26.4193548,16.0771084 C23.8451613,18.5060241 22.6258065,22.5542169 22.6258065,29.4939759 C22.6258065,34.0048193 23.7096774,38.2843373 25.6064516,41.8698795 C26.6903226,42.2168675 27.9096774,42.5638554 29.4,42.6795181 C29.6709677,41.2915663 31.0258065,40.3662651 32.6516129,40.3662651 L36.9870968,40.3662651 C38.883871,40.3662651 40.3741935,41.6385542 40.3741935,43.2578313 L40.3741935,44.6457831 C40.3741935,46.2650602 38.883871,47.5373494 36.9870968,47.5373494 L32.6516129,47.5373494 C30.8903226,47.5373494 29.5354839,46.3807229 29.2645161,44.8771084 C28.5870968,44.7614458 27.7741935,44.6457831 27.0967742,44.5301205 C30.6193548,49.6192771 35.9032258,52.973494 41.8645161,52.973494 L41.8645161,54.0144578 L41.8645161,52.973494 C46.8774194,52.973494 51.7548387,50.5445783 55.2774194,46.2650602 C58.9354839,41.7542169 60.9677419,35.8554217 60.9677419,29.4939759 L60.9677419,29.3783133 C61.1032258,16.4240964 56.6322581,12.4915663 42,12.4915663 L42,12.4915663 Z" id="Shape"></path>
                <path d="M18.2903226,24.7518072 L16.3935484,24.7518072 C15.3096774,24.7518072 14.4967742,25.4457831 14.4967742,26.3710843 L14.4967742,32.2698795 C14.4967742,33.1951807 15.3096774,33.8891566 16.3935484,33.8891566 L18.2903226,33.8891566 C19.3741935,33.8891566 20.1870968,33.1951807 20.1870968,32.2698795 L20.1870968,29.4939759 L20.1870968,26.3710843 C20.1870968,25.4457831 19.3741935,24.7518072 18.2903226,24.7518072 L18.2903226,24.7518072 Z" id="Shape"></path>
                <path d="M50.4,89.4072289 C50.4,89.2915663 50.2645161,89.060241 50.1290323,88.8289157 C49.9935484,88.5975904 49.9935484,88.3662651 49.8580645,88.1349398 C49.7225806,88.3662651 49.7225806,88.5975904 49.5870968,88.8289157 C49.4516129,89.060241 49.4516129,89.1759036 49.316129,89.4072289 L48.3677419,91.8361446 L51.2129032,91.8361446 L50.4,89.4072289 L50.4,89.4072289 Z" id="Shape"></path>
                <path d="M9.3483871,88.8289157 C9.21290323,88.5975904 9.21290323,88.3662651 9.07741935,88.1349398 C8.94193548,88.3662651 8.94193548,88.5975904 8.80645161,88.8289157 C8.67096774,89.060241 8.67096774,89.1759036 8.53548387,89.4072289 L7.58709677,91.8361446 L10.4322581,91.8361446 L9.48387097,89.4072289 C9.48387097,89.1759036 9.48387097,89.060241 9.3483871,88.8289157 L9.3483871,88.8289157 Z" id="Shape"></path>
                <path d="M60.5612903,89.9855422 C60.8322581,89.9855422 60.9677419,89.8698795 61.1032258,89.8698795 C61.2387097,89.8698795 61.3741935,89.6385542 61.5096774,89.5228916 C61.6451613,89.4072289 61.6451613,89.1759036 61.6451613,88.9445783 C61.6451613,88.713253 61.6451613,88.5975904 61.5096774,88.3662651 C61.5096774,88.2506024 61.3741935,88.1349398 61.2387097,88.0192771 C60.9677419,88.0192771 60.8322581,87.9036145 60.6967742,87.9036145 L60.0193548,87.9036145 L58.6645161,87.9036145 L58.6645161,90.1012048 L59.883871,90.1012048 C60.0193548,90.1012048 60.2903226,90.1012048 60.5612903,89.9855422 L60.5612903,89.9855422 Z" id="Shape"></path>
                <path d="M61.5096774,93.339759 C61.6451613,93.2240964 61.6451613,93.1084337 61.7806452,92.9927711 L61.7806452,92.5301205 C61.7806452,92.4144578 61.7806452,92.1831325 61.6451613,92.0674699 C61.5096774,91.9518072 61.5096774,91.8361446 61.3741935,91.7204819 C61.2387097,91.6048193 61.1032258,91.6048193 60.8322581,91.4891566 C60.6967742,91.4891566 60.4258065,91.373494 60.0193548,91.373494 L58.3935484,91.373494 L58.3935484,93.686747 L60.1548387,93.686747 C60.4258065,93.686747 60.6967742,93.686747 60.9677419,93.5710843 C61.2387097,93.4554217 61.3741935,93.4554217 61.5096774,93.339759 L61.5096774,93.339759 Z" id="Shape"></path>
                <path d="M43.8967742,74.2554217 L45.6580645,71.0168675 L42.5419355,59.5662651 L42.5419355,59.2192771 L44.1677419,57.3686747 L39.6967742,57.3686747 L41.4580645,59.4506024 L38.3419355,70.5542169 L40.2387097,74.3710843 C40.5096774,74.8337349 40.916129,75.1807229 41.4580645,75.2963855 C41.5935484,75.2963855 41.8645161,75.4120482 42,75.4120482 C42.8129032,75.2963855 43.6258065,74.9493976 43.8967742,74.2554217 L43.8967742,74.2554217 Z" id="Shape"></path>
                <path d="M37.8,75.0650602 L35.6322581,70.6698795 L35.6322581,70.5542169 L28.0451613,55.5180723 C27.7741935,55.6337349 27.5032258,55.7493976 27.2322581,55.8650602 L11.1096774,63.8457831 C6.36774194,66.1590361 3.38709677,70.6698795 3.38709677,75.4120482 L3.38709677,81.426506 L80.883871,81.3108434 L80.883871,75.2963855 C80.883871,72.4048193 78.5806452,68.4722892 76.4129032,66.0433735 L69.9096774,62.3421687 L56.9032258,55.9807229 L46.2,75.1807229 C45.3870968,76.5686747 43.8967742,77.3783133 42.1354839,77.3783133 C41.7290323,77.3783133 41.1870968,77.2626506 40.7806452,77.2626506 C39.4258065,77.0313253 38.4774194,76.2216867 37.8,75.0650602 L37.8,75.0650602 Z" id="Shape"></path>
                <path d="M27.9096774,89.4072289 C27.9096774,89.2915663 27.7741935,89.060241 27.6387097,88.8289157 C27.5032258,88.5975904 27.5032258,88.3662651 27.3677419,88.1349398 C27.2322581,88.3662651 27.2322581,88.5975904 27.0967742,88.8289157 C26.9612903,89.060241 26.9612903,89.1759036 26.8258065,89.4072289 L25.8774194,91.8361446 L28.7225806,91.8361446 L27.9096774,89.4072289 L27.9096774,89.4072289 Z" id="Shape"></path>
                <path d="M83.3225806,83.3927711 L83.3225806,75.2963855 C83.3225806,71.5951807 80.6129032,67.2 78.1741935,64.539759 L71.2645161,60.4915663 L58.1225806,54.0144578 C57.716129,53.7831325 57.3096774,53.6674699 56.9032258,53.4361446 L55.5483871,52.973494 L47.283871,68.0096386 L44.9806452,59.7975904 L48.9096774,55.1710843 L34.683871,55.1710843 L38.6129032,59.7975904 L36.5806452,67.0843373 L29.2645161,52.626506 L28.1806452,52.973494 C27.3677419,53.2048193 26.5548387,53.5518072 25.8774194,53.8987952 L9.75483871,61.8795181 C4.2,64.6554217 0.677419355,69.7445783 0.677419355,75.2963855 L0.677419355,83.3927711 L81.9677419,83.2771084 L83.3225806,83.3927711 L83.3225806,83.3927711 Z M41.3225806,59.3349398 L39.5612903,57.253012 L44.0322581,57.253012 L42.4064516,59.1036145 L42.4064516,59.4506024 L45.5225806,70.9012048 L43.7612903,74.139759 C43.3548387,74.7180723 42.6774194,75.1807229 41.8645161,75.1807229 C41.7290323,75.1807229 41.4580645,75.1807229 41.3225806,75.0650602 C40.7806452,74.9493976 40.3741935,74.6024096 40.1032258,74.139759 L38.2064516,70.3228916 L41.3225806,59.3349398 L41.3225806,59.3349398 Z M3.2516129,81.3108434 L3.2516129,75.2963855 C3.2516129,70.5542169 6.23225806,66.1590361 10.9741935,63.7301205 L27.0967742,55.7493976 C27.3677419,55.6337349 27.6387097,55.5180723 27.9096774,55.4024096 L35.4967742,70.5542169 L35.4967742,70.6698795 L37.6645161,75.0650602 C38.2064516,76.2216867 39.2903226,76.9156627 40.5096774,77.2626506 C40.916129,77.3783133 41.4580645,77.3783133 41.8645161,77.3783133 C43.6258065,77.3783133 45.2516129,76.5686747 45.9290323,75.1807229 L56.4967742,55.8650602 L69.5032258,62.226506 L76.0064516,65.9277108 C78.3096774,68.3566265 80.4774194,72.2891566 80.4774194,75.1807229 L80.4774194,81.1951807 L3.2516129,81.3108434 L3.2516129,81.3108434 Z" id="Shape" fill="#27343A"></path>
                <path d="M23.7096774,43.4891566 C27.6387097,50.5445783 34.2774194,55.1710843 41.8645161,55.1710843 L41.8645161,55.1710843 C47.6903226,55.1710843 53.2451613,52.3951807 57.3096774,47.5373494 C60.1548387,44.1831325 62.0516129,39.9036145 62.8645161,35.3927711 C63.5419355,35.739759 64.3548387,36.086747 65.3032258,36.086747 L67.2,36.086747 C69.6387097,36.086747 71.5354839,34.4674699 71.5354839,32.3855422 L71.5354839,26.486747 C71.5354839,24.6361446 69.9096774,23.0168675 67.7419355,22.7855422 C67.3354839,10.6409639 55.683871,1.04096386 41.4580645,1.04096386 C27.0967742,1.04096386 15.3096774,10.7566265 14.9032258,22.9012048 C13.2774194,23.4795181 12.1935484,24.7518072 12.1935484,26.3710843 L12.1935484,32.2698795 C12.1935484,34.3518072 14.0903226,35.9710843 16.5290323,35.9710843 C17.0709677,37.7060241 18.9677419,41.4072289 23.7096774,43.4891566 L23.7096774,43.4891566 Z M19.1032258,35.9710843 C19.7806452,35.8554217 20.3225806,35.739759 20.8645161,35.3927711 C21.1354839,36.8963855 21.5419355,38.4 22.083871,39.9036145 C20.4580645,38.5156627 19.5096774,36.8963855 19.1032258,35.9710843 L19.1032258,35.9710843 Z M55.4129032,46.2650602 C51.7548387,50.660241 47.0129032,52.973494 42,52.973494 L42,54.0144578 L42,52.973494 C36.0387097,52.973494 30.7548387,49.7349398 27.2322581,44.5301205 C27.9096774,44.6457831 28.5870968,44.7614458 29.4,44.8771084 C29.5354839,46.3807229 31.0258065,47.5373494 32.7870968,47.5373494 L37.1225806,47.5373494 C39.0193548,47.5373494 40.5096774,46.2650602 40.5096774,44.6457831 L40.5096774,43.2578313 C40.5096774,41.6385542 39.0193548,40.3662651 37.1225806,40.3662651 L32.7870968,40.3662651 C31.1612903,40.3662651 29.8064516,41.4072289 29.5354839,42.6795181 C28.0451613,42.5638554 26.8258065,42.2168675 25.7419355,41.8698795 C23.8451613,38.2843373 22.7612903,34.0048193 22.7612903,29.4939759 C22.7612903,22.5542169 23.8451613,18.5060241 26.5548387,16.0771084 C29.2645161,13.5325301 34.0064516,12.4915663 42.1354839,12.4915663 C56.7677419,12.4915663 61.2387097,16.4240964 61.3741935,29.4939759 L61.3741935,29.6096386 C61.1032258,35.8554217 59.0709677,41.7542169 55.4129032,46.2650602 L55.4129032,46.2650602 Z M31.8387097,44.8771084 L31.8387097,43.026506 C31.9741935,42.6795181 32.2451613,42.4481928 32.6516129,42.4481928 L36.9870968,42.4481928 C37.3935484,42.4481928 37.8,42.7951807 37.8,43.1421687 L37.8,44.5301205 C37.8,44.8771084 37.3935484,45.2240964 36.9870968,45.2240964 L32.6516129,45.2240964 C32.3806452,45.339759 31.9741935,45.2240964 31.8387097,44.8771084 L31.8387097,44.8771084 Z M69.2322581,26.3710843 L69.2322581,32.2698795 C69.2322581,33.1951807 68.4193548,33.8891566 67.3354839,33.8891566 L65.4387097,33.8891566 C64.3548387,33.8891566 63.5419355,33.1951807 63.5419355,32.2698795 L63.5419355,26.3710843 C63.5419355,25.4457831 64.3548387,24.7518072 65.4387097,24.7518072 L67.3354839,24.7518072 C68.4193548,24.7518072 69.2322581,25.4457831 69.2322581,26.3710843 L69.2322581,26.3710843 Z M41.4580645,3.12289157 C54.3290323,3.12289157 64.7612903,11.7975904 65.4387097,22.5542169 C64.6258065,22.5542169 63.8129032,22.7855422 63.2709677,23.1325301 C61.6451613,13.7638554 55.4129032,10.1783133 42,10.1783133 C33.1935484,10.1783133 27.9096774,11.4506024 24.6580645,14.4578313 C22.4903226,16.4240964 21.2709677,19.0843373 20.7290323,23.0168675 C20.0516129,22.6698795 19.2387097,22.4385542 18.4258065,22.4385542 L17.4774194,22.4385542 C18.0193548,11.7975904 28.5870968,3.12289157 41.4580645,3.12289157 L41.4580645,3.12289157 Z M14.6322581,32.2698795 L14.6322581,26.3710843 C14.6322581,25.4457831 15.4451613,24.7518072 16.5290323,24.7518072 L18.4258065,24.7518072 C19.5096774,24.7518072 20.3225806,25.4457831 20.3225806,26.3710843 L20.3225806,29.4939759 L20.3225806,32.2698795 C20.3225806,33.1951807 19.5096774,33.8891566 18.4258065,33.8891566 L16.5290323,33.8891566 C15.4451613,33.8891566 14.6322581,33.0795181 14.6322581,32.2698795 L14.6322581,32.2698795 Z" id="Shape" fill="#27343A"></path>
                <path d="M7.85806452,86.2843373 L3.79354839,95.1903614 L5.69032258,95.1903614 C5.82580645,95.1903614 6.09677419,95.1903614 6.23225806,95.0746988 C6.36774194,94.9590361 6.50322581,94.8433735 6.50322581,94.7277108 L7.18064516,93.2240964 L11.1096774,93.2240964 L11.7870968,94.7277108 C11.7870968,94.8433735 11.9225806,94.9590361 12.0580645,95.0746988 C12.1935484,95.1903614 12.3290323,95.1903614 12.6,95.1903614 L14.4967742,95.1903614 L10.4322581,86.2843373 L7.85806452,86.2843373 L7.85806452,86.2843373 Z M7.72258065,91.8361446 L8.67096774,89.4072289 C8.80645161,89.2915663 8.80645161,89.060241 8.94193548,88.8289157 C9.07741935,88.5975904 9.07741935,88.3662651 9.21290323,88.1349398 C9.3483871,88.3662651 9.3483871,88.5975904 9.48387097,88.8289157 C9.61935484,89.060241 9.61935484,89.1759036 9.75483871,89.4072289 L10.7032258,91.8361446 L7.72258065,91.8361446 L7.72258065,91.8361446 Z" id="Shape" fill="#27343A"></path>
                <path d="M21,86.4 C20.8645161,86.5156627 20.7290323,86.6313253 20.7290323,86.746988 L18.6967742,91.4891566 C18.5612903,91.7204819 18.5612903,91.9518072 18.4258065,92.1831325 C18.2903226,92.4144578 18.2903226,92.6457831 18.1548387,92.9927711 C18.0193548,92.7614458 18.0193548,92.4144578 17.883871,92.1831325 C17.7483871,91.9518072 17.7483871,91.7204819 17.6129032,91.4891566 L15.716129,86.746988 C15.716129,86.6313253 15.5806452,86.5156627 15.4451613,86.4 C15.3096774,86.2843373 15.1741935,86.2843373 14.9032258,86.2843373 L13.0064516,86.2843373 L17.2064516,95.1903614 L19.3741935,95.1903614 L23.5741935,86.2843373 L21.6774194,86.2843373 C21.4064516,86.2843373 21.1354839,86.4 21,86.4 L21,86.4 Z" id="Shape" fill="#27343A"></path>
                <path d="M24.5225806,95.0746988 C24.6580645,94.9590361 24.7935484,94.8433735 24.7935484,94.7277108 L25.4709677,93.2240964 L29.4,93.2240964 L30.0774194,94.7277108 C30.0774194,94.8433735 30.2129032,94.9590361 30.3483871,95.0746988 C30.483871,95.1903614 30.6193548,95.1903614 30.8903226,95.1903614 L32.7870968,95.1903614 L28.7225806,86.2843373 L26.283871,86.2843373 L22.2193548,95.1903614 L24.116129,95.1903614 C24.2516129,95.1903614 24.3870968,95.1903614 24.5225806,95.0746988 L24.5225806,95.0746988 Z M26.9612903,89.4072289 C27.0967742,89.2915663 27.0967742,89.060241 27.2322581,88.8289157 C27.3677419,88.5975904 27.3677419,88.3662651 27.5032258,88.1349398 C27.6387097,88.3662651 27.6387097,88.5975904 27.7741935,88.8289157 C27.9096774,89.060241 27.9096774,89.1759036 28.0451613,89.4072289 L28.9935484,91.8361446 L26.1483871,91.8361446 L26.9612903,89.4072289 L26.9612903,89.4072289 Z" id="Shape" fill="#27343A"></path>
                <rect id="Rectangle-path" fill="#27343A" x="33.7354839" y="86.2843373" width="2.43870968" height="8.9060241"></rect>
                <path d="M38.0709677,86.2843373 L38.0709677,95.1903614 L44.4387097,95.1903614 L44.4387097,93.5710843 L40.5096774,93.5710843 L40.5096774,86.2843373 L38.0709677,86.2843373 Z" id="Shape" fill="#27343A"></path>
                <path d="M47.4193548,94.7277108 L48.0967742,93.2240964 L52.0258065,93.2240964 L52.7032258,94.7277108 C52.7032258,94.8433735 52.8387097,94.9590361 52.9741935,95.0746988 C53.1096774,95.1903614 53.2451613,95.1903614 53.516129,95.1903614 L55.4129032,95.1903614 L51.3483871,86.2843373 L48.7741935,86.2843373 L44.7096774,95.1903614 L46.6064516,95.1903614 C46.7419355,95.1903614 47.0129032,95.1903614 47.1483871,95.0746988 C47.283871,94.9590361 47.283871,94.8433735 47.4193548,94.7277108 L47.4193548,94.7277108 Z M49.4516129,89.4072289 C49.5870968,89.2915663 49.5870968,89.060241 49.7225806,88.8289157 C49.8580645,88.5975904 49.8580645,88.3662651 49.9935484,88.1349398 C50.1290323,88.3662651 50.1290323,88.5975904 50.2645161,88.8289157 C50.4,89.060241 50.4,89.1759036 50.5354839,89.4072289 L51.483871,91.8361446 L48.6387097,91.8361446 L49.4516129,89.4072289 L49.4516129,89.4072289 Z" id="Shape" fill="#27343A"></path>
                <path d="M61.916129,95.0746988 C62.4580645,94.9590361 62.8645161,94.7277108 63.1354839,94.4963855 C63.4064516,94.2650602 63.6774194,93.9180723 63.9483871,93.686747 C64.2193548,93.4554217 64.2193548,92.9927711 64.2193548,92.6457831 C64.2193548,92.1831325 64.083871,91.7204819 63.6774194,91.373494 C63.4064516,91.026506 62.8645161,90.7951807 62.1870968,90.6795181 C62.4580645,90.5638554 62.7290323,90.4481928 63,90.3325301 C63.2709677,90.2168675 63.4064516,90.1012048 63.5419355,89.8698795 C63.6774194,89.7542169 63.8129032,89.5228916 63.8129032,89.2915663 C63.8129032,89.060241 63.9483871,88.9445783 63.9483871,88.713253 C63.9483871,88.3662651 63.8129032,88.0192771 63.6774194,87.6722892 C63.5419355,87.3253012 63.2709677,87.0939759 63,86.8626506 C62.7290323,86.6313253 62.3225806,86.5156627 61.7806452,86.4 C61.2387097,86.2843373 60.6967742,86.2843373 59.883871,86.2843373 L56.0903226,86.2843373 L56.0903226,95.1903614 L60.2903226,95.1903614 C60.8322581,95.1903614 61.5096774,95.1903614 61.916129,95.0746988 L61.916129,95.0746988 Z M58.5290323,87.9036145 L59.883871,87.9036145 L60.5612903,87.9036145 C60.6967742,87.9036145 60.9677419,88.0192771 61.1032258,88.1349398 C61.2387097,88.2506024 61.3741935,88.3662651 61.3741935,88.4819277 C61.3741935,88.5975904 61.5096774,88.8289157 61.5096774,89.060241 C61.5096774,89.2915663 61.5096774,89.4072289 61.3741935,89.6385542 C61.2387097,89.7542169 61.2387097,89.8698795 60.9677419,89.9855422 C60.6967742,90.1012048 60.6967742,90.1012048 60.4258065,90.1012048 L59.7483871,90.1012048 L58.5290323,90.1012048 L58.5290323,87.9036145 L58.5290323,87.9036145 Z M58.5290323,93.686747 L58.5290323,91.4891566 L60.1548387,91.4891566 C60.4258065,91.4891566 60.6967742,91.4891566 60.9677419,91.6048193 C61.1032258,91.6048193 61.3741935,91.7204819 61.5096774,91.8361446 C61.6451613,91.9518072 61.7806452,92.0674699 61.7806452,92.1831325 C61.7806452,92.2987952 61.916129,92.4144578 61.916129,92.6457831 L61.916129,93.1084337 C61.916129,93.2240964 61.7806452,93.339759 61.6451613,93.4554217 C61.5096774,93.5710843 61.3741935,93.686747 61.1032258,93.686747 L60.2903226,93.686747 L58.5290323,93.686747 L58.5290323,93.686747 Z" id="Shape" fill="#27343A"></path>
                <path d="M65.4387097,86.2843373 L65.4387097,95.1903614 L71.8064516,95.1903614 L71.8064516,93.5710843 L67.8774194,93.5710843 L67.8774194,86.2843373 L65.4387097,86.2843373 Z" id="Shape" fill="#27343A"></path>
                <path d="M79.6645161,87.9036145 L79.6645161,86.2843373 L72.8903226,86.2843373 L72.8903226,95.1903614 L79.6645161,95.1903614 L79.6645161,93.686747 L75.3290323,93.686747 L75.3290323,91.4891566 L78.716129,91.4891566 L78.716129,89.9855422 L75.3290323,89.9855422 L75.3290323,87.9036145 L79.6645161,87.9036145 Z" id="Shape" fill="#27343A"></path>
            </g>
        </g>
    </g>
</svg>