<?xml version="1.0" encoding="utf-8"?>
<!-- Generator: Adobe Illustrator 18.1.1, SVG Export Plug-In . SVG Version: 6.00 Build 0)  -->
<!DOCTYPE svg PUBLIC "-//W3C//DTD SVG 1.1//EN" "http://www.w3.org/Graphics/SVG/1.1/DTD/svg11.dtd">
<svg version="1.1" id="Layer_1" xmlns="http://www.w3.org/2000/svg" xmlns:xlink="http://www.w3.org/1999/xlink" x="0px" y="0px"
	 viewBox="0 0 100 100" enable-background="new 0 0 100 100" xml:space="preserve">
<g>
	<circle fill="#E21E26" cx="50" cy="50" r="50"/>
	<g>
		<path fill="#FFFFFF" d="M77.8,36.5c0-0.2-0.1-0.4-0.1-0.6c0-0.1-0.1-0.2-0.1-0.3c-0.7-2.2-2.8-3.8-5.2-3.8h0.4
			c0,0-9.7-1.5-22.7-1.5c-13,0.1-22.7,1.5-22.7,1.5h0.4c-2.4,0-4.5,1.6-5.2,3.8c0,0.1-0.1,0.2-0.1,0.3c-0.1,0.2-0.1,0.4-0.1,0.6
			c-0.4,2.5-0.9,7.6-1,13.6c0.1,6.1,0.6,11.1,1,13.6c0,0.2,0.1,0.4,0.1,0.6c0,0.1,0.1,0.2,0.1,0.3c0.7,2.2,2.8,3.8,5.2,3.8h-0.4
			c0,0,9.8,1.5,22.7,1.5c13-0.1,22.7-1.5,22.7-1.5h-0.4c2.4,0,4.5-1.6,5.2-3.8c0-0.1,0.1-0.2,0.1-0.3c0.1-0.2,0.1-0.4,0.1-0.6
			c0.4-2.5,0.9-7.6,1-13.6C78.7,44.1,78.1,39,77.8,36.5z M58.5,51.3l-11.6,8.4C46.7,60,46.4,60,46.1,60c-0.2,0-0.4-0.1-0.6-0.2
			c-0.5-0.2-0.8-0.7-0.8-1.3V41.8c0-0.5,0.3-1,0.8-1.3c0.5-0.2,1-0.2,1.5,0.1l11.6,8.4c0.4,0.3,0.6,0.7,0.6,1.1
			C59.1,50.7,58.9,51.1,58.5,51.3z"/>
	</g>
</g>
</svg>
