<?xml version="1.0" encoding="utf-8"?>
<!-- Generator: Adobe Illustrator 16.0.4, SVG Export Plug-In . SVG Version: 6.00 Build 0)  -->
<!DOCTYPE svg PUBLIC "-//W3C//DTD SVG 1.1//EN" "http://www.w3.org/Graphics/SVG/1.1/DTD/svg11.dtd">
<svg version="1.1" id="Laag_1" xmlns:sketch="http://www.bohemiancoding.com/sketch/ns"
	 xmlns="http://www.w3.org/2000/svg" xmlns:xlink="http://www.w3.org/1999/xlink" x="0px" y="0px" width="120px" height="80px"
	 viewBox="-12 2 250 300" enable-background="new -12 2 242.619 289" xml:space="preserve">
<g id="Fill-2">
	<path fill="#E54142" d="M163.088,96.899h-22.41V54.627c0-16.662-13.556-30.217-30.218-30.217S80.243,37.965,80.243,54.627v42.272
		h-22.41V54.627C57.833,25.608,81.441,2,110.46,2c29.02,0,52.628,23.608,52.628,52.627V96.899z"/>
</g>
<g id="Rectangle-93">
	<path fill="#FFFFFF" d="M27.615,76.49h163.389c15.252,0,27.615,12.363,27.615,27.615v147.28c0,15.252-12.363,27.615-27.615,27.615
		H27.615C12.364,279,0,266.637,0,251.385v-147.28C0,88.853,12.364,76.49,27.615,76.49z"/>
	<path fill="#27B0A3" d="M191.004,291H27.615C5.771,291-12,273.229-12,251.385v-147.28C-12,82.261,5.771,64.49,27.615,64.49h163.389
		c21.844,0,39.615,17.771,39.615,39.615v147.28C230.619,273.229,212.848,291,191.004,291z M27.615,88.49
		C19.005,88.49,12,95.495,12,104.104v147.28C12,259.995,19.005,267,27.615,267h163.389c8.61,0,15.615-7.005,15.615-15.615v-147.28
		c0-8.61-7.005-15.615-15.615-15.615H27.615z"/>
</g>
<g id="Rectangle-31">
	<path fill="#E54142" d="M69.038,135.172h80.544c7.625,0,13.807,6.182,13.807,13.808l0,0c0,7.625-6.182,13.807-13.807,13.807H69.038
		c-7.625,0-13.808-6.182-13.808-13.807l0,0C55.23,141.354,61.412,135.172,69.038,135.172z"/>
</g>
<g id="Rectangle-31-Copy">
	<path fill="#E54142" d="M69.038,190.401h80.544c7.625,0,13.807,6.183,13.807,13.808l0,0c0,7.625-6.182,13.808-13.807,13.808H69.038
		c-7.625,0-13.808-6.183-13.808-13.808l0,0C55.23,196.584,61.412,190.401,69.038,190.401z"/>
</g>
<g id="Path">
	<rect x="55.23" y="64.49" fill="#232C2A" width="27.615" height="23.615"/>
</g>
<g id="Path-Copy-3">
	<rect x="138.075" y="64.49" fill="#232C2A" width="27.615" height="23.615"/>
</g>
</svg>
