<?xml version="1.0" encoding="UTF-8" standalone="no"?>
<svg width="300px" height="400px" viewBox="0 0 82 136" version="1.1" xmlns="http://www.w3.org/2000/svg" xmlns:xlink="http://www.w3.org/1999/xlink" xmlns:sketch="http://www.bohemiancoding.com/sketch/ns">
    <!-- Generator: Sketch 3.3.2 (12043) - http://www.bohemiancoding.com/sketch -->
    <title>phone-copy-3</title>
    <desc></desc>
    <defs></defs>
    <g id="Page-1" stroke="none" stroke-width="1" fill="none" fill-rule="evenodd" sketch:type="MSPage">
        <g id="phone-copy-3" sketch:type="MSLayerGroup">
            <rect id="Rectangle-87" fill="#FFFFFF" sketch:type="MSShapeGroup" x="6" y="6" width="71" height="124"></rect>
            <g id="Imported-Layers-Copy-4" transform="translate(17.000000, 39.000000)" sketch:type="MSShapeGroup">
                <path d="M48.3695,21.9369322 C46.8425,20.3394322 44.311,20.2814322 42.714,21.8084322 L28.453,35.4349322 L28.453,46.5009322 L48.241,27.5919322 C49.8385,26.0659322 49.8955,23.5339322 48.3695,21.9369322" id="Fill-1" fill="#E54142"></path>
                <path d="M20.3695008,21.9369322 C18.8425008,20.3394322 16.3110008,20.2814322 14.7140008,21.8084322 L0.453000836,35.4349322 L0.453000836,46.5009322 L20.2410008,27.5919322 C21.8385008,26.0659322 21.8955008,23.5339322 20.3695008,21.9369322" id="Fill-1-Copy" fill="#E54142" transform="translate(10.965298, 33.600442) scale(-1, 1) translate(-10.965298, -33.600442) "></path>
                <path d="M25,0.0015 C22.791,0.0015 21,1.7925 21,4.0015 L21,40.0428475 L25.7089844,43.3745308 L29,44.6193856 L29,4.0015 C29,1.7925 27.209,0.0015 25,0.0015 L25.9746094,34.1312256" id="Fill-3" fill="#27B0A3"></path>
                <path d="M25,39 L21,35 L21,46 L25,50 L29,46 L29,35 C29,35 24.7965,38.9794604 25,39 L26.1931152,35.4033203" id="Fill-4" fill="#232C2A"></path>
            </g>
            <rect id="Rectangle-16" fill="#E54142" sketch:type="MSShapeGroup" x="6" y="104" width="75" height="8"></rect>
            <circle id="Oval-1" fill="#E54142" sketch:type="MSShapeGroup" cx="41" cy="120" r="4"></circle>
            <path d="M64,0 L18,0 C8.06,0 0,8.06 0,18 L0,118.331 L0.003,118.331 C0.179,128.118 8.17,136.001 18,136.001 L64,136.001 C73.94,136.001 82,127.94 82,118.001 L82,17 L81.973,17 C81.453,7.526 73.605,0 64,0 L64,0 Z M74,118.001 C74,123.514 69.514,128.001 64,128.001 L18,128.001 C12.486,128.001 8,123.514 8,118.001 L8,18 C8,12.486 12.486,8 18,8 L64,8 C69.514,8 74,12.486 74,18 L74,118.001 L74,118.001 Z" id="Imported-Layers" fill="#27B0A3" sketch:type="MSShapeGroup"></path>
        </g>
    </g>
</svg>