<?xml version="1.0" encoding="UTF-8" standalone="no"?>
<svg width="216px" height="140px" viewBox="0 0 216 140" version="1.1" xmlns="http://www.w3.org/2000/svg" xmlns:xlink="http://www.w3.org/1999/xlink" xmlns:sketch="http://www.bohemiancoding.com/sketch/ns">
    <!-- Generator: Sketch 3.3.2 (12043) - http://www.bohemiancoding.com/sketch -->
    <title>retail 3</title>
    <desc></desc>
    <defs></defs>
    <g id="styleguide" stroke="none" stroke-width="1" fill="none" fill-rule="evenodd" sketch:type="MSPage">
        <g id="Artboard-6" sketch:type="MSArtboardGroup" transform="translate(-882.000000, -2253.000000)">
            <g id="retail-&amp;-ecommerce" sketch:type="MSLayerGroup" transform="translate(280.000000, 2183.000000)">
                <g id="retail-3" transform="translate(602.000000, 70.000000)" sketch:type="MSShapeGroup">
                    <path d="M122,7.08258008 L168.307225,52.9454322 L172.497961,71.4501857 C172.497961,71.4501857 177.735877,75.2000322 182.136754,74.9916239 C186.537127,74.7832156 191.281185,73.0212637 192.470979,67.9653584 C193.661277,62.9094531 192.470979,52.9454322 192.470979,52.9454322 L145.677455,5 L122,7.08258008" id="Fill-1" fill="#19B1A3"></path>
                    <path d="M142,7.08258008 L188.307225,52.9454322 L192.497961,71.4501857 C192.497961,71.4501857 197.735877,75.2000322 202.136754,74.9916239 C206.537127,74.7832156 211.281185,73.0212637 212.470979,67.9653584 C213.661277,62.9094531 212.470979,52.9454322 212.470979,52.9454322 L165.677455,5 L142,7.08258008" id="Fill-2" fill="#FFFFFF"></path>
                    <path d="M18,0 L158,0 L158,140 L18,140 L18,0 Z" id="Fill-3" fill="#FFFFFF"></path>
                    <path d="M35,110 L35,18 L45.4803908,18 L45.4803908,26.0458262 L43.0037351,26.0458262 L43,101.954174 L132,101.954174 L131.996265,74.2966461 L140,74.2966461 L140,110 L35,110 Z" id="Fill-4" fill="#E54142"></path>
                    <path d="M32,7.08258008 L78.3072254,52.9454322 L82.497961,71.4501857 C82.497961,71.4501857 87.7358766,75.2000322 92.1367537,74.9916239 C96.5371269,74.7832156 101.281185,73.0212637 102.470979,67.9653584 C103.661277,62.9094531 102.470979,52.9454322 102.470979,52.9454322 L55.6774546,5 L32,7.08258008" id="Fill-5" fill="#FFFFFF"></path>
                    <path d="M122,7.08258008 L168.307225,52.9454322 L172.497961,71.4501857 C172.497961,71.4501857 177.735877,75.2000322 182.136754,74.9916239 C186.537127,74.7832156 191.281185,73.0212637 192.470979,67.9653584 C193.661277,62.9094531 192.470979,52.9454322 192.470979,52.9454322 L145.677455,5 L122,7.08258008" id="Fill-6" fill="#FFFFFF"></path>
                    <path d="M98,7.08258008 L144.307547,52.9454322 L148.497762,71.4501857 C148.497762,71.4501857 153.736161,75.2000322 158.136517,74.9916239 C162.537376,74.7832156 167.281415,73.0212637 168.471205,67.9653584 C169.660994,62.9094531 168.471205,52.9454322 168.471205,52.9454322 L121.677361,5 L98,7.08258008" id="Fill-7" fill="#FFFFFF"></path>
                    <path d="M77,7.08258008 L123.307547,52.9454322 L127.497762,71.4501857 C127.497762,71.4501857 132.736161,75.2000322 137.136517,74.9916239 C141.536872,74.7832156 146.281415,73.0212637 147.471205,67.9653584 C148.660994,62.9094531 147.471205,52.9454322 147.471205,52.9454322 L100.677361,5 L77,7.08258008" id="Fill-8" fill="#FFFFFF"></path>
                    <path id="Stroke-9" stroke="#232C2A" stroke-width="16"></path>
                    <path id="Stroke-10" stroke="#19B1A3" stroke-width="16"></path>
                    <path d="M184,49 L216,49 L216,57 L184,57 L184,49 Z" id="Fill-11" fill="#232C2A"></path>
                    <path d="M216,50 L166,0" id="Fill-12" fill="#232C2A"></path>
                    <path d="M18,0 L18,140 L158.35443,140 L158.35443,79.1015 C160.408225,78.885 162.195259,78.318 163.809161,77.468 C165.31868,76.673 166.673133,75.6295 167.822837,74.3945 C168.973043,75.631 170.329503,76.6735 171.838521,77.4685 C173.938198,78.5745 176.327435,79.203 178.865716,79.203 C181.130999,79.203 183.277347,78.6995 185.204394,77.8055 C185.436242,77.698 185.666082,77.5875 185.891406,77.469 C187.39942,76.6745 188.755378,75.633 189.905082,74.3975 C191.05579,75.6335 192.41225,76.6755 193.920766,77.47 C196.017934,78.5745 198.407171,79.203 200.94495,79.203 C203.48273,79.203 205.872468,78.5745 207.97064,77.469 C212.745098,74.954 216,69.9585 216,64.203 L216,49.2755 L166.825691,0 L18,0 Z M117.345688,8 L158.865823,50 L147.29421,50 L105.865823,8 L117.345688,8 L117.345688,8 Z M140.963557,63.9831628 C140.952554,67.8537067 137.817158,71 133.962556,71 C130.127461,71 127.006569,67.8853707 126.964557,64.0409621 L126.964557,57 L140.964557,57 L140.964557,63.9052594 C140.964557,63.9183271 140.963557,63.9308921 140.963557,63.9439598 C140.963557,63.9504936 140.963057,63.9570275 140.963057,63.9635613 C140.963057,63.9700951 140.963557,63.9761264 140.963557,63.9831628 L140.963557,63.9831628 Z M94.4182237,8 L135.865823,50 L124.337999,50 L82.8658228,8 L94.4182237,8 L94.4182237,8 Z M118.962057,64.0148268 C118.946057,66.2182373 117.915557,68.1809011 116.321057,69.4615329 C115.124557,70.4220068 113.611557,71 111.964557,71 C108.104557,71 104.964557,67.8436546 104.964557,63.9635613 L104.964557,57 L118.964557,57 L118.964557,63.808257 C118.964057,63.8429366 118.962057,63.8771136 118.962057,63.9117932 C118.962057,63.9293843 118.960557,63.9464728 118.960557,63.9635613 C118.960557,63.9806498 118.962057,63.9977383 118.962057,64.0148268 L118.962057,64.0148268 Z M71.421102,8 L112.865823,50 L101.256409,50 L59.8658228,8 L71.421102,8 L71.421102,8 Z M48.4232175,8 L89.8658228,50 L78.2978885,50 L36.8658228,8 L48.4232175,8 L48.4232175,8 Z M96.964557,57 L96.964557,63.9635613 C96.964557,67.8436546 93.824557,71 89.964557,71 C86.104557,71 82.964557,67.8436546 82.964557,63.9635613 L82.964557,57 L96.964557,57 L96.964557,57 Z M149.703805,132 L25.1848101,132 L25.1848101,8 L74.6670521,57.2755 L74.6670521,64.203 C74.6670521,69.9585 77.9236255,74.954 82.7005357,77.469 C84.7997853,78.5745 87.1902488,79.203 89.7298338,79.203 C92.2689167,79.203 94.6598822,78.5745 96.7591319,77.469 C96.7611403,77.4685 96.7626465,77.4675 96.7646549,77.4665 C98.2729415,76.6715 99.6285918,75.6295 100.778384,74.394 C101.928679,75.6295 103.284329,76.6715 104.792615,77.4665 C104.794624,77.4675 104.79613,77.4685 104.798138,77.469 C106.896886,78.5745 109.287852,79.203 111.827437,79.203 C113.349782,79.203 114.817399,78.973 116.20217,78.5535 C117.126523,78.2735 118.016231,77.912 118.856735,77.469 C120.365021,76.675 121.721174,75.634 122.871468,74.3985 C124.022767,75.635 125.380425,76.6765 126.890218,77.4715 C128.987962,78.575 131.377421,79.203 133.9155,79.203 C136.454583,79.203 138.845548,78.5745 140.944798,77.469 C142.453586,76.6745 143.810241,75.633 144.960535,74.3975 C146.111834,75.6335 147.468991,76.6755 148.978281,77.47 C149.215771,77.595 149.458784,77.712 149.703805,77.825 C149.861965,77.8975 150.023638,77.9635 150.18481,78.031 L149.703805,78.031 L149.703805,132 L149.703805,132 Z M162.964557,63.9635613 C162.964557,67.2445521 160.715816,70.0003231 157.687992,70.774834 C157.135432,70.9165679 156.559371,71 155.963807,71 C153.209012,71 150.828757,69.3886555 149.687134,67.0580865 C149.233086,66.1307844 148.969057,65.0929097 148.964557,63.9922097 L148.964557,57 L162.964557,57 L162.964557,63.9635613 L162.964557,63.9635613 Z M169.293864,50 L127.865823,8 L139.369249,8 L180.865823,50 L169.293864,50 L169.293864,50 Z M184.964557,63.9052594 C184.964557,63.9183271 184.963557,63.9308921 184.963557,63.9439598 C184.963557,63.9504936 184.963057,63.9570275 184.963057,63.9635613 C184.963057,63.9700951 184.963557,63.9761264 184.963557,63.9831628 C184.960557,65.0552145 184.711057,66.0669539 184.280057,66.9766649 C183.154557,69.3509603 180.750557,71 177.964557,71 C174.104557,71 170.964557,67.8436546 170.964557,63.9635613 L170.964557,57 L184.964557,57 L184.964557,63.9052594 L184.964557,63.9052594 Z M192.457504,50 L150.865823,8 L162.476698,8 L203.865823,50 L192.457504,50 L192.457504,50 Z M206.964557,63.9635613 C206.964557,67.8436546 203.82422,71 199.963807,71 C196.113394,71 192.980059,67.8592353 192.964557,63.9922097 L192.964557,57 L206.964557,57 L206.964557,63.9635613 L206.964557,63.9635613 Z" id="Fill-13" fill="#27B0A3"></path>
                    <rect id="Rectangle-31" fill="#27B0A3" x="0" y="132" width="180" height="8" rx="10"></rect>
                    <path d="M170.950975,49 L170,49 L182,49" id="Fill-14" fill="#E73F3D"></path>
                    <rect id="Rectangle-49" fill="#27B0A3" x="74" y="49" width="132" height="8"></rect>
                </g>
            </g>
        </g>
    </g>
</svg>