<?xml version="1.0" encoding="UTF-8" standalone="no"?>
<svg width="254px" height="182px" viewBox="0 0 254 182" version="1.1" xmlns="http://www.w3.org/2000/svg" xmlns:xlink="http://www.w3.org/1999/xlink" xmlns:sketch="http://www.bohemiancoding.com/sketch/ns">
    <!-- Generator: Sketch 3.3.3 (12081) - http://www.bohemiancoding.com/sketch -->
    <title>Untitled</title>
    <desc>Created with Sketch.</desc>
    <defs></defs>
    <g id="Page-1" stroke="none" stroke-width="1" fill="none" fill-rule="evenodd" sketch:type="MSPage">
        <g id="screens" sketch:type="MSLayerGroup">
            <g id="Page-1" sketch:type="MSShapeGroup">
                <g id="screens-0d12d07f">
                    <rect id="Rectangle-100" fill="#FFFFFF" x="37" y="7" width="185" height="116"></rect>
                    <rect id="Rectangle-101" fill="#FFFFFF" x="113.5" y="121.5" width="37.5" height="26.5"></rect>
                    <path d="M159.810646,41.7707969 L129.501271,25 L99.190625,41.7707969 L99,41.66575 L99,87.2244531 L129.5,104.100297 L160,87.2244531 L160,41.66575 L159.810646,41.7707969 L159.810646,41.7707969 Z M129.501271,36.5817344 L149.342792,47.5622969 L144.603854,50.1834063 L124.697521,39.2408125 L129.501271,36.5817344 L129.501271,36.5817344 Z M114.211875,45.0411719 L134.118208,55.9837656 L129.5,58.5403281 L109.657208,47.5610312 L114.211875,45.0411719 L114.211875,45.0411719 Z M109.166667,58.9377344 L109.166667,58.8719219 L124.210792,67.1959375 L124.210792,89.5911719 L109.166667,81.2671562 L109.166667,58.9377344 L109.166667,58.9377344 Z M149.833333,58.9377344 L149.833333,81.2671562 L134.377458,89.82025 L134.377458,67.42375 L134.437187,67.3908438 L149.833333,58.8719219 L149.833333,58.9377344 L149.833333,58.9377344 Z" id="Imported-Layers-Copy-10" fill="#DF4F2A"></path>
                    <path d="M211,0 L49,0 C39.06,0 31,8.06 31,18 L31,103.001 L39,103.001 L39,18 C39,12.486 43.486,8 49,8 L211,8 C216.514,8 221,12.486 221,18 L221,113.001 C221,118.514 216.514,123.001 211,123.001 L49,123.001 C43.486,123.001 39,118.514 39,113.001 L31,113.001 C31,122.264 38.001,129.895 47,130.889 L47,136.001 L55,136.001 L55,131.001 L205,131.001 L205,133.001 L213,133.001 L213,130.889 C221.999,129.895 229,122.264 229,113.001 L229,18 C229,8.06 220.94,0 211,0" id="Imported-Layers" fill="#304269"></path>
                    <rect id="Rectangle-94-Copy-3" fill="#304269" x="98" y="147" width="64" height="8" rx="8"></rect>
                    <rect id="Rectangle-92-Copy-7" fill="#304269" x="108" y="130" width="8" height="25"></rect>
                    <rect id="Rectangle-92-Copy-8" fill="#304269" x="144" y="130" width="8" height="25"></rect>
                    <rect id="Rectangle-89" fill="#FFFFFF" x="5" y="53" width="73" height="120"></rect>
                    <path d="M64,45 L18,45 C8.06,45 0,53.06 0,63 L0,163.331 L0.003,163.331 C0.179,173.118 8.17,181.001 18,181.001 L64,181.001 C73.94,181.001 82,172.94 82,163.001 L82,62 L81.973,62 C81.453,52.525 73.605,45 64,45 L64,45 L64,45 Z M74,163.001 C74,168.514 69.514,173.001 64,173.001 L18,173.001 C12.486,173.001 8,168.514 8,163.001 L8,157.001 L74,157.001 L74,163.001 L74,163.001 Z M74,149.001 L8,149.001 L8,63 C8,57.486 12.486,53 18,53 L64,53 C69.514,53 74,57.486 74,63 L74,149.001 L74,149.001 Z" id="Imported-Layers" fill="#304269"></path>
                    <path d="M41,169 C43.209139,169 45,167.209139 45,165 C45,162.790861 43.209139,161 41,161 C38.790861,161 37,162.790861 37,165 C37,167.209139 38.790861,169 41,169 L41,169" id="Path" fill="#304269"></path>
                    <path d="M64.851,88.251 L41.001,75 L17.15,88.251 L17,88.168 L17,124.165 L41,137.499 L65,124.165 L65,88.168 L64.851,88.251 L64.851,88.251 Z M41.001,84.151 L56.614,92.827 L52.885,94.898 L37.221,86.252 L41.001,84.151 L41.001,84.151 Z M28.97,90.835 L44.634,99.481 L41,101.501 L25.386,92.826 L28.97,90.835 L28.97,90.835 Z M25,101.815 L25,101.763 L36.838,108.34 L36.838,126.035 L25,119.458 L25,101.815 L25,101.815 Z M57,101.815 L57,119.458 L44.838,126.216 L44.838,108.52 L44.885,108.494 L57,101.763 L57,101.815 L57,101.815 Z" id="Imported-Layers-Copy-8" fill="#DF4F2A"></path>
                    <rect id="Rectangle-94" fill="#304269" x="246" y="99" width="8" height="12" rx="4"></rect>
                    <path d="M191,85 L191,151 L206,151 L206,171 L231,171 L231,151 L248,151 L248,85 L231,85 L231,57 L206,57 L206,85 L191,85 L191,85 Z" id="Rectangle-92" fill="#FFFFFF"></path>
                    <path d="M194,145 C194,146.105756 194.894382,147 196,147 L240,147 C241.105756,147 242,146.105618 242,145 L242,91 C242,89.8942445 241.105618,89 240,89 L196,89 C194.894244,89 194,89.8943825 194,91 L194,145 L194,145 Z M196,81 L240,81 C245.522847,81 250,85.4749186 250,91 L250,145 C250,150.522847 245.525081,155 240,155 L196,155 C190.477153,155 186,150.525081 186,145 L186,91 C186,85.4771525 190.474919,81 196,81 L196,81 L196,81 Z" id="Shape" fill="#304269"></path>
                    <path d="M229.9255,108.6255 L218.0005,102 L206.075,108.6255 L206,108.584 L206,126.5825 L218,133.2495 L230,126.5825 L230,108.584 L229.9255,108.6255 L229.9255,108.6255 Z M218.0005,106.5755 L225.807,110.9135 L223.9425,111.949 L216.1105,107.626 L218.0005,106.5755 L218.0005,106.5755 Z M211.985,109.9175 L219.817,114.2405 L218,115.2505 L210.193,110.913 L211.985,109.9175 L211.985,109.9175 Z M210,115.4075 L210,115.3815 L215.919,118.67 L215.919,127.5175 L210,124.229 L210,115.4075 L210,115.4075 Z M226,115.4075 L226,124.229 L219.919,127.608 L219.919,118.76 L219.9425,118.747 L226,115.3815 L226,115.4075 L226,115.4075 Z" id="Imported-Layers-Copy-9" fill="#DF4F2A"></path>
                    <path d="M232,57 L204,57 L198,57 L198,82 L206,82 L206,65 L230,65 L230,82 L238,82 L238,57 L232,57 L232,57 Z" id="Rectangle-94-Copy" fill="#304269"></path>
                    <path d="M230,171 L206,171 L206,154 L198,154 L198,179 L204,179 L232,179 L238,179 L238,154 L230,154 L230,171 L230,171 Z" id="Rectangle-94-Copy-2" fill="#304269"></path>
                </g>
            </g>
        </g>
    </g>
</svg>